%TF.GenerationSoftware,KiCad,Pcbnew,(6.0.9)*%
%TF.CreationDate,2022-12-06T23:55:57-06:00*%
%TF.ProjectId,BPS-MinionShield,4250532d-4d69-46e6-996f-6e536869656c,rev?*%
%TF.SameCoordinates,Original*%
%TF.FileFunction,Drillmap*%
%TF.FilePolarity,Positive*%
%FSLAX45Y45*%
G04 Gerber Fmt 4.5, Leading zero omitted, Abs format (unit mm)*
G04 Created by KiCad (PCBNEW (6.0.9)) date 2022-12-06 23:55:57*
%MOMM*%
%LPD*%
G01*
G04 APERTURE LIST*
%ADD10C,0.050000*%
%ADD11C,0.200000*%
%ADD12C,0.300000*%
G04 APERTURE END LIST*
D10*
X11700000Y-12800000D02*
G75*
G03*
X12000000Y-12500000I0J300000D01*
G01*
X10300000Y-12800000D02*
X11700000Y-12800000D01*
X10000000Y-7500000D02*
G75*
G03*
X10300000Y-7800000I300000J0D01*
G01*
X10000000Y-13300000D02*
G75*
G03*
X10300000Y-13600000I300000J0D01*
G01*
X12000000Y-8100000D02*
X12000000Y-12500000D01*
X10300000Y-7000000D02*
G75*
G03*
X10000000Y-7300000I0J-300000D01*
G01*
X10000000Y-13300000D02*
X10000000Y-13100000D01*
X10300000Y-7800000D02*
X11700000Y-7800000D01*
X18500003Y-7315000D02*
G75*
G03*
X18200000Y-7000000I-300003J14640D01*
G01*
X18500000Y-7315000D02*
X18500000Y-13315000D01*
X10000000Y-7300000D02*
X10000000Y-7500000D01*
X18200000Y-13600000D02*
X10300000Y-13600000D01*
X10300000Y-7000000D02*
X18200000Y-7000000D01*
X10300000Y-12800000D02*
G75*
G03*
X10000000Y-13100000I0J-300000D01*
G01*
X12000000Y-8100000D02*
G75*
G03*
X11700000Y-7800000I-300000J0D01*
G01*
X18200000Y-13600004D02*
G75*
G03*
X18500000Y-13315000I0J300395D01*
G01*
D11*
D12*
X10150000Y-7150000D02*
X10450000Y-7450000D01*
X10450000Y-7150000D02*
X10150000Y-7450000D01*
X10150000Y-13150000D02*
X10450000Y-13450000D01*
X10450000Y-13150000D02*
X10150000Y-13450000D01*
X18050000Y-7150000D02*
X18350000Y-7450000D01*
X18350000Y-7150000D02*
X18050000Y-7450000D01*
X18050000Y-13150000D02*
X18350000Y-13450000D01*
X18350000Y-13150000D02*
X18050000Y-13450000D01*
D11*
X10255119Y-13912976D02*
X10255119Y-13712976D01*
X10302738Y-13712976D01*
X10331310Y-13722500D01*
X10350357Y-13741548D01*
X10359881Y-13760595D01*
X10369405Y-13798690D01*
X10369405Y-13827262D01*
X10359881Y-13865357D01*
X10350357Y-13884405D01*
X10331310Y-13903452D01*
X10302738Y-13912976D01*
X10255119Y-13912976D01*
X10455119Y-13912976D02*
X10455119Y-13779643D01*
X10455119Y-13817738D02*
X10464643Y-13798690D01*
X10474167Y-13789167D01*
X10493214Y-13779643D01*
X10512262Y-13779643D01*
X10578929Y-13912976D02*
X10578929Y-13779643D01*
X10578929Y-13712976D02*
X10569405Y-13722500D01*
X10578929Y-13732024D01*
X10588452Y-13722500D01*
X10578929Y-13712976D01*
X10578929Y-13732024D01*
X10702738Y-13912976D02*
X10683690Y-13903452D01*
X10674167Y-13884405D01*
X10674167Y-13712976D01*
X10807500Y-13912976D02*
X10788452Y-13903452D01*
X10778929Y-13884405D01*
X10778929Y-13712976D01*
X11036071Y-13912976D02*
X11036071Y-13712976D01*
X11102738Y-13855833D01*
X11169405Y-13712976D01*
X11169405Y-13912976D01*
X11350357Y-13912976D02*
X11350357Y-13808214D01*
X11340833Y-13789167D01*
X11321786Y-13779643D01*
X11283690Y-13779643D01*
X11264643Y-13789167D01*
X11350357Y-13903452D02*
X11331309Y-13912976D01*
X11283690Y-13912976D01*
X11264643Y-13903452D01*
X11255119Y-13884405D01*
X11255119Y-13865357D01*
X11264643Y-13846309D01*
X11283690Y-13836786D01*
X11331309Y-13836786D01*
X11350357Y-13827262D01*
X11445595Y-13779643D02*
X11445595Y-13979643D01*
X11445595Y-13789167D02*
X11464643Y-13779643D01*
X11502738Y-13779643D01*
X11521786Y-13789167D01*
X11531309Y-13798690D01*
X11540833Y-13817738D01*
X11540833Y-13874881D01*
X11531309Y-13893928D01*
X11521786Y-13903452D01*
X11502738Y-13912976D01*
X11464643Y-13912976D01*
X11445595Y-13903452D01*
X11626548Y-13893928D02*
X11636071Y-13903452D01*
X11626548Y-13912976D01*
X11617024Y-13903452D01*
X11626548Y-13893928D01*
X11626548Y-13912976D01*
X11626548Y-13789167D02*
X11636071Y-13798690D01*
X11626548Y-13808214D01*
X11617024Y-13798690D01*
X11626548Y-13789167D01*
X11626548Y-13808214D01*
X9797500Y-14142500D02*
X9997500Y-14342500D01*
X9997500Y-14142500D02*
X9797500Y-14342500D01*
X10236071Y-14132976D02*
X10359881Y-14132976D01*
X10293214Y-14209167D01*
X10321786Y-14209167D01*
X10340833Y-14218690D01*
X10350357Y-14228214D01*
X10359881Y-14247262D01*
X10359881Y-14294881D01*
X10350357Y-14313928D01*
X10340833Y-14323452D01*
X10321786Y-14332976D01*
X10264643Y-14332976D01*
X10245595Y-14323452D01*
X10236071Y-14313928D01*
X10445595Y-14313928D02*
X10455119Y-14323452D01*
X10445595Y-14332976D01*
X10436071Y-14323452D01*
X10445595Y-14313928D01*
X10445595Y-14332976D01*
X10578929Y-14132976D02*
X10597976Y-14132976D01*
X10617024Y-14142500D01*
X10626548Y-14152024D01*
X10636071Y-14171071D01*
X10645595Y-14209167D01*
X10645595Y-14256786D01*
X10636071Y-14294881D01*
X10626548Y-14313928D01*
X10617024Y-14323452D01*
X10597976Y-14332976D01*
X10578929Y-14332976D01*
X10559881Y-14323452D01*
X10550357Y-14313928D01*
X10540833Y-14294881D01*
X10531310Y-14256786D01*
X10531310Y-14209167D01*
X10540833Y-14171071D01*
X10550357Y-14152024D01*
X10559881Y-14142500D01*
X10578929Y-14132976D01*
X10769405Y-14132976D02*
X10788452Y-14132976D01*
X10807500Y-14142500D01*
X10817024Y-14152024D01*
X10826548Y-14171071D01*
X10836071Y-14209167D01*
X10836071Y-14256786D01*
X10826548Y-14294881D01*
X10817024Y-14313928D01*
X10807500Y-14323452D01*
X10788452Y-14332976D01*
X10769405Y-14332976D01*
X10750357Y-14323452D01*
X10740833Y-14313928D01*
X10731310Y-14294881D01*
X10721786Y-14256786D01*
X10721786Y-14209167D01*
X10731310Y-14171071D01*
X10740833Y-14152024D01*
X10750357Y-14142500D01*
X10769405Y-14132976D01*
X10959881Y-14132976D02*
X10978929Y-14132976D01*
X10997976Y-14142500D01*
X11007500Y-14152024D01*
X11017024Y-14171071D01*
X11026548Y-14209167D01*
X11026548Y-14256786D01*
X11017024Y-14294881D01*
X11007500Y-14313928D01*
X10997976Y-14323452D01*
X10978929Y-14332976D01*
X10959881Y-14332976D01*
X10940833Y-14323452D01*
X10931310Y-14313928D01*
X10921786Y-14294881D01*
X10912262Y-14256786D01*
X10912262Y-14209167D01*
X10921786Y-14171071D01*
X10931310Y-14152024D01*
X10940833Y-14142500D01*
X10959881Y-14132976D01*
X11112262Y-14332976D02*
X11112262Y-14199643D01*
X11112262Y-14218690D02*
X11121786Y-14209167D01*
X11140833Y-14199643D01*
X11169405Y-14199643D01*
X11188452Y-14209167D01*
X11197976Y-14228214D01*
X11197976Y-14332976D01*
X11197976Y-14228214D02*
X11207500Y-14209167D01*
X11226548Y-14199643D01*
X11255119Y-14199643D01*
X11274167Y-14209167D01*
X11283690Y-14228214D01*
X11283690Y-14332976D01*
X11378928Y-14332976D02*
X11378928Y-14199643D01*
X11378928Y-14218690D02*
X11388452Y-14209167D01*
X11407500Y-14199643D01*
X11436071Y-14199643D01*
X11455119Y-14209167D01*
X11464643Y-14228214D01*
X11464643Y-14332976D01*
X11464643Y-14228214D02*
X11474167Y-14209167D01*
X11493214Y-14199643D01*
X11521786Y-14199643D01*
X11540833Y-14209167D01*
X11550357Y-14228214D01*
X11550357Y-14332976D01*
X11940833Y-14123452D02*
X11769405Y-14380595D01*
X12197976Y-14132976D02*
X12217024Y-14132976D01*
X12236071Y-14142500D01*
X12245595Y-14152024D01*
X12255119Y-14171071D01*
X12264643Y-14209167D01*
X12264643Y-14256786D01*
X12255119Y-14294881D01*
X12245595Y-14313928D01*
X12236071Y-14323452D01*
X12217024Y-14332976D01*
X12197976Y-14332976D01*
X12178928Y-14323452D01*
X12169405Y-14313928D01*
X12159881Y-14294881D01*
X12150357Y-14256786D01*
X12150357Y-14209167D01*
X12159881Y-14171071D01*
X12169405Y-14152024D01*
X12178928Y-14142500D01*
X12197976Y-14132976D01*
X12350357Y-14313928D02*
X12359881Y-14323452D01*
X12350357Y-14332976D01*
X12340833Y-14323452D01*
X12350357Y-14313928D01*
X12350357Y-14332976D01*
X12550357Y-14332976D02*
X12436071Y-14332976D01*
X12493214Y-14332976D02*
X12493214Y-14132976D01*
X12474167Y-14161548D01*
X12455119Y-14180595D01*
X12436071Y-14190119D01*
X12740833Y-14332976D02*
X12626548Y-14332976D01*
X12683690Y-14332976D02*
X12683690Y-14132976D01*
X12664643Y-14161548D01*
X12645595Y-14180595D01*
X12626548Y-14190119D01*
X12855119Y-14218690D02*
X12836071Y-14209167D01*
X12826548Y-14199643D01*
X12817024Y-14180595D01*
X12817024Y-14171071D01*
X12826548Y-14152024D01*
X12836071Y-14142500D01*
X12855119Y-14132976D01*
X12893214Y-14132976D01*
X12912262Y-14142500D01*
X12921786Y-14152024D01*
X12931309Y-14171071D01*
X12931309Y-14180595D01*
X12921786Y-14199643D01*
X12912262Y-14209167D01*
X12893214Y-14218690D01*
X12855119Y-14218690D01*
X12836071Y-14228214D01*
X12826548Y-14237738D01*
X12817024Y-14256786D01*
X12817024Y-14294881D01*
X12826548Y-14313928D01*
X12836071Y-14323452D01*
X12855119Y-14332976D01*
X12893214Y-14332976D01*
X12912262Y-14323452D01*
X12921786Y-14313928D01*
X12931309Y-14294881D01*
X12931309Y-14256786D01*
X12921786Y-14237738D01*
X12912262Y-14228214D01*
X12893214Y-14218690D01*
X13121786Y-14332976D02*
X13007500Y-14332976D01*
X13064643Y-14332976D02*
X13064643Y-14132976D01*
X13045595Y-14161548D01*
X13026548Y-14180595D01*
X13007500Y-14190119D01*
X13197976Y-14132976D02*
X13197976Y-14171071D01*
X13274167Y-14132976D02*
X13274167Y-14171071D01*
X13569405Y-14409167D02*
X13559881Y-14399643D01*
X13540833Y-14371071D01*
X13531309Y-14352024D01*
X13521786Y-14323452D01*
X13512262Y-14275833D01*
X13512262Y-14237738D01*
X13521786Y-14190119D01*
X13531309Y-14161548D01*
X13540833Y-14142500D01*
X13559881Y-14113928D01*
X13569405Y-14104405D01*
X13731309Y-14199643D02*
X13731309Y-14332976D01*
X13683690Y-14123452D02*
X13636071Y-14266309D01*
X13759881Y-14266309D01*
X13988452Y-14332976D02*
X13988452Y-14132976D01*
X14074167Y-14332976D02*
X14074167Y-14228214D01*
X14064643Y-14209167D01*
X14045595Y-14199643D01*
X14017024Y-14199643D01*
X13997976Y-14209167D01*
X13988452Y-14218690D01*
X14197976Y-14332976D02*
X14178928Y-14323452D01*
X14169405Y-14313928D01*
X14159881Y-14294881D01*
X14159881Y-14237738D01*
X14169405Y-14218690D01*
X14178928Y-14209167D01*
X14197976Y-14199643D01*
X14226548Y-14199643D01*
X14245595Y-14209167D01*
X14255119Y-14218690D01*
X14264643Y-14237738D01*
X14264643Y-14294881D01*
X14255119Y-14313928D01*
X14245595Y-14323452D01*
X14226548Y-14332976D01*
X14197976Y-14332976D01*
X14378928Y-14332976D02*
X14359881Y-14323452D01*
X14350357Y-14304405D01*
X14350357Y-14132976D01*
X14531309Y-14323452D02*
X14512262Y-14332976D01*
X14474167Y-14332976D01*
X14455119Y-14323452D01*
X14445595Y-14304405D01*
X14445595Y-14228214D01*
X14455119Y-14209167D01*
X14474167Y-14199643D01*
X14512262Y-14199643D01*
X14531309Y-14209167D01*
X14540833Y-14228214D01*
X14540833Y-14247262D01*
X14445595Y-14266309D01*
X14617024Y-14323452D02*
X14636071Y-14332976D01*
X14674167Y-14332976D01*
X14693214Y-14323452D01*
X14702738Y-14304405D01*
X14702738Y-14294881D01*
X14693214Y-14275833D01*
X14674167Y-14266309D01*
X14645595Y-14266309D01*
X14626548Y-14256786D01*
X14617024Y-14237738D01*
X14617024Y-14228214D01*
X14626548Y-14209167D01*
X14645595Y-14199643D01*
X14674167Y-14199643D01*
X14693214Y-14209167D01*
X14769405Y-14409167D02*
X14778928Y-14399643D01*
X14797976Y-14371071D01*
X14807500Y-14352024D01*
X14817024Y-14323452D01*
X14826548Y-14275833D01*
X14826548Y-14237738D01*
X14817024Y-14190119D01*
X14807500Y-14161548D01*
X14797976Y-14142500D01*
X14778928Y-14113928D01*
X14769405Y-14104405D01*
X15131309Y-14409167D02*
X15121786Y-14399643D01*
X15102738Y-14371071D01*
X15093214Y-14352024D01*
X15083690Y-14323452D01*
X15074167Y-14275833D01*
X15074167Y-14237738D01*
X15083690Y-14190119D01*
X15093214Y-14161548D01*
X15102738Y-14142500D01*
X15121786Y-14113928D01*
X15131309Y-14104405D01*
X15207500Y-14199643D02*
X15207500Y-14332976D01*
X15207500Y-14218690D02*
X15217024Y-14209167D01*
X15236071Y-14199643D01*
X15264643Y-14199643D01*
X15283690Y-14209167D01*
X15293214Y-14228214D01*
X15293214Y-14332976D01*
X15417024Y-14332976D02*
X15397976Y-14323452D01*
X15388452Y-14313928D01*
X15378928Y-14294881D01*
X15378928Y-14237738D01*
X15388452Y-14218690D01*
X15397976Y-14209167D01*
X15417024Y-14199643D01*
X15445595Y-14199643D01*
X15464643Y-14209167D01*
X15474167Y-14218690D01*
X15483690Y-14237738D01*
X15483690Y-14294881D01*
X15474167Y-14313928D01*
X15464643Y-14323452D01*
X15445595Y-14332976D01*
X15417024Y-14332976D01*
X15540833Y-14199643D02*
X15617024Y-14199643D01*
X15569405Y-14132976D02*
X15569405Y-14304405D01*
X15578928Y-14323452D01*
X15597976Y-14332976D01*
X15617024Y-14332976D01*
X15836071Y-14199643D02*
X15836071Y-14399643D01*
X15836071Y-14209167D02*
X15855119Y-14199643D01*
X15893214Y-14199643D01*
X15912262Y-14209167D01*
X15921786Y-14218690D01*
X15931309Y-14237738D01*
X15931309Y-14294881D01*
X15921786Y-14313928D01*
X15912262Y-14323452D01*
X15893214Y-14332976D01*
X15855119Y-14332976D01*
X15836071Y-14323452D01*
X16045595Y-14332976D02*
X16026548Y-14323452D01*
X16017024Y-14304405D01*
X16017024Y-14132976D01*
X16207500Y-14332976D02*
X16207500Y-14228214D01*
X16197976Y-14209167D01*
X16178928Y-14199643D01*
X16140833Y-14199643D01*
X16121786Y-14209167D01*
X16207500Y-14323452D02*
X16188452Y-14332976D01*
X16140833Y-14332976D01*
X16121786Y-14323452D01*
X16112262Y-14304405D01*
X16112262Y-14285357D01*
X16121786Y-14266309D01*
X16140833Y-14256786D01*
X16188452Y-14256786D01*
X16207500Y-14247262D01*
X16274167Y-14199643D02*
X16350357Y-14199643D01*
X16302738Y-14132976D02*
X16302738Y-14304405D01*
X16312262Y-14323452D01*
X16331309Y-14332976D01*
X16350357Y-14332976D01*
X16493214Y-14323452D02*
X16474167Y-14332976D01*
X16436071Y-14332976D01*
X16417024Y-14323452D01*
X16407500Y-14304405D01*
X16407500Y-14228214D01*
X16417024Y-14209167D01*
X16436071Y-14199643D01*
X16474167Y-14199643D01*
X16493214Y-14209167D01*
X16502738Y-14228214D01*
X16502738Y-14247262D01*
X16407500Y-14266309D01*
X16674167Y-14332976D02*
X16674167Y-14132976D01*
X16674167Y-14323452D02*
X16655119Y-14332976D01*
X16617024Y-14332976D01*
X16597976Y-14323452D01*
X16588452Y-14313928D01*
X16578928Y-14294881D01*
X16578928Y-14237738D01*
X16588452Y-14218690D01*
X16597976Y-14209167D01*
X16617024Y-14199643D01*
X16655119Y-14199643D01*
X16674167Y-14209167D01*
X16750357Y-14409167D02*
X16759881Y-14399643D01*
X16778929Y-14371071D01*
X16788452Y-14352024D01*
X16797976Y-14323452D01*
X16807500Y-14275833D01*
X16807500Y-14237738D01*
X16797976Y-14190119D01*
X16788452Y-14161548D01*
X16778929Y-14142500D01*
X16759881Y-14113928D01*
X16750357Y-14104405D01*
M02*
