%TF.GenerationSoftware,KiCad,Pcbnew,(6.0.9)*%
%TF.CreationDate,2022-12-26T00:01:34-06:00*%
%TF.ProjectId,BPS-MinionShield,4250532d-4d69-46e6-996f-6e536869656c,rev?*%
%TF.SameCoordinates,Original*%
%TF.FileFunction,Soldermask,Bot*%
%TF.FilePolarity,Negative*%
%FSLAX46Y46*%
G04 Gerber Fmt 4.6, Leading zero omitted, Abs format (unit mm)*
G04 Created by KiCad (PCBNEW (6.0.9)) date 2022-12-26 00:01:34*
%MOMM*%
%LPD*%
G01*
G04 APERTURE LIST*
G04 Aperture macros list*
%AMRoundRect*
0 Rectangle with rounded corners*
0 $1 Rounding radius*
0 $2 $3 $4 $5 $6 $7 $8 $9 X,Y pos of 4 corners*
0 Add a 4 corners polygon primitive as box body*
4,1,4,$2,$3,$4,$5,$6,$7,$8,$9,$2,$3,0*
0 Add four circle primitives for the rounded corners*
1,1,$1+$1,$2,$3*
1,1,$1+$1,$4,$5*
1,1,$1+$1,$6,$7*
1,1,$1+$1,$8,$9*
0 Add four rect primitives between the rounded corners*
20,1,$1+$1,$2,$3,$4,$5,0*
20,1,$1+$1,$4,$5,$6,$7,0*
20,1,$1+$1,$6,$7,$8,$9,0*
20,1,$1+$1,$8,$9,$2,$3,0*%
G04 Aperture macros list end*
%ADD10C,1.302000*%
%ADD11C,1.626000*%
%ADD12RoundRect,0.051000X0.850000X-0.850000X0.850000X0.850000X-0.850000X0.850000X-0.850000X-0.850000X0*%
%ADD13O,1.802000X1.802000*%
%ADD14C,3.102000*%
%ADD15RoundRect,0.051000X-0.850000X0.850000X-0.850000X-0.850000X0.850000X-0.850000X0.850000X0.850000X0*%
%ADD16C,1.602000*%
%ADD17C,0.902000*%
G04 APERTURE END LIST*
D10*
X128810000Y-90250000D03*
X129110000Y-115450000D03*
D11*
X132210000Y-91850000D03*
X130210000Y-91850000D03*
X132210000Y-93850000D03*
X130210000Y-93850000D03*
X132210000Y-95850000D03*
X130210000Y-95850000D03*
X132210000Y-97850000D03*
X130210000Y-97850000D03*
X132210000Y-99850000D03*
X130210000Y-99850000D03*
X132210000Y-101850000D03*
X130210000Y-101850000D03*
X132210000Y-103850000D03*
X130210000Y-103850000D03*
X132210000Y-105850000D03*
X130210000Y-105850000D03*
X132210000Y-107850000D03*
X130210000Y-107850000D03*
X132210000Y-109850000D03*
X130210000Y-109850000D03*
X132210000Y-111850000D03*
X130210000Y-111850000D03*
X132210000Y-113850000D03*
X130210000Y-113850000D03*
D12*
X148000000Y-78000000D03*
D13*
X150540000Y-78000000D03*
X153080000Y-78000000D03*
X155620000Y-78000000D03*
X158160000Y-78000000D03*
X160700000Y-78000000D03*
X163240000Y-78000000D03*
X165780000Y-78000000D03*
X168320000Y-78000000D03*
X170860000Y-78000000D03*
D14*
X182000000Y-133000000D03*
X103000000Y-133000000D03*
X103000000Y-73000000D03*
X182000000Y-73000000D03*
D15*
X170830000Y-128000000D03*
D13*
X168290000Y-128000000D03*
X165750000Y-128000000D03*
X163210000Y-128000000D03*
X160670000Y-128000000D03*
X158130000Y-128000000D03*
X155590000Y-128000000D03*
X153050000Y-128000000D03*
X150510000Y-128000000D03*
X147970000Y-128000000D03*
D16*
X165000000Y-105000000D03*
D17*
X142705000Y-119535000D03*
X151075000Y-119535000D03*
X145890000Y-86700000D03*
X160240000Y-86700000D03*
X179210000Y-86700000D03*
X135090000Y-122490000D03*
X171950000Y-86700000D03*
X163725000Y-119535000D03*
X171745000Y-119535000D03*
X153240000Y-86700000D03*
X127300000Y-122490000D03*
X157665000Y-119535000D03*
X165110000Y-86700000D03*
X181015000Y-117815000D03*
X181652500Y-93757500D03*
X126740000Y-81720000D03*
X135830000Y-83090000D03*
X120000000Y-130000000D03*
X145000000Y-130000000D03*
X155000000Y-130000000D03*
X120000000Y-75000000D03*
X140000000Y-75000000D03*
X130000000Y-120000000D03*
X165000000Y-85000000D03*
X165000000Y-95000000D03*
X140000000Y-130000000D03*
X180000000Y-110000000D03*
X160000000Y-85000000D03*
X160000000Y-110000000D03*
X125000000Y-75000000D03*
X170000000Y-115000000D03*
X145000000Y-75000000D03*
X165000000Y-75000000D03*
X165000000Y-115000000D03*
X165000000Y-130000000D03*
X170000000Y-95000000D03*
X135000000Y-120000000D03*
X175000000Y-100000000D03*
X175000000Y-110000000D03*
X135000000Y-75000000D03*
X162490000Y-82270000D03*
X130000000Y-130000000D03*
X115000000Y-75000000D03*
X180000000Y-130000000D03*
X150000000Y-130000000D03*
X160000000Y-95000000D03*
X180000000Y-80000000D03*
X175000000Y-75000000D03*
X145000000Y-95000000D03*
X140000000Y-110000000D03*
X135000000Y-130000000D03*
X150000000Y-110000000D03*
X140000000Y-85000000D03*
X160000000Y-105000000D03*
X170000000Y-105000000D03*
X140000000Y-90000000D03*
X140000000Y-105000000D03*
X175000000Y-105000000D03*
X145000000Y-110000000D03*
X130000000Y-85000000D03*
X130000000Y-75000000D03*
X155000000Y-90000000D03*
X160000000Y-130000000D03*
X110000000Y-75000000D03*
X170000000Y-75000000D03*
X180000000Y-90000000D03*
X135000000Y-95000000D03*
X170000000Y-110000000D03*
X165000000Y-90000000D03*
X145000000Y-90000000D03*
X180000000Y-115000000D03*
X150000000Y-105000000D03*
X170000000Y-85000000D03*
X160000000Y-75000000D03*
X170000000Y-90000000D03*
X155000000Y-85000000D03*
X150000000Y-95000000D03*
X180000000Y-105000000D03*
X155000000Y-95000000D03*
X125000000Y-130000000D03*
X125000000Y-115000000D03*
X155000000Y-75000000D03*
X180000000Y-85000000D03*
X180000000Y-75000000D03*
X145000000Y-105000000D03*
X175000000Y-130000000D03*
X170000000Y-130000000D03*
X140000000Y-95000000D03*
X135000000Y-85000000D03*
X150000000Y-75000000D03*
X136845000Y-129175000D03*
X127550000Y-125520000D03*
X127490000Y-80110000D03*
X137340000Y-80850000D03*
X179560000Y-117070000D03*
X173727500Y-113850000D03*
X167050000Y-109960000D03*
X152700000Y-97850000D03*
X144850000Y-117344500D03*
X137870000Y-114940000D03*
X140870000Y-101850000D03*
X147782500Y-93860000D03*
X156960000Y-110020000D03*
X159590000Y-115100000D03*
X172690000Y-99850000D03*
X180927500Y-91422500D03*
M02*
