%TF.GenerationSoftware,KiCad,Pcbnew,(6.0.9)*%
%TF.CreationDate,2022-12-03T10:54:25-06:00*%
%TF.ProjectId,BPS-MinionShield,4250532d-4d69-46e6-996f-6e536869656c,rev?*%
%TF.SameCoordinates,Original*%
%TF.FileFunction,Legend,Top*%
%TF.FilePolarity,Positive*%
%FSLAX46Y46*%
G04 Gerber Fmt 4.6, Leading zero omitted, Abs format (unit mm)*
G04 Created by KiCad (PCBNEW (6.0.9)) date 2022-12-03 10:54:25*
%MOMM*%
%LPD*%
G01*
G04 APERTURE LIST*
%ADD10C,0.150000*%
%ADD11C,0.120000*%
%ADD12C,0.010000*%
G04 APERTURE END LIST*
D10*
X148071428Y-75664404D02*
X148071428Y-74902500D01*
X148452380Y-75283452D02*
X147690476Y-75283452D01*
X147452380Y-73950119D02*
X147452380Y-74426309D01*
X147928571Y-74473928D01*
X147880952Y-74426309D01*
X147833333Y-74331071D01*
X147833333Y-74092976D01*
X147880952Y-73997738D01*
X147928571Y-73950119D01*
X148023809Y-73902500D01*
X148261904Y-73902500D01*
X148357142Y-73950119D01*
X148404761Y-73997738D01*
X148452380Y-74092976D01*
X148452380Y-74331071D01*
X148404761Y-74426309D01*
X148357142Y-74473928D01*
X147452380Y-73616785D02*
X148452380Y-73283452D01*
X147452380Y-72950119D01*
X156072380Y-75190476D02*
X156072380Y-75761904D01*
X156072380Y-75476190D02*
X155072380Y-75476190D01*
X155215238Y-75571428D01*
X155310476Y-75666666D01*
X155358095Y-75761904D01*
X156072380Y-74238095D02*
X156072380Y-74809523D01*
X156072380Y-74523809D02*
X155072380Y-74523809D01*
X155215238Y-74619047D01*
X155310476Y-74714285D01*
X155358095Y-74809523D01*
X160485714Y-130809523D02*
X161152380Y-130809523D01*
X160104761Y-131047619D02*
X160819047Y-131285714D01*
X160819047Y-130666666D01*
X158612380Y-75190476D02*
X158612380Y-75761904D01*
X158612380Y-75476190D02*
X157612380Y-75476190D01*
X157755238Y-75571428D01*
X157850476Y-75666666D01*
X157898095Y-75761904D01*
X157707619Y-74809523D02*
X157660000Y-74761904D01*
X157612380Y-74666666D01*
X157612380Y-74428571D01*
X157660000Y-74333333D01*
X157707619Y-74285714D01*
X157802857Y-74238095D01*
X157898095Y-74238095D01*
X158040952Y-74285714D01*
X158612380Y-74857142D01*
X158612380Y-74238095D01*
X166232380Y-75190476D02*
X166232380Y-75761904D01*
X166232380Y-75476190D02*
X165232380Y-75476190D01*
X165375238Y-75571428D01*
X165470476Y-75666666D01*
X165518095Y-75761904D01*
X165232380Y-74285714D02*
X165232380Y-74761904D01*
X165708571Y-74809523D01*
X165660952Y-74761904D01*
X165613333Y-74666666D01*
X165613333Y-74428571D01*
X165660952Y-74333333D01*
X165708571Y-74285714D01*
X165803809Y-74238095D01*
X166041904Y-74238095D01*
X166137142Y-74285714D01*
X166184761Y-74333333D01*
X166232380Y-74428571D01*
X166232380Y-74666666D01*
X166184761Y-74761904D01*
X166137142Y-74809523D01*
X168772380Y-75190476D02*
X168772380Y-75761904D01*
X168772380Y-75476190D02*
X167772380Y-75476190D01*
X167915238Y-75571428D01*
X168010476Y-75666666D01*
X168058095Y-75761904D01*
X167772380Y-74333333D02*
X167772380Y-74523809D01*
X167820000Y-74619047D01*
X167867619Y-74666666D01*
X168010476Y-74761904D01*
X168200952Y-74809523D01*
X168581904Y-74809523D01*
X168677142Y-74761904D01*
X168724761Y-74714285D01*
X168772380Y-74619047D01*
X168772380Y-74428571D01*
X168724761Y-74333333D01*
X168677142Y-74285714D01*
X168581904Y-74238095D01*
X168343809Y-74238095D01*
X168248571Y-74285714D01*
X168200952Y-74333333D01*
X168153333Y-74428571D01*
X168153333Y-74619047D01*
X168200952Y-74714285D01*
X168248571Y-74761904D01*
X168343809Y-74809523D01*
X157612380Y-130761904D02*
X157612380Y-131238095D01*
X158088571Y-131285714D01*
X158040952Y-131238095D01*
X157993333Y-131142857D01*
X157993333Y-130904761D01*
X158040952Y-130809523D01*
X158088571Y-130761904D01*
X158183809Y-130714285D01*
X158421904Y-130714285D01*
X158517142Y-130761904D01*
X158564761Y-130809523D01*
X158612380Y-130904761D01*
X158612380Y-131142857D01*
X158564761Y-131238095D01*
X158517142Y-131285714D01*
X162692380Y-131333333D02*
X162692380Y-130714285D01*
X163073333Y-131047619D01*
X163073333Y-130904761D01*
X163120952Y-130809523D01*
X163168571Y-130761904D01*
X163263809Y-130714285D01*
X163501904Y-130714285D01*
X163597142Y-130761904D01*
X163644761Y-130809523D01*
X163692380Y-130904761D01*
X163692380Y-131190476D01*
X163644761Y-131285714D01*
X163597142Y-131333333D01*
X170360000Y-75140595D02*
X170312380Y-75235833D01*
X170312380Y-75378690D01*
X170360000Y-75521547D01*
X170455238Y-75616785D01*
X170550476Y-75664404D01*
X170740952Y-75712023D01*
X170883809Y-75712023D01*
X171074285Y-75664404D01*
X171169523Y-75616785D01*
X171264761Y-75521547D01*
X171312380Y-75378690D01*
X171312380Y-75283452D01*
X171264761Y-75140595D01*
X171217142Y-75092976D01*
X170883809Y-75092976D01*
X170883809Y-75283452D01*
X171312380Y-74664404D02*
X170312380Y-74664404D01*
X171312380Y-74092976D01*
X170312380Y-74092976D01*
X171312380Y-73616785D02*
X170312380Y-73616785D01*
X170312380Y-73378690D01*
X170360000Y-73235833D01*
X170455238Y-73140595D01*
X170550476Y-73092976D01*
X170740952Y-73045357D01*
X170883809Y-73045357D01*
X171074285Y-73092976D01*
X171169523Y-73140595D01*
X171264761Y-73235833D01*
X171312380Y-73378690D01*
X171312380Y-73616785D01*
X109690476Y-129842380D02*
X109690476Y-130651904D01*
X109738095Y-130747142D01*
X109785714Y-130794761D01*
X109880952Y-130842380D01*
X110071428Y-130842380D01*
X110166666Y-130794761D01*
X110214285Y-130747142D01*
X110261904Y-130651904D01*
X110261904Y-129842380D01*
X110595238Y-129842380D02*
X111166666Y-129842380D01*
X110880952Y-130842380D02*
X110880952Y-129842380D01*
X111452380Y-130794761D02*
X111595238Y-130842380D01*
X111833333Y-130842380D01*
X111928571Y-130794761D01*
X111976190Y-130747142D01*
X112023809Y-130651904D01*
X112023809Y-130556666D01*
X111976190Y-130461428D01*
X111928571Y-130413809D01*
X111833333Y-130366190D01*
X111642857Y-130318571D01*
X111547619Y-130270952D01*
X111500000Y-130223333D01*
X111452380Y-130128095D01*
X111452380Y-130032857D01*
X111500000Y-129937619D01*
X111547619Y-129890000D01*
X111642857Y-129842380D01*
X111880952Y-129842380D01*
X112023809Y-129890000D01*
X112309523Y-129842380D02*
X112642857Y-130842380D01*
X112976190Y-129842380D01*
X113166666Y-129842380D02*
X113738095Y-129842380D01*
X113452380Y-130842380D02*
X113452380Y-129842380D01*
X114833333Y-130461428D02*
X115595238Y-130461428D01*
X117166666Y-130318571D02*
X117309523Y-130366190D01*
X117357142Y-130413809D01*
X117404761Y-130509047D01*
X117404761Y-130651904D01*
X117357142Y-130747142D01*
X117309523Y-130794761D01*
X117214285Y-130842380D01*
X116833333Y-130842380D01*
X116833333Y-129842380D01*
X117166666Y-129842380D01*
X117261904Y-129890000D01*
X117309523Y-129937619D01*
X117357142Y-130032857D01*
X117357142Y-130128095D01*
X117309523Y-130223333D01*
X117261904Y-130270952D01*
X117166666Y-130318571D01*
X116833333Y-130318571D01*
X117833333Y-130842380D02*
X117833333Y-129842380D01*
X118214285Y-129842380D01*
X118309523Y-129890000D01*
X118357142Y-129937619D01*
X118404761Y-130032857D01*
X118404761Y-130175714D01*
X118357142Y-130270952D01*
X118309523Y-130318571D01*
X118214285Y-130366190D01*
X117833333Y-130366190D01*
X118785714Y-130794761D02*
X118928571Y-130842380D01*
X119166666Y-130842380D01*
X119261904Y-130794761D01*
X119309523Y-130747142D01*
X119357142Y-130651904D01*
X119357142Y-130556666D01*
X119309523Y-130461428D01*
X119261904Y-130413809D01*
X119166666Y-130366190D01*
X118976190Y-130318571D01*
X118880952Y-130270952D01*
X118833333Y-130223333D01*
X118785714Y-130128095D01*
X118785714Y-130032857D01*
X118833333Y-129937619D01*
X118880952Y-129890000D01*
X118976190Y-129842380D01*
X119214285Y-129842380D01*
X119357142Y-129890000D01*
X106238095Y-132452380D02*
X106238095Y-131452380D01*
X106571428Y-132166666D01*
X106904761Y-131452380D01*
X106904761Y-132452380D01*
X107380952Y-132452380D02*
X107380952Y-131785714D01*
X107380952Y-131452380D02*
X107333333Y-131500000D01*
X107380952Y-131547619D01*
X107428571Y-131500000D01*
X107380952Y-131452380D01*
X107380952Y-131547619D01*
X107857142Y-131785714D02*
X107857142Y-132452380D01*
X107857142Y-131880952D02*
X107904761Y-131833333D01*
X108000000Y-131785714D01*
X108142857Y-131785714D01*
X108238095Y-131833333D01*
X108285714Y-131928571D01*
X108285714Y-132452380D01*
X108761904Y-132452380D02*
X108761904Y-131785714D01*
X108761904Y-131452380D02*
X108714285Y-131500000D01*
X108761904Y-131547619D01*
X108809523Y-131500000D01*
X108761904Y-131452380D01*
X108761904Y-131547619D01*
X109380952Y-132452380D02*
X109285714Y-132404761D01*
X109238095Y-132357142D01*
X109190476Y-132261904D01*
X109190476Y-131976190D01*
X109238095Y-131880952D01*
X109285714Y-131833333D01*
X109380952Y-131785714D01*
X109523809Y-131785714D01*
X109619047Y-131833333D01*
X109666666Y-131880952D01*
X109714285Y-131976190D01*
X109714285Y-132261904D01*
X109666666Y-132357142D01*
X109619047Y-132404761D01*
X109523809Y-132452380D01*
X109380952Y-132452380D01*
X110142857Y-131785714D02*
X110142857Y-132452380D01*
X110142857Y-131880952D02*
X110190476Y-131833333D01*
X110285714Y-131785714D01*
X110428571Y-131785714D01*
X110523809Y-131833333D01*
X110571428Y-131928571D01*
X110571428Y-132452380D01*
X112380952Y-132357142D02*
X112333333Y-132404761D01*
X112190476Y-132452380D01*
X112095238Y-132452380D01*
X111952380Y-132404761D01*
X111857142Y-132309523D01*
X111809523Y-132214285D01*
X111761904Y-132023809D01*
X111761904Y-131880952D01*
X111809523Y-131690476D01*
X111857142Y-131595238D01*
X111952380Y-131500000D01*
X112095238Y-131452380D01*
X112190476Y-131452380D01*
X112333333Y-131500000D01*
X112380952Y-131547619D01*
X112952380Y-132452380D02*
X112857142Y-132404761D01*
X112809523Y-132357142D01*
X112761904Y-132261904D01*
X112761904Y-131976190D01*
X112809523Y-131880952D01*
X112857142Y-131833333D01*
X112952380Y-131785714D01*
X113095238Y-131785714D01*
X113190476Y-131833333D01*
X113238095Y-131880952D01*
X113285714Y-131976190D01*
X113285714Y-132261904D01*
X113238095Y-132357142D01*
X113190476Y-132404761D01*
X113095238Y-132452380D01*
X112952380Y-132452380D01*
X113714285Y-131785714D02*
X113714285Y-132452380D01*
X113714285Y-131880952D02*
X113761904Y-131833333D01*
X113857142Y-131785714D01*
X114000000Y-131785714D01*
X114095238Y-131833333D01*
X114142857Y-131928571D01*
X114142857Y-132452380D01*
X114619047Y-131785714D02*
X114619047Y-132452380D01*
X114619047Y-131880952D02*
X114666666Y-131833333D01*
X114761904Y-131785714D01*
X114904761Y-131785714D01*
X115000000Y-131833333D01*
X115047619Y-131928571D01*
X115047619Y-132452380D01*
X115904761Y-132404761D02*
X115809523Y-132452380D01*
X115619047Y-132452380D01*
X115523809Y-132404761D01*
X115476190Y-132309523D01*
X115476190Y-131928571D01*
X115523809Y-131833333D01*
X115619047Y-131785714D01*
X115809523Y-131785714D01*
X115904761Y-131833333D01*
X115952380Y-131928571D01*
X115952380Y-132023809D01*
X115476190Y-132119047D01*
X116809523Y-132404761D02*
X116714285Y-132452380D01*
X116523809Y-132452380D01*
X116428571Y-132404761D01*
X116380952Y-132357142D01*
X116333333Y-132261904D01*
X116333333Y-131976190D01*
X116380952Y-131880952D01*
X116428571Y-131833333D01*
X116523809Y-131785714D01*
X116714285Y-131785714D01*
X116809523Y-131833333D01*
X117095238Y-131785714D02*
X117476190Y-131785714D01*
X117238095Y-131452380D02*
X117238095Y-132309523D01*
X117285714Y-132404761D01*
X117380952Y-132452380D01*
X117476190Y-132452380D01*
X117952380Y-132452380D02*
X117857142Y-132404761D01*
X117809523Y-132357142D01*
X117761904Y-132261904D01*
X117761904Y-131976190D01*
X117809523Y-131880952D01*
X117857142Y-131833333D01*
X117952380Y-131785714D01*
X118095238Y-131785714D01*
X118190476Y-131833333D01*
X118238095Y-131880952D01*
X118285714Y-131976190D01*
X118285714Y-132261904D01*
X118238095Y-132357142D01*
X118190476Y-132404761D01*
X118095238Y-132452380D01*
X117952380Y-132452380D01*
X118714285Y-132452380D02*
X118714285Y-131785714D01*
X118714285Y-131976190D02*
X118761904Y-131880952D01*
X118809523Y-131833333D01*
X118904761Y-131785714D01*
X119000000Y-131785714D01*
X120000000Y-131785714D02*
X120238095Y-132452380D01*
X120476190Y-131785714D01*
X120809523Y-131547619D02*
X120857142Y-131500000D01*
X120952380Y-131452380D01*
X121190476Y-131452380D01*
X121285714Y-131500000D01*
X121333333Y-131547619D01*
X121380952Y-131642857D01*
X121380952Y-131738095D01*
X121333333Y-131880952D01*
X120761904Y-132452380D01*
X121380952Y-132452380D01*
X121809523Y-132357142D02*
X121857142Y-132404761D01*
X121809523Y-132452380D01*
X121761904Y-132404761D01*
X121809523Y-132357142D01*
X121809523Y-132452380D01*
X122238095Y-131547619D02*
X122285714Y-131500000D01*
X122380952Y-131452380D01*
X122619047Y-131452380D01*
X122714285Y-131500000D01*
X122761904Y-131547619D01*
X122809523Y-131642857D01*
X122809523Y-131738095D01*
X122761904Y-131880952D01*
X122190476Y-132452380D01*
X122809523Y-132452380D01*
X109761904Y-133062380D02*
X109952380Y-133062380D01*
X110047619Y-133110000D01*
X110142857Y-133205238D01*
X110190476Y-133395714D01*
X110190476Y-133729047D01*
X110142857Y-133919523D01*
X110047619Y-134014761D01*
X109952380Y-134062380D01*
X109761904Y-134062380D01*
X109666666Y-134014761D01*
X109571428Y-133919523D01*
X109523809Y-133729047D01*
X109523809Y-133395714D01*
X109571428Y-133205238D01*
X109666666Y-133110000D01*
X109761904Y-133062380D01*
X111047619Y-134014761D02*
X110952380Y-134062380D01*
X110761904Y-134062380D01*
X110666666Y-134014761D01*
X110619047Y-133967142D01*
X110571428Y-133871904D01*
X110571428Y-133586190D01*
X110619047Y-133490952D01*
X110666666Y-133443333D01*
X110761904Y-133395714D01*
X110952380Y-133395714D01*
X111047619Y-133443333D01*
X111333333Y-133395714D02*
X111714285Y-133395714D01*
X111476190Y-133062380D02*
X111476190Y-133919523D01*
X111523809Y-134014761D01*
X111619047Y-134062380D01*
X111714285Y-134062380D01*
X112190476Y-134062380D02*
X112095238Y-134014761D01*
X112047619Y-133967142D01*
X112000000Y-133871904D01*
X112000000Y-133586190D01*
X112047619Y-133490952D01*
X112095238Y-133443333D01*
X112190476Y-133395714D01*
X112333333Y-133395714D01*
X112428571Y-133443333D01*
X112476190Y-133490952D01*
X112523809Y-133586190D01*
X112523809Y-133871904D01*
X112476190Y-133967142D01*
X112428571Y-134014761D01*
X112333333Y-134062380D01*
X112190476Y-134062380D01*
X112952380Y-134062380D02*
X112952380Y-133062380D01*
X112952380Y-133443333D02*
X113047619Y-133395714D01*
X113238095Y-133395714D01*
X113333333Y-133443333D01*
X113380952Y-133490952D01*
X113428571Y-133586190D01*
X113428571Y-133871904D01*
X113380952Y-133967142D01*
X113333333Y-134014761D01*
X113238095Y-134062380D01*
X113047619Y-134062380D01*
X112952380Y-134014761D01*
X114238095Y-134014761D02*
X114142857Y-134062380D01*
X113952380Y-134062380D01*
X113857142Y-134014761D01*
X113809523Y-133919523D01*
X113809523Y-133538571D01*
X113857142Y-133443333D01*
X113952380Y-133395714D01*
X114142857Y-133395714D01*
X114238095Y-133443333D01*
X114285714Y-133538571D01*
X114285714Y-133633809D01*
X113809523Y-133729047D01*
X114714285Y-134062380D02*
X114714285Y-133395714D01*
X114714285Y-133586190D02*
X114761904Y-133490952D01*
X114809523Y-133443333D01*
X114904761Y-133395714D01*
X115000000Y-133395714D01*
X116047619Y-133157619D02*
X116095238Y-133110000D01*
X116190476Y-133062380D01*
X116428571Y-133062380D01*
X116523809Y-133110000D01*
X116571428Y-133157619D01*
X116619047Y-133252857D01*
X116619047Y-133348095D01*
X116571428Y-133490952D01*
X116000000Y-134062380D01*
X116619047Y-134062380D01*
X117238095Y-133062380D02*
X117333333Y-133062380D01*
X117428571Y-133110000D01*
X117476190Y-133157619D01*
X117523809Y-133252857D01*
X117571428Y-133443333D01*
X117571428Y-133681428D01*
X117523809Y-133871904D01*
X117476190Y-133967142D01*
X117428571Y-134014761D01*
X117333333Y-134062380D01*
X117238095Y-134062380D01*
X117142857Y-134014761D01*
X117095238Y-133967142D01*
X117047619Y-133871904D01*
X117000000Y-133681428D01*
X117000000Y-133443333D01*
X117047619Y-133252857D01*
X117095238Y-133157619D01*
X117142857Y-133110000D01*
X117238095Y-133062380D01*
X117952380Y-133157619D02*
X118000000Y-133110000D01*
X118095238Y-133062380D01*
X118333333Y-133062380D01*
X118428571Y-133110000D01*
X118476190Y-133157619D01*
X118523809Y-133252857D01*
X118523809Y-133348095D01*
X118476190Y-133490952D01*
X117904761Y-134062380D01*
X118523809Y-134062380D01*
X118904761Y-133157619D02*
X118952380Y-133110000D01*
X119047619Y-133062380D01*
X119285714Y-133062380D01*
X119380952Y-133110000D01*
X119428571Y-133157619D01*
X119476190Y-133252857D01*
X119476190Y-133348095D01*
X119428571Y-133490952D01*
X118857142Y-134062380D01*
X119476190Y-134062380D01*
X155072380Y-130809523D02*
X155072380Y-131000000D01*
X155120000Y-131095238D01*
X155167619Y-131142857D01*
X155310476Y-131238095D01*
X155500952Y-131285714D01*
X155881904Y-131285714D01*
X155977142Y-131238095D01*
X156024761Y-131190476D01*
X156072380Y-131095238D01*
X156072380Y-130904761D01*
X156024761Y-130809523D01*
X155977142Y-130761904D01*
X155881904Y-130714285D01*
X155643809Y-130714285D01*
X155548571Y-130761904D01*
X155500952Y-130809523D01*
X155453333Y-130904761D01*
X155453333Y-131095238D01*
X155500952Y-131190476D01*
X155548571Y-131238095D01*
X155643809Y-131285714D01*
X153532380Y-75190476D02*
X153532380Y-75761904D01*
X153532380Y-75476190D02*
X152532380Y-75476190D01*
X152675238Y-75571428D01*
X152770476Y-75666666D01*
X152818095Y-75761904D01*
X152532380Y-74571428D02*
X152532380Y-74476190D01*
X152580000Y-74380952D01*
X152627619Y-74333333D01*
X152722857Y-74285714D01*
X152913333Y-74238095D01*
X153151428Y-74238095D01*
X153341904Y-74285714D01*
X153437142Y-74333333D01*
X153484761Y-74380952D01*
X153532380Y-74476190D01*
X153532380Y-74571428D01*
X153484761Y-74666666D01*
X153437142Y-74714285D01*
X153341904Y-74761904D01*
X153151428Y-74809523D01*
X152913333Y-74809523D01*
X152722857Y-74761904D01*
X152627619Y-74714285D01*
X152580000Y-74666666D01*
X152532380Y-74571428D01*
X147500000Y-132383214D02*
X147452380Y-132478452D01*
X147452380Y-132621309D01*
X147500000Y-132764166D01*
X147595238Y-132859404D01*
X147690476Y-132907023D01*
X147880952Y-132954642D01*
X148023809Y-132954642D01*
X148214285Y-132907023D01*
X148309523Y-132859404D01*
X148404761Y-132764166D01*
X148452380Y-132621309D01*
X148452380Y-132526071D01*
X148404761Y-132383214D01*
X148357142Y-132335595D01*
X148023809Y-132335595D01*
X148023809Y-132526071D01*
X148452380Y-131907023D02*
X147452380Y-131907023D01*
X148452380Y-131335595D01*
X147452380Y-131335595D01*
X148452380Y-130859404D02*
X147452380Y-130859404D01*
X147452380Y-130621309D01*
X147500000Y-130478452D01*
X147595238Y-130383214D01*
X147690476Y-130335595D01*
X147880952Y-130287976D01*
X148023809Y-130287976D01*
X148214285Y-130335595D01*
X148309523Y-130383214D01*
X148404761Y-130478452D01*
X148452380Y-130621309D01*
X148452380Y-130859404D01*
X165327619Y-131285714D02*
X165280000Y-131238095D01*
X165232380Y-131142857D01*
X165232380Y-130904761D01*
X165280000Y-130809523D01*
X165327619Y-130761904D01*
X165422857Y-130714285D01*
X165518095Y-130714285D01*
X165660952Y-130761904D01*
X166232380Y-131333333D01*
X166232380Y-130714285D01*
X161152380Y-75190476D02*
X161152380Y-75761904D01*
X161152380Y-75476190D02*
X160152380Y-75476190D01*
X160295238Y-75571428D01*
X160390476Y-75666666D01*
X160438095Y-75761904D01*
X160152380Y-74857142D02*
X160152380Y-74238095D01*
X160533333Y-74571428D01*
X160533333Y-74428571D01*
X160580952Y-74333333D01*
X160628571Y-74285714D01*
X160723809Y-74238095D01*
X160961904Y-74238095D01*
X161057142Y-74285714D01*
X161104761Y-74333333D01*
X161152380Y-74428571D01*
X161152380Y-74714285D01*
X161104761Y-74809523D01*
X161057142Y-74857142D01*
X150420952Y-131095238D02*
X150373333Y-131190476D01*
X150325714Y-131238095D01*
X150230476Y-131285714D01*
X150182857Y-131285714D01*
X150087619Y-131238095D01*
X150040000Y-131190476D01*
X149992380Y-131095238D01*
X149992380Y-130904761D01*
X150040000Y-130809523D01*
X150087619Y-130761904D01*
X150182857Y-130714285D01*
X150230476Y-130714285D01*
X150325714Y-130761904D01*
X150373333Y-130809523D01*
X150420952Y-130904761D01*
X150420952Y-131095238D01*
X150468571Y-131190476D01*
X150516190Y-131238095D01*
X150611428Y-131285714D01*
X150801904Y-131285714D01*
X150897142Y-131238095D01*
X150944761Y-131190476D01*
X150992380Y-131095238D01*
X150992380Y-130904761D01*
X150944761Y-130809523D01*
X150897142Y-130761904D01*
X150801904Y-130714285D01*
X150611428Y-130714285D01*
X150516190Y-130761904D01*
X150468571Y-130809523D01*
X150420952Y-130904761D01*
X152532380Y-131333333D02*
X152532380Y-130666666D01*
X153532380Y-131095238D01*
X168772380Y-130714285D02*
X168772380Y-131285714D01*
X168772380Y-131000000D02*
X167772380Y-131000000D01*
X167915238Y-131095238D01*
X168010476Y-131190476D01*
X168058095Y-131285714D01*
X163692380Y-75190476D02*
X163692380Y-75761904D01*
X163692380Y-75476190D02*
X162692380Y-75476190D01*
X162835238Y-75571428D01*
X162930476Y-75666666D01*
X162978095Y-75761904D01*
X163025714Y-74333333D02*
X163692380Y-74333333D01*
X162644761Y-74571428D02*
X163359047Y-74809523D01*
X163359047Y-74190476D01*
X127757142Y-122952380D02*
X127423809Y-122476190D01*
X127185714Y-122952380D02*
X127185714Y-121952380D01*
X127566666Y-121952380D01*
X127661904Y-122000000D01*
X127709523Y-122047619D01*
X127757142Y-122142857D01*
X127757142Y-122285714D01*
X127709523Y-122380952D01*
X127661904Y-122428571D01*
X127566666Y-122476190D01*
X127185714Y-122476190D01*
X128709523Y-122952380D02*
X128138095Y-122952380D01*
X128423809Y-122952380D02*
X128423809Y-121952380D01*
X128328571Y-122095238D01*
X128233333Y-122190476D01*
X128138095Y-122238095D01*
X129042857Y-121952380D02*
X129709523Y-121952380D01*
X129280952Y-122952380D01*
X132567142Y-82042380D02*
X132233809Y-81566190D01*
X131995714Y-82042380D02*
X131995714Y-81042380D01*
X132376666Y-81042380D01*
X132471904Y-81090000D01*
X132519523Y-81137619D01*
X132567142Y-81232857D01*
X132567142Y-81375714D01*
X132519523Y-81470952D01*
X132471904Y-81518571D01*
X132376666Y-81566190D01*
X131995714Y-81566190D01*
X132948095Y-81137619D02*
X132995714Y-81090000D01*
X133090952Y-81042380D01*
X133329047Y-81042380D01*
X133424285Y-81090000D01*
X133471904Y-81137619D01*
X133519523Y-81232857D01*
X133519523Y-81328095D01*
X133471904Y-81470952D01*
X132900476Y-82042380D01*
X133519523Y-82042380D01*
X133852857Y-81042380D02*
X134471904Y-81042380D01*
X134138571Y-81423333D01*
X134281428Y-81423333D01*
X134376666Y-81470952D01*
X134424285Y-81518571D01*
X134471904Y-81613809D01*
X134471904Y-81851904D01*
X134424285Y-81947142D01*
X134376666Y-81994761D01*
X134281428Y-82042380D01*
X133995714Y-82042380D01*
X133900476Y-81994761D01*
X133852857Y-81947142D01*
X134800476Y-93338571D02*
X134467142Y-93338571D01*
X134467142Y-93862380D02*
X134467142Y-92862380D01*
X134943333Y-92862380D01*
X135657619Y-93338571D02*
X135800476Y-93386190D01*
X135848095Y-93433809D01*
X135895714Y-93529047D01*
X135895714Y-93671904D01*
X135848095Y-93767142D01*
X135800476Y-93814761D01*
X135705238Y-93862380D01*
X135324285Y-93862380D01*
X135324285Y-92862380D01*
X135657619Y-92862380D01*
X135752857Y-92910000D01*
X135800476Y-92957619D01*
X135848095Y-93052857D01*
X135848095Y-93148095D01*
X135800476Y-93243333D01*
X135752857Y-93290952D01*
X135657619Y-93338571D01*
X135324285Y-93338571D01*
X136848095Y-93862380D02*
X136276666Y-93862380D01*
X136562380Y-93862380D02*
X136562380Y-92862380D01*
X136467142Y-93005238D01*
X136371904Y-93100476D01*
X136276666Y-93148095D01*
X137181428Y-92862380D02*
X137848095Y-92862380D01*
X137419523Y-93862380D01*
X175371904Y-73760000D02*
X175276666Y-73712380D01*
X175133809Y-73712380D01*
X174990952Y-73760000D01*
X174895714Y-73855238D01*
X174848095Y-73950476D01*
X174800476Y-74140952D01*
X174800476Y-74283809D01*
X174848095Y-74474285D01*
X174895714Y-74569523D01*
X174990952Y-74664761D01*
X175133809Y-74712380D01*
X175229047Y-74712380D01*
X175371904Y-74664761D01*
X175419523Y-74617142D01*
X175419523Y-74283809D01*
X175229047Y-74283809D01*
X175848095Y-74712380D02*
X175848095Y-73712380D01*
X176419523Y-74712380D01*
X176419523Y-73712380D01*
X176895714Y-74712380D02*
X176895714Y-73712380D01*
X177133809Y-73712380D01*
X177276666Y-73760000D01*
X177371904Y-73855238D01*
X177419523Y-73950476D01*
X177467142Y-74140952D01*
X177467142Y-74283809D01*
X177419523Y-74474285D01*
X177371904Y-74569523D01*
X177276666Y-74664761D01*
X177133809Y-74712380D01*
X176895714Y-74712380D01*
X177848095Y-73807619D02*
X177895714Y-73760000D01*
X177990952Y-73712380D01*
X178229047Y-73712380D01*
X178324285Y-73760000D01*
X178371904Y-73807619D01*
X178419523Y-73902857D01*
X178419523Y-73998095D01*
X178371904Y-74140952D01*
X177800476Y-74712380D01*
X178419523Y-74712380D01*
X156932142Y-85722380D02*
X156598809Y-85246190D01*
X156360714Y-85722380D02*
X156360714Y-84722380D01*
X156741666Y-84722380D01*
X156836904Y-84770000D01*
X156884523Y-84817619D01*
X156932142Y-84912857D01*
X156932142Y-85055714D01*
X156884523Y-85150952D01*
X156836904Y-85198571D01*
X156741666Y-85246190D01*
X156360714Y-85246190D01*
X157265476Y-84722380D02*
X157884523Y-84722380D01*
X157551190Y-85103333D01*
X157694047Y-85103333D01*
X157789285Y-85150952D01*
X157836904Y-85198571D01*
X157884523Y-85293809D01*
X157884523Y-85531904D01*
X157836904Y-85627142D01*
X157789285Y-85674761D01*
X157694047Y-85722380D01*
X157408333Y-85722380D01*
X157313095Y-85674761D01*
X157265476Y-85627142D01*
X158503571Y-84722380D02*
X158598809Y-84722380D01*
X158694047Y-84770000D01*
X158741666Y-84817619D01*
X158789285Y-84912857D01*
X158836904Y-85103333D01*
X158836904Y-85341428D01*
X158789285Y-85531904D01*
X158741666Y-85627142D01*
X158694047Y-85674761D01*
X158598809Y-85722380D01*
X158503571Y-85722380D01*
X158408333Y-85674761D01*
X158360714Y-85627142D01*
X158313095Y-85531904D01*
X158265476Y-85341428D01*
X158265476Y-85103333D01*
X158313095Y-84912857D01*
X158360714Y-84817619D01*
X158408333Y-84770000D01*
X158503571Y-84722380D01*
X150747142Y-120112380D02*
X150413809Y-119636190D01*
X150175714Y-120112380D02*
X150175714Y-119112380D01*
X150556666Y-119112380D01*
X150651904Y-119160000D01*
X150699523Y-119207619D01*
X150747142Y-119302857D01*
X150747142Y-119445714D01*
X150699523Y-119540952D01*
X150651904Y-119588571D01*
X150556666Y-119636190D01*
X150175714Y-119636190D01*
X151699523Y-120112380D02*
X151128095Y-120112380D01*
X151413809Y-120112380D02*
X151413809Y-119112380D01*
X151318571Y-119255238D01*
X151223333Y-119350476D01*
X151128095Y-119398095D01*
X152556666Y-119445714D02*
X152556666Y-120112380D01*
X152318571Y-119064761D02*
X152080476Y-119779047D01*
X152699523Y-119779047D01*
X152978571Y-116863333D02*
X152978571Y-117196666D01*
X153502380Y-117196666D02*
X152502380Y-117196666D01*
X152502380Y-116720476D01*
X152978571Y-116006190D02*
X153026190Y-115863333D01*
X153073809Y-115815714D01*
X153169047Y-115768095D01*
X153311904Y-115768095D01*
X153407142Y-115815714D01*
X153454761Y-115863333D01*
X153502380Y-115958571D01*
X153502380Y-116339523D01*
X152502380Y-116339523D01*
X152502380Y-116006190D01*
X152550000Y-115910952D01*
X152597619Y-115863333D01*
X152692857Y-115815714D01*
X152788095Y-115815714D01*
X152883333Y-115863333D01*
X152930952Y-115910952D01*
X152978571Y-116006190D01*
X152978571Y-116339523D01*
X152835714Y-114910952D02*
X153502380Y-114910952D01*
X152454761Y-115149047D02*
X153169047Y-115387142D01*
X153169047Y-114768095D01*
X138917142Y-126292380D02*
X138583809Y-125816190D01*
X138345714Y-126292380D02*
X138345714Y-125292380D01*
X138726666Y-125292380D01*
X138821904Y-125340000D01*
X138869523Y-125387619D01*
X138917142Y-125482857D01*
X138917142Y-125625714D01*
X138869523Y-125720952D01*
X138821904Y-125768571D01*
X138726666Y-125816190D01*
X138345714Y-125816190D01*
X139869523Y-126292380D02*
X139298095Y-126292380D01*
X139583809Y-126292380D02*
X139583809Y-125292380D01*
X139488571Y-125435238D01*
X139393333Y-125530476D01*
X139298095Y-125578095D01*
X140821904Y-126292380D02*
X140250476Y-126292380D01*
X140536190Y-126292380D02*
X140536190Y-125292380D01*
X140440952Y-125435238D01*
X140345714Y-125530476D01*
X140250476Y-125578095D01*
X182298333Y-121702380D02*
X181965000Y-121226190D01*
X181726904Y-121702380D02*
X181726904Y-120702380D01*
X182107857Y-120702380D01*
X182203095Y-120750000D01*
X182250714Y-120797619D01*
X182298333Y-120892857D01*
X182298333Y-121035714D01*
X182250714Y-121130952D01*
X182203095Y-121178571D01*
X182107857Y-121226190D01*
X181726904Y-121226190D01*
X182679285Y-120797619D02*
X182726904Y-120750000D01*
X182822142Y-120702380D01*
X183060238Y-120702380D01*
X183155476Y-120750000D01*
X183203095Y-120797619D01*
X183250714Y-120892857D01*
X183250714Y-120988095D01*
X183203095Y-121130952D01*
X182631666Y-121702380D01*
X183250714Y-121702380D01*
X163533333Y-119997380D02*
X163200000Y-119521190D01*
X162961904Y-119997380D02*
X162961904Y-118997380D01*
X163342857Y-118997380D01*
X163438095Y-119045000D01*
X163485714Y-119092619D01*
X163533333Y-119187857D01*
X163533333Y-119330714D01*
X163485714Y-119425952D01*
X163438095Y-119473571D01*
X163342857Y-119521190D01*
X162961904Y-119521190D01*
X164104761Y-119425952D02*
X164009523Y-119378333D01*
X163961904Y-119330714D01*
X163914285Y-119235476D01*
X163914285Y-119187857D01*
X163961904Y-119092619D01*
X164009523Y-119045000D01*
X164104761Y-118997380D01*
X164295238Y-118997380D01*
X164390476Y-119045000D01*
X164438095Y-119092619D01*
X164485714Y-119187857D01*
X164485714Y-119235476D01*
X164438095Y-119330714D01*
X164390476Y-119378333D01*
X164295238Y-119425952D01*
X164104761Y-119425952D01*
X164009523Y-119473571D01*
X163961904Y-119521190D01*
X163914285Y-119616428D01*
X163914285Y-119806904D01*
X163961904Y-119902142D01*
X164009523Y-119949761D01*
X164104761Y-119997380D01*
X164295238Y-119997380D01*
X164390476Y-119949761D01*
X164438095Y-119902142D01*
X164485714Y-119806904D01*
X164485714Y-119616428D01*
X164438095Y-119521190D01*
X164390476Y-119473571D01*
X164295238Y-119425952D01*
X180698571Y-91669523D02*
X180698571Y-92002857D01*
X181222380Y-92002857D02*
X180222380Y-92002857D01*
X180222380Y-91526666D01*
X180698571Y-90812380D02*
X180746190Y-90669523D01*
X180793809Y-90621904D01*
X180889047Y-90574285D01*
X181031904Y-90574285D01*
X181127142Y-90621904D01*
X181174761Y-90669523D01*
X181222380Y-90764761D01*
X181222380Y-91145714D01*
X180222380Y-91145714D01*
X180222380Y-90812380D01*
X180270000Y-90717142D01*
X180317619Y-90669523D01*
X180412857Y-90621904D01*
X180508095Y-90621904D01*
X180603333Y-90669523D01*
X180650952Y-90717142D01*
X180698571Y-90812380D01*
X180698571Y-91145714D01*
X181222380Y-89621904D02*
X181222380Y-90193333D01*
X181222380Y-89907619D02*
X180222380Y-89907619D01*
X180365238Y-90002857D01*
X180460476Y-90098095D01*
X180508095Y-90193333D01*
X180222380Y-88764761D02*
X180222380Y-88955238D01*
X180270000Y-89050476D01*
X180317619Y-89098095D01*
X180460476Y-89193333D01*
X180650952Y-89240952D01*
X181031904Y-89240952D01*
X181127142Y-89193333D01*
X181174761Y-89145714D01*
X181222380Y-89050476D01*
X181222380Y-88860000D01*
X181174761Y-88764761D01*
X181127142Y-88717142D01*
X181031904Y-88669523D01*
X180793809Y-88669523D01*
X180698571Y-88717142D01*
X180650952Y-88764761D01*
X180603333Y-88860000D01*
X180603333Y-89050476D01*
X180650952Y-89145714D01*
X180698571Y-89193333D01*
X180793809Y-89240952D01*
X130663571Y-119753333D02*
X130663571Y-120086666D01*
X131187380Y-120086666D02*
X130187380Y-120086666D01*
X130187380Y-119610476D01*
X130663571Y-118896190D02*
X130711190Y-118753333D01*
X130758809Y-118705714D01*
X130854047Y-118658095D01*
X130996904Y-118658095D01*
X131092142Y-118705714D01*
X131139761Y-118753333D01*
X131187380Y-118848571D01*
X131187380Y-119229523D01*
X130187380Y-119229523D01*
X130187380Y-118896190D01*
X130235000Y-118800952D01*
X130282619Y-118753333D01*
X130377857Y-118705714D01*
X130473095Y-118705714D01*
X130568333Y-118753333D01*
X130615952Y-118800952D01*
X130663571Y-118896190D01*
X130663571Y-119229523D01*
X130187380Y-118324761D02*
X130187380Y-117658095D01*
X131187380Y-118086666D01*
X180872142Y-85727380D02*
X180538809Y-85251190D01*
X180300714Y-85727380D02*
X180300714Y-84727380D01*
X180681666Y-84727380D01*
X180776904Y-84775000D01*
X180824523Y-84822619D01*
X180872142Y-84917857D01*
X180872142Y-85060714D01*
X180824523Y-85155952D01*
X180776904Y-85203571D01*
X180681666Y-85251190D01*
X180300714Y-85251190D01*
X181205476Y-84727380D02*
X181824523Y-84727380D01*
X181491190Y-85108333D01*
X181634047Y-85108333D01*
X181729285Y-85155952D01*
X181776904Y-85203571D01*
X181824523Y-85298809D01*
X181824523Y-85536904D01*
X181776904Y-85632142D01*
X181729285Y-85679761D01*
X181634047Y-85727380D01*
X181348333Y-85727380D01*
X181253095Y-85679761D01*
X181205476Y-85632142D01*
X182157857Y-84727380D02*
X182776904Y-84727380D01*
X182443571Y-85108333D01*
X182586428Y-85108333D01*
X182681666Y-85155952D01*
X182729285Y-85203571D01*
X182776904Y-85298809D01*
X182776904Y-85536904D01*
X182729285Y-85632142D01*
X182681666Y-85679761D01*
X182586428Y-85727380D01*
X182300714Y-85727380D01*
X182205476Y-85679761D01*
X182157857Y-85632142D01*
X178222142Y-81047142D02*
X178174523Y-81094761D01*
X178031666Y-81142380D01*
X177936428Y-81142380D01*
X177793571Y-81094761D01*
X177698333Y-80999523D01*
X177650714Y-80904285D01*
X177603095Y-80713809D01*
X177603095Y-80570952D01*
X177650714Y-80380476D01*
X177698333Y-80285238D01*
X177793571Y-80190000D01*
X177936428Y-80142380D01*
X178031666Y-80142380D01*
X178174523Y-80190000D01*
X178222142Y-80237619D01*
X179174523Y-81142380D02*
X178603095Y-81142380D01*
X178888809Y-81142380D02*
X178888809Y-80142380D01*
X178793571Y-80285238D01*
X178698333Y-80380476D01*
X178603095Y-80428095D01*
X179745952Y-80570952D02*
X179650714Y-80523333D01*
X179603095Y-80475714D01*
X179555476Y-80380476D01*
X179555476Y-80332857D01*
X179603095Y-80237619D01*
X179650714Y-80190000D01*
X179745952Y-80142380D01*
X179936428Y-80142380D01*
X180031666Y-80190000D01*
X180079285Y-80237619D01*
X180126904Y-80332857D01*
X180126904Y-80380476D01*
X180079285Y-80475714D01*
X180031666Y-80523333D01*
X179936428Y-80570952D01*
X179745952Y-80570952D01*
X179650714Y-80618571D01*
X179603095Y-80666190D01*
X179555476Y-80761428D01*
X179555476Y-80951904D01*
X179603095Y-81047142D01*
X179650714Y-81094761D01*
X179745952Y-81142380D01*
X179936428Y-81142380D01*
X180031666Y-81094761D01*
X180079285Y-81047142D01*
X180126904Y-80951904D01*
X180126904Y-80761428D01*
X180079285Y-80666190D01*
X180031666Y-80618571D01*
X179936428Y-80570952D01*
X131647142Y-124552380D02*
X131313809Y-124076190D01*
X131075714Y-124552380D02*
X131075714Y-123552380D01*
X131456666Y-123552380D01*
X131551904Y-123600000D01*
X131599523Y-123647619D01*
X131647142Y-123742857D01*
X131647142Y-123885714D01*
X131599523Y-123980952D01*
X131551904Y-124028571D01*
X131456666Y-124076190D01*
X131075714Y-124076190D01*
X132599523Y-124552380D02*
X132028095Y-124552380D01*
X132313809Y-124552380D02*
X132313809Y-123552380D01*
X132218571Y-123695238D01*
X132123333Y-123790476D01*
X132028095Y-123838095D01*
X132980476Y-123647619D02*
X133028095Y-123600000D01*
X133123333Y-123552380D01*
X133361428Y-123552380D01*
X133456666Y-123600000D01*
X133504285Y-123647619D01*
X133551904Y-123742857D01*
X133551904Y-123838095D01*
X133504285Y-123980952D01*
X132932857Y-124552380D01*
X133551904Y-124552380D01*
X163967142Y-80997142D02*
X163919523Y-81044761D01*
X163776666Y-81092380D01*
X163681428Y-81092380D01*
X163538571Y-81044761D01*
X163443333Y-80949523D01*
X163395714Y-80854285D01*
X163348095Y-80663809D01*
X163348095Y-80520952D01*
X163395714Y-80330476D01*
X163443333Y-80235238D01*
X163538571Y-80140000D01*
X163681428Y-80092380D01*
X163776666Y-80092380D01*
X163919523Y-80140000D01*
X163967142Y-80187619D01*
X164919523Y-81092380D02*
X164348095Y-81092380D01*
X164633809Y-81092380D02*
X164633809Y-80092380D01*
X164538571Y-80235238D01*
X164443333Y-80330476D01*
X164348095Y-80378095D01*
X165776666Y-80092380D02*
X165586190Y-80092380D01*
X165490952Y-80140000D01*
X165443333Y-80187619D01*
X165348095Y-80330476D01*
X165300476Y-80520952D01*
X165300476Y-80901904D01*
X165348095Y-80997142D01*
X165395714Y-81044761D01*
X165490952Y-81092380D01*
X165681428Y-81092380D01*
X165776666Y-81044761D01*
X165824285Y-80997142D01*
X165871904Y-80901904D01*
X165871904Y-80663809D01*
X165824285Y-80568571D01*
X165776666Y-80520952D01*
X165681428Y-80473333D01*
X165490952Y-80473333D01*
X165395714Y-80520952D01*
X165348095Y-80568571D01*
X165300476Y-80663809D01*
X144258571Y-91669523D02*
X144258571Y-92002857D01*
X144782380Y-92002857D02*
X143782380Y-92002857D01*
X143782380Y-91526666D01*
X144258571Y-90812380D02*
X144306190Y-90669523D01*
X144353809Y-90621904D01*
X144449047Y-90574285D01*
X144591904Y-90574285D01*
X144687142Y-90621904D01*
X144734761Y-90669523D01*
X144782380Y-90764761D01*
X144782380Y-91145714D01*
X143782380Y-91145714D01*
X143782380Y-90812380D01*
X143830000Y-90717142D01*
X143877619Y-90669523D01*
X143972857Y-90621904D01*
X144068095Y-90621904D01*
X144163333Y-90669523D01*
X144210952Y-90717142D01*
X144258571Y-90812380D01*
X144258571Y-91145714D01*
X144782380Y-89621904D02*
X144782380Y-90193333D01*
X144782380Y-89907619D02*
X143782380Y-89907619D01*
X143925238Y-90002857D01*
X144020476Y-90098095D01*
X144068095Y-90193333D01*
X144782380Y-88669523D02*
X144782380Y-89240952D01*
X144782380Y-88955238D02*
X143782380Y-88955238D01*
X143925238Y-89050476D01*
X144020476Y-89145714D01*
X144068095Y-89240952D01*
X152597142Y-80897142D02*
X152549523Y-80944761D01*
X152406666Y-80992380D01*
X152311428Y-80992380D01*
X152168571Y-80944761D01*
X152073333Y-80849523D01*
X152025714Y-80754285D01*
X151978095Y-80563809D01*
X151978095Y-80420952D01*
X152025714Y-80230476D01*
X152073333Y-80135238D01*
X152168571Y-80040000D01*
X152311428Y-79992380D01*
X152406666Y-79992380D01*
X152549523Y-80040000D01*
X152597142Y-80087619D01*
X153549523Y-80992380D02*
X152978095Y-80992380D01*
X153263809Y-80992380D02*
X153263809Y-79992380D01*
X153168571Y-80135238D01*
X153073333Y-80230476D01*
X152978095Y-80278095D01*
X154406666Y-80325714D02*
X154406666Y-80992380D01*
X154168571Y-79944761D02*
X153930476Y-80659047D01*
X154549523Y-80659047D01*
X157933333Y-120012380D02*
X157600000Y-119536190D01*
X157361904Y-120012380D02*
X157361904Y-119012380D01*
X157742857Y-119012380D01*
X157838095Y-119060000D01*
X157885714Y-119107619D01*
X157933333Y-119202857D01*
X157933333Y-119345714D01*
X157885714Y-119440952D01*
X157838095Y-119488571D01*
X157742857Y-119536190D01*
X157361904Y-119536190D01*
X158409523Y-120012380D02*
X158600000Y-120012380D01*
X158695238Y-119964761D01*
X158742857Y-119917142D01*
X158838095Y-119774285D01*
X158885714Y-119583809D01*
X158885714Y-119202857D01*
X158838095Y-119107619D01*
X158790476Y-119060000D01*
X158695238Y-119012380D01*
X158504761Y-119012380D01*
X158409523Y-119060000D01*
X158361904Y-119107619D01*
X158314285Y-119202857D01*
X158314285Y-119440952D01*
X158361904Y-119536190D01*
X158409523Y-119583809D01*
X158504761Y-119631428D01*
X158695238Y-119631428D01*
X158790476Y-119583809D01*
X158838095Y-119536190D01*
X158885714Y-119440952D01*
X123637142Y-124432380D02*
X123303809Y-123956190D01*
X123065714Y-124432380D02*
X123065714Y-123432380D01*
X123446666Y-123432380D01*
X123541904Y-123480000D01*
X123589523Y-123527619D01*
X123637142Y-123622857D01*
X123637142Y-123765714D01*
X123589523Y-123860952D01*
X123541904Y-123908571D01*
X123446666Y-123956190D01*
X123065714Y-123956190D01*
X124589523Y-124432380D02*
X124018095Y-124432380D01*
X124303809Y-124432380D02*
X124303809Y-123432380D01*
X124208571Y-123575238D01*
X124113333Y-123670476D01*
X124018095Y-123718095D01*
X124922857Y-123432380D02*
X125541904Y-123432380D01*
X125208571Y-123813333D01*
X125351428Y-123813333D01*
X125446666Y-123860952D01*
X125494285Y-123908571D01*
X125541904Y-124003809D01*
X125541904Y-124241904D01*
X125494285Y-124337142D01*
X125446666Y-124384761D01*
X125351428Y-124432380D01*
X125065714Y-124432380D01*
X124970476Y-124384761D01*
X124922857Y-124337142D01*
X180573333Y-95322380D02*
X180240000Y-94846190D01*
X180001904Y-95322380D02*
X180001904Y-94322380D01*
X180382857Y-94322380D01*
X180478095Y-94370000D01*
X180525714Y-94417619D01*
X180573333Y-94512857D01*
X180573333Y-94655714D01*
X180525714Y-94750952D01*
X180478095Y-94798571D01*
X180382857Y-94846190D01*
X180001904Y-94846190D01*
X181525714Y-95322380D02*
X180954285Y-95322380D01*
X181240000Y-95322380D02*
X181240000Y-94322380D01*
X181144761Y-94465238D01*
X181049523Y-94560476D01*
X180954285Y-94608095D01*
X150673333Y-122867142D02*
X150625714Y-122914761D01*
X150482857Y-122962380D01*
X150387619Y-122962380D01*
X150244761Y-122914761D01*
X150149523Y-122819523D01*
X150101904Y-122724285D01*
X150054285Y-122533809D01*
X150054285Y-122390952D01*
X150101904Y-122200476D01*
X150149523Y-122105238D01*
X150244761Y-122010000D01*
X150387619Y-121962380D01*
X150482857Y-121962380D01*
X150625714Y-122010000D01*
X150673333Y-122057619D01*
X151006666Y-121962380D02*
X151673333Y-121962380D01*
X151244761Y-122962380D01*
X180793571Y-116833333D02*
X180793571Y-117166666D01*
X181317380Y-117166666D02*
X180317380Y-117166666D01*
X180317380Y-116690476D01*
X180793571Y-115976190D02*
X180841190Y-115833333D01*
X180888809Y-115785714D01*
X180984047Y-115738095D01*
X181126904Y-115738095D01*
X181222142Y-115785714D01*
X181269761Y-115833333D01*
X181317380Y-115928571D01*
X181317380Y-116309523D01*
X180317380Y-116309523D01*
X180317380Y-115976190D01*
X180365000Y-115880952D01*
X180412619Y-115833333D01*
X180507857Y-115785714D01*
X180603095Y-115785714D01*
X180698333Y-115833333D01*
X180745952Y-115880952D01*
X180793571Y-115976190D01*
X180793571Y-116309523D01*
X181317380Y-114785714D02*
X181317380Y-115357142D01*
X181317380Y-115071428D02*
X180317380Y-115071428D01*
X180460238Y-115166666D01*
X180555476Y-115261904D01*
X180603095Y-115357142D01*
X127207142Y-77087142D02*
X127159523Y-77134761D01*
X127016666Y-77182380D01*
X126921428Y-77182380D01*
X126778571Y-77134761D01*
X126683333Y-77039523D01*
X126635714Y-76944285D01*
X126588095Y-76753809D01*
X126588095Y-76610952D01*
X126635714Y-76420476D01*
X126683333Y-76325238D01*
X126778571Y-76230000D01*
X126921428Y-76182380D01*
X127016666Y-76182380D01*
X127159523Y-76230000D01*
X127207142Y-76277619D01*
X128159523Y-77182380D02*
X127588095Y-77182380D01*
X127873809Y-77182380D02*
X127873809Y-76182380D01*
X127778571Y-76325238D01*
X127683333Y-76420476D01*
X127588095Y-76468095D01*
X129111904Y-77182380D02*
X128540476Y-77182380D01*
X128826190Y-77182380D02*
X128826190Y-76182380D01*
X128730952Y-76325238D01*
X128635714Y-76420476D01*
X128540476Y-76468095D01*
X171203333Y-119992380D02*
X170870000Y-119516190D01*
X170631904Y-119992380D02*
X170631904Y-118992380D01*
X171012857Y-118992380D01*
X171108095Y-119040000D01*
X171155714Y-119087619D01*
X171203333Y-119182857D01*
X171203333Y-119325714D01*
X171155714Y-119420952D01*
X171108095Y-119468571D01*
X171012857Y-119516190D01*
X170631904Y-119516190D01*
X171536666Y-118992380D02*
X172203333Y-118992380D01*
X171774761Y-119992380D01*
X139351904Y-103252000D02*
X139256666Y-103204380D01*
X139113809Y-103204380D01*
X138970952Y-103252000D01*
X138875714Y-103347238D01*
X138828095Y-103442476D01*
X138780476Y-103632952D01*
X138780476Y-103775809D01*
X138828095Y-103966285D01*
X138875714Y-104061523D01*
X138970952Y-104156761D01*
X139113809Y-104204380D01*
X139209047Y-104204380D01*
X139351904Y-104156761D01*
X139399523Y-104109142D01*
X139399523Y-103775809D01*
X139209047Y-103775809D01*
X139828095Y-104204380D02*
X139828095Y-103204380D01*
X140399523Y-104204380D01*
X140399523Y-103204380D01*
X140875714Y-104204380D02*
X140875714Y-103204380D01*
X141113809Y-103204380D01*
X141256666Y-103252000D01*
X141351904Y-103347238D01*
X141399523Y-103442476D01*
X141447142Y-103632952D01*
X141447142Y-103775809D01*
X141399523Y-103966285D01*
X141351904Y-104061523D01*
X141256666Y-104156761D01*
X141113809Y-104204380D01*
X140875714Y-104204380D01*
X142351904Y-103204380D02*
X141875714Y-103204380D01*
X141828095Y-103680571D01*
X141875714Y-103632952D01*
X141970952Y-103585333D01*
X142209047Y-103585333D01*
X142304285Y-103632952D01*
X142351904Y-103680571D01*
X142399523Y-103775809D01*
X142399523Y-104013904D01*
X142351904Y-104109142D01*
X142304285Y-104156761D01*
X142209047Y-104204380D01*
X141970952Y-104204380D01*
X141875714Y-104156761D01*
X141828095Y-104109142D01*
X173193571Y-116833333D02*
X173193571Y-117166666D01*
X173717380Y-117166666D02*
X172717380Y-117166666D01*
X172717380Y-116690476D01*
X173193571Y-115976190D02*
X173241190Y-115833333D01*
X173288809Y-115785714D01*
X173384047Y-115738095D01*
X173526904Y-115738095D01*
X173622142Y-115785714D01*
X173669761Y-115833333D01*
X173717380Y-115928571D01*
X173717380Y-116309523D01*
X172717380Y-116309523D01*
X172717380Y-115976190D01*
X172765000Y-115880952D01*
X172812619Y-115833333D01*
X172907857Y-115785714D01*
X173003095Y-115785714D01*
X173098333Y-115833333D01*
X173145952Y-115880952D01*
X173193571Y-115976190D01*
X173193571Y-116309523D01*
X172812619Y-115357142D02*
X172765000Y-115309523D01*
X172717380Y-115214285D01*
X172717380Y-114976190D01*
X172765000Y-114880952D01*
X172812619Y-114833333D01*
X172907857Y-114785714D01*
X173003095Y-114785714D01*
X173145952Y-114833333D01*
X173717380Y-115404761D01*
X173717380Y-114785714D01*
X135991904Y-86332000D02*
X135896666Y-86284380D01*
X135753809Y-86284380D01*
X135610952Y-86332000D01*
X135515714Y-86427238D01*
X135468095Y-86522476D01*
X135420476Y-86712952D01*
X135420476Y-86855809D01*
X135468095Y-87046285D01*
X135515714Y-87141523D01*
X135610952Y-87236761D01*
X135753809Y-87284380D01*
X135849047Y-87284380D01*
X135991904Y-87236761D01*
X136039523Y-87189142D01*
X136039523Y-86855809D01*
X135849047Y-86855809D01*
X136468095Y-87284380D02*
X136468095Y-86284380D01*
X137039523Y-87284380D01*
X137039523Y-86284380D01*
X137515714Y-87284380D02*
X137515714Y-86284380D01*
X137753809Y-86284380D01*
X137896666Y-86332000D01*
X137991904Y-86427238D01*
X138039523Y-86522476D01*
X138087142Y-86712952D01*
X138087142Y-86855809D01*
X138039523Y-87046285D01*
X137991904Y-87141523D01*
X137896666Y-87236761D01*
X137753809Y-87284380D01*
X137515714Y-87284380D01*
X138944285Y-86617714D02*
X138944285Y-87284380D01*
X138706190Y-86236761D02*
X138468095Y-86951047D01*
X139087142Y-86951047D01*
X173458571Y-91659523D02*
X173458571Y-91992857D01*
X173982380Y-91992857D02*
X172982380Y-91992857D01*
X172982380Y-91516666D01*
X173458571Y-90802380D02*
X173506190Y-90659523D01*
X173553809Y-90611904D01*
X173649047Y-90564285D01*
X173791904Y-90564285D01*
X173887142Y-90611904D01*
X173934761Y-90659523D01*
X173982380Y-90754761D01*
X173982380Y-91135714D01*
X172982380Y-91135714D01*
X172982380Y-90802380D01*
X173030000Y-90707142D01*
X173077619Y-90659523D01*
X173172857Y-90611904D01*
X173268095Y-90611904D01*
X173363333Y-90659523D01*
X173410952Y-90707142D01*
X173458571Y-90802380D01*
X173458571Y-91135714D01*
X173982380Y-89611904D02*
X173982380Y-90183333D01*
X173982380Y-89897619D02*
X172982380Y-89897619D01*
X173125238Y-89992857D01*
X173220476Y-90088095D01*
X173268095Y-90183333D01*
X172982380Y-88707142D02*
X172982380Y-89183333D01*
X173458571Y-89230952D01*
X173410952Y-89183333D01*
X173363333Y-89088095D01*
X173363333Y-88850000D01*
X173410952Y-88754761D01*
X173458571Y-88707142D01*
X173553809Y-88659523D01*
X173791904Y-88659523D01*
X173887142Y-88707142D01*
X173934761Y-88754761D01*
X173982380Y-88850000D01*
X173982380Y-89088095D01*
X173934761Y-89183333D01*
X173887142Y-89230952D01*
X174497142Y-81232380D02*
X174163809Y-80756190D01*
X173925714Y-81232380D02*
X173925714Y-80232380D01*
X174306666Y-80232380D01*
X174401904Y-80280000D01*
X174449523Y-80327619D01*
X174497142Y-80422857D01*
X174497142Y-80565714D01*
X174449523Y-80660952D01*
X174401904Y-80708571D01*
X174306666Y-80756190D01*
X173925714Y-80756190D01*
X174878095Y-80327619D02*
X174925714Y-80280000D01*
X175020952Y-80232380D01*
X175259047Y-80232380D01*
X175354285Y-80280000D01*
X175401904Y-80327619D01*
X175449523Y-80422857D01*
X175449523Y-80518095D01*
X175401904Y-80660952D01*
X174830476Y-81232380D01*
X175449523Y-81232380D01*
X176020952Y-80660952D02*
X175925714Y-80613333D01*
X175878095Y-80565714D01*
X175830476Y-80470476D01*
X175830476Y-80422857D01*
X175878095Y-80327619D01*
X175925714Y-80280000D01*
X176020952Y-80232380D01*
X176211428Y-80232380D01*
X176306666Y-80280000D01*
X176354285Y-80327619D01*
X176401904Y-80422857D01*
X176401904Y-80470476D01*
X176354285Y-80565714D01*
X176306666Y-80613333D01*
X176211428Y-80660952D01*
X176020952Y-80660952D01*
X175925714Y-80708571D01*
X175878095Y-80756190D01*
X175830476Y-80851428D01*
X175830476Y-81041904D01*
X175878095Y-81137142D01*
X175925714Y-81184761D01*
X176020952Y-81232380D01*
X176211428Y-81232380D01*
X176306666Y-81184761D01*
X176354285Y-81137142D01*
X176401904Y-81041904D01*
X176401904Y-80851428D01*
X176354285Y-80756190D01*
X176306666Y-80708571D01*
X176211428Y-80660952D01*
X174648333Y-121572380D02*
X174315000Y-121096190D01*
X174076904Y-121572380D02*
X174076904Y-120572380D01*
X174457857Y-120572380D01*
X174553095Y-120620000D01*
X174600714Y-120667619D01*
X174648333Y-120762857D01*
X174648333Y-120905714D01*
X174600714Y-121000952D01*
X174553095Y-121048571D01*
X174457857Y-121096190D01*
X174076904Y-121096190D01*
X174981666Y-120572380D02*
X175600714Y-120572380D01*
X175267380Y-120953333D01*
X175410238Y-120953333D01*
X175505476Y-121000952D01*
X175553095Y-121048571D01*
X175600714Y-121143809D01*
X175600714Y-121381904D01*
X175553095Y-121477142D01*
X175505476Y-121524761D01*
X175410238Y-121572380D01*
X175124523Y-121572380D01*
X175029285Y-121524761D01*
X174981666Y-121477142D01*
X142887142Y-120002380D02*
X142553809Y-119526190D01*
X142315714Y-120002380D02*
X142315714Y-119002380D01*
X142696666Y-119002380D01*
X142791904Y-119050000D01*
X142839523Y-119097619D01*
X142887142Y-119192857D01*
X142887142Y-119335714D01*
X142839523Y-119430952D01*
X142791904Y-119478571D01*
X142696666Y-119526190D01*
X142315714Y-119526190D01*
X143839523Y-120002380D02*
X143268095Y-120002380D01*
X143553809Y-120002380D02*
X143553809Y-119002380D01*
X143458571Y-119145238D01*
X143363333Y-119240476D01*
X143268095Y-119288095D01*
X144744285Y-119002380D02*
X144268095Y-119002380D01*
X144220476Y-119478571D01*
X144268095Y-119430952D01*
X144363333Y-119383333D01*
X144601428Y-119383333D01*
X144696666Y-119430952D01*
X144744285Y-119478571D01*
X144791904Y-119573809D01*
X144791904Y-119811904D01*
X144744285Y-119907142D01*
X144696666Y-119954761D01*
X144601428Y-120002380D01*
X144363333Y-120002380D01*
X144268095Y-119954761D01*
X144220476Y-119907142D01*
X142823333Y-122792142D02*
X142775714Y-122839761D01*
X142632857Y-122887380D01*
X142537619Y-122887380D01*
X142394761Y-122839761D01*
X142299523Y-122744523D01*
X142251904Y-122649285D01*
X142204285Y-122458809D01*
X142204285Y-122315952D01*
X142251904Y-122125476D01*
X142299523Y-122030238D01*
X142394761Y-121935000D01*
X142537619Y-121887380D01*
X142632857Y-121887380D01*
X142775714Y-121935000D01*
X142823333Y-121982619D01*
X143394761Y-122315952D02*
X143299523Y-122268333D01*
X143251904Y-122220714D01*
X143204285Y-122125476D01*
X143204285Y-122077857D01*
X143251904Y-121982619D01*
X143299523Y-121935000D01*
X143394761Y-121887380D01*
X143585238Y-121887380D01*
X143680476Y-121935000D01*
X143728095Y-121982619D01*
X143775714Y-122077857D01*
X143775714Y-122125476D01*
X143728095Y-122220714D01*
X143680476Y-122268333D01*
X143585238Y-122315952D01*
X143394761Y-122315952D01*
X143299523Y-122363571D01*
X143251904Y-122411190D01*
X143204285Y-122506428D01*
X143204285Y-122696904D01*
X143251904Y-122792142D01*
X143299523Y-122839761D01*
X143394761Y-122887380D01*
X143585238Y-122887380D01*
X143680476Y-122839761D01*
X143728095Y-122792142D01*
X143775714Y-122696904D01*
X143775714Y-122506428D01*
X143728095Y-122411190D01*
X143680476Y-122363571D01*
X143585238Y-122315952D01*
X165428571Y-116833333D02*
X165428571Y-117166666D01*
X165952380Y-117166666D02*
X164952380Y-117166666D01*
X164952380Y-116690476D01*
X165428571Y-115976190D02*
X165476190Y-115833333D01*
X165523809Y-115785714D01*
X165619047Y-115738095D01*
X165761904Y-115738095D01*
X165857142Y-115785714D01*
X165904761Y-115833333D01*
X165952380Y-115928571D01*
X165952380Y-116309523D01*
X164952380Y-116309523D01*
X164952380Y-115976190D01*
X165000000Y-115880952D01*
X165047619Y-115833333D01*
X165142857Y-115785714D01*
X165238095Y-115785714D01*
X165333333Y-115833333D01*
X165380952Y-115880952D01*
X165428571Y-115976190D01*
X165428571Y-116309523D01*
X164952380Y-115404761D02*
X164952380Y-114785714D01*
X165333333Y-115119047D01*
X165333333Y-114976190D01*
X165380952Y-114880952D01*
X165428571Y-114833333D01*
X165523809Y-114785714D01*
X165761904Y-114785714D01*
X165857142Y-114833333D01*
X165904761Y-114880952D01*
X165952380Y-114976190D01*
X165952380Y-115261904D01*
X165904761Y-115357142D01*
X165857142Y-115404761D01*
X141123333Y-76487142D02*
X141075714Y-76534761D01*
X140932857Y-76582380D01*
X140837619Y-76582380D01*
X140694761Y-76534761D01*
X140599523Y-76439523D01*
X140551904Y-76344285D01*
X140504285Y-76153809D01*
X140504285Y-76010952D01*
X140551904Y-75820476D01*
X140599523Y-75725238D01*
X140694761Y-75630000D01*
X140837619Y-75582380D01*
X140932857Y-75582380D01*
X141075714Y-75630000D01*
X141123333Y-75677619D01*
X141504285Y-75677619D02*
X141551904Y-75630000D01*
X141647142Y-75582380D01*
X141885238Y-75582380D01*
X141980476Y-75630000D01*
X142028095Y-75677619D01*
X142075714Y-75772857D01*
X142075714Y-75868095D01*
X142028095Y-76010952D01*
X141456666Y-76582380D01*
X142075714Y-76582380D01*
X138091904Y-131030000D02*
X137996666Y-130982380D01*
X137853809Y-130982380D01*
X137710952Y-131030000D01*
X137615714Y-131125238D01*
X137568095Y-131220476D01*
X137520476Y-131410952D01*
X137520476Y-131553809D01*
X137568095Y-131744285D01*
X137615714Y-131839523D01*
X137710952Y-131934761D01*
X137853809Y-131982380D01*
X137949047Y-131982380D01*
X138091904Y-131934761D01*
X138139523Y-131887142D01*
X138139523Y-131553809D01*
X137949047Y-131553809D01*
X138568095Y-131982380D02*
X138568095Y-130982380D01*
X139139523Y-131982380D01*
X139139523Y-130982380D01*
X139615714Y-131982380D02*
X139615714Y-130982380D01*
X139853809Y-130982380D01*
X139996666Y-131030000D01*
X140091904Y-131125238D01*
X140139523Y-131220476D01*
X140187142Y-131410952D01*
X140187142Y-131553809D01*
X140139523Y-131744285D01*
X140091904Y-131839523D01*
X139996666Y-131934761D01*
X139853809Y-131982380D01*
X139615714Y-131982380D01*
X141139523Y-131982380D02*
X140568095Y-131982380D01*
X140853809Y-131982380D02*
X140853809Y-130982380D01*
X140758571Y-131125238D01*
X140663333Y-131220476D01*
X140568095Y-131268095D01*
X171288333Y-122722142D02*
X171240714Y-122769761D01*
X171097857Y-122817380D01*
X171002619Y-122817380D01*
X170859761Y-122769761D01*
X170764523Y-122674523D01*
X170716904Y-122579285D01*
X170669285Y-122388809D01*
X170669285Y-122245952D01*
X170716904Y-122055476D01*
X170764523Y-121960238D01*
X170859761Y-121865000D01*
X171002619Y-121817380D01*
X171097857Y-121817380D01*
X171240714Y-121865000D01*
X171288333Y-121912619D01*
X172145476Y-122150714D02*
X172145476Y-122817380D01*
X171907380Y-121769761D02*
X171669285Y-122484047D01*
X172288333Y-122484047D01*
X135397142Y-77242142D02*
X135349523Y-77289761D01*
X135206666Y-77337380D01*
X135111428Y-77337380D01*
X134968571Y-77289761D01*
X134873333Y-77194523D01*
X134825714Y-77099285D01*
X134778095Y-76908809D01*
X134778095Y-76765952D01*
X134825714Y-76575476D01*
X134873333Y-76480238D01*
X134968571Y-76385000D01*
X135111428Y-76337380D01*
X135206666Y-76337380D01*
X135349523Y-76385000D01*
X135397142Y-76432619D01*
X136349523Y-77337380D02*
X135778095Y-77337380D01*
X136063809Y-77337380D02*
X136063809Y-76337380D01*
X135968571Y-76480238D01*
X135873333Y-76575476D01*
X135778095Y-76623095D01*
X136730476Y-76432619D02*
X136778095Y-76385000D01*
X136873333Y-76337380D01*
X137111428Y-76337380D01*
X137206666Y-76385000D01*
X137254285Y-76432619D01*
X137301904Y-76527857D01*
X137301904Y-76623095D01*
X137254285Y-76765952D01*
X136682857Y-77337380D01*
X137301904Y-77337380D01*
X123707142Y-77402380D02*
X123373809Y-76926190D01*
X123135714Y-77402380D02*
X123135714Y-76402380D01*
X123516666Y-76402380D01*
X123611904Y-76450000D01*
X123659523Y-76497619D01*
X123707142Y-76592857D01*
X123707142Y-76735714D01*
X123659523Y-76830952D01*
X123611904Y-76878571D01*
X123516666Y-76926190D01*
X123135714Y-76926190D01*
X124659523Y-77402380D02*
X124088095Y-77402380D01*
X124373809Y-77402380D02*
X124373809Y-76402380D01*
X124278571Y-76545238D01*
X124183333Y-76640476D01*
X124088095Y-76688095D01*
X125230952Y-76830952D02*
X125135714Y-76783333D01*
X125088095Y-76735714D01*
X125040476Y-76640476D01*
X125040476Y-76592857D01*
X125088095Y-76497619D01*
X125135714Y-76450000D01*
X125230952Y-76402380D01*
X125421428Y-76402380D01*
X125516666Y-76450000D01*
X125564285Y-76497619D01*
X125611904Y-76592857D01*
X125611904Y-76640476D01*
X125564285Y-76735714D01*
X125516666Y-76783333D01*
X125421428Y-76830952D01*
X125230952Y-76830952D01*
X125135714Y-76878571D01*
X125088095Y-76926190D01*
X125040476Y-77021428D01*
X125040476Y-77211904D01*
X125088095Y-77307142D01*
X125135714Y-77354761D01*
X125230952Y-77402380D01*
X125421428Y-77402380D01*
X125516666Y-77354761D01*
X125564285Y-77307142D01*
X125611904Y-77211904D01*
X125611904Y-77021428D01*
X125564285Y-76926190D01*
X125516666Y-76878571D01*
X125421428Y-76830952D01*
X159657142Y-80947142D02*
X159609523Y-80994761D01*
X159466666Y-81042380D01*
X159371428Y-81042380D01*
X159228571Y-80994761D01*
X159133333Y-80899523D01*
X159085714Y-80804285D01*
X159038095Y-80613809D01*
X159038095Y-80470952D01*
X159085714Y-80280476D01*
X159133333Y-80185238D01*
X159228571Y-80090000D01*
X159371428Y-80042380D01*
X159466666Y-80042380D01*
X159609523Y-80090000D01*
X159657142Y-80137619D01*
X160609523Y-81042380D02*
X160038095Y-81042380D01*
X160323809Y-81042380D02*
X160323809Y-80042380D01*
X160228571Y-80185238D01*
X160133333Y-80280476D01*
X160038095Y-80328095D01*
X161514285Y-80042380D02*
X161038095Y-80042380D01*
X160990476Y-80518571D01*
X161038095Y-80470952D01*
X161133333Y-80423333D01*
X161371428Y-80423333D01*
X161466666Y-80470952D01*
X161514285Y-80518571D01*
X161561904Y-80613809D01*
X161561904Y-80851904D01*
X161514285Y-80947142D01*
X161466666Y-80994761D01*
X161371428Y-81042380D01*
X161133333Y-81042380D01*
X161038095Y-80994761D01*
X160990476Y-80947142D01*
X178998333Y-120014880D02*
X178665000Y-119538690D01*
X178426904Y-120014880D02*
X178426904Y-119014880D01*
X178807857Y-119014880D01*
X178903095Y-119062500D01*
X178950714Y-119110119D01*
X178998333Y-119205357D01*
X178998333Y-119348214D01*
X178950714Y-119443452D01*
X178903095Y-119491071D01*
X178807857Y-119538690D01*
X178426904Y-119538690D01*
X179855476Y-119014880D02*
X179665000Y-119014880D01*
X179569761Y-119062500D01*
X179522142Y-119110119D01*
X179426904Y-119252976D01*
X179379285Y-119443452D01*
X179379285Y-119824404D01*
X179426904Y-119919642D01*
X179474523Y-119967261D01*
X179569761Y-120014880D01*
X179760238Y-120014880D01*
X179855476Y-119967261D01*
X179903095Y-119919642D01*
X179950714Y-119824404D01*
X179950714Y-119586309D01*
X179903095Y-119491071D01*
X179855476Y-119443452D01*
X179760238Y-119395833D01*
X179569761Y-119395833D01*
X179474523Y-119443452D01*
X179426904Y-119491071D01*
X179379285Y-119586309D01*
X134790476Y-105338571D02*
X134457142Y-105338571D01*
X134457142Y-105862380D02*
X134457142Y-104862380D01*
X134933333Y-104862380D01*
X135647619Y-105338571D02*
X135790476Y-105386190D01*
X135838095Y-105433809D01*
X135885714Y-105529047D01*
X135885714Y-105671904D01*
X135838095Y-105767142D01*
X135790476Y-105814761D01*
X135695238Y-105862380D01*
X135314285Y-105862380D01*
X135314285Y-104862380D01*
X135647619Y-104862380D01*
X135742857Y-104910000D01*
X135790476Y-104957619D01*
X135838095Y-105052857D01*
X135838095Y-105148095D01*
X135790476Y-105243333D01*
X135742857Y-105290952D01*
X135647619Y-105338571D01*
X135314285Y-105338571D01*
X136838095Y-105862380D02*
X136266666Y-105862380D01*
X136552380Y-105862380D02*
X136552380Y-104862380D01*
X136457142Y-105005238D01*
X136361904Y-105100476D01*
X136266666Y-105148095D01*
X137409523Y-105290952D02*
X137314285Y-105243333D01*
X137266666Y-105195714D01*
X137219047Y-105100476D01*
X137219047Y-105052857D01*
X137266666Y-104957619D01*
X137314285Y-104910000D01*
X137409523Y-104862380D01*
X137600000Y-104862380D01*
X137695238Y-104910000D01*
X137742857Y-104957619D01*
X137790476Y-105052857D01*
X137790476Y-105100476D01*
X137742857Y-105195714D01*
X137695238Y-105243333D01*
X137600000Y-105290952D01*
X137409523Y-105290952D01*
X137314285Y-105338571D01*
X137266666Y-105386190D01*
X137219047Y-105481428D01*
X137219047Y-105671904D01*
X137266666Y-105767142D01*
X137314285Y-105814761D01*
X137409523Y-105862380D01*
X137600000Y-105862380D01*
X137695238Y-105814761D01*
X137742857Y-105767142D01*
X137790476Y-105671904D01*
X137790476Y-105481428D01*
X137742857Y-105386190D01*
X137695238Y-105338571D01*
X137600000Y-105290952D01*
X127057142Y-125757142D02*
X127009523Y-125804761D01*
X126866666Y-125852380D01*
X126771428Y-125852380D01*
X126628571Y-125804761D01*
X126533333Y-125709523D01*
X126485714Y-125614285D01*
X126438095Y-125423809D01*
X126438095Y-125280952D01*
X126485714Y-125090476D01*
X126533333Y-124995238D01*
X126628571Y-124900000D01*
X126771428Y-124852380D01*
X126866666Y-124852380D01*
X127009523Y-124900000D01*
X127057142Y-124947619D01*
X128009523Y-125852380D02*
X127438095Y-125852380D01*
X127723809Y-125852380D02*
X127723809Y-124852380D01*
X127628571Y-124995238D01*
X127533333Y-125090476D01*
X127438095Y-125138095D01*
X128628571Y-124852380D02*
X128723809Y-124852380D01*
X128819047Y-124900000D01*
X128866666Y-124947619D01*
X128914285Y-125042857D01*
X128961904Y-125233333D01*
X128961904Y-125471428D01*
X128914285Y-125661904D01*
X128866666Y-125757142D01*
X128819047Y-125804761D01*
X128723809Y-125852380D01*
X128628571Y-125852380D01*
X128533333Y-125804761D01*
X128485714Y-125757142D01*
X128438095Y-125661904D01*
X128390476Y-125471428D01*
X128390476Y-125233333D01*
X128438095Y-125042857D01*
X128485714Y-124947619D01*
X128533333Y-124900000D01*
X128628571Y-124852380D01*
X125818571Y-87493333D02*
X125818571Y-87826666D01*
X126342380Y-87826666D02*
X125342380Y-87826666D01*
X125342380Y-87350476D01*
X125818571Y-86636190D02*
X125866190Y-86493333D01*
X125913809Y-86445714D01*
X126009047Y-86398095D01*
X126151904Y-86398095D01*
X126247142Y-86445714D01*
X126294761Y-86493333D01*
X126342380Y-86588571D01*
X126342380Y-86969523D01*
X125342380Y-86969523D01*
X125342380Y-86636190D01*
X125390000Y-86540952D01*
X125437619Y-86493333D01*
X125532857Y-86445714D01*
X125628095Y-86445714D01*
X125723333Y-86493333D01*
X125770952Y-86540952D01*
X125818571Y-86636190D01*
X125818571Y-86969523D01*
X126342380Y-85921904D02*
X126342380Y-85731428D01*
X126294761Y-85636190D01*
X126247142Y-85588571D01*
X126104285Y-85493333D01*
X125913809Y-85445714D01*
X125532857Y-85445714D01*
X125437619Y-85493333D01*
X125390000Y-85540952D01*
X125342380Y-85636190D01*
X125342380Y-85826666D01*
X125390000Y-85921904D01*
X125437619Y-85969523D01*
X125532857Y-86017142D01*
X125770952Y-86017142D01*
X125866190Y-85969523D01*
X125913809Y-85921904D01*
X125961428Y-85826666D01*
X125961428Y-85636190D01*
X125913809Y-85540952D01*
X125866190Y-85493333D01*
X125770952Y-85445714D01*
X142137142Y-81117380D02*
X141803809Y-80641190D01*
X141565714Y-81117380D02*
X141565714Y-80117380D01*
X141946666Y-80117380D01*
X142041904Y-80165000D01*
X142089523Y-80212619D01*
X142137142Y-80307857D01*
X142137142Y-80450714D01*
X142089523Y-80545952D01*
X142041904Y-80593571D01*
X141946666Y-80641190D01*
X141565714Y-80641190D01*
X142518095Y-80212619D02*
X142565714Y-80165000D01*
X142660952Y-80117380D01*
X142899047Y-80117380D01*
X142994285Y-80165000D01*
X143041904Y-80212619D01*
X143089523Y-80307857D01*
X143089523Y-80403095D01*
X143041904Y-80545952D01*
X142470476Y-81117380D01*
X143089523Y-81117380D01*
X143708571Y-80117380D02*
X143803809Y-80117380D01*
X143899047Y-80165000D01*
X143946666Y-80212619D01*
X143994285Y-80307857D01*
X144041904Y-80498333D01*
X144041904Y-80736428D01*
X143994285Y-80926904D01*
X143946666Y-81022142D01*
X143899047Y-81069761D01*
X143803809Y-81117380D01*
X143708571Y-81117380D01*
X143613333Y-81069761D01*
X143565714Y-81022142D01*
X143518095Y-80926904D01*
X143470476Y-80736428D01*
X143470476Y-80498333D01*
X143518095Y-80307857D01*
X143565714Y-80212619D01*
X143613333Y-80165000D01*
X143708571Y-80117380D01*
X124507142Y-82182380D02*
X124173809Y-81706190D01*
X123935714Y-82182380D02*
X123935714Y-81182380D01*
X124316666Y-81182380D01*
X124411904Y-81230000D01*
X124459523Y-81277619D01*
X124507142Y-81372857D01*
X124507142Y-81515714D01*
X124459523Y-81610952D01*
X124411904Y-81658571D01*
X124316666Y-81706190D01*
X123935714Y-81706190D01*
X124888095Y-81277619D02*
X124935714Y-81230000D01*
X125030952Y-81182380D01*
X125269047Y-81182380D01*
X125364285Y-81230000D01*
X125411904Y-81277619D01*
X125459523Y-81372857D01*
X125459523Y-81468095D01*
X125411904Y-81610952D01*
X124840476Y-82182380D01*
X125459523Y-82182380D01*
X125840476Y-81277619D02*
X125888095Y-81230000D01*
X125983333Y-81182380D01*
X126221428Y-81182380D01*
X126316666Y-81230000D01*
X126364285Y-81277619D01*
X126411904Y-81372857D01*
X126411904Y-81468095D01*
X126364285Y-81610952D01*
X125792857Y-82182380D01*
X126411904Y-82182380D01*
X163811904Y-103182000D02*
X163716666Y-103134380D01*
X163573809Y-103134380D01*
X163430952Y-103182000D01*
X163335714Y-103277238D01*
X163288095Y-103372476D01*
X163240476Y-103562952D01*
X163240476Y-103705809D01*
X163288095Y-103896285D01*
X163335714Y-103991523D01*
X163430952Y-104086761D01*
X163573809Y-104134380D01*
X163669047Y-104134380D01*
X163811904Y-104086761D01*
X163859523Y-104039142D01*
X163859523Y-103705809D01*
X163669047Y-103705809D01*
X164288095Y-104134380D02*
X164288095Y-103134380D01*
X164859523Y-104134380D01*
X164859523Y-103134380D01*
X165335714Y-104134380D02*
X165335714Y-103134380D01*
X165573809Y-103134380D01*
X165716666Y-103182000D01*
X165811904Y-103277238D01*
X165859523Y-103372476D01*
X165907142Y-103562952D01*
X165907142Y-103705809D01*
X165859523Y-103896285D01*
X165811904Y-103991523D01*
X165716666Y-104086761D01*
X165573809Y-104134380D01*
X165335714Y-104134380D01*
X166240476Y-103134380D02*
X166859523Y-103134380D01*
X166526190Y-103515333D01*
X166669047Y-103515333D01*
X166764285Y-103562952D01*
X166811904Y-103610571D01*
X166859523Y-103705809D01*
X166859523Y-103943904D01*
X166811904Y-104039142D01*
X166764285Y-104086761D01*
X166669047Y-104134380D01*
X166383333Y-104134380D01*
X166288095Y-104086761D01*
X166240476Y-104039142D01*
X146967142Y-121722380D02*
X146633809Y-121246190D01*
X146395714Y-121722380D02*
X146395714Y-120722380D01*
X146776666Y-120722380D01*
X146871904Y-120770000D01*
X146919523Y-120817619D01*
X146967142Y-120912857D01*
X146967142Y-121055714D01*
X146919523Y-121150952D01*
X146871904Y-121198571D01*
X146776666Y-121246190D01*
X146395714Y-121246190D01*
X147919523Y-121722380D02*
X147348095Y-121722380D01*
X147633809Y-121722380D02*
X147633809Y-120722380D01*
X147538571Y-120865238D01*
X147443333Y-120960476D01*
X147348095Y-121008095D01*
X148538571Y-120722380D02*
X148633809Y-120722380D01*
X148729047Y-120770000D01*
X148776666Y-120817619D01*
X148824285Y-120912857D01*
X148871904Y-121103333D01*
X148871904Y-121341428D01*
X148824285Y-121531904D01*
X148776666Y-121627142D01*
X148729047Y-121674761D01*
X148633809Y-121722380D01*
X148538571Y-121722380D01*
X148443333Y-121674761D01*
X148395714Y-121627142D01*
X148348095Y-121531904D01*
X148300476Y-121341428D01*
X148300476Y-121103333D01*
X148348095Y-120912857D01*
X148395714Y-120817619D01*
X148443333Y-120770000D01*
X148538571Y-120722380D01*
X158568571Y-91639523D02*
X158568571Y-91972857D01*
X159092380Y-91972857D02*
X158092380Y-91972857D01*
X158092380Y-91496666D01*
X158568571Y-90782380D02*
X158616190Y-90639523D01*
X158663809Y-90591904D01*
X158759047Y-90544285D01*
X158901904Y-90544285D01*
X158997142Y-90591904D01*
X159044761Y-90639523D01*
X159092380Y-90734761D01*
X159092380Y-91115714D01*
X158092380Y-91115714D01*
X158092380Y-90782380D01*
X158140000Y-90687142D01*
X158187619Y-90639523D01*
X158282857Y-90591904D01*
X158378095Y-90591904D01*
X158473333Y-90639523D01*
X158520952Y-90687142D01*
X158568571Y-90782380D01*
X158568571Y-91115714D01*
X159092380Y-89591904D02*
X159092380Y-90163333D01*
X159092380Y-89877619D02*
X158092380Y-89877619D01*
X158235238Y-89972857D01*
X158330476Y-90068095D01*
X158378095Y-90163333D01*
X158092380Y-89258571D02*
X158092380Y-88639523D01*
X158473333Y-88972857D01*
X158473333Y-88830000D01*
X158520952Y-88734761D01*
X158568571Y-88687142D01*
X158663809Y-88639523D01*
X158901904Y-88639523D01*
X158997142Y-88687142D01*
X159044761Y-88734761D01*
X159092380Y-88830000D01*
X159092380Y-89115714D01*
X159044761Y-89210952D01*
X158997142Y-89258571D01*
X131747142Y-77602380D02*
X131413809Y-77126190D01*
X131175714Y-77602380D02*
X131175714Y-76602380D01*
X131556666Y-76602380D01*
X131651904Y-76650000D01*
X131699523Y-76697619D01*
X131747142Y-76792857D01*
X131747142Y-76935714D01*
X131699523Y-77030952D01*
X131651904Y-77078571D01*
X131556666Y-77126190D01*
X131175714Y-77126190D01*
X132699523Y-77602380D02*
X132128095Y-77602380D01*
X132413809Y-77602380D02*
X132413809Y-76602380D01*
X132318571Y-76745238D01*
X132223333Y-76840476D01*
X132128095Y-76888095D01*
X133175714Y-77602380D02*
X133366190Y-77602380D01*
X133461428Y-77554761D01*
X133509047Y-77507142D01*
X133604285Y-77364285D01*
X133651904Y-77173809D01*
X133651904Y-76792857D01*
X133604285Y-76697619D01*
X133556666Y-76650000D01*
X133461428Y-76602380D01*
X133270952Y-76602380D01*
X133175714Y-76650000D01*
X133128095Y-76697619D01*
X133080476Y-76792857D01*
X133080476Y-77030952D01*
X133128095Y-77126190D01*
X133175714Y-77173809D01*
X133270952Y-77221428D01*
X133461428Y-77221428D01*
X133556666Y-77173809D01*
X133604285Y-77126190D01*
X133651904Y-77030952D01*
X142962142Y-85722380D02*
X142628809Y-85246190D01*
X142390714Y-85722380D02*
X142390714Y-84722380D01*
X142771666Y-84722380D01*
X142866904Y-84770000D01*
X142914523Y-84817619D01*
X142962142Y-84912857D01*
X142962142Y-85055714D01*
X142914523Y-85150952D01*
X142866904Y-85198571D01*
X142771666Y-85246190D01*
X142390714Y-85246190D01*
X143343095Y-84817619D02*
X143390714Y-84770000D01*
X143485952Y-84722380D01*
X143724047Y-84722380D01*
X143819285Y-84770000D01*
X143866904Y-84817619D01*
X143914523Y-84912857D01*
X143914523Y-85008095D01*
X143866904Y-85150952D01*
X143295476Y-85722380D01*
X143914523Y-85722380D01*
X144771666Y-85055714D02*
X144771666Y-85722380D01*
X144533571Y-84674761D02*
X144295476Y-85389047D01*
X144914523Y-85389047D01*
X133838571Y-87969523D02*
X133838571Y-88302857D01*
X134362380Y-88302857D02*
X133362380Y-88302857D01*
X133362380Y-87826666D01*
X133838571Y-87112380D02*
X133886190Y-86969523D01*
X133933809Y-86921904D01*
X134029047Y-86874285D01*
X134171904Y-86874285D01*
X134267142Y-86921904D01*
X134314761Y-86969523D01*
X134362380Y-87064761D01*
X134362380Y-87445714D01*
X133362380Y-87445714D01*
X133362380Y-87112380D01*
X133410000Y-87017142D01*
X133457619Y-86969523D01*
X133552857Y-86921904D01*
X133648095Y-86921904D01*
X133743333Y-86969523D01*
X133790952Y-87017142D01*
X133838571Y-87112380D01*
X133838571Y-87445714D01*
X134362380Y-85921904D02*
X134362380Y-86493333D01*
X134362380Y-86207619D02*
X133362380Y-86207619D01*
X133505238Y-86302857D01*
X133600476Y-86398095D01*
X133648095Y-86493333D01*
X133362380Y-85302857D02*
X133362380Y-85207619D01*
X133410000Y-85112380D01*
X133457619Y-85064761D01*
X133552857Y-85017142D01*
X133743333Y-84969523D01*
X133981428Y-84969523D01*
X134171904Y-85017142D01*
X134267142Y-85064761D01*
X134314761Y-85112380D01*
X134362380Y-85207619D01*
X134362380Y-85302857D01*
X134314761Y-85398095D01*
X134267142Y-85445714D01*
X134171904Y-85493333D01*
X133981428Y-85540952D01*
X133743333Y-85540952D01*
X133552857Y-85493333D01*
X133457619Y-85445714D01*
X133410000Y-85398095D01*
X133362380Y-85302857D01*
X135407142Y-122852380D02*
X135073809Y-122376190D01*
X134835714Y-122852380D02*
X134835714Y-121852380D01*
X135216666Y-121852380D01*
X135311904Y-121900000D01*
X135359523Y-121947619D01*
X135407142Y-122042857D01*
X135407142Y-122185714D01*
X135359523Y-122280952D01*
X135311904Y-122328571D01*
X135216666Y-122376190D01*
X134835714Y-122376190D01*
X136359523Y-122852380D02*
X135788095Y-122852380D01*
X136073809Y-122852380D02*
X136073809Y-121852380D01*
X135978571Y-121995238D01*
X135883333Y-122090476D01*
X135788095Y-122138095D01*
X137216666Y-121852380D02*
X137026190Y-121852380D01*
X136930952Y-121900000D01*
X136883333Y-121947619D01*
X136788095Y-122090476D01*
X136740476Y-122280952D01*
X136740476Y-122661904D01*
X136788095Y-122757142D01*
X136835714Y-122804761D01*
X136930952Y-122852380D01*
X137121428Y-122852380D01*
X137216666Y-122804761D01*
X137264285Y-122757142D01*
X137311904Y-122661904D01*
X137311904Y-122423809D01*
X137264285Y-122328571D01*
X137216666Y-122280952D01*
X137121428Y-122233333D01*
X136930952Y-122233333D01*
X136835714Y-122280952D01*
X136788095Y-122328571D01*
X136740476Y-122423809D01*
X149577142Y-81157380D02*
X149243809Y-80681190D01*
X149005714Y-81157380D02*
X149005714Y-80157380D01*
X149386666Y-80157380D01*
X149481904Y-80205000D01*
X149529523Y-80252619D01*
X149577142Y-80347857D01*
X149577142Y-80490714D01*
X149529523Y-80585952D01*
X149481904Y-80633571D01*
X149386666Y-80681190D01*
X149005714Y-80681190D01*
X149958095Y-80252619D02*
X150005714Y-80205000D01*
X150100952Y-80157380D01*
X150339047Y-80157380D01*
X150434285Y-80205000D01*
X150481904Y-80252619D01*
X150529523Y-80347857D01*
X150529523Y-80443095D01*
X150481904Y-80585952D01*
X149910476Y-81157380D01*
X150529523Y-81157380D01*
X151481904Y-81157380D02*
X150910476Y-81157380D01*
X151196190Y-81157380D02*
X151196190Y-80157380D01*
X151100952Y-80300238D01*
X151005714Y-80395476D01*
X150910476Y-80443095D01*
X166883333Y-121687380D02*
X166550000Y-121211190D01*
X166311904Y-121687380D02*
X166311904Y-120687380D01*
X166692857Y-120687380D01*
X166788095Y-120735000D01*
X166835714Y-120782619D01*
X166883333Y-120877857D01*
X166883333Y-121020714D01*
X166835714Y-121115952D01*
X166788095Y-121163571D01*
X166692857Y-121211190D01*
X166311904Y-121211190D01*
X167740476Y-121020714D02*
X167740476Y-121687380D01*
X167502380Y-120639761D02*
X167264285Y-121354047D01*
X167883333Y-121354047D01*
X156357142Y-81342380D02*
X156023809Y-80866190D01*
X155785714Y-81342380D02*
X155785714Y-80342380D01*
X156166666Y-80342380D01*
X156261904Y-80390000D01*
X156309523Y-80437619D01*
X156357142Y-80532857D01*
X156357142Y-80675714D01*
X156309523Y-80770952D01*
X156261904Y-80818571D01*
X156166666Y-80866190D01*
X155785714Y-80866190D01*
X156738095Y-80437619D02*
X156785714Y-80390000D01*
X156880952Y-80342380D01*
X157119047Y-80342380D01*
X157214285Y-80390000D01*
X157261904Y-80437619D01*
X157309523Y-80532857D01*
X157309523Y-80628095D01*
X157261904Y-80770952D01*
X156690476Y-81342380D01*
X157309523Y-81342380D01*
X158166666Y-80342380D02*
X157976190Y-80342380D01*
X157880952Y-80390000D01*
X157833333Y-80437619D01*
X157738095Y-80580476D01*
X157690476Y-80770952D01*
X157690476Y-81151904D01*
X157738095Y-81247142D01*
X157785714Y-81294761D01*
X157880952Y-81342380D01*
X158071428Y-81342380D01*
X158166666Y-81294761D01*
X158214285Y-81247142D01*
X158261904Y-81151904D01*
X158261904Y-80913809D01*
X158214285Y-80818571D01*
X158166666Y-80770952D01*
X158071428Y-80723333D01*
X157880952Y-80723333D01*
X157785714Y-80770952D01*
X157738095Y-80818571D01*
X157690476Y-80913809D01*
X166478571Y-91669523D02*
X166478571Y-92002857D01*
X167002380Y-92002857D02*
X166002380Y-92002857D01*
X166002380Y-91526666D01*
X166478571Y-90812380D02*
X166526190Y-90669523D01*
X166573809Y-90621904D01*
X166669047Y-90574285D01*
X166811904Y-90574285D01*
X166907142Y-90621904D01*
X166954761Y-90669523D01*
X167002380Y-90764761D01*
X167002380Y-91145714D01*
X166002380Y-91145714D01*
X166002380Y-90812380D01*
X166050000Y-90717142D01*
X166097619Y-90669523D01*
X166192857Y-90621904D01*
X166288095Y-90621904D01*
X166383333Y-90669523D01*
X166430952Y-90717142D01*
X166478571Y-90812380D01*
X166478571Y-91145714D01*
X167002380Y-89621904D02*
X167002380Y-90193333D01*
X167002380Y-89907619D02*
X166002380Y-89907619D01*
X166145238Y-90002857D01*
X166240476Y-90098095D01*
X166288095Y-90193333D01*
X166335714Y-88764761D02*
X167002380Y-88764761D01*
X165954761Y-89002857D02*
X166669047Y-89240952D01*
X166669047Y-88621904D01*
X135573333Y-125677142D02*
X135525714Y-125724761D01*
X135382857Y-125772380D01*
X135287619Y-125772380D01*
X135144761Y-125724761D01*
X135049523Y-125629523D01*
X135001904Y-125534285D01*
X134954285Y-125343809D01*
X134954285Y-125200952D01*
X135001904Y-125010476D01*
X135049523Y-124915238D01*
X135144761Y-124820000D01*
X135287619Y-124772380D01*
X135382857Y-124772380D01*
X135525714Y-124820000D01*
X135573333Y-124867619D01*
X136049523Y-125772380D02*
X136240000Y-125772380D01*
X136335238Y-125724761D01*
X136382857Y-125677142D01*
X136478095Y-125534285D01*
X136525714Y-125343809D01*
X136525714Y-124962857D01*
X136478095Y-124867619D01*
X136430476Y-124820000D01*
X136335238Y-124772380D01*
X136144761Y-124772380D01*
X136049523Y-124820000D01*
X136001904Y-124867619D01*
X135954285Y-124962857D01*
X135954285Y-125200952D01*
X136001904Y-125296190D01*
X136049523Y-125343809D01*
X136144761Y-125391428D01*
X136335238Y-125391428D01*
X136430476Y-125343809D01*
X136478095Y-125296190D01*
X136525714Y-125200952D01*
X177033333Y-130077142D02*
X176985714Y-130124761D01*
X176842857Y-130172380D01*
X176747619Y-130172380D01*
X176604761Y-130124761D01*
X176509523Y-130029523D01*
X176461904Y-129934285D01*
X176414285Y-129743809D01*
X176414285Y-129600952D01*
X176461904Y-129410476D01*
X176509523Y-129315238D01*
X176604761Y-129220000D01*
X176747619Y-129172380D01*
X176842857Y-129172380D01*
X176985714Y-129220000D01*
X177033333Y-129267619D01*
X177985714Y-130172380D02*
X177414285Y-130172380D01*
X177700000Y-130172380D02*
X177700000Y-129172380D01*
X177604761Y-129315238D01*
X177509523Y-129410476D01*
X177414285Y-129458095D01*
X167427142Y-81262380D02*
X167093809Y-80786190D01*
X166855714Y-81262380D02*
X166855714Y-80262380D01*
X167236666Y-80262380D01*
X167331904Y-80310000D01*
X167379523Y-80357619D01*
X167427142Y-80452857D01*
X167427142Y-80595714D01*
X167379523Y-80690952D01*
X167331904Y-80738571D01*
X167236666Y-80786190D01*
X166855714Y-80786190D01*
X167808095Y-80357619D02*
X167855714Y-80310000D01*
X167950952Y-80262380D01*
X168189047Y-80262380D01*
X168284285Y-80310000D01*
X168331904Y-80357619D01*
X168379523Y-80452857D01*
X168379523Y-80548095D01*
X168331904Y-80690952D01*
X167760476Y-81262380D01*
X168379523Y-81262380D01*
X168712857Y-80262380D02*
X169379523Y-80262380D01*
X168950952Y-81262380D01*
X145988571Y-116833333D02*
X145988571Y-117166666D01*
X146512380Y-117166666D02*
X145512380Y-117166666D01*
X145512380Y-116690476D01*
X145988571Y-115976190D02*
X146036190Y-115833333D01*
X146083809Y-115785714D01*
X146179047Y-115738095D01*
X146321904Y-115738095D01*
X146417142Y-115785714D01*
X146464761Y-115833333D01*
X146512380Y-115928571D01*
X146512380Y-116309523D01*
X145512380Y-116309523D01*
X145512380Y-115976190D01*
X145560000Y-115880952D01*
X145607619Y-115833333D01*
X145702857Y-115785714D01*
X145798095Y-115785714D01*
X145893333Y-115833333D01*
X145940952Y-115880952D01*
X145988571Y-115976190D01*
X145988571Y-116309523D01*
X145512380Y-114833333D02*
X145512380Y-115309523D01*
X145988571Y-115357142D01*
X145940952Y-115309523D01*
X145893333Y-115214285D01*
X145893333Y-114976190D01*
X145940952Y-114880952D01*
X145988571Y-114833333D01*
X146083809Y-114785714D01*
X146321904Y-114785714D01*
X146417142Y-114833333D01*
X146464761Y-114880952D01*
X146512380Y-114976190D01*
X146512380Y-115214285D01*
X146464761Y-115309523D01*
X146417142Y-115357142D01*
X166617142Y-85662380D02*
X166283809Y-85186190D01*
X166045714Y-85662380D02*
X166045714Y-84662380D01*
X166426666Y-84662380D01*
X166521904Y-84710000D01*
X166569523Y-84757619D01*
X166617142Y-84852857D01*
X166617142Y-84995714D01*
X166569523Y-85090952D01*
X166521904Y-85138571D01*
X166426666Y-85186190D01*
X166045714Y-85186190D01*
X166950476Y-84662380D02*
X167569523Y-84662380D01*
X167236190Y-85043333D01*
X167379047Y-85043333D01*
X167474285Y-85090952D01*
X167521904Y-85138571D01*
X167569523Y-85233809D01*
X167569523Y-85471904D01*
X167521904Y-85567142D01*
X167474285Y-85614761D01*
X167379047Y-85662380D01*
X167093333Y-85662380D01*
X166998095Y-85614761D01*
X166950476Y-85567142D01*
X168521904Y-85662380D02*
X167950476Y-85662380D01*
X168236190Y-85662380D02*
X168236190Y-84662380D01*
X168140952Y-84805238D01*
X168045714Y-84900476D01*
X167950476Y-84948095D01*
X163403333Y-122912142D02*
X163355714Y-122959761D01*
X163212857Y-123007380D01*
X163117619Y-123007380D01*
X162974761Y-122959761D01*
X162879523Y-122864523D01*
X162831904Y-122769285D01*
X162784285Y-122578809D01*
X162784285Y-122435952D01*
X162831904Y-122245476D01*
X162879523Y-122150238D01*
X162974761Y-122055000D01*
X163117619Y-122007380D01*
X163212857Y-122007380D01*
X163355714Y-122055000D01*
X163403333Y-122102619D01*
X164308095Y-122007380D02*
X163831904Y-122007380D01*
X163784285Y-122483571D01*
X163831904Y-122435952D01*
X163927142Y-122388333D01*
X164165238Y-122388333D01*
X164260476Y-122435952D01*
X164308095Y-122483571D01*
X164355714Y-122578809D01*
X164355714Y-122816904D01*
X164308095Y-122912142D01*
X164260476Y-122959761D01*
X164165238Y-123007380D01*
X163927142Y-123007380D01*
X163831904Y-122959761D01*
X163784285Y-122912142D01*
X175150476Y-104282380D02*
X175150476Y-103282380D01*
X175531428Y-103282380D01*
X175626666Y-103330000D01*
X175674285Y-103377619D01*
X175721904Y-103472857D01*
X175721904Y-103615714D01*
X175674285Y-103710952D01*
X175626666Y-103758571D01*
X175531428Y-103806190D01*
X175150476Y-103806190D01*
X176293333Y-104282380D02*
X176198095Y-104234761D01*
X176150476Y-104187142D01*
X176102857Y-104091904D01*
X176102857Y-103806190D01*
X176150476Y-103710952D01*
X176198095Y-103663333D01*
X176293333Y-103615714D01*
X176436190Y-103615714D01*
X176531428Y-103663333D01*
X176579047Y-103710952D01*
X176626666Y-103806190D01*
X176626666Y-104091904D01*
X176579047Y-104187142D01*
X176531428Y-104234761D01*
X176436190Y-104282380D01*
X176293333Y-104282380D01*
X176960000Y-103615714D02*
X177150476Y-104282380D01*
X177340952Y-103806190D01*
X177531428Y-104282380D01*
X177721904Y-103615714D01*
X178483809Y-104234761D02*
X178388571Y-104282380D01*
X178198095Y-104282380D01*
X178102857Y-104234761D01*
X178055238Y-104139523D01*
X178055238Y-103758571D01*
X178102857Y-103663333D01*
X178198095Y-103615714D01*
X178388571Y-103615714D01*
X178483809Y-103663333D01*
X178531428Y-103758571D01*
X178531428Y-103853809D01*
X178055238Y-103949047D01*
X178960000Y-104282380D02*
X178960000Y-103615714D01*
X178960000Y-103806190D02*
X179007619Y-103710952D01*
X179055238Y-103663333D01*
X179150476Y-103615714D01*
X179245714Y-103615714D01*
X180055238Y-104282380D02*
X179579047Y-104282380D01*
X179579047Y-103282380D01*
X180388571Y-103758571D02*
X180721904Y-103758571D01*
X180864761Y-104282380D02*
X180388571Y-104282380D01*
X180388571Y-103282380D01*
X180864761Y-103282380D01*
X181293333Y-104282380D02*
X181293333Y-103282380D01*
X181531428Y-103282380D01*
X181674285Y-103330000D01*
X181769523Y-103425238D01*
X181817142Y-103520476D01*
X181864761Y-103710952D01*
X181864761Y-103853809D01*
X181817142Y-104044285D01*
X181769523Y-104139523D01*
X181674285Y-104234761D01*
X181531428Y-104282380D01*
X181293333Y-104282380D01*
X182817142Y-104282380D02*
X182245714Y-104282380D01*
X182531428Y-104282380D02*
X182531428Y-103282380D01*
X182436190Y-103425238D01*
X182340952Y-103520476D01*
X182245714Y-103568095D01*
X178798333Y-122882142D02*
X178750714Y-122929761D01*
X178607857Y-122977380D01*
X178512619Y-122977380D01*
X178369761Y-122929761D01*
X178274523Y-122834523D01*
X178226904Y-122739285D01*
X178179285Y-122548809D01*
X178179285Y-122405952D01*
X178226904Y-122215476D01*
X178274523Y-122120238D01*
X178369761Y-122025000D01*
X178512619Y-121977380D01*
X178607857Y-121977380D01*
X178750714Y-122025000D01*
X178798333Y-122072619D01*
X179131666Y-121977380D02*
X179750714Y-121977380D01*
X179417380Y-122358333D01*
X179560238Y-122358333D01*
X179655476Y-122405952D01*
X179703095Y-122453571D01*
X179750714Y-122548809D01*
X179750714Y-122786904D01*
X179703095Y-122882142D01*
X179655476Y-122929761D01*
X179560238Y-122977380D01*
X179274523Y-122977380D01*
X179179285Y-122929761D01*
X179131666Y-122882142D01*
X151818571Y-91639523D02*
X151818571Y-91972857D01*
X152342380Y-91972857D02*
X151342380Y-91972857D01*
X151342380Y-91496666D01*
X151818571Y-90782380D02*
X151866190Y-90639523D01*
X151913809Y-90591904D01*
X152009047Y-90544285D01*
X152151904Y-90544285D01*
X152247142Y-90591904D01*
X152294761Y-90639523D01*
X152342380Y-90734761D01*
X152342380Y-91115714D01*
X151342380Y-91115714D01*
X151342380Y-90782380D01*
X151390000Y-90687142D01*
X151437619Y-90639523D01*
X151532857Y-90591904D01*
X151628095Y-90591904D01*
X151723333Y-90639523D01*
X151770952Y-90687142D01*
X151818571Y-90782380D01*
X151818571Y-91115714D01*
X152342380Y-89591904D02*
X152342380Y-90163333D01*
X152342380Y-89877619D02*
X151342380Y-89877619D01*
X151485238Y-89972857D01*
X151580476Y-90068095D01*
X151628095Y-90163333D01*
X151437619Y-89210952D02*
X151390000Y-89163333D01*
X151342380Y-89068095D01*
X151342380Y-88830000D01*
X151390000Y-88734761D01*
X151437619Y-88687142D01*
X151532857Y-88639523D01*
X151628095Y-88639523D01*
X151770952Y-88687142D01*
X152342380Y-89258571D01*
X152342380Y-88639523D01*
X154508333Y-121567380D02*
X154175000Y-121091190D01*
X153936904Y-121567380D02*
X153936904Y-120567380D01*
X154317857Y-120567380D01*
X154413095Y-120615000D01*
X154460714Y-120662619D01*
X154508333Y-120757857D01*
X154508333Y-120900714D01*
X154460714Y-120995952D01*
X154413095Y-121043571D01*
X154317857Y-121091190D01*
X153936904Y-121091190D01*
X155413095Y-120567380D02*
X154936904Y-120567380D01*
X154889285Y-121043571D01*
X154936904Y-120995952D01*
X155032142Y-120948333D01*
X155270238Y-120948333D01*
X155365476Y-120995952D01*
X155413095Y-121043571D01*
X155460714Y-121138809D01*
X155460714Y-121376904D01*
X155413095Y-121472142D01*
X155365476Y-121519761D01*
X155270238Y-121567380D01*
X155032142Y-121567380D01*
X154936904Y-121519761D01*
X154889285Y-121472142D01*
X150377142Y-85642380D02*
X150043809Y-85166190D01*
X149805714Y-85642380D02*
X149805714Y-84642380D01*
X150186666Y-84642380D01*
X150281904Y-84690000D01*
X150329523Y-84737619D01*
X150377142Y-84832857D01*
X150377142Y-84975714D01*
X150329523Y-85070952D01*
X150281904Y-85118571D01*
X150186666Y-85166190D01*
X149805714Y-85166190D01*
X150758095Y-84737619D02*
X150805714Y-84690000D01*
X150900952Y-84642380D01*
X151139047Y-84642380D01*
X151234285Y-84690000D01*
X151281904Y-84737619D01*
X151329523Y-84832857D01*
X151329523Y-84928095D01*
X151281904Y-85070952D01*
X150710476Y-85642380D01*
X151329523Y-85642380D01*
X152234285Y-84642380D02*
X151758095Y-84642380D01*
X151710476Y-85118571D01*
X151758095Y-85070952D01*
X151853333Y-85023333D01*
X152091428Y-85023333D01*
X152186666Y-85070952D01*
X152234285Y-85118571D01*
X152281904Y-85213809D01*
X152281904Y-85451904D01*
X152234285Y-85547142D01*
X152186666Y-85594761D01*
X152091428Y-85642380D01*
X151853333Y-85642380D01*
X151758095Y-85594761D01*
X151710476Y-85547142D01*
X125843571Y-119778333D02*
X125843571Y-120111666D01*
X126367380Y-120111666D02*
X125367380Y-120111666D01*
X125367380Y-119635476D01*
X125843571Y-118921190D02*
X125891190Y-118778333D01*
X125938809Y-118730714D01*
X126034047Y-118683095D01*
X126176904Y-118683095D01*
X126272142Y-118730714D01*
X126319761Y-118778333D01*
X126367380Y-118873571D01*
X126367380Y-119254523D01*
X125367380Y-119254523D01*
X125367380Y-118921190D01*
X125415000Y-118825952D01*
X125462619Y-118778333D01*
X125557857Y-118730714D01*
X125653095Y-118730714D01*
X125748333Y-118778333D01*
X125795952Y-118825952D01*
X125843571Y-118921190D01*
X125843571Y-119254523D01*
X125795952Y-118111666D02*
X125748333Y-118206904D01*
X125700714Y-118254523D01*
X125605476Y-118302142D01*
X125557857Y-118302142D01*
X125462619Y-118254523D01*
X125415000Y-118206904D01*
X125367380Y-118111666D01*
X125367380Y-117921190D01*
X125415000Y-117825952D01*
X125462619Y-117778333D01*
X125557857Y-117730714D01*
X125605476Y-117730714D01*
X125700714Y-117778333D01*
X125748333Y-117825952D01*
X125795952Y-117921190D01*
X125795952Y-118111666D01*
X125843571Y-118206904D01*
X125891190Y-118254523D01*
X125986428Y-118302142D01*
X126176904Y-118302142D01*
X126272142Y-118254523D01*
X126319761Y-118206904D01*
X126367380Y-118111666D01*
X126367380Y-117921190D01*
X126319761Y-117825952D01*
X126272142Y-117778333D01*
X126176904Y-117730714D01*
X125986428Y-117730714D01*
X125891190Y-117778333D01*
X125843571Y-117825952D01*
X125795952Y-117921190D01*
X145612142Y-80897142D02*
X145564523Y-80944761D01*
X145421666Y-80992380D01*
X145326428Y-80992380D01*
X145183571Y-80944761D01*
X145088333Y-80849523D01*
X145040714Y-80754285D01*
X144993095Y-80563809D01*
X144993095Y-80420952D01*
X145040714Y-80230476D01*
X145088333Y-80135238D01*
X145183571Y-80040000D01*
X145326428Y-79992380D01*
X145421666Y-79992380D01*
X145564523Y-80040000D01*
X145612142Y-80087619D01*
X146564523Y-80992380D02*
X145993095Y-80992380D01*
X146278809Y-80992380D02*
X146278809Y-79992380D01*
X146183571Y-80135238D01*
X146088333Y-80230476D01*
X145993095Y-80278095D01*
X146897857Y-79992380D02*
X147516904Y-79992380D01*
X147183571Y-80373333D01*
X147326428Y-80373333D01*
X147421666Y-80420952D01*
X147469285Y-80468571D01*
X147516904Y-80563809D01*
X147516904Y-80801904D01*
X147469285Y-80897142D01*
X147421666Y-80944761D01*
X147326428Y-80992380D01*
X147040714Y-80992380D01*
X146945476Y-80944761D01*
X146897857Y-80897142D01*
X181722142Y-81397380D02*
X181388809Y-80921190D01*
X181150714Y-81397380D02*
X181150714Y-80397380D01*
X181531666Y-80397380D01*
X181626904Y-80445000D01*
X181674523Y-80492619D01*
X181722142Y-80587857D01*
X181722142Y-80730714D01*
X181674523Y-80825952D01*
X181626904Y-80873571D01*
X181531666Y-80921190D01*
X181150714Y-80921190D01*
X182103095Y-80492619D02*
X182150714Y-80445000D01*
X182245952Y-80397380D01*
X182484047Y-80397380D01*
X182579285Y-80445000D01*
X182626904Y-80492619D01*
X182674523Y-80587857D01*
X182674523Y-80683095D01*
X182626904Y-80825952D01*
X182055476Y-81397380D01*
X182674523Y-81397380D01*
X183150714Y-81397380D02*
X183341190Y-81397380D01*
X183436428Y-81349761D01*
X183484047Y-81302142D01*
X183579285Y-81159285D01*
X183626904Y-80968809D01*
X183626904Y-80587857D01*
X183579285Y-80492619D01*
X183531666Y-80445000D01*
X183436428Y-80397380D01*
X183245952Y-80397380D01*
X183150714Y-80445000D01*
X183103095Y-80492619D01*
X183055476Y-80587857D01*
X183055476Y-80825952D01*
X183103095Y-80921190D01*
X183150714Y-80968809D01*
X183245952Y-81016428D01*
X183436428Y-81016428D01*
X183531666Y-80968809D01*
X183579285Y-80921190D01*
X183626904Y-80825952D01*
X173647142Y-85712380D02*
X173313809Y-85236190D01*
X173075714Y-85712380D02*
X173075714Y-84712380D01*
X173456666Y-84712380D01*
X173551904Y-84760000D01*
X173599523Y-84807619D01*
X173647142Y-84902857D01*
X173647142Y-85045714D01*
X173599523Y-85140952D01*
X173551904Y-85188571D01*
X173456666Y-85236190D01*
X173075714Y-85236190D01*
X173980476Y-84712380D02*
X174599523Y-84712380D01*
X174266190Y-85093333D01*
X174409047Y-85093333D01*
X174504285Y-85140952D01*
X174551904Y-85188571D01*
X174599523Y-85283809D01*
X174599523Y-85521904D01*
X174551904Y-85617142D01*
X174504285Y-85664761D01*
X174409047Y-85712380D01*
X174123333Y-85712380D01*
X174028095Y-85664761D01*
X173980476Y-85617142D01*
X174980476Y-84807619D02*
X175028095Y-84760000D01*
X175123333Y-84712380D01*
X175361428Y-84712380D01*
X175456666Y-84760000D01*
X175504285Y-84807619D01*
X175551904Y-84902857D01*
X175551904Y-84998095D01*
X175504285Y-85140952D01*
X174932857Y-85712380D01*
X175551904Y-85712380D01*
X157853333Y-122852142D02*
X157805714Y-122899761D01*
X157662857Y-122947380D01*
X157567619Y-122947380D01*
X157424761Y-122899761D01*
X157329523Y-122804523D01*
X157281904Y-122709285D01*
X157234285Y-122518809D01*
X157234285Y-122375952D01*
X157281904Y-122185476D01*
X157329523Y-122090238D01*
X157424761Y-121995000D01*
X157567619Y-121947380D01*
X157662857Y-121947380D01*
X157805714Y-121995000D01*
X157853333Y-122042619D01*
X158710476Y-121947380D02*
X158520000Y-121947380D01*
X158424761Y-121995000D01*
X158377142Y-122042619D01*
X158281904Y-122185476D01*
X158234285Y-122375952D01*
X158234285Y-122756904D01*
X158281904Y-122852142D01*
X158329523Y-122899761D01*
X158424761Y-122947380D01*
X158615238Y-122947380D01*
X158710476Y-122899761D01*
X158758095Y-122852142D01*
X158805714Y-122756904D01*
X158805714Y-122518809D01*
X158758095Y-122423571D01*
X158710476Y-122375952D01*
X158615238Y-122328333D01*
X158424761Y-122328333D01*
X158329523Y-122375952D01*
X158281904Y-122423571D01*
X158234285Y-122518809D01*
X122462380Y-103383333D02*
X123176666Y-103383333D01*
X123319523Y-103430952D01*
X123414761Y-103526190D01*
X123462380Y-103669047D01*
X123462380Y-103764285D01*
X122462380Y-103002380D02*
X122462380Y-102383333D01*
X122843333Y-102716666D01*
X122843333Y-102573809D01*
X122890952Y-102478571D01*
X122938571Y-102430952D01*
X123033809Y-102383333D01*
X123271904Y-102383333D01*
X123367142Y-102430952D01*
X123414761Y-102478571D01*
X123462380Y-102573809D01*
X123462380Y-102859523D01*
X123414761Y-102954761D01*
X123367142Y-103002380D01*
X137943571Y-119753333D02*
X137943571Y-120086666D01*
X138467380Y-120086666D02*
X137467380Y-120086666D01*
X137467380Y-119610476D01*
X137943571Y-118896190D02*
X137991190Y-118753333D01*
X138038809Y-118705714D01*
X138134047Y-118658095D01*
X138276904Y-118658095D01*
X138372142Y-118705714D01*
X138419761Y-118753333D01*
X138467380Y-118848571D01*
X138467380Y-119229523D01*
X137467380Y-119229523D01*
X137467380Y-118896190D01*
X137515000Y-118800952D01*
X137562619Y-118753333D01*
X137657857Y-118705714D01*
X137753095Y-118705714D01*
X137848333Y-118753333D01*
X137895952Y-118800952D01*
X137943571Y-118896190D01*
X137943571Y-119229523D01*
X137467380Y-117800952D02*
X137467380Y-117991428D01*
X137515000Y-118086666D01*
X137562619Y-118134285D01*
X137705476Y-118229523D01*
X137895952Y-118277142D01*
X138276904Y-118277142D01*
X138372142Y-118229523D01*
X138419761Y-118181904D01*
X138467380Y-118086666D01*
X138467380Y-117896190D01*
X138419761Y-117800952D01*
X138372142Y-117753333D01*
X138276904Y-117705714D01*
X138038809Y-117705714D01*
X137943571Y-117753333D01*
X137895952Y-117800952D01*
X137848333Y-117896190D01*
X137848333Y-118086666D01*
X137895952Y-118181904D01*
X137943571Y-118229523D01*
X138038809Y-118277142D01*
D11*
X149270000Y-79330000D02*
X172190000Y-79330000D01*
X148000000Y-79330000D02*
X146670000Y-79330000D01*
X149270000Y-79330000D02*
X149270000Y-76670000D01*
X146670000Y-79330000D02*
X146670000Y-78000000D01*
X172190000Y-79330000D02*
X172190000Y-76670000D01*
X149270000Y-76670000D02*
X172190000Y-76670000D01*
X170830000Y-126670000D02*
X172160000Y-126670000D01*
X146640000Y-126670000D02*
X146640000Y-129330000D01*
X169560000Y-126670000D02*
X169560000Y-129330000D01*
X169560000Y-129330000D02*
X146640000Y-129330000D01*
X172160000Y-126670000D02*
X172160000Y-128000000D01*
X169560000Y-126670000D02*
X146640000Y-126670000D01*
X124927742Y-122992500D02*
X125402258Y-122992500D01*
X124927742Y-121947500D02*
X125402258Y-121947500D01*
X132952742Y-82567500D02*
X133427258Y-82567500D01*
X132952742Y-83612500D02*
X133427258Y-83612500D01*
X136509622Y-91300000D02*
X135710378Y-91300000D01*
X136509622Y-92420000D02*
X135710378Y-92420000D01*
X174330000Y-74270000D02*
G75*
G03*
X174330000Y-74270000I-950000J0D01*
G01*
X157592742Y-87222500D02*
X158067258Y-87222500D01*
X157592742Y-86177500D02*
X158067258Y-86177500D01*
X148192742Y-119107500D02*
X148667258Y-119107500D01*
X148192742Y-120152500D02*
X148667258Y-120152500D01*
X155290000Y-116399622D02*
X155290000Y-115600378D01*
X154170000Y-116399622D02*
X154170000Y-115600378D01*
X139030000Y-123475580D02*
X139030000Y-123194420D01*
X140050000Y-123475580D02*
X140050000Y-123194420D01*
X181905000Y-123490580D02*
X181905000Y-123209420D01*
X182925000Y-123490580D02*
X182925000Y-123209420D01*
X166462258Y-119002500D02*
X165987742Y-119002500D01*
X166462258Y-120047500D02*
X165987742Y-120047500D01*
X181780000Y-89960378D02*
X181780000Y-90759622D01*
X182900000Y-89960378D02*
X182900000Y-90759622D01*
X132845000Y-119319622D02*
X132845000Y-118520378D01*
X131725000Y-119319622D02*
X131725000Y-118520378D01*
X181752258Y-86177500D02*
X181277742Y-86177500D01*
X181752258Y-87222500D02*
X181277742Y-87222500D01*
X178603748Y-81635000D02*
X179126252Y-81635000D01*
X178603748Y-83105000D02*
X179126252Y-83105000D01*
X131775000Y-126450580D02*
X131775000Y-126169420D01*
X132795000Y-126450580D02*
X132795000Y-126169420D01*
X164358748Y-81545000D02*
X164881252Y-81545000D01*
X164358748Y-83015000D02*
X164881252Y-83015000D01*
X143340000Y-89960378D02*
X143340000Y-90759622D01*
X142220000Y-89960378D02*
X142220000Y-90759622D01*
X153521252Y-82905000D02*
X152998748Y-82905000D01*
X153521252Y-81435000D02*
X152998748Y-81435000D01*
X155302742Y-119037500D02*
X155777258Y-119037500D01*
X155302742Y-120082500D02*
X155777258Y-120082500D01*
X124850000Y-126435580D02*
X124850000Y-126154420D01*
X123830000Y-126435580D02*
X123830000Y-126154420D01*
X180005000Y-97042936D02*
X180005000Y-97497064D01*
X181475000Y-97042936D02*
X181475000Y-97497064D01*
X151131252Y-124925000D02*
X150608748Y-124925000D01*
X151131252Y-123455000D02*
X150608748Y-123455000D01*
X181855000Y-116399622D02*
X181855000Y-115600378D01*
X182975000Y-116399622D02*
X182975000Y-115600378D01*
X128101252Y-79295000D02*
X127578748Y-79295000D01*
X128101252Y-77825000D02*
X127578748Y-77825000D01*
X174237258Y-120082500D02*
X173762742Y-120082500D01*
X174237258Y-119037500D02*
X173762742Y-119037500D01*
X141540000Y-105400000D02*
G75*
G03*
X141540000Y-105400000I-950000J0D01*
G01*
X175375000Y-116399622D02*
X175375000Y-115600378D01*
X174255000Y-116399622D02*
X174255000Y-115600378D01*
X138180000Y-88480000D02*
G75*
G03*
X138180000Y-88480000I-950000J0D01*
G01*
X175700000Y-89960378D02*
X175700000Y-90759622D01*
X174580000Y-89960378D02*
X174580000Y-90759622D01*
X175650000Y-82889420D02*
X175650000Y-83170580D01*
X174630000Y-82889420D02*
X174630000Y-83170580D01*
X174330000Y-123410580D02*
X174330000Y-123129420D01*
X175350000Y-123410580D02*
X175350000Y-123129420D01*
X140152742Y-120082500D02*
X140627258Y-120082500D01*
X140152742Y-119037500D02*
X140627258Y-119037500D01*
X143251252Y-124845000D02*
X142728748Y-124845000D01*
X143251252Y-123375000D02*
X142728748Y-123375000D01*
X166490000Y-116399622D02*
X166490000Y-115600378D01*
X167610000Y-116399622D02*
X167610000Y-115600378D01*
X141561252Y-78660000D02*
X141038748Y-78660000D01*
X141561252Y-77190000D02*
X141038748Y-77190000D01*
X143160000Y-131560000D02*
G75*
G03*
X143160000Y-131560000I-950000J0D01*
G01*
X171198748Y-123300000D02*
X171721252Y-123300000D01*
X171198748Y-124770000D02*
X171721252Y-124770000D01*
X136301252Y-77825000D02*
X135778748Y-77825000D01*
X136301252Y-79295000D02*
X135778748Y-79295000D01*
X123830000Y-79194420D02*
X123830000Y-79475580D01*
X124850000Y-79194420D02*
X124850000Y-79475580D01*
X160561252Y-81535000D02*
X160038748Y-81535000D01*
X160561252Y-83005000D02*
X160038748Y-83005000D01*
X181852258Y-119090000D02*
X181377742Y-119090000D01*
X181852258Y-120135000D02*
X181377742Y-120135000D01*
X136499622Y-104420000D02*
X135700378Y-104420000D01*
X136499622Y-103300000D02*
X135700378Y-103300000D01*
X128051252Y-127805000D02*
X127528748Y-127805000D01*
X128051252Y-126335000D02*
X127528748Y-126335000D01*
X123780000Y-86260378D02*
X123780000Y-87059622D01*
X124900000Y-86260378D02*
X124900000Y-87059622D01*
X142270000Y-82799420D02*
X142270000Y-83080580D01*
X143290000Y-82799420D02*
X143290000Y-83080580D01*
X124912742Y-83612500D02*
X125387258Y-83612500D01*
X124912742Y-82567500D02*
X125387258Y-82567500D01*
X166000000Y-105330000D02*
G75*
G03*
X166000000Y-105330000I-950000J0D01*
G01*
X148120000Y-123560580D02*
X148120000Y-123279420D01*
X147100000Y-123560580D02*
X147100000Y-123279420D01*
G36*
X114003943Y-72741519D02*
G01*
X115618301Y-72795694D01*
X117386221Y-72881670D01*
X119306529Y-72999530D01*
X119572000Y-73017520D01*
X120224946Y-73063537D01*
X120915556Y-73114459D01*
X121593333Y-73166410D01*
X122207778Y-73215512D01*
X122708393Y-73257887D01*
X122747000Y-73261315D01*
X124017000Y-73374658D01*
X122112000Y-73320424D01*
X121295080Y-73300589D01*
X120409053Y-73285181D01*
X119473882Y-73274091D01*
X118509527Y-73267214D01*
X117535950Y-73264442D01*
X116573113Y-73265668D01*
X115640978Y-73270784D01*
X114759507Y-73279685D01*
X113948660Y-73292261D01*
X113228401Y-73308408D01*
X112618690Y-73328016D01*
X112139489Y-73350980D01*
X111825000Y-73375624D01*
X110850440Y-73495282D01*
X110037746Y-73628061D01*
X109379780Y-73776501D01*
X108869406Y-73943140D01*
X108499487Y-74130518D01*
X108262886Y-74341175D01*
X108152467Y-74577650D01*
X108142000Y-74686046D01*
X108191925Y-74928681D01*
X108312500Y-75172744D01*
X108317099Y-75179287D01*
X108415263Y-75331411D01*
X108425725Y-75399491D01*
X108335276Y-75380860D01*
X108130705Y-75272854D01*
X107803334Y-75075602D01*
X107374626Y-74785795D01*
X107010792Y-74491039D01*
X106738285Y-74215789D01*
X106583559Y-73984500D01*
X106564892Y-73930735D01*
X106578979Y-73671427D01*
X106758382Y-73443097D01*
X107101926Y-73245825D01*
X107608435Y-73079696D01*
X108276734Y-72944791D01*
X109105647Y-72841193D01*
X110094000Y-72768984D01*
X111240618Y-72728247D01*
X112544323Y-72719065D01*
X114003943Y-72741519D01*
G37*
D12*
X114003943Y-72741519D02*
X115618301Y-72795694D01*
X117386221Y-72881670D01*
X119306529Y-72999530D01*
X119572000Y-73017520D01*
X120224946Y-73063537D01*
X120915556Y-73114459D01*
X121593333Y-73166410D01*
X122207778Y-73215512D01*
X122708393Y-73257887D01*
X122747000Y-73261315D01*
X124017000Y-73374658D01*
X122112000Y-73320424D01*
X121295080Y-73300589D01*
X120409053Y-73285181D01*
X119473882Y-73274091D01*
X118509527Y-73267214D01*
X117535950Y-73264442D01*
X116573113Y-73265668D01*
X115640978Y-73270784D01*
X114759507Y-73279685D01*
X113948660Y-73292261D01*
X113228401Y-73308408D01*
X112618690Y-73328016D01*
X112139489Y-73350980D01*
X111825000Y-73375624D01*
X110850440Y-73495282D01*
X110037746Y-73628061D01*
X109379780Y-73776501D01*
X108869406Y-73943140D01*
X108499487Y-74130518D01*
X108262886Y-74341175D01*
X108152467Y-74577650D01*
X108142000Y-74686046D01*
X108191925Y-74928681D01*
X108312500Y-75172744D01*
X108317099Y-75179287D01*
X108415263Y-75331411D01*
X108425725Y-75399491D01*
X108335276Y-75380860D01*
X108130705Y-75272854D01*
X107803334Y-75075602D01*
X107374626Y-74785795D01*
X107010792Y-74491039D01*
X106738285Y-74215789D01*
X106583559Y-73984500D01*
X106564892Y-73930735D01*
X106578979Y-73671427D01*
X106758382Y-73443097D01*
X107101926Y-73245825D01*
X107608435Y-73079696D01*
X108276734Y-72944791D01*
X109105647Y-72841193D01*
X110094000Y-72768984D01*
X111240618Y-72728247D01*
X112544323Y-72719065D01*
X114003943Y-72741519D01*
G36*
X115948417Y-74945170D02*
G01*
X115764990Y-75079484D01*
X115494708Y-75263905D01*
X115166558Y-75479617D01*
X114809526Y-75707805D01*
X114452599Y-75929652D01*
X114124765Y-76126343D01*
X113887621Y-76261346D01*
X113140408Y-76628497D01*
X112410966Y-76906895D01*
X111722950Y-77091001D01*
X111100012Y-77175281D01*
X110565807Y-77154196D01*
X110320343Y-77096326D01*
X109836869Y-76850134D01*
X109435459Y-76458062D01*
X109149551Y-75986286D01*
X109034503Y-75719277D01*
X108951827Y-75483702D01*
X108905925Y-75304830D01*
X108901199Y-75207931D01*
X108942050Y-75218275D01*
X109032879Y-75361131D01*
X109044449Y-75382857D01*
X109377640Y-75846699D01*
X109826388Y-76220787D01*
X109962334Y-76300778D01*
X110135425Y-76382305D01*
X110320015Y-76435275D01*
X110557005Y-76465233D01*
X110887296Y-76477726D01*
X111274667Y-76478744D01*
X111736913Y-76470927D01*
X112092277Y-76446371D01*
X112403059Y-76395518D01*
X112731558Y-76308812D01*
X113052667Y-76205982D01*
X113445692Y-76060641D01*
X113927735Y-75860798D01*
X114438793Y-75632368D01*
X114918863Y-75401265D01*
X114936500Y-75392369D01*
X115320340Y-75200528D01*
X115644034Y-75042885D01*
X115880927Y-74932097D01*
X116004364Y-74880821D01*
X116016000Y-74879780D01*
X115948417Y-74945170D01*
G37*
X115948417Y-74945170D02*
X115764990Y-75079484D01*
X115494708Y-75263905D01*
X115166558Y-75479617D01*
X114809526Y-75707805D01*
X114452599Y-75929652D01*
X114124765Y-76126343D01*
X113887621Y-76261346D01*
X113140408Y-76628497D01*
X112410966Y-76906895D01*
X111722950Y-77091001D01*
X111100012Y-77175281D01*
X110565807Y-77154196D01*
X110320343Y-77096326D01*
X109836869Y-76850134D01*
X109435459Y-76458062D01*
X109149551Y-75986286D01*
X109034503Y-75719277D01*
X108951827Y-75483702D01*
X108905925Y-75304830D01*
X108901199Y-75207931D01*
X108942050Y-75218275D01*
X109032879Y-75361131D01*
X109044449Y-75382857D01*
X109377640Y-75846699D01*
X109826388Y-76220787D01*
X109962334Y-76300778D01*
X110135425Y-76382305D01*
X110320015Y-76435275D01*
X110557005Y-76465233D01*
X110887296Y-76477726D01*
X111274667Y-76478744D01*
X111736913Y-76470927D01*
X112092277Y-76446371D01*
X112403059Y-76395518D01*
X112731558Y-76308812D01*
X113052667Y-76205982D01*
X113445692Y-76060641D01*
X113927735Y-75860798D01*
X114438793Y-75632368D01*
X114918863Y-75401265D01*
X114936500Y-75392369D01*
X115320340Y-75200528D01*
X115644034Y-75042885D01*
X115880927Y-74932097D01*
X116004364Y-74880821D01*
X116016000Y-74879780D01*
X115948417Y-74945170D01*
G36*
X114388000Y-73994028D02*
G01*
X114578544Y-74021081D01*
X114642975Y-74070830D01*
X114640591Y-74091691D01*
X114537889Y-74187704D01*
X114421868Y-74224579D01*
X114278364Y-74296673D01*
X114236844Y-74478579D01*
X114207513Y-74793444D01*
X114131073Y-75007149D01*
X114019432Y-75086520D01*
X114018575Y-75086524D01*
X113958213Y-75061477D01*
X113936959Y-74966275D01*
X113955037Y-74770830D01*
X114012673Y-74445050D01*
X114023775Y-74388024D01*
X113991544Y-74263599D01*
X113898463Y-74239857D01*
X113752358Y-74194672D01*
X113712284Y-74144374D01*
X113661169Y-74164384D01*
X113556145Y-74306133D01*
X113418902Y-74539841D01*
X113403930Y-74567708D01*
X113250318Y-74826663D01*
X113110268Y-75012617D01*
X113013380Y-75086450D01*
X113011376Y-75086524D01*
X112921830Y-75009772D01*
X112821428Y-74805153D01*
X112762341Y-74628993D01*
X112673659Y-74306708D01*
X112638360Y-74113359D01*
X112656067Y-74017306D01*
X112726406Y-73986911D01*
X112754720Y-73985857D01*
X112861642Y-74058800D01*
X112931125Y-74218691D01*
X112997921Y-74488855D01*
X113057097Y-74599893D01*
X113128480Y-74559771D01*
X113231897Y-74376456D01*
X113247167Y-74345691D01*
X113424694Y-73985857D01*
X114050069Y-73985857D01*
X114388000Y-73994028D01*
G37*
X114388000Y-73994028D02*
X114578544Y-74021081D01*
X114642975Y-74070830D01*
X114640591Y-74091691D01*
X114537889Y-74187704D01*
X114421868Y-74224579D01*
X114278364Y-74296673D01*
X114236844Y-74478579D01*
X114207513Y-74793444D01*
X114131073Y-75007149D01*
X114019432Y-75086520D01*
X114018575Y-75086524D01*
X113958213Y-75061477D01*
X113936959Y-74966275D01*
X113955037Y-74770830D01*
X114012673Y-74445050D01*
X114023775Y-74388024D01*
X113991544Y-74263599D01*
X113898463Y-74239857D01*
X113752358Y-74194672D01*
X113712284Y-74144374D01*
X113661169Y-74164384D01*
X113556145Y-74306133D01*
X113418902Y-74539841D01*
X113403930Y-74567708D01*
X113250318Y-74826663D01*
X113110268Y-75012617D01*
X113013380Y-75086450D01*
X113011376Y-75086524D01*
X112921830Y-75009772D01*
X112821428Y-74805153D01*
X112762341Y-74628993D01*
X112673659Y-74306708D01*
X112638360Y-74113359D01*
X112656067Y-74017306D01*
X112726406Y-73986911D01*
X112754720Y-73985857D01*
X112861642Y-74058800D01*
X112931125Y-74218691D01*
X112997921Y-74488855D01*
X113057097Y-74599893D01*
X113128480Y-74559771D01*
X113231897Y-74376456D01*
X113247167Y-74345691D01*
X113424694Y-73985857D01*
X114050069Y-73985857D01*
X114388000Y-73994028D01*
G36*
X119226616Y-73580741D02*
G01*
X119993095Y-73662556D01*
X120664321Y-73806996D01*
X120799667Y-73848846D01*
X121436279Y-74105830D01*
X121931666Y-74403832D01*
X122281375Y-74734221D01*
X122480952Y-75088368D01*
X122525944Y-75457643D01*
X122411897Y-75833417D01*
X122134357Y-76207060D01*
X122056059Y-76283358D01*
X121596706Y-76605657D01*
X121014328Y-76847602D01*
X120338434Y-77002375D01*
X119598531Y-77063162D01*
X118843722Y-77025434D01*
X118451259Y-76961476D01*
X118045114Y-76866007D01*
X117773042Y-76780583D01*
X117404244Y-76616765D01*
X117002742Y-76397442D01*
X116619164Y-76154151D01*
X116304138Y-75918427D01*
X116143000Y-75765215D01*
X115973667Y-75571358D01*
X116227667Y-75700543D01*
X116882755Y-75963269D01*
X117626130Y-76143160D01*
X118415448Y-76238436D01*
X119208366Y-76247316D01*
X119962542Y-76168020D01*
X120635632Y-75998766D01*
X120892139Y-75896727D01*
X121318518Y-75653916D01*
X121580214Y-75394082D01*
X121680009Y-75125282D01*
X121620686Y-74855574D01*
X121405027Y-74593017D01*
X121035815Y-74345667D01*
X120515831Y-74121583D01*
X120249334Y-74035207D01*
X119433203Y-73861086D01*
X118530398Y-73788600D01*
X117588694Y-73816444D01*
X116655866Y-73943310D01*
X115814889Y-74156458D01*
X115482610Y-74259810D01*
X115217131Y-74335770D01*
X115054974Y-74374239D01*
X115022758Y-74375504D01*
X115065005Y-74321307D01*
X115238575Y-74234594D01*
X115511235Y-74126701D01*
X115850752Y-74008968D01*
X116224894Y-73892733D01*
X116601428Y-73789335D01*
X116866657Y-73726891D01*
X117612297Y-73611324D01*
X118415983Y-73563136D01*
X119226616Y-73580741D01*
G37*
X119226616Y-73580741D02*
X119993095Y-73662556D01*
X120664321Y-73806996D01*
X120799667Y-73848846D01*
X121436279Y-74105830D01*
X121931666Y-74403832D01*
X122281375Y-74734221D01*
X122480952Y-75088368D01*
X122525944Y-75457643D01*
X122411897Y-75833417D01*
X122134357Y-76207060D01*
X122056059Y-76283358D01*
X121596706Y-76605657D01*
X121014328Y-76847602D01*
X120338434Y-77002375D01*
X119598531Y-77063162D01*
X118843722Y-77025434D01*
X118451259Y-76961476D01*
X118045114Y-76866007D01*
X117773042Y-76780583D01*
X117404244Y-76616765D01*
X117002742Y-76397442D01*
X116619164Y-76154151D01*
X116304138Y-75918427D01*
X116143000Y-75765215D01*
X115973667Y-75571358D01*
X116227667Y-75700543D01*
X116882755Y-75963269D01*
X117626130Y-76143160D01*
X118415448Y-76238436D01*
X119208366Y-76247316D01*
X119962542Y-76168020D01*
X120635632Y-75998766D01*
X120892139Y-75896727D01*
X121318518Y-75653916D01*
X121580214Y-75394082D01*
X121680009Y-75125282D01*
X121620686Y-74855574D01*
X121405027Y-74593017D01*
X121035815Y-74345667D01*
X120515831Y-74121583D01*
X120249334Y-74035207D01*
X119433203Y-73861086D01*
X118530398Y-73788600D01*
X117588694Y-73816444D01*
X116655866Y-73943310D01*
X115814889Y-74156458D01*
X115482610Y-74259810D01*
X115217131Y-74335770D01*
X115054974Y-74374239D01*
X115022758Y-74375504D01*
X115065005Y-74321307D01*
X115238575Y-74234594D01*
X115511235Y-74126701D01*
X115850752Y-74008968D01*
X116224894Y-73892733D01*
X116601428Y-73789335D01*
X116866657Y-73726891D01*
X117612297Y-73611324D01*
X118415983Y-73563136D01*
X119226616Y-73580741D01*
G36*
X112417135Y-74029553D02*
G01*
X112438412Y-74091691D01*
X112335971Y-74174476D01*
X112206000Y-74197524D01*
X112023919Y-74237839D01*
X111989271Y-74334284D01*
X112107901Y-74450104D01*
X112161474Y-74477453D01*
X112335609Y-74625176D01*
X112360343Y-74814347D01*
X112233769Y-75003229D01*
X112187161Y-75039390D01*
X111976083Y-75153401D01*
X111804919Y-75145127D01*
X111708320Y-75094693D01*
X111627683Y-74993304D01*
X111682926Y-74913267D01*
X111840992Y-74887522D01*
X111907646Y-74896082D01*
X112075718Y-74886488D01*
X112121882Y-74801026D01*
X112042230Y-74685277D01*
X111931328Y-74619767D01*
X111755049Y-74470797D01*
X111712433Y-74270168D01*
X111786042Y-74108790D01*
X111914838Y-74030629D01*
X112101927Y-73990348D01*
X112288847Y-73989478D01*
X112417135Y-74029553D01*
G37*
X112417135Y-74029553D02*
X112438412Y-74091691D01*
X112335971Y-74174476D01*
X112206000Y-74197524D01*
X112023919Y-74237839D01*
X111989271Y-74334284D01*
X112107901Y-74450104D01*
X112161474Y-74477453D01*
X112335609Y-74625176D01*
X112360343Y-74814347D01*
X112233769Y-75003229D01*
X112187161Y-75039390D01*
X111976083Y-75153401D01*
X111804919Y-75145127D01*
X111708320Y-75094693D01*
X111627683Y-74993304D01*
X111682926Y-74913267D01*
X111840992Y-74887522D01*
X111907646Y-74896082D01*
X112075718Y-74886488D01*
X112121882Y-74801026D01*
X112042230Y-74685277D01*
X111931328Y-74619767D01*
X111755049Y-74470797D01*
X111712433Y-74270168D01*
X111786042Y-74108790D01*
X111914838Y-74030629D01*
X112101927Y-73990348D01*
X112288847Y-73989478D01*
X112417135Y-74029553D01*
G36*
X110578617Y-74055172D02*
G01*
X110595314Y-74134024D01*
X110571556Y-74348651D01*
X110516406Y-74608328D01*
X110447108Y-74845980D01*
X110380907Y-74994533D01*
X110371082Y-75006218D01*
X110181009Y-75100858D01*
X109932331Y-75129534D01*
X109729500Y-75081789D01*
X109630859Y-74946442D01*
X109580401Y-74722669D01*
X109575347Y-74462668D01*
X109612919Y-74218639D01*
X109690335Y-74042780D01*
X109787858Y-73985857D01*
X109847526Y-74043966D01*
X109864710Y-74231950D01*
X109852373Y-74458866D01*
X109834174Y-74726646D01*
X109846265Y-74864305D01*
X109902683Y-74910272D01*
X110014740Y-74903366D01*
X110138993Y-74861140D01*
X110217221Y-74749619D01*
X110274798Y-74525470D01*
X110291741Y-74430357D01*
X110361395Y-74144012D01*
X110445765Y-73999547D01*
X110482241Y-73985857D01*
X110578617Y-74055172D01*
G37*
X110578617Y-74055172D02*
X110595314Y-74134024D01*
X110571556Y-74348651D01*
X110516406Y-74608328D01*
X110447108Y-74845980D01*
X110380907Y-74994533D01*
X110371082Y-75006218D01*
X110181009Y-75100858D01*
X109932331Y-75129534D01*
X109729500Y-75081789D01*
X109630859Y-74946442D01*
X109580401Y-74722669D01*
X109575347Y-74462668D01*
X109612919Y-74218639D01*
X109690335Y-74042780D01*
X109787858Y-73985857D01*
X109847526Y-74043966D01*
X109864710Y-74231950D01*
X109852373Y-74458866D01*
X109834174Y-74726646D01*
X109846265Y-74864305D01*
X109902683Y-74910272D01*
X110014740Y-74903366D01*
X110138993Y-74861140D01*
X110217221Y-74749619D01*
X110274798Y-74525470D01*
X110291741Y-74430357D01*
X110361395Y-74144012D01*
X110445765Y-73999547D01*
X110482241Y-73985857D01*
X110578617Y-74055172D01*
G36*
X118275022Y-70602896D02*
G01*
X118582668Y-70685175D01*
X119209242Y-70959339D01*
X119813510Y-71379132D01*
X120362345Y-71921198D01*
X120401770Y-71967832D01*
X120614432Y-72233178D01*
X120784812Y-72465082D01*
X120892543Y-72633710D01*
X120917260Y-72709227D01*
X120908479Y-72710159D01*
X120837298Y-72656844D01*
X120668916Y-72519896D01*
X120435169Y-72325336D01*
X120349559Y-72253299D01*
X119637133Y-71724730D01*
X118919895Y-71344290D01*
X118183426Y-71110695D01*
X117413309Y-71022664D01*
X116595127Y-71078914D01*
X115714463Y-71278165D01*
X114756897Y-71619133D01*
X114490314Y-71732257D01*
X114121517Y-71887230D01*
X113896415Y-71968414D01*
X113808855Y-71980880D01*
X113852683Y-71929699D01*
X114021746Y-71819942D01*
X114309890Y-71656681D01*
X114710962Y-71444987D01*
X115042334Y-71277315D01*
X115821464Y-70920460D01*
X116507658Y-70679046D01*
X117127555Y-70548617D01*
X117707797Y-70524720D01*
X118275022Y-70602896D01*
G37*
X118275022Y-70602896D02*
X118582668Y-70685175D01*
X119209242Y-70959339D01*
X119813510Y-71379132D01*
X120362345Y-71921198D01*
X120401770Y-71967832D01*
X120614432Y-72233178D01*
X120784812Y-72465082D01*
X120892543Y-72633710D01*
X120917260Y-72709227D01*
X120908479Y-72710159D01*
X120837298Y-72656844D01*
X120668916Y-72519896D01*
X120435169Y-72325336D01*
X120349559Y-72253299D01*
X119637133Y-71724730D01*
X118919895Y-71344290D01*
X118183426Y-71110695D01*
X117413309Y-71022664D01*
X116595127Y-71078914D01*
X115714463Y-71278165D01*
X114756897Y-71619133D01*
X114490314Y-71732257D01*
X114121517Y-71887230D01*
X113896415Y-71968414D01*
X113808855Y-71980880D01*
X113852683Y-71929699D01*
X114021746Y-71819942D01*
X114309890Y-71656681D01*
X114710962Y-71444987D01*
X115042334Y-71277315D01*
X115821464Y-70920460D01*
X116507658Y-70679046D01*
X117127555Y-70548617D01*
X117707797Y-70524720D01*
X118275022Y-70602896D01*
G36*
X111456219Y-73999453D02*
G01*
X111586244Y-74046525D01*
X111613334Y-74112857D01*
X111543050Y-74216366D01*
X111446916Y-74239857D01*
X111341195Y-74271032D01*
X111274996Y-74390533D01*
X111227834Y-74637322D01*
X111224342Y-74663191D01*
X111164866Y-74949032D01*
X111081182Y-75077067D01*
X111044148Y-75086524D01*
X110973253Y-75054555D01*
X110952093Y-74934075D01*
X110974936Y-74688223D01*
X110978334Y-74663191D01*
X111004950Y-74409058D01*
X110989181Y-74281364D01*
X110923926Y-74240933D01*
X110901612Y-74239857D01*
X110784343Y-74175501D01*
X110766667Y-74112857D01*
X110811986Y-74032992D01*
X110968894Y-73993984D01*
X111190000Y-73985857D01*
X111456219Y-73999453D01*
G37*
X111456219Y-73999453D02*
X111586244Y-74046525D01*
X111613334Y-74112857D01*
X111543050Y-74216366D01*
X111446916Y-74239857D01*
X111341195Y-74271032D01*
X111274996Y-74390533D01*
X111227834Y-74637322D01*
X111224342Y-74663191D01*
X111164866Y-74949032D01*
X111081182Y-75077067D01*
X111044148Y-75086524D01*
X110973253Y-75054555D01*
X110952093Y-74934075D01*
X110974936Y-74688223D01*
X110978334Y-74663191D01*
X111004950Y-74409058D01*
X110989181Y-74281364D01*
X110923926Y-74240933D01*
X110901612Y-74239857D01*
X110784343Y-74175501D01*
X110766667Y-74112857D01*
X110811986Y-74032992D01*
X110968894Y-73993984D01*
X111190000Y-73985857D01*
X111456219Y-73999453D01*
D11*
X157570000Y-89960378D02*
X157570000Y-90759622D01*
X156450000Y-89960378D02*
X156450000Y-90759622D01*
X132870000Y-79194420D02*
X132870000Y-79475580D01*
X131850000Y-79194420D02*
X131850000Y-79475580D01*
X143367742Y-86177500D02*
X143842258Y-86177500D01*
X143367742Y-87222500D02*
X143842258Y-87222500D01*
X131800000Y-86260378D02*
X131800000Y-87059622D01*
X132920000Y-86260378D02*
X132920000Y-87059622D01*
X132867742Y-123012500D02*
X133342258Y-123012500D01*
X132867742Y-121967500D02*
X133342258Y-121967500D01*
X149710000Y-82789420D02*
X149710000Y-83070580D01*
X150730000Y-82789420D02*
X150730000Y-83070580D01*
X166540000Y-123515580D02*
X166540000Y-123234420D01*
X167560000Y-123515580D02*
X167560000Y-123234420D01*
X157520000Y-82904420D02*
X157520000Y-83185580D01*
X156500000Y-82904420D02*
X156500000Y-83185580D01*
X168655000Y-89960378D02*
X168655000Y-90759622D01*
X167535000Y-89960378D02*
X167535000Y-90759622D01*
X136001252Y-127805000D02*
X135478748Y-127805000D01*
X136001252Y-126335000D02*
X135478748Y-126335000D01*
X176963748Y-128760000D02*
X177486252Y-128760000D01*
X176963748Y-127290000D02*
X177486252Y-127290000D01*
X168605000Y-82914420D02*
X168605000Y-83195580D01*
X167585000Y-82914420D02*
X167585000Y-83195580D01*
X147050000Y-116399622D02*
X147050000Y-115600378D01*
X148170000Y-116399622D02*
X148170000Y-115600378D01*
X167507258Y-86177500D02*
X167032742Y-86177500D01*
X167507258Y-87222500D02*
X167032742Y-87222500D01*
X163338748Y-123415000D02*
X163861252Y-123415000D01*
X163338748Y-124885000D02*
X163861252Y-124885000D01*
X179780000Y-100320000D02*
X179780000Y-103005000D01*
X179780000Y-103005000D02*
X181700000Y-103005000D01*
X181700000Y-103005000D02*
X181700000Y-100320000D01*
X178703748Y-123390000D02*
X179226252Y-123390000D01*
X178703748Y-124860000D02*
X179226252Y-124860000D01*
X149660000Y-89960378D02*
X149660000Y-90759622D01*
X150780000Y-89960378D02*
X150780000Y-90759622D01*
X154220000Y-123530580D02*
X154220000Y-123249420D01*
X155240000Y-123530580D02*
X155240000Y-123249420D01*
X150812742Y-87222500D02*
X151287258Y-87222500D01*
X150812742Y-86177500D02*
X151287258Y-86177500D01*
X123780000Y-119319622D02*
X123780000Y-118520378D01*
X124900000Y-119319622D02*
X124900000Y-118520378D01*
X146516252Y-82900000D02*
X145993748Y-82900000D01*
X146516252Y-81430000D02*
X145993748Y-81430000D01*
X181830000Y-83004420D02*
X181830000Y-83285580D01*
X182850000Y-83004420D02*
X182850000Y-83285580D01*
X174552258Y-86177500D02*
X174077742Y-86177500D01*
X174552258Y-87222500D02*
X174077742Y-87222500D01*
X158281252Y-124905000D02*
X157758748Y-124905000D01*
X158281252Y-123435000D02*
X157758748Y-123435000D01*
X139005000Y-116399622D02*
X139005000Y-115600378D01*
X140125000Y-116399622D02*
X140125000Y-115600378D01*
M02*
