M48
; DRILL file {KiCad (6.0.9)} date Tue 06 Dec 2022 11:57:11 PM CST
; FORMAT={-:-/ absolute / metric / decimal}
; #@! TF.CreationDate,2022-12-06T23:57:11-06:00
; #@! TF.GenerationSoftware,Kicad,Pcbnew,(6.0.9)
; #@! TF.FileFunction,Plated,1,2,PTH
FMAT,2
METRIC
; #@! TA.AperFunction,Plated,PTH,ViaDrill
T1C0.400
; #@! TA.AperFunction,Plated,PTH,ComponentDrill
T2C0.700
; #@! TA.AperFunction,Plated,PTH,ComponentDrill
T3C0.762
; #@! TA.AperFunction,Plated,PTH,ComponentDrill
T4C1.000
%
G90
G05
T1
X110.0Y-75.0
X115.0Y-75.0
X120.0Y-75.0
X120.0Y-130.0
X125.0Y-75.0
X125.0Y-115.0
X125.0Y-130.0
X126.74Y-81.72
X127.3Y-122.49
X127.49Y-80.11
X127.55Y-125.52
X130.0Y-75.0
X130.0Y-85.0
X130.0Y-120.0
X130.0Y-130.0
X135.0Y-75.0
X135.0Y-85.0
X135.0Y-95.0
X135.0Y-120.0
X135.0Y-130.0
X135.09Y-122.49
X135.83Y-83.09
X136.845Y-129.175
X137.34Y-80.85
X137.87Y-114.94
X140.0Y-75.0
X140.0Y-85.0
X140.0Y-90.0
X140.0Y-95.0
X140.0Y-110.0
X140.0Y-130.0
X140.87Y-101.85
X142.705Y-119.535
X144.85Y-117.344
X145.0Y-75.0
X145.0Y-90.0
X145.0Y-95.0
X145.0Y-105.0
X145.0Y-110.0
X145.0Y-130.0
X145.89Y-86.7
X147.782Y-93.86
X150.0Y-75.0
X150.0Y-95.0
X150.0Y-105.0
X150.0Y-110.0
X150.0Y-130.0
X151.075Y-119.535
X152.7Y-97.85
X153.24Y-86.7
X155.0Y-75.0
X155.0Y-85.0
X155.0Y-90.0
X155.0Y-95.0
X155.0Y-130.0
X156.96Y-110.02
X157.665Y-119.535
X159.59Y-115.1
X160.0Y-75.0
X160.0Y-85.0
X160.0Y-95.0
X160.0Y-105.0
X160.0Y-110.0
X160.0Y-130.0
X160.24Y-86.7
X162.49Y-82.27
X163.725Y-119.535
X165.0Y-75.0
X165.0Y-85.0
X165.0Y-90.0
X165.0Y-95.0
X165.0Y-115.0
X165.0Y-130.0
X165.11Y-86.7
X167.05Y-109.96
X170.0Y-75.0
X170.0Y-85.0
X170.0Y-90.0
X170.0Y-95.0
X170.0Y-105.0
X170.0Y-110.0
X170.0Y-115.0
X170.0Y-130.0
X171.745Y-119.535
X171.95Y-86.7
X172.69Y-99.85
X173.727Y-113.85
X175.0Y-75.0
X175.0Y-100.0
X175.0Y-105.0
X175.0Y-110.0
X175.0Y-130.0
X179.21Y-86.7
X179.56Y-117.07
X180.0Y-75.0
X180.0Y-80.0
X180.0Y-85.0
X180.0Y-90.0
X180.0Y-105.0
X180.0Y-110.0
X180.0Y-115.0
X180.0Y-130.0
X180.927Y-91.422
X181.015Y-117.815
X181.653Y-93.757
T2
X140.0Y-105.0
X165.0Y-105.0
T3
X130.21Y-91.85
X130.21Y-93.85
X130.21Y-95.85
X130.21Y-97.85
X130.21Y-99.85
X130.21Y-101.85
X130.21Y-103.85
X130.21Y-105.85
X130.21Y-107.85
X130.21Y-109.85
X130.21Y-111.85
X130.21Y-113.85
X132.21Y-91.85
X132.21Y-93.85
X132.21Y-95.85
X132.21Y-97.85
X132.21Y-99.85
X132.21Y-101.85
X132.21Y-103.85
X132.21Y-105.85
X132.21Y-107.85
X132.21Y-109.85
X132.21Y-111.85
X132.21Y-113.85
T4
X147.97Y-128.0
X148.0Y-78.0
X150.51Y-128.0
X150.54Y-78.0
X153.05Y-128.0
X153.08Y-78.0
X155.59Y-128.0
X155.62Y-78.0
X158.13Y-128.0
X158.16Y-78.0
X160.67Y-128.0
X160.7Y-78.0
X163.21Y-128.0
X163.24Y-78.0
X165.75Y-128.0
X165.78Y-78.0
X168.29Y-128.0
X168.32Y-78.0
X170.83Y-128.0
X170.86Y-78.0
T0
M30
