M48
; DRILL file {KiCad (6.0.11)} date Sat Feb 25 16:21:46 2023
; FORMAT={-:-/ absolute / inch / decimal}
; #@! TF.CreationDate,2023-02-25T16:21:46-06:00
; #@! TF.GenerationSoftware,Kicad,Pcbnew,(6.0.11)
; #@! TF.FileFunction,Plated,1,2,PTH
FMAT,2
INCH
; #@! TA.AperFunction,Plated,PTH,ViaDrill
T1C0.0157
; #@! TA.AperFunction,Plated,PTH,ComponentDrill
T2C0.0276
; #@! TA.AperFunction,Plated,PTH,ComponentDrill
T3C0.0300
; #@! TA.AperFunction,Plated,PTH,ComponentDrill
T4C0.0394
%
G90
G05
T1
X4.3307Y-2.9528
X4.5276Y-2.9528
X4.7244Y-2.9528
X4.7244Y-5.1181
X4.9213Y-2.9528
X4.9213Y-4.5276
X4.9213Y-5.1181
X4.9898Y-3.2173
X5.0118Y-4.8224
X5.0193Y-3.1539
X5.0217Y-4.9417
X5.1181Y-2.9528
X5.1181Y-3.3465
X5.1181Y-4.7244
X5.1181Y-5.1181
X5.315Y-2.9528
X5.315Y-3.3465
X5.315Y-3.7402
X5.315Y-4.7244
X5.315Y-5.1181
X5.3185Y-4.8224
X5.3476Y-3.2713
X5.3876Y-5.0856
X5.4071Y-3.1831
X5.428Y-4.5252
X5.5118Y-2.9528
X5.5118Y-3.3465
X5.5118Y-3.5433
X5.5118Y-3.7402
X5.5118Y-4.1339
X5.5118Y-4.3307
X5.5118Y-5.1181
X5.5461Y-4.0098
X5.6183Y-4.7061
X5.7028Y-4.6199
X5.7087Y-2.9528
X5.7087Y-3.5433
X5.7087Y-3.7402
X5.7087Y-4.1339
X5.7087Y-4.3307
X5.7087Y-5.1181
X5.7437Y-3.4134
X5.8182Y-3.6953
X5.9055Y-2.9528
X5.9055Y-3.7402
X5.9055Y-4.1339
X5.9055Y-4.3307
X5.9055Y-5.1181
X5.9478Y-4.7061
X6.0118Y-3.8524
X6.0331Y-3.4134
X6.1024Y-2.9528
X6.1024Y-3.3465
X6.1024Y-3.5433
X6.1024Y-3.7402
X6.1024Y-5.1181
X6.1795Y-4.3315
X6.2073Y-4.7061
X6.2831Y-4.5315
X6.2992Y-2.9528
X6.2992Y-3.3465
X6.2992Y-3.7402
X6.2992Y-4.1339
X6.2992Y-4.3307
X6.2992Y-5.1181
X6.3087Y-3.4134
X6.3972Y-3.239
X6.4459Y-4.7061
X6.4961Y-2.9528
X6.4961Y-3.3465
X6.4961Y-3.5433
X6.4961Y-3.7402
X6.4961Y-4.5276
X6.4961Y-5.1181
X6.5004Y-3.4134
X6.5768Y-4.3291
X6.6929Y-2.9528
X6.6929Y-3.3465
X6.6929Y-3.5433
X6.6929Y-3.7402
X6.6929Y-4.1339
X6.6929Y-4.3307
X6.6929Y-4.5276
X6.6929Y-5.1181
X6.7616Y-4.7061
X6.7697Y-3.4134
X6.7988Y-3.9311
X6.8397Y-4.4823
X6.8898Y-2.9528
X6.8898Y-3.937
X6.8898Y-4.1339
X6.8898Y-4.3307
X6.8898Y-5.1181
X7.0555Y-3.4134
X7.0693Y-4.6091
X7.0866Y-2.9528
X7.0866Y-3.1496
X7.0866Y-3.3465
X7.0866Y-3.5433
X7.0866Y-4.1339
X7.0866Y-4.3307
X7.0866Y-4.5276
X7.0866Y-5.1181
X7.1231Y-3.5993
X7.1266Y-4.6384
X7.1517Y-3.6912
T2
X6.4961Y-4.1339
T3
X5.1264Y-3.6161
X5.1264Y-3.6949
X5.1264Y-3.7736
X5.1264Y-3.8524
X5.1264Y-3.9311
X5.1264Y-4.0098
X5.1264Y-4.0886
X5.1264Y-4.1673
X5.1264Y-4.2461
X5.1264Y-4.3248
X5.1264Y-4.4035
X5.1264Y-4.4823
X5.2051Y-3.6161
X5.2051Y-3.6949
X5.2051Y-3.7736
X5.2051Y-3.8524
X5.2051Y-3.9311
X5.2051Y-4.0098
X5.2051Y-4.0886
X5.2051Y-4.1673
X5.2051Y-4.2461
X5.2051Y-4.3248
X5.2051Y-4.4035
X5.2051Y-4.4823
T4
X5.8256Y-5.0394
X5.8268Y-3.0709
X5.9256Y-5.0394
X5.9268Y-3.0709
X6.0256Y-5.0394
X6.0268Y-3.0709
X6.1256Y-5.0394
X6.1268Y-3.0709
X6.2256Y-5.0394
X6.2268Y-3.0709
X6.3256Y-5.0394
X6.3268Y-3.0709
X6.4256Y-5.0394
X6.4268Y-3.0709
X6.5256Y-5.0394
X6.5268Y-3.0709
X6.6256Y-5.0394
X6.6268Y-3.0709
X6.7256Y-5.0394
X6.7268Y-3.0709
T0
M30
