M48
; DRILL file {KiCad (6.0.11)} date Mon 27 Feb 2023 01:11:44 PM CST
; FORMAT={-:-/ absolute / inch / decimal}
; #@! TF.CreationDate,2023-02-27T13:11:44-06:00
; #@! TF.GenerationSoftware,Kicad,Pcbnew,(6.0.11)
; #@! TF.FileFunction,Plated,1,2,PTH
FMAT,2
INCH
; #@! TA.AperFunction,Plated,PTH,ViaDrill
T1C0.0157
; #@! TA.AperFunction,Plated,PTH,ComponentDrill
T2C0.0276
; #@! TA.AperFunction,Plated,PTH,ComponentDrill
T3C0.0300
; #@! TA.AperFunction,Plated,PTH,ComponentDrill
T4C0.0394
%
G90
G05
T1
X4.3307Y-2.9528
X4.7244Y-2.9528
X4.9213Y-3.3465
X4.9213Y-3.7402
X4.9213Y-4.1339
X4.9213Y-4.5276
X4.9213Y-4.9213
X4.9213Y-5.315
X5.0354Y-3.8189
X5.1181Y-2.9528
X5.315Y-3.3465
X5.315Y-3.7402
X5.315Y-4.9213
X5.315Y-5.315
X5.428Y-4.2083
X5.4358Y-4.3248
X5.5098Y-4.6181
X5.5118Y-2.9528
X5.5118Y-4.3307
X5.5172Y-3.5217
X5.5858Y-4.8819
X5.5984Y-3.2465
X5.6161Y-4.1673
X5.6535Y-3.2717
X5.6805Y-3.8524
X5.7087Y-3.7402
X5.7087Y-4.1339
X5.7087Y-5.315
X5.7106Y-4.6181
X5.7193Y-3.5217
X5.7906Y-4.8819
X5.8Y-3.2465
X5.8406Y-3.9606
X5.8524Y-4.5374
X5.9055Y-2.9528
X5.9055Y-4.1339
X5.9055Y-4.3307
X5.9154Y-4.6181
X5.9213Y-3.5217
X5.9941Y-4.8811
X6.002Y-3.2453
X6.0522Y-4.5541
X6.062Y-3.6939
X6.1024Y-3.7402
X6.1024Y-4.1339
X6.1024Y-4.3307
X6.1024Y-5.315
X6.1181Y-4.6181
X6.124Y-3.5217
X6.198Y-4.8811
X6.2047Y-3.2476
X6.2126Y-4.3051
X6.2992Y-2.9528
X6.3228Y-4.6181
X6.3248Y-3.5217
X6.3445Y-4.313
X6.4008Y-4.8815
X6.4067Y-3.2476
X6.4429Y-3.4705
X6.4961Y-3.7402
X6.4961Y-3.937
X6.4961Y-4.1339
X6.4961Y-4.3307
X6.4961Y-5.315
X6.4965Y-3.8244
X6.5256Y-4.6181
X6.5276Y-3.5217
X6.6047Y-4.8811
X6.6091Y-3.248
X6.6654Y-4.4823
X6.6929Y-2.9528
X6.6929Y-3.937
X6.6929Y-4.1339
X6.6929Y-4.3307
X6.7283Y-4.6181
X6.7303Y-3.5217
X6.8083Y-4.8819
X6.811Y-3.2437
X6.8583Y-4.676
X6.876Y-3.6024
X6.8898Y-3.7402
X6.8898Y-3.937
X6.8898Y-4.1339
X6.8898Y-4.3307
X6.8898Y-5.1181
X6.8898Y-5.315
X6.9325Y-3.5217
X6.9331Y-4.6181
X7.0118Y-4.8815
X7.013Y-3.2453
X7.0866Y-3.3465
X7.0866Y-4.3307
X7.0866Y-4.5276
X7.0866Y-4.7244
X7.0866Y-4.9213
T2
X7.0866Y-4.1339
T3
X5.1264Y-3.6161
X5.1264Y-3.6949
X5.1264Y-3.7736
X5.1264Y-3.8524
X5.1264Y-3.9311
X5.1264Y-4.0098
X5.1264Y-4.0886
X5.1264Y-4.1673
X5.1264Y-4.2461
X5.1264Y-4.3248
X5.1264Y-4.4035
X5.1264Y-4.4823
X5.2051Y-3.6161
X5.2051Y-3.6949
X5.2051Y-3.7736
X5.2051Y-3.8524
X5.2051Y-3.9311
X5.2051Y-4.0098
X5.2051Y-4.0886
X5.2051Y-4.1673
X5.2051Y-4.2461
X5.2051Y-4.3248
X5.2051Y-4.4035
X5.2051Y-4.4823
T4
X5.8256Y-5.0394
X5.8268Y-3.0709
X5.9256Y-5.0394
X5.9268Y-3.0709
X6.0256Y-5.0394
X6.0268Y-3.0709
X6.1256Y-5.0394
X6.1268Y-3.0709
X6.2256Y-5.0394
X6.2268Y-3.0709
X6.3256Y-5.0394
X6.3268Y-3.0709
X6.4256Y-5.0394
X6.4268Y-3.0709
X6.5256Y-5.0394
X6.5268Y-3.0709
X6.6256Y-5.0394
X6.6268Y-3.0709
X6.7256Y-5.0394
X6.7268Y-3.0709
T0
M30
