%TF.GenerationSoftware,KiCad,Pcbnew,7.0.3*%
%TF.CreationDate,2023-06-04T16:04:48-05:00*%
%TF.ProjectId,BPS-MinionShield,4250532d-4d69-46e6-996f-6e536869656c,rev?*%
%TF.SameCoordinates,Original*%
%TF.FileFunction,Legend,Top*%
%TF.FilePolarity,Positive*%
%FSLAX46Y46*%
G04 Gerber Fmt 4.6, Leading zero omitted, Abs format (unit mm)*
G04 Created by KiCad (PCBNEW 7.0.3) date 2023-06-04 16:04:48*
%MOMM*%
%LPD*%
G01*
G04 APERTURE LIST*
%ADD10C,0.150000*%
%ADD11C,0.160000*%
%ADD12C,0.120000*%
%ADD13C,0.010000*%
G04 APERTURE END LIST*
D10*
X148073866Y-76163220D02*
X148073866Y-75401316D01*
X148454819Y-75782268D02*
X147692914Y-75782268D01*
X147454819Y-74448935D02*
X147454819Y-74925125D01*
X147454819Y-74925125D02*
X147931009Y-74972744D01*
X147931009Y-74972744D02*
X147883390Y-74925125D01*
X147883390Y-74925125D02*
X147835771Y-74829887D01*
X147835771Y-74829887D02*
X147835771Y-74591792D01*
X147835771Y-74591792D02*
X147883390Y-74496554D01*
X147883390Y-74496554D02*
X147931009Y-74448935D01*
X147931009Y-74448935D02*
X148026247Y-74401316D01*
X148026247Y-74401316D02*
X148264342Y-74401316D01*
X148264342Y-74401316D02*
X148359580Y-74448935D01*
X148359580Y-74448935D02*
X148407200Y-74496554D01*
X148407200Y-74496554D02*
X148454819Y-74591792D01*
X148454819Y-74591792D02*
X148454819Y-74829887D01*
X148454819Y-74829887D02*
X148407200Y-74925125D01*
X148407200Y-74925125D02*
X148359580Y-74972744D01*
X147454819Y-74115601D02*
X148454819Y-73782268D01*
X148454819Y-73782268D02*
X147454819Y-73448935D01*
X156074819Y-75091792D02*
X156074819Y-75663220D01*
X156074819Y-75377506D02*
X155074819Y-75377506D01*
X155074819Y-75377506D02*
X155217676Y-75472744D01*
X155217676Y-75472744D02*
X155312914Y-75567982D01*
X155312914Y-75567982D02*
X155360533Y-75663220D01*
X156074819Y-74139411D02*
X156074819Y-74710839D01*
X156074819Y-74425125D02*
X155074819Y-74425125D01*
X155074819Y-74425125D02*
X155217676Y-74520363D01*
X155217676Y-74520363D02*
X155312914Y-74615601D01*
X155312914Y-74615601D02*
X155360533Y-74710839D01*
X160488152Y-130710839D02*
X161154819Y-130710839D01*
X160107200Y-130948934D02*
X160821485Y-131187029D01*
X160821485Y-131187029D02*
X160821485Y-130567982D01*
X158614819Y-75091792D02*
X158614819Y-75663220D01*
X158614819Y-75377506D02*
X157614819Y-75377506D01*
X157614819Y-75377506D02*
X157757676Y-75472744D01*
X157757676Y-75472744D02*
X157852914Y-75567982D01*
X157852914Y-75567982D02*
X157900533Y-75663220D01*
X157710057Y-74710839D02*
X157662438Y-74663220D01*
X157662438Y-74663220D02*
X157614819Y-74567982D01*
X157614819Y-74567982D02*
X157614819Y-74329887D01*
X157614819Y-74329887D02*
X157662438Y-74234649D01*
X157662438Y-74234649D02*
X157710057Y-74187030D01*
X157710057Y-74187030D02*
X157805295Y-74139411D01*
X157805295Y-74139411D02*
X157900533Y-74139411D01*
X157900533Y-74139411D02*
X158043390Y-74187030D01*
X158043390Y-74187030D02*
X158614819Y-74758458D01*
X158614819Y-74758458D02*
X158614819Y-74139411D01*
X166234819Y-75091792D02*
X166234819Y-75663220D01*
X166234819Y-75377506D02*
X165234819Y-75377506D01*
X165234819Y-75377506D02*
X165377676Y-75472744D01*
X165377676Y-75472744D02*
X165472914Y-75567982D01*
X165472914Y-75567982D02*
X165520533Y-75663220D01*
X165234819Y-74187030D02*
X165234819Y-74663220D01*
X165234819Y-74663220D02*
X165711009Y-74710839D01*
X165711009Y-74710839D02*
X165663390Y-74663220D01*
X165663390Y-74663220D02*
X165615771Y-74567982D01*
X165615771Y-74567982D02*
X165615771Y-74329887D01*
X165615771Y-74329887D02*
X165663390Y-74234649D01*
X165663390Y-74234649D02*
X165711009Y-74187030D01*
X165711009Y-74187030D02*
X165806247Y-74139411D01*
X165806247Y-74139411D02*
X166044342Y-74139411D01*
X166044342Y-74139411D02*
X166139580Y-74187030D01*
X166139580Y-74187030D02*
X166187200Y-74234649D01*
X166187200Y-74234649D02*
X166234819Y-74329887D01*
X166234819Y-74329887D02*
X166234819Y-74567982D01*
X166234819Y-74567982D02*
X166187200Y-74663220D01*
X166187200Y-74663220D02*
X166139580Y-74710839D01*
X150954819Y-75091791D02*
X150954819Y-74901315D01*
X150954819Y-74901315D02*
X150907200Y-74806077D01*
X150907200Y-74806077D02*
X150859580Y-74758458D01*
X150859580Y-74758458D02*
X150716723Y-74663220D01*
X150716723Y-74663220D02*
X150526247Y-74615601D01*
X150526247Y-74615601D02*
X150145295Y-74615601D01*
X150145295Y-74615601D02*
X150050057Y-74663220D01*
X150050057Y-74663220D02*
X150002438Y-74710839D01*
X150002438Y-74710839D02*
X149954819Y-74806077D01*
X149954819Y-74806077D02*
X149954819Y-74996553D01*
X149954819Y-74996553D02*
X150002438Y-75091791D01*
X150002438Y-75091791D02*
X150050057Y-75139410D01*
X150050057Y-75139410D02*
X150145295Y-75187029D01*
X150145295Y-75187029D02*
X150383390Y-75187029D01*
X150383390Y-75187029D02*
X150478628Y-75139410D01*
X150478628Y-75139410D02*
X150526247Y-75091791D01*
X150526247Y-75091791D02*
X150573866Y-74996553D01*
X150573866Y-74996553D02*
X150573866Y-74806077D01*
X150573866Y-74806077D02*
X150526247Y-74710839D01*
X150526247Y-74710839D02*
X150478628Y-74663220D01*
X150478628Y-74663220D02*
X150383390Y-74615601D01*
X171073866Y-132663220D02*
X171073866Y-131901316D01*
X171454819Y-132282268D02*
X170692914Y-132282268D01*
X170454819Y-130948935D02*
X170454819Y-131425125D01*
X170454819Y-131425125D02*
X170931009Y-131472744D01*
X170931009Y-131472744D02*
X170883390Y-131425125D01*
X170883390Y-131425125D02*
X170835771Y-131329887D01*
X170835771Y-131329887D02*
X170835771Y-131091792D01*
X170835771Y-131091792D02*
X170883390Y-130996554D01*
X170883390Y-130996554D02*
X170931009Y-130948935D01*
X170931009Y-130948935D02*
X171026247Y-130901316D01*
X171026247Y-130901316D02*
X171264342Y-130901316D01*
X171264342Y-130901316D02*
X171359580Y-130948935D01*
X171359580Y-130948935D02*
X171407200Y-130996554D01*
X171407200Y-130996554D02*
X171454819Y-131091792D01*
X171454819Y-131091792D02*
X171454819Y-131329887D01*
X171454819Y-131329887D02*
X171407200Y-131425125D01*
X171407200Y-131425125D02*
X171359580Y-131472744D01*
X170454819Y-130615601D02*
X171454819Y-130282268D01*
X171454819Y-130282268D02*
X170454819Y-129948935D01*
X168774819Y-75091792D02*
X168774819Y-75663220D01*
X168774819Y-75377506D02*
X167774819Y-75377506D01*
X167774819Y-75377506D02*
X167917676Y-75472744D01*
X167917676Y-75472744D02*
X168012914Y-75567982D01*
X168012914Y-75567982D02*
X168060533Y-75663220D01*
X167774819Y-74234649D02*
X167774819Y-74425125D01*
X167774819Y-74425125D02*
X167822438Y-74520363D01*
X167822438Y-74520363D02*
X167870057Y-74567982D01*
X167870057Y-74567982D02*
X168012914Y-74663220D01*
X168012914Y-74663220D02*
X168203390Y-74710839D01*
X168203390Y-74710839D02*
X168584342Y-74710839D01*
X168584342Y-74710839D02*
X168679580Y-74663220D01*
X168679580Y-74663220D02*
X168727200Y-74615601D01*
X168727200Y-74615601D02*
X168774819Y-74520363D01*
X168774819Y-74520363D02*
X168774819Y-74329887D01*
X168774819Y-74329887D02*
X168727200Y-74234649D01*
X168727200Y-74234649D02*
X168679580Y-74187030D01*
X168679580Y-74187030D02*
X168584342Y-74139411D01*
X168584342Y-74139411D02*
X168346247Y-74139411D01*
X168346247Y-74139411D02*
X168251009Y-74187030D01*
X168251009Y-74187030D02*
X168203390Y-74234649D01*
X168203390Y-74234649D02*
X168155771Y-74329887D01*
X168155771Y-74329887D02*
X168155771Y-74520363D01*
X168155771Y-74520363D02*
X168203390Y-74615601D01*
X168203390Y-74615601D02*
X168251009Y-74663220D01*
X168251009Y-74663220D02*
X168346247Y-74710839D01*
X157614819Y-130663220D02*
X157614819Y-131139410D01*
X157614819Y-131139410D02*
X158091009Y-131187029D01*
X158091009Y-131187029D02*
X158043390Y-131139410D01*
X158043390Y-131139410D02*
X157995771Y-131044172D01*
X157995771Y-131044172D02*
X157995771Y-130806077D01*
X157995771Y-130806077D02*
X158043390Y-130710839D01*
X158043390Y-130710839D02*
X158091009Y-130663220D01*
X158091009Y-130663220D02*
X158186247Y-130615601D01*
X158186247Y-130615601D02*
X158424342Y-130615601D01*
X158424342Y-130615601D02*
X158519580Y-130663220D01*
X158519580Y-130663220D02*
X158567200Y-130710839D01*
X158567200Y-130710839D02*
X158614819Y-130806077D01*
X158614819Y-130806077D02*
X158614819Y-131044172D01*
X158614819Y-131044172D02*
X158567200Y-131139410D01*
X158567200Y-131139410D02*
X158519580Y-131187029D01*
X162694819Y-131234648D02*
X162694819Y-130615601D01*
X162694819Y-130615601D02*
X163075771Y-130948934D01*
X163075771Y-130948934D02*
X163075771Y-130806077D01*
X163075771Y-130806077D02*
X163123390Y-130710839D01*
X163123390Y-130710839D02*
X163171009Y-130663220D01*
X163171009Y-130663220D02*
X163266247Y-130615601D01*
X163266247Y-130615601D02*
X163504342Y-130615601D01*
X163504342Y-130615601D02*
X163599580Y-130663220D01*
X163599580Y-130663220D02*
X163647200Y-130710839D01*
X163647200Y-130710839D02*
X163694819Y-130806077D01*
X163694819Y-130806077D02*
X163694819Y-131091791D01*
X163694819Y-131091791D02*
X163647200Y-131187029D01*
X163647200Y-131187029D02*
X163599580Y-131234648D01*
X170362438Y-75139411D02*
X170314819Y-75234649D01*
X170314819Y-75234649D02*
X170314819Y-75377506D01*
X170314819Y-75377506D02*
X170362438Y-75520363D01*
X170362438Y-75520363D02*
X170457676Y-75615601D01*
X170457676Y-75615601D02*
X170552914Y-75663220D01*
X170552914Y-75663220D02*
X170743390Y-75710839D01*
X170743390Y-75710839D02*
X170886247Y-75710839D01*
X170886247Y-75710839D02*
X171076723Y-75663220D01*
X171076723Y-75663220D02*
X171171961Y-75615601D01*
X171171961Y-75615601D02*
X171267200Y-75520363D01*
X171267200Y-75520363D02*
X171314819Y-75377506D01*
X171314819Y-75377506D02*
X171314819Y-75282268D01*
X171314819Y-75282268D02*
X171267200Y-75139411D01*
X171267200Y-75139411D02*
X171219580Y-75091792D01*
X171219580Y-75091792D02*
X170886247Y-75091792D01*
X170886247Y-75091792D02*
X170886247Y-75282268D01*
X171314819Y-74663220D02*
X170314819Y-74663220D01*
X170314819Y-74663220D02*
X171314819Y-74091792D01*
X171314819Y-74091792D02*
X170314819Y-74091792D01*
X171314819Y-73615601D02*
X170314819Y-73615601D01*
X170314819Y-73615601D02*
X170314819Y-73377506D01*
X170314819Y-73377506D02*
X170362438Y-73234649D01*
X170362438Y-73234649D02*
X170457676Y-73139411D01*
X170457676Y-73139411D02*
X170552914Y-73091792D01*
X170552914Y-73091792D02*
X170743390Y-73044173D01*
X170743390Y-73044173D02*
X170886247Y-73044173D01*
X170886247Y-73044173D02*
X171076723Y-73091792D01*
X171076723Y-73091792D02*
X171171961Y-73139411D01*
X171171961Y-73139411D02*
X171267200Y-73234649D01*
X171267200Y-73234649D02*
X171314819Y-73377506D01*
X171314819Y-73377506D02*
X171314819Y-73615601D01*
X109789160Y-129844819D02*
X109789160Y-130654342D01*
X109789160Y-130654342D02*
X109836779Y-130749580D01*
X109836779Y-130749580D02*
X109884398Y-130797200D01*
X109884398Y-130797200D02*
X109979636Y-130844819D01*
X109979636Y-130844819D02*
X110170112Y-130844819D01*
X110170112Y-130844819D02*
X110265350Y-130797200D01*
X110265350Y-130797200D02*
X110312969Y-130749580D01*
X110312969Y-130749580D02*
X110360588Y-130654342D01*
X110360588Y-130654342D02*
X110360588Y-129844819D01*
X110693922Y-129844819D02*
X111265350Y-129844819D01*
X110979636Y-130844819D02*
X110979636Y-129844819D01*
X111551065Y-130797200D02*
X111693922Y-130844819D01*
X111693922Y-130844819D02*
X111932017Y-130844819D01*
X111932017Y-130844819D02*
X112027255Y-130797200D01*
X112027255Y-130797200D02*
X112074874Y-130749580D01*
X112074874Y-130749580D02*
X112122493Y-130654342D01*
X112122493Y-130654342D02*
X112122493Y-130559104D01*
X112122493Y-130559104D02*
X112074874Y-130463866D01*
X112074874Y-130463866D02*
X112027255Y-130416247D01*
X112027255Y-130416247D02*
X111932017Y-130368628D01*
X111932017Y-130368628D02*
X111741541Y-130321009D01*
X111741541Y-130321009D02*
X111646303Y-130273390D01*
X111646303Y-130273390D02*
X111598684Y-130225771D01*
X111598684Y-130225771D02*
X111551065Y-130130533D01*
X111551065Y-130130533D02*
X111551065Y-130035295D01*
X111551065Y-130035295D02*
X111598684Y-129940057D01*
X111598684Y-129940057D02*
X111646303Y-129892438D01*
X111646303Y-129892438D02*
X111741541Y-129844819D01*
X111741541Y-129844819D02*
X111979636Y-129844819D01*
X111979636Y-129844819D02*
X112122493Y-129892438D01*
X112408208Y-129844819D02*
X112741541Y-130844819D01*
X112741541Y-130844819D02*
X113074874Y-129844819D01*
X113265351Y-129844819D02*
X113836779Y-129844819D01*
X113551065Y-130844819D02*
X113551065Y-129844819D01*
X114932018Y-130463866D02*
X115693923Y-130463866D01*
X117265351Y-130321009D02*
X117408208Y-130368628D01*
X117408208Y-130368628D02*
X117455827Y-130416247D01*
X117455827Y-130416247D02*
X117503446Y-130511485D01*
X117503446Y-130511485D02*
X117503446Y-130654342D01*
X117503446Y-130654342D02*
X117455827Y-130749580D01*
X117455827Y-130749580D02*
X117408208Y-130797200D01*
X117408208Y-130797200D02*
X117312970Y-130844819D01*
X117312970Y-130844819D02*
X116932018Y-130844819D01*
X116932018Y-130844819D02*
X116932018Y-129844819D01*
X116932018Y-129844819D02*
X117265351Y-129844819D01*
X117265351Y-129844819D02*
X117360589Y-129892438D01*
X117360589Y-129892438D02*
X117408208Y-129940057D01*
X117408208Y-129940057D02*
X117455827Y-130035295D01*
X117455827Y-130035295D02*
X117455827Y-130130533D01*
X117455827Y-130130533D02*
X117408208Y-130225771D01*
X117408208Y-130225771D02*
X117360589Y-130273390D01*
X117360589Y-130273390D02*
X117265351Y-130321009D01*
X117265351Y-130321009D02*
X116932018Y-130321009D01*
X117932018Y-130844819D02*
X117932018Y-129844819D01*
X117932018Y-129844819D02*
X118312970Y-129844819D01*
X118312970Y-129844819D02*
X118408208Y-129892438D01*
X118408208Y-129892438D02*
X118455827Y-129940057D01*
X118455827Y-129940057D02*
X118503446Y-130035295D01*
X118503446Y-130035295D02*
X118503446Y-130178152D01*
X118503446Y-130178152D02*
X118455827Y-130273390D01*
X118455827Y-130273390D02*
X118408208Y-130321009D01*
X118408208Y-130321009D02*
X118312970Y-130368628D01*
X118312970Y-130368628D02*
X117932018Y-130368628D01*
X118884399Y-130797200D02*
X119027256Y-130844819D01*
X119027256Y-130844819D02*
X119265351Y-130844819D01*
X119265351Y-130844819D02*
X119360589Y-130797200D01*
X119360589Y-130797200D02*
X119408208Y-130749580D01*
X119408208Y-130749580D02*
X119455827Y-130654342D01*
X119455827Y-130654342D02*
X119455827Y-130559104D01*
X119455827Y-130559104D02*
X119408208Y-130463866D01*
X119408208Y-130463866D02*
X119360589Y-130416247D01*
X119360589Y-130416247D02*
X119265351Y-130368628D01*
X119265351Y-130368628D02*
X119074875Y-130321009D01*
X119074875Y-130321009D02*
X118979637Y-130273390D01*
X118979637Y-130273390D02*
X118932018Y-130225771D01*
X118932018Y-130225771D02*
X118884399Y-130130533D01*
X118884399Y-130130533D02*
X118884399Y-130035295D01*
X118884399Y-130035295D02*
X118932018Y-129940057D01*
X118932018Y-129940057D02*
X118979637Y-129892438D01*
X118979637Y-129892438D02*
X119074875Y-129844819D01*
X119074875Y-129844819D02*
X119312970Y-129844819D01*
X119312970Y-129844819D02*
X119455827Y-129892438D01*
X106336779Y-132454819D02*
X106336779Y-131454819D01*
X106336779Y-131454819D02*
X106670112Y-132169104D01*
X106670112Y-132169104D02*
X107003445Y-131454819D01*
X107003445Y-131454819D02*
X107003445Y-132454819D01*
X107479636Y-132454819D02*
X107479636Y-131788152D01*
X107479636Y-131454819D02*
X107432017Y-131502438D01*
X107432017Y-131502438D02*
X107479636Y-131550057D01*
X107479636Y-131550057D02*
X107527255Y-131502438D01*
X107527255Y-131502438D02*
X107479636Y-131454819D01*
X107479636Y-131454819D02*
X107479636Y-131550057D01*
X107955826Y-131788152D02*
X107955826Y-132454819D01*
X107955826Y-131883390D02*
X108003445Y-131835771D01*
X108003445Y-131835771D02*
X108098683Y-131788152D01*
X108098683Y-131788152D02*
X108241540Y-131788152D01*
X108241540Y-131788152D02*
X108336778Y-131835771D01*
X108336778Y-131835771D02*
X108384397Y-131931009D01*
X108384397Y-131931009D02*
X108384397Y-132454819D01*
X108860588Y-132454819D02*
X108860588Y-131788152D01*
X108860588Y-131454819D02*
X108812969Y-131502438D01*
X108812969Y-131502438D02*
X108860588Y-131550057D01*
X108860588Y-131550057D02*
X108908207Y-131502438D01*
X108908207Y-131502438D02*
X108860588Y-131454819D01*
X108860588Y-131454819D02*
X108860588Y-131550057D01*
X109479635Y-132454819D02*
X109384397Y-132407200D01*
X109384397Y-132407200D02*
X109336778Y-132359580D01*
X109336778Y-132359580D02*
X109289159Y-132264342D01*
X109289159Y-132264342D02*
X109289159Y-131978628D01*
X109289159Y-131978628D02*
X109336778Y-131883390D01*
X109336778Y-131883390D02*
X109384397Y-131835771D01*
X109384397Y-131835771D02*
X109479635Y-131788152D01*
X109479635Y-131788152D02*
X109622492Y-131788152D01*
X109622492Y-131788152D02*
X109717730Y-131835771D01*
X109717730Y-131835771D02*
X109765349Y-131883390D01*
X109765349Y-131883390D02*
X109812968Y-131978628D01*
X109812968Y-131978628D02*
X109812968Y-132264342D01*
X109812968Y-132264342D02*
X109765349Y-132359580D01*
X109765349Y-132359580D02*
X109717730Y-132407200D01*
X109717730Y-132407200D02*
X109622492Y-132454819D01*
X109622492Y-132454819D02*
X109479635Y-132454819D01*
X110241540Y-131788152D02*
X110241540Y-132454819D01*
X110241540Y-131883390D02*
X110289159Y-131835771D01*
X110289159Y-131835771D02*
X110384397Y-131788152D01*
X110384397Y-131788152D02*
X110527254Y-131788152D01*
X110527254Y-131788152D02*
X110622492Y-131835771D01*
X110622492Y-131835771D02*
X110670111Y-131931009D01*
X110670111Y-131931009D02*
X110670111Y-132454819D01*
X112479635Y-132359580D02*
X112432016Y-132407200D01*
X112432016Y-132407200D02*
X112289159Y-132454819D01*
X112289159Y-132454819D02*
X112193921Y-132454819D01*
X112193921Y-132454819D02*
X112051064Y-132407200D01*
X112051064Y-132407200D02*
X111955826Y-132311961D01*
X111955826Y-132311961D02*
X111908207Y-132216723D01*
X111908207Y-132216723D02*
X111860588Y-132026247D01*
X111860588Y-132026247D02*
X111860588Y-131883390D01*
X111860588Y-131883390D02*
X111908207Y-131692914D01*
X111908207Y-131692914D02*
X111955826Y-131597676D01*
X111955826Y-131597676D02*
X112051064Y-131502438D01*
X112051064Y-131502438D02*
X112193921Y-131454819D01*
X112193921Y-131454819D02*
X112289159Y-131454819D01*
X112289159Y-131454819D02*
X112432016Y-131502438D01*
X112432016Y-131502438D02*
X112479635Y-131550057D01*
X113051064Y-132454819D02*
X112955826Y-132407200D01*
X112955826Y-132407200D02*
X112908207Y-132359580D01*
X112908207Y-132359580D02*
X112860588Y-132264342D01*
X112860588Y-132264342D02*
X112860588Y-131978628D01*
X112860588Y-131978628D02*
X112908207Y-131883390D01*
X112908207Y-131883390D02*
X112955826Y-131835771D01*
X112955826Y-131835771D02*
X113051064Y-131788152D01*
X113051064Y-131788152D02*
X113193921Y-131788152D01*
X113193921Y-131788152D02*
X113289159Y-131835771D01*
X113289159Y-131835771D02*
X113336778Y-131883390D01*
X113336778Y-131883390D02*
X113384397Y-131978628D01*
X113384397Y-131978628D02*
X113384397Y-132264342D01*
X113384397Y-132264342D02*
X113336778Y-132359580D01*
X113336778Y-132359580D02*
X113289159Y-132407200D01*
X113289159Y-132407200D02*
X113193921Y-132454819D01*
X113193921Y-132454819D02*
X113051064Y-132454819D01*
X113812969Y-131788152D02*
X113812969Y-132454819D01*
X113812969Y-131883390D02*
X113860588Y-131835771D01*
X113860588Y-131835771D02*
X113955826Y-131788152D01*
X113955826Y-131788152D02*
X114098683Y-131788152D01*
X114098683Y-131788152D02*
X114193921Y-131835771D01*
X114193921Y-131835771D02*
X114241540Y-131931009D01*
X114241540Y-131931009D02*
X114241540Y-132454819D01*
X114717731Y-131788152D02*
X114717731Y-132454819D01*
X114717731Y-131883390D02*
X114765350Y-131835771D01*
X114765350Y-131835771D02*
X114860588Y-131788152D01*
X114860588Y-131788152D02*
X115003445Y-131788152D01*
X115003445Y-131788152D02*
X115098683Y-131835771D01*
X115098683Y-131835771D02*
X115146302Y-131931009D01*
X115146302Y-131931009D02*
X115146302Y-132454819D01*
X116003445Y-132407200D02*
X115908207Y-132454819D01*
X115908207Y-132454819D02*
X115717731Y-132454819D01*
X115717731Y-132454819D02*
X115622493Y-132407200D01*
X115622493Y-132407200D02*
X115574874Y-132311961D01*
X115574874Y-132311961D02*
X115574874Y-131931009D01*
X115574874Y-131931009D02*
X115622493Y-131835771D01*
X115622493Y-131835771D02*
X115717731Y-131788152D01*
X115717731Y-131788152D02*
X115908207Y-131788152D01*
X115908207Y-131788152D02*
X116003445Y-131835771D01*
X116003445Y-131835771D02*
X116051064Y-131931009D01*
X116051064Y-131931009D02*
X116051064Y-132026247D01*
X116051064Y-132026247D02*
X115574874Y-132121485D01*
X116908207Y-132407200D02*
X116812969Y-132454819D01*
X116812969Y-132454819D02*
X116622493Y-132454819D01*
X116622493Y-132454819D02*
X116527255Y-132407200D01*
X116527255Y-132407200D02*
X116479636Y-132359580D01*
X116479636Y-132359580D02*
X116432017Y-132264342D01*
X116432017Y-132264342D02*
X116432017Y-131978628D01*
X116432017Y-131978628D02*
X116479636Y-131883390D01*
X116479636Y-131883390D02*
X116527255Y-131835771D01*
X116527255Y-131835771D02*
X116622493Y-131788152D01*
X116622493Y-131788152D02*
X116812969Y-131788152D01*
X116812969Y-131788152D02*
X116908207Y-131835771D01*
X117193922Y-131788152D02*
X117574874Y-131788152D01*
X117336779Y-131454819D02*
X117336779Y-132311961D01*
X117336779Y-132311961D02*
X117384398Y-132407200D01*
X117384398Y-132407200D02*
X117479636Y-132454819D01*
X117479636Y-132454819D02*
X117574874Y-132454819D01*
X118051065Y-132454819D02*
X117955827Y-132407200D01*
X117955827Y-132407200D02*
X117908208Y-132359580D01*
X117908208Y-132359580D02*
X117860589Y-132264342D01*
X117860589Y-132264342D02*
X117860589Y-131978628D01*
X117860589Y-131978628D02*
X117908208Y-131883390D01*
X117908208Y-131883390D02*
X117955827Y-131835771D01*
X117955827Y-131835771D02*
X118051065Y-131788152D01*
X118051065Y-131788152D02*
X118193922Y-131788152D01*
X118193922Y-131788152D02*
X118289160Y-131835771D01*
X118289160Y-131835771D02*
X118336779Y-131883390D01*
X118336779Y-131883390D02*
X118384398Y-131978628D01*
X118384398Y-131978628D02*
X118384398Y-132264342D01*
X118384398Y-132264342D02*
X118336779Y-132359580D01*
X118336779Y-132359580D02*
X118289160Y-132407200D01*
X118289160Y-132407200D02*
X118193922Y-132454819D01*
X118193922Y-132454819D02*
X118051065Y-132454819D01*
X118812970Y-132454819D02*
X118812970Y-131788152D01*
X118812970Y-131978628D02*
X118860589Y-131883390D01*
X118860589Y-131883390D02*
X118908208Y-131835771D01*
X118908208Y-131835771D02*
X119003446Y-131788152D01*
X119003446Y-131788152D02*
X119098684Y-131788152D01*
X120098685Y-131788152D02*
X120336780Y-132454819D01*
X120336780Y-132454819D02*
X120574875Y-131788152D01*
X120908209Y-131550057D02*
X120955828Y-131502438D01*
X120955828Y-131502438D02*
X121051066Y-131454819D01*
X121051066Y-131454819D02*
X121289161Y-131454819D01*
X121289161Y-131454819D02*
X121384399Y-131502438D01*
X121384399Y-131502438D02*
X121432018Y-131550057D01*
X121432018Y-131550057D02*
X121479637Y-131645295D01*
X121479637Y-131645295D02*
X121479637Y-131740533D01*
X121479637Y-131740533D02*
X121432018Y-131883390D01*
X121432018Y-131883390D02*
X120860590Y-132454819D01*
X120860590Y-132454819D02*
X121479637Y-132454819D01*
X121908209Y-132359580D02*
X121955828Y-132407200D01*
X121955828Y-132407200D02*
X121908209Y-132454819D01*
X121908209Y-132454819D02*
X121860590Y-132407200D01*
X121860590Y-132407200D02*
X121908209Y-132359580D01*
X121908209Y-132359580D02*
X121908209Y-132454819D01*
X122336780Y-131550057D02*
X122384399Y-131502438D01*
X122384399Y-131502438D02*
X122479637Y-131454819D01*
X122479637Y-131454819D02*
X122717732Y-131454819D01*
X122717732Y-131454819D02*
X122812970Y-131502438D01*
X122812970Y-131502438D02*
X122860589Y-131550057D01*
X122860589Y-131550057D02*
X122908208Y-131645295D01*
X122908208Y-131645295D02*
X122908208Y-131740533D01*
X122908208Y-131740533D02*
X122860589Y-131883390D01*
X122860589Y-131883390D02*
X122289161Y-132454819D01*
X122289161Y-132454819D02*
X122908208Y-132454819D01*
X109860588Y-133064819D02*
X110051064Y-133064819D01*
X110051064Y-133064819D02*
X110146302Y-133112438D01*
X110146302Y-133112438D02*
X110241540Y-133207676D01*
X110241540Y-133207676D02*
X110289159Y-133398152D01*
X110289159Y-133398152D02*
X110289159Y-133731485D01*
X110289159Y-133731485D02*
X110241540Y-133921961D01*
X110241540Y-133921961D02*
X110146302Y-134017200D01*
X110146302Y-134017200D02*
X110051064Y-134064819D01*
X110051064Y-134064819D02*
X109860588Y-134064819D01*
X109860588Y-134064819D02*
X109765350Y-134017200D01*
X109765350Y-134017200D02*
X109670112Y-133921961D01*
X109670112Y-133921961D02*
X109622493Y-133731485D01*
X109622493Y-133731485D02*
X109622493Y-133398152D01*
X109622493Y-133398152D02*
X109670112Y-133207676D01*
X109670112Y-133207676D02*
X109765350Y-133112438D01*
X109765350Y-133112438D02*
X109860588Y-133064819D01*
X111146302Y-134017200D02*
X111051064Y-134064819D01*
X111051064Y-134064819D02*
X110860588Y-134064819D01*
X110860588Y-134064819D02*
X110765350Y-134017200D01*
X110765350Y-134017200D02*
X110717731Y-133969580D01*
X110717731Y-133969580D02*
X110670112Y-133874342D01*
X110670112Y-133874342D02*
X110670112Y-133588628D01*
X110670112Y-133588628D02*
X110717731Y-133493390D01*
X110717731Y-133493390D02*
X110765350Y-133445771D01*
X110765350Y-133445771D02*
X110860588Y-133398152D01*
X110860588Y-133398152D02*
X111051064Y-133398152D01*
X111051064Y-133398152D02*
X111146302Y-133445771D01*
X111432017Y-133398152D02*
X111812969Y-133398152D01*
X111574874Y-133064819D02*
X111574874Y-133921961D01*
X111574874Y-133921961D02*
X111622493Y-134017200D01*
X111622493Y-134017200D02*
X111717731Y-134064819D01*
X111717731Y-134064819D02*
X111812969Y-134064819D01*
X112289160Y-134064819D02*
X112193922Y-134017200D01*
X112193922Y-134017200D02*
X112146303Y-133969580D01*
X112146303Y-133969580D02*
X112098684Y-133874342D01*
X112098684Y-133874342D02*
X112098684Y-133588628D01*
X112098684Y-133588628D02*
X112146303Y-133493390D01*
X112146303Y-133493390D02*
X112193922Y-133445771D01*
X112193922Y-133445771D02*
X112289160Y-133398152D01*
X112289160Y-133398152D02*
X112432017Y-133398152D01*
X112432017Y-133398152D02*
X112527255Y-133445771D01*
X112527255Y-133445771D02*
X112574874Y-133493390D01*
X112574874Y-133493390D02*
X112622493Y-133588628D01*
X112622493Y-133588628D02*
X112622493Y-133874342D01*
X112622493Y-133874342D02*
X112574874Y-133969580D01*
X112574874Y-133969580D02*
X112527255Y-134017200D01*
X112527255Y-134017200D02*
X112432017Y-134064819D01*
X112432017Y-134064819D02*
X112289160Y-134064819D01*
X113051065Y-134064819D02*
X113051065Y-133064819D01*
X113051065Y-133445771D02*
X113146303Y-133398152D01*
X113146303Y-133398152D02*
X113336779Y-133398152D01*
X113336779Y-133398152D02*
X113432017Y-133445771D01*
X113432017Y-133445771D02*
X113479636Y-133493390D01*
X113479636Y-133493390D02*
X113527255Y-133588628D01*
X113527255Y-133588628D02*
X113527255Y-133874342D01*
X113527255Y-133874342D02*
X113479636Y-133969580D01*
X113479636Y-133969580D02*
X113432017Y-134017200D01*
X113432017Y-134017200D02*
X113336779Y-134064819D01*
X113336779Y-134064819D02*
X113146303Y-134064819D01*
X113146303Y-134064819D02*
X113051065Y-134017200D01*
X114336779Y-134017200D02*
X114241541Y-134064819D01*
X114241541Y-134064819D02*
X114051065Y-134064819D01*
X114051065Y-134064819D02*
X113955827Y-134017200D01*
X113955827Y-134017200D02*
X113908208Y-133921961D01*
X113908208Y-133921961D02*
X113908208Y-133541009D01*
X113908208Y-133541009D02*
X113955827Y-133445771D01*
X113955827Y-133445771D02*
X114051065Y-133398152D01*
X114051065Y-133398152D02*
X114241541Y-133398152D01*
X114241541Y-133398152D02*
X114336779Y-133445771D01*
X114336779Y-133445771D02*
X114384398Y-133541009D01*
X114384398Y-133541009D02*
X114384398Y-133636247D01*
X114384398Y-133636247D02*
X113908208Y-133731485D01*
X114812970Y-134064819D02*
X114812970Y-133398152D01*
X114812970Y-133588628D02*
X114860589Y-133493390D01*
X114860589Y-133493390D02*
X114908208Y-133445771D01*
X114908208Y-133445771D02*
X115003446Y-133398152D01*
X115003446Y-133398152D02*
X115098684Y-133398152D01*
X116146304Y-133160057D02*
X116193923Y-133112438D01*
X116193923Y-133112438D02*
X116289161Y-133064819D01*
X116289161Y-133064819D02*
X116527256Y-133064819D01*
X116527256Y-133064819D02*
X116622494Y-133112438D01*
X116622494Y-133112438D02*
X116670113Y-133160057D01*
X116670113Y-133160057D02*
X116717732Y-133255295D01*
X116717732Y-133255295D02*
X116717732Y-133350533D01*
X116717732Y-133350533D02*
X116670113Y-133493390D01*
X116670113Y-133493390D02*
X116098685Y-134064819D01*
X116098685Y-134064819D02*
X116717732Y-134064819D01*
X117336780Y-133064819D02*
X117432018Y-133064819D01*
X117432018Y-133064819D02*
X117527256Y-133112438D01*
X117527256Y-133112438D02*
X117574875Y-133160057D01*
X117574875Y-133160057D02*
X117622494Y-133255295D01*
X117622494Y-133255295D02*
X117670113Y-133445771D01*
X117670113Y-133445771D02*
X117670113Y-133683866D01*
X117670113Y-133683866D02*
X117622494Y-133874342D01*
X117622494Y-133874342D02*
X117574875Y-133969580D01*
X117574875Y-133969580D02*
X117527256Y-134017200D01*
X117527256Y-134017200D02*
X117432018Y-134064819D01*
X117432018Y-134064819D02*
X117336780Y-134064819D01*
X117336780Y-134064819D02*
X117241542Y-134017200D01*
X117241542Y-134017200D02*
X117193923Y-133969580D01*
X117193923Y-133969580D02*
X117146304Y-133874342D01*
X117146304Y-133874342D02*
X117098685Y-133683866D01*
X117098685Y-133683866D02*
X117098685Y-133445771D01*
X117098685Y-133445771D02*
X117146304Y-133255295D01*
X117146304Y-133255295D02*
X117193923Y-133160057D01*
X117193923Y-133160057D02*
X117241542Y-133112438D01*
X117241542Y-133112438D02*
X117336780Y-133064819D01*
X118051066Y-133160057D02*
X118098685Y-133112438D01*
X118098685Y-133112438D02*
X118193923Y-133064819D01*
X118193923Y-133064819D02*
X118432018Y-133064819D01*
X118432018Y-133064819D02*
X118527256Y-133112438D01*
X118527256Y-133112438D02*
X118574875Y-133160057D01*
X118574875Y-133160057D02*
X118622494Y-133255295D01*
X118622494Y-133255295D02*
X118622494Y-133350533D01*
X118622494Y-133350533D02*
X118574875Y-133493390D01*
X118574875Y-133493390D02*
X118003447Y-134064819D01*
X118003447Y-134064819D02*
X118622494Y-134064819D01*
X119003447Y-133160057D02*
X119051066Y-133112438D01*
X119051066Y-133112438D02*
X119146304Y-133064819D01*
X119146304Y-133064819D02*
X119384399Y-133064819D01*
X119384399Y-133064819D02*
X119479637Y-133112438D01*
X119479637Y-133112438D02*
X119527256Y-133160057D01*
X119527256Y-133160057D02*
X119574875Y-133255295D01*
X119574875Y-133255295D02*
X119574875Y-133350533D01*
X119574875Y-133350533D02*
X119527256Y-133493390D01*
X119527256Y-133493390D02*
X118955828Y-134064819D01*
X118955828Y-134064819D02*
X119574875Y-134064819D01*
X155074819Y-130710839D02*
X155074819Y-130901315D01*
X155074819Y-130901315D02*
X155122438Y-130996553D01*
X155122438Y-130996553D02*
X155170057Y-131044172D01*
X155170057Y-131044172D02*
X155312914Y-131139410D01*
X155312914Y-131139410D02*
X155503390Y-131187029D01*
X155503390Y-131187029D02*
X155884342Y-131187029D01*
X155884342Y-131187029D02*
X155979580Y-131139410D01*
X155979580Y-131139410D02*
X156027200Y-131091791D01*
X156027200Y-131091791D02*
X156074819Y-130996553D01*
X156074819Y-130996553D02*
X156074819Y-130806077D01*
X156074819Y-130806077D02*
X156027200Y-130710839D01*
X156027200Y-130710839D02*
X155979580Y-130663220D01*
X155979580Y-130663220D02*
X155884342Y-130615601D01*
X155884342Y-130615601D02*
X155646247Y-130615601D01*
X155646247Y-130615601D02*
X155551009Y-130663220D01*
X155551009Y-130663220D02*
X155503390Y-130710839D01*
X155503390Y-130710839D02*
X155455771Y-130806077D01*
X155455771Y-130806077D02*
X155455771Y-130996553D01*
X155455771Y-130996553D02*
X155503390Y-131091791D01*
X155503390Y-131091791D02*
X155551009Y-131139410D01*
X155551009Y-131139410D02*
X155646247Y-131187029D01*
X153534819Y-75091792D02*
X153534819Y-75663220D01*
X153534819Y-75377506D02*
X152534819Y-75377506D01*
X152534819Y-75377506D02*
X152677676Y-75472744D01*
X152677676Y-75472744D02*
X152772914Y-75567982D01*
X152772914Y-75567982D02*
X152820533Y-75663220D01*
X152534819Y-74472744D02*
X152534819Y-74377506D01*
X152534819Y-74377506D02*
X152582438Y-74282268D01*
X152582438Y-74282268D02*
X152630057Y-74234649D01*
X152630057Y-74234649D02*
X152725295Y-74187030D01*
X152725295Y-74187030D02*
X152915771Y-74139411D01*
X152915771Y-74139411D02*
X153153866Y-74139411D01*
X153153866Y-74139411D02*
X153344342Y-74187030D01*
X153344342Y-74187030D02*
X153439580Y-74234649D01*
X153439580Y-74234649D02*
X153487200Y-74282268D01*
X153487200Y-74282268D02*
X153534819Y-74377506D01*
X153534819Y-74377506D02*
X153534819Y-74472744D01*
X153534819Y-74472744D02*
X153487200Y-74567982D01*
X153487200Y-74567982D02*
X153439580Y-74615601D01*
X153439580Y-74615601D02*
X153344342Y-74663220D01*
X153344342Y-74663220D02*
X153153866Y-74710839D01*
X153153866Y-74710839D02*
X152915771Y-74710839D01*
X152915771Y-74710839D02*
X152725295Y-74663220D01*
X152725295Y-74663220D02*
X152630057Y-74615601D01*
X152630057Y-74615601D02*
X152582438Y-74567982D01*
X152582438Y-74567982D02*
X152534819Y-74472744D01*
X147502438Y-132187030D02*
X147454819Y-132282268D01*
X147454819Y-132282268D02*
X147454819Y-132425125D01*
X147454819Y-132425125D02*
X147502438Y-132567982D01*
X147502438Y-132567982D02*
X147597676Y-132663220D01*
X147597676Y-132663220D02*
X147692914Y-132710839D01*
X147692914Y-132710839D02*
X147883390Y-132758458D01*
X147883390Y-132758458D02*
X148026247Y-132758458D01*
X148026247Y-132758458D02*
X148216723Y-132710839D01*
X148216723Y-132710839D02*
X148311961Y-132663220D01*
X148311961Y-132663220D02*
X148407200Y-132567982D01*
X148407200Y-132567982D02*
X148454819Y-132425125D01*
X148454819Y-132425125D02*
X148454819Y-132329887D01*
X148454819Y-132329887D02*
X148407200Y-132187030D01*
X148407200Y-132187030D02*
X148359580Y-132139411D01*
X148359580Y-132139411D02*
X148026247Y-132139411D01*
X148026247Y-132139411D02*
X148026247Y-132329887D01*
X148454819Y-131710839D02*
X147454819Y-131710839D01*
X147454819Y-131710839D02*
X148454819Y-131139411D01*
X148454819Y-131139411D02*
X147454819Y-131139411D01*
X148454819Y-130663220D02*
X147454819Y-130663220D01*
X147454819Y-130663220D02*
X147454819Y-130425125D01*
X147454819Y-130425125D02*
X147502438Y-130282268D01*
X147502438Y-130282268D02*
X147597676Y-130187030D01*
X147597676Y-130187030D02*
X147692914Y-130139411D01*
X147692914Y-130139411D02*
X147883390Y-130091792D01*
X147883390Y-130091792D02*
X148026247Y-130091792D01*
X148026247Y-130091792D02*
X148216723Y-130139411D01*
X148216723Y-130139411D02*
X148311961Y-130187030D01*
X148311961Y-130187030D02*
X148407200Y-130282268D01*
X148407200Y-130282268D02*
X148454819Y-130425125D01*
X148454819Y-130425125D02*
X148454819Y-130663220D01*
X165330057Y-131187029D02*
X165282438Y-131139410D01*
X165282438Y-131139410D02*
X165234819Y-131044172D01*
X165234819Y-131044172D02*
X165234819Y-130806077D01*
X165234819Y-130806077D02*
X165282438Y-130710839D01*
X165282438Y-130710839D02*
X165330057Y-130663220D01*
X165330057Y-130663220D02*
X165425295Y-130615601D01*
X165425295Y-130615601D02*
X165520533Y-130615601D01*
X165520533Y-130615601D02*
X165663390Y-130663220D01*
X165663390Y-130663220D02*
X166234819Y-131234648D01*
X166234819Y-131234648D02*
X166234819Y-130615601D01*
X161154819Y-75091792D02*
X161154819Y-75663220D01*
X161154819Y-75377506D02*
X160154819Y-75377506D01*
X160154819Y-75377506D02*
X160297676Y-75472744D01*
X160297676Y-75472744D02*
X160392914Y-75567982D01*
X160392914Y-75567982D02*
X160440533Y-75663220D01*
X160154819Y-74758458D02*
X160154819Y-74139411D01*
X160154819Y-74139411D02*
X160535771Y-74472744D01*
X160535771Y-74472744D02*
X160535771Y-74329887D01*
X160535771Y-74329887D02*
X160583390Y-74234649D01*
X160583390Y-74234649D02*
X160631009Y-74187030D01*
X160631009Y-74187030D02*
X160726247Y-74139411D01*
X160726247Y-74139411D02*
X160964342Y-74139411D01*
X160964342Y-74139411D02*
X161059580Y-74187030D01*
X161059580Y-74187030D02*
X161107200Y-74234649D01*
X161107200Y-74234649D02*
X161154819Y-74329887D01*
X161154819Y-74329887D02*
X161154819Y-74615601D01*
X161154819Y-74615601D02*
X161107200Y-74710839D01*
X161107200Y-74710839D02*
X161059580Y-74758458D01*
X150423390Y-130996553D02*
X150375771Y-131091791D01*
X150375771Y-131091791D02*
X150328152Y-131139410D01*
X150328152Y-131139410D02*
X150232914Y-131187029D01*
X150232914Y-131187029D02*
X150185295Y-131187029D01*
X150185295Y-131187029D02*
X150090057Y-131139410D01*
X150090057Y-131139410D02*
X150042438Y-131091791D01*
X150042438Y-131091791D02*
X149994819Y-130996553D01*
X149994819Y-130996553D02*
X149994819Y-130806077D01*
X149994819Y-130806077D02*
X150042438Y-130710839D01*
X150042438Y-130710839D02*
X150090057Y-130663220D01*
X150090057Y-130663220D02*
X150185295Y-130615601D01*
X150185295Y-130615601D02*
X150232914Y-130615601D01*
X150232914Y-130615601D02*
X150328152Y-130663220D01*
X150328152Y-130663220D02*
X150375771Y-130710839D01*
X150375771Y-130710839D02*
X150423390Y-130806077D01*
X150423390Y-130806077D02*
X150423390Y-130996553D01*
X150423390Y-130996553D02*
X150471009Y-131091791D01*
X150471009Y-131091791D02*
X150518628Y-131139410D01*
X150518628Y-131139410D02*
X150613866Y-131187029D01*
X150613866Y-131187029D02*
X150804342Y-131187029D01*
X150804342Y-131187029D02*
X150899580Y-131139410D01*
X150899580Y-131139410D02*
X150947200Y-131091791D01*
X150947200Y-131091791D02*
X150994819Y-130996553D01*
X150994819Y-130996553D02*
X150994819Y-130806077D01*
X150994819Y-130806077D02*
X150947200Y-130710839D01*
X150947200Y-130710839D02*
X150899580Y-130663220D01*
X150899580Y-130663220D02*
X150804342Y-130615601D01*
X150804342Y-130615601D02*
X150613866Y-130615601D01*
X150613866Y-130615601D02*
X150518628Y-130663220D01*
X150518628Y-130663220D02*
X150471009Y-130710839D01*
X150471009Y-130710839D02*
X150423390Y-130806077D01*
X152534819Y-131234648D02*
X152534819Y-130567982D01*
X152534819Y-130567982D02*
X153534819Y-130996553D01*
X168774819Y-130615601D02*
X168774819Y-131187029D01*
X168774819Y-130901315D02*
X167774819Y-130901315D01*
X167774819Y-130901315D02*
X167917676Y-130996553D01*
X167917676Y-130996553D02*
X168012914Y-131091791D01*
X168012914Y-131091791D02*
X168060533Y-131187029D01*
D11*
X127057775Y-116142359D02*
X127210156Y-116142359D01*
X127057775Y-115837597D02*
X127210156Y-115837597D01*
X127057775Y-115570930D02*
X127857775Y-115380454D01*
X127857775Y-115380454D02*
X127286346Y-115228073D01*
X127286346Y-115228073D02*
X127857775Y-115075692D01*
X127857775Y-115075692D02*
X127057775Y-114885216D01*
X127819680Y-114275691D02*
X127857775Y-114351882D01*
X127857775Y-114351882D02*
X127857775Y-114504263D01*
X127857775Y-114504263D02*
X127819680Y-114580453D01*
X127819680Y-114580453D02*
X127743489Y-114618549D01*
X127743489Y-114618549D02*
X127438727Y-114618549D01*
X127438727Y-114618549D02*
X127362537Y-114580453D01*
X127362537Y-114580453D02*
X127324441Y-114504263D01*
X127324441Y-114504263D02*
X127324441Y-114351882D01*
X127324441Y-114351882D02*
X127362537Y-114275691D01*
X127362537Y-114275691D02*
X127438727Y-114237596D01*
X127438727Y-114237596D02*
X127514918Y-114237596D01*
X127514918Y-114237596D02*
X127591108Y-114618549D01*
X127819680Y-113323311D02*
X127857775Y-113247120D01*
X127857775Y-113247120D02*
X127857775Y-113094739D01*
X127857775Y-113094739D02*
X127819680Y-113018549D01*
X127819680Y-113018549D02*
X127743489Y-112980453D01*
X127743489Y-112980453D02*
X127705394Y-112980453D01*
X127705394Y-112980453D02*
X127629203Y-113018549D01*
X127629203Y-113018549D02*
X127591108Y-113094739D01*
X127591108Y-113094739D02*
X127591108Y-113209025D01*
X127591108Y-113209025D02*
X127553013Y-113285215D01*
X127553013Y-113285215D02*
X127476822Y-113323311D01*
X127476822Y-113323311D02*
X127438727Y-113323311D01*
X127438727Y-113323311D02*
X127362537Y-113285215D01*
X127362537Y-113285215D02*
X127324441Y-113209025D01*
X127324441Y-113209025D02*
X127324441Y-113094739D01*
X127324441Y-113094739D02*
X127362537Y-113018549D01*
X127857775Y-112637596D02*
X127057775Y-112637596D01*
X127857775Y-112294739D02*
X127438727Y-112294739D01*
X127438727Y-112294739D02*
X127362537Y-112332834D01*
X127362537Y-112332834D02*
X127324441Y-112409025D01*
X127324441Y-112409025D02*
X127324441Y-112523311D01*
X127324441Y-112523311D02*
X127362537Y-112599501D01*
X127362537Y-112599501D02*
X127400632Y-112637596D01*
X127857775Y-111799501D02*
X127819680Y-111875691D01*
X127819680Y-111875691D02*
X127781584Y-111913786D01*
X127781584Y-111913786D02*
X127705394Y-111951882D01*
X127705394Y-111951882D02*
X127476822Y-111951882D01*
X127476822Y-111951882D02*
X127400632Y-111913786D01*
X127400632Y-111913786D02*
X127362537Y-111875691D01*
X127362537Y-111875691D02*
X127324441Y-111799501D01*
X127324441Y-111799501D02*
X127324441Y-111685215D01*
X127324441Y-111685215D02*
X127362537Y-111609024D01*
X127362537Y-111609024D02*
X127400632Y-111570929D01*
X127400632Y-111570929D02*
X127476822Y-111532834D01*
X127476822Y-111532834D02*
X127705394Y-111532834D01*
X127705394Y-111532834D02*
X127781584Y-111570929D01*
X127781584Y-111570929D02*
X127819680Y-111609024D01*
X127819680Y-111609024D02*
X127857775Y-111685215D01*
X127857775Y-111685215D02*
X127857775Y-111799501D01*
X127324441Y-110847119D02*
X127857775Y-110847119D01*
X127324441Y-111189976D02*
X127743489Y-111189976D01*
X127743489Y-111189976D02*
X127819680Y-111151881D01*
X127819680Y-111151881D02*
X127857775Y-111075691D01*
X127857775Y-111075691D02*
X127857775Y-110961405D01*
X127857775Y-110961405D02*
X127819680Y-110885214D01*
X127819680Y-110885214D02*
X127781584Y-110847119D01*
X127857775Y-110351881D02*
X127819680Y-110428071D01*
X127819680Y-110428071D02*
X127743489Y-110466166D01*
X127743489Y-110466166D02*
X127057775Y-110466166D01*
X127857775Y-109704261D02*
X127057775Y-109704261D01*
X127819680Y-109704261D02*
X127857775Y-109780452D01*
X127857775Y-109780452D02*
X127857775Y-109932833D01*
X127857775Y-109932833D02*
X127819680Y-110009023D01*
X127819680Y-110009023D02*
X127781584Y-110047118D01*
X127781584Y-110047118D02*
X127705394Y-110085214D01*
X127705394Y-110085214D02*
X127476822Y-110085214D01*
X127476822Y-110085214D02*
X127400632Y-110047118D01*
X127400632Y-110047118D02*
X127362537Y-110009023D01*
X127362537Y-110009023D02*
X127324441Y-109932833D01*
X127324441Y-109932833D02*
X127324441Y-109780452D01*
X127324441Y-109780452D02*
X127362537Y-109704261D01*
X127324441Y-108370927D02*
X127972060Y-108370927D01*
X127972060Y-108370927D02*
X128048251Y-108409022D01*
X128048251Y-108409022D02*
X128086346Y-108447118D01*
X128086346Y-108447118D02*
X128124441Y-108523308D01*
X128124441Y-108523308D02*
X128124441Y-108637594D01*
X128124441Y-108637594D02*
X128086346Y-108713784D01*
X127819680Y-108370927D02*
X127857775Y-108447118D01*
X127857775Y-108447118D02*
X127857775Y-108599499D01*
X127857775Y-108599499D02*
X127819680Y-108675689D01*
X127819680Y-108675689D02*
X127781584Y-108713784D01*
X127781584Y-108713784D02*
X127705394Y-108751880D01*
X127705394Y-108751880D02*
X127476822Y-108751880D01*
X127476822Y-108751880D02*
X127400632Y-108713784D01*
X127400632Y-108713784D02*
X127362537Y-108675689D01*
X127362537Y-108675689D02*
X127324441Y-108599499D01*
X127324441Y-108599499D02*
X127324441Y-108447118D01*
X127324441Y-108447118D02*
X127362537Y-108370927D01*
X127819680Y-107685212D02*
X127857775Y-107761403D01*
X127857775Y-107761403D02*
X127857775Y-107913784D01*
X127857775Y-107913784D02*
X127819680Y-107989974D01*
X127819680Y-107989974D02*
X127743489Y-108028070D01*
X127743489Y-108028070D02*
X127438727Y-108028070D01*
X127438727Y-108028070D02*
X127362537Y-107989974D01*
X127362537Y-107989974D02*
X127324441Y-107913784D01*
X127324441Y-107913784D02*
X127324441Y-107761403D01*
X127324441Y-107761403D02*
X127362537Y-107685212D01*
X127362537Y-107685212D02*
X127438727Y-107647117D01*
X127438727Y-107647117D02*
X127514918Y-107647117D01*
X127514918Y-107647117D02*
X127591108Y-108028070D01*
X127324441Y-107418546D02*
X127324441Y-107113784D01*
X127057775Y-107304260D02*
X127743489Y-107304260D01*
X127743489Y-107304260D02*
X127819680Y-107266165D01*
X127819680Y-107266165D02*
X127857775Y-107189975D01*
X127857775Y-107189975D02*
X127857775Y-107113784D01*
X127324441Y-106313784D02*
X127857775Y-106123308D01*
X127324441Y-105932831D02*
X127857775Y-106123308D01*
X127857775Y-106123308D02*
X128048251Y-106199498D01*
X128048251Y-106199498D02*
X128086346Y-106237593D01*
X128086346Y-106237593D02*
X128124441Y-106313784D01*
X127857775Y-105513784D02*
X127819680Y-105589974D01*
X127819680Y-105589974D02*
X127781584Y-105628069D01*
X127781584Y-105628069D02*
X127705394Y-105666165D01*
X127705394Y-105666165D02*
X127476822Y-105666165D01*
X127476822Y-105666165D02*
X127400632Y-105628069D01*
X127400632Y-105628069D02*
X127362537Y-105589974D01*
X127362537Y-105589974D02*
X127324441Y-105513784D01*
X127324441Y-105513784D02*
X127324441Y-105399498D01*
X127324441Y-105399498D02*
X127362537Y-105323307D01*
X127362537Y-105323307D02*
X127400632Y-105285212D01*
X127400632Y-105285212D02*
X127476822Y-105247117D01*
X127476822Y-105247117D02*
X127705394Y-105247117D01*
X127705394Y-105247117D02*
X127781584Y-105285212D01*
X127781584Y-105285212D02*
X127819680Y-105323307D01*
X127819680Y-105323307D02*
X127857775Y-105399498D01*
X127857775Y-105399498D02*
X127857775Y-105513784D01*
X127324441Y-104561402D02*
X127857775Y-104561402D01*
X127324441Y-104904259D02*
X127743489Y-104904259D01*
X127743489Y-104904259D02*
X127819680Y-104866164D01*
X127819680Y-104866164D02*
X127857775Y-104789974D01*
X127857775Y-104789974D02*
X127857775Y-104675688D01*
X127857775Y-104675688D02*
X127819680Y-104599497D01*
X127819680Y-104599497D02*
X127781584Y-104561402D01*
X127857775Y-103228068D02*
X127057775Y-103228068D01*
X127819680Y-103228068D02*
X127857775Y-103304259D01*
X127857775Y-103304259D02*
X127857775Y-103456640D01*
X127857775Y-103456640D02*
X127819680Y-103532830D01*
X127819680Y-103532830D02*
X127781584Y-103570925D01*
X127781584Y-103570925D02*
X127705394Y-103609021D01*
X127705394Y-103609021D02*
X127476822Y-103609021D01*
X127476822Y-103609021D02*
X127400632Y-103570925D01*
X127400632Y-103570925D02*
X127362537Y-103532830D01*
X127362537Y-103532830D02*
X127324441Y-103456640D01*
X127324441Y-103456640D02*
X127324441Y-103304259D01*
X127324441Y-103304259D02*
X127362537Y-103228068D01*
X127819680Y-102542353D02*
X127857775Y-102618544D01*
X127857775Y-102618544D02*
X127857775Y-102770925D01*
X127857775Y-102770925D02*
X127819680Y-102847115D01*
X127819680Y-102847115D02*
X127743489Y-102885211D01*
X127743489Y-102885211D02*
X127438727Y-102885211D01*
X127438727Y-102885211D02*
X127362537Y-102847115D01*
X127362537Y-102847115D02*
X127324441Y-102770925D01*
X127324441Y-102770925D02*
X127324441Y-102618544D01*
X127324441Y-102618544D02*
X127362537Y-102542353D01*
X127362537Y-102542353D02*
X127438727Y-102504258D01*
X127438727Y-102504258D02*
X127514918Y-102504258D01*
X127514918Y-102504258D02*
X127591108Y-102885211D01*
X127324441Y-102161401D02*
X128124441Y-102161401D01*
X127362537Y-102161401D02*
X127324441Y-102085211D01*
X127324441Y-102085211D02*
X127324441Y-101932830D01*
X127324441Y-101932830D02*
X127362537Y-101856639D01*
X127362537Y-101856639D02*
X127400632Y-101818544D01*
X127400632Y-101818544D02*
X127476822Y-101780449D01*
X127476822Y-101780449D02*
X127705394Y-101780449D01*
X127705394Y-101780449D02*
X127781584Y-101818544D01*
X127781584Y-101818544D02*
X127819680Y-101856639D01*
X127819680Y-101856639D02*
X127857775Y-101932830D01*
X127857775Y-101932830D02*
X127857775Y-102085211D01*
X127857775Y-102085211D02*
X127819680Y-102161401D01*
X127857775Y-101437591D02*
X127324441Y-101437591D01*
X127476822Y-101437591D02*
X127400632Y-101399496D01*
X127400632Y-101399496D02*
X127362537Y-101361401D01*
X127362537Y-101361401D02*
X127324441Y-101285210D01*
X127324441Y-101285210D02*
X127324441Y-101209020D01*
X127819680Y-100637591D02*
X127857775Y-100713782D01*
X127857775Y-100713782D02*
X127857775Y-100866163D01*
X127857775Y-100866163D02*
X127819680Y-100942353D01*
X127819680Y-100942353D02*
X127743489Y-100980449D01*
X127743489Y-100980449D02*
X127438727Y-100980449D01*
X127438727Y-100980449D02*
X127362537Y-100942353D01*
X127362537Y-100942353D02*
X127324441Y-100866163D01*
X127324441Y-100866163D02*
X127324441Y-100713782D01*
X127324441Y-100713782D02*
X127362537Y-100637591D01*
X127362537Y-100637591D02*
X127438727Y-100599496D01*
X127438727Y-100599496D02*
X127514918Y-100599496D01*
X127514918Y-100599496D02*
X127591108Y-100980449D01*
X127819680Y-100294735D02*
X127857775Y-100218544D01*
X127857775Y-100218544D02*
X127857775Y-100066163D01*
X127857775Y-100066163D02*
X127819680Y-99989973D01*
X127819680Y-99989973D02*
X127743489Y-99951877D01*
X127743489Y-99951877D02*
X127705394Y-99951877D01*
X127705394Y-99951877D02*
X127629203Y-99989973D01*
X127629203Y-99989973D02*
X127591108Y-100066163D01*
X127591108Y-100066163D02*
X127591108Y-100180449D01*
X127591108Y-100180449D02*
X127553013Y-100256639D01*
X127553013Y-100256639D02*
X127476822Y-100294735D01*
X127476822Y-100294735D02*
X127438727Y-100294735D01*
X127438727Y-100294735D02*
X127362537Y-100256639D01*
X127362537Y-100256639D02*
X127324441Y-100180449D01*
X127324441Y-100180449D02*
X127324441Y-100066163D01*
X127324441Y-100066163D02*
X127362537Y-99989973D01*
X127819680Y-99647116D02*
X127857775Y-99570925D01*
X127857775Y-99570925D02*
X127857775Y-99418544D01*
X127857775Y-99418544D02*
X127819680Y-99342354D01*
X127819680Y-99342354D02*
X127743489Y-99304258D01*
X127743489Y-99304258D02*
X127705394Y-99304258D01*
X127705394Y-99304258D02*
X127629203Y-99342354D01*
X127629203Y-99342354D02*
X127591108Y-99418544D01*
X127591108Y-99418544D02*
X127591108Y-99532830D01*
X127591108Y-99532830D02*
X127553013Y-99609020D01*
X127553013Y-99609020D02*
X127476822Y-99647116D01*
X127476822Y-99647116D02*
X127438727Y-99647116D01*
X127438727Y-99647116D02*
X127362537Y-99609020D01*
X127362537Y-99609020D02*
X127324441Y-99532830D01*
X127324441Y-99532830D02*
X127324441Y-99418544D01*
X127324441Y-99418544D02*
X127362537Y-99342354D01*
X127819680Y-98656639D02*
X127857775Y-98732830D01*
X127857775Y-98732830D02*
X127857775Y-98885211D01*
X127857775Y-98885211D02*
X127819680Y-98961401D01*
X127819680Y-98961401D02*
X127743489Y-98999497D01*
X127743489Y-98999497D02*
X127438727Y-98999497D01*
X127438727Y-98999497D02*
X127362537Y-98961401D01*
X127362537Y-98961401D02*
X127324441Y-98885211D01*
X127324441Y-98885211D02*
X127324441Y-98732830D01*
X127324441Y-98732830D02*
X127362537Y-98656639D01*
X127362537Y-98656639D02*
X127438727Y-98618544D01*
X127438727Y-98618544D02*
X127514918Y-98618544D01*
X127514918Y-98618544D02*
X127591108Y-98999497D01*
X127857775Y-97932830D02*
X127057775Y-97932830D01*
X127819680Y-97932830D02*
X127857775Y-98009021D01*
X127857775Y-98009021D02*
X127857775Y-98161402D01*
X127857775Y-98161402D02*
X127819680Y-98237592D01*
X127819680Y-98237592D02*
X127781584Y-98275687D01*
X127781584Y-98275687D02*
X127705394Y-98313783D01*
X127705394Y-98313783D02*
X127476822Y-98313783D01*
X127476822Y-98313783D02*
X127400632Y-98275687D01*
X127400632Y-98275687D02*
X127362537Y-98237592D01*
X127362537Y-98237592D02*
X127324441Y-98161402D01*
X127324441Y-98161402D02*
X127324441Y-98009021D01*
X127324441Y-98009021D02*
X127362537Y-97932830D01*
X127857775Y-96942353D02*
X127324441Y-96942353D01*
X127400632Y-96942353D02*
X127362537Y-96904258D01*
X127362537Y-96904258D02*
X127324441Y-96828068D01*
X127324441Y-96828068D02*
X127324441Y-96713782D01*
X127324441Y-96713782D02*
X127362537Y-96637591D01*
X127362537Y-96637591D02*
X127438727Y-96599496D01*
X127438727Y-96599496D02*
X127857775Y-96599496D01*
X127438727Y-96599496D02*
X127362537Y-96561401D01*
X127362537Y-96561401D02*
X127324441Y-96485210D01*
X127324441Y-96485210D02*
X127324441Y-96370925D01*
X127324441Y-96370925D02*
X127362537Y-96294734D01*
X127362537Y-96294734D02*
X127438727Y-96256639D01*
X127438727Y-96256639D02*
X127857775Y-96256639D01*
X127857775Y-95761401D02*
X127819680Y-95837591D01*
X127819680Y-95837591D02*
X127781584Y-95875686D01*
X127781584Y-95875686D02*
X127705394Y-95913782D01*
X127705394Y-95913782D02*
X127476822Y-95913782D01*
X127476822Y-95913782D02*
X127400632Y-95875686D01*
X127400632Y-95875686D02*
X127362537Y-95837591D01*
X127362537Y-95837591D02*
X127324441Y-95761401D01*
X127324441Y-95761401D02*
X127324441Y-95647115D01*
X127324441Y-95647115D02*
X127362537Y-95570924D01*
X127362537Y-95570924D02*
X127400632Y-95532829D01*
X127400632Y-95532829D02*
X127476822Y-95494734D01*
X127476822Y-95494734D02*
X127705394Y-95494734D01*
X127705394Y-95494734D02*
X127781584Y-95532829D01*
X127781584Y-95532829D02*
X127819680Y-95570924D01*
X127819680Y-95570924D02*
X127857775Y-95647115D01*
X127857775Y-95647115D02*
X127857775Y-95761401D01*
X127857775Y-95151876D02*
X127324441Y-95151876D01*
X127476822Y-95151876D02*
X127400632Y-95113781D01*
X127400632Y-95113781D02*
X127362537Y-95075686D01*
X127362537Y-95075686D02*
X127324441Y-94999495D01*
X127324441Y-94999495D02*
X127324441Y-94923305D01*
X127819680Y-94351876D02*
X127857775Y-94428067D01*
X127857775Y-94428067D02*
X127857775Y-94580448D01*
X127857775Y-94580448D02*
X127819680Y-94656638D01*
X127819680Y-94656638D02*
X127743489Y-94694734D01*
X127743489Y-94694734D02*
X127438727Y-94694734D01*
X127438727Y-94694734D02*
X127362537Y-94656638D01*
X127362537Y-94656638D02*
X127324441Y-94580448D01*
X127324441Y-94580448D02*
X127324441Y-94428067D01*
X127324441Y-94428067D02*
X127362537Y-94351876D01*
X127362537Y-94351876D02*
X127438727Y-94313781D01*
X127438727Y-94313781D02*
X127514918Y-94313781D01*
X127514918Y-94313781D02*
X127591108Y-94694734D01*
X127857775Y-93247115D02*
X127819680Y-93323305D01*
X127819680Y-93323305D02*
X127781584Y-93361400D01*
X127781584Y-93361400D02*
X127705394Y-93399496D01*
X127705394Y-93399496D02*
X127476822Y-93399496D01*
X127476822Y-93399496D02*
X127400632Y-93361400D01*
X127400632Y-93361400D02*
X127362537Y-93323305D01*
X127362537Y-93323305D02*
X127324441Y-93247115D01*
X127324441Y-93247115D02*
X127324441Y-93132829D01*
X127324441Y-93132829D02*
X127362537Y-93056638D01*
X127362537Y-93056638D02*
X127400632Y-93018543D01*
X127400632Y-93018543D02*
X127476822Y-92980448D01*
X127476822Y-92980448D02*
X127705394Y-92980448D01*
X127705394Y-92980448D02*
X127781584Y-93018543D01*
X127781584Y-93018543D02*
X127819680Y-93056638D01*
X127819680Y-93056638D02*
X127857775Y-93132829D01*
X127857775Y-93132829D02*
X127857775Y-93247115D01*
X127324441Y-92751876D02*
X127324441Y-92447114D01*
X127857775Y-92637590D02*
X127172060Y-92637590D01*
X127172060Y-92637590D02*
X127095870Y-92599495D01*
X127095870Y-92599495D02*
X127057775Y-92523305D01*
X127057775Y-92523305D02*
X127057775Y-92447114D01*
X127324441Y-92294733D02*
X127324441Y-91989971D01*
X127057775Y-92180447D02*
X127743489Y-92180447D01*
X127743489Y-92180447D02*
X127819680Y-92142352D01*
X127819680Y-92142352D02*
X127857775Y-92066162D01*
X127857775Y-92066162D02*
X127857775Y-91989971D01*
X127819680Y-91418542D02*
X127857775Y-91494733D01*
X127857775Y-91494733D02*
X127857775Y-91647114D01*
X127857775Y-91647114D02*
X127819680Y-91723304D01*
X127819680Y-91723304D02*
X127743489Y-91761400D01*
X127743489Y-91761400D02*
X127438727Y-91761400D01*
X127438727Y-91761400D02*
X127362537Y-91723304D01*
X127362537Y-91723304D02*
X127324441Y-91647114D01*
X127324441Y-91647114D02*
X127324441Y-91494733D01*
X127324441Y-91494733D02*
X127362537Y-91418542D01*
X127362537Y-91418542D02*
X127438727Y-91380447D01*
X127438727Y-91380447D02*
X127514918Y-91380447D01*
X127514918Y-91380447D02*
X127591108Y-91761400D01*
X127324441Y-91037590D02*
X127857775Y-91037590D01*
X127400632Y-91037590D02*
X127362537Y-90999495D01*
X127362537Y-90999495D02*
X127324441Y-90923305D01*
X127324441Y-90923305D02*
X127324441Y-90809019D01*
X127324441Y-90809019D02*
X127362537Y-90732828D01*
X127362537Y-90732828D02*
X127438727Y-90694733D01*
X127438727Y-90694733D02*
X127857775Y-90694733D01*
X127057775Y-90351876D02*
X127210156Y-90351876D01*
X127057775Y-90047114D02*
X127210156Y-90047114D01*
X128841013Y-105894737D02*
X128841013Y-105285214D01*
X129145775Y-104904261D02*
X128345775Y-104904261D01*
X128345775Y-104904261D02*
X128917203Y-104637595D01*
X128917203Y-104637595D02*
X128345775Y-104370928D01*
X128345775Y-104370928D02*
X129145775Y-104370928D01*
X129145775Y-103647118D02*
X128726727Y-103647118D01*
X128726727Y-103647118D02*
X128650537Y-103685213D01*
X128650537Y-103685213D02*
X128612441Y-103761404D01*
X128612441Y-103761404D02*
X128612441Y-103913785D01*
X128612441Y-103913785D02*
X128650537Y-103989975D01*
X129107680Y-103647118D02*
X129145775Y-103723309D01*
X129145775Y-103723309D02*
X129145775Y-103913785D01*
X129145775Y-103913785D02*
X129107680Y-103989975D01*
X129107680Y-103989975D02*
X129031489Y-104028071D01*
X129031489Y-104028071D02*
X128955299Y-104028071D01*
X128955299Y-104028071D02*
X128879108Y-103989975D01*
X128879108Y-103989975D02*
X128841013Y-103913785D01*
X128841013Y-103913785D02*
X128841013Y-103723309D01*
X128841013Y-103723309D02*
X128802918Y-103647118D01*
X128612441Y-103266165D02*
X129145775Y-103266165D01*
X128688632Y-103266165D02*
X128650537Y-103228070D01*
X128650537Y-103228070D02*
X128612441Y-103151880D01*
X128612441Y-103151880D02*
X128612441Y-103037594D01*
X128612441Y-103037594D02*
X128650537Y-102961403D01*
X128650537Y-102961403D02*
X128726727Y-102923308D01*
X128726727Y-102923308D02*
X129145775Y-102923308D01*
X128612441Y-102656641D02*
X128612441Y-102351879D01*
X128345775Y-102542355D02*
X129031489Y-102542355D01*
X129031489Y-102542355D02*
X129107680Y-102504260D01*
X129107680Y-102504260D02*
X129145775Y-102428070D01*
X129145775Y-102428070D02*
X129145775Y-102351879D01*
X129145775Y-102085212D02*
X128345775Y-102085212D01*
X129145775Y-101742355D02*
X128726727Y-101742355D01*
X128726727Y-101742355D02*
X128650537Y-101780450D01*
X128650537Y-101780450D02*
X128612441Y-101856641D01*
X128612441Y-101856641D02*
X128612441Y-101970927D01*
X128612441Y-101970927D02*
X128650537Y-102047117D01*
X128650537Y-102047117D02*
X128688632Y-102085212D01*
X129145775Y-101018545D02*
X128726727Y-101018545D01*
X128726727Y-101018545D02*
X128650537Y-101056640D01*
X128650537Y-101056640D02*
X128612441Y-101132831D01*
X128612441Y-101132831D02*
X128612441Y-101285212D01*
X128612441Y-101285212D02*
X128650537Y-101361402D01*
X129107680Y-101018545D02*
X129145775Y-101094736D01*
X129145775Y-101094736D02*
X129145775Y-101285212D01*
X129145775Y-101285212D02*
X129107680Y-101361402D01*
X129107680Y-101361402D02*
X129031489Y-101399498D01*
X129031489Y-101399498D02*
X128955299Y-101399498D01*
X128955299Y-101399498D02*
X128879108Y-101361402D01*
X128879108Y-101361402D02*
X128841013Y-101285212D01*
X128841013Y-101285212D02*
X128841013Y-101094736D01*
X128841013Y-101094736D02*
X128802918Y-101018545D01*
X128612441Y-100637592D02*
X129145775Y-100637592D01*
X128688632Y-100637592D02*
X128650537Y-100599497D01*
X128650537Y-100599497D02*
X128612441Y-100523307D01*
X128612441Y-100523307D02*
X128612441Y-100409021D01*
X128612441Y-100409021D02*
X128650537Y-100332830D01*
X128650537Y-100332830D02*
X128726727Y-100294735D01*
X128726727Y-100294735D02*
X129145775Y-100294735D01*
D10*
X163694819Y-75091792D02*
X163694819Y-75663220D01*
X163694819Y-75377506D02*
X162694819Y-75377506D01*
X162694819Y-75377506D02*
X162837676Y-75472744D01*
X162837676Y-75472744D02*
X162932914Y-75567982D01*
X162932914Y-75567982D02*
X162980533Y-75663220D01*
X163028152Y-74234649D02*
X163694819Y-74234649D01*
X162647200Y-74472744D02*
X163361485Y-74710839D01*
X163361485Y-74710839D02*
X163361485Y-74091792D01*
X140305826Y-116154819D02*
X139972493Y-115678628D01*
X139734398Y-116154819D02*
X139734398Y-115154819D01*
X139734398Y-115154819D02*
X140115350Y-115154819D01*
X140115350Y-115154819D02*
X140210588Y-115202438D01*
X140210588Y-115202438D02*
X140258207Y-115250057D01*
X140258207Y-115250057D02*
X140305826Y-115345295D01*
X140305826Y-115345295D02*
X140305826Y-115488152D01*
X140305826Y-115488152D02*
X140258207Y-115583390D01*
X140258207Y-115583390D02*
X140210588Y-115631009D01*
X140210588Y-115631009D02*
X140115350Y-115678628D01*
X140115350Y-115678628D02*
X139734398Y-115678628D01*
X141258207Y-116154819D02*
X140686779Y-116154819D01*
X140972493Y-116154819D02*
X140972493Y-115154819D01*
X140972493Y-115154819D02*
X140877255Y-115297676D01*
X140877255Y-115297676D02*
X140782017Y-115392914D01*
X140782017Y-115392914D02*
X140686779Y-115440533D01*
X142115350Y-115154819D02*
X141924874Y-115154819D01*
X141924874Y-115154819D02*
X141829636Y-115202438D01*
X141829636Y-115202438D02*
X141782017Y-115250057D01*
X141782017Y-115250057D02*
X141686779Y-115392914D01*
X141686779Y-115392914D02*
X141639160Y-115583390D01*
X141639160Y-115583390D02*
X141639160Y-115964342D01*
X141639160Y-115964342D02*
X141686779Y-116059580D01*
X141686779Y-116059580D02*
X141734398Y-116107200D01*
X141734398Y-116107200D02*
X141829636Y-116154819D01*
X141829636Y-116154819D02*
X142020112Y-116154819D01*
X142020112Y-116154819D02*
X142115350Y-116107200D01*
X142115350Y-116107200D02*
X142162969Y-116059580D01*
X142162969Y-116059580D02*
X142210588Y-115964342D01*
X142210588Y-115964342D02*
X142210588Y-115726247D01*
X142210588Y-115726247D02*
X142162969Y-115631009D01*
X142162969Y-115631009D02*
X142115350Y-115583390D01*
X142115350Y-115583390D02*
X142020112Y-115535771D01*
X142020112Y-115535771D02*
X141829636Y-115535771D01*
X141829636Y-115535771D02*
X141734398Y-115583390D01*
X141734398Y-115583390D02*
X141686779Y-115631009D01*
X141686779Y-115631009D02*
X141639160Y-115726247D01*
X145727256Y-91554819D02*
X145393923Y-91078628D01*
X145155828Y-91554819D02*
X145155828Y-90554819D01*
X145155828Y-90554819D02*
X145536780Y-90554819D01*
X145536780Y-90554819D02*
X145632018Y-90602438D01*
X145632018Y-90602438D02*
X145679637Y-90650057D01*
X145679637Y-90650057D02*
X145727256Y-90745295D01*
X145727256Y-90745295D02*
X145727256Y-90888152D01*
X145727256Y-90888152D02*
X145679637Y-90983390D01*
X145679637Y-90983390D02*
X145632018Y-91031009D01*
X145632018Y-91031009D02*
X145536780Y-91078628D01*
X145536780Y-91078628D02*
X145155828Y-91078628D01*
X146108209Y-90650057D02*
X146155828Y-90602438D01*
X146155828Y-90602438D02*
X146251066Y-90554819D01*
X146251066Y-90554819D02*
X146489161Y-90554819D01*
X146489161Y-90554819D02*
X146584399Y-90602438D01*
X146584399Y-90602438D02*
X146632018Y-90650057D01*
X146632018Y-90650057D02*
X146679637Y-90745295D01*
X146679637Y-90745295D02*
X146679637Y-90840533D01*
X146679637Y-90840533D02*
X146632018Y-90983390D01*
X146632018Y-90983390D02*
X146060590Y-91554819D01*
X146060590Y-91554819D02*
X146679637Y-91554819D01*
X147060590Y-90650057D02*
X147108209Y-90602438D01*
X147108209Y-90602438D02*
X147203447Y-90554819D01*
X147203447Y-90554819D02*
X147441542Y-90554819D01*
X147441542Y-90554819D02*
X147536780Y-90602438D01*
X147536780Y-90602438D02*
X147584399Y-90650057D01*
X147584399Y-90650057D02*
X147632018Y-90745295D01*
X147632018Y-90745295D02*
X147632018Y-90840533D01*
X147632018Y-90840533D02*
X147584399Y-90983390D01*
X147584399Y-90983390D02*
X147012971Y-91554819D01*
X147012971Y-91554819D02*
X147632018Y-91554819D01*
X138789160Y-97481009D02*
X138455827Y-97481009D01*
X138455827Y-98004819D02*
X138455827Y-97004819D01*
X138455827Y-97004819D02*
X138932017Y-97004819D01*
X139646303Y-97481009D02*
X139789160Y-97528628D01*
X139789160Y-97528628D02*
X139836779Y-97576247D01*
X139836779Y-97576247D02*
X139884398Y-97671485D01*
X139884398Y-97671485D02*
X139884398Y-97814342D01*
X139884398Y-97814342D02*
X139836779Y-97909580D01*
X139836779Y-97909580D02*
X139789160Y-97957200D01*
X139789160Y-97957200D02*
X139693922Y-98004819D01*
X139693922Y-98004819D02*
X139312970Y-98004819D01*
X139312970Y-98004819D02*
X139312970Y-97004819D01*
X139312970Y-97004819D02*
X139646303Y-97004819D01*
X139646303Y-97004819D02*
X139741541Y-97052438D01*
X139741541Y-97052438D02*
X139789160Y-97100057D01*
X139789160Y-97100057D02*
X139836779Y-97195295D01*
X139836779Y-97195295D02*
X139836779Y-97290533D01*
X139836779Y-97290533D02*
X139789160Y-97385771D01*
X139789160Y-97385771D02*
X139741541Y-97433390D01*
X139741541Y-97433390D02*
X139646303Y-97481009D01*
X139646303Y-97481009D02*
X139312970Y-97481009D01*
X140836779Y-98004819D02*
X140265351Y-98004819D01*
X140551065Y-98004819D02*
X140551065Y-97004819D01*
X140551065Y-97004819D02*
X140455827Y-97147676D01*
X140455827Y-97147676D02*
X140360589Y-97242914D01*
X140360589Y-97242914D02*
X140265351Y-97290533D01*
X141170113Y-97004819D02*
X141836779Y-97004819D01*
X141836779Y-97004819D02*
X141408208Y-98004819D01*
X161134398Y-91554819D02*
X160801065Y-91078628D01*
X160562970Y-91554819D02*
X160562970Y-90554819D01*
X160562970Y-90554819D02*
X160943922Y-90554819D01*
X160943922Y-90554819D02*
X161039160Y-90602438D01*
X161039160Y-90602438D02*
X161086779Y-90650057D01*
X161086779Y-90650057D02*
X161134398Y-90745295D01*
X161134398Y-90745295D02*
X161134398Y-90888152D01*
X161134398Y-90888152D02*
X161086779Y-90983390D01*
X161086779Y-90983390D02*
X161039160Y-91031009D01*
X161039160Y-91031009D02*
X160943922Y-91078628D01*
X160943922Y-91078628D02*
X160562970Y-91078628D01*
X161515351Y-90650057D02*
X161562970Y-90602438D01*
X161562970Y-90602438D02*
X161658208Y-90554819D01*
X161658208Y-90554819D02*
X161896303Y-90554819D01*
X161896303Y-90554819D02*
X161991541Y-90602438D01*
X161991541Y-90602438D02*
X162039160Y-90650057D01*
X162039160Y-90650057D02*
X162086779Y-90745295D01*
X162086779Y-90745295D02*
X162086779Y-90840533D01*
X162086779Y-90840533D02*
X162039160Y-90983390D01*
X162039160Y-90983390D02*
X161467732Y-91554819D01*
X161467732Y-91554819D02*
X162086779Y-91554819D01*
X162562970Y-91554819D02*
X162753446Y-91554819D01*
X162753446Y-91554819D02*
X162848684Y-91507200D01*
X162848684Y-91507200D02*
X162896303Y-91459580D01*
X162896303Y-91459580D02*
X162991541Y-91316723D01*
X162991541Y-91316723D02*
X163039160Y-91126247D01*
X163039160Y-91126247D02*
X163039160Y-90745295D01*
X163039160Y-90745295D02*
X162991541Y-90650057D01*
X162991541Y-90650057D02*
X162943922Y-90602438D01*
X162943922Y-90602438D02*
X162848684Y-90554819D01*
X162848684Y-90554819D02*
X162658208Y-90554819D01*
X162658208Y-90554819D02*
X162562970Y-90602438D01*
X162562970Y-90602438D02*
X162515351Y-90650057D01*
X162515351Y-90650057D02*
X162467732Y-90745295D01*
X162467732Y-90745295D02*
X162467732Y-90983390D01*
X162467732Y-90983390D02*
X162515351Y-91078628D01*
X162515351Y-91078628D02*
X162562970Y-91126247D01*
X162562970Y-91126247D02*
X162658208Y-91173866D01*
X162658208Y-91173866D02*
X162848684Y-91173866D01*
X162848684Y-91173866D02*
X162943922Y-91126247D01*
X162943922Y-91126247D02*
X162991541Y-91078628D01*
X162991541Y-91078628D02*
X163039160Y-90983390D01*
X155860110Y-116154819D02*
X155526777Y-115678628D01*
X155288682Y-116154819D02*
X155288682Y-115154819D01*
X155288682Y-115154819D02*
X155669634Y-115154819D01*
X155669634Y-115154819D02*
X155764872Y-115202438D01*
X155764872Y-115202438D02*
X155812491Y-115250057D01*
X155812491Y-115250057D02*
X155860110Y-115345295D01*
X155860110Y-115345295D02*
X155860110Y-115488152D01*
X155860110Y-115488152D02*
X155812491Y-115583390D01*
X155812491Y-115583390D02*
X155764872Y-115631009D01*
X155764872Y-115631009D02*
X155669634Y-115678628D01*
X155669634Y-115678628D02*
X155288682Y-115678628D01*
X156812491Y-116154819D02*
X156241063Y-116154819D01*
X156526777Y-116154819D02*
X156526777Y-115154819D01*
X156526777Y-115154819D02*
X156431539Y-115297676D01*
X156431539Y-115297676D02*
X156336301Y-115392914D01*
X156336301Y-115392914D02*
X156241063Y-115440533D01*
X157145825Y-115154819D02*
X157764872Y-115154819D01*
X157764872Y-115154819D02*
X157431539Y-115535771D01*
X157431539Y-115535771D02*
X157574396Y-115535771D01*
X157574396Y-115535771D02*
X157669634Y-115583390D01*
X157669634Y-115583390D02*
X157717253Y-115631009D01*
X157717253Y-115631009D02*
X157764872Y-115726247D01*
X157764872Y-115726247D02*
X157764872Y-115964342D01*
X157764872Y-115964342D02*
X157717253Y-116059580D01*
X157717253Y-116059580D02*
X157669634Y-116107200D01*
X157669634Y-116107200D02*
X157574396Y-116154819D01*
X157574396Y-116154819D02*
X157288682Y-116154819D01*
X157288682Y-116154819D02*
X157193444Y-116107200D01*
X157193444Y-116107200D02*
X157145825Y-116059580D01*
X160851062Y-112346009D02*
X160517729Y-112346009D01*
X160517729Y-112869819D02*
X160517729Y-111869819D01*
X160517729Y-111869819D02*
X160993919Y-111869819D01*
X161708205Y-112346009D02*
X161851062Y-112393628D01*
X161851062Y-112393628D02*
X161898681Y-112441247D01*
X161898681Y-112441247D02*
X161946300Y-112536485D01*
X161946300Y-112536485D02*
X161946300Y-112679342D01*
X161946300Y-112679342D02*
X161898681Y-112774580D01*
X161898681Y-112774580D02*
X161851062Y-112822200D01*
X161851062Y-112822200D02*
X161755824Y-112869819D01*
X161755824Y-112869819D02*
X161374872Y-112869819D01*
X161374872Y-112869819D02*
X161374872Y-111869819D01*
X161374872Y-111869819D02*
X161708205Y-111869819D01*
X161708205Y-111869819D02*
X161803443Y-111917438D01*
X161803443Y-111917438D02*
X161851062Y-111965057D01*
X161851062Y-111965057D02*
X161898681Y-112060295D01*
X161898681Y-112060295D02*
X161898681Y-112155533D01*
X161898681Y-112155533D02*
X161851062Y-112250771D01*
X161851062Y-112250771D02*
X161803443Y-112298390D01*
X161803443Y-112298390D02*
X161708205Y-112346009D01*
X161708205Y-112346009D02*
X161374872Y-112346009D01*
X162803443Y-112203152D02*
X162803443Y-112869819D01*
X162565348Y-111822200D02*
X162327253Y-112536485D01*
X162327253Y-112536485D02*
X162946300Y-112536485D01*
X150698682Y-119454819D02*
X150365349Y-118978628D01*
X150127254Y-119454819D02*
X150127254Y-118454819D01*
X150127254Y-118454819D02*
X150508206Y-118454819D01*
X150508206Y-118454819D02*
X150603444Y-118502438D01*
X150603444Y-118502438D02*
X150651063Y-118550057D01*
X150651063Y-118550057D02*
X150698682Y-118645295D01*
X150698682Y-118645295D02*
X150698682Y-118788152D01*
X150698682Y-118788152D02*
X150651063Y-118883390D01*
X150651063Y-118883390D02*
X150603444Y-118931009D01*
X150603444Y-118931009D02*
X150508206Y-118978628D01*
X150508206Y-118978628D02*
X150127254Y-118978628D01*
X151651063Y-119454819D02*
X151079635Y-119454819D01*
X151365349Y-119454819D02*
X151365349Y-118454819D01*
X151365349Y-118454819D02*
X151270111Y-118597676D01*
X151270111Y-118597676D02*
X151174873Y-118692914D01*
X151174873Y-118692914D02*
X151079635Y-118740533D01*
X152270111Y-118454819D02*
X152365349Y-118454819D01*
X152365349Y-118454819D02*
X152460587Y-118502438D01*
X152460587Y-118502438D02*
X152508206Y-118550057D01*
X152508206Y-118550057D02*
X152555825Y-118645295D01*
X152555825Y-118645295D02*
X152603444Y-118835771D01*
X152603444Y-118835771D02*
X152603444Y-119073866D01*
X152603444Y-119073866D02*
X152555825Y-119264342D01*
X152555825Y-119264342D02*
X152508206Y-119359580D01*
X152508206Y-119359580D02*
X152460587Y-119407200D01*
X152460587Y-119407200D02*
X152365349Y-119454819D01*
X152365349Y-119454819D02*
X152270111Y-119454819D01*
X152270111Y-119454819D02*
X152174873Y-119407200D01*
X152174873Y-119407200D02*
X152127254Y-119359580D01*
X152127254Y-119359580D02*
X152079635Y-119264342D01*
X152079635Y-119264342D02*
X152032016Y-119073866D01*
X152032016Y-119073866D02*
X152032016Y-118835771D01*
X152032016Y-118835771D02*
X152079635Y-118645295D01*
X152079635Y-118645295D02*
X152127254Y-118550057D01*
X152127254Y-118550057D02*
X152174873Y-118502438D01*
X152174873Y-118502438D02*
X152270111Y-118454819D01*
X177032017Y-119454819D02*
X176698684Y-118978628D01*
X176460589Y-119454819D02*
X176460589Y-118454819D01*
X176460589Y-118454819D02*
X176841541Y-118454819D01*
X176841541Y-118454819D02*
X176936779Y-118502438D01*
X176936779Y-118502438D02*
X176984398Y-118550057D01*
X176984398Y-118550057D02*
X177032017Y-118645295D01*
X177032017Y-118645295D02*
X177032017Y-118788152D01*
X177032017Y-118788152D02*
X176984398Y-118883390D01*
X176984398Y-118883390D02*
X176936779Y-118931009D01*
X176936779Y-118931009D02*
X176841541Y-118978628D01*
X176841541Y-118978628D02*
X176460589Y-118978628D01*
X177984398Y-119454819D02*
X177412970Y-119454819D01*
X177698684Y-119454819D02*
X177698684Y-118454819D01*
X177698684Y-118454819D02*
X177603446Y-118597676D01*
X177603446Y-118597676D02*
X177508208Y-118692914D01*
X177508208Y-118692914D02*
X177412970Y-118740533D01*
X166639157Y-116154819D02*
X166305824Y-115678628D01*
X166067729Y-116154819D02*
X166067729Y-115154819D01*
X166067729Y-115154819D02*
X166448681Y-115154819D01*
X166448681Y-115154819D02*
X166543919Y-115202438D01*
X166543919Y-115202438D02*
X166591538Y-115250057D01*
X166591538Y-115250057D02*
X166639157Y-115345295D01*
X166639157Y-115345295D02*
X166639157Y-115488152D01*
X166639157Y-115488152D02*
X166591538Y-115583390D01*
X166591538Y-115583390D02*
X166543919Y-115631009D01*
X166543919Y-115631009D02*
X166448681Y-115678628D01*
X166448681Y-115678628D02*
X166067729Y-115678628D01*
X166972491Y-115154819D02*
X167639157Y-115154819D01*
X167639157Y-115154819D02*
X167210586Y-116154819D01*
X175874876Y-94281009D02*
X175541543Y-94281009D01*
X175541543Y-94804819D02*
X175541543Y-93804819D01*
X175541543Y-93804819D02*
X176017733Y-93804819D01*
X176732019Y-94281009D02*
X176874876Y-94328628D01*
X176874876Y-94328628D02*
X176922495Y-94376247D01*
X176922495Y-94376247D02*
X176970114Y-94471485D01*
X176970114Y-94471485D02*
X176970114Y-94614342D01*
X176970114Y-94614342D02*
X176922495Y-94709580D01*
X176922495Y-94709580D02*
X176874876Y-94757200D01*
X176874876Y-94757200D02*
X176779638Y-94804819D01*
X176779638Y-94804819D02*
X176398686Y-94804819D01*
X176398686Y-94804819D02*
X176398686Y-93804819D01*
X176398686Y-93804819D02*
X176732019Y-93804819D01*
X176732019Y-93804819D02*
X176827257Y-93852438D01*
X176827257Y-93852438D02*
X176874876Y-93900057D01*
X176874876Y-93900057D02*
X176922495Y-93995295D01*
X176922495Y-93995295D02*
X176922495Y-94090533D01*
X176922495Y-94090533D02*
X176874876Y-94185771D01*
X176874876Y-94185771D02*
X176827257Y-94233390D01*
X176827257Y-94233390D02*
X176732019Y-94281009D01*
X176732019Y-94281009D02*
X176398686Y-94281009D01*
X177922495Y-94804819D02*
X177351067Y-94804819D01*
X177636781Y-94804819D02*
X177636781Y-93804819D01*
X177636781Y-93804819D02*
X177541543Y-93947676D01*
X177541543Y-93947676D02*
X177446305Y-94042914D01*
X177446305Y-94042914D02*
X177351067Y-94090533D01*
X178779638Y-93804819D02*
X178589162Y-93804819D01*
X178589162Y-93804819D02*
X178493924Y-93852438D01*
X178493924Y-93852438D02*
X178446305Y-93900057D01*
X178446305Y-93900057D02*
X178351067Y-94042914D01*
X178351067Y-94042914D02*
X178303448Y-94233390D01*
X178303448Y-94233390D02*
X178303448Y-94614342D01*
X178303448Y-94614342D02*
X178351067Y-94709580D01*
X178351067Y-94709580D02*
X178398686Y-94757200D01*
X178398686Y-94757200D02*
X178493924Y-94804819D01*
X178493924Y-94804819D02*
X178684400Y-94804819D01*
X178684400Y-94804819D02*
X178779638Y-94757200D01*
X178779638Y-94757200D02*
X178827257Y-94709580D01*
X178827257Y-94709580D02*
X178874876Y-94614342D01*
X178874876Y-94614342D02*
X178874876Y-94376247D01*
X178874876Y-94376247D02*
X178827257Y-94281009D01*
X178827257Y-94281009D02*
X178779638Y-94233390D01*
X178779638Y-94233390D02*
X178684400Y-94185771D01*
X178684400Y-94185771D02*
X178493924Y-94185771D01*
X178493924Y-94185771D02*
X178398686Y-94233390D01*
X178398686Y-94233390D02*
X178351067Y-94281009D01*
X178351067Y-94281009D02*
X178303448Y-94376247D01*
X145336778Y-112431009D02*
X145003445Y-112431009D01*
X145003445Y-112954819D02*
X145003445Y-111954819D01*
X145003445Y-111954819D02*
X145479635Y-111954819D01*
X146193921Y-112431009D02*
X146336778Y-112478628D01*
X146336778Y-112478628D02*
X146384397Y-112526247D01*
X146384397Y-112526247D02*
X146432016Y-112621485D01*
X146432016Y-112621485D02*
X146432016Y-112764342D01*
X146432016Y-112764342D02*
X146384397Y-112859580D01*
X146384397Y-112859580D02*
X146336778Y-112907200D01*
X146336778Y-112907200D02*
X146241540Y-112954819D01*
X146241540Y-112954819D02*
X145860588Y-112954819D01*
X145860588Y-112954819D02*
X145860588Y-111954819D01*
X145860588Y-111954819D02*
X146193921Y-111954819D01*
X146193921Y-111954819D02*
X146289159Y-112002438D01*
X146289159Y-112002438D02*
X146336778Y-112050057D01*
X146336778Y-112050057D02*
X146384397Y-112145295D01*
X146384397Y-112145295D02*
X146384397Y-112240533D01*
X146384397Y-112240533D02*
X146336778Y-112335771D01*
X146336778Y-112335771D02*
X146289159Y-112383390D01*
X146289159Y-112383390D02*
X146193921Y-112431009D01*
X146193921Y-112431009D02*
X145860588Y-112431009D01*
X146765350Y-111954819D02*
X147432016Y-111954819D01*
X147432016Y-111954819D02*
X147003445Y-112954819D01*
X176541542Y-91554819D02*
X176208209Y-91078628D01*
X175970114Y-91554819D02*
X175970114Y-90554819D01*
X175970114Y-90554819D02*
X176351066Y-90554819D01*
X176351066Y-90554819D02*
X176446304Y-90602438D01*
X176446304Y-90602438D02*
X176493923Y-90650057D01*
X176493923Y-90650057D02*
X176541542Y-90745295D01*
X176541542Y-90745295D02*
X176541542Y-90888152D01*
X176541542Y-90888152D02*
X176493923Y-90983390D01*
X176493923Y-90983390D02*
X176446304Y-91031009D01*
X176446304Y-91031009D02*
X176351066Y-91078628D01*
X176351066Y-91078628D02*
X175970114Y-91078628D01*
X176874876Y-90554819D02*
X177493923Y-90554819D01*
X177493923Y-90554819D02*
X177160590Y-90935771D01*
X177160590Y-90935771D02*
X177303447Y-90935771D01*
X177303447Y-90935771D02*
X177398685Y-90983390D01*
X177398685Y-90983390D02*
X177446304Y-91031009D01*
X177446304Y-91031009D02*
X177493923Y-91126247D01*
X177493923Y-91126247D02*
X177493923Y-91364342D01*
X177493923Y-91364342D02*
X177446304Y-91459580D01*
X177446304Y-91459580D02*
X177398685Y-91507200D01*
X177398685Y-91507200D02*
X177303447Y-91554819D01*
X177303447Y-91554819D02*
X177017733Y-91554819D01*
X177017733Y-91554819D02*
X176922495Y-91507200D01*
X176922495Y-91507200D02*
X176874876Y-91459580D01*
X177874876Y-90650057D02*
X177922495Y-90602438D01*
X177922495Y-90602438D02*
X178017733Y-90554819D01*
X178017733Y-90554819D02*
X178255828Y-90554819D01*
X178255828Y-90554819D02*
X178351066Y-90602438D01*
X178351066Y-90602438D02*
X178398685Y-90650057D01*
X178398685Y-90650057D02*
X178446304Y-90745295D01*
X178446304Y-90745295D02*
X178446304Y-90840533D01*
X178446304Y-90840533D02*
X178398685Y-90983390D01*
X178398685Y-90983390D02*
X177827257Y-91554819D01*
X177827257Y-91554819D02*
X178446304Y-91554819D01*
X176541542Y-84489580D02*
X176493923Y-84537200D01*
X176493923Y-84537200D02*
X176351066Y-84584819D01*
X176351066Y-84584819D02*
X176255828Y-84584819D01*
X176255828Y-84584819D02*
X176112971Y-84537200D01*
X176112971Y-84537200D02*
X176017733Y-84441961D01*
X176017733Y-84441961D02*
X175970114Y-84346723D01*
X175970114Y-84346723D02*
X175922495Y-84156247D01*
X175922495Y-84156247D02*
X175922495Y-84013390D01*
X175922495Y-84013390D02*
X175970114Y-83822914D01*
X175970114Y-83822914D02*
X176017733Y-83727676D01*
X176017733Y-83727676D02*
X176112971Y-83632438D01*
X176112971Y-83632438D02*
X176255828Y-83584819D01*
X176255828Y-83584819D02*
X176351066Y-83584819D01*
X176351066Y-83584819D02*
X176493923Y-83632438D01*
X176493923Y-83632438D02*
X176541542Y-83680057D01*
X177493923Y-84584819D02*
X176922495Y-84584819D01*
X177208209Y-84584819D02*
X177208209Y-83584819D01*
X177208209Y-83584819D02*
X177112971Y-83727676D01*
X177112971Y-83727676D02*
X177017733Y-83822914D01*
X177017733Y-83822914D02*
X176922495Y-83870533D01*
X178351066Y-83584819D02*
X178160590Y-83584819D01*
X178160590Y-83584819D02*
X178065352Y-83632438D01*
X178065352Y-83632438D02*
X178017733Y-83680057D01*
X178017733Y-83680057D02*
X177922495Y-83822914D01*
X177922495Y-83822914D02*
X177874876Y-84013390D01*
X177874876Y-84013390D02*
X177874876Y-84394342D01*
X177874876Y-84394342D02*
X177922495Y-84489580D01*
X177922495Y-84489580D02*
X177970114Y-84537200D01*
X177970114Y-84537200D02*
X178065352Y-84584819D01*
X178065352Y-84584819D02*
X178255828Y-84584819D01*
X178255828Y-84584819D02*
X178351066Y-84537200D01*
X178351066Y-84537200D02*
X178398685Y-84489580D01*
X178398685Y-84489580D02*
X178446304Y-84394342D01*
X178446304Y-84394342D02*
X178446304Y-84156247D01*
X178446304Y-84156247D02*
X178398685Y-84061009D01*
X178398685Y-84061009D02*
X178351066Y-84013390D01*
X178351066Y-84013390D02*
X178255828Y-83965771D01*
X178255828Y-83965771D02*
X178065352Y-83965771D01*
X178065352Y-83965771D02*
X177970114Y-84013390D01*
X177970114Y-84013390D02*
X177922495Y-84061009D01*
X177922495Y-84061009D02*
X177874876Y-84156247D01*
X145527254Y-119454819D02*
X145193921Y-118978628D01*
X144955826Y-119454819D02*
X144955826Y-118454819D01*
X144955826Y-118454819D02*
X145336778Y-118454819D01*
X145336778Y-118454819D02*
X145432016Y-118502438D01*
X145432016Y-118502438D02*
X145479635Y-118550057D01*
X145479635Y-118550057D02*
X145527254Y-118645295D01*
X145527254Y-118645295D02*
X145527254Y-118788152D01*
X145527254Y-118788152D02*
X145479635Y-118883390D01*
X145479635Y-118883390D02*
X145432016Y-118931009D01*
X145432016Y-118931009D02*
X145336778Y-118978628D01*
X145336778Y-118978628D02*
X144955826Y-118978628D01*
X146479635Y-119454819D02*
X145908207Y-119454819D01*
X146193921Y-119454819D02*
X146193921Y-118454819D01*
X146193921Y-118454819D02*
X146098683Y-118597676D01*
X146098683Y-118597676D02*
X146003445Y-118692914D01*
X146003445Y-118692914D02*
X145908207Y-118740533D01*
X147432016Y-119454819D02*
X146860588Y-119454819D01*
X147146302Y-119454819D02*
X147146302Y-118454819D01*
X147146302Y-118454819D02*
X147051064Y-118597676D01*
X147051064Y-118597676D02*
X146955826Y-118692914D01*
X146955826Y-118692914D02*
X146860588Y-118740533D01*
X166270112Y-84539580D02*
X166222493Y-84587200D01*
X166222493Y-84587200D02*
X166079636Y-84634819D01*
X166079636Y-84634819D02*
X165984398Y-84634819D01*
X165984398Y-84634819D02*
X165841541Y-84587200D01*
X165841541Y-84587200D02*
X165746303Y-84491961D01*
X165746303Y-84491961D02*
X165698684Y-84396723D01*
X165698684Y-84396723D02*
X165651065Y-84206247D01*
X165651065Y-84206247D02*
X165651065Y-84063390D01*
X165651065Y-84063390D02*
X165698684Y-83872914D01*
X165698684Y-83872914D02*
X165746303Y-83777676D01*
X165746303Y-83777676D02*
X165841541Y-83682438D01*
X165841541Y-83682438D02*
X165984398Y-83634819D01*
X165984398Y-83634819D02*
X166079636Y-83634819D01*
X166079636Y-83634819D02*
X166222493Y-83682438D01*
X166222493Y-83682438D02*
X166270112Y-83730057D01*
X167222493Y-84634819D02*
X166651065Y-84634819D01*
X166936779Y-84634819D02*
X166936779Y-83634819D01*
X166936779Y-83634819D02*
X166841541Y-83777676D01*
X166841541Y-83777676D02*
X166746303Y-83872914D01*
X166746303Y-83872914D02*
X166651065Y-83920533D01*
X168079636Y-83968152D02*
X168079636Y-84634819D01*
X167841541Y-83587200D02*
X167603446Y-84301485D01*
X167603446Y-84301485D02*
X168222493Y-84301485D01*
X150196304Y-94281009D02*
X149862971Y-94281009D01*
X149862971Y-94804819D02*
X149862971Y-93804819D01*
X149862971Y-93804819D02*
X150339161Y-93804819D01*
X151053447Y-94281009D02*
X151196304Y-94328628D01*
X151196304Y-94328628D02*
X151243923Y-94376247D01*
X151243923Y-94376247D02*
X151291542Y-94471485D01*
X151291542Y-94471485D02*
X151291542Y-94614342D01*
X151291542Y-94614342D02*
X151243923Y-94709580D01*
X151243923Y-94709580D02*
X151196304Y-94757200D01*
X151196304Y-94757200D02*
X151101066Y-94804819D01*
X151101066Y-94804819D02*
X150720114Y-94804819D01*
X150720114Y-94804819D02*
X150720114Y-93804819D01*
X150720114Y-93804819D02*
X151053447Y-93804819D01*
X151053447Y-93804819D02*
X151148685Y-93852438D01*
X151148685Y-93852438D02*
X151196304Y-93900057D01*
X151196304Y-93900057D02*
X151243923Y-93995295D01*
X151243923Y-93995295D02*
X151243923Y-94090533D01*
X151243923Y-94090533D02*
X151196304Y-94185771D01*
X151196304Y-94185771D02*
X151148685Y-94233390D01*
X151148685Y-94233390D02*
X151053447Y-94281009D01*
X151053447Y-94281009D02*
X150720114Y-94281009D01*
X152243923Y-94804819D02*
X151672495Y-94804819D01*
X151958209Y-94804819D02*
X151958209Y-93804819D01*
X151958209Y-93804819D02*
X151862971Y-93947676D01*
X151862971Y-93947676D02*
X151767733Y-94042914D01*
X151767733Y-94042914D02*
X151672495Y-94090533D01*
X153196304Y-94804819D02*
X152624876Y-94804819D01*
X152910590Y-94804819D02*
X152910590Y-93804819D01*
X152910590Y-93804819D02*
X152815352Y-93947676D01*
X152815352Y-93947676D02*
X152720114Y-94042914D01*
X152720114Y-94042914D02*
X152624876Y-94090533D01*
X155998684Y-84489580D02*
X155951065Y-84537200D01*
X155951065Y-84537200D02*
X155808208Y-84584819D01*
X155808208Y-84584819D02*
X155712970Y-84584819D01*
X155712970Y-84584819D02*
X155570113Y-84537200D01*
X155570113Y-84537200D02*
X155474875Y-84441961D01*
X155474875Y-84441961D02*
X155427256Y-84346723D01*
X155427256Y-84346723D02*
X155379637Y-84156247D01*
X155379637Y-84156247D02*
X155379637Y-84013390D01*
X155379637Y-84013390D02*
X155427256Y-83822914D01*
X155427256Y-83822914D02*
X155474875Y-83727676D01*
X155474875Y-83727676D02*
X155570113Y-83632438D01*
X155570113Y-83632438D02*
X155712970Y-83584819D01*
X155712970Y-83584819D02*
X155808208Y-83584819D01*
X155808208Y-83584819D02*
X155951065Y-83632438D01*
X155951065Y-83632438D02*
X155998684Y-83680057D01*
X156951065Y-84584819D02*
X156379637Y-84584819D01*
X156665351Y-84584819D02*
X156665351Y-83584819D01*
X156665351Y-83584819D02*
X156570113Y-83727676D01*
X156570113Y-83727676D02*
X156474875Y-83822914D01*
X156474875Y-83822914D02*
X156379637Y-83870533D01*
X157332018Y-83680057D02*
X157379637Y-83632438D01*
X157379637Y-83632438D02*
X157474875Y-83584819D01*
X157474875Y-83584819D02*
X157712970Y-83584819D01*
X157712970Y-83584819D02*
X157808208Y-83632438D01*
X157808208Y-83632438D02*
X157855827Y-83680057D01*
X157855827Y-83680057D02*
X157903446Y-83775295D01*
X157903446Y-83775295D02*
X157903446Y-83870533D01*
X157903446Y-83870533D02*
X157855827Y-84013390D01*
X157855827Y-84013390D02*
X157284399Y-84584819D01*
X157284399Y-84584819D02*
X157903446Y-84584819D01*
X161467729Y-116154819D02*
X161134396Y-115678628D01*
X160896301Y-116154819D02*
X160896301Y-115154819D01*
X160896301Y-115154819D02*
X161277253Y-115154819D01*
X161277253Y-115154819D02*
X161372491Y-115202438D01*
X161372491Y-115202438D02*
X161420110Y-115250057D01*
X161420110Y-115250057D02*
X161467729Y-115345295D01*
X161467729Y-115345295D02*
X161467729Y-115488152D01*
X161467729Y-115488152D02*
X161420110Y-115583390D01*
X161420110Y-115583390D02*
X161372491Y-115631009D01*
X161372491Y-115631009D02*
X161277253Y-115678628D01*
X161277253Y-115678628D02*
X160896301Y-115678628D01*
X162039158Y-115583390D02*
X161943920Y-115535771D01*
X161943920Y-115535771D02*
X161896301Y-115488152D01*
X161896301Y-115488152D02*
X161848682Y-115392914D01*
X161848682Y-115392914D02*
X161848682Y-115345295D01*
X161848682Y-115345295D02*
X161896301Y-115250057D01*
X161896301Y-115250057D02*
X161943920Y-115202438D01*
X161943920Y-115202438D02*
X162039158Y-115154819D01*
X162039158Y-115154819D02*
X162229634Y-115154819D01*
X162229634Y-115154819D02*
X162324872Y-115202438D01*
X162324872Y-115202438D02*
X162372491Y-115250057D01*
X162372491Y-115250057D02*
X162420110Y-115345295D01*
X162420110Y-115345295D02*
X162420110Y-115392914D01*
X162420110Y-115392914D02*
X162372491Y-115488152D01*
X162372491Y-115488152D02*
X162324872Y-115535771D01*
X162324872Y-115535771D02*
X162229634Y-115583390D01*
X162229634Y-115583390D02*
X162039158Y-115583390D01*
X162039158Y-115583390D02*
X161943920Y-115631009D01*
X161943920Y-115631009D02*
X161896301Y-115678628D01*
X161896301Y-115678628D02*
X161848682Y-115773866D01*
X161848682Y-115773866D02*
X161848682Y-115964342D01*
X161848682Y-115964342D02*
X161896301Y-116059580D01*
X161896301Y-116059580D02*
X161943920Y-116107200D01*
X161943920Y-116107200D02*
X162039158Y-116154819D01*
X162039158Y-116154819D02*
X162229634Y-116154819D01*
X162229634Y-116154819D02*
X162324872Y-116107200D01*
X162324872Y-116107200D02*
X162372491Y-116059580D01*
X162372491Y-116059580D02*
X162420110Y-115964342D01*
X162420110Y-115964342D02*
X162420110Y-115773866D01*
X162420110Y-115773866D02*
X162372491Y-115678628D01*
X162372491Y-115678628D02*
X162324872Y-115631009D01*
X162324872Y-115631009D02*
X162229634Y-115583390D01*
X140355826Y-119454819D02*
X140022493Y-118978628D01*
X139784398Y-119454819D02*
X139784398Y-118454819D01*
X139784398Y-118454819D02*
X140165350Y-118454819D01*
X140165350Y-118454819D02*
X140260588Y-118502438D01*
X140260588Y-118502438D02*
X140308207Y-118550057D01*
X140308207Y-118550057D02*
X140355826Y-118645295D01*
X140355826Y-118645295D02*
X140355826Y-118788152D01*
X140355826Y-118788152D02*
X140308207Y-118883390D01*
X140308207Y-118883390D02*
X140260588Y-118931009D01*
X140260588Y-118931009D02*
X140165350Y-118978628D01*
X140165350Y-118978628D02*
X139784398Y-118978628D01*
X141308207Y-119454819D02*
X140736779Y-119454819D01*
X141022493Y-119454819D02*
X141022493Y-118454819D01*
X141022493Y-118454819D02*
X140927255Y-118597676D01*
X140927255Y-118597676D02*
X140832017Y-118692914D01*
X140832017Y-118692914D02*
X140736779Y-118740533D01*
X141689160Y-118550057D02*
X141736779Y-118502438D01*
X141736779Y-118502438D02*
X141832017Y-118454819D01*
X141832017Y-118454819D02*
X142070112Y-118454819D01*
X142070112Y-118454819D02*
X142165350Y-118502438D01*
X142165350Y-118502438D02*
X142212969Y-118550057D01*
X142212969Y-118550057D02*
X142260588Y-118645295D01*
X142260588Y-118645295D02*
X142260588Y-118740533D01*
X142260588Y-118740533D02*
X142212969Y-118883390D01*
X142212969Y-118883390D02*
X141641541Y-119454819D01*
X141641541Y-119454819D02*
X142260588Y-119454819D01*
X182844819Y-97814173D02*
X182368628Y-98147506D01*
X182844819Y-98385601D02*
X181844819Y-98385601D01*
X181844819Y-98385601D02*
X181844819Y-98004649D01*
X181844819Y-98004649D02*
X181892438Y-97909411D01*
X181892438Y-97909411D02*
X181940057Y-97861792D01*
X181940057Y-97861792D02*
X182035295Y-97814173D01*
X182035295Y-97814173D02*
X182178152Y-97814173D01*
X182178152Y-97814173D02*
X182273390Y-97861792D01*
X182273390Y-97861792D02*
X182321009Y-97909411D01*
X182321009Y-97909411D02*
X182368628Y-98004649D01*
X182368628Y-98004649D02*
X182368628Y-98385601D01*
X181844819Y-97480839D02*
X181844819Y-96861792D01*
X181844819Y-96861792D02*
X182225771Y-97195125D01*
X182225771Y-97195125D02*
X182225771Y-97052268D01*
X182225771Y-97052268D02*
X182273390Y-96957030D01*
X182273390Y-96957030D02*
X182321009Y-96909411D01*
X182321009Y-96909411D02*
X182416247Y-96861792D01*
X182416247Y-96861792D02*
X182654342Y-96861792D01*
X182654342Y-96861792D02*
X182749580Y-96909411D01*
X182749580Y-96909411D02*
X182797200Y-96957030D01*
X182797200Y-96957030D02*
X182844819Y-97052268D01*
X182844819Y-97052268D02*
X182844819Y-97337982D01*
X182844819Y-97337982D02*
X182797200Y-97433220D01*
X182797200Y-97433220D02*
X182749580Y-97480839D01*
X181844819Y-96528458D02*
X181844819Y-95909411D01*
X181844819Y-95909411D02*
X182225771Y-96242744D01*
X182225771Y-96242744D02*
X182225771Y-96099887D01*
X182225771Y-96099887D02*
X182273390Y-96004649D01*
X182273390Y-96004649D02*
X182321009Y-95957030D01*
X182321009Y-95957030D02*
X182416247Y-95909411D01*
X182416247Y-95909411D02*
X182654342Y-95909411D01*
X182654342Y-95909411D02*
X182749580Y-95957030D01*
X182749580Y-95957030D02*
X182797200Y-96004649D01*
X182797200Y-96004649D02*
X182844819Y-96099887D01*
X182844819Y-96099887D02*
X182844819Y-96385601D01*
X182844819Y-96385601D02*
X182797200Y-96480839D01*
X182797200Y-96480839D02*
X182749580Y-96528458D01*
X156296301Y-122709580D02*
X156248682Y-122757200D01*
X156248682Y-122757200D02*
X156105825Y-122804819D01*
X156105825Y-122804819D02*
X156010587Y-122804819D01*
X156010587Y-122804819D02*
X155867730Y-122757200D01*
X155867730Y-122757200D02*
X155772492Y-122661961D01*
X155772492Y-122661961D02*
X155724873Y-122566723D01*
X155724873Y-122566723D02*
X155677254Y-122376247D01*
X155677254Y-122376247D02*
X155677254Y-122233390D01*
X155677254Y-122233390D02*
X155724873Y-122042914D01*
X155724873Y-122042914D02*
X155772492Y-121947676D01*
X155772492Y-121947676D02*
X155867730Y-121852438D01*
X155867730Y-121852438D02*
X156010587Y-121804819D01*
X156010587Y-121804819D02*
X156105825Y-121804819D01*
X156105825Y-121804819D02*
X156248682Y-121852438D01*
X156248682Y-121852438D02*
X156296301Y-121900057D01*
X157201063Y-121804819D02*
X156724873Y-121804819D01*
X156724873Y-121804819D02*
X156677254Y-122281009D01*
X156677254Y-122281009D02*
X156724873Y-122233390D01*
X156724873Y-122233390D02*
X156820111Y-122185771D01*
X156820111Y-122185771D02*
X157058206Y-122185771D01*
X157058206Y-122185771D02*
X157153444Y-122233390D01*
X157153444Y-122233390D02*
X157201063Y-122281009D01*
X157201063Y-122281009D02*
X157248682Y-122376247D01*
X157248682Y-122376247D02*
X157248682Y-122614342D01*
X157248682Y-122614342D02*
X157201063Y-122709580D01*
X157201063Y-122709580D02*
X157153444Y-122757200D01*
X157153444Y-122757200D02*
X157058206Y-122804819D01*
X157058206Y-122804819D02*
X156820111Y-122804819D01*
X156820111Y-122804819D02*
X156724873Y-122757200D01*
X156724873Y-122757200D02*
X156677254Y-122709580D01*
X176365350Y-112346009D02*
X176032017Y-112346009D01*
X176032017Y-112869819D02*
X176032017Y-111869819D01*
X176032017Y-111869819D02*
X176508207Y-111869819D01*
X177222493Y-112346009D02*
X177365350Y-112393628D01*
X177365350Y-112393628D02*
X177412969Y-112441247D01*
X177412969Y-112441247D02*
X177460588Y-112536485D01*
X177460588Y-112536485D02*
X177460588Y-112679342D01*
X177460588Y-112679342D02*
X177412969Y-112774580D01*
X177412969Y-112774580D02*
X177365350Y-112822200D01*
X177365350Y-112822200D02*
X177270112Y-112869819D01*
X177270112Y-112869819D02*
X176889160Y-112869819D01*
X176889160Y-112869819D02*
X176889160Y-111869819D01*
X176889160Y-111869819D02*
X177222493Y-111869819D01*
X177222493Y-111869819D02*
X177317731Y-111917438D01*
X177317731Y-111917438D02*
X177365350Y-111965057D01*
X177365350Y-111965057D02*
X177412969Y-112060295D01*
X177412969Y-112060295D02*
X177412969Y-112155533D01*
X177412969Y-112155533D02*
X177365350Y-112250771D01*
X177365350Y-112250771D02*
X177317731Y-112298390D01*
X177317731Y-112298390D02*
X177222493Y-112346009D01*
X177222493Y-112346009D02*
X176889160Y-112346009D01*
X178412969Y-112869819D02*
X177841541Y-112869819D01*
X178127255Y-112869819D02*
X178127255Y-111869819D01*
X178127255Y-111869819D02*
X178032017Y-112012676D01*
X178032017Y-112012676D02*
X177936779Y-112107914D01*
X177936779Y-112107914D02*
X177841541Y-112155533D01*
X141067733Y-84489580D02*
X141020114Y-84537200D01*
X141020114Y-84537200D02*
X140877257Y-84584819D01*
X140877257Y-84584819D02*
X140782019Y-84584819D01*
X140782019Y-84584819D02*
X140639162Y-84537200D01*
X140639162Y-84537200D02*
X140543924Y-84441961D01*
X140543924Y-84441961D02*
X140496305Y-84346723D01*
X140496305Y-84346723D02*
X140448686Y-84156247D01*
X140448686Y-84156247D02*
X140448686Y-84013390D01*
X140448686Y-84013390D02*
X140496305Y-83822914D01*
X140496305Y-83822914D02*
X140543924Y-83727676D01*
X140543924Y-83727676D02*
X140639162Y-83632438D01*
X140639162Y-83632438D02*
X140782019Y-83584819D01*
X140782019Y-83584819D02*
X140877257Y-83584819D01*
X140877257Y-83584819D02*
X141020114Y-83632438D01*
X141020114Y-83632438D02*
X141067733Y-83680057D01*
X141543924Y-84584819D02*
X141734400Y-84584819D01*
X141734400Y-84584819D02*
X141829638Y-84537200D01*
X141829638Y-84537200D02*
X141877257Y-84489580D01*
X141877257Y-84489580D02*
X141972495Y-84346723D01*
X141972495Y-84346723D02*
X142020114Y-84156247D01*
X142020114Y-84156247D02*
X142020114Y-83775295D01*
X142020114Y-83775295D02*
X141972495Y-83680057D01*
X141972495Y-83680057D02*
X141924876Y-83632438D01*
X141924876Y-83632438D02*
X141829638Y-83584819D01*
X141829638Y-83584819D02*
X141639162Y-83584819D01*
X141639162Y-83584819D02*
X141543924Y-83632438D01*
X141543924Y-83632438D02*
X141496305Y-83680057D01*
X141496305Y-83680057D02*
X141448686Y-83775295D01*
X141448686Y-83775295D02*
X141448686Y-84013390D01*
X141448686Y-84013390D02*
X141496305Y-84108628D01*
X141496305Y-84108628D02*
X141543924Y-84156247D01*
X141543924Y-84156247D02*
X141639162Y-84203866D01*
X141639162Y-84203866D02*
X141829638Y-84203866D01*
X141829638Y-84203866D02*
X141924876Y-84156247D01*
X141924876Y-84156247D02*
X141972495Y-84108628D01*
X141972495Y-84108628D02*
X142020114Y-84013390D01*
X171810585Y-116154819D02*
X171477252Y-115678628D01*
X171239157Y-116154819D02*
X171239157Y-115154819D01*
X171239157Y-115154819D02*
X171620109Y-115154819D01*
X171620109Y-115154819D02*
X171715347Y-115202438D01*
X171715347Y-115202438D02*
X171762966Y-115250057D01*
X171762966Y-115250057D02*
X171810585Y-115345295D01*
X171810585Y-115345295D02*
X171810585Y-115488152D01*
X171810585Y-115488152D02*
X171762966Y-115583390D01*
X171762966Y-115583390D02*
X171715347Y-115631009D01*
X171715347Y-115631009D02*
X171620109Y-115678628D01*
X171620109Y-115678628D02*
X171239157Y-115678628D01*
X172667728Y-115154819D02*
X172477252Y-115154819D01*
X172477252Y-115154819D02*
X172382014Y-115202438D01*
X172382014Y-115202438D02*
X172334395Y-115250057D01*
X172334395Y-115250057D02*
X172239157Y-115392914D01*
X172239157Y-115392914D02*
X172191538Y-115583390D01*
X172191538Y-115583390D02*
X172191538Y-115964342D01*
X172191538Y-115964342D02*
X172239157Y-116059580D01*
X172239157Y-116059580D02*
X172286776Y-116107200D01*
X172286776Y-116107200D02*
X172382014Y-116154819D01*
X172382014Y-116154819D02*
X172572490Y-116154819D01*
X172572490Y-116154819D02*
X172667728Y-116107200D01*
X172667728Y-116107200D02*
X172715347Y-116059580D01*
X172715347Y-116059580D02*
X172762966Y-115964342D01*
X172762966Y-115964342D02*
X172762966Y-115726247D01*
X172762966Y-115726247D02*
X172715347Y-115631009D01*
X172715347Y-115631009D02*
X172667728Y-115583390D01*
X172667728Y-115583390D02*
X172572490Y-115535771D01*
X172572490Y-115535771D02*
X172382014Y-115535771D01*
X172382014Y-115535771D02*
X172286776Y-115583390D01*
X172286776Y-115583390D02*
X172239157Y-115631009D01*
X172239157Y-115631009D02*
X172191538Y-115726247D01*
X171193918Y-112346009D02*
X170860585Y-112346009D01*
X170860585Y-112869819D02*
X170860585Y-111869819D01*
X170860585Y-111869819D02*
X171336775Y-111869819D01*
X172051061Y-112346009D02*
X172193918Y-112393628D01*
X172193918Y-112393628D02*
X172241537Y-112441247D01*
X172241537Y-112441247D02*
X172289156Y-112536485D01*
X172289156Y-112536485D02*
X172289156Y-112679342D01*
X172289156Y-112679342D02*
X172241537Y-112774580D01*
X172241537Y-112774580D02*
X172193918Y-112822200D01*
X172193918Y-112822200D02*
X172098680Y-112869819D01*
X172098680Y-112869819D02*
X171717728Y-112869819D01*
X171717728Y-112869819D02*
X171717728Y-111869819D01*
X171717728Y-111869819D02*
X172051061Y-111869819D01*
X172051061Y-111869819D02*
X172146299Y-111917438D01*
X172146299Y-111917438D02*
X172193918Y-111965057D01*
X172193918Y-111965057D02*
X172241537Y-112060295D01*
X172241537Y-112060295D02*
X172241537Y-112155533D01*
X172241537Y-112155533D02*
X172193918Y-112250771D01*
X172193918Y-112250771D02*
X172146299Y-112298390D01*
X172146299Y-112298390D02*
X172051061Y-112346009D01*
X172051061Y-112346009D02*
X171717728Y-112346009D01*
X172670109Y-111965057D02*
X172717728Y-111917438D01*
X172717728Y-111917438D02*
X172812966Y-111869819D01*
X172812966Y-111869819D02*
X173051061Y-111869819D01*
X173051061Y-111869819D02*
X173146299Y-111917438D01*
X173146299Y-111917438D02*
X173193918Y-111965057D01*
X173193918Y-111965057D02*
X173241537Y-112060295D01*
X173241537Y-112060295D02*
X173241537Y-112155533D01*
X173241537Y-112155533D02*
X173193918Y-112298390D01*
X173193918Y-112298390D02*
X172622490Y-112869819D01*
X172622490Y-112869819D02*
X173241537Y-112869819D01*
X170739160Y-94281009D02*
X170405827Y-94281009D01*
X170405827Y-94804819D02*
X170405827Y-93804819D01*
X170405827Y-93804819D02*
X170882017Y-93804819D01*
X171596303Y-94281009D02*
X171739160Y-94328628D01*
X171739160Y-94328628D02*
X171786779Y-94376247D01*
X171786779Y-94376247D02*
X171834398Y-94471485D01*
X171834398Y-94471485D02*
X171834398Y-94614342D01*
X171834398Y-94614342D02*
X171786779Y-94709580D01*
X171786779Y-94709580D02*
X171739160Y-94757200D01*
X171739160Y-94757200D02*
X171643922Y-94804819D01*
X171643922Y-94804819D02*
X171262970Y-94804819D01*
X171262970Y-94804819D02*
X171262970Y-93804819D01*
X171262970Y-93804819D02*
X171596303Y-93804819D01*
X171596303Y-93804819D02*
X171691541Y-93852438D01*
X171691541Y-93852438D02*
X171739160Y-93900057D01*
X171739160Y-93900057D02*
X171786779Y-93995295D01*
X171786779Y-93995295D02*
X171786779Y-94090533D01*
X171786779Y-94090533D02*
X171739160Y-94185771D01*
X171739160Y-94185771D02*
X171691541Y-94233390D01*
X171691541Y-94233390D02*
X171596303Y-94281009D01*
X171596303Y-94281009D02*
X171262970Y-94281009D01*
X172786779Y-94804819D02*
X172215351Y-94804819D01*
X172501065Y-94804819D02*
X172501065Y-93804819D01*
X172501065Y-93804819D02*
X172405827Y-93947676D01*
X172405827Y-93947676D02*
X172310589Y-94042914D01*
X172310589Y-94042914D02*
X172215351Y-94090533D01*
X173691541Y-93804819D02*
X173215351Y-93804819D01*
X173215351Y-93804819D02*
X173167732Y-94281009D01*
X173167732Y-94281009D02*
X173215351Y-94233390D01*
X173215351Y-94233390D02*
X173310589Y-94185771D01*
X173310589Y-94185771D02*
X173548684Y-94185771D01*
X173548684Y-94185771D02*
X173643922Y-94233390D01*
X173643922Y-94233390D02*
X173691541Y-94281009D01*
X173691541Y-94281009D02*
X173739160Y-94376247D01*
X173739160Y-94376247D02*
X173739160Y-94614342D01*
X173739160Y-94614342D02*
X173691541Y-94709580D01*
X173691541Y-94709580D02*
X173643922Y-94757200D01*
X173643922Y-94757200D02*
X173548684Y-94804819D01*
X173548684Y-94804819D02*
X173310589Y-94804819D01*
X173310589Y-94804819D02*
X173215351Y-94757200D01*
X173215351Y-94757200D02*
X173167732Y-94709580D01*
X171405826Y-87964819D02*
X171072493Y-87488628D01*
X170834398Y-87964819D02*
X170834398Y-86964819D01*
X170834398Y-86964819D02*
X171215350Y-86964819D01*
X171215350Y-86964819D02*
X171310588Y-87012438D01*
X171310588Y-87012438D02*
X171358207Y-87060057D01*
X171358207Y-87060057D02*
X171405826Y-87155295D01*
X171405826Y-87155295D02*
X171405826Y-87298152D01*
X171405826Y-87298152D02*
X171358207Y-87393390D01*
X171358207Y-87393390D02*
X171310588Y-87441009D01*
X171310588Y-87441009D02*
X171215350Y-87488628D01*
X171215350Y-87488628D02*
X170834398Y-87488628D01*
X171786779Y-87060057D02*
X171834398Y-87012438D01*
X171834398Y-87012438D02*
X171929636Y-86964819D01*
X171929636Y-86964819D02*
X172167731Y-86964819D01*
X172167731Y-86964819D02*
X172262969Y-87012438D01*
X172262969Y-87012438D02*
X172310588Y-87060057D01*
X172310588Y-87060057D02*
X172358207Y-87155295D01*
X172358207Y-87155295D02*
X172358207Y-87250533D01*
X172358207Y-87250533D02*
X172310588Y-87393390D01*
X172310588Y-87393390D02*
X171739160Y-87964819D01*
X171739160Y-87964819D02*
X172358207Y-87964819D01*
X172691541Y-86964819D02*
X173358207Y-86964819D01*
X173358207Y-86964819D02*
X172929636Y-87964819D01*
X171860585Y-119404819D02*
X171527252Y-118928628D01*
X171289157Y-119404819D02*
X171289157Y-118404819D01*
X171289157Y-118404819D02*
X171670109Y-118404819D01*
X171670109Y-118404819D02*
X171765347Y-118452438D01*
X171765347Y-118452438D02*
X171812966Y-118500057D01*
X171812966Y-118500057D02*
X171860585Y-118595295D01*
X171860585Y-118595295D02*
X171860585Y-118738152D01*
X171860585Y-118738152D02*
X171812966Y-118833390D01*
X171812966Y-118833390D02*
X171765347Y-118881009D01*
X171765347Y-118881009D02*
X171670109Y-118928628D01*
X171670109Y-118928628D02*
X171289157Y-118928628D01*
X172241538Y-118500057D02*
X172289157Y-118452438D01*
X172289157Y-118452438D02*
X172384395Y-118404819D01*
X172384395Y-118404819D02*
X172622490Y-118404819D01*
X172622490Y-118404819D02*
X172717728Y-118452438D01*
X172717728Y-118452438D02*
X172765347Y-118500057D01*
X172765347Y-118500057D02*
X172812966Y-118595295D01*
X172812966Y-118595295D02*
X172812966Y-118690533D01*
X172812966Y-118690533D02*
X172765347Y-118833390D01*
X172765347Y-118833390D02*
X172193919Y-119404819D01*
X172193919Y-119404819D02*
X172812966Y-119404819D01*
X171405826Y-84489580D02*
X171358207Y-84537200D01*
X171358207Y-84537200D02*
X171215350Y-84584819D01*
X171215350Y-84584819D02*
X171120112Y-84584819D01*
X171120112Y-84584819D02*
X170977255Y-84537200D01*
X170977255Y-84537200D02*
X170882017Y-84441961D01*
X170882017Y-84441961D02*
X170834398Y-84346723D01*
X170834398Y-84346723D02*
X170786779Y-84156247D01*
X170786779Y-84156247D02*
X170786779Y-84013390D01*
X170786779Y-84013390D02*
X170834398Y-83822914D01*
X170834398Y-83822914D02*
X170882017Y-83727676D01*
X170882017Y-83727676D02*
X170977255Y-83632438D01*
X170977255Y-83632438D02*
X171120112Y-83584819D01*
X171120112Y-83584819D02*
X171215350Y-83584819D01*
X171215350Y-83584819D02*
X171358207Y-83632438D01*
X171358207Y-83632438D02*
X171405826Y-83680057D01*
X172358207Y-84584819D02*
X171786779Y-84584819D01*
X172072493Y-84584819D02*
X172072493Y-83584819D01*
X172072493Y-83584819D02*
X171977255Y-83727676D01*
X171977255Y-83727676D02*
X171882017Y-83822914D01*
X171882017Y-83822914D02*
X171786779Y-83870533D01*
X173262969Y-83584819D02*
X172786779Y-83584819D01*
X172786779Y-83584819D02*
X172739160Y-84061009D01*
X172739160Y-84061009D02*
X172786779Y-84013390D01*
X172786779Y-84013390D02*
X172882017Y-83965771D01*
X172882017Y-83965771D02*
X173120112Y-83965771D01*
X173120112Y-83965771D02*
X173215350Y-84013390D01*
X173215350Y-84013390D02*
X173262969Y-84061009D01*
X173262969Y-84061009D02*
X173310588Y-84156247D01*
X173310588Y-84156247D02*
X173310588Y-84394342D01*
X173310588Y-84394342D02*
X173262969Y-84489580D01*
X173262969Y-84489580D02*
X173215350Y-84537200D01*
X173215350Y-84537200D02*
X173120112Y-84584819D01*
X173120112Y-84584819D02*
X172882017Y-84584819D01*
X172882017Y-84584819D02*
X172786779Y-84537200D01*
X172786779Y-84537200D02*
X172739160Y-84489580D01*
X150648682Y-116154819D02*
X150315349Y-115678628D01*
X150077254Y-116154819D02*
X150077254Y-115154819D01*
X150077254Y-115154819D02*
X150458206Y-115154819D01*
X150458206Y-115154819D02*
X150553444Y-115202438D01*
X150553444Y-115202438D02*
X150601063Y-115250057D01*
X150601063Y-115250057D02*
X150648682Y-115345295D01*
X150648682Y-115345295D02*
X150648682Y-115488152D01*
X150648682Y-115488152D02*
X150601063Y-115583390D01*
X150601063Y-115583390D02*
X150553444Y-115631009D01*
X150553444Y-115631009D02*
X150458206Y-115678628D01*
X150458206Y-115678628D02*
X150077254Y-115678628D01*
X151601063Y-116154819D02*
X151029635Y-116154819D01*
X151315349Y-116154819D02*
X151315349Y-115154819D01*
X151315349Y-115154819D02*
X151220111Y-115297676D01*
X151220111Y-115297676D02*
X151124873Y-115392914D01*
X151124873Y-115392914D02*
X151029635Y-115440533D01*
X152458206Y-115488152D02*
X152458206Y-116154819D01*
X152220111Y-115107200D02*
X151982016Y-115821485D01*
X151982016Y-115821485D02*
X152601063Y-115821485D01*
X151124873Y-122709580D02*
X151077254Y-122757200D01*
X151077254Y-122757200D02*
X150934397Y-122804819D01*
X150934397Y-122804819D02*
X150839159Y-122804819D01*
X150839159Y-122804819D02*
X150696302Y-122757200D01*
X150696302Y-122757200D02*
X150601064Y-122661961D01*
X150601064Y-122661961D02*
X150553445Y-122566723D01*
X150553445Y-122566723D02*
X150505826Y-122376247D01*
X150505826Y-122376247D02*
X150505826Y-122233390D01*
X150505826Y-122233390D02*
X150553445Y-122042914D01*
X150553445Y-122042914D02*
X150601064Y-121947676D01*
X150601064Y-121947676D02*
X150696302Y-121852438D01*
X150696302Y-121852438D02*
X150839159Y-121804819D01*
X150839159Y-121804819D02*
X150934397Y-121804819D01*
X150934397Y-121804819D02*
X151077254Y-121852438D01*
X151077254Y-121852438D02*
X151124873Y-121900057D01*
X151982016Y-121804819D02*
X151791540Y-121804819D01*
X151791540Y-121804819D02*
X151696302Y-121852438D01*
X151696302Y-121852438D02*
X151648683Y-121900057D01*
X151648683Y-121900057D02*
X151553445Y-122042914D01*
X151553445Y-122042914D02*
X151505826Y-122233390D01*
X151505826Y-122233390D02*
X151505826Y-122614342D01*
X151505826Y-122614342D02*
X151553445Y-122709580D01*
X151553445Y-122709580D02*
X151601064Y-122757200D01*
X151601064Y-122757200D02*
X151696302Y-122804819D01*
X151696302Y-122804819D02*
X151886778Y-122804819D01*
X151886778Y-122804819D02*
X151982016Y-122757200D01*
X151982016Y-122757200D02*
X152029635Y-122709580D01*
X152029635Y-122709580D02*
X152077254Y-122614342D01*
X152077254Y-122614342D02*
X152077254Y-122376247D01*
X152077254Y-122376247D02*
X152029635Y-122281009D01*
X152029635Y-122281009D02*
X151982016Y-122233390D01*
X151982016Y-122233390D02*
X151886778Y-122185771D01*
X151886778Y-122185771D02*
X151696302Y-122185771D01*
X151696302Y-122185771D02*
X151601064Y-122233390D01*
X151601064Y-122233390D02*
X151553445Y-122281009D01*
X151553445Y-122281009D02*
X151505826Y-122376247D01*
X166022490Y-112346009D02*
X165689157Y-112346009D01*
X165689157Y-112869819D02*
X165689157Y-111869819D01*
X165689157Y-111869819D02*
X166165347Y-111869819D01*
X166879633Y-112346009D02*
X167022490Y-112393628D01*
X167022490Y-112393628D02*
X167070109Y-112441247D01*
X167070109Y-112441247D02*
X167117728Y-112536485D01*
X167117728Y-112536485D02*
X167117728Y-112679342D01*
X167117728Y-112679342D02*
X167070109Y-112774580D01*
X167070109Y-112774580D02*
X167022490Y-112822200D01*
X167022490Y-112822200D02*
X166927252Y-112869819D01*
X166927252Y-112869819D02*
X166546300Y-112869819D01*
X166546300Y-112869819D02*
X166546300Y-111869819D01*
X166546300Y-111869819D02*
X166879633Y-111869819D01*
X166879633Y-111869819D02*
X166974871Y-111917438D01*
X166974871Y-111917438D02*
X167022490Y-111965057D01*
X167022490Y-111965057D02*
X167070109Y-112060295D01*
X167070109Y-112060295D02*
X167070109Y-112155533D01*
X167070109Y-112155533D02*
X167022490Y-112250771D01*
X167022490Y-112250771D02*
X166974871Y-112298390D01*
X166974871Y-112298390D02*
X166879633Y-112346009D01*
X166879633Y-112346009D02*
X166546300Y-112346009D01*
X167451062Y-111869819D02*
X168070109Y-111869819D01*
X168070109Y-111869819D02*
X167736776Y-112250771D01*
X167736776Y-112250771D02*
X167879633Y-112250771D01*
X167879633Y-112250771D02*
X167974871Y-112298390D01*
X167974871Y-112298390D02*
X168022490Y-112346009D01*
X168022490Y-112346009D02*
X168070109Y-112441247D01*
X168070109Y-112441247D02*
X168070109Y-112679342D01*
X168070109Y-112679342D02*
X168022490Y-112774580D01*
X168022490Y-112774580D02*
X167974871Y-112822200D01*
X167974871Y-112822200D02*
X167879633Y-112869819D01*
X167879633Y-112869819D02*
X167593919Y-112869819D01*
X167593919Y-112869819D02*
X167498681Y-112822200D01*
X167498681Y-112822200D02*
X167451062Y-112774580D01*
X171810585Y-122709580D02*
X171762966Y-122757200D01*
X171762966Y-122757200D02*
X171620109Y-122804819D01*
X171620109Y-122804819D02*
X171524871Y-122804819D01*
X171524871Y-122804819D02*
X171382014Y-122757200D01*
X171382014Y-122757200D02*
X171286776Y-122661961D01*
X171286776Y-122661961D02*
X171239157Y-122566723D01*
X171239157Y-122566723D02*
X171191538Y-122376247D01*
X171191538Y-122376247D02*
X171191538Y-122233390D01*
X171191538Y-122233390D02*
X171239157Y-122042914D01*
X171239157Y-122042914D02*
X171286776Y-121947676D01*
X171286776Y-121947676D02*
X171382014Y-121852438D01*
X171382014Y-121852438D02*
X171524871Y-121804819D01*
X171524871Y-121804819D02*
X171620109Y-121804819D01*
X171620109Y-121804819D02*
X171762966Y-121852438D01*
X171762966Y-121852438D02*
X171810585Y-121900057D01*
X172191538Y-121900057D02*
X172239157Y-121852438D01*
X172239157Y-121852438D02*
X172334395Y-121804819D01*
X172334395Y-121804819D02*
X172572490Y-121804819D01*
X172572490Y-121804819D02*
X172667728Y-121852438D01*
X172667728Y-121852438D02*
X172715347Y-121900057D01*
X172715347Y-121900057D02*
X172762966Y-121995295D01*
X172762966Y-121995295D02*
X172762966Y-122090533D01*
X172762966Y-122090533D02*
X172715347Y-122233390D01*
X172715347Y-122233390D02*
X172143919Y-122804819D01*
X172143919Y-122804819D02*
X172762966Y-122804819D01*
X145727256Y-84489580D02*
X145679637Y-84537200D01*
X145679637Y-84537200D02*
X145536780Y-84584819D01*
X145536780Y-84584819D02*
X145441542Y-84584819D01*
X145441542Y-84584819D02*
X145298685Y-84537200D01*
X145298685Y-84537200D02*
X145203447Y-84441961D01*
X145203447Y-84441961D02*
X145155828Y-84346723D01*
X145155828Y-84346723D02*
X145108209Y-84156247D01*
X145108209Y-84156247D02*
X145108209Y-84013390D01*
X145108209Y-84013390D02*
X145155828Y-83822914D01*
X145155828Y-83822914D02*
X145203447Y-83727676D01*
X145203447Y-83727676D02*
X145298685Y-83632438D01*
X145298685Y-83632438D02*
X145441542Y-83584819D01*
X145441542Y-83584819D02*
X145536780Y-83584819D01*
X145536780Y-83584819D02*
X145679637Y-83632438D01*
X145679637Y-83632438D02*
X145727256Y-83680057D01*
X146679637Y-84584819D02*
X146108209Y-84584819D01*
X146393923Y-84584819D02*
X146393923Y-83584819D01*
X146393923Y-83584819D02*
X146298685Y-83727676D01*
X146298685Y-83727676D02*
X146203447Y-83822914D01*
X146203447Y-83822914D02*
X146108209Y-83870533D01*
X147298685Y-83584819D02*
X147393923Y-83584819D01*
X147393923Y-83584819D02*
X147489161Y-83632438D01*
X147489161Y-83632438D02*
X147536780Y-83680057D01*
X147536780Y-83680057D02*
X147584399Y-83775295D01*
X147584399Y-83775295D02*
X147632018Y-83965771D01*
X147632018Y-83965771D02*
X147632018Y-84203866D01*
X147632018Y-84203866D02*
X147584399Y-84394342D01*
X147584399Y-84394342D02*
X147536780Y-84489580D01*
X147536780Y-84489580D02*
X147489161Y-84537200D01*
X147489161Y-84537200D02*
X147393923Y-84584819D01*
X147393923Y-84584819D02*
X147298685Y-84584819D01*
X147298685Y-84584819D02*
X147203447Y-84537200D01*
X147203447Y-84537200D02*
X147155828Y-84489580D01*
X147155828Y-84489580D02*
X147108209Y-84394342D01*
X147108209Y-84394342D02*
X147060590Y-84203866D01*
X147060590Y-84203866D02*
X147060590Y-83965771D01*
X147060590Y-83965771D02*
X147108209Y-83775295D01*
X147108209Y-83775295D02*
X147155828Y-83680057D01*
X147155828Y-83680057D02*
X147203447Y-83632438D01*
X147203447Y-83632438D02*
X147298685Y-83584819D01*
X140591542Y-87964819D02*
X140258209Y-87488628D01*
X140020114Y-87964819D02*
X140020114Y-86964819D01*
X140020114Y-86964819D02*
X140401066Y-86964819D01*
X140401066Y-86964819D02*
X140496304Y-87012438D01*
X140496304Y-87012438D02*
X140543923Y-87060057D01*
X140543923Y-87060057D02*
X140591542Y-87155295D01*
X140591542Y-87155295D02*
X140591542Y-87298152D01*
X140591542Y-87298152D02*
X140543923Y-87393390D01*
X140543923Y-87393390D02*
X140496304Y-87441009D01*
X140496304Y-87441009D02*
X140401066Y-87488628D01*
X140401066Y-87488628D02*
X140020114Y-87488628D01*
X141543923Y-87964819D02*
X140972495Y-87964819D01*
X141258209Y-87964819D02*
X141258209Y-86964819D01*
X141258209Y-86964819D02*
X141162971Y-87107676D01*
X141162971Y-87107676D02*
X141067733Y-87202914D01*
X141067733Y-87202914D02*
X140972495Y-87250533D01*
X141877257Y-86964819D02*
X142543923Y-86964819D01*
X142543923Y-86964819D02*
X142115352Y-87964819D01*
X161134398Y-84489580D02*
X161086779Y-84537200D01*
X161086779Y-84537200D02*
X160943922Y-84584819D01*
X160943922Y-84584819D02*
X160848684Y-84584819D01*
X160848684Y-84584819D02*
X160705827Y-84537200D01*
X160705827Y-84537200D02*
X160610589Y-84441961D01*
X160610589Y-84441961D02*
X160562970Y-84346723D01*
X160562970Y-84346723D02*
X160515351Y-84156247D01*
X160515351Y-84156247D02*
X160515351Y-84013390D01*
X160515351Y-84013390D02*
X160562970Y-83822914D01*
X160562970Y-83822914D02*
X160610589Y-83727676D01*
X160610589Y-83727676D02*
X160705827Y-83632438D01*
X160705827Y-83632438D02*
X160848684Y-83584819D01*
X160848684Y-83584819D02*
X160943922Y-83584819D01*
X160943922Y-83584819D02*
X161086779Y-83632438D01*
X161086779Y-83632438D02*
X161134398Y-83680057D01*
X162086779Y-84584819D02*
X161515351Y-84584819D01*
X161801065Y-84584819D02*
X161801065Y-83584819D01*
X161801065Y-83584819D02*
X161705827Y-83727676D01*
X161705827Y-83727676D02*
X161610589Y-83822914D01*
X161610589Y-83822914D02*
X161515351Y-83870533D01*
X162420113Y-83584819D02*
X163039160Y-83584819D01*
X163039160Y-83584819D02*
X162705827Y-83965771D01*
X162705827Y-83965771D02*
X162848684Y-83965771D01*
X162848684Y-83965771D02*
X162943922Y-84013390D01*
X162943922Y-84013390D02*
X162991541Y-84061009D01*
X162991541Y-84061009D02*
X163039160Y-84156247D01*
X163039160Y-84156247D02*
X163039160Y-84394342D01*
X163039160Y-84394342D02*
X162991541Y-84489580D01*
X162991541Y-84489580D02*
X162943922Y-84537200D01*
X162943922Y-84537200D02*
X162848684Y-84584819D01*
X162848684Y-84584819D02*
X162562970Y-84584819D01*
X162562970Y-84584819D02*
X162467732Y-84537200D01*
X162467732Y-84537200D02*
X162420113Y-84489580D01*
X176982017Y-116154819D02*
X176648684Y-115678628D01*
X176410589Y-116154819D02*
X176410589Y-115154819D01*
X176410589Y-115154819D02*
X176791541Y-115154819D01*
X176791541Y-115154819D02*
X176886779Y-115202438D01*
X176886779Y-115202438D02*
X176934398Y-115250057D01*
X176934398Y-115250057D02*
X176982017Y-115345295D01*
X176982017Y-115345295D02*
X176982017Y-115488152D01*
X176982017Y-115488152D02*
X176934398Y-115583390D01*
X176934398Y-115583390D02*
X176886779Y-115631009D01*
X176886779Y-115631009D02*
X176791541Y-115678628D01*
X176791541Y-115678628D02*
X176410589Y-115678628D01*
X177886779Y-115154819D02*
X177410589Y-115154819D01*
X177410589Y-115154819D02*
X177362970Y-115631009D01*
X177362970Y-115631009D02*
X177410589Y-115583390D01*
X177410589Y-115583390D02*
X177505827Y-115535771D01*
X177505827Y-115535771D02*
X177743922Y-115535771D01*
X177743922Y-115535771D02*
X177839160Y-115583390D01*
X177839160Y-115583390D02*
X177886779Y-115631009D01*
X177886779Y-115631009D02*
X177934398Y-115726247D01*
X177934398Y-115726247D02*
X177934398Y-115964342D01*
X177934398Y-115964342D02*
X177886779Y-116059580D01*
X177886779Y-116059580D02*
X177839160Y-116107200D01*
X177839160Y-116107200D02*
X177743922Y-116154819D01*
X177743922Y-116154819D02*
X177505827Y-116154819D01*
X177505827Y-116154819D02*
X177410589Y-116107200D01*
X177410589Y-116107200D02*
X177362970Y-116059580D01*
X138789160Y-105481009D02*
X138455827Y-105481009D01*
X138455827Y-106004819D02*
X138455827Y-105004819D01*
X138455827Y-105004819D02*
X138932017Y-105004819D01*
X139646303Y-105481009D02*
X139789160Y-105528628D01*
X139789160Y-105528628D02*
X139836779Y-105576247D01*
X139836779Y-105576247D02*
X139884398Y-105671485D01*
X139884398Y-105671485D02*
X139884398Y-105814342D01*
X139884398Y-105814342D02*
X139836779Y-105909580D01*
X139836779Y-105909580D02*
X139789160Y-105957200D01*
X139789160Y-105957200D02*
X139693922Y-106004819D01*
X139693922Y-106004819D02*
X139312970Y-106004819D01*
X139312970Y-106004819D02*
X139312970Y-105004819D01*
X139312970Y-105004819D02*
X139646303Y-105004819D01*
X139646303Y-105004819D02*
X139741541Y-105052438D01*
X139741541Y-105052438D02*
X139789160Y-105100057D01*
X139789160Y-105100057D02*
X139836779Y-105195295D01*
X139836779Y-105195295D02*
X139836779Y-105290533D01*
X139836779Y-105290533D02*
X139789160Y-105385771D01*
X139789160Y-105385771D02*
X139741541Y-105433390D01*
X139741541Y-105433390D02*
X139646303Y-105481009D01*
X139646303Y-105481009D02*
X139312970Y-105481009D01*
X140836779Y-106004819D02*
X140265351Y-106004819D01*
X140551065Y-106004819D02*
X140551065Y-105004819D01*
X140551065Y-105004819D02*
X140455827Y-105147676D01*
X140455827Y-105147676D02*
X140360589Y-105242914D01*
X140360589Y-105242914D02*
X140265351Y-105290533D01*
X141408208Y-105433390D02*
X141312970Y-105385771D01*
X141312970Y-105385771D02*
X141265351Y-105338152D01*
X141265351Y-105338152D02*
X141217732Y-105242914D01*
X141217732Y-105242914D02*
X141217732Y-105195295D01*
X141217732Y-105195295D02*
X141265351Y-105100057D01*
X141265351Y-105100057D02*
X141312970Y-105052438D01*
X141312970Y-105052438D02*
X141408208Y-105004819D01*
X141408208Y-105004819D02*
X141598684Y-105004819D01*
X141598684Y-105004819D02*
X141693922Y-105052438D01*
X141693922Y-105052438D02*
X141741541Y-105100057D01*
X141741541Y-105100057D02*
X141789160Y-105195295D01*
X141789160Y-105195295D02*
X141789160Y-105242914D01*
X141789160Y-105242914D02*
X141741541Y-105338152D01*
X141741541Y-105338152D02*
X141693922Y-105385771D01*
X141693922Y-105385771D02*
X141598684Y-105433390D01*
X141598684Y-105433390D02*
X141408208Y-105433390D01*
X141408208Y-105433390D02*
X141312970Y-105481009D01*
X141312970Y-105481009D02*
X141265351Y-105528628D01*
X141265351Y-105528628D02*
X141217732Y-105623866D01*
X141217732Y-105623866D02*
X141217732Y-105814342D01*
X141217732Y-105814342D02*
X141265351Y-105909580D01*
X141265351Y-105909580D02*
X141312970Y-105957200D01*
X141312970Y-105957200D02*
X141408208Y-106004819D01*
X141408208Y-106004819D02*
X141598684Y-106004819D01*
X141598684Y-106004819D02*
X141693922Y-105957200D01*
X141693922Y-105957200D02*
X141741541Y-105909580D01*
X141741541Y-105909580D02*
X141789160Y-105814342D01*
X141789160Y-105814342D02*
X141789160Y-105623866D01*
X141789160Y-105623866D02*
X141741541Y-105528628D01*
X141741541Y-105528628D02*
X141693922Y-105481009D01*
X141693922Y-105481009D02*
X141598684Y-105433390D01*
X140782017Y-122709580D02*
X140734398Y-122757200D01*
X140734398Y-122757200D02*
X140591541Y-122804819D01*
X140591541Y-122804819D02*
X140496303Y-122804819D01*
X140496303Y-122804819D02*
X140353446Y-122757200D01*
X140353446Y-122757200D02*
X140258208Y-122661961D01*
X140258208Y-122661961D02*
X140210589Y-122566723D01*
X140210589Y-122566723D02*
X140162970Y-122376247D01*
X140162970Y-122376247D02*
X140162970Y-122233390D01*
X140162970Y-122233390D02*
X140210589Y-122042914D01*
X140210589Y-122042914D02*
X140258208Y-121947676D01*
X140258208Y-121947676D02*
X140353446Y-121852438D01*
X140353446Y-121852438D02*
X140496303Y-121804819D01*
X140496303Y-121804819D02*
X140591541Y-121804819D01*
X140591541Y-121804819D02*
X140734398Y-121852438D01*
X140734398Y-121852438D02*
X140782017Y-121900057D01*
X141353446Y-122233390D02*
X141258208Y-122185771D01*
X141258208Y-122185771D02*
X141210589Y-122138152D01*
X141210589Y-122138152D02*
X141162970Y-122042914D01*
X141162970Y-122042914D02*
X141162970Y-121995295D01*
X141162970Y-121995295D02*
X141210589Y-121900057D01*
X141210589Y-121900057D02*
X141258208Y-121852438D01*
X141258208Y-121852438D02*
X141353446Y-121804819D01*
X141353446Y-121804819D02*
X141543922Y-121804819D01*
X141543922Y-121804819D02*
X141639160Y-121852438D01*
X141639160Y-121852438D02*
X141686779Y-121900057D01*
X141686779Y-121900057D02*
X141734398Y-121995295D01*
X141734398Y-121995295D02*
X141734398Y-122042914D01*
X141734398Y-122042914D02*
X141686779Y-122138152D01*
X141686779Y-122138152D02*
X141639160Y-122185771D01*
X141639160Y-122185771D02*
X141543922Y-122233390D01*
X141543922Y-122233390D02*
X141353446Y-122233390D01*
X141353446Y-122233390D02*
X141258208Y-122281009D01*
X141258208Y-122281009D02*
X141210589Y-122328628D01*
X141210589Y-122328628D02*
X141162970Y-122423866D01*
X141162970Y-122423866D02*
X141162970Y-122614342D01*
X141162970Y-122614342D02*
X141210589Y-122709580D01*
X141210589Y-122709580D02*
X141258208Y-122757200D01*
X141258208Y-122757200D02*
X141353446Y-122804819D01*
X141353446Y-122804819D02*
X141543922Y-122804819D01*
X141543922Y-122804819D02*
X141639160Y-122757200D01*
X141639160Y-122757200D02*
X141686779Y-122709580D01*
X141686779Y-122709580D02*
X141734398Y-122614342D01*
X141734398Y-122614342D02*
X141734398Y-122423866D01*
X141734398Y-122423866D02*
X141686779Y-122328628D01*
X141686779Y-122328628D02*
X141639160Y-122281009D01*
X141639160Y-122281009D02*
X141543922Y-122233390D01*
X140401066Y-94281009D02*
X140067733Y-94281009D01*
X140067733Y-94804819D02*
X140067733Y-93804819D01*
X140067733Y-93804819D02*
X140543923Y-93804819D01*
X141258209Y-94281009D02*
X141401066Y-94328628D01*
X141401066Y-94328628D02*
X141448685Y-94376247D01*
X141448685Y-94376247D02*
X141496304Y-94471485D01*
X141496304Y-94471485D02*
X141496304Y-94614342D01*
X141496304Y-94614342D02*
X141448685Y-94709580D01*
X141448685Y-94709580D02*
X141401066Y-94757200D01*
X141401066Y-94757200D02*
X141305828Y-94804819D01*
X141305828Y-94804819D02*
X140924876Y-94804819D01*
X140924876Y-94804819D02*
X140924876Y-93804819D01*
X140924876Y-93804819D02*
X141258209Y-93804819D01*
X141258209Y-93804819D02*
X141353447Y-93852438D01*
X141353447Y-93852438D02*
X141401066Y-93900057D01*
X141401066Y-93900057D02*
X141448685Y-93995295D01*
X141448685Y-93995295D02*
X141448685Y-94090533D01*
X141448685Y-94090533D02*
X141401066Y-94185771D01*
X141401066Y-94185771D02*
X141353447Y-94233390D01*
X141353447Y-94233390D02*
X141258209Y-94281009D01*
X141258209Y-94281009D02*
X140924876Y-94281009D01*
X141972495Y-94804819D02*
X142162971Y-94804819D01*
X142162971Y-94804819D02*
X142258209Y-94757200D01*
X142258209Y-94757200D02*
X142305828Y-94709580D01*
X142305828Y-94709580D02*
X142401066Y-94566723D01*
X142401066Y-94566723D02*
X142448685Y-94376247D01*
X142448685Y-94376247D02*
X142448685Y-93995295D01*
X142448685Y-93995295D02*
X142401066Y-93900057D01*
X142401066Y-93900057D02*
X142353447Y-93852438D01*
X142353447Y-93852438D02*
X142258209Y-93804819D01*
X142258209Y-93804819D02*
X142067733Y-93804819D01*
X142067733Y-93804819D02*
X141972495Y-93852438D01*
X141972495Y-93852438D02*
X141924876Y-93900057D01*
X141924876Y-93900057D02*
X141877257Y-93995295D01*
X141877257Y-93995295D02*
X141877257Y-94233390D01*
X141877257Y-94233390D02*
X141924876Y-94328628D01*
X141924876Y-94328628D02*
X141972495Y-94376247D01*
X141972495Y-94376247D02*
X142067733Y-94423866D01*
X142067733Y-94423866D02*
X142258209Y-94423866D01*
X142258209Y-94423866D02*
X142353447Y-94376247D01*
X142353447Y-94376247D02*
X142401066Y-94328628D01*
X142401066Y-94328628D02*
X142448685Y-94233390D01*
X150862970Y-87964819D02*
X150529637Y-87488628D01*
X150291542Y-87964819D02*
X150291542Y-86964819D01*
X150291542Y-86964819D02*
X150672494Y-86964819D01*
X150672494Y-86964819D02*
X150767732Y-87012438D01*
X150767732Y-87012438D02*
X150815351Y-87060057D01*
X150815351Y-87060057D02*
X150862970Y-87155295D01*
X150862970Y-87155295D02*
X150862970Y-87298152D01*
X150862970Y-87298152D02*
X150815351Y-87393390D01*
X150815351Y-87393390D02*
X150767732Y-87441009D01*
X150767732Y-87441009D02*
X150672494Y-87488628D01*
X150672494Y-87488628D02*
X150291542Y-87488628D01*
X151815351Y-87964819D02*
X151243923Y-87964819D01*
X151529637Y-87964819D02*
X151529637Y-86964819D01*
X151529637Y-86964819D02*
X151434399Y-87107676D01*
X151434399Y-87107676D02*
X151339161Y-87202914D01*
X151339161Y-87202914D02*
X151243923Y-87250533D01*
X152291542Y-87964819D02*
X152482018Y-87964819D01*
X152482018Y-87964819D02*
X152577256Y-87917200D01*
X152577256Y-87917200D02*
X152624875Y-87869580D01*
X152624875Y-87869580D02*
X152720113Y-87726723D01*
X152720113Y-87726723D02*
X152767732Y-87536247D01*
X152767732Y-87536247D02*
X152767732Y-87155295D01*
X152767732Y-87155295D02*
X152720113Y-87060057D01*
X152720113Y-87060057D02*
X152672494Y-87012438D01*
X152672494Y-87012438D02*
X152577256Y-86964819D01*
X152577256Y-86964819D02*
X152386780Y-86964819D01*
X152386780Y-86964819D02*
X152291542Y-87012438D01*
X152291542Y-87012438D02*
X152243923Y-87060057D01*
X152243923Y-87060057D02*
X152196304Y-87155295D01*
X152196304Y-87155295D02*
X152196304Y-87393390D01*
X152196304Y-87393390D02*
X152243923Y-87488628D01*
X152243923Y-87488628D02*
X152291542Y-87536247D01*
X152291542Y-87536247D02*
X152386780Y-87583866D01*
X152386780Y-87583866D02*
X152577256Y-87583866D01*
X152577256Y-87583866D02*
X152672494Y-87536247D01*
X152672494Y-87536247D02*
X152720113Y-87488628D01*
X152720113Y-87488628D02*
X152767732Y-87393390D01*
X140591542Y-91554819D02*
X140258209Y-91078628D01*
X140020114Y-91554819D02*
X140020114Y-90554819D01*
X140020114Y-90554819D02*
X140401066Y-90554819D01*
X140401066Y-90554819D02*
X140496304Y-90602438D01*
X140496304Y-90602438D02*
X140543923Y-90650057D01*
X140543923Y-90650057D02*
X140591542Y-90745295D01*
X140591542Y-90745295D02*
X140591542Y-90888152D01*
X140591542Y-90888152D02*
X140543923Y-90983390D01*
X140543923Y-90983390D02*
X140496304Y-91031009D01*
X140496304Y-91031009D02*
X140401066Y-91078628D01*
X140401066Y-91078628D02*
X140020114Y-91078628D01*
X140972495Y-90650057D02*
X141020114Y-90602438D01*
X141020114Y-90602438D02*
X141115352Y-90554819D01*
X141115352Y-90554819D02*
X141353447Y-90554819D01*
X141353447Y-90554819D02*
X141448685Y-90602438D01*
X141448685Y-90602438D02*
X141496304Y-90650057D01*
X141496304Y-90650057D02*
X141543923Y-90745295D01*
X141543923Y-90745295D02*
X141543923Y-90840533D01*
X141543923Y-90840533D02*
X141496304Y-90983390D01*
X141496304Y-90983390D02*
X140924876Y-91554819D01*
X140924876Y-91554819D02*
X141543923Y-91554819D01*
X142496304Y-91554819D02*
X141924876Y-91554819D01*
X142210590Y-91554819D02*
X142210590Y-90554819D01*
X142210590Y-90554819D02*
X142115352Y-90697676D01*
X142115352Y-90697676D02*
X142020114Y-90792914D01*
X142020114Y-90792914D02*
X141924876Y-90840533D01*
X156346301Y-119454819D02*
X156012968Y-118978628D01*
X155774873Y-119454819D02*
X155774873Y-118454819D01*
X155774873Y-118454819D02*
X156155825Y-118454819D01*
X156155825Y-118454819D02*
X156251063Y-118502438D01*
X156251063Y-118502438D02*
X156298682Y-118550057D01*
X156298682Y-118550057D02*
X156346301Y-118645295D01*
X156346301Y-118645295D02*
X156346301Y-118788152D01*
X156346301Y-118788152D02*
X156298682Y-118883390D01*
X156298682Y-118883390D02*
X156251063Y-118931009D01*
X156251063Y-118931009D02*
X156155825Y-118978628D01*
X156155825Y-118978628D02*
X155774873Y-118978628D01*
X156822492Y-119454819D02*
X157012968Y-119454819D01*
X157012968Y-119454819D02*
X157108206Y-119407200D01*
X157108206Y-119407200D02*
X157155825Y-119359580D01*
X157155825Y-119359580D02*
X157251063Y-119216723D01*
X157251063Y-119216723D02*
X157298682Y-119026247D01*
X157298682Y-119026247D02*
X157298682Y-118645295D01*
X157298682Y-118645295D02*
X157251063Y-118550057D01*
X157251063Y-118550057D02*
X157203444Y-118502438D01*
X157203444Y-118502438D02*
X157108206Y-118454819D01*
X157108206Y-118454819D02*
X156917730Y-118454819D01*
X156917730Y-118454819D02*
X156822492Y-118502438D01*
X156822492Y-118502438D02*
X156774873Y-118550057D01*
X156774873Y-118550057D02*
X156727254Y-118645295D01*
X156727254Y-118645295D02*
X156727254Y-118883390D01*
X156727254Y-118883390D02*
X156774873Y-118978628D01*
X156774873Y-118978628D02*
X156822492Y-119026247D01*
X156822492Y-119026247D02*
X156917730Y-119073866D01*
X156917730Y-119073866D02*
X157108206Y-119073866D01*
X157108206Y-119073866D02*
X157203444Y-119026247D01*
X157203444Y-119026247D02*
X157251063Y-118978628D01*
X157251063Y-118978628D02*
X157298682Y-118883390D01*
X160467732Y-94281009D02*
X160134399Y-94281009D01*
X160134399Y-94804819D02*
X160134399Y-93804819D01*
X160134399Y-93804819D02*
X160610589Y-93804819D01*
X161324875Y-94281009D02*
X161467732Y-94328628D01*
X161467732Y-94328628D02*
X161515351Y-94376247D01*
X161515351Y-94376247D02*
X161562970Y-94471485D01*
X161562970Y-94471485D02*
X161562970Y-94614342D01*
X161562970Y-94614342D02*
X161515351Y-94709580D01*
X161515351Y-94709580D02*
X161467732Y-94757200D01*
X161467732Y-94757200D02*
X161372494Y-94804819D01*
X161372494Y-94804819D02*
X160991542Y-94804819D01*
X160991542Y-94804819D02*
X160991542Y-93804819D01*
X160991542Y-93804819D02*
X161324875Y-93804819D01*
X161324875Y-93804819D02*
X161420113Y-93852438D01*
X161420113Y-93852438D02*
X161467732Y-93900057D01*
X161467732Y-93900057D02*
X161515351Y-93995295D01*
X161515351Y-93995295D02*
X161515351Y-94090533D01*
X161515351Y-94090533D02*
X161467732Y-94185771D01*
X161467732Y-94185771D02*
X161420113Y-94233390D01*
X161420113Y-94233390D02*
X161324875Y-94281009D01*
X161324875Y-94281009D02*
X160991542Y-94281009D01*
X162515351Y-94804819D02*
X161943923Y-94804819D01*
X162229637Y-94804819D02*
X162229637Y-93804819D01*
X162229637Y-93804819D02*
X162134399Y-93947676D01*
X162134399Y-93947676D02*
X162039161Y-94042914D01*
X162039161Y-94042914D02*
X161943923Y-94090533D01*
X162848685Y-93804819D02*
X163467732Y-93804819D01*
X163467732Y-93804819D02*
X163134399Y-94185771D01*
X163134399Y-94185771D02*
X163277256Y-94185771D01*
X163277256Y-94185771D02*
X163372494Y-94233390D01*
X163372494Y-94233390D02*
X163420113Y-94281009D01*
X163420113Y-94281009D02*
X163467732Y-94376247D01*
X163467732Y-94376247D02*
X163467732Y-94614342D01*
X163467732Y-94614342D02*
X163420113Y-94709580D01*
X163420113Y-94709580D02*
X163372494Y-94757200D01*
X163372494Y-94757200D02*
X163277256Y-94804819D01*
X163277256Y-94804819D02*
X162991542Y-94804819D01*
X162991542Y-94804819D02*
X162896304Y-94757200D01*
X162896304Y-94757200D02*
X162848685Y-94709580D01*
X145727256Y-87964819D02*
X145393923Y-87488628D01*
X145155828Y-87964819D02*
X145155828Y-86964819D01*
X145155828Y-86964819D02*
X145536780Y-86964819D01*
X145536780Y-86964819D02*
X145632018Y-87012438D01*
X145632018Y-87012438D02*
X145679637Y-87060057D01*
X145679637Y-87060057D02*
X145727256Y-87155295D01*
X145727256Y-87155295D02*
X145727256Y-87298152D01*
X145727256Y-87298152D02*
X145679637Y-87393390D01*
X145679637Y-87393390D02*
X145632018Y-87441009D01*
X145632018Y-87441009D02*
X145536780Y-87488628D01*
X145536780Y-87488628D02*
X145155828Y-87488628D01*
X146679637Y-87964819D02*
X146108209Y-87964819D01*
X146393923Y-87964819D02*
X146393923Y-86964819D01*
X146393923Y-86964819D02*
X146298685Y-87107676D01*
X146298685Y-87107676D02*
X146203447Y-87202914D01*
X146203447Y-87202914D02*
X146108209Y-87250533D01*
X147251066Y-87393390D02*
X147155828Y-87345771D01*
X147155828Y-87345771D02*
X147108209Y-87298152D01*
X147108209Y-87298152D02*
X147060590Y-87202914D01*
X147060590Y-87202914D02*
X147060590Y-87155295D01*
X147060590Y-87155295D02*
X147108209Y-87060057D01*
X147108209Y-87060057D02*
X147155828Y-87012438D01*
X147155828Y-87012438D02*
X147251066Y-86964819D01*
X147251066Y-86964819D02*
X147441542Y-86964819D01*
X147441542Y-86964819D02*
X147536780Y-87012438D01*
X147536780Y-87012438D02*
X147584399Y-87060057D01*
X147584399Y-87060057D02*
X147632018Y-87155295D01*
X147632018Y-87155295D02*
X147632018Y-87202914D01*
X147632018Y-87202914D02*
X147584399Y-87298152D01*
X147584399Y-87298152D02*
X147536780Y-87345771D01*
X147536780Y-87345771D02*
X147441542Y-87393390D01*
X147441542Y-87393390D02*
X147251066Y-87393390D01*
X147251066Y-87393390D02*
X147155828Y-87441009D01*
X147155828Y-87441009D02*
X147108209Y-87488628D01*
X147108209Y-87488628D02*
X147060590Y-87583866D01*
X147060590Y-87583866D02*
X147060590Y-87774342D01*
X147060590Y-87774342D02*
X147108209Y-87869580D01*
X147108209Y-87869580D02*
X147155828Y-87917200D01*
X147155828Y-87917200D02*
X147251066Y-87964819D01*
X147251066Y-87964819D02*
X147441542Y-87964819D01*
X147441542Y-87964819D02*
X147536780Y-87917200D01*
X147536780Y-87917200D02*
X147584399Y-87869580D01*
X147584399Y-87869580D02*
X147632018Y-87774342D01*
X147632018Y-87774342D02*
X147632018Y-87583866D01*
X147632018Y-87583866D02*
X147584399Y-87488628D01*
X147584399Y-87488628D02*
X147536780Y-87441009D01*
X147536780Y-87441009D02*
X147441542Y-87393390D01*
X150862970Y-91554819D02*
X150529637Y-91078628D01*
X150291542Y-91554819D02*
X150291542Y-90554819D01*
X150291542Y-90554819D02*
X150672494Y-90554819D01*
X150672494Y-90554819D02*
X150767732Y-90602438D01*
X150767732Y-90602438D02*
X150815351Y-90650057D01*
X150815351Y-90650057D02*
X150862970Y-90745295D01*
X150862970Y-90745295D02*
X150862970Y-90888152D01*
X150862970Y-90888152D02*
X150815351Y-90983390D01*
X150815351Y-90983390D02*
X150767732Y-91031009D01*
X150767732Y-91031009D02*
X150672494Y-91078628D01*
X150672494Y-91078628D02*
X150291542Y-91078628D01*
X151243923Y-90650057D02*
X151291542Y-90602438D01*
X151291542Y-90602438D02*
X151386780Y-90554819D01*
X151386780Y-90554819D02*
X151624875Y-90554819D01*
X151624875Y-90554819D02*
X151720113Y-90602438D01*
X151720113Y-90602438D02*
X151767732Y-90650057D01*
X151767732Y-90650057D02*
X151815351Y-90745295D01*
X151815351Y-90745295D02*
X151815351Y-90840533D01*
X151815351Y-90840533D02*
X151767732Y-90983390D01*
X151767732Y-90983390D02*
X151196304Y-91554819D01*
X151196304Y-91554819D02*
X151815351Y-91554819D01*
X152148685Y-90554819D02*
X152767732Y-90554819D01*
X152767732Y-90554819D02*
X152434399Y-90935771D01*
X152434399Y-90935771D02*
X152577256Y-90935771D01*
X152577256Y-90935771D02*
X152672494Y-90983390D01*
X152672494Y-90983390D02*
X152720113Y-91031009D01*
X152720113Y-91031009D02*
X152767732Y-91126247D01*
X152767732Y-91126247D02*
X152767732Y-91364342D01*
X152767732Y-91364342D02*
X152720113Y-91459580D01*
X152720113Y-91459580D02*
X152672494Y-91507200D01*
X152672494Y-91507200D02*
X152577256Y-91554819D01*
X152577256Y-91554819D02*
X152291542Y-91554819D01*
X152291542Y-91554819D02*
X152196304Y-91507200D01*
X152196304Y-91507200D02*
X152148685Y-91459580D01*
X145060590Y-94281009D02*
X144727257Y-94281009D01*
X144727257Y-94804819D02*
X144727257Y-93804819D01*
X144727257Y-93804819D02*
X145203447Y-93804819D01*
X145917733Y-94281009D02*
X146060590Y-94328628D01*
X146060590Y-94328628D02*
X146108209Y-94376247D01*
X146108209Y-94376247D02*
X146155828Y-94471485D01*
X146155828Y-94471485D02*
X146155828Y-94614342D01*
X146155828Y-94614342D02*
X146108209Y-94709580D01*
X146108209Y-94709580D02*
X146060590Y-94757200D01*
X146060590Y-94757200D02*
X145965352Y-94804819D01*
X145965352Y-94804819D02*
X145584400Y-94804819D01*
X145584400Y-94804819D02*
X145584400Y-93804819D01*
X145584400Y-93804819D02*
X145917733Y-93804819D01*
X145917733Y-93804819D02*
X146012971Y-93852438D01*
X146012971Y-93852438D02*
X146060590Y-93900057D01*
X146060590Y-93900057D02*
X146108209Y-93995295D01*
X146108209Y-93995295D02*
X146108209Y-94090533D01*
X146108209Y-94090533D02*
X146060590Y-94185771D01*
X146060590Y-94185771D02*
X146012971Y-94233390D01*
X146012971Y-94233390D02*
X145917733Y-94281009D01*
X145917733Y-94281009D02*
X145584400Y-94281009D01*
X147108209Y-94804819D02*
X146536781Y-94804819D01*
X146822495Y-94804819D02*
X146822495Y-93804819D01*
X146822495Y-93804819D02*
X146727257Y-93947676D01*
X146727257Y-93947676D02*
X146632019Y-94042914D01*
X146632019Y-94042914D02*
X146536781Y-94090533D01*
X147727257Y-93804819D02*
X147822495Y-93804819D01*
X147822495Y-93804819D02*
X147917733Y-93852438D01*
X147917733Y-93852438D02*
X147965352Y-93900057D01*
X147965352Y-93900057D02*
X148012971Y-93995295D01*
X148012971Y-93995295D02*
X148060590Y-94185771D01*
X148060590Y-94185771D02*
X148060590Y-94423866D01*
X148060590Y-94423866D02*
X148012971Y-94614342D01*
X148012971Y-94614342D02*
X147965352Y-94709580D01*
X147965352Y-94709580D02*
X147917733Y-94757200D01*
X147917733Y-94757200D02*
X147822495Y-94804819D01*
X147822495Y-94804819D02*
X147727257Y-94804819D01*
X147727257Y-94804819D02*
X147632019Y-94757200D01*
X147632019Y-94757200D02*
X147584400Y-94709580D01*
X147584400Y-94709580D02*
X147536781Y-94614342D01*
X147536781Y-94614342D02*
X147489162Y-94423866D01*
X147489162Y-94423866D02*
X147489162Y-94185771D01*
X147489162Y-94185771D02*
X147536781Y-93995295D01*
X147536781Y-93995295D02*
X147584400Y-93900057D01*
X147584400Y-93900057D02*
X147632019Y-93852438D01*
X147632019Y-93852438D02*
X147727257Y-93804819D01*
X145517254Y-116154819D02*
X145183921Y-115678628D01*
X144945826Y-116154819D02*
X144945826Y-115154819D01*
X144945826Y-115154819D02*
X145326778Y-115154819D01*
X145326778Y-115154819D02*
X145422016Y-115202438D01*
X145422016Y-115202438D02*
X145469635Y-115250057D01*
X145469635Y-115250057D02*
X145517254Y-115345295D01*
X145517254Y-115345295D02*
X145517254Y-115488152D01*
X145517254Y-115488152D02*
X145469635Y-115583390D01*
X145469635Y-115583390D02*
X145422016Y-115631009D01*
X145422016Y-115631009D02*
X145326778Y-115678628D01*
X145326778Y-115678628D02*
X144945826Y-115678628D01*
X146469635Y-116154819D02*
X145898207Y-116154819D01*
X146183921Y-116154819D02*
X146183921Y-115154819D01*
X146183921Y-115154819D02*
X146088683Y-115297676D01*
X146088683Y-115297676D02*
X145993445Y-115392914D01*
X145993445Y-115392914D02*
X145898207Y-115440533D01*
X147374397Y-115154819D02*
X146898207Y-115154819D01*
X146898207Y-115154819D02*
X146850588Y-115631009D01*
X146850588Y-115631009D02*
X146898207Y-115583390D01*
X146898207Y-115583390D02*
X146993445Y-115535771D01*
X146993445Y-115535771D02*
X147231540Y-115535771D01*
X147231540Y-115535771D02*
X147326778Y-115583390D01*
X147326778Y-115583390D02*
X147374397Y-115631009D01*
X147374397Y-115631009D02*
X147422016Y-115726247D01*
X147422016Y-115726247D02*
X147422016Y-115964342D01*
X147422016Y-115964342D02*
X147374397Y-116059580D01*
X147374397Y-116059580D02*
X147326778Y-116107200D01*
X147326778Y-116107200D02*
X147231540Y-116154819D01*
X147231540Y-116154819D02*
X146993445Y-116154819D01*
X146993445Y-116154819D02*
X146898207Y-116107200D01*
X146898207Y-116107200D02*
X146850588Y-116059580D01*
X155998684Y-87964819D02*
X155665351Y-87488628D01*
X155427256Y-87964819D02*
X155427256Y-86964819D01*
X155427256Y-86964819D02*
X155808208Y-86964819D01*
X155808208Y-86964819D02*
X155903446Y-87012438D01*
X155903446Y-87012438D02*
X155951065Y-87060057D01*
X155951065Y-87060057D02*
X155998684Y-87155295D01*
X155998684Y-87155295D02*
X155998684Y-87298152D01*
X155998684Y-87298152D02*
X155951065Y-87393390D01*
X155951065Y-87393390D02*
X155903446Y-87441009D01*
X155903446Y-87441009D02*
X155808208Y-87488628D01*
X155808208Y-87488628D02*
X155427256Y-87488628D01*
X156379637Y-87060057D02*
X156427256Y-87012438D01*
X156427256Y-87012438D02*
X156522494Y-86964819D01*
X156522494Y-86964819D02*
X156760589Y-86964819D01*
X156760589Y-86964819D02*
X156855827Y-87012438D01*
X156855827Y-87012438D02*
X156903446Y-87060057D01*
X156903446Y-87060057D02*
X156951065Y-87155295D01*
X156951065Y-87155295D02*
X156951065Y-87250533D01*
X156951065Y-87250533D02*
X156903446Y-87393390D01*
X156903446Y-87393390D02*
X156332018Y-87964819D01*
X156332018Y-87964819D02*
X156951065Y-87964819D01*
X157570113Y-86964819D02*
X157665351Y-86964819D01*
X157665351Y-86964819D02*
X157760589Y-87012438D01*
X157760589Y-87012438D02*
X157808208Y-87060057D01*
X157808208Y-87060057D02*
X157855827Y-87155295D01*
X157855827Y-87155295D02*
X157903446Y-87345771D01*
X157903446Y-87345771D02*
X157903446Y-87583866D01*
X157903446Y-87583866D02*
X157855827Y-87774342D01*
X157855827Y-87774342D02*
X157808208Y-87869580D01*
X157808208Y-87869580D02*
X157760589Y-87917200D01*
X157760589Y-87917200D02*
X157665351Y-87964819D01*
X157665351Y-87964819D02*
X157570113Y-87964819D01*
X157570113Y-87964819D02*
X157474875Y-87917200D01*
X157474875Y-87917200D02*
X157427256Y-87869580D01*
X157427256Y-87869580D02*
X157379637Y-87774342D01*
X157379637Y-87774342D02*
X157332018Y-87583866D01*
X157332018Y-87583866D02*
X157332018Y-87345771D01*
X157332018Y-87345771D02*
X157379637Y-87155295D01*
X157379637Y-87155295D02*
X157427256Y-87060057D01*
X157427256Y-87060057D02*
X157474875Y-87012438D01*
X157474875Y-87012438D02*
X157570113Y-86964819D01*
X166689157Y-119454819D02*
X166355824Y-118978628D01*
X166117729Y-119454819D02*
X166117729Y-118454819D01*
X166117729Y-118454819D02*
X166498681Y-118454819D01*
X166498681Y-118454819D02*
X166593919Y-118502438D01*
X166593919Y-118502438D02*
X166641538Y-118550057D01*
X166641538Y-118550057D02*
X166689157Y-118645295D01*
X166689157Y-118645295D02*
X166689157Y-118788152D01*
X166689157Y-118788152D02*
X166641538Y-118883390D01*
X166641538Y-118883390D02*
X166593919Y-118931009D01*
X166593919Y-118931009D02*
X166498681Y-118978628D01*
X166498681Y-118978628D02*
X166117729Y-118978628D01*
X167022491Y-118454819D02*
X167641538Y-118454819D01*
X167641538Y-118454819D02*
X167308205Y-118835771D01*
X167308205Y-118835771D02*
X167451062Y-118835771D01*
X167451062Y-118835771D02*
X167546300Y-118883390D01*
X167546300Y-118883390D02*
X167593919Y-118931009D01*
X167593919Y-118931009D02*
X167641538Y-119026247D01*
X167641538Y-119026247D02*
X167641538Y-119264342D01*
X167641538Y-119264342D02*
X167593919Y-119359580D01*
X167593919Y-119359580D02*
X167546300Y-119407200D01*
X167546300Y-119407200D02*
X167451062Y-119454819D01*
X167451062Y-119454819D02*
X167165348Y-119454819D01*
X167165348Y-119454819D02*
X167070110Y-119407200D01*
X167070110Y-119407200D02*
X167022491Y-119359580D01*
X161134398Y-87964819D02*
X160801065Y-87488628D01*
X160562970Y-87964819D02*
X160562970Y-86964819D01*
X160562970Y-86964819D02*
X160943922Y-86964819D01*
X160943922Y-86964819D02*
X161039160Y-87012438D01*
X161039160Y-87012438D02*
X161086779Y-87060057D01*
X161086779Y-87060057D02*
X161134398Y-87155295D01*
X161134398Y-87155295D02*
X161134398Y-87298152D01*
X161134398Y-87298152D02*
X161086779Y-87393390D01*
X161086779Y-87393390D02*
X161039160Y-87441009D01*
X161039160Y-87441009D02*
X160943922Y-87488628D01*
X160943922Y-87488628D02*
X160562970Y-87488628D01*
X161515351Y-87060057D02*
X161562970Y-87012438D01*
X161562970Y-87012438D02*
X161658208Y-86964819D01*
X161658208Y-86964819D02*
X161896303Y-86964819D01*
X161896303Y-86964819D02*
X161991541Y-87012438D01*
X161991541Y-87012438D02*
X162039160Y-87060057D01*
X162039160Y-87060057D02*
X162086779Y-87155295D01*
X162086779Y-87155295D02*
X162086779Y-87250533D01*
X162086779Y-87250533D02*
X162039160Y-87393390D01*
X162039160Y-87393390D02*
X161467732Y-87964819D01*
X161467732Y-87964819D02*
X162086779Y-87964819D01*
X162991541Y-86964819D02*
X162515351Y-86964819D01*
X162515351Y-86964819D02*
X162467732Y-87441009D01*
X162467732Y-87441009D02*
X162515351Y-87393390D01*
X162515351Y-87393390D02*
X162610589Y-87345771D01*
X162610589Y-87345771D02*
X162848684Y-87345771D01*
X162848684Y-87345771D02*
X162943922Y-87393390D01*
X162943922Y-87393390D02*
X162991541Y-87441009D01*
X162991541Y-87441009D02*
X163039160Y-87536247D01*
X163039160Y-87536247D02*
X163039160Y-87774342D01*
X163039160Y-87774342D02*
X162991541Y-87869580D01*
X162991541Y-87869580D02*
X162943922Y-87917200D01*
X162943922Y-87917200D02*
X162848684Y-87964819D01*
X162848684Y-87964819D02*
X162610589Y-87964819D01*
X162610589Y-87964819D02*
X162515351Y-87917200D01*
X162515351Y-87917200D02*
X162467732Y-87869580D01*
X165603446Y-94331009D02*
X165270113Y-94331009D01*
X165270113Y-94854819D02*
X165270113Y-93854819D01*
X165270113Y-93854819D02*
X165746303Y-93854819D01*
X166460589Y-94331009D02*
X166603446Y-94378628D01*
X166603446Y-94378628D02*
X166651065Y-94426247D01*
X166651065Y-94426247D02*
X166698684Y-94521485D01*
X166698684Y-94521485D02*
X166698684Y-94664342D01*
X166698684Y-94664342D02*
X166651065Y-94759580D01*
X166651065Y-94759580D02*
X166603446Y-94807200D01*
X166603446Y-94807200D02*
X166508208Y-94854819D01*
X166508208Y-94854819D02*
X166127256Y-94854819D01*
X166127256Y-94854819D02*
X166127256Y-93854819D01*
X166127256Y-93854819D02*
X166460589Y-93854819D01*
X166460589Y-93854819D02*
X166555827Y-93902438D01*
X166555827Y-93902438D02*
X166603446Y-93950057D01*
X166603446Y-93950057D02*
X166651065Y-94045295D01*
X166651065Y-94045295D02*
X166651065Y-94140533D01*
X166651065Y-94140533D02*
X166603446Y-94235771D01*
X166603446Y-94235771D02*
X166555827Y-94283390D01*
X166555827Y-94283390D02*
X166460589Y-94331009D01*
X166460589Y-94331009D02*
X166127256Y-94331009D01*
X167651065Y-94854819D02*
X167079637Y-94854819D01*
X167365351Y-94854819D02*
X167365351Y-93854819D01*
X167365351Y-93854819D02*
X167270113Y-93997676D01*
X167270113Y-93997676D02*
X167174875Y-94092914D01*
X167174875Y-94092914D02*
X167079637Y-94140533D01*
X168508208Y-94188152D02*
X168508208Y-94854819D01*
X168270113Y-93807200D02*
X168032018Y-94521485D01*
X168032018Y-94521485D02*
X168651065Y-94521485D01*
X145953445Y-122709580D02*
X145905826Y-122757200D01*
X145905826Y-122757200D02*
X145762969Y-122804819D01*
X145762969Y-122804819D02*
X145667731Y-122804819D01*
X145667731Y-122804819D02*
X145524874Y-122757200D01*
X145524874Y-122757200D02*
X145429636Y-122661961D01*
X145429636Y-122661961D02*
X145382017Y-122566723D01*
X145382017Y-122566723D02*
X145334398Y-122376247D01*
X145334398Y-122376247D02*
X145334398Y-122233390D01*
X145334398Y-122233390D02*
X145382017Y-122042914D01*
X145382017Y-122042914D02*
X145429636Y-121947676D01*
X145429636Y-121947676D02*
X145524874Y-121852438D01*
X145524874Y-121852438D02*
X145667731Y-121804819D01*
X145667731Y-121804819D02*
X145762969Y-121804819D01*
X145762969Y-121804819D02*
X145905826Y-121852438D01*
X145905826Y-121852438D02*
X145953445Y-121900057D01*
X146286779Y-121804819D02*
X146953445Y-121804819D01*
X146953445Y-121804819D02*
X146524874Y-122804819D01*
X166270112Y-88014819D02*
X165936779Y-87538628D01*
X165698684Y-88014819D02*
X165698684Y-87014819D01*
X165698684Y-87014819D02*
X166079636Y-87014819D01*
X166079636Y-87014819D02*
X166174874Y-87062438D01*
X166174874Y-87062438D02*
X166222493Y-87110057D01*
X166222493Y-87110057D02*
X166270112Y-87205295D01*
X166270112Y-87205295D02*
X166270112Y-87348152D01*
X166270112Y-87348152D02*
X166222493Y-87443390D01*
X166222493Y-87443390D02*
X166174874Y-87491009D01*
X166174874Y-87491009D02*
X166079636Y-87538628D01*
X166079636Y-87538628D02*
X165698684Y-87538628D01*
X166651065Y-87110057D02*
X166698684Y-87062438D01*
X166698684Y-87062438D02*
X166793922Y-87014819D01*
X166793922Y-87014819D02*
X167032017Y-87014819D01*
X167032017Y-87014819D02*
X167127255Y-87062438D01*
X167127255Y-87062438D02*
X167174874Y-87110057D01*
X167174874Y-87110057D02*
X167222493Y-87205295D01*
X167222493Y-87205295D02*
X167222493Y-87300533D01*
X167222493Y-87300533D02*
X167174874Y-87443390D01*
X167174874Y-87443390D02*
X166603446Y-88014819D01*
X166603446Y-88014819D02*
X167222493Y-88014819D01*
X168079636Y-87014819D02*
X167889160Y-87014819D01*
X167889160Y-87014819D02*
X167793922Y-87062438D01*
X167793922Y-87062438D02*
X167746303Y-87110057D01*
X167746303Y-87110057D02*
X167651065Y-87252914D01*
X167651065Y-87252914D02*
X167603446Y-87443390D01*
X167603446Y-87443390D02*
X167603446Y-87824342D01*
X167603446Y-87824342D02*
X167651065Y-87919580D01*
X167651065Y-87919580D02*
X167698684Y-87967200D01*
X167698684Y-87967200D02*
X167793922Y-88014819D01*
X167793922Y-88014819D02*
X167984398Y-88014819D01*
X167984398Y-88014819D02*
X168079636Y-87967200D01*
X168079636Y-87967200D02*
X168127255Y-87919580D01*
X168127255Y-87919580D02*
X168174874Y-87824342D01*
X168174874Y-87824342D02*
X168174874Y-87586247D01*
X168174874Y-87586247D02*
X168127255Y-87491009D01*
X168127255Y-87491009D02*
X168079636Y-87443390D01*
X168079636Y-87443390D02*
X167984398Y-87395771D01*
X167984398Y-87395771D02*
X167793922Y-87395771D01*
X167793922Y-87395771D02*
X167698684Y-87443390D01*
X167698684Y-87443390D02*
X167651065Y-87491009D01*
X167651065Y-87491009D02*
X167603446Y-87586247D01*
X155679634Y-112346009D02*
X155346301Y-112346009D01*
X155346301Y-112869819D02*
X155346301Y-111869819D01*
X155346301Y-111869819D02*
X155822491Y-111869819D01*
X156536777Y-112346009D02*
X156679634Y-112393628D01*
X156679634Y-112393628D02*
X156727253Y-112441247D01*
X156727253Y-112441247D02*
X156774872Y-112536485D01*
X156774872Y-112536485D02*
X156774872Y-112679342D01*
X156774872Y-112679342D02*
X156727253Y-112774580D01*
X156727253Y-112774580D02*
X156679634Y-112822200D01*
X156679634Y-112822200D02*
X156584396Y-112869819D01*
X156584396Y-112869819D02*
X156203444Y-112869819D01*
X156203444Y-112869819D02*
X156203444Y-111869819D01*
X156203444Y-111869819D02*
X156536777Y-111869819D01*
X156536777Y-111869819D02*
X156632015Y-111917438D01*
X156632015Y-111917438D02*
X156679634Y-111965057D01*
X156679634Y-111965057D02*
X156727253Y-112060295D01*
X156727253Y-112060295D02*
X156727253Y-112155533D01*
X156727253Y-112155533D02*
X156679634Y-112250771D01*
X156679634Y-112250771D02*
X156632015Y-112298390D01*
X156632015Y-112298390D02*
X156536777Y-112346009D01*
X156536777Y-112346009D02*
X156203444Y-112346009D01*
X157679634Y-111869819D02*
X157203444Y-111869819D01*
X157203444Y-111869819D02*
X157155825Y-112346009D01*
X157155825Y-112346009D02*
X157203444Y-112298390D01*
X157203444Y-112298390D02*
X157298682Y-112250771D01*
X157298682Y-112250771D02*
X157536777Y-112250771D01*
X157536777Y-112250771D02*
X157632015Y-112298390D01*
X157632015Y-112298390D02*
X157679634Y-112346009D01*
X157679634Y-112346009D02*
X157727253Y-112441247D01*
X157727253Y-112441247D02*
X157727253Y-112679342D01*
X157727253Y-112679342D02*
X157679634Y-112774580D01*
X157679634Y-112774580D02*
X157632015Y-112822200D01*
X157632015Y-112822200D02*
X157536777Y-112869819D01*
X157536777Y-112869819D02*
X157298682Y-112869819D01*
X157298682Y-112869819D02*
X157203444Y-112822200D01*
X157203444Y-112822200D02*
X157155825Y-112774580D01*
X166265112Y-91604819D02*
X165931779Y-91128628D01*
X165693684Y-91604819D02*
X165693684Y-90604819D01*
X165693684Y-90604819D02*
X166074636Y-90604819D01*
X166074636Y-90604819D02*
X166169874Y-90652438D01*
X166169874Y-90652438D02*
X166217493Y-90700057D01*
X166217493Y-90700057D02*
X166265112Y-90795295D01*
X166265112Y-90795295D02*
X166265112Y-90938152D01*
X166265112Y-90938152D02*
X166217493Y-91033390D01*
X166217493Y-91033390D02*
X166169874Y-91081009D01*
X166169874Y-91081009D02*
X166074636Y-91128628D01*
X166074636Y-91128628D02*
X165693684Y-91128628D01*
X166598446Y-90604819D02*
X167217493Y-90604819D01*
X167217493Y-90604819D02*
X166884160Y-90985771D01*
X166884160Y-90985771D02*
X167027017Y-90985771D01*
X167027017Y-90985771D02*
X167122255Y-91033390D01*
X167122255Y-91033390D02*
X167169874Y-91081009D01*
X167169874Y-91081009D02*
X167217493Y-91176247D01*
X167217493Y-91176247D02*
X167217493Y-91414342D01*
X167217493Y-91414342D02*
X167169874Y-91509580D01*
X167169874Y-91509580D02*
X167122255Y-91557200D01*
X167122255Y-91557200D02*
X167027017Y-91604819D01*
X167027017Y-91604819D02*
X166741303Y-91604819D01*
X166741303Y-91604819D02*
X166646065Y-91557200D01*
X166646065Y-91557200D02*
X166598446Y-91509580D01*
X167836541Y-90604819D02*
X167931779Y-90604819D01*
X167931779Y-90604819D02*
X168027017Y-90652438D01*
X168027017Y-90652438D02*
X168074636Y-90700057D01*
X168074636Y-90700057D02*
X168122255Y-90795295D01*
X168122255Y-90795295D02*
X168169874Y-90985771D01*
X168169874Y-90985771D02*
X168169874Y-91223866D01*
X168169874Y-91223866D02*
X168122255Y-91414342D01*
X168122255Y-91414342D02*
X168074636Y-91509580D01*
X168074636Y-91509580D02*
X168027017Y-91557200D01*
X168027017Y-91557200D02*
X167931779Y-91604819D01*
X167931779Y-91604819D02*
X167836541Y-91604819D01*
X167836541Y-91604819D02*
X167741303Y-91557200D01*
X167741303Y-91557200D02*
X167693684Y-91509580D01*
X167693684Y-91509580D02*
X167646065Y-91414342D01*
X167646065Y-91414342D02*
X167598446Y-91223866D01*
X167598446Y-91223866D02*
X167598446Y-90985771D01*
X167598446Y-90985771D02*
X167646065Y-90795295D01*
X167646065Y-90795295D02*
X167693684Y-90700057D01*
X167693684Y-90700057D02*
X167741303Y-90652438D01*
X167741303Y-90652438D02*
X167836541Y-90604819D01*
X166639157Y-122709580D02*
X166591538Y-122757200D01*
X166591538Y-122757200D02*
X166448681Y-122804819D01*
X166448681Y-122804819D02*
X166353443Y-122804819D01*
X166353443Y-122804819D02*
X166210586Y-122757200D01*
X166210586Y-122757200D02*
X166115348Y-122661961D01*
X166115348Y-122661961D02*
X166067729Y-122566723D01*
X166067729Y-122566723D02*
X166020110Y-122376247D01*
X166020110Y-122376247D02*
X166020110Y-122233390D01*
X166020110Y-122233390D02*
X166067729Y-122042914D01*
X166067729Y-122042914D02*
X166115348Y-121947676D01*
X166115348Y-121947676D02*
X166210586Y-121852438D01*
X166210586Y-121852438D02*
X166353443Y-121804819D01*
X166353443Y-121804819D02*
X166448681Y-121804819D01*
X166448681Y-121804819D02*
X166591538Y-121852438D01*
X166591538Y-121852438D02*
X166639157Y-121900057D01*
X166972491Y-121804819D02*
X167591538Y-121804819D01*
X167591538Y-121804819D02*
X167258205Y-122185771D01*
X167258205Y-122185771D02*
X167401062Y-122185771D01*
X167401062Y-122185771D02*
X167496300Y-122233390D01*
X167496300Y-122233390D02*
X167543919Y-122281009D01*
X167543919Y-122281009D02*
X167591538Y-122376247D01*
X167591538Y-122376247D02*
X167591538Y-122614342D01*
X167591538Y-122614342D02*
X167543919Y-122709580D01*
X167543919Y-122709580D02*
X167496300Y-122757200D01*
X167496300Y-122757200D02*
X167401062Y-122804819D01*
X167401062Y-122804819D02*
X167115348Y-122804819D01*
X167115348Y-122804819D02*
X167020110Y-122757200D01*
X167020110Y-122757200D02*
X166972491Y-122709580D01*
X178860588Y-106150438D02*
X178765350Y-106102819D01*
X178765350Y-106102819D02*
X178622493Y-106102819D01*
X178622493Y-106102819D02*
X178479636Y-106150438D01*
X178479636Y-106150438D02*
X178384398Y-106245676D01*
X178384398Y-106245676D02*
X178336779Y-106340914D01*
X178336779Y-106340914D02*
X178289160Y-106531390D01*
X178289160Y-106531390D02*
X178289160Y-106674247D01*
X178289160Y-106674247D02*
X178336779Y-106864723D01*
X178336779Y-106864723D02*
X178384398Y-106959961D01*
X178384398Y-106959961D02*
X178479636Y-107055200D01*
X178479636Y-107055200D02*
X178622493Y-107102819D01*
X178622493Y-107102819D02*
X178717731Y-107102819D01*
X178717731Y-107102819D02*
X178860588Y-107055200D01*
X178860588Y-107055200D02*
X178908207Y-107007580D01*
X178908207Y-107007580D02*
X178908207Y-106674247D01*
X178908207Y-106674247D02*
X178717731Y-106674247D01*
X179336779Y-107102819D02*
X179336779Y-106102819D01*
X179336779Y-106102819D02*
X179908207Y-107102819D01*
X179908207Y-107102819D02*
X179908207Y-106102819D01*
X180384398Y-107102819D02*
X180384398Y-106102819D01*
X180384398Y-106102819D02*
X180622493Y-106102819D01*
X180622493Y-106102819D02*
X180765350Y-106150438D01*
X180765350Y-106150438D02*
X180860588Y-106245676D01*
X180860588Y-106245676D02*
X180908207Y-106340914D01*
X180908207Y-106340914D02*
X180955826Y-106531390D01*
X180955826Y-106531390D02*
X180955826Y-106674247D01*
X180955826Y-106674247D02*
X180908207Y-106864723D01*
X180908207Y-106864723D02*
X180860588Y-106959961D01*
X180860588Y-106959961D02*
X180765350Y-107055200D01*
X180765350Y-107055200D02*
X180622493Y-107102819D01*
X180622493Y-107102819D02*
X180384398Y-107102819D01*
X181908207Y-107102819D02*
X181336779Y-107102819D01*
X181622493Y-107102819D02*
X181622493Y-106102819D01*
X181622493Y-106102819D02*
X181527255Y-106245676D01*
X181527255Y-106245676D02*
X181432017Y-106340914D01*
X181432017Y-106340914D02*
X181336779Y-106388533D01*
X179544819Y-103310839D02*
X178544819Y-103310839D01*
X178544819Y-103310839D02*
X178544819Y-102929887D01*
X178544819Y-102929887D02*
X178592438Y-102834649D01*
X178592438Y-102834649D02*
X178640057Y-102787030D01*
X178640057Y-102787030D02*
X178735295Y-102739411D01*
X178735295Y-102739411D02*
X178878152Y-102739411D01*
X178878152Y-102739411D02*
X178973390Y-102787030D01*
X178973390Y-102787030D02*
X179021009Y-102834649D01*
X179021009Y-102834649D02*
X179068628Y-102929887D01*
X179068628Y-102929887D02*
X179068628Y-103310839D01*
X179544819Y-102167982D02*
X179497200Y-102263220D01*
X179497200Y-102263220D02*
X179449580Y-102310839D01*
X179449580Y-102310839D02*
X179354342Y-102358458D01*
X179354342Y-102358458D02*
X179068628Y-102358458D01*
X179068628Y-102358458D02*
X178973390Y-102310839D01*
X178973390Y-102310839D02*
X178925771Y-102263220D01*
X178925771Y-102263220D02*
X178878152Y-102167982D01*
X178878152Y-102167982D02*
X178878152Y-102025125D01*
X178878152Y-102025125D02*
X178925771Y-101929887D01*
X178925771Y-101929887D02*
X178973390Y-101882268D01*
X178973390Y-101882268D02*
X179068628Y-101834649D01*
X179068628Y-101834649D02*
X179354342Y-101834649D01*
X179354342Y-101834649D02*
X179449580Y-101882268D01*
X179449580Y-101882268D02*
X179497200Y-101929887D01*
X179497200Y-101929887D02*
X179544819Y-102025125D01*
X179544819Y-102025125D02*
X179544819Y-102167982D01*
X178878152Y-101501315D02*
X179544819Y-101310839D01*
X179544819Y-101310839D02*
X179068628Y-101120363D01*
X179068628Y-101120363D02*
X179544819Y-100929887D01*
X179544819Y-100929887D02*
X178878152Y-100739411D01*
X179497200Y-99977506D02*
X179544819Y-100072744D01*
X179544819Y-100072744D02*
X179544819Y-100263220D01*
X179544819Y-100263220D02*
X179497200Y-100358458D01*
X179497200Y-100358458D02*
X179401961Y-100406077D01*
X179401961Y-100406077D02*
X179021009Y-100406077D01*
X179021009Y-100406077D02*
X178925771Y-100358458D01*
X178925771Y-100358458D02*
X178878152Y-100263220D01*
X178878152Y-100263220D02*
X178878152Y-100072744D01*
X178878152Y-100072744D02*
X178925771Y-99977506D01*
X178925771Y-99977506D02*
X179021009Y-99929887D01*
X179021009Y-99929887D02*
X179116247Y-99929887D01*
X179116247Y-99929887D02*
X179211485Y-100406077D01*
X179544819Y-99501315D02*
X178878152Y-99501315D01*
X179068628Y-99501315D02*
X178973390Y-99453696D01*
X178973390Y-99453696D02*
X178925771Y-99406077D01*
X178925771Y-99406077D02*
X178878152Y-99310839D01*
X178878152Y-99310839D02*
X178878152Y-99215601D01*
X179544819Y-98406077D02*
X179544819Y-98882267D01*
X179544819Y-98882267D02*
X178544819Y-98882267D01*
X179021009Y-98072743D02*
X179021009Y-97739410D01*
X179544819Y-97596553D02*
X179544819Y-98072743D01*
X179544819Y-98072743D02*
X178544819Y-98072743D01*
X178544819Y-98072743D02*
X178544819Y-97596553D01*
X179544819Y-97167981D02*
X178544819Y-97167981D01*
X178544819Y-97167981D02*
X178544819Y-96929886D01*
X178544819Y-96929886D02*
X178592438Y-96787029D01*
X178592438Y-96787029D02*
X178687676Y-96691791D01*
X178687676Y-96691791D02*
X178782914Y-96644172D01*
X178782914Y-96644172D02*
X178973390Y-96596553D01*
X178973390Y-96596553D02*
X179116247Y-96596553D01*
X179116247Y-96596553D02*
X179306723Y-96644172D01*
X179306723Y-96644172D02*
X179401961Y-96691791D01*
X179401961Y-96691791D02*
X179497200Y-96787029D01*
X179497200Y-96787029D02*
X179544819Y-96929886D01*
X179544819Y-96929886D02*
X179544819Y-97167981D01*
X179544819Y-95644172D02*
X179544819Y-96215600D01*
X179544819Y-95929886D02*
X178544819Y-95929886D01*
X178544819Y-95929886D02*
X178687676Y-96025124D01*
X178687676Y-96025124D02*
X178782914Y-96120362D01*
X178782914Y-96120362D02*
X178830533Y-96215600D01*
X176982017Y-122709580D02*
X176934398Y-122757200D01*
X176934398Y-122757200D02*
X176791541Y-122804819D01*
X176791541Y-122804819D02*
X176696303Y-122804819D01*
X176696303Y-122804819D02*
X176553446Y-122757200D01*
X176553446Y-122757200D02*
X176458208Y-122661961D01*
X176458208Y-122661961D02*
X176410589Y-122566723D01*
X176410589Y-122566723D02*
X176362970Y-122376247D01*
X176362970Y-122376247D02*
X176362970Y-122233390D01*
X176362970Y-122233390D02*
X176410589Y-122042914D01*
X176410589Y-122042914D02*
X176458208Y-121947676D01*
X176458208Y-121947676D02*
X176553446Y-121852438D01*
X176553446Y-121852438D02*
X176696303Y-121804819D01*
X176696303Y-121804819D02*
X176791541Y-121804819D01*
X176791541Y-121804819D02*
X176934398Y-121852438D01*
X176934398Y-121852438D02*
X176982017Y-121900057D01*
X177934398Y-122804819D02*
X177362970Y-122804819D01*
X177648684Y-122804819D02*
X177648684Y-121804819D01*
X177648684Y-121804819D02*
X177553446Y-121947676D01*
X177553446Y-121947676D02*
X177458208Y-122042914D01*
X177458208Y-122042914D02*
X177362970Y-122090533D01*
X155332018Y-94281009D02*
X154998685Y-94281009D01*
X154998685Y-94804819D02*
X154998685Y-93804819D01*
X154998685Y-93804819D02*
X155474875Y-93804819D01*
X156189161Y-94281009D02*
X156332018Y-94328628D01*
X156332018Y-94328628D02*
X156379637Y-94376247D01*
X156379637Y-94376247D02*
X156427256Y-94471485D01*
X156427256Y-94471485D02*
X156427256Y-94614342D01*
X156427256Y-94614342D02*
X156379637Y-94709580D01*
X156379637Y-94709580D02*
X156332018Y-94757200D01*
X156332018Y-94757200D02*
X156236780Y-94804819D01*
X156236780Y-94804819D02*
X155855828Y-94804819D01*
X155855828Y-94804819D02*
X155855828Y-93804819D01*
X155855828Y-93804819D02*
X156189161Y-93804819D01*
X156189161Y-93804819D02*
X156284399Y-93852438D01*
X156284399Y-93852438D02*
X156332018Y-93900057D01*
X156332018Y-93900057D02*
X156379637Y-93995295D01*
X156379637Y-93995295D02*
X156379637Y-94090533D01*
X156379637Y-94090533D02*
X156332018Y-94185771D01*
X156332018Y-94185771D02*
X156284399Y-94233390D01*
X156284399Y-94233390D02*
X156189161Y-94281009D01*
X156189161Y-94281009D02*
X155855828Y-94281009D01*
X157379637Y-94804819D02*
X156808209Y-94804819D01*
X157093923Y-94804819D02*
X157093923Y-93804819D01*
X157093923Y-93804819D02*
X156998685Y-93947676D01*
X156998685Y-93947676D02*
X156903447Y-94042914D01*
X156903447Y-94042914D02*
X156808209Y-94090533D01*
X157760590Y-93900057D02*
X157808209Y-93852438D01*
X157808209Y-93852438D02*
X157903447Y-93804819D01*
X157903447Y-93804819D02*
X158141542Y-93804819D01*
X158141542Y-93804819D02*
X158236780Y-93852438D01*
X158236780Y-93852438D02*
X158284399Y-93900057D01*
X158284399Y-93900057D02*
X158332018Y-93995295D01*
X158332018Y-93995295D02*
X158332018Y-94090533D01*
X158332018Y-94090533D02*
X158284399Y-94233390D01*
X158284399Y-94233390D02*
X157712971Y-94804819D01*
X157712971Y-94804819D02*
X158332018Y-94804819D01*
X161517729Y-119454819D02*
X161184396Y-118978628D01*
X160946301Y-119454819D02*
X160946301Y-118454819D01*
X160946301Y-118454819D02*
X161327253Y-118454819D01*
X161327253Y-118454819D02*
X161422491Y-118502438D01*
X161422491Y-118502438D02*
X161470110Y-118550057D01*
X161470110Y-118550057D02*
X161517729Y-118645295D01*
X161517729Y-118645295D02*
X161517729Y-118788152D01*
X161517729Y-118788152D02*
X161470110Y-118883390D01*
X161470110Y-118883390D02*
X161422491Y-118931009D01*
X161422491Y-118931009D02*
X161327253Y-118978628D01*
X161327253Y-118978628D02*
X160946301Y-118978628D01*
X162374872Y-118788152D02*
X162374872Y-119454819D01*
X162136777Y-118407200D02*
X161898682Y-119121485D01*
X161898682Y-119121485D02*
X162517729Y-119121485D01*
X155998684Y-91554819D02*
X155665351Y-91078628D01*
X155427256Y-91554819D02*
X155427256Y-90554819D01*
X155427256Y-90554819D02*
X155808208Y-90554819D01*
X155808208Y-90554819D02*
X155903446Y-90602438D01*
X155903446Y-90602438D02*
X155951065Y-90650057D01*
X155951065Y-90650057D02*
X155998684Y-90745295D01*
X155998684Y-90745295D02*
X155998684Y-90888152D01*
X155998684Y-90888152D02*
X155951065Y-90983390D01*
X155951065Y-90983390D02*
X155903446Y-91031009D01*
X155903446Y-91031009D02*
X155808208Y-91078628D01*
X155808208Y-91078628D02*
X155427256Y-91078628D01*
X156379637Y-90650057D02*
X156427256Y-90602438D01*
X156427256Y-90602438D02*
X156522494Y-90554819D01*
X156522494Y-90554819D02*
X156760589Y-90554819D01*
X156760589Y-90554819D02*
X156855827Y-90602438D01*
X156855827Y-90602438D02*
X156903446Y-90650057D01*
X156903446Y-90650057D02*
X156951065Y-90745295D01*
X156951065Y-90745295D02*
X156951065Y-90840533D01*
X156951065Y-90840533D02*
X156903446Y-90983390D01*
X156903446Y-90983390D02*
X156332018Y-91554819D01*
X156332018Y-91554819D02*
X156951065Y-91554819D01*
X157808208Y-90888152D02*
X157808208Y-91554819D01*
X157570113Y-90507200D02*
X157332018Y-91221485D01*
X157332018Y-91221485D02*
X157951065Y-91221485D01*
X140165350Y-112431009D02*
X139832017Y-112431009D01*
X139832017Y-112954819D02*
X139832017Y-111954819D01*
X139832017Y-111954819D02*
X140308207Y-111954819D01*
X141022493Y-112431009D02*
X141165350Y-112478628D01*
X141165350Y-112478628D02*
X141212969Y-112526247D01*
X141212969Y-112526247D02*
X141260588Y-112621485D01*
X141260588Y-112621485D02*
X141260588Y-112764342D01*
X141260588Y-112764342D02*
X141212969Y-112859580D01*
X141212969Y-112859580D02*
X141165350Y-112907200D01*
X141165350Y-112907200D02*
X141070112Y-112954819D01*
X141070112Y-112954819D02*
X140689160Y-112954819D01*
X140689160Y-112954819D02*
X140689160Y-111954819D01*
X140689160Y-111954819D02*
X141022493Y-111954819D01*
X141022493Y-111954819D02*
X141117731Y-112002438D01*
X141117731Y-112002438D02*
X141165350Y-112050057D01*
X141165350Y-112050057D02*
X141212969Y-112145295D01*
X141212969Y-112145295D02*
X141212969Y-112240533D01*
X141212969Y-112240533D02*
X141165350Y-112335771D01*
X141165350Y-112335771D02*
X141117731Y-112383390D01*
X141117731Y-112383390D02*
X141022493Y-112431009D01*
X141022493Y-112431009D02*
X140689160Y-112431009D01*
X141832017Y-112383390D02*
X141736779Y-112335771D01*
X141736779Y-112335771D02*
X141689160Y-112288152D01*
X141689160Y-112288152D02*
X141641541Y-112192914D01*
X141641541Y-112192914D02*
X141641541Y-112145295D01*
X141641541Y-112145295D02*
X141689160Y-112050057D01*
X141689160Y-112050057D02*
X141736779Y-112002438D01*
X141736779Y-112002438D02*
X141832017Y-111954819D01*
X141832017Y-111954819D02*
X142022493Y-111954819D01*
X142022493Y-111954819D02*
X142117731Y-112002438D01*
X142117731Y-112002438D02*
X142165350Y-112050057D01*
X142165350Y-112050057D02*
X142212969Y-112145295D01*
X142212969Y-112145295D02*
X142212969Y-112192914D01*
X142212969Y-112192914D02*
X142165350Y-112288152D01*
X142165350Y-112288152D02*
X142117731Y-112335771D01*
X142117731Y-112335771D02*
X142022493Y-112383390D01*
X142022493Y-112383390D02*
X141832017Y-112383390D01*
X141832017Y-112383390D02*
X141736779Y-112431009D01*
X141736779Y-112431009D02*
X141689160Y-112478628D01*
X141689160Y-112478628D02*
X141641541Y-112573866D01*
X141641541Y-112573866D02*
X141641541Y-112764342D01*
X141641541Y-112764342D02*
X141689160Y-112859580D01*
X141689160Y-112859580D02*
X141736779Y-112907200D01*
X141736779Y-112907200D02*
X141832017Y-112954819D01*
X141832017Y-112954819D02*
X142022493Y-112954819D01*
X142022493Y-112954819D02*
X142117731Y-112907200D01*
X142117731Y-112907200D02*
X142165350Y-112859580D01*
X142165350Y-112859580D02*
X142212969Y-112764342D01*
X142212969Y-112764342D02*
X142212969Y-112573866D01*
X142212969Y-112573866D02*
X142165350Y-112478628D01*
X142165350Y-112478628D02*
X142117731Y-112431009D01*
X142117731Y-112431009D02*
X142022493Y-112383390D01*
X150862970Y-84489580D02*
X150815351Y-84537200D01*
X150815351Y-84537200D02*
X150672494Y-84584819D01*
X150672494Y-84584819D02*
X150577256Y-84584819D01*
X150577256Y-84584819D02*
X150434399Y-84537200D01*
X150434399Y-84537200D02*
X150339161Y-84441961D01*
X150339161Y-84441961D02*
X150291542Y-84346723D01*
X150291542Y-84346723D02*
X150243923Y-84156247D01*
X150243923Y-84156247D02*
X150243923Y-84013390D01*
X150243923Y-84013390D02*
X150291542Y-83822914D01*
X150291542Y-83822914D02*
X150339161Y-83727676D01*
X150339161Y-83727676D02*
X150434399Y-83632438D01*
X150434399Y-83632438D02*
X150577256Y-83584819D01*
X150577256Y-83584819D02*
X150672494Y-83584819D01*
X150672494Y-83584819D02*
X150815351Y-83632438D01*
X150815351Y-83632438D02*
X150862970Y-83680057D01*
X151815351Y-84584819D02*
X151243923Y-84584819D01*
X151529637Y-84584819D02*
X151529637Y-83584819D01*
X151529637Y-83584819D02*
X151434399Y-83727676D01*
X151434399Y-83727676D02*
X151339161Y-83822914D01*
X151339161Y-83822914D02*
X151243923Y-83870533D01*
X152767732Y-84584819D02*
X152196304Y-84584819D01*
X152482018Y-84584819D02*
X152482018Y-83584819D01*
X152482018Y-83584819D02*
X152386780Y-83727676D01*
X152386780Y-83727676D02*
X152291542Y-83822914D01*
X152291542Y-83822914D02*
X152196304Y-83870533D01*
X176541542Y-87964819D02*
X176208209Y-87488628D01*
X175970114Y-87964819D02*
X175970114Y-86964819D01*
X175970114Y-86964819D02*
X176351066Y-86964819D01*
X176351066Y-86964819D02*
X176446304Y-87012438D01*
X176446304Y-87012438D02*
X176493923Y-87060057D01*
X176493923Y-87060057D02*
X176541542Y-87155295D01*
X176541542Y-87155295D02*
X176541542Y-87298152D01*
X176541542Y-87298152D02*
X176493923Y-87393390D01*
X176493923Y-87393390D02*
X176446304Y-87441009D01*
X176446304Y-87441009D02*
X176351066Y-87488628D01*
X176351066Y-87488628D02*
X175970114Y-87488628D01*
X176922495Y-87060057D02*
X176970114Y-87012438D01*
X176970114Y-87012438D02*
X177065352Y-86964819D01*
X177065352Y-86964819D02*
X177303447Y-86964819D01*
X177303447Y-86964819D02*
X177398685Y-87012438D01*
X177398685Y-87012438D02*
X177446304Y-87060057D01*
X177446304Y-87060057D02*
X177493923Y-87155295D01*
X177493923Y-87155295D02*
X177493923Y-87250533D01*
X177493923Y-87250533D02*
X177446304Y-87393390D01*
X177446304Y-87393390D02*
X176874876Y-87964819D01*
X176874876Y-87964819D02*
X177493923Y-87964819D01*
X178065352Y-87393390D02*
X177970114Y-87345771D01*
X177970114Y-87345771D02*
X177922495Y-87298152D01*
X177922495Y-87298152D02*
X177874876Y-87202914D01*
X177874876Y-87202914D02*
X177874876Y-87155295D01*
X177874876Y-87155295D02*
X177922495Y-87060057D01*
X177922495Y-87060057D02*
X177970114Y-87012438D01*
X177970114Y-87012438D02*
X178065352Y-86964819D01*
X178065352Y-86964819D02*
X178255828Y-86964819D01*
X178255828Y-86964819D02*
X178351066Y-87012438D01*
X178351066Y-87012438D02*
X178398685Y-87060057D01*
X178398685Y-87060057D02*
X178446304Y-87155295D01*
X178446304Y-87155295D02*
X178446304Y-87202914D01*
X178446304Y-87202914D02*
X178398685Y-87298152D01*
X178398685Y-87298152D02*
X178351066Y-87345771D01*
X178351066Y-87345771D02*
X178255828Y-87393390D01*
X178255828Y-87393390D02*
X178065352Y-87393390D01*
X178065352Y-87393390D02*
X177970114Y-87441009D01*
X177970114Y-87441009D02*
X177922495Y-87488628D01*
X177922495Y-87488628D02*
X177874876Y-87583866D01*
X177874876Y-87583866D02*
X177874876Y-87774342D01*
X177874876Y-87774342D02*
X177922495Y-87869580D01*
X177922495Y-87869580D02*
X177970114Y-87917200D01*
X177970114Y-87917200D02*
X178065352Y-87964819D01*
X178065352Y-87964819D02*
X178255828Y-87964819D01*
X178255828Y-87964819D02*
X178351066Y-87917200D01*
X178351066Y-87917200D02*
X178398685Y-87869580D01*
X178398685Y-87869580D02*
X178446304Y-87774342D01*
X178446304Y-87774342D02*
X178446304Y-87583866D01*
X178446304Y-87583866D02*
X178398685Y-87488628D01*
X178398685Y-87488628D02*
X178351066Y-87441009D01*
X178351066Y-87441009D02*
X178255828Y-87393390D01*
X171405826Y-91554819D02*
X171072493Y-91078628D01*
X170834398Y-91554819D02*
X170834398Y-90554819D01*
X170834398Y-90554819D02*
X171215350Y-90554819D01*
X171215350Y-90554819D02*
X171310588Y-90602438D01*
X171310588Y-90602438D02*
X171358207Y-90650057D01*
X171358207Y-90650057D02*
X171405826Y-90745295D01*
X171405826Y-90745295D02*
X171405826Y-90888152D01*
X171405826Y-90888152D02*
X171358207Y-90983390D01*
X171358207Y-90983390D02*
X171310588Y-91031009D01*
X171310588Y-91031009D02*
X171215350Y-91078628D01*
X171215350Y-91078628D02*
X170834398Y-91078628D01*
X171739160Y-90554819D02*
X172358207Y-90554819D01*
X172358207Y-90554819D02*
X172024874Y-90935771D01*
X172024874Y-90935771D02*
X172167731Y-90935771D01*
X172167731Y-90935771D02*
X172262969Y-90983390D01*
X172262969Y-90983390D02*
X172310588Y-91031009D01*
X172310588Y-91031009D02*
X172358207Y-91126247D01*
X172358207Y-91126247D02*
X172358207Y-91364342D01*
X172358207Y-91364342D02*
X172310588Y-91459580D01*
X172310588Y-91459580D02*
X172262969Y-91507200D01*
X172262969Y-91507200D02*
X172167731Y-91554819D01*
X172167731Y-91554819D02*
X171882017Y-91554819D01*
X171882017Y-91554819D02*
X171786779Y-91507200D01*
X171786779Y-91507200D02*
X171739160Y-91459580D01*
X173310588Y-91554819D02*
X172739160Y-91554819D01*
X173024874Y-91554819D02*
X173024874Y-90554819D01*
X173024874Y-90554819D02*
X172929636Y-90697676D01*
X172929636Y-90697676D02*
X172834398Y-90792914D01*
X172834398Y-90792914D02*
X172739160Y-90840533D01*
X161467729Y-122709580D02*
X161420110Y-122757200D01*
X161420110Y-122757200D02*
X161277253Y-122804819D01*
X161277253Y-122804819D02*
X161182015Y-122804819D01*
X161182015Y-122804819D02*
X161039158Y-122757200D01*
X161039158Y-122757200D02*
X160943920Y-122661961D01*
X160943920Y-122661961D02*
X160896301Y-122566723D01*
X160896301Y-122566723D02*
X160848682Y-122376247D01*
X160848682Y-122376247D02*
X160848682Y-122233390D01*
X160848682Y-122233390D02*
X160896301Y-122042914D01*
X160896301Y-122042914D02*
X160943920Y-121947676D01*
X160943920Y-121947676D02*
X161039158Y-121852438D01*
X161039158Y-121852438D02*
X161182015Y-121804819D01*
X161182015Y-121804819D02*
X161277253Y-121804819D01*
X161277253Y-121804819D02*
X161420110Y-121852438D01*
X161420110Y-121852438D02*
X161467729Y-121900057D01*
X162324872Y-122138152D02*
X162324872Y-122804819D01*
X162086777Y-121757200D02*
X161848682Y-122471485D01*
X161848682Y-122471485D02*
X162467729Y-122471485D01*
X122464819Y-103284649D02*
X123179104Y-103284649D01*
X123179104Y-103284649D02*
X123321961Y-103332268D01*
X123321961Y-103332268D02*
X123417200Y-103427506D01*
X123417200Y-103427506D02*
X123464819Y-103570363D01*
X123464819Y-103570363D02*
X123464819Y-103665601D01*
X122464819Y-102903696D02*
X122464819Y-102284649D01*
X122464819Y-102284649D02*
X122845771Y-102617982D01*
X122845771Y-102617982D02*
X122845771Y-102475125D01*
X122845771Y-102475125D02*
X122893390Y-102379887D01*
X122893390Y-102379887D02*
X122941009Y-102332268D01*
X122941009Y-102332268D02*
X123036247Y-102284649D01*
X123036247Y-102284649D02*
X123274342Y-102284649D01*
X123274342Y-102284649D02*
X123369580Y-102332268D01*
X123369580Y-102332268D02*
X123417200Y-102379887D01*
X123417200Y-102379887D02*
X123464819Y-102475125D01*
X123464819Y-102475125D02*
X123464819Y-102760839D01*
X123464819Y-102760839D02*
X123417200Y-102856077D01*
X123417200Y-102856077D02*
X123369580Y-102903696D01*
X150508206Y-112346009D02*
X150174873Y-112346009D01*
X150174873Y-112869819D02*
X150174873Y-111869819D01*
X150174873Y-111869819D02*
X150651063Y-111869819D01*
X151365349Y-112346009D02*
X151508206Y-112393628D01*
X151508206Y-112393628D02*
X151555825Y-112441247D01*
X151555825Y-112441247D02*
X151603444Y-112536485D01*
X151603444Y-112536485D02*
X151603444Y-112679342D01*
X151603444Y-112679342D02*
X151555825Y-112774580D01*
X151555825Y-112774580D02*
X151508206Y-112822200D01*
X151508206Y-112822200D02*
X151412968Y-112869819D01*
X151412968Y-112869819D02*
X151032016Y-112869819D01*
X151032016Y-112869819D02*
X151032016Y-111869819D01*
X151032016Y-111869819D02*
X151365349Y-111869819D01*
X151365349Y-111869819D02*
X151460587Y-111917438D01*
X151460587Y-111917438D02*
X151508206Y-111965057D01*
X151508206Y-111965057D02*
X151555825Y-112060295D01*
X151555825Y-112060295D02*
X151555825Y-112155533D01*
X151555825Y-112155533D02*
X151508206Y-112250771D01*
X151508206Y-112250771D02*
X151460587Y-112298390D01*
X151460587Y-112298390D02*
X151365349Y-112346009D01*
X151365349Y-112346009D02*
X151032016Y-112346009D01*
X152460587Y-111869819D02*
X152270111Y-111869819D01*
X152270111Y-111869819D02*
X152174873Y-111917438D01*
X152174873Y-111917438D02*
X152127254Y-111965057D01*
X152127254Y-111965057D02*
X152032016Y-112107914D01*
X152032016Y-112107914D02*
X151984397Y-112298390D01*
X151984397Y-112298390D02*
X151984397Y-112679342D01*
X151984397Y-112679342D02*
X152032016Y-112774580D01*
X152032016Y-112774580D02*
X152079635Y-112822200D01*
X152079635Y-112822200D02*
X152174873Y-112869819D01*
X152174873Y-112869819D02*
X152365349Y-112869819D01*
X152365349Y-112869819D02*
X152460587Y-112822200D01*
X152460587Y-112822200D02*
X152508206Y-112774580D01*
X152508206Y-112774580D02*
X152555825Y-112679342D01*
X152555825Y-112679342D02*
X152555825Y-112441247D01*
X152555825Y-112441247D02*
X152508206Y-112346009D01*
X152508206Y-112346009D02*
X152460587Y-112298390D01*
X152460587Y-112298390D02*
X152365349Y-112250771D01*
X152365349Y-112250771D02*
X152174873Y-112250771D01*
X152174873Y-112250771D02*
X152079635Y-112298390D01*
X152079635Y-112298390D02*
X152032016Y-112346009D01*
X152032016Y-112346009D02*
X151984397Y-112441247D01*
D12*
X146670000Y-79330000D02*
X146670000Y-78000000D01*
X148000000Y-79330000D02*
X146670000Y-79330000D01*
X149270000Y-79330000D02*
X172190000Y-79330000D01*
X149270000Y-79330000D02*
X149270000Y-76670000D01*
X172190000Y-79330000D02*
X172190000Y-76670000D01*
X149270000Y-76670000D02*
X172190000Y-76670000D01*
X172160000Y-126670000D02*
X172160000Y-128000000D01*
X170830000Y-126670000D02*
X172160000Y-126670000D01*
X169560000Y-126670000D02*
X146640000Y-126670000D01*
X169560000Y-126670000D02*
X169560000Y-129330000D01*
X146640000Y-126670000D02*
X146640000Y-129330000D01*
X169560000Y-129330000D02*
X146640000Y-129330000D01*
X141127064Y-118035000D02*
X140672936Y-118035000D01*
X141127064Y-116565000D02*
X140672936Y-116565000D01*
X146498494Y-90185000D02*
X146044366Y-90185000D01*
X146498494Y-88715000D02*
X146044366Y-88715000D01*
X140410242Y-96560000D02*
X139589758Y-96560000D01*
X140410242Y-95440000D02*
X139589758Y-95440000D01*
X161905636Y-90185000D02*
X161451508Y-90185000D01*
X161905636Y-88715000D02*
X161451508Y-88715000D01*
X156641348Y-118035000D02*
X156187220Y-118035000D01*
X156641348Y-116565000D02*
X156187220Y-116565000D01*
X161995954Y-114560000D02*
X161175470Y-114560000D01*
X161995954Y-113440000D02*
X161175470Y-113440000D01*
X151015792Y-119915000D02*
X151469920Y-119915000D01*
X151015792Y-121385000D02*
X151469920Y-121385000D01*
X176872936Y-119915000D02*
X177327064Y-119915000D01*
X176872936Y-121385000D02*
X177327064Y-121385000D01*
X166984204Y-118035000D02*
X166530076Y-118035000D01*
X166984204Y-116565000D02*
X166530076Y-116565000D01*
X177495958Y-93360000D02*
X176675474Y-93360000D01*
X177495958Y-92240000D02*
X176675474Y-92240000D01*
X146481670Y-114560000D02*
X145661186Y-114560000D01*
X146481670Y-113440000D02*
X145661186Y-113440000D01*
X177312780Y-90185000D02*
X176858652Y-90185000D01*
X177312780Y-88715000D02*
X176858652Y-88715000D01*
X177346968Y-83185000D02*
X176824464Y-83185000D01*
X177346968Y-81715000D02*
X176824464Y-81715000D01*
X145844364Y-119915000D02*
X146298492Y-119915000D01*
X145844364Y-121385000D02*
X146298492Y-121385000D01*
X167075538Y-83235000D02*
X166553034Y-83235000D01*
X167075538Y-81765000D02*
X166553034Y-81765000D01*
X151817386Y-93360000D02*
X150996902Y-93360000D01*
X151817386Y-92240000D02*
X150996902Y-92240000D01*
X156804110Y-83185000D02*
X156281606Y-83185000D01*
X156804110Y-81715000D02*
X156281606Y-81715000D01*
X161812776Y-118035000D02*
X161358648Y-118035000D01*
X161812776Y-116565000D02*
X161358648Y-116565000D01*
X140672936Y-119915000D02*
X141127064Y-119915000D01*
X140672936Y-121385000D02*
X141127064Y-121385000D01*
X181475000Y-97042936D02*
X181475000Y-97497064D01*
X180005000Y-97042936D02*
X180005000Y-97497064D01*
D13*
X111946219Y-74069453D02*
X112076244Y-74116525D01*
X112103334Y-74182857D01*
X112033050Y-74286366D01*
X111936916Y-74309857D01*
X111831195Y-74341032D01*
X111764996Y-74460533D01*
X111717834Y-74707322D01*
X111714342Y-74733191D01*
X111654866Y-75019032D01*
X111571182Y-75147067D01*
X111534148Y-75156524D01*
X111463253Y-75124555D01*
X111442093Y-75004075D01*
X111464936Y-74758223D01*
X111468334Y-74733191D01*
X111494950Y-74479058D01*
X111479181Y-74351364D01*
X111413926Y-74310933D01*
X111391612Y-74309857D01*
X111274343Y-74245501D01*
X111256667Y-74182857D01*
X111301986Y-74102992D01*
X111458894Y-74063984D01*
X111680000Y-74055857D01*
X111946219Y-74069453D01*
G36*
X111946219Y-74069453D02*
G01*
X112076244Y-74116525D01*
X112103334Y-74182857D01*
X112033050Y-74286366D01*
X111936916Y-74309857D01*
X111831195Y-74341032D01*
X111764996Y-74460533D01*
X111717834Y-74707322D01*
X111714342Y-74733191D01*
X111654866Y-75019032D01*
X111571182Y-75147067D01*
X111534148Y-75156524D01*
X111463253Y-75124555D01*
X111442093Y-75004075D01*
X111464936Y-74758223D01*
X111468334Y-74733191D01*
X111494950Y-74479058D01*
X111479181Y-74351364D01*
X111413926Y-74310933D01*
X111391612Y-74309857D01*
X111274343Y-74245501D01*
X111256667Y-74182857D01*
X111301986Y-74102992D01*
X111458894Y-74063984D01*
X111680000Y-74055857D01*
X111946219Y-74069453D01*
G37*
X112907135Y-74099553D02*
X112928412Y-74161691D01*
X112825971Y-74244476D01*
X112696000Y-74267524D01*
X112513919Y-74307839D01*
X112479271Y-74404284D01*
X112597901Y-74520104D01*
X112651474Y-74547453D01*
X112825609Y-74695176D01*
X112850343Y-74884347D01*
X112723769Y-75073229D01*
X112677161Y-75109390D01*
X112466083Y-75223401D01*
X112294919Y-75215127D01*
X112198320Y-75164693D01*
X112117683Y-75063304D01*
X112172926Y-74983267D01*
X112330992Y-74957522D01*
X112397646Y-74966082D01*
X112565718Y-74956488D01*
X112611882Y-74871026D01*
X112532230Y-74755277D01*
X112421328Y-74689767D01*
X112245049Y-74540797D01*
X112202433Y-74340168D01*
X112276042Y-74178790D01*
X112404838Y-74100629D01*
X112591927Y-74060348D01*
X112778847Y-74059478D01*
X112907135Y-74099553D01*
G36*
X112907135Y-74099553D02*
G01*
X112928412Y-74161691D01*
X112825971Y-74244476D01*
X112696000Y-74267524D01*
X112513919Y-74307839D01*
X112479271Y-74404284D01*
X112597901Y-74520104D01*
X112651474Y-74547453D01*
X112825609Y-74695176D01*
X112850343Y-74884347D01*
X112723769Y-75073229D01*
X112677161Y-75109390D01*
X112466083Y-75223401D01*
X112294919Y-75215127D01*
X112198320Y-75164693D01*
X112117683Y-75063304D01*
X112172926Y-74983267D01*
X112330992Y-74957522D01*
X112397646Y-74966082D01*
X112565718Y-74956488D01*
X112611882Y-74871026D01*
X112532230Y-74755277D01*
X112421328Y-74689767D01*
X112245049Y-74540797D01*
X112202433Y-74340168D01*
X112276042Y-74178790D01*
X112404838Y-74100629D01*
X112591927Y-74060348D01*
X112778847Y-74059478D01*
X112907135Y-74099553D01*
G37*
X111068617Y-74125172D02*
X111085314Y-74204024D01*
X111061556Y-74418651D01*
X111006406Y-74678328D01*
X110937108Y-74915980D01*
X110870907Y-75064533D01*
X110861082Y-75076218D01*
X110671009Y-75170858D01*
X110422331Y-75199534D01*
X110219500Y-75151789D01*
X110120859Y-75016442D01*
X110070401Y-74792669D01*
X110065347Y-74532668D01*
X110102919Y-74288639D01*
X110180335Y-74112780D01*
X110277858Y-74055857D01*
X110337526Y-74113966D01*
X110354710Y-74301950D01*
X110342373Y-74528866D01*
X110324174Y-74796646D01*
X110336265Y-74934305D01*
X110392683Y-74980272D01*
X110504740Y-74973366D01*
X110628993Y-74931140D01*
X110707221Y-74819619D01*
X110764798Y-74595470D01*
X110781741Y-74500357D01*
X110851395Y-74214012D01*
X110935765Y-74069547D01*
X110972241Y-74055857D01*
X111068617Y-74125172D01*
G36*
X111068617Y-74125172D02*
G01*
X111085314Y-74204024D01*
X111061556Y-74418651D01*
X111006406Y-74678328D01*
X110937108Y-74915980D01*
X110870907Y-75064533D01*
X110861082Y-75076218D01*
X110671009Y-75170858D01*
X110422331Y-75199534D01*
X110219500Y-75151789D01*
X110120859Y-75016442D01*
X110070401Y-74792669D01*
X110065347Y-74532668D01*
X110102919Y-74288639D01*
X110180335Y-74112780D01*
X110277858Y-74055857D01*
X110337526Y-74113966D01*
X110354710Y-74301950D01*
X110342373Y-74528866D01*
X110324174Y-74796646D01*
X110336265Y-74934305D01*
X110392683Y-74980272D01*
X110504740Y-74973366D01*
X110628993Y-74931140D01*
X110707221Y-74819619D01*
X110764798Y-74595470D01*
X110781741Y-74500357D01*
X110851395Y-74214012D01*
X110935765Y-74069547D01*
X110972241Y-74055857D01*
X111068617Y-74125172D01*
G37*
X118765022Y-70672896D02*
X119072668Y-70755175D01*
X119699242Y-71029339D01*
X120303510Y-71449132D01*
X120852345Y-71991198D01*
X120891770Y-72037832D01*
X121104432Y-72303178D01*
X121274812Y-72535082D01*
X121382543Y-72703710D01*
X121407260Y-72779227D01*
X121398479Y-72780159D01*
X121327298Y-72726844D01*
X121158916Y-72589896D01*
X120925169Y-72395336D01*
X120839559Y-72323299D01*
X120127133Y-71794730D01*
X119409895Y-71414290D01*
X118673426Y-71180695D01*
X117903309Y-71092664D01*
X117085127Y-71148914D01*
X116204463Y-71348165D01*
X115246897Y-71689133D01*
X114980314Y-71802257D01*
X114611517Y-71957230D01*
X114386415Y-72038414D01*
X114298855Y-72050880D01*
X114342683Y-71999699D01*
X114511746Y-71889942D01*
X114799890Y-71726681D01*
X115200962Y-71514987D01*
X115532334Y-71347315D01*
X116311464Y-70990460D01*
X116997658Y-70749046D01*
X117617555Y-70618617D01*
X118197797Y-70594720D01*
X118765022Y-70672896D01*
G36*
X118765022Y-70672896D02*
G01*
X119072668Y-70755175D01*
X119699242Y-71029339D01*
X120303510Y-71449132D01*
X120852345Y-71991198D01*
X120891770Y-72037832D01*
X121104432Y-72303178D01*
X121274812Y-72535082D01*
X121382543Y-72703710D01*
X121407260Y-72779227D01*
X121398479Y-72780159D01*
X121327298Y-72726844D01*
X121158916Y-72589896D01*
X120925169Y-72395336D01*
X120839559Y-72323299D01*
X120127133Y-71794730D01*
X119409895Y-71414290D01*
X118673426Y-71180695D01*
X117903309Y-71092664D01*
X117085127Y-71148914D01*
X116204463Y-71348165D01*
X115246897Y-71689133D01*
X114980314Y-71802257D01*
X114611517Y-71957230D01*
X114386415Y-72038414D01*
X114298855Y-72050880D01*
X114342683Y-71999699D01*
X114511746Y-71889942D01*
X114799890Y-71726681D01*
X115200962Y-71514987D01*
X115532334Y-71347315D01*
X116311464Y-70990460D01*
X116997658Y-70749046D01*
X117617555Y-70618617D01*
X118197797Y-70594720D01*
X118765022Y-70672896D01*
G37*
X114878000Y-74064028D02*
X115068544Y-74091081D01*
X115132975Y-74140830D01*
X115130591Y-74161691D01*
X115027889Y-74257704D01*
X114911868Y-74294579D01*
X114768364Y-74366673D01*
X114726844Y-74548579D01*
X114697513Y-74863444D01*
X114621073Y-75077149D01*
X114509432Y-75156520D01*
X114508575Y-75156524D01*
X114448213Y-75131477D01*
X114426959Y-75036275D01*
X114445037Y-74840830D01*
X114502673Y-74515050D01*
X114513775Y-74458024D01*
X114481544Y-74333599D01*
X114388463Y-74309857D01*
X114242358Y-74264672D01*
X114202284Y-74214374D01*
X114151169Y-74234384D01*
X114046145Y-74376133D01*
X113908902Y-74609841D01*
X113893930Y-74637708D01*
X113740318Y-74896663D01*
X113600268Y-75082617D01*
X113503380Y-75156450D01*
X113501376Y-75156524D01*
X113411830Y-75079772D01*
X113311428Y-74875153D01*
X113252341Y-74698993D01*
X113163659Y-74376708D01*
X113128360Y-74183359D01*
X113146067Y-74087306D01*
X113216406Y-74056911D01*
X113244720Y-74055857D01*
X113351642Y-74128800D01*
X113421125Y-74288691D01*
X113487921Y-74558855D01*
X113547097Y-74669893D01*
X113618480Y-74629771D01*
X113721897Y-74446456D01*
X113737167Y-74415691D01*
X113914694Y-74055857D01*
X114540069Y-74055857D01*
X114878000Y-74064028D01*
G36*
X114878000Y-74064028D02*
G01*
X115068544Y-74091081D01*
X115132975Y-74140830D01*
X115130591Y-74161691D01*
X115027889Y-74257704D01*
X114911868Y-74294579D01*
X114768364Y-74366673D01*
X114726844Y-74548579D01*
X114697513Y-74863444D01*
X114621073Y-75077149D01*
X114509432Y-75156520D01*
X114508575Y-75156524D01*
X114448213Y-75131477D01*
X114426959Y-75036275D01*
X114445037Y-74840830D01*
X114502673Y-74515050D01*
X114513775Y-74458024D01*
X114481544Y-74333599D01*
X114388463Y-74309857D01*
X114242358Y-74264672D01*
X114202284Y-74214374D01*
X114151169Y-74234384D01*
X114046145Y-74376133D01*
X113908902Y-74609841D01*
X113893930Y-74637708D01*
X113740318Y-74896663D01*
X113600268Y-75082617D01*
X113503380Y-75156450D01*
X113501376Y-75156524D01*
X113411830Y-75079772D01*
X113311428Y-74875153D01*
X113252341Y-74698993D01*
X113163659Y-74376708D01*
X113128360Y-74183359D01*
X113146067Y-74087306D01*
X113216406Y-74056911D01*
X113244720Y-74055857D01*
X113351642Y-74128800D01*
X113421125Y-74288691D01*
X113487921Y-74558855D01*
X113547097Y-74669893D01*
X113618480Y-74629771D01*
X113721897Y-74446456D01*
X113737167Y-74415691D01*
X113914694Y-74055857D01*
X114540069Y-74055857D01*
X114878000Y-74064028D01*
G37*
X116438417Y-75015170D02*
X116254990Y-75149484D01*
X115984708Y-75333905D01*
X115656558Y-75549617D01*
X115299526Y-75777805D01*
X114942599Y-75999652D01*
X114614765Y-76196343D01*
X114377621Y-76331346D01*
X113630408Y-76698497D01*
X112900966Y-76976895D01*
X112212950Y-77161001D01*
X111590012Y-77245281D01*
X111055807Y-77224196D01*
X110810343Y-77166326D01*
X110326869Y-76920134D01*
X109925459Y-76528062D01*
X109639551Y-76056286D01*
X109524503Y-75789277D01*
X109441827Y-75553702D01*
X109395925Y-75374830D01*
X109391199Y-75277931D01*
X109432050Y-75288275D01*
X109522879Y-75431131D01*
X109534449Y-75452857D01*
X109867640Y-75916699D01*
X110316388Y-76290787D01*
X110452334Y-76370778D01*
X110625425Y-76452305D01*
X110810015Y-76505275D01*
X111047005Y-76535233D01*
X111377296Y-76547726D01*
X111764667Y-76548744D01*
X112226913Y-76540927D01*
X112582277Y-76516371D01*
X112893059Y-76465518D01*
X113221558Y-76378812D01*
X113542667Y-76275982D01*
X113935692Y-76130641D01*
X114417735Y-75930798D01*
X114928793Y-75702368D01*
X115408863Y-75471265D01*
X115426500Y-75462369D01*
X115810340Y-75270528D01*
X116134034Y-75112885D01*
X116370927Y-75002097D01*
X116494364Y-74950821D01*
X116506000Y-74949780D01*
X116438417Y-75015170D01*
G36*
X116438417Y-75015170D02*
G01*
X116254990Y-75149484D01*
X115984708Y-75333905D01*
X115656558Y-75549617D01*
X115299526Y-75777805D01*
X114942599Y-75999652D01*
X114614765Y-76196343D01*
X114377621Y-76331346D01*
X113630408Y-76698497D01*
X112900966Y-76976895D01*
X112212950Y-77161001D01*
X111590012Y-77245281D01*
X111055807Y-77224196D01*
X110810343Y-77166326D01*
X110326869Y-76920134D01*
X109925459Y-76528062D01*
X109639551Y-76056286D01*
X109524503Y-75789277D01*
X109441827Y-75553702D01*
X109395925Y-75374830D01*
X109391199Y-75277931D01*
X109432050Y-75288275D01*
X109522879Y-75431131D01*
X109534449Y-75452857D01*
X109867640Y-75916699D01*
X110316388Y-76290787D01*
X110452334Y-76370778D01*
X110625425Y-76452305D01*
X110810015Y-76505275D01*
X111047005Y-76535233D01*
X111377296Y-76547726D01*
X111764667Y-76548744D01*
X112226913Y-76540927D01*
X112582277Y-76516371D01*
X112893059Y-76465518D01*
X113221558Y-76378812D01*
X113542667Y-76275982D01*
X113935692Y-76130641D01*
X114417735Y-75930798D01*
X114928793Y-75702368D01*
X115408863Y-75471265D01*
X115426500Y-75462369D01*
X115810340Y-75270528D01*
X116134034Y-75112885D01*
X116370927Y-75002097D01*
X116494364Y-74950821D01*
X116506000Y-74949780D01*
X116438417Y-75015170D01*
G37*
X114493943Y-72811519D02*
X116108301Y-72865694D01*
X117876221Y-72951670D01*
X119796529Y-73069530D01*
X120062000Y-73087520D01*
X120714946Y-73133537D01*
X121405556Y-73184459D01*
X122083333Y-73236410D01*
X122697778Y-73285512D01*
X123198393Y-73327887D01*
X123237000Y-73331315D01*
X124507000Y-73444658D01*
X122602000Y-73390424D01*
X121785080Y-73370589D01*
X120899053Y-73355181D01*
X119963882Y-73344091D01*
X118999527Y-73337214D01*
X118025950Y-73334442D01*
X117063113Y-73335668D01*
X116130978Y-73340784D01*
X115249507Y-73349685D01*
X114438660Y-73362261D01*
X113718401Y-73378408D01*
X113108690Y-73398016D01*
X112629489Y-73420980D01*
X112315000Y-73445624D01*
X111340440Y-73565282D01*
X110527746Y-73698061D01*
X109869780Y-73846501D01*
X109359406Y-74013140D01*
X108989487Y-74200518D01*
X108752886Y-74411175D01*
X108642467Y-74647650D01*
X108632000Y-74756046D01*
X108681925Y-74998681D01*
X108802500Y-75242744D01*
X108807099Y-75249287D01*
X108905263Y-75401411D01*
X108915725Y-75469491D01*
X108825276Y-75450860D01*
X108620705Y-75342854D01*
X108293334Y-75145602D01*
X107864626Y-74855795D01*
X107500792Y-74561039D01*
X107228285Y-74285789D01*
X107073559Y-74054500D01*
X107054892Y-74000735D01*
X107068979Y-73741427D01*
X107248382Y-73513097D01*
X107591926Y-73315825D01*
X108098435Y-73149696D01*
X108766734Y-73014791D01*
X109595647Y-72911193D01*
X110584000Y-72838984D01*
X111730618Y-72798247D01*
X113034323Y-72789065D01*
X114493943Y-72811519D01*
G36*
X114493943Y-72811519D02*
G01*
X116108301Y-72865694D01*
X117876221Y-72951670D01*
X119796529Y-73069530D01*
X120062000Y-73087520D01*
X120714946Y-73133537D01*
X121405556Y-73184459D01*
X122083333Y-73236410D01*
X122697778Y-73285512D01*
X123198393Y-73327887D01*
X123237000Y-73331315D01*
X124507000Y-73444658D01*
X122602000Y-73390424D01*
X121785080Y-73370589D01*
X120899053Y-73355181D01*
X119963882Y-73344091D01*
X118999527Y-73337214D01*
X118025950Y-73334442D01*
X117063113Y-73335668D01*
X116130978Y-73340784D01*
X115249507Y-73349685D01*
X114438660Y-73362261D01*
X113718401Y-73378408D01*
X113108690Y-73398016D01*
X112629489Y-73420980D01*
X112315000Y-73445624D01*
X111340440Y-73565282D01*
X110527746Y-73698061D01*
X109869780Y-73846501D01*
X109359406Y-74013140D01*
X108989487Y-74200518D01*
X108752886Y-74411175D01*
X108642467Y-74647650D01*
X108632000Y-74756046D01*
X108681925Y-74998681D01*
X108802500Y-75242744D01*
X108807099Y-75249287D01*
X108905263Y-75401411D01*
X108915725Y-75469491D01*
X108825276Y-75450860D01*
X108620705Y-75342854D01*
X108293334Y-75145602D01*
X107864626Y-74855795D01*
X107500792Y-74561039D01*
X107228285Y-74285789D01*
X107073559Y-74054500D01*
X107054892Y-74000735D01*
X107068979Y-73741427D01*
X107248382Y-73513097D01*
X107591926Y-73315825D01*
X108098435Y-73149696D01*
X108766734Y-73014791D01*
X109595647Y-72911193D01*
X110584000Y-72838984D01*
X111730618Y-72798247D01*
X113034323Y-72789065D01*
X114493943Y-72811519D01*
G37*
X119716616Y-73650741D02*
X120483095Y-73732556D01*
X121154321Y-73876996D01*
X121289667Y-73918846D01*
X121926279Y-74175830D01*
X122421666Y-74473832D01*
X122771375Y-74804221D01*
X122970952Y-75158368D01*
X123015944Y-75527643D01*
X122901897Y-75903417D01*
X122624357Y-76277060D01*
X122546059Y-76353358D01*
X122086706Y-76675657D01*
X121504328Y-76917602D01*
X120828434Y-77072375D01*
X120088531Y-77133162D01*
X119333722Y-77095434D01*
X118941259Y-77031476D01*
X118535114Y-76936007D01*
X118263042Y-76850583D01*
X117894244Y-76686765D01*
X117492742Y-76467442D01*
X117109164Y-76224151D01*
X116794138Y-75988427D01*
X116633000Y-75835215D01*
X116463667Y-75641358D01*
X116717667Y-75770543D01*
X117372755Y-76033269D01*
X118116130Y-76213160D01*
X118905448Y-76308436D01*
X119698366Y-76317316D01*
X120452542Y-76238020D01*
X121125632Y-76068766D01*
X121382139Y-75966727D01*
X121808518Y-75723916D01*
X122070214Y-75464082D01*
X122170009Y-75195282D01*
X122110686Y-74925574D01*
X121895027Y-74663017D01*
X121525815Y-74415667D01*
X121005831Y-74191583D01*
X120739334Y-74105207D01*
X119923203Y-73931086D01*
X119020398Y-73858600D01*
X118078694Y-73886444D01*
X117145866Y-74013310D01*
X116304889Y-74226458D01*
X115972610Y-74329810D01*
X115707131Y-74405770D01*
X115544974Y-74444239D01*
X115512758Y-74445504D01*
X115555005Y-74391307D01*
X115728575Y-74304594D01*
X116001235Y-74196701D01*
X116340752Y-74078968D01*
X116714894Y-73962733D01*
X117091428Y-73859335D01*
X117356657Y-73796891D01*
X118102297Y-73681324D01*
X118905983Y-73633136D01*
X119716616Y-73650741D01*
G36*
X119716616Y-73650741D02*
G01*
X120483095Y-73732556D01*
X121154321Y-73876996D01*
X121289667Y-73918846D01*
X121926279Y-74175830D01*
X122421666Y-74473832D01*
X122771375Y-74804221D01*
X122970952Y-75158368D01*
X123015944Y-75527643D01*
X122901897Y-75903417D01*
X122624357Y-76277060D01*
X122546059Y-76353358D01*
X122086706Y-76675657D01*
X121504328Y-76917602D01*
X120828434Y-77072375D01*
X120088531Y-77133162D01*
X119333722Y-77095434D01*
X118941259Y-77031476D01*
X118535114Y-76936007D01*
X118263042Y-76850583D01*
X117894244Y-76686765D01*
X117492742Y-76467442D01*
X117109164Y-76224151D01*
X116794138Y-75988427D01*
X116633000Y-75835215D01*
X116463667Y-75641358D01*
X116717667Y-75770543D01*
X117372755Y-76033269D01*
X118116130Y-76213160D01*
X118905448Y-76308436D01*
X119698366Y-76317316D01*
X120452542Y-76238020D01*
X121125632Y-76068766D01*
X121382139Y-75966727D01*
X121808518Y-75723916D01*
X122070214Y-75464082D01*
X122170009Y-75195282D01*
X122110686Y-74925574D01*
X121895027Y-74663017D01*
X121525815Y-74415667D01*
X121005831Y-74191583D01*
X120739334Y-74105207D01*
X119923203Y-73931086D01*
X119020398Y-73858600D01*
X118078694Y-73886444D01*
X117145866Y-74013310D01*
X116304889Y-74226458D01*
X115972610Y-74329810D01*
X115707131Y-74405770D01*
X115544974Y-74444239D01*
X115512758Y-74445504D01*
X115555005Y-74391307D01*
X115728575Y-74304594D01*
X116001235Y-74196701D01*
X116340752Y-74078968D01*
X116714894Y-73962733D01*
X117091428Y-73859335D01*
X117356657Y-73796891D01*
X118102297Y-73681324D01*
X118905983Y-73633136D01*
X119716616Y-73650741D01*
G37*
D12*
X156625536Y-124735000D02*
X156103032Y-124735000D01*
X156625536Y-123265000D02*
X156103032Y-123265000D01*
X177510242Y-114560000D02*
X176689758Y-114560000D01*
X177510242Y-113440000D02*
X176689758Y-113440000D01*
X141396968Y-83185000D02*
X140874464Y-83185000D01*
X141396968Y-81715000D02*
X140874464Y-81715000D01*
X172155632Y-118035000D02*
X171701504Y-118035000D01*
X172155632Y-116565000D02*
X171701504Y-116565000D01*
X172338810Y-114560000D02*
X171518326Y-114560000D01*
X172338810Y-113440000D02*
X171518326Y-113440000D01*
X172360242Y-93360000D02*
X171539758Y-93360000D01*
X172360242Y-92240000D02*
X171539758Y-92240000D01*
X171722936Y-85115000D02*
X172177064Y-85115000D01*
X171722936Y-86585000D02*
X172177064Y-86585000D01*
X171701504Y-119915000D02*
X172155632Y-119915000D01*
X171701504Y-121385000D02*
X172155632Y-121385000D01*
X172211252Y-83185000D02*
X171688748Y-83185000D01*
X172211252Y-81715000D02*
X171688748Y-81715000D01*
X151469920Y-118035000D02*
X151015792Y-118035000D01*
X151469920Y-116565000D02*
X151015792Y-116565000D01*
X151454108Y-124735000D02*
X150931604Y-124735000D01*
X151454108Y-123265000D02*
X150931604Y-123265000D01*
X167167382Y-114560000D02*
X166346898Y-114560000D01*
X167167382Y-113440000D02*
X166346898Y-113440000D01*
X172139820Y-124735000D02*
X171617316Y-124735000D01*
X172139820Y-123265000D02*
X171617316Y-123265000D01*
X146532682Y-83185000D02*
X146010178Y-83185000D01*
X146532682Y-81715000D02*
X146010178Y-81715000D01*
X140908652Y-85115000D02*
X141362780Y-85115000D01*
X140908652Y-86585000D02*
X141362780Y-86585000D01*
X161939824Y-83185000D02*
X161417320Y-83185000D01*
X161939824Y-81715000D02*
X161417320Y-81715000D01*
X177327064Y-118035000D02*
X176872936Y-118035000D01*
X177327064Y-116565000D02*
X176872936Y-116565000D01*
X140410242Y-104560000D02*
X139589758Y-104560000D01*
X140410242Y-103440000D02*
X139589758Y-103440000D01*
X141111252Y-124735000D02*
X140588748Y-124735000D01*
X141111252Y-123265000D02*
X140588748Y-123265000D01*
X141545958Y-93360000D02*
X140725474Y-93360000D01*
X141545958Y-92240000D02*
X140725474Y-92240000D01*
X151180080Y-85115000D02*
X151634208Y-85115000D01*
X151180080Y-86585000D02*
X151634208Y-86585000D01*
X141362780Y-90185000D02*
X140908652Y-90185000D01*
X141362780Y-88715000D02*
X140908652Y-88715000D01*
X156187220Y-119915000D02*
X156641348Y-119915000D01*
X156187220Y-121385000D02*
X156641348Y-121385000D01*
X162088814Y-93360000D02*
X161268330Y-93360000D01*
X162088814Y-92240000D02*
X161268330Y-92240000D01*
X146044366Y-85115000D02*
X146498494Y-85115000D01*
X146044366Y-86585000D02*
X146498494Y-86585000D01*
X151634208Y-90185000D02*
X151180080Y-90185000D01*
X151634208Y-88715000D02*
X151180080Y-88715000D01*
X146681672Y-93360000D02*
X145861188Y-93360000D01*
X146681672Y-92240000D02*
X145861188Y-92240000D01*
X146298492Y-118035000D02*
X145844364Y-118035000D01*
X146298492Y-116565000D02*
X145844364Y-116565000D01*
X156315794Y-85115000D02*
X156769922Y-85115000D01*
X156315794Y-86585000D02*
X156769922Y-86585000D01*
X166530076Y-119915000D02*
X166984204Y-119915000D01*
X166530076Y-121385000D02*
X166984204Y-121385000D01*
X161451508Y-85115000D02*
X161905636Y-85115000D01*
X161451508Y-86585000D02*
X161905636Y-86585000D01*
X167224528Y-93410000D02*
X166404044Y-93410000D01*
X167224528Y-92290000D02*
X166404044Y-92290000D01*
X146282680Y-124735000D02*
X145760176Y-124735000D01*
X146282680Y-123265000D02*
X145760176Y-123265000D01*
X166587222Y-85165000D02*
X167041350Y-85165000D01*
X166587222Y-86635000D02*
X167041350Y-86635000D01*
X156824526Y-114560000D02*
X156004042Y-114560000D01*
X156824526Y-113440000D02*
X156004042Y-113440000D01*
X167041350Y-90235000D02*
X166587222Y-90235000D01*
X167041350Y-88765000D02*
X166587222Y-88765000D01*
X166968392Y-124735000D02*
X166445888Y-124735000D01*
X166968392Y-123265000D02*
X166445888Y-123265000D01*
X180950000Y-105000000D02*
G75*
G03*
X180950000Y-105000000I-950000J0D01*
G01*
X179780000Y-103180000D02*
X181700000Y-103180000D01*
X181700000Y-103180000D02*
X181700000Y-100320000D01*
X179780000Y-100320000D02*
X179780000Y-103180000D01*
X177311252Y-124735000D02*
X176788748Y-124735000D01*
X177311252Y-123265000D02*
X176788748Y-123265000D01*
X156953100Y-93360000D02*
X156132616Y-93360000D01*
X156953100Y-92240000D02*
X156132616Y-92240000D01*
X161358648Y-119915000D02*
X161812776Y-119915000D01*
X161358648Y-121385000D02*
X161812776Y-121385000D01*
X156769922Y-90185000D02*
X156315794Y-90185000D01*
X156769922Y-88715000D02*
X156315794Y-88715000D01*
X141310242Y-114560000D02*
X140489758Y-114560000D01*
X141310242Y-113440000D02*
X140489758Y-113440000D01*
X151668396Y-83185000D02*
X151145892Y-83185000D01*
X151668396Y-81715000D02*
X151145892Y-81715000D01*
X176858652Y-85115000D02*
X177312780Y-85115000D01*
X176858652Y-86585000D02*
X177312780Y-86585000D01*
X172177064Y-90185000D02*
X171722936Y-90185000D01*
X172177064Y-88715000D02*
X171722936Y-88715000D01*
X161796964Y-124735000D02*
X161274460Y-124735000D01*
X161796964Y-123265000D02*
X161274460Y-123265000D01*
X151653098Y-114560000D02*
X150832614Y-114560000D01*
X151653098Y-113440000D02*
X150832614Y-113440000D01*
M02*
