%TF.GenerationSoftware,KiCad,Pcbnew,(6.0.11)*%
%TF.CreationDate,2023-02-27T13:10:25-06:00*%
%TF.ProjectId,BPS-MinionShield,4250532d-4d69-46e6-996f-6e536869656c,rev?*%
%TF.SameCoordinates,Original*%
%TF.FileFunction,Legend,Top*%
%TF.FilePolarity,Positive*%
%FSLAX46Y46*%
G04 Gerber Fmt 4.6, Leading zero omitted, Abs format (unit mm)*
G04 Created by KiCad (PCBNEW (6.0.11)) date 2023-02-27 13:10:25*
%MOMM*%
%LPD*%
G01*
G04 APERTURE LIST*
%ADD10C,0.150000*%
%ADD11C,0.160000*%
%ADD12C,0.120000*%
%ADD13C,0.010000*%
G04 APERTURE END LIST*
D10*
X148071428Y-75664404D02*
X148071428Y-74902500D01*
X148452380Y-75283452D02*
X147690476Y-75283452D01*
X147452380Y-73950119D02*
X147452380Y-74426309D01*
X147928571Y-74473928D01*
X147880952Y-74426309D01*
X147833333Y-74331071D01*
X147833333Y-74092976D01*
X147880952Y-73997738D01*
X147928571Y-73950119D01*
X148023809Y-73902500D01*
X148261904Y-73902500D01*
X148357142Y-73950119D01*
X148404761Y-73997738D01*
X148452380Y-74092976D01*
X148452380Y-74331071D01*
X148404761Y-74426309D01*
X148357142Y-74473928D01*
X147452380Y-73616785D02*
X148452380Y-73283452D01*
X147452380Y-72950119D01*
X156072380Y-75190476D02*
X156072380Y-75761904D01*
X156072380Y-75476190D02*
X155072380Y-75476190D01*
X155215238Y-75571428D01*
X155310476Y-75666666D01*
X155358095Y-75761904D01*
X156072380Y-74238095D02*
X156072380Y-74809523D01*
X156072380Y-74523809D02*
X155072380Y-74523809D01*
X155215238Y-74619047D01*
X155310476Y-74714285D01*
X155358095Y-74809523D01*
X160485714Y-130809523D02*
X161152380Y-130809523D01*
X160104761Y-131047619D02*
X160819047Y-131285714D01*
X160819047Y-130666666D01*
X158612380Y-75190476D02*
X158612380Y-75761904D01*
X158612380Y-75476190D02*
X157612380Y-75476190D01*
X157755238Y-75571428D01*
X157850476Y-75666666D01*
X157898095Y-75761904D01*
X157707619Y-74809523D02*
X157660000Y-74761904D01*
X157612380Y-74666666D01*
X157612380Y-74428571D01*
X157660000Y-74333333D01*
X157707619Y-74285714D01*
X157802857Y-74238095D01*
X157898095Y-74238095D01*
X158040952Y-74285714D01*
X158612380Y-74857142D01*
X158612380Y-74238095D01*
X166232380Y-75190476D02*
X166232380Y-75761904D01*
X166232380Y-75476190D02*
X165232380Y-75476190D01*
X165375238Y-75571428D01*
X165470476Y-75666666D01*
X165518095Y-75761904D01*
X165232380Y-74285714D02*
X165232380Y-74761904D01*
X165708571Y-74809523D01*
X165660952Y-74761904D01*
X165613333Y-74666666D01*
X165613333Y-74428571D01*
X165660952Y-74333333D01*
X165708571Y-74285714D01*
X165803809Y-74238095D01*
X166041904Y-74238095D01*
X166137142Y-74285714D01*
X166184761Y-74333333D01*
X166232380Y-74428571D01*
X166232380Y-74666666D01*
X166184761Y-74761904D01*
X166137142Y-74809523D01*
X168772380Y-75190476D02*
X168772380Y-75761904D01*
X168772380Y-75476190D02*
X167772380Y-75476190D01*
X167915238Y-75571428D01*
X168010476Y-75666666D01*
X168058095Y-75761904D01*
X167772380Y-74333333D02*
X167772380Y-74523809D01*
X167820000Y-74619047D01*
X167867619Y-74666666D01*
X168010476Y-74761904D01*
X168200952Y-74809523D01*
X168581904Y-74809523D01*
X168677142Y-74761904D01*
X168724761Y-74714285D01*
X168772380Y-74619047D01*
X168772380Y-74428571D01*
X168724761Y-74333333D01*
X168677142Y-74285714D01*
X168581904Y-74238095D01*
X168343809Y-74238095D01*
X168248571Y-74285714D01*
X168200952Y-74333333D01*
X168153333Y-74428571D01*
X168153333Y-74619047D01*
X168200952Y-74714285D01*
X168248571Y-74761904D01*
X168343809Y-74809523D01*
X157612380Y-130761904D02*
X157612380Y-131238095D01*
X158088571Y-131285714D01*
X158040952Y-131238095D01*
X157993333Y-131142857D01*
X157993333Y-130904761D01*
X158040952Y-130809523D01*
X158088571Y-130761904D01*
X158183809Y-130714285D01*
X158421904Y-130714285D01*
X158517142Y-130761904D01*
X158564761Y-130809523D01*
X158612380Y-130904761D01*
X158612380Y-131142857D01*
X158564761Y-131238095D01*
X158517142Y-131285714D01*
X162692380Y-131333333D02*
X162692380Y-130714285D01*
X163073333Y-131047619D01*
X163073333Y-130904761D01*
X163120952Y-130809523D01*
X163168571Y-130761904D01*
X163263809Y-130714285D01*
X163501904Y-130714285D01*
X163597142Y-130761904D01*
X163644761Y-130809523D01*
X163692380Y-130904761D01*
X163692380Y-131190476D01*
X163644761Y-131285714D01*
X163597142Y-131333333D01*
X170360000Y-75140595D02*
X170312380Y-75235833D01*
X170312380Y-75378690D01*
X170360000Y-75521547D01*
X170455238Y-75616785D01*
X170550476Y-75664404D01*
X170740952Y-75712023D01*
X170883809Y-75712023D01*
X171074285Y-75664404D01*
X171169523Y-75616785D01*
X171264761Y-75521547D01*
X171312380Y-75378690D01*
X171312380Y-75283452D01*
X171264761Y-75140595D01*
X171217142Y-75092976D01*
X170883809Y-75092976D01*
X170883809Y-75283452D01*
X171312380Y-74664404D02*
X170312380Y-74664404D01*
X171312380Y-74092976D01*
X170312380Y-74092976D01*
X171312380Y-73616785D02*
X170312380Y-73616785D01*
X170312380Y-73378690D01*
X170360000Y-73235833D01*
X170455238Y-73140595D01*
X170550476Y-73092976D01*
X170740952Y-73045357D01*
X170883809Y-73045357D01*
X171074285Y-73092976D01*
X171169523Y-73140595D01*
X171264761Y-73235833D01*
X171312380Y-73378690D01*
X171312380Y-73616785D01*
X109690476Y-129842380D02*
X109690476Y-130651904D01*
X109738095Y-130747142D01*
X109785714Y-130794761D01*
X109880952Y-130842380D01*
X110071428Y-130842380D01*
X110166666Y-130794761D01*
X110214285Y-130747142D01*
X110261904Y-130651904D01*
X110261904Y-129842380D01*
X110595238Y-129842380D02*
X111166666Y-129842380D01*
X110880952Y-130842380D02*
X110880952Y-129842380D01*
X111452380Y-130794761D02*
X111595238Y-130842380D01*
X111833333Y-130842380D01*
X111928571Y-130794761D01*
X111976190Y-130747142D01*
X112023809Y-130651904D01*
X112023809Y-130556666D01*
X111976190Y-130461428D01*
X111928571Y-130413809D01*
X111833333Y-130366190D01*
X111642857Y-130318571D01*
X111547619Y-130270952D01*
X111500000Y-130223333D01*
X111452380Y-130128095D01*
X111452380Y-130032857D01*
X111500000Y-129937619D01*
X111547619Y-129890000D01*
X111642857Y-129842380D01*
X111880952Y-129842380D01*
X112023809Y-129890000D01*
X112309523Y-129842380D02*
X112642857Y-130842380D01*
X112976190Y-129842380D01*
X113166666Y-129842380D02*
X113738095Y-129842380D01*
X113452380Y-130842380D02*
X113452380Y-129842380D01*
X114833333Y-130461428D02*
X115595238Y-130461428D01*
X117166666Y-130318571D02*
X117309523Y-130366190D01*
X117357142Y-130413809D01*
X117404761Y-130509047D01*
X117404761Y-130651904D01*
X117357142Y-130747142D01*
X117309523Y-130794761D01*
X117214285Y-130842380D01*
X116833333Y-130842380D01*
X116833333Y-129842380D01*
X117166666Y-129842380D01*
X117261904Y-129890000D01*
X117309523Y-129937619D01*
X117357142Y-130032857D01*
X117357142Y-130128095D01*
X117309523Y-130223333D01*
X117261904Y-130270952D01*
X117166666Y-130318571D01*
X116833333Y-130318571D01*
X117833333Y-130842380D02*
X117833333Y-129842380D01*
X118214285Y-129842380D01*
X118309523Y-129890000D01*
X118357142Y-129937619D01*
X118404761Y-130032857D01*
X118404761Y-130175714D01*
X118357142Y-130270952D01*
X118309523Y-130318571D01*
X118214285Y-130366190D01*
X117833333Y-130366190D01*
X118785714Y-130794761D02*
X118928571Y-130842380D01*
X119166666Y-130842380D01*
X119261904Y-130794761D01*
X119309523Y-130747142D01*
X119357142Y-130651904D01*
X119357142Y-130556666D01*
X119309523Y-130461428D01*
X119261904Y-130413809D01*
X119166666Y-130366190D01*
X118976190Y-130318571D01*
X118880952Y-130270952D01*
X118833333Y-130223333D01*
X118785714Y-130128095D01*
X118785714Y-130032857D01*
X118833333Y-129937619D01*
X118880952Y-129890000D01*
X118976190Y-129842380D01*
X119214285Y-129842380D01*
X119357142Y-129890000D01*
X106238095Y-132452380D02*
X106238095Y-131452380D01*
X106571428Y-132166666D01*
X106904761Y-131452380D01*
X106904761Y-132452380D01*
X107380952Y-132452380D02*
X107380952Y-131785714D01*
X107380952Y-131452380D02*
X107333333Y-131500000D01*
X107380952Y-131547619D01*
X107428571Y-131500000D01*
X107380952Y-131452380D01*
X107380952Y-131547619D01*
X107857142Y-131785714D02*
X107857142Y-132452380D01*
X107857142Y-131880952D02*
X107904761Y-131833333D01*
X108000000Y-131785714D01*
X108142857Y-131785714D01*
X108238095Y-131833333D01*
X108285714Y-131928571D01*
X108285714Y-132452380D01*
X108761904Y-132452380D02*
X108761904Y-131785714D01*
X108761904Y-131452380D02*
X108714285Y-131500000D01*
X108761904Y-131547619D01*
X108809523Y-131500000D01*
X108761904Y-131452380D01*
X108761904Y-131547619D01*
X109380952Y-132452380D02*
X109285714Y-132404761D01*
X109238095Y-132357142D01*
X109190476Y-132261904D01*
X109190476Y-131976190D01*
X109238095Y-131880952D01*
X109285714Y-131833333D01*
X109380952Y-131785714D01*
X109523809Y-131785714D01*
X109619047Y-131833333D01*
X109666666Y-131880952D01*
X109714285Y-131976190D01*
X109714285Y-132261904D01*
X109666666Y-132357142D01*
X109619047Y-132404761D01*
X109523809Y-132452380D01*
X109380952Y-132452380D01*
X110142857Y-131785714D02*
X110142857Y-132452380D01*
X110142857Y-131880952D02*
X110190476Y-131833333D01*
X110285714Y-131785714D01*
X110428571Y-131785714D01*
X110523809Y-131833333D01*
X110571428Y-131928571D01*
X110571428Y-132452380D01*
X112380952Y-132357142D02*
X112333333Y-132404761D01*
X112190476Y-132452380D01*
X112095238Y-132452380D01*
X111952380Y-132404761D01*
X111857142Y-132309523D01*
X111809523Y-132214285D01*
X111761904Y-132023809D01*
X111761904Y-131880952D01*
X111809523Y-131690476D01*
X111857142Y-131595238D01*
X111952380Y-131500000D01*
X112095238Y-131452380D01*
X112190476Y-131452380D01*
X112333333Y-131500000D01*
X112380952Y-131547619D01*
X112952380Y-132452380D02*
X112857142Y-132404761D01*
X112809523Y-132357142D01*
X112761904Y-132261904D01*
X112761904Y-131976190D01*
X112809523Y-131880952D01*
X112857142Y-131833333D01*
X112952380Y-131785714D01*
X113095238Y-131785714D01*
X113190476Y-131833333D01*
X113238095Y-131880952D01*
X113285714Y-131976190D01*
X113285714Y-132261904D01*
X113238095Y-132357142D01*
X113190476Y-132404761D01*
X113095238Y-132452380D01*
X112952380Y-132452380D01*
X113714285Y-131785714D02*
X113714285Y-132452380D01*
X113714285Y-131880952D02*
X113761904Y-131833333D01*
X113857142Y-131785714D01*
X114000000Y-131785714D01*
X114095238Y-131833333D01*
X114142857Y-131928571D01*
X114142857Y-132452380D01*
X114619047Y-131785714D02*
X114619047Y-132452380D01*
X114619047Y-131880952D02*
X114666666Y-131833333D01*
X114761904Y-131785714D01*
X114904761Y-131785714D01*
X115000000Y-131833333D01*
X115047619Y-131928571D01*
X115047619Y-132452380D01*
X115904761Y-132404761D02*
X115809523Y-132452380D01*
X115619047Y-132452380D01*
X115523809Y-132404761D01*
X115476190Y-132309523D01*
X115476190Y-131928571D01*
X115523809Y-131833333D01*
X115619047Y-131785714D01*
X115809523Y-131785714D01*
X115904761Y-131833333D01*
X115952380Y-131928571D01*
X115952380Y-132023809D01*
X115476190Y-132119047D01*
X116809523Y-132404761D02*
X116714285Y-132452380D01*
X116523809Y-132452380D01*
X116428571Y-132404761D01*
X116380952Y-132357142D01*
X116333333Y-132261904D01*
X116333333Y-131976190D01*
X116380952Y-131880952D01*
X116428571Y-131833333D01*
X116523809Y-131785714D01*
X116714285Y-131785714D01*
X116809523Y-131833333D01*
X117095238Y-131785714D02*
X117476190Y-131785714D01*
X117238095Y-131452380D02*
X117238095Y-132309523D01*
X117285714Y-132404761D01*
X117380952Y-132452380D01*
X117476190Y-132452380D01*
X117952380Y-132452380D02*
X117857142Y-132404761D01*
X117809523Y-132357142D01*
X117761904Y-132261904D01*
X117761904Y-131976190D01*
X117809523Y-131880952D01*
X117857142Y-131833333D01*
X117952380Y-131785714D01*
X118095238Y-131785714D01*
X118190476Y-131833333D01*
X118238095Y-131880952D01*
X118285714Y-131976190D01*
X118285714Y-132261904D01*
X118238095Y-132357142D01*
X118190476Y-132404761D01*
X118095238Y-132452380D01*
X117952380Y-132452380D01*
X118714285Y-132452380D02*
X118714285Y-131785714D01*
X118714285Y-131976190D02*
X118761904Y-131880952D01*
X118809523Y-131833333D01*
X118904761Y-131785714D01*
X119000000Y-131785714D01*
X120000000Y-131785714D02*
X120238095Y-132452380D01*
X120476190Y-131785714D01*
X120809523Y-131547619D02*
X120857142Y-131500000D01*
X120952380Y-131452380D01*
X121190476Y-131452380D01*
X121285714Y-131500000D01*
X121333333Y-131547619D01*
X121380952Y-131642857D01*
X121380952Y-131738095D01*
X121333333Y-131880952D01*
X120761904Y-132452380D01*
X121380952Y-132452380D01*
X121809523Y-132357142D02*
X121857142Y-132404761D01*
X121809523Y-132452380D01*
X121761904Y-132404761D01*
X121809523Y-132357142D01*
X121809523Y-132452380D01*
X122238095Y-131547619D02*
X122285714Y-131500000D01*
X122380952Y-131452380D01*
X122619047Y-131452380D01*
X122714285Y-131500000D01*
X122761904Y-131547619D01*
X122809523Y-131642857D01*
X122809523Y-131738095D01*
X122761904Y-131880952D01*
X122190476Y-132452380D01*
X122809523Y-132452380D01*
X109761904Y-133062380D02*
X109952380Y-133062380D01*
X110047619Y-133110000D01*
X110142857Y-133205238D01*
X110190476Y-133395714D01*
X110190476Y-133729047D01*
X110142857Y-133919523D01*
X110047619Y-134014761D01*
X109952380Y-134062380D01*
X109761904Y-134062380D01*
X109666666Y-134014761D01*
X109571428Y-133919523D01*
X109523809Y-133729047D01*
X109523809Y-133395714D01*
X109571428Y-133205238D01*
X109666666Y-133110000D01*
X109761904Y-133062380D01*
X111047619Y-134014761D02*
X110952380Y-134062380D01*
X110761904Y-134062380D01*
X110666666Y-134014761D01*
X110619047Y-133967142D01*
X110571428Y-133871904D01*
X110571428Y-133586190D01*
X110619047Y-133490952D01*
X110666666Y-133443333D01*
X110761904Y-133395714D01*
X110952380Y-133395714D01*
X111047619Y-133443333D01*
X111333333Y-133395714D02*
X111714285Y-133395714D01*
X111476190Y-133062380D02*
X111476190Y-133919523D01*
X111523809Y-134014761D01*
X111619047Y-134062380D01*
X111714285Y-134062380D01*
X112190476Y-134062380D02*
X112095238Y-134014761D01*
X112047619Y-133967142D01*
X112000000Y-133871904D01*
X112000000Y-133586190D01*
X112047619Y-133490952D01*
X112095238Y-133443333D01*
X112190476Y-133395714D01*
X112333333Y-133395714D01*
X112428571Y-133443333D01*
X112476190Y-133490952D01*
X112523809Y-133586190D01*
X112523809Y-133871904D01*
X112476190Y-133967142D01*
X112428571Y-134014761D01*
X112333333Y-134062380D01*
X112190476Y-134062380D01*
X112952380Y-134062380D02*
X112952380Y-133062380D01*
X112952380Y-133443333D02*
X113047619Y-133395714D01*
X113238095Y-133395714D01*
X113333333Y-133443333D01*
X113380952Y-133490952D01*
X113428571Y-133586190D01*
X113428571Y-133871904D01*
X113380952Y-133967142D01*
X113333333Y-134014761D01*
X113238095Y-134062380D01*
X113047619Y-134062380D01*
X112952380Y-134014761D01*
X114238095Y-134014761D02*
X114142857Y-134062380D01*
X113952380Y-134062380D01*
X113857142Y-134014761D01*
X113809523Y-133919523D01*
X113809523Y-133538571D01*
X113857142Y-133443333D01*
X113952380Y-133395714D01*
X114142857Y-133395714D01*
X114238095Y-133443333D01*
X114285714Y-133538571D01*
X114285714Y-133633809D01*
X113809523Y-133729047D01*
X114714285Y-134062380D02*
X114714285Y-133395714D01*
X114714285Y-133586190D02*
X114761904Y-133490952D01*
X114809523Y-133443333D01*
X114904761Y-133395714D01*
X115000000Y-133395714D01*
X116047619Y-133157619D02*
X116095238Y-133110000D01*
X116190476Y-133062380D01*
X116428571Y-133062380D01*
X116523809Y-133110000D01*
X116571428Y-133157619D01*
X116619047Y-133252857D01*
X116619047Y-133348095D01*
X116571428Y-133490952D01*
X116000000Y-134062380D01*
X116619047Y-134062380D01*
X117238095Y-133062380D02*
X117333333Y-133062380D01*
X117428571Y-133110000D01*
X117476190Y-133157619D01*
X117523809Y-133252857D01*
X117571428Y-133443333D01*
X117571428Y-133681428D01*
X117523809Y-133871904D01*
X117476190Y-133967142D01*
X117428571Y-134014761D01*
X117333333Y-134062380D01*
X117238095Y-134062380D01*
X117142857Y-134014761D01*
X117095238Y-133967142D01*
X117047619Y-133871904D01*
X117000000Y-133681428D01*
X117000000Y-133443333D01*
X117047619Y-133252857D01*
X117095238Y-133157619D01*
X117142857Y-133110000D01*
X117238095Y-133062380D01*
X117952380Y-133157619D02*
X118000000Y-133110000D01*
X118095238Y-133062380D01*
X118333333Y-133062380D01*
X118428571Y-133110000D01*
X118476190Y-133157619D01*
X118523809Y-133252857D01*
X118523809Y-133348095D01*
X118476190Y-133490952D01*
X117904761Y-134062380D01*
X118523809Y-134062380D01*
X118904761Y-133157619D02*
X118952380Y-133110000D01*
X119047619Y-133062380D01*
X119285714Y-133062380D01*
X119380952Y-133110000D01*
X119428571Y-133157619D01*
X119476190Y-133252857D01*
X119476190Y-133348095D01*
X119428571Y-133490952D01*
X118857142Y-134062380D01*
X119476190Y-134062380D01*
X155072380Y-130809523D02*
X155072380Y-131000000D01*
X155120000Y-131095238D01*
X155167619Y-131142857D01*
X155310476Y-131238095D01*
X155500952Y-131285714D01*
X155881904Y-131285714D01*
X155977142Y-131238095D01*
X156024761Y-131190476D01*
X156072380Y-131095238D01*
X156072380Y-130904761D01*
X156024761Y-130809523D01*
X155977142Y-130761904D01*
X155881904Y-130714285D01*
X155643809Y-130714285D01*
X155548571Y-130761904D01*
X155500952Y-130809523D01*
X155453333Y-130904761D01*
X155453333Y-131095238D01*
X155500952Y-131190476D01*
X155548571Y-131238095D01*
X155643809Y-131285714D01*
X153532380Y-75190476D02*
X153532380Y-75761904D01*
X153532380Y-75476190D02*
X152532380Y-75476190D01*
X152675238Y-75571428D01*
X152770476Y-75666666D01*
X152818095Y-75761904D01*
X152532380Y-74571428D02*
X152532380Y-74476190D01*
X152580000Y-74380952D01*
X152627619Y-74333333D01*
X152722857Y-74285714D01*
X152913333Y-74238095D01*
X153151428Y-74238095D01*
X153341904Y-74285714D01*
X153437142Y-74333333D01*
X153484761Y-74380952D01*
X153532380Y-74476190D01*
X153532380Y-74571428D01*
X153484761Y-74666666D01*
X153437142Y-74714285D01*
X153341904Y-74761904D01*
X153151428Y-74809523D01*
X152913333Y-74809523D01*
X152722857Y-74761904D01*
X152627619Y-74714285D01*
X152580000Y-74666666D01*
X152532380Y-74571428D01*
X147500000Y-132383214D02*
X147452380Y-132478452D01*
X147452380Y-132621309D01*
X147500000Y-132764166D01*
X147595238Y-132859404D01*
X147690476Y-132907023D01*
X147880952Y-132954642D01*
X148023809Y-132954642D01*
X148214285Y-132907023D01*
X148309523Y-132859404D01*
X148404761Y-132764166D01*
X148452380Y-132621309D01*
X148452380Y-132526071D01*
X148404761Y-132383214D01*
X148357142Y-132335595D01*
X148023809Y-132335595D01*
X148023809Y-132526071D01*
X148452380Y-131907023D02*
X147452380Y-131907023D01*
X148452380Y-131335595D01*
X147452380Y-131335595D01*
X148452380Y-130859404D02*
X147452380Y-130859404D01*
X147452380Y-130621309D01*
X147500000Y-130478452D01*
X147595238Y-130383214D01*
X147690476Y-130335595D01*
X147880952Y-130287976D01*
X148023809Y-130287976D01*
X148214285Y-130335595D01*
X148309523Y-130383214D01*
X148404761Y-130478452D01*
X148452380Y-130621309D01*
X148452380Y-130859404D01*
X165327619Y-131285714D02*
X165280000Y-131238095D01*
X165232380Y-131142857D01*
X165232380Y-130904761D01*
X165280000Y-130809523D01*
X165327619Y-130761904D01*
X165422857Y-130714285D01*
X165518095Y-130714285D01*
X165660952Y-130761904D01*
X166232380Y-131333333D01*
X166232380Y-130714285D01*
X161152380Y-75190476D02*
X161152380Y-75761904D01*
X161152380Y-75476190D02*
X160152380Y-75476190D01*
X160295238Y-75571428D01*
X160390476Y-75666666D01*
X160438095Y-75761904D01*
X160152380Y-74857142D02*
X160152380Y-74238095D01*
X160533333Y-74571428D01*
X160533333Y-74428571D01*
X160580952Y-74333333D01*
X160628571Y-74285714D01*
X160723809Y-74238095D01*
X160961904Y-74238095D01*
X161057142Y-74285714D01*
X161104761Y-74333333D01*
X161152380Y-74428571D01*
X161152380Y-74714285D01*
X161104761Y-74809523D01*
X161057142Y-74857142D01*
X150420952Y-131095238D02*
X150373333Y-131190476D01*
X150325714Y-131238095D01*
X150230476Y-131285714D01*
X150182857Y-131285714D01*
X150087619Y-131238095D01*
X150040000Y-131190476D01*
X149992380Y-131095238D01*
X149992380Y-130904761D01*
X150040000Y-130809523D01*
X150087619Y-130761904D01*
X150182857Y-130714285D01*
X150230476Y-130714285D01*
X150325714Y-130761904D01*
X150373333Y-130809523D01*
X150420952Y-130904761D01*
X150420952Y-131095238D01*
X150468571Y-131190476D01*
X150516190Y-131238095D01*
X150611428Y-131285714D01*
X150801904Y-131285714D01*
X150897142Y-131238095D01*
X150944761Y-131190476D01*
X150992380Y-131095238D01*
X150992380Y-130904761D01*
X150944761Y-130809523D01*
X150897142Y-130761904D01*
X150801904Y-130714285D01*
X150611428Y-130714285D01*
X150516190Y-130761904D01*
X150468571Y-130809523D01*
X150420952Y-130904761D01*
X152532380Y-131333333D02*
X152532380Y-130666666D01*
X153532380Y-131095238D01*
X168772380Y-130714285D02*
X168772380Y-131285714D01*
X168772380Y-131000000D02*
X167772380Y-131000000D01*
X167915238Y-131095238D01*
X168010476Y-131190476D01*
X168058095Y-131285714D01*
D11*
X127125535Y-115432142D02*
X127268392Y-115432142D01*
X127125535Y-115146428D02*
X127268392Y-115146428D01*
X127125535Y-114896428D02*
X127875535Y-114717857D01*
X127339821Y-114575000D01*
X127875535Y-114432142D01*
X127125535Y-114253571D01*
X127839821Y-113682142D02*
X127875535Y-113753571D01*
X127875535Y-113896428D01*
X127839821Y-113967857D01*
X127768392Y-114003571D01*
X127482678Y-114003571D01*
X127411250Y-113967857D01*
X127375535Y-113896428D01*
X127375535Y-113753571D01*
X127411250Y-113682142D01*
X127482678Y-113646428D01*
X127554107Y-113646428D01*
X127625535Y-114003571D01*
X127839821Y-112789285D02*
X127875535Y-112717857D01*
X127875535Y-112575000D01*
X127839821Y-112503571D01*
X127768392Y-112467857D01*
X127732678Y-112467857D01*
X127661250Y-112503571D01*
X127625535Y-112575000D01*
X127625535Y-112682142D01*
X127589821Y-112753571D01*
X127518392Y-112789285D01*
X127482678Y-112789285D01*
X127411250Y-112753571D01*
X127375535Y-112682142D01*
X127375535Y-112575000D01*
X127411250Y-112503571D01*
X127875535Y-112146428D02*
X127125535Y-112146428D01*
X127875535Y-111825000D02*
X127482678Y-111825000D01*
X127411250Y-111860714D01*
X127375535Y-111932142D01*
X127375535Y-112039285D01*
X127411250Y-112110714D01*
X127446964Y-112146428D01*
X127875535Y-111360714D02*
X127839821Y-111432142D01*
X127804107Y-111467857D01*
X127732678Y-111503571D01*
X127518392Y-111503571D01*
X127446964Y-111467857D01*
X127411250Y-111432142D01*
X127375535Y-111360714D01*
X127375535Y-111253571D01*
X127411250Y-111182142D01*
X127446964Y-111146428D01*
X127518392Y-111110714D01*
X127732678Y-111110714D01*
X127804107Y-111146428D01*
X127839821Y-111182142D01*
X127875535Y-111253571D01*
X127875535Y-111360714D01*
X127375535Y-110467857D02*
X127875535Y-110467857D01*
X127375535Y-110789285D02*
X127768392Y-110789285D01*
X127839821Y-110753571D01*
X127875535Y-110682142D01*
X127875535Y-110575000D01*
X127839821Y-110503571D01*
X127804107Y-110467857D01*
X127875535Y-110003571D02*
X127839821Y-110075000D01*
X127768392Y-110110714D01*
X127125535Y-110110714D01*
X127875535Y-109396428D02*
X127125535Y-109396428D01*
X127839821Y-109396428D02*
X127875535Y-109467857D01*
X127875535Y-109610714D01*
X127839821Y-109682142D01*
X127804107Y-109717857D01*
X127732678Y-109753571D01*
X127518392Y-109753571D01*
X127446964Y-109717857D01*
X127411250Y-109682142D01*
X127375535Y-109610714D01*
X127375535Y-109467857D01*
X127411250Y-109396428D01*
X127375535Y-108146428D02*
X127982678Y-108146428D01*
X128054107Y-108182142D01*
X128089821Y-108217857D01*
X128125535Y-108289285D01*
X128125535Y-108396428D01*
X128089821Y-108467857D01*
X127839821Y-108146428D02*
X127875535Y-108217857D01*
X127875535Y-108360714D01*
X127839821Y-108432142D01*
X127804107Y-108467857D01*
X127732678Y-108503571D01*
X127518392Y-108503571D01*
X127446964Y-108467857D01*
X127411250Y-108432142D01*
X127375535Y-108360714D01*
X127375535Y-108217857D01*
X127411250Y-108146428D01*
X127839821Y-107503571D02*
X127875535Y-107575000D01*
X127875535Y-107717857D01*
X127839821Y-107789285D01*
X127768392Y-107825000D01*
X127482678Y-107825000D01*
X127411250Y-107789285D01*
X127375535Y-107717857D01*
X127375535Y-107575000D01*
X127411250Y-107503571D01*
X127482678Y-107467857D01*
X127554107Y-107467857D01*
X127625535Y-107825000D01*
X127375535Y-107253571D02*
X127375535Y-106967857D01*
X127125535Y-107146428D02*
X127768392Y-107146428D01*
X127839821Y-107110714D01*
X127875535Y-107039285D01*
X127875535Y-106967857D01*
X127375535Y-106217857D02*
X127875535Y-106039285D01*
X127375535Y-105860714D02*
X127875535Y-106039285D01*
X128054107Y-106110714D01*
X128089821Y-106146428D01*
X128125535Y-106217857D01*
X127875535Y-105467857D02*
X127839821Y-105539285D01*
X127804107Y-105575000D01*
X127732678Y-105610714D01*
X127518392Y-105610714D01*
X127446964Y-105575000D01*
X127411250Y-105539285D01*
X127375535Y-105467857D01*
X127375535Y-105360714D01*
X127411250Y-105289285D01*
X127446964Y-105253571D01*
X127518392Y-105217857D01*
X127732678Y-105217857D01*
X127804107Y-105253571D01*
X127839821Y-105289285D01*
X127875535Y-105360714D01*
X127875535Y-105467857D01*
X127375535Y-104575000D02*
X127875535Y-104575000D01*
X127375535Y-104896428D02*
X127768392Y-104896428D01*
X127839821Y-104860714D01*
X127875535Y-104789285D01*
X127875535Y-104682142D01*
X127839821Y-104610714D01*
X127804107Y-104575000D01*
X127875535Y-103325000D02*
X127125535Y-103325000D01*
X127839821Y-103325000D02*
X127875535Y-103396428D01*
X127875535Y-103539285D01*
X127839821Y-103610714D01*
X127804107Y-103646428D01*
X127732678Y-103682142D01*
X127518392Y-103682142D01*
X127446964Y-103646428D01*
X127411250Y-103610714D01*
X127375535Y-103539285D01*
X127375535Y-103396428D01*
X127411250Y-103325000D01*
X127839821Y-102682142D02*
X127875535Y-102753571D01*
X127875535Y-102896428D01*
X127839821Y-102967857D01*
X127768392Y-103003571D01*
X127482678Y-103003571D01*
X127411250Y-102967857D01*
X127375535Y-102896428D01*
X127375535Y-102753571D01*
X127411250Y-102682142D01*
X127482678Y-102646428D01*
X127554107Y-102646428D01*
X127625535Y-103003571D01*
X127375535Y-102325000D02*
X128125535Y-102325000D01*
X127411250Y-102325000D02*
X127375535Y-102253571D01*
X127375535Y-102110714D01*
X127411250Y-102039285D01*
X127446964Y-102003571D01*
X127518392Y-101967857D01*
X127732678Y-101967857D01*
X127804107Y-102003571D01*
X127839821Y-102039285D01*
X127875535Y-102110714D01*
X127875535Y-102253571D01*
X127839821Y-102325000D01*
X127875535Y-101646428D02*
X127375535Y-101646428D01*
X127518392Y-101646428D02*
X127446964Y-101610714D01*
X127411250Y-101575000D01*
X127375535Y-101503571D01*
X127375535Y-101432142D01*
X127839821Y-100896428D02*
X127875535Y-100967857D01*
X127875535Y-101110714D01*
X127839821Y-101182142D01*
X127768392Y-101217857D01*
X127482678Y-101217857D01*
X127411250Y-101182142D01*
X127375535Y-101110714D01*
X127375535Y-100967857D01*
X127411250Y-100896428D01*
X127482678Y-100860714D01*
X127554107Y-100860714D01*
X127625535Y-101217857D01*
X127839821Y-100575000D02*
X127875535Y-100503571D01*
X127875535Y-100360714D01*
X127839821Y-100289285D01*
X127768392Y-100253571D01*
X127732678Y-100253571D01*
X127661250Y-100289285D01*
X127625535Y-100360714D01*
X127625535Y-100467857D01*
X127589821Y-100539285D01*
X127518392Y-100575000D01*
X127482678Y-100575000D01*
X127411250Y-100539285D01*
X127375535Y-100467857D01*
X127375535Y-100360714D01*
X127411250Y-100289285D01*
X127839821Y-99967857D02*
X127875535Y-99896428D01*
X127875535Y-99753571D01*
X127839821Y-99682142D01*
X127768392Y-99646428D01*
X127732678Y-99646428D01*
X127661250Y-99682142D01*
X127625535Y-99753571D01*
X127625535Y-99860714D01*
X127589821Y-99932142D01*
X127518392Y-99967857D01*
X127482678Y-99967857D01*
X127411250Y-99932142D01*
X127375535Y-99860714D01*
X127375535Y-99753571D01*
X127411250Y-99682142D01*
X127839821Y-99039285D02*
X127875535Y-99110714D01*
X127875535Y-99253571D01*
X127839821Y-99325000D01*
X127768392Y-99360714D01*
X127482678Y-99360714D01*
X127411250Y-99325000D01*
X127375535Y-99253571D01*
X127375535Y-99110714D01*
X127411250Y-99039285D01*
X127482678Y-99003571D01*
X127554107Y-99003571D01*
X127625535Y-99360714D01*
X127875535Y-98360714D02*
X127125535Y-98360714D01*
X127839821Y-98360714D02*
X127875535Y-98432142D01*
X127875535Y-98575000D01*
X127839821Y-98646428D01*
X127804107Y-98682142D01*
X127732678Y-98717857D01*
X127518392Y-98717857D01*
X127446964Y-98682142D01*
X127411250Y-98646428D01*
X127375535Y-98575000D01*
X127375535Y-98432142D01*
X127411250Y-98360714D01*
X127875535Y-97432142D02*
X127375535Y-97432142D01*
X127446964Y-97432142D02*
X127411250Y-97396428D01*
X127375535Y-97325000D01*
X127375535Y-97217857D01*
X127411250Y-97146428D01*
X127482678Y-97110714D01*
X127875535Y-97110714D01*
X127482678Y-97110714D02*
X127411250Y-97075000D01*
X127375535Y-97003571D01*
X127375535Y-96896428D01*
X127411250Y-96825000D01*
X127482678Y-96789285D01*
X127875535Y-96789285D01*
X127875535Y-96325000D02*
X127839821Y-96396428D01*
X127804107Y-96432142D01*
X127732678Y-96467857D01*
X127518392Y-96467857D01*
X127446964Y-96432142D01*
X127411250Y-96396428D01*
X127375535Y-96325000D01*
X127375535Y-96217857D01*
X127411250Y-96146428D01*
X127446964Y-96110714D01*
X127518392Y-96075000D01*
X127732678Y-96075000D01*
X127804107Y-96110714D01*
X127839821Y-96146428D01*
X127875535Y-96217857D01*
X127875535Y-96325000D01*
X127875535Y-95753571D02*
X127375535Y-95753571D01*
X127518392Y-95753571D02*
X127446964Y-95717857D01*
X127411250Y-95682142D01*
X127375535Y-95610714D01*
X127375535Y-95539285D01*
X127839821Y-95003571D02*
X127875535Y-95075000D01*
X127875535Y-95217857D01*
X127839821Y-95289285D01*
X127768392Y-95325000D01*
X127482678Y-95325000D01*
X127411250Y-95289285D01*
X127375535Y-95217857D01*
X127375535Y-95075000D01*
X127411250Y-95003571D01*
X127482678Y-94967857D01*
X127554107Y-94967857D01*
X127625535Y-95325000D01*
X127875535Y-93967857D02*
X127839821Y-94039285D01*
X127804107Y-94075000D01*
X127732678Y-94110714D01*
X127518392Y-94110714D01*
X127446964Y-94075000D01*
X127411250Y-94039285D01*
X127375535Y-93967857D01*
X127375535Y-93860714D01*
X127411250Y-93789285D01*
X127446964Y-93753571D01*
X127518392Y-93717857D01*
X127732678Y-93717857D01*
X127804107Y-93753571D01*
X127839821Y-93789285D01*
X127875535Y-93860714D01*
X127875535Y-93967857D01*
X127375535Y-93503571D02*
X127375535Y-93217857D01*
X127875535Y-93396428D02*
X127232678Y-93396428D01*
X127161250Y-93360714D01*
X127125535Y-93289285D01*
X127125535Y-93217857D01*
X127375535Y-93075000D02*
X127375535Y-92789285D01*
X127125535Y-92967857D02*
X127768392Y-92967857D01*
X127839821Y-92932142D01*
X127875535Y-92860714D01*
X127875535Y-92789285D01*
X127839821Y-92253571D02*
X127875535Y-92325000D01*
X127875535Y-92467857D01*
X127839821Y-92539285D01*
X127768392Y-92575000D01*
X127482678Y-92575000D01*
X127411250Y-92539285D01*
X127375535Y-92467857D01*
X127375535Y-92325000D01*
X127411250Y-92253571D01*
X127482678Y-92217857D01*
X127554107Y-92217857D01*
X127625535Y-92575000D01*
X127375535Y-91896428D02*
X127875535Y-91896428D01*
X127446964Y-91896428D02*
X127411250Y-91860714D01*
X127375535Y-91789285D01*
X127375535Y-91682142D01*
X127411250Y-91610714D01*
X127482678Y-91575000D01*
X127875535Y-91575000D01*
X127125535Y-91253571D02*
X127268392Y-91253571D01*
X127125535Y-90967857D02*
X127268392Y-90967857D01*
X128797321Y-105825000D02*
X128797321Y-105253571D01*
X129083035Y-104896428D02*
X128333035Y-104896428D01*
X128868750Y-104646428D01*
X128333035Y-104396428D01*
X129083035Y-104396428D01*
X129083035Y-103717857D02*
X128690178Y-103717857D01*
X128618750Y-103753571D01*
X128583035Y-103825000D01*
X128583035Y-103967857D01*
X128618750Y-104039285D01*
X129047321Y-103717857D02*
X129083035Y-103789285D01*
X129083035Y-103967857D01*
X129047321Y-104039285D01*
X128975892Y-104075000D01*
X128904464Y-104075000D01*
X128833035Y-104039285D01*
X128797321Y-103967857D01*
X128797321Y-103789285D01*
X128761607Y-103717857D01*
X128583035Y-103360714D02*
X129083035Y-103360714D01*
X128654464Y-103360714D02*
X128618750Y-103325000D01*
X128583035Y-103253571D01*
X128583035Y-103146428D01*
X128618750Y-103075000D01*
X128690178Y-103039285D01*
X129083035Y-103039285D01*
X128583035Y-102789285D02*
X128583035Y-102503571D01*
X128333035Y-102682142D02*
X128975892Y-102682142D01*
X129047321Y-102646428D01*
X129083035Y-102575000D01*
X129083035Y-102503571D01*
X129083035Y-102253571D02*
X128333035Y-102253571D01*
X129083035Y-101932142D02*
X128690178Y-101932142D01*
X128618750Y-101967857D01*
X128583035Y-102039285D01*
X128583035Y-102146428D01*
X128618750Y-102217857D01*
X128654464Y-102253571D01*
X129083035Y-101253571D02*
X128690178Y-101253571D01*
X128618750Y-101289285D01*
X128583035Y-101360714D01*
X128583035Y-101503571D01*
X128618750Y-101575000D01*
X129047321Y-101253571D02*
X129083035Y-101325000D01*
X129083035Y-101503571D01*
X129047321Y-101575000D01*
X128975892Y-101610714D01*
X128904464Y-101610714D01*
X128833035Y-101575000D01*
X128797321Y-101503571D01*
X128797321Y-101325000D01*
X128761607Y-101253571D01*
X128583035Y-100896428D02*
X129083035Y-100896428D01*
X128654464Y-100896428D02*
X128618750Y-100860714D01*
X128583035Y-100789285D01*
X128583035Y-100682142D01*
X128618750Y-100610714D01*
X128690178Y-100575000D01*
X129083035Y-100575000D01*
D10*
X163692380Y-75190476D02*
X163692380Y-75761904D01*
X163692380Y-75476190D02*
X162692380Y-75476190D01*
X162835238Y-75571428D01*
X162930476Y-75666666D01*
X162978095Y-75761904D01*
X163025714Y-74333333D02*
X163692380Y-74333333D01*
X162644761Y-74571428D02*
X163359047Y-74809523D01*
X163359047Y-74190476D01*
X140207142Y-116152380D02*
X139873809Y-115676190D01*
X139635714Y-116152380D02*
X139635714Y-115152380D01*
X140016666Y-115152380D01*
X140111904Y-115200000D01*
X140159523Y-115247619D01*
X140207142Y-115342857D01*
X140207142Y-115485714D01*
X140159523Y-115580952D01*
X140111904Y-115628571D01*
X140016666Y-115676190D01*
X139635714Y-115676190D01*
X141159523Y-116152380D02*
X140588095Y-116152380D01*
X140873809Y-116152380D02*
X140873809Y-115152380D01*
X140778571Y-115295238D01*
X140683333Y-115390476D01*
X140588095Y-115438095D01*
X141492857Y-115152380D02*
X142159523Y-115152380D01*
X141730952Y-116152380D01*
X145628572Y-91552380D02*
X145295239Y-91076190D01*
X145057144Y-91552380D02*
X145057144Y-90552380D01*
X145438096Y-90552380D01*
X145533334Y-90600000D01*
X145580953Y-90647619D01*
X145628572Y-90742857D01*
X145628572Y-90885714D01*
X145580953Y-90980952D01*
X145533334Y-91028571D01*
X145438096Y-91076190D01*
X145057144Y-91076190D01*
X146009525Y-90647619D02*
X146057144Y-90600000D01*
X146152382Y-90552380D01*
X146390477Y-90552380D01*
X146485715Y-90600000D01*
X146533334Y-90647619D01*
X146580953Y-90742857D01*
X146580953Y-90838095D01*
X146533334Y-90980952D01*
X145961906Y-91552380D01*
X146580953Y-91552380D01*
X146914287Y-90552380D02*
X147533334Y-90552380D01*
X147200001Y-90933333D01*
X147342858Y-90933333D01*
X147438096Y-90980952D01*
X147485715Y-91028571D01*
X147533334Y-91123809D01*
X147533334Y-91361904D01*
X147485715Y-91457142D01*
X147438096Y-91504761D01*
X147342858Y-91552380D01*
X147057144Y-91552380D01*
X146961906Y-91504761D01*
X146914287Y-91457142D01*
X136258571Y-94309523D02*
X136258571Y-94642857D01*
X136782380Y-94642857D02*
X135782380Y-94642857D01*
X135782380Y-94166666D01*
X136258571Y-93452380D02*
X136306190Y-93309523D01*
X136353809Y-93261904D01*
X136449047Y-93214285D01*
X136591904Y-93214285D01*
X136687142Y-93261904D01*
X136734761Y-93309523D01*
X136782380Y-93404761D01*
X136782380Y-93785714D01*
X135782380Y-93785714D01*
X135782380Y-93452380D01*
X135830000Y-93357142D01*
X135877619Y-93309523D01*
X135972857Y-93261904D01*
X136068095Y-93261904D01*
X136163333Y-93309523D01*
X136210952Y-93357142D01*
X136258571Y-93452380D01*
X136258571Y-93785714D01*
X136782380Y-92261904D02*
X136782380Y-92833333D01*
X136782380Y-92547619D02*
X135782380Y-92547619D01*
X135925238Y-92642857D01*
X136020476Y-92738095D01*
X136068095Y-92833333D01*
X135782380Y-91928571D02*
X135782380Y-91261904D01*
X136782380Y-91690476D01*
X161035714Y-91552380D02*
X160702381Y-91076190D01*
X160464286Y-91552380D02*
X160464286Y-90552380D01*
X160845238Y-90552380D01*
X160940476Y-90600000D01*
X160988095Y-90647619D01*
X161035714Y-90742857D01*
X161035714Y-90885714D01*
X160988095Y-90980952D01*
X160940476Y-91028571D01*
X160845238Y-91076190D01*
X160464286Y-91076190D01*
X161369048Y-90552380D02*
X161988095Y-90552380D01*
X161654762Y-90933333D01*
X161797619Y-90933333D01*
X161892857Y-90980952D01*
X161940476Y-91028571D01*
X161988095Y-91123809D01*
X161988095Y-91361904D01*
X161940476Y-91457142D01*
X161892857Y-91504761D01*
X161797619Y-91552380D01*
X161511905Y-91552380D01*
X161416667Y-91504761D01*
X161369048Y-91457142D01*
X162607143Y-90552380D02*
X162702381Y-90552380D01*
X162797619Y-90600000D01*
X162845238Y-90647619D01*
X162892857Y-90742857D01*
X162940476Y-90933333D01*
X162940476Y-91171428D01*
X162892857Y-91361904D01*
X162845238Y-91457142D01*
X162797619Y-91504761D01*
X162702381Y-91552380D01*
X162607143Y-91552380D01*
X162511905Y-91504761D01*
X162464286Y-91457142D01*
X162416667Y-91361904D01*
X162369048Y-91171428D01*
X162369048Y-90933333D01*
X162416667Y-90742857D01*
X162464286Y-90647619D01*
X162511905Y-90600000D01*
X162607143Y-90552380D01*
X155761426Y-116152380D02*
X155428093Y-115676190D01*
X155189998Y-116152380D02*
X155189998Y-115152380D01*
X155570950Y-115152380D01*
X155666188Y-115200000D01*
X155713807Y-115247619D01*
X155761426Y-115342857D01*
X155761426Y-115485714D01*
X155713807Y-115580952D01*
X155666188Y-115628571D01*
X155570950Y-115676190D01*
X155189998Y-115676190D01*
X156713807Y-116152380D02*
X156142379Y-116152380D01*
X156428093Y-116152380D02*
X156428093Y-115152380D01*
X156332855Y-115295238D01*
X156237617Y-115390476D01*
X156142379Y-115438095D01*
X157570950Y-115485714D02*
X157570950Y-116152380D01*
X157332855Y-115104761D02*
X157094760Y-115819047D01*
X157713807Y-115819047D01*
X160752378Y-112343571D02*
X160419045Y-112343571D01*
X160419045Y-112867380D02*
X160419045Y-111867380D01*
X160895235Y-111867380D01*
X161609521Y-112343571D02*
X161752378Y-112391190D01*
X161799997Y-112438809D01*
X161847616Y-112534047D01*
X161847616Y-112676904D01*
X161799997Y-112772142D01*
X161752378Y-112819761D01*
X161657140Y-112867380D01*
X161276188Y-112867380D01*
X161276188Y-111867380D01*
X161609521Y-111867380D01*
X161704759Y-111915000D01*
X161752378Y-111962619D01*
X161799997Y-112057857D01*
X161799997Y-112153095D01*
X161752378Y-112248333D01*
X161704759Y-112295952D01*
X161609521Y-112343571D01*
X161276188Y-112343571D01*
X162704759Y-112200714D02*
X162704759Y-112867380D01*
X162466664Y-111819761D02*
X162228569Y-112534047D01*
X162847616Y-112534047D01*
X150599998Y-119452380D02*
X150266665Y-118976190D01*
X150028570Y-119452380D02*
X150028570Y-118452380D01*
X150409522Y-118452380D01*
X150504760Y-118500000D01*
X150552379Y-118547619D01*
X150599998Y-118642857D01*
X150599998Y-118785714D01*
X150552379Y-118880952D01*
X150504760Y-118928571D01*
X150409522Y-118976190D01*
X150028570Y-118976190D01*
X151552379Y-119452380D02*
X150980951Y-119452380D01*
X151266665Y-119452380D02*
X151266665Y-118452380D01*
X151171427Y-118595238D01*
X151076189Y-118690476D01*
X150980951Y-118738095D01*
X152504760Y-119452380D02*
X151933332Y-119452380D01*
X152219046Y-119452380D02*
X152219046Y-118452380D01*
X152123808Y-118595238D01*
X152028570Y-118690476D01*
X151933332Y-118738095D01*
X176933333Y-119452380D02*
X176600000Y-118976190D01*
X176361904Y-119452380D02*
X176361904Y-118452380D01*
X176742857Y-118452380D01*
X176838095Y-118500000D01*
X176885714Y-118547619D01*
X176933333Y-118642857D01*
X176933333Y-118785714D01*
X176885714Y-118880952D01*
X176838095Y-118928571D01*
X176742857Y-118976190D01*
X176361904Y-118976190D01*
X177314285Y-118547619D02*
X177361904Y-118500000D01*
X177457142Y-118452380D01*
X177695238Y-118452380D01*
X177790476Y-118500000D01*
X177838095Y-118547619D01*
X177885714Y-118642857D01*
X177885714Y-118738095D01*
X177838095Y-118880952D01*
X177266666Y-119452380D01*
X177885714Y-119452380D01*
X166540473Y-116152380D02*
X166207140Y-115676190D01*
X165969044Y-116152380D02*
X165969044Y-115152380D01*
X166349997Y-115152380D01*
X166445235Y-115200000D01*
X166492854Y-115247619D01*
X166540473Y-115342857D01*
X166540473Y-115485714D01*
X166492854Y-115580952D01*
X166445235Y-115628571D01*
X166349997Y-115676190D01*
X165969044Y-115676190D01*
X167111901Y-115580952D02*
X167016663Y-115533333D01*
X166969044Y-115485714D01*
X166921425Y-115390476D01*
X166921425Y-115342857D01*
X166969044Y-115247619D01*
X167016663Y-115200000D01*
X167111901Y-115152380D01*
X167302378Y-115152380D01*
X167397616Y-115200000D01*
X167445235Y-115247619D01*
X167492854Y-115342857D01*
X167492854Y-115390476D01*
X167445235Y-115485714D01*
X167397616Y-115533333D01*
X167302378Y-115580952D01*
X167111901Y-115580952D01*
X167016663Y-115628571D01*
X166969044Y-115676190D01*
X166921425Y-115771428D01*
X166921425Y-115961904D01*
X166969044Y-116057142D01*
X167016663Y-116104761D01*
X167111901Y-116152380D01*
X167302378Y-116152380D01*
X167397616Y-116104761D01*
X167445235Y-116057142D01*
X167492854Y-115961904D01*
X167492854Y-115771428D01*
X167445235Y-115676190D01*
X167397616Y-115628571D01*
X167302378Y-115580952D01*
X175776192Y-94278571D02*
X175442858Y-94278571D01*
X175442858Y-94802380D02*
X175442858Y-93802380D01*
X175919049Y-93802380D01*
X176633335Y-94278571D02*
X176776192Y-94326190D01*
X176823811Y-94373809D01*
X176871430Y-94469047D01*
X176871430Y-94611904D01*
X176823811Y-94707142D01*
X176776192Y-94754761D01*
X176680954Y-94802380D01*
X176300001Y-94802380D01*
X176300001Y-93802380D01*
X176633335Y-93802380D01*
X176728573Y-93850000D01*
X176776192Y-93897619D01*
X176823811Y-93992857D01*
X176823811Y-94088095D01*
X176776192Y-94183333D01*
X176728573Y-94230952D01*
X176633335Y-94278571D01*
X176300001Y-94278571D01*
X177823811Y-94802380D02*
X177252382Y-94802380D01*
X177538096Y-94802380D02*
X177538096Y-93802380D01*
X177442858Y-93945238D01*
X177347620Y-94040476D01*
X177252382Y-94088095D01*
X178680954Y-93802380D02*
X178490477Y-93802380D01*
X178395239Y-93850000D01*
X178347620Y-93897619D01*
X178252382Y-94040476D01*
X178204763Y-94230952D01*
X178204763Y-94611904D01*
X178252382Y-94707142D01*
X178300001Y-94754761D01*
X178395239Y-94802380D01*
X178585716Y-94802380D01*
X178680954Y-94754761D01*
X178728573Y-94707142D01*
X178776192Y-94611904D01*
X178776192Y-94373809D01*
X178728573Y-94278571D01*
X178680954Y-94230952D01*
X178585716Y-94183333D01*
X178395239Y-94183333D01*
X178300001Y-94230952D01*
X178252382Y-94278571D01*
X178204763Y-94373809D01*
X145238094Y-112428571D02*
X144904761Y-112428571D01*
X144904761Y-112952380D02*
X144904761Y-111952380D01*
X145380951Y-111952380D01*
X146095237Y-112428571D02*
X146238094Y-112476190D01*
X146285713Y-112523809D01*
X146333332Y-112619047D01*
X146333332Y-112761904D01*
X146285713Y-112857142D01*
X146238094Y-112904761D01*
X146142856Y-112952380D01*
X145761904Y-112952380D01*
X145761904Y-111952380D01*
X146095237Y-111952380D01*
X146190475Y-112000000D01*
X146238094Y-112047619D01*
X146285713Y-112142857D01*
X146285713Y-112238095D01*
X146238094Y-112333333D01*
X146190475Y-112380952D01*
X146095237Y-112428571D01*
X145761904Y-112428571D01*
X146666666Y-111952380D02*
X147333332Y-111952380D01*
X146904761Y-112952380D01*
X176442858Y-91552380D02*
X176109525Y-91076190D01*
X175871430Y-91552380D02*
X175871430Y-90552380D01*
X176252382Y-90552380D01*
X176347620Y-90600000D01*
X176395239Y-90647619D01*
X176442858Y-90742857D01*
X176442858Y-90885714D01*
X176395239Y-90980952D01*
X176347620Y-91028571D01*
X176252382Y-91076190D01*
X175871430Y-91076190D01*
X176776192Y-90552380D02*
X177395239Y-90552380D01*
X177061906Y-90933333D01*
X177204763Y-90933333D01*
X177300001Y-90980952D01*
X177347620Y-91028571D01*
X177395239Y-91123809D01*
X177395239Y-91361904D01*
X177347620Y-91457142D01*
X177300001Y-91504761D01*
X177204763Y-91552380D01*
X176919049Y-91552380D01*
X176823811Y-91504761D01*
X176776192Y-91457142D01*
X177728573Y-90552380D02*
X178347620Y-90552380D01*
X178014287Y-90933333D01*
X178157144Y-90933333D01*
X178252382Y-90980952D01*
X178300001Y-91028571D01*
X178347620Y-91123809D01*
X178347620Y-91361904D01*
X178300001Y-91457142D01*
X178252382Y-91504761D01*
X178157144Y-91552380D01*
X177871430Y-91552380D01*
X177776192Y-91504761D01*
X177728573Y-91457142D01*
X176442858Y-84487142D02*
X176395239Y-84534761D01*
X176252382Y-84582380D01*
X176157144Y-84582380D01*
X176014287Y-84534761D01*
X175919049Y-84439523D01*
X175871430Y-84344285D01*
X175823811Y-84153809D01*
X175823811Y-84010952D01*
X175871430Y-83820476D01*
X175919049Y-83725238D01*
X176014287Y-83630000D01*
X176157144Y-83582380D01*
X176252382Y-83582380D01*
X176395239Y-83630000D01*
X176442858Y-83677619D01*
X177395239Y-84582380D02*
X176823811Y-84582380D01*
X177109525Y-84582380D02*
X177109525Y-83582380D01*
X177014287Y-83725238D01*
X176919049Y-83820476D01*
X176823811Y-83868095D01*
X177966668Y-84010952D02*
X177871430Y-83963333D01*
X177823811Y-83915714D01*
X177776192Y-83820476D01*
X177776192Y-83772857D01*
X177823811Y-83677619D01*
X177871430Y-83630000D01*
X177966668Y-83582380D01*
X178157144Y-83582380D01*
X178252382Y-83630000D01*
X178300001Y-83677619D01*
X178347620Y-83772857D01*
X178347620Y-83820476D01*
X178300001Y-83915714D01*
X178252382Y-83963333D01*
X178157144Y-84010952D01*
X177966668Y-84010952D01*
X177871430Y-84058571D01*
X177823811Y-84106190D01*
X177776192Y-84201428D01*
X177776192Y-84391904D01*
X177823811Y-84487142D01*
X177871430Y-84534761D01*
X177966668Y-84582380D01*
X178157144Y-84582380D01*
X178252382Y-84534761D01*
X178300001Y-84487142D01*
X178347620Y-84391904D01*
X178347620Y-84201428D01*
X178300001Y-84106190D01*
X178252382Y-84058571D01*
X178157144Y-84010952D01*
X145428570Y-119452380D02*
X145095237Y-118976190D01*
X144857142Y-119452380D02*
X144857142Y-118452380D01*
X145238094Y-118452380D01*
X145333332Y-118500000D01*
X145380951Y-118547619D01*
X145428570Y-118642857D01*
X145428570Y-118785714D01*
X145380951Y-118880952D01*
X145333332Y-118928571D01*
X145238094Y-118976190D01*
X144857142Y-118976190D01*
X146380951Y-119452380D02*
X145809523Y-119452380D01*
X146095237Y-119452380D02*
X146095237Y-118452380D01*
X145999999Y-118595238D01*
X145904761Y-118690476D01*
X145809523Y-118738095D01*
X146761904Y-118547619D02*
X146809523Y-118500000D01*
X146904761Y-118452380D01*
X147142856Y-118452380D01*
X147238094Y-118500000D01*
X147285713Y-118547619D01*
X147333332Y-118642857D01*
X147333332Y-118738095D01*
X147285713Y-118880952D01*
X146714285Y-119452380D01*
X147333332Y-119452380D01*
X166171428Y-84537142D02*
X166123809Y-84584761D01*
X165980952Y-84632380D01*
X165885714Y-84632380D01*
X165742857Y-84584761D01*
X165647619Y-84489523D01*
X165600000Y-84394285D01*
X165552381Y-84203809D01*
X165552381Y-84060952D01*
X165600000Y-83870476D01*
X165647619Y-83775238D01*
X165742857Y-83680000D01*
X165885714Y-83632380D01*
X165980952Y-83632380D01*
X166123809Y-83680000D01*
X166171428Y-83727619D01*
X167123809Y-84632380D02*
X166552381Y-84632380D01*
X166838095Y-84632380D02*
X166838095Y-83632380D01*
X166742857Y-83775238D01*
X166647619Y-83870476D01*
X166552381Y-83918095D01*
X167980952Y-83632380D02*
X167790476Y-83632380D01*
X167695238Y-83680000D01*
X167647619Y-83727619D01*
X167552381Y-83870476D01*
X167504762Y-84060952D01*
X167504762Y-84441904D01*
X167552381Y-84537142D01*
X167600000Y-84584761D01*
X167695238Y-84632380D01*
X167885714Y-84632380D01*
X167980952Y-84584761D01*
X168028571Y-84537142D01*
X168076190Y-84441904D01*
X168076190Y-84203809D01*
X168028571Y-84108571D01*
X167980952Y-84060952D01*
X167885714Y-84013333D01*
X167695238Y-84013333D01*
X167600000Y-84060952D01*
X167552381Y-84108571D01*
X167504762Y-84203809D01*
X150097620Y-94278571D02*
X149764286Y-94278571D01*
X149764286Y-94802380D02*
X149764286Y-93802380D01*
X150240477Y-93802380D01*
X150954763Y-94278571D02*
X151097620Y-94326190D01*
X151145239Y-94373809D01*
X151192858Y-94469047D01*
X151192858Y-94611904D01*
X151145239Y-94707142D01*
X151097620Y-94754761D01*
X151002382Y-94802380D01*
X150621429Y-94802380D01*
X150621429Y-93802380D01*
X150954763Y-93802380D01*
X151050001Y-93850000D01*
X151097620Y-93897619D01*
X151145239Y-93992857D01*
X151145239Y-94088095D01*
X151097620Y-94183333D01*
X151050001Y-94230952D01*
X150954763Y-94278571D01*
X150621429Y-94278571D01*
X152145239Y-94802380D02*
X151573810Y-94802380D01*
X151859524Y-94802380D02*
X151859524Y-93802380D01*
X151764286Y-93945238D01*
X151669048Y-94040476D01*
X151573810Y-94088095D01*
X153097620Y-94802380D02*
X152526191Y-94802380D01*
X152811905Y-94802380D02*
X152811905Y-93802380D01*
X152716667Y-93945238D01*
X152621429Y-94040476D01*
X152526191Y-94088095D01*
X155900000Y-84487142D02*
X155852381Y-84534761D01*
X155709524Y-84582380D01*
X155614286Y-84582380D01*
X155471429Y-84534761D01*
X155376191Y-84439523D01*
X155328572Y-84344285D01*
X155280953Y-84153809D01*
X155280953Y-84010952D01*
X155328572Y-83820476D01*
X155376191Y-83725238D01*
X155471429Y-83630000D01*
X155614286Y-83582380D01*
X155709524Y-83582380D01*
X155852381Y-83630000D01*
X155900000Y-83677619D01*
X156852381Y-84582380D02*
X156280953Y-84582380D01*
X156566667Y-84582380D02*
X156566667Y-83582380D01*
X156471429Y-83725238D01*
X156376191Y-83820476D01*
X156280953Y-83868095D01*
X157709524Y-83915714D02*
X157709524Y-84582380D01*
X157471429Y-83534761D02*
X157233334Y-84249047D01*
X157852381Y-84249047D01*
X161369045Y-116152380D02*
X161035712Y-115676190D01*
X160797616Y-116152380D02*
X160797616Y-115152380D01*
X161178569Y-115152380D01*
X161273807Y-115200000D01*
X161321426Y-115247619D01*
X161369045Y-115342857D01*
X161369045Y-115485714D01*
X161321426Y-115580952D01*
X161273807Y-115628571D01*
X161178569Y-115676190D01*
X160797616Y-115676190D01*
X161845235Y-116152380D02*
X162035712Y-116152380D01*
X162130950Y-116104761D01*
X162178569Y-116057142D01*
X162273807Y-115914285D01*
X162321426Y-115723809D01*
X162321426Y-115342857D01*
X162273807Y-115247619D01*
X162226188Y-115200000D01*
X162130950Y-115152380D01*
X161940473Y-115152380D01*
X161845235Y-115200000D01*
X161797616Y-115247619D01*
X161749997Y-115342857D01*
X161749997Y-115580952D01*
X161797616Y-115676190D01*
X161845235Y-115723809D01*
X161940473Y-115771428D01*
X162130950Y-115771428D01*
X162226188Y-115723809D01*
X162273807Y-115676190D01*
X162321426Y-115580952D01*
X140257142Y-119452380D02*
X139923809Y-118976190D01*
X139685714Y-119452380D02*
X139685714Y-118452380D01*
X140066666Y-118452380D01*
X140161904Y-118500000D01*
X140209523Y-118547619D01*
X140257142Y-118642857D01*
X140257142Y-118785714D01*
X140209523Y-118880952D01*
X140161904Y-118928571D01*
X140066666Y-118976190D01*
X139685714Y-118976190D01*
X141209523Y-119452380D02*
X140638095Y-119452380D01*
X140923809Y-119452380D02*
X140923809Y-118452380D01*
X140828571Y-118595238D01*
X140733333Y-118690476D01*
X140638095Y-118738095D01*
X141542857Y-118452380D02*
X142161904Y-118452380D01*
X141828571Y-118833333D01*
X141971428Y-118833333D01*
X142066666Y-118880952D01*
X142114285Y-118928571D01*
X142161904Y-119023809D01*
X142161904Y-119261904D01*
X142114285Y-119357142D01*
X142066666Y-119404761D01*
X141971428Y-119452380D01*
X141685714Y-119452380D01*
X141590476Y-119404761D01*
X141542857Y-119357142D01*
X182842380Y-97436666D02*
X182366190Y-97770000D01*
X182842380Y-98008095D02*
X181842380Y-98008095D01*
X181842380Y-97627142D01*
X181890000Y-97531904D01*
X181937619Y-97484285D01*
X182032857Y-97436666D01*
X182175714Y-97436666D01*
X182270952Y-97484285D01*
X182318571Y-97531904D01*
X182366190Y-97627142D01*
X182366190Y-98008095D01*
X182842380Y-96484285D02*
X182842380Y-97055714D01*
X182842380Y-96770000D02*
X181842380Y-96770000D01*
X181985238Y-96865238D01*
X182080476Y-96960476D01*
X182128095Y-97055714D01*
X156197617Y-122707142D02*
X156149998Y-122754761D01*
X156007141Y-122802380D01*
X155911903Y-122802380D01*
X155769045Y-122754761D01*
X155673807Y-122659523D01*
X155626188Y-122564285D01*
X155578569Y-122373809D01*
X155578569Y-122230952D01*
X155626188Y-122040476D01*
X155673807Y-121945238D01*
X155769045Y-121850000D01*
X155911903Y-121802380D01*
X156007141Y-121802380D01*
X156149998Y-121850000D01*
X156197617Y-121897619D01*
X156530950Y-121802380D02*
X157197617Y-121802380D01*
X156769045Y-122802380D01*
X176266666Y-112343571D02*
X175933333Y-112343571D01*
X175933333Y-112867380D02*
X175933333Y-111867380D01*
X176409523Y-111867380D01*
X177123809Y-112343571D02*
X177266666Y-112391190D01*
X177314285Y-112438809D01*
X177361904Y-112534047D01*
X177361904Y-112676904D01*
X177314285Y-112772142D01*
X177266666Y-112819761D01*
X177171428Y-112867380D01*
X176790476Y-112867380D01*
X176790476Y-111867380D01*
X177123809Y-111867380D01*
X177219047Y-111915000D01*
X177266666Y-111962619D01*
X177314285Y-112057857D01*
X177314285Y-112153095D01*
X177266666Y-112248333D01*
X177219047Y-112295952D01*
X177123809Y-112343571D01*
X176790476Y-112343571D01*
X178314285Y-112867380D02*
X177742857Y-112867380D01*
X178028571Y-112867380D02*
X178028571Y-111867380D01*
X177933333Y-112010238D01*
X177838095Y-112105476D01*
X177742857Y-112153095D01*
X140492858Y-84487142D02*
X140445239Y-84534761D01*
X140302382Y-84582380D01*
X140207144Y-84582380D01*
X140064287Y-84534761D01*
X139969049Y-84439523D01*
X139921430Y-84344285D01*
X139873811Y-84153809D01*
X139873811Y-84010952D01*
X139921430Y-83820476D01*
X139969049Y-83725238D01*
X140064287Y-83630000D01*
X140207144Y-83582380D01*
X140302382Y-83582380D01*
X140445239Y-83630000D01*
X140492858Y-83677619D01*
X141445239Y-84582380D02*
X140873811Y-84582380D01*
X141159525Y-84582380D02*
X141159525Y-83582380D01*
X141064287Y-83725238D01*
X140969049Y-83820476D01*
X140873811Y-83868095D01*
X142397620Y-84582380D02*
X141826192Y-84582380D01*
X142111906Y-84582380D02*
X142111906Y-83582380D01*
X142016668Y-83725238D01*
X141921430Y-83820476D01*
X141826192Y-83868095D01*
X171711901Y-116152380D02*
X171378568Y-115676190D01*
X171140472Y-116152380D02*
X171140472Y-115152380D01*
X171521425Y-115152380D01*
X171616663Y-115200000D01*
X171664282Y-115247619D01*
X171711901Y-115342857D01*
X171711901Y-115485714D01*
X171664282Y-115580952D01*
X171616663Y-115628571D01*
X171521425Y-115676190D01*
X171140472Y-115676190D01*
X172045234Y-115152380D02*
X172711901Y-115152380D01*
X172283329Y-116152380D01*
X171095234Y-112343571D02*
X170761901Y-112343571D01*
X170761901Y-112867380D02*
X170761901Y-111867380D01*
X171238091Y-111867380D01*
X171952377Y-112343571D02*
X172095234Y-112391190D01*
X172142853Y-112438809D01*
X172190472Y-112534047D01*
X172190472Y-112676904D01*
X172142853Y-112772142D01*
X172095234Y-112819761D01*
X171999996Y-112867380D01*
X171619044Y-112867380D01*
X171619044Y-111867380D01*
X171952377Y-111867380D01*
X172047615Y-111915000D01*
X172095234Y-111962619D01*
X172142853Y-112057857D01*
X172142853Y-112153095D01*
X172095234Y-112248333D01*
X172047615Y-112295952D01*
X171952377Y-112343571D01*
X171619044Y-112343571D01*
X172571425Y-111962619D02*
X172619044Y-111915000D01*
X172714282Y-111867380D01*
X172952377Y-111867380D01*
X173047615Y-111915000D01*
X173095234Y-111962619D01*
X173142853Y-112057857D01*
X173142853Y-112153095D01*
X173095234Y-112295952D01*
X172523806Y-112867380D01*
X173142853Y-112867380D01*
X170640476Y-94278571D02*
X170307142Y-94278571D01*
X170307142Y-94802380D02*
X170307142Y-93802380D01*
X170783333Y-93802380D01*
X171497619Y-94278571D02*
X171640476Y-94326190D01*
X171688095Y-94373809D01*
X171735714Y-94469047D01*
X171735714Y-94611904D01*
X171688095Y-94707142D01*
X171640476Y-94754761D01*
X171545238Y-94802380D01*
X171164285Y-94802380D01*
X171164285Y-93802380D01*
X171497619Y-93802380D01*
X171592857Y-93850000D01*
X171640476Y-93897619D01*
X171688095Y-93992857D01*
X171688095Y-94088095D01*
X171640476Y-94183333D01*
X171592857Y-94230952D01*
X171497619Y-94278571D01*
X171164285Y-94278571D01*
X172688095Y-94802380D02*
X172116666Y-94802380D01*
X172402380Y-94802380D02*
X172402380Y-93802380D01*
X172307142Y-93945238D01*
X172211904Y-94040476D01*
X172116666Y-94088095D01*
X173592857Y-93802380D02*
X173116666Y-93802380D01*
X173069047Y-94278571D01*
X173116666Y-94230952D01*
X173211904Y-94183333D01*
X173450000Y-94183333D01*
X173545238Y-94230952D01*
X173592857Y-94278571D01*
X173640476Y-94373809D01*
X173640476Y-94611904D01*
X173592857Y-94707142D01*
X173545238Y-94754761D01*
X173450000Y-94802380D01*
X173211904Y-94802380D01*
X173116666Y-94754761D01*
X173069047Y-94707142D01*
X171307142Y-87962380D02*
X170973809Y-87486190D01*
X170735714Y-87962380D02*
X170735714Y-86962380D01*
X171116666Y-86962380D01*
X171211904Y-87010000D01*
X171259523Y-87057619D01*
X171307142Y-87152857D01*
X171307142Y-87295714D01*
X171259523Y-87390952D01*
X171211904Y-87438571D01*
X171116666Y-87486190D01*
X170735714Y-87486190D01*
X171688095Y-87057619D02*
X171735714Y-87010000D01*
X171830952Y-86962380D01*
X172069047Y-86962380D01*
X172164285Y-87010000D01*
X172211904Y-87057619D01*
X172259523Y-87152857D01*
X172259523Y-87248095D01*
X172211904Y-87390952D01*
X171640476Y-87962380D01*
X172259523Y-87962380D01*
X172830952Y-87390952D02*
X172735714Y-87343333D01*
X172688095Y-87295714D01*
X172640476Y-87200476D01*
X172640476Y-87152857D01*
X172688095Y-87057619D01*
X172735714Y-87010000D01*
X172830952Y-86962380D01*
X173021428Y-86962380D01*
X173116666Y-87010000D01*
X173164285Y-87057619D01*
X173211904Y-87152857D01*
X173211904Y-87200476D01*
X173164285Y-87295714D01*
X173116666Y-87343333D01*
X173021428Y-87390952D01*
X172830952Y-87390952D01*
X172735714Y-87438571D01*
X172688095Y-87486190D01*
X172640476Y-87581428D01*
X172640476Y-87771904D01*
X172688095Y-87867142D01*
X172735714Y-87914761D01*
X172830952Y-87962380D01*
X173021428Y-87962380D01*
X173116666Y-87914761D01*
X173164285Y-87867142D01*
X173211904Y-87771904D01*
X173211904Y-87581428D01*
X173164285Y-87486190D01*
X173116666Y-87438571D01*
X173021428Y-87390952D01*
X171761901Y-119402380D02*
X171428568Y-118926190D01*
X171190472Y-119402380D02*
X171190472Y-118402380D01*
X171571425Y-118402380D01*
X171666663Y-118450000D01*
X171714282Y-118497619D01*
X171761901Y-118592857D01*
X171761901Y-118735714D01*
X171714282Y-118830952D01*
X171666663Y-118878571D01*
X171571425Y-118926190D01*
X171190472Y-118926190D01*
X172095234Y-118402380D02*
X172714282Y-118402380D01*
X172380948Y-118783333D01*
X172523806Y-118783333D01*
X172619044Y-118830952D01*
X172666663Y-118878571D01*
X172714282Y-118973809D01*
X172714282Y-119211904D01*
X172666663Y-119307142D01*
X172619044Y-119354761D01*
X172523806Y-119402380D01*
X172238091Y-119402380D01*
X172142853Y-119354761D01*
X172095234Y-119307142D01*
X171307142Y-84487142D02*
X171259523Y-84534761D01*
X171116666Y-84582380D01*
X171021428Y-84582380D01*
X170878571Y-84534761D01*
X170783333Y-84439523D01*
X170735714Y-84344285D01*
X170688095Y-84153809D01*
X170688095Y-84010952D01*
X170735714Y-83820476D01*
X170783333Y-83725238D01*
X170878571Y-83630000D01*
X171021428Y-83582380D01*
X171116666Y-83582380D01*
X171259523Y-83630000D01*
X171307142Y-83677619D01*
X172259523Y-84582380D02*
X171688095Y-84582380D01*
X171973809Y-84582380D02*
X171973809Y-83582380D01*
X171878571Y-83725238D01*
X171783333Y-83820476D01*
X171688095Y-83868095D01*
X172592857Y-83582380D02*
X173259523Y-83582380D01*
X172830952Y-84582380D01*
X150549998Y-116152380D02*
X150216665Y-115676190D01*
X149978570Y-116152380D02*
X149978570Y-115152380D01*
X150359522Y-115152380D01*
X150454760Y-115200000D01*
X150502379Y-115247619D01*
X150549998Y-115342857D01*
X150549998Y-115485714D01*
X150502379Y-115580952D01*
X150454760Y-115628571D01*
X150359522Y-115676190D01*
X149978570Y-115676190D01*
X151502379Y-116152380D02*
X150930951Y-116152380D01*
X151216665Y-116152380D02*
X151216665Y-115152380D01*
X151121427Y-115295238D01*
X151026189Y-115390476D01*
X150930951Y-115438095D01*
X152407141Y-115152380D02*
X151930951Y-115152380D01*
X151883332Y-115628571D01*
X151930951Y-115580952D01*
X152026189Y-115533333D01*
X152264284Y-115533333D01*
X152359522Y-115580952D01*
X152407141Y-115628571D01*
X152454760Y-115723809D01*
X152454760Y-115961904D01*
X152407141Y-116057142D01*
X152359522Y-116104761D01*
X152264284Y-116152380D01*
X152026189Y-116152380D01*
X151930951Y-116104761D01*
X151883332Y-116057142D01*
X151026189Y-122707142D02*
X150978570Y-122754761D01*
X150835713Y-122802380D01*
X150740475Y-122802380D01*
X150597617Y-122754761D01*
X150502379Y-122659523D01*
X150454760Y-122564285D01*
X150407141Y-122373809D01*
X150407141Y-122230952D01*
X150454760Y-122040476D01*
X150502379Y-121945238D01*
X150597617Y-121850000D01*
X150740475Y-121802380D01*
X150835713Y-121802380D01*
X150978570Y-121850000D01*
X151026189Y-121897619D01*
X151597617Y-122230952D02*
X151502379Y-122183333D01*
X151454760Y-122135714D01*
X151407141Y-122040476D01*
X151407141Y-121992857D01*
X151454760Y-121897619D01*
X151502379Y-121850000D01*
X151597617Y-121802380D01*
X151788094Y-121802380D01*
X151883332Y-121850000D01*
X151930951Y-121897619D01*
X151978570Y-121992857D01*
X151978570Y-122040476D01*
X151930951Y-122135714D01*
X151883332Y-122183333D01*
X151788094Y-122230952D01*
X151597617Y-122230952D01*
X151502379Y-122278571D01*
X151454760Y-122326190D01*
X151407141Y-122421428D01*
X151407141Y-122611904D01*
X151454760Y-122707142D01*
X151502379Y-122754761D01*
X151597617Y-122802380D01*
X151788094Y-122802380D01*
X151883332Y-122754761D01*
X151930951Y-122707142D01*
X151978570Y-122611904D01*
X151978570Y-122421428D01*
X151930951Y-122326190D01*
X151883332Y-122278571D01*
X151788094Y-122230952D01*
X165923806Y-112343571D02*
X165590473Y-112343571D01*
X165590473Y-112867380D02*
X165590473Y-111867380D01*
X166066663Y-111867380D01*
X166780949Y-112343571D02*
X166923806Y-112391190D01*
X166971425Y-112438809D01*
X167019044Y-112534047D01*
X167019044Y-112676904D01*
X166971425Y-112772142D01*
X166923806Y-112819761D01*
X166828568Y-112867380D01*
X166447616Y-112867380D01*
X166447616Y-111867380D01*
X166780949Y-111867380D01*
X166876187Y-111915000D01*
X166923806Y-111962619D01*
X166971425Y-112057857D01*
X166971425Y-112153095D01*
X166923806Y-112248333D01*
X166876187Y-112295952D01*
X166780949Y-112343571D01*
X166447616Y-112343571D01*
X167352378Y-111867380D02*
X167971425Y-111867380D01*
X167638092Y-112248333D01*
X167780949Y-112248333D01*
X167876187Y-112295952D01*
X167923806Y-112343571D01*
X167971425Y-112438809D01*
X167971425Y-112676904D01*
X167923806Y-112772142D01*
X167876187Y-112819761D01*
X167780949Y-112867380D01*
X167495235Y-112867380D01*
X167399997Y-112819761D01*
X167352378Y-112772142D01*
X171711901Y-122707142D02*
X171664282Y-122754761D01*
X171521425Y-122802380D01*
X171426187Y-122802380D01*
X171283329Y-122754761D01*
X171188091Y-122659523D01*
X171140472Y-122564285D01*
X171092853Y-122373809D01*
X171092853Y-122230952D01*
X171140472Y-122040476D01*
X171188091Y-121945238D01*
X171283329Y-121850000D01*
X171426187Y-121802380D01*
X171521425Y-121802380D01*
X171664282Y-121850000D01*
X171711901Y-121897619D01*
X172569044Y-122135714D02*
X172569044Y-122802380D01*
X172330948Y-121754761D02*
X172092853Y-122469047D01*
X172711901Y-122469047D01*
X145628572Y-84487142D02*
X145580953Y-84534761D01*
X145438096Y-84582380D01*
X145342858Y-84582380D01*
X145200001Y-84534761D01*
X145104763Y-84439523D01*
X145057144Y-84344285D01*
X145009525Y-84153809D01*
X145009525Y-84010952D01*
X145057144Y-83820476D01*
X145104763Y-83725238D01*
X145200001Y-83630000D01*
X145342858Y-83582380D01*
X145438096Y-83582380D01*
X145580953Y-83630000D01*
X145628572Y-83677619D01*
X146580953Y-84582380D02*
X146009525Y-84582380D01*
X146295239Y-84582380D02*
X146295239Y-83582380D01*
X146200001Y-83725238D01*
X146104763Y-83820476D01*
X146009525Y-83868095D01*
X146961906Y-83677619D02*
X147009525Y-83630000D01*
X147104763Y-83582380D01*
X147342858Y-83582380D01*
X147438096Y-83630000D01*
X147485715Y-83677619D01*
X147533334Y-83772857D01*
X147533334Y-83868095D01*
X147485715Y-84010952D01*
X146914287Y-84582380D01*
X147533334Y-84582380D01*
X140492858Y-87962380D02*
X140159525Y-87486190D01*
X139921430Y-87962380D02*
X139921430Y-86962380D01*
X140302382Y-86962380D01*
X140397620Y-87010000D01*
X140445239Y-87057619D01*
X140492858Y-87152857D01*
X140492858Y-87295714D01*
X140445239Y-87390952D01*
X140397620Y-87438571D01*
X140302382Y-87486190D01*
X139921430Y-87486190D01*
X141445239Y-87962380D02*
X140873811Y-87962380D01*
X141159525Y-87962380D02*
X141159525Y-86962380D01*
X141064287Y-87105238D01*
X140969049Y-87200476D01*
X140873811Y-87248095D01*
X142016668Y-87390952D02*
X141921430Y-87343333D01*
X141873811Y-87295714D01*
X141826192Y-87200476D01*
X141826192Y-87152857D01*
X141873811Y-87057619D01*
X141921430Y-87010000D01*
X142016668Y-86962380D01*
X142207144Y-86962380D01*
X142302382Y-87010000D01*
X142350001Y-87057619D01*
X142397620Y-87152857D01*
X142397620Y-87200476D01*
X142350001Y-87295714D01*
X142302382Y-87343333D01*
X142207144Y-87390952D01*
X142016668Y-87390952D01*
X141921430Y-87438571D01*
X141873811Y-87486190D01*
X141826192Y-87581428D01*
X141826192Y-87771904D01*
X141873811Y-87867142D01*
X141921430Y-87914761D01*
X142016668Y-87962380D01*
X142207144Y-87962380D01*
X142302382Y-87914761D01*
X142350001Y-87867142D01*
X142397620Y-87771904D01*
X142397620Y-87581428D01*
X142350001Y-87486190D01*
X142302382Y-87438571D01*
X142207144Y-87390952D01*
X161035714Y-84487142D02*
X160988095Y-84534761D01*
X160845238Y-84582380D01*
X160750000Y-84582380D01*
X160607143Y-84534761D01*
X160511905Y-84439523D01*
X160464286Y-84344285D01*
X160416667Y-84153809D01*
X160416667Y-84010952D01*
X160464286Y-83820476D01*
X160511905Y-83725238D01*
X160607143Y-83630000D01*
X160750000Y-83582380D01*
X160845238Y-83582380D01*
X160988095Y-83630000D01*
X161035714Y-83677619D01*
X161988095Y-84582380D02*
X161416667Y-84582380D01*
X161702381Y-84582380D02*
X161702381Y-83582380D01*
X161607143Y-83725238D01*
X161511905Y-83820476D01*
X161416667Y-83868095D01*
X162892857Y-83582380D02*
X162416667Y-83582380D01*
X162369048Y-84058571D01*
X162416667Y-84010952D01*
X162511905Y-83963333D01*
X162750000Y-83963333D01*
X162845238Y-84010952D01*
X162892857Y-84058571D01*
X162940476Y-84153809D01*
X162940476Y-84391904D01*
X162892857Y-84487142D01*
X162845238Y-84534761D01*
X162750000Y-84582380D01*
X162511905Y-84582380D01*
X162416667Y-84534761D01*
X162369048Y-84487142D01*
X176883333Y-116152380D02*
X176550000Y-115676190D01*
X176311904Y-116152380D02*
X176311904Y-115152380D01*
X176692857Y-115152380D01*
X176788095Y-115200000D01*
X176835714Y-115247619D01*
X176883333Y-115342857D01*
X176883333Y-115485714D01*
X176835714Y-115580952D01*
X176788095Y-115628571D01*
X176692857Y-115676190D01*
X176311904Y-115676190D01*
X177740476Y-115152380D02*
X177550000Y-115152380D01*
X177454761Y-115200000D01*
X177407142Y-115247619D01*
X177311904Y-115390476D01*
X177264285Y-115580952D01*
X177264285Y-115961904D01*
X177311904Y-116057142D01*
X177359523Y-116104761D01*
X177454761Y-116152380D01*
X177645238Y-116152380D01*
X177740476Y-116104761D01*
X177788095Y-116057142D01*
X177835714Y-115961904D01*
X177835714Y-115723809D01*
X177788095Y-115628571D01*
X177740476Y-115580952D01*
X177645238Y-115533333D01*
X177454761Y-115533333D01*
X177359523Y-115580952D01*
X177311904Y-115628571D01*
X177264285Y-115723809D01*
X136248571Y-106309523D02*
X136248571Y-106642857D01*
X136772380Y-106642857D02*
X135772380Y-106642857D01*
X135772380Y-106166666D01*
X136248571Y-105452380D02*
X136296190Y-105309523D01*
X136343809Y-105261904D01*
X136439047Y-105214285D01*
X136581904Y-105214285D01*
X136677142Y-105261904D01*
X136724761Y-105309523D01*
X136772380Y-105404761D01*
X136772380Y-105785714D01*
X135772380Y-105785714D01*
X135772380Y-105452380D01*
X135820000Y-105357142D01*
X135867619Y-105309523D01*
X135962857Y-105261904D01*
X136058095Y-105261904D01*
X136153333Y-105309523D01*
X136200952Y-105357142D01*
X136248571Y-105452380D01*
X136248571Y-105785714D01*
X136772380Y-104261904D02*
X136772380Y-104833333D01*
X136772380Y-104547619D02*
X135772380Y-104547619D01*
X135915238Y-104642857D01*
X136010476Y-104738095D01*
X136058095Y-104833333D01*
X136200952Y-103690476D02*
X136153333Y-103785714D01*
X136105714Y-103833333D01*
X136010476Y-103880952D01*
X135962857Y-103880952D01*
X135867619Y-103833333D01*
X135820000Y-103785714D01*
X135772380Y-103690476D01*
X135772380Y-103500000D01*
X135820000Y-103404761D01*
X135867619Y-103357142D01*
X135962857Y-103309523D01*
X136010476Y-103309523D01*
X136105714Y-103357142D01*
X136153333Y-103404761D01*
X136200952Y-103500000D01*
X136200952Y-103690476D01*
X136248571Y-103785714D01*
X136296190Y-103833333D01*
X136391428Y-103880952D01*
X136581904Y-103880952D01*
X136677142Y-103833333D01*
X136724761Y-103785714D01*
X136772380Y-103690476D01*
X136772380Y-103500000D01*
X136724761Y-103404761D01*
X136677142Y-103357142D01*
X136581904Y-103309523D01*
X136391428Y-103309523D01*
X136296190Y-103357142D01*
X136248571Y-103404761D01*
X136200952Y-103500000D01*
X140207142Y-122707142D02*
X140159523Y-122754761D01*
X140016666Y-122802380D01*
X139921428Y-122802380D01*
X139778571Y-122754761D01*
X139683333Y-122659523D01*
X139635714Y-122564285D01*
X139588095Y-122373809D01*
X139588095Y-122230952D01*
X139635714Y-122040476D01*
X139683333Y-121945238D01*
X139778571Y-121850000D01*
X139921428Y-121802380D01*
X140016666Y-121802380D01*
X140159523Y-121850000D01*
X140207142Y-121897619D01*
X141159523Y-122802380D02*
X140588095Y-122802380D01*
X140873809Y-122802380D02*
X140873809Y-121802380D01*
X140778571Y-121945238D01*
X140683333Y-122040476D01*
X140588095Y-122088095D01*
X141778571Y-121802380D02*
X141873809Y-121802380D01*
X141969047Y-121850000D01*
X142016666Y-121897619D01*
X142064285Y-121992857D01*
X142111904Y-122183333D01*
X142111904Y-122421428D01*
X142064285Y-122611904D01*
X142016666Y-122707142D01*
X141969047Y-122754761D01*
X141873809Y-122802380D01*
X141778571Y-122802380D01*
X141683333Y-122754761D01*
X141635714Y-122707142D01*
X141588095Y-122611904D01*
X141540476Y-122421428D01*
X141540476Y-122183333D01*
X141588095Y-121992857D01*
X141635714Y-121897619D01*
X141683333Y-121850000D01*
X141778571Y-121802380D01*
X140302382Y-94278571D02*
X139969049Y-94278571D01*
X139969049Y-94802380D02*
X139969049Y-93802380D01*
X140445239Y-93802380D01*
X141159525Y-94278571D02*
X141302382Y-94326190D01*
X141350001Y-94373809D01*
X141397620Y-94469047D01*
X141397620Y-94611904D01*
X141350001Y-94707142D01*
X141302382Y-94754761D01*
X141207144Y-94802380D01*
X140826192Y-94802380D01*
X140826192Y-93802380D01*
X141159525Y-93802380D01*
X141254763Y-93850000D01*
X141302382Y-93897619D01*
X141350001Y-93992857D01*
X141350001Y-94088095D01*
X141302382Y-94183333D01*
X141254763Y-94230952D01*
X141159525Y-94278571D01*
X140826192Y-94278571D01*
X141873811Y-94802380D02*
X142064287Y-94802380D01*
X142159525Y-94754761D01*
X142207144Y-94707142D01*
X142302382Y-94564285D01*
X142350001Y-94373809D01*
X142350001Y-93992857D01*
X142302382Y-93897619D01*
X142254763Y-93850000D01*
X142159525Y-93802380D01*
X141969049Y-93802380D01*
X141873811Y-93850000D01*
X141826192Y-93897619D01*
X141778573Y-93992857D01*
X141778573Y-94230952D01*
X141826192Y-94326190D01*
X141873811Y-94373809D01*
X141969049Y-94421428D01*
X142159525Y-94421428D01*
X142254763Y-94373809D01*
X142302382Y-94326190D01*
X142350001Y-94230952D01*
X150764286Y-87962380D02*
X150430953Y-87486190D01*
X150192858Y-87962380D02*
X150192858Y-86962380D01*
X150573810Y-86962380D01*
X150669048Y-87010000D01*
X150716667Y-87057619D01*
X150764286Y-87152857D01*
X150764286Y-87295714D01*
X150716667Y-87390952D01*
X150669048Y-87438571D01*
X150573810Y-87486190D01*
X150192858Y-87486190D01*
X151145239Y-87057619D02*
X151192858Y-87010000D01*
X151288096Y-86962380D01*
X151526191Y-86962380D01*
X151621429Y-87010000D01*
X151669048Y-87057619D01*
X151716667Y-87152857D01*
X151716667Y-87248095D01*
X151669048Y-87390952D01*
X151097620Y-87962380D01*
X151716667Y-87962380D01*
X152335715Y-86962380D02*
X152430953Y-86962380D01*
X152526191Y-87010000D01*
X152573810Y-87057619D01*
X152621429Y-87152857D01*
X152669048Y-87343333D01*
X152669048Y-87581428D01*
X152621429Y-87771904D01*
X152573810Y-87867142D01*
X152526191Y-87914761D01*
X152430953Y-87962380D01*
X152335715Y-87962380D01*
X152240477Y-87914761D01*
X152192858Y-87867142D01*
X152145239Y-87771904D01*
X152097620Y-87581428D01*
X152097620Y-87343333D01*
X152145239Y-87152857D01*
X152192858Y-87057619D01*
X152240477Y-87010000D01*
X152335715Y-86962380D01*
X140492858Y-91552380D02*
X140159525Y-91076190D01*
X139921430Y-91552380D02*
X139921430Y-90552380D01*
X140302382Y-90552380D01*
X140397620Y-90600000D01*
X140445239Y-90647619D01*
X140492858Y-90742857D01*
X140492858Y-90885714D01*
X140445239Y-90980952D01*
X140397620Y-91028571D01*
X140302382Y-91076190D01*
X139921430Y-91076190D01*
X140873811Y-90647619D02*
X140921430Y-90600000D01*
X141016668Y-90552380D01*
X141254763Y-90552380D01*
X141350001Y-90600000D01*
X141397620Y-90647619D01*
X141445239Y-90742857D01*
X141445239Y-90838095D01*
X141397620Y-90980952D01*
X140826192Y-91552380D01*
X141445239Y-91552380D01*
X141826192Y-90647619D02*
X141873811Y-90600000D01*
X141969049Y-90552380D01*
X142207144Y-90552380D01*
X142302382Y-90600000D01*
X142350001Y-90647619D01*
X142397620Y-90742857D01*
X142397620Y-90838095D01*
X142350001Y-90980952D01*
X141778573Y-91552380D01*
X142397620Y-91552380D01*
X155771426Y-119452380D02*
X155438093Y-118976190D01*
X155199998Y-119452380D02*
X155199998Y-118452380D01*
X155580950Y-118452380D01*
X155676188Y-118500000D01*
X155723807Y-118547619D01*
X155771426Y-118642857D01*
X155771426Y-118785714D01*
X155723807Y-118880952D01*
X155676188Y-118928571D01*
X155580950Y-118976190D01*
X155199998Y-118976190D01*
X156723807Y-119452380D02*
X156152379Y-119452380D01*
X156438093Y-119452380D02*
X156438093Y-118452380D01*
X156342855Y-118595238D01*
X156247617Y-118690476D01*
X156152379Y-118738095D01*
X157342855Y-118452380D02*
X157438093Y-118452380D01*
X157533331Y-118500000D01*
X157580950Y-118547619D01*
X157628569Y-118642857D01*
X157676188Y-118833333D01*
X157676188Y-119071428D01*
X157628569Y-119261904D01*
X157580950Y-119357142D01*
X157533331Y-119404761D01*
X157438093Y-119452380D01*
X157342855Y-119452380D01*
X157247617Y-119404761D01*
X157199998Y-119357142D01*
X157152379Y-119261904D01*
X157104760Y-119071428D01*
X157104760Y-118833333D01*
X157152379Y-118642857D01*
X157199998Y-118547619D01*
X157247617Y-118500000D01*
X157342855Y-118452380D01*
X160369048Y-94278571D02*
X160035714Y-94278571D01*
X160035714Y-94802380D02*
X160035714Y-93802380D01*
X160511905Y-93802380D01*
X161226191Y-94278571D02*
X161369048Y-94326190D01*
X161416667Y-94373809D01*
X161464286Y-94469047D01*
X161464286Y-94611904D01*
X161416667Y-94707142D01*
X161369048Y-94754761D01*
X161273810Y-94802380D01*
X160892857Y-94802380D01*
X160892857Y-93802380D01*
X161226191Y-93802380D01*
X161321429Y-93850000D01*
X161369048Y-93897619D01*
X161416667Y-93992857D01*
X161416667Y-94088095D01*
X161369048Y-94183333D01*
X161321429Y-94230952D01*
X161226191Y-94278571D01*
X160892857Y-94278571D01*
X162416667Y-94802380D02*
X161845238Y-94802380D01*
X162130952Y-94802380D02*
X162130952Y-93802380D01*
X162035714Y-93945238D01*
X161940476Y-94040476D01*
X161845238Y-94088095D01*
X162750000Y-93802380D02*
X163369048Y-93802380D01*
X163035714Y-94183333D01*
X163178572Y-94183333D01*
X163273810Y-94230952D01*
X163321429Y-94278571D01*
X163369048Y-94373809D01*
X163369048Y-94611904D01*
X163321429Y-94707142D01*
X163273810Y-94754761D01*
X163178572Y-94802380D01*
X162892857Y-94802380D01*
X162797619Y-94754761D01*
X162750000Y-94707142D01*
X145628572Y-87962380D02*
X145295239Y-87486190D01*
X145057144Y-87962380D02*
X145057144Y-86962380D01*
X145438096Y-86962380D01*
X145533334Y-87010000D01*
X145580953Y-87057619D01*
X145628572Y-87152857D01*
X145628572Y-87295714D01*
X145580953Y-87390952D01*
X145533334Y-87438571D01*
X145438096Y-87486190D01*
X145057144Y-87486190D01*
X146580953Y-87962380D02*
X146009525Y-87962380D01*
X146295239Y-87962380D02*
X146295239Y-86962380D01*
X146200001Y-87105238D01*
X146104763Y-87200476D01*
X146009525Y-87248095D01*
X147057144Y-87962380D02*
X147247620Y-87962380D01*
X147342858Y-87914761D01*
X147390477Y-87867142D01*
X147485715Y-87724285D01*
X147533334Y-87533809D01*
X147533334Y-87152857D01*
X147485715Y-87057619D01*
X147438096Y-87010000D01*
X147342858Y-86962380D01*
X147152382Y-86962380D01*
X147057144Y-87010000D01*
X147009525Y-87057619D01*
X146961906Y-87152857D01*
X146961906Y-87390952D01*
X147009525Y-87486190D01*
X147057144Y-87533809D01*
X147152382Y-87581428D01*
X147342858Y-87581428D01*
X147438096Y-87533809D01*
X147485715Y-87486190D01*
X147533334Y-87390952D01*
X150764286Y-91552380D02*
X150430953Y-91076190D01*
X150192858Y-91552380D02*
X150192858Y-90552380D01*
X150573810Y-90552380D01*
X150669048Y-90600000D01*
X150716667Y-90647619D01*
X150764286Y-90742857D01*
X150764286Y-90885714D01*
X150716667Y-90980952D01*
X150669048Y-91028571D01*
X150573810Y-91076190D01*
X150192858Y-91076190D01*
X151145239Y-90647619D02*
X151192858Y-90600000D01*
X151288096Y-90552380D01*
X151526191Y-90552380D01*
X151621429Y-90600000D01*
X151669048Y-90647619D01*
X151716667Y-90742857D01*
X151716667Y-90838095D01*
X151669048Y-90980952D01*
X151097620Y-91552380D01*
X151716667Y-91552380D01*
X152573810Y-90885714D02*
X152573810Y-91552380D01*
X152335715Y-90504761D02*
X152097620Y-91219047D01*
X152716667Y-91219047D01*
X144961906Y-94278571D02*
X144628572Y-94278571D01*
X144628572Y-94802380D02*
X144628572Y-93802380D01*
X145104763Y-93802380D01*
X145819049Y-94278571D02*
X145961906Y-94326190D01*
X146009525Y-94373809D01*
X146057144Y-94469047D01*
X146057144Y-94611904D01*
X146009525Y-94707142D01*
X145961906Y-94754761D01*
X145866668Y-94802380D01*
X145485715Y-94802380D01*
X145485715Y-93802380D01*
X145819049Y-93802380D01*
X145914287Y-93850000D01*
X145961906Y-93897619D01*
X146009525Y-93992857D01*
X146009525Y-94088095D01*
X145961906Y-94183333D01*
X145914287Y-94230952D01*
X145819049Y-94278571D01*
X145485715Y-94278571D01*
X147009525Y-94802380D02*
X146438096Y-94802380D01*
X146723810Y-94802380D02*
X146723810Y-93802380D01*
X146628572Y-93945238D01*
X146533334Y-94040476D01*
X146438096Y-94088095D01*
X147628572Y-93802380D02*
X147723810Y-93802380D01*
X147819049Y-93850000D01*
X147866668Y-93897619D01*
X147914287Y-93992857D01*
X147961906Y-94183333D01*
X147961906Y-94421428D01*
X147914287Y-94611904D01*
X147866668Y-94707142D01*
X147819049Y-94754761D01*
X147723810Y-94802380D01*
X147628572Y-94802380D01*
X147533334Y-94754761D01*
X147485715Y-94707142D01*
X147438096Y-94611904D01*
X147390477Y-94421428D01*
X147390477Y-94183333D01*
X147438096Y-93992857D01*
X147485715Y-93897619D01*
X147533334Y-93850000D01*
X147628572Y-93802380D01*
X145418570Y-116152380D02*
X145085237Y-115676190D01*
X144847142Y-116152380D02*
X144847142Y-115152380D01*
X145228094Y-115152380D01*
X145323332Y-115200000D01*
X145370951Y-115247619D01*
X145418570Y-115342857D01*
X145418570Y-115485714D01*
X145370951Y-115580952D01*
X145323332Y-115628571D01*
X145228094Y-115676190D01*
X144847142Y-115676190D01*
X146370951Y-116152380D02*
X145799523Y-116152380D01*
X146085237Y-116152380D02*
X146085237Y-115152380D01*
X145989999Y-115295238D01*
X145894761Y-115390476D01*
X145799523Y-115438095D01*
X147228094Y-115152380D02*
X147037618Y-115152380D01*
X146942380Y-115200000D01*
X146894761Y-115247619D01*
X146799523Y-115390476D01*
X146751904Y-115580952D01*
X146751904Y-115961904D01*
X146799523Y-116057142D01*
X146847142Y-116104761D01*
X146942380Y-116152380D01*
X147132856Y-116152380D01*
X147228094Y-116104761D01*
X147275713Y-116057142D01*
X147323332Y-115961904D01*
X147323332Y-115723809D01*
X147275713Y-115628571D01*
X147228094Y-115580952D01*
X147132856Y-115533333D01*
X146942380Y-115533333D01*
X146847142Y-115580952D01*
X146799523Y-115628571D01*
X146751904Y-115723809D01*
X155900000Y-87962380D02*
X155566667Y-87486190D01*
X155328572Y-87962380D02*
X155328572Y-86962380D01*
X155709524Y-86962380D01*
X155804762Y-87010000D01*
X155852381Y-87057619D01*
X155900000Y-87152857D01*
X155900000Y-87295714D01*
X155852381Y-87390952D01*
X155804762Y-87438571D01*
X155709524Y-87486190D01*
X155328572Y-87486190D01*
X156280953Y-87057619D02*
X156328572Y-87010000D01*
X156423810Y-86962380D01*
X156661905Y-86962380D01*
X156757143Y-87010000D01*
X156804762Y-87057619D01*
X156852381Y-87152857D01*
X156852381Y-87248095D01*
X156804762Y-87390952D01*
X156233334Y-87962380D01*
X156852381Y-87962380D01*
X157804762Y-87962380D02*
X157233334Y-87962380D01*
X157519048Y-87962380D02*
X157519048Y-86962380D01*
X157423810Y-87105238D01*
X157328572Y-87200476D01*
X157233334Y-87248095D01*
X166590473Y-119452380D02*
X166257140Y-118976190D01*
X166019044Y-119452380D02*
X166019044Y-118452380D01*
X166399997Y-118452380D01*
X166495235Y-118500000D01*
X166542854Y-118547619D01*
X166590473Y-118642857D01*
X166590473Y-118785714D01*
X166542854Y-118880952D01*
X166495235Y-118928571D01*
X166399997Y-118976190D01*
X166019044Y-118976190D01*
X167447616Y-118785714D02*
X167447616Y-119452380D01*
X167209520Y-118404761D02*
X166971425Y-119119047D01*
X167590473Y-119119047D01*
X161035714Y-87962380D02*
X160702381Y-87486190D01*
X160464286Y-87962380D02*
X160464286Y-86962380D01*
X160845238Y-86962380D01*
X160940476Y-87010000D01*
X160988095Y-87057619D01*
X161035714Y-87152857D01*
X161035714Y-87295714D01*
X160988095Y-87390952D01*
X160940476Y-87438571D01*
X160845238Y-87486190D01*
X160464286Y-87486190D01*
X161416667Y-87057619D02*
X161464286Y-87010000D01*
X161559524Y-86962380D01*
X161797619Y-86962380D01*
X161892857Y-87010000D01*
X161940476Y-87057619D01*
X161988095Y-87152857D01*
X161988095Y-87248095D01*
X161940476Y-87390952D01*
X161369048Y-87962380D01*
X161988095Y-87962380D01*
X162845238Y-86962380D02*
X162654762Y-86962380D01*
X162559524Y-87010000D01*
X162511905Y-87057619D01*
X162416667Y-87200476D01*
X162369048Y-87390952D01*
X162369048Y-87771904D01*
X162416667Y-87867142D01*
X162464286Y-87914761D01*
X162559524Y-87962380D01*
X162750000Y-87962380D01*
X162845238Y-87914761D01*
X162892857Y-87867142D01*
X162940476Y-87771904D01*
X162940476Y-87533809D01*
X162892857Y-87438571D01*
X162845238Y-87390952D01*
X162750000Y-87343333D01*
X162559524Y-87343333D01*
X162464286Y-87390952D01*
X162416667Y-87438571D01*
X162369048Y-87533809D01*
X165504762Y-94328571D02*
X165171428Y-94328571D01*
X165171428Y-94852380D02*
X165171428Y-93852380D01*
X165647619Y-93852380D01*
X166361905Y-94328571D02*
X166504762Y-94376190D01*
X166552381Y-94423809D01*
X166600000Y-94519047D01*
X166600000Y-94661904D01*
X166552381Y-94757142D01*
X166504762Y-94804761D01*
X166409524Y-94852380D01*
X166028571Y-94852380D01*
X166028571Y-93852380D01*
X166361905Y-93852380D01*
X166457143Y-93900000D01*
X166504762Y-93947619D01*
X166552381Y-94042857D01*
X166552381Y-94138095D01*
X166504762Y-94233333D01*
X166457143Y-94280952D01*
X166361905Y-94328571D01*
X166028571Y-94328571D01*
X167552381Y-94852380D02*
X166980952Y-94852380D01*
X167266666Y-94852380D02*
X167266666Y-93852380D01*
X167171428Y-93995238D01*
X167076190Y-94090476D01*
X166980952Y-94138095D01*
X168409524Y-94185714D02*
X168409524Y-94852380D01*
X168171428Y-93804761D02*
X167933333Y-94519047D01*
X168552381Y-94519047D01*
X145854761Y-122707142D02*
X145807142Y-122754761D01*
X145664285Y-122802380D01*
X145569047Y-122802380D01*
X145426189Y-122754761D01*
X145330951Y-122659523D01*
X145283332Y-122564285D01*
X145235713Y-122373809D01*
X145235713Y-122230952D01*
X145283332Y-122040476D01*
X145330951Y-121945238D01*
X145426189Y-121850000D01*
X145569047Y-121802380D01*
X145664285Y-121802380D01*
X145807142Y-121850000D01*
X145854761Y-121897619D01*
X146330951Y-122802380D02*
X146521428Y-122802380D01*
X146616666Y-122754761D01*
X146664285Y-122707142D01*
X146759523Y-122564285D01*
X146807142Y-122373809D01*
X146807142Y-121992857D01*
X146759523Y-121897619D01*
X146711904Y-121850000D01*
X146616666Y-121802380D01*
X146426189Y-121802380D01*
X146330951Y-121850000D01*
X146283332Y-121897619D01*
X146235713Y-121992857D01*
X146235713Y-122230952D01*
X146283332Y-122326190D01*
X146330951Y-122373809D01*
X146426189Y-122421428D01*
X146616666Y-122421428D01*
X146711904Y-122373809D01*
X146759523Y-122326190D01*
X146807142Y-122230952D01*
X166171428Y-88012380D02*
X165838095Y-87536190D01*
X165600000Y-88012380D02*
X165600000Y-87012380D01*
X165980952Y-87012380D01*
X166076190Y-87060000D01*
X166123809Y-87107619D01*
X166171428Y-87202857D01*
X166171428Y-87345714D01*
X166123809Y-87440952D01*
X166076190Y-87488571D01*
X165980952Y-87536190D01*
X165600000Y-87536190D01*
X166552381Y-87107619D02*
X166600000Y-87060000D01*
X166695238Y-87012380D01*
X166933333Y-87012380D01*
X167028571Y-87060000D01*
X167076190Y-87107619D01*
X167123809Y-87202857D01*
X167123809Y-87298095D01*
X167076190Y-87440952D01*
X166504762Y-88012380D01*
X167123809Y-88012380D01*
X167457143Y-87012380D02*
X168123809Y-87012380D01*
X167695238Y-88012380D01*
X155580950Y-112343571D02*
X155247617Y-112343571D01*
X155247617Y-112867380D02*
X155247617Y-111867380D01*
X155723807Y-111867380D01*
X156438093Y-112343571D02*
X156580950Y-112391190D01*
X156628569Y-112438809D01*
X156676188Y-112534047D01*
X156676188Y-112676904D01*
X156628569Y-112772142D01*
X156580950Y-112819761D01*
X156485712Y-112867380D01*
X156104760Y-112867380D01*
X156104760Y-111867380D01*
X156438093Y-111867380D01*
X156533331Y-111915000D01*
X156580950Y-111962619D01*
X156628569Y-112057857D01*
X156628569Y-112153095D01*
X156580950Y-112248333D01*
X156533331Y-112295952D01*
X156438093Y-112343571D01*
X156104760Y-112343571D01*
X157580950Y-111867380D02*
X157104760Y-111867380D01*
X157057141Y-112343571D01*
X157104760Y-112295952D01*
X157199998Y-112248333D01*
X157438093Y-112248333D01*
X157533331Y-112295952D01*
X157580950Y-112343571D01*
X157628569Y-112438809D01*
X157628569Y-112676904D01*
X157580950Y-112772142D01*
X157533331Y-112819761D01*
X157438093Y-112867380D01*
X157199998Y-112867380D01*
X157104760Y-112819761D01*
X157057141Y-112772142D01*
X166166428Y-91602380D02*
X165833095Y-91126190D01*
X165595000Y-91602380D02*
X165595000Y-90602380D01*
X165975952Y-90602380D01*
X166071190Y-90650000D01*
X166118809Y-90697619D01*
X166166428Y-90792857D01*
X166166428Y-90935714D01*
X166118809Y-91030952D01*
X166071190Y-91078571D01*
X165975952Y-91126190D01*
X165595000Y-91126190D01*
X166499762Y-90602380D02*
X167118809Y-90602380D01*
X166785476Y-90983333D01*
X166928333Y-90983333D01*
X167023571Y-91030952D01*
X167071190Y-91078571D01*
X167118809Y-91173809D01*
X167118809Y-91411904D01*
X167071190Y-91507142D01*
X167023571Y-91554761D01*
X166928333Y-91602380D01*
X166642619Y-91602380D01*
X166547381Y-91554761D01*
X166499762Y-91507142D01*
X168071190Y-91602380D02*
X167499762Y-91602380D01*
X167785476Y-91602380D02*
X167785476Y-90602380D01*
X167690238Y-90745238D01*
X167595000Y-90840476D01*
X167499762Y-90888095D01*
X166540473Y-122707142D02*
X166492854Y-122754761D01*
X166349997Y-122802380D01*
X166254759Y-122802380D01*
X166111901Y-122754761D01*
X166016663Y-122659523D01*
X165969044Y-122564285D01*
X165921425Y-122373809D01*
X165921425Y-122230952D01*
X165969044Y-122040476D01*
X166016663Y-121945238D01*
X166111901Y-121850000D01*
X166254759Y-121802380D01*
X166349997Y-121802380D01*
X166492854Y-121850000D01*
X166540473Y-121897619D01*
X167445235Y-121802380D02*
X166969044Y-121802380D01*
X166921425Y-122278571D01*
X166969044Y-122230952D01*
X167064282Y-122183333D01*
X167302378Y-122183333D01*
X167397616Y-122230952D01*
X167445235Y-122278571D01*
X167492854Y-122373809D01*
X167492854Y-122611904D01*
X167445235Y-122707142D01*
X167397616Y-122754761D01*
X167302378Y-122802380D01*
X167064282Y-122802380D01*
X166969044Y-122754761D01*
X166921425Y-122707142D01*
X178761904Y-106148000D02*
X178666666Y-106100380D01*
X178523809Y-106100380D01*
X178380952Y-106148000D01*
X178285714Y-106243238D01*
X178238095Y-106338476D01*
X178190476Y-106528952D01*
X178190476Y-106671809D01*
X178238095Y-106862285D01*
X178285714Y-106957523D01*
X178380952Y-107052761D01*
X178523809Y-107100380D01*
X178619047Y-107100380D01*
X178761904Y-107052761D01*
X178809523Y-107005142D01*
X178809523Y-106671809D01*
X178619047Y-106671809D01*
X179238095Y-107100380D02*
X179238095Y-106100380D01*
X179809523Y-107100380D01*
X179809523Y-106100380D01*
X180285714Y-107100380D02*
X180285714Y-106100380D01*
X180523809Y-106100380D01*
X180666666Y-106148000D01*
X180761904Y-106243238D01*
X180809523Y-106338476D01*
X180857142Y-106528952D01*
X180857142Y-106671809D01*
X180809523Y-106862285D01*
X180761904Y-106957523D01*
X180666666Y-107052761D01*
X180523809Y-107100380D01*
X180285714Y-107100380D01*
X181809523Y-107100380D02*
X181238095Y-107100380D01*
X181523809Y-107100380D02*
X181523809Y-106100380D01*
X181428571Y-106243238D01*
X181333333Y-106338476D01*
X181238095Y-106386095D01*
X179542380Y-103409523D02*
X178542380Y-103409523D01*
X178542380Y-103028571D01*
X178590000Y-102933333D01*
X178637619Y-102885714D01*
X178732857Y-102838095D01*
X178875714Y-102838095D01*
X178970952Y-102885714D01*
X179018571Y-102933333D01*
X179066190Y-103028571D01*
X179066190Y-103409523D01*
X179542380Y-102266666D02*
X179494761Y-102361904D01*
X179447142Y-102409523D01*
X179351904Y-102457142D01*
X179066190Y-102457142D01*
X178970952Y-102409523D01*
X178923333Y-102361904D01*
X178875714Y-102266666D01*
X178875714Y-102123809D01*
X178923333Y-102028571D01*
X178970952Y-101980952D01*
X179066190Y-101933333D01*
X179351904Y-101933333D01*
X179447142Y-101980952D01*
X179494761Y-102028571D01*
X179542380Y-102123809D01*
X179542380Y-102266666D01*
X178875714Y-101600000D02*
X179542380Y-101409523D01*
X179066190Y-101219047D01*
X179542380Y-101028571D01*
X178875714Y-100838095D01*
X179494761Y-100076190D02*
X179542380Y-100171428D01*
X179542380Y-100361904D01*
X179494761Y-100457142D01*
X179399523Y-100504761D01*
X179018571Y-100504761D01*
X178923333Y-100457142D01*
X178875714Y-100361904D01*
X178875714Y-100171428D01*
X178923333Y-100076190D01*
X179018571Y-100028571D01*
X179113809Y-100028571D01*
X179209047Y-100504761D01*
X179542380Y-99600000D02*
X178875714Y-99600000D01*
X179066190Y-99600000D02*
X178970952Y-99552380D01*
X178923333Y-99504761D01*
X178875714Y-99409523D01*
X178875714Y-99314285D01*
X179542380Y-98504761D02*
X179542380Y-98980952D01*
X178542380Y-98980952D01*
X179018571Y-98171428D02*
X179018571Y-97838095D01*
X179542380Y-97695238D02*
X179542380Y-98171428D01*
X178542380Y-98171428D01*
X178542380Y-97695238D01*
X179542380Y-97266666D02*
X178542380Y-97266666D01*
X178542380Y-97028571D01*
X178590000Y-96885714D01*
X178685238Y-96790476D01*
X178780476Y-96742857D01*
X178970952Y-96695238D01*
X179113809Y-96695238D01*
X179304285Y-96742857D01*
X179399523Y-96790476D01*
X179494761Y-96885714D01*
X179542380Y-97028571D01*
X179542380Y-97266666D01*
X179542380Y-95742857D02*
X179542380Y-96314285D01*
X179542380Y-96028571D02*
X178542380Y-96028571D01*
X178685238Y-96123809D01*
X178780476Y-96219047D01*
X178828095Y-96314285D01*
X176883333Y-122707142D02*
X176835714Y-122754761D01*
X176692857Y-122802380D01*
X176597619Y-122802380D01*
X176454761Y-122754761D01*
X176359523Y-122659523D01*
X176311904Y-122564285D01*
X176264285Y-122373809D01*
X176264285Y-122230952D01*
X176311904Y-122040476D01*
X176359523Y-121945238D01*
X176454761Y-121850000D01*
X176597619Y-121802380D01*
X176692857Y-121802380D01*
X176835714Y-121850000D01*
X176883333Y-121897619D01*
X177216666Y-121802380D02*
X177835714Y-121802380D01*
X177502380Y-122183333D01*
X177645238Y-122183333D01*
X177740476Y-122230952D01*
X177788095Y-122278571D01*
X177835714Y-122373809D01*
X177835714Y-122611904D01*
X177788095Y-122707142D01*
X177740476Y-122754761D01*
X177645238Y-122802380D01*
X177359523Y-122802380D01*
X177264285Y-122754761D01*
X177216666Y-122707142D01*
X155233334Y-94278571D02*
X154900000Y-94278571D01*
X154900000Y-94802380D02*
X154900000Y-93802380D01*
X155376191Y-93802380D01*
X156090477Y-94278571D02*
X156233334Y-94326190D01*
X156280953Y-94373809D01*
X156328572Y-94469047D01*
X156328572Y-94611904D01*
X156280953Y-94707142D01*
X156233334Y-94754761D01*
X156138096Y-94802380D01*
X155757143Y-94802380D01*
X155757143Y-93802380D01*
X156090477Y-93802380D01*
X156185715Y-93850000D01*
X156233334Y-93897619D01*
X156280953Y-93992857D01*
X156280953Y-94088095D01*
X156233334Y-94183333D01*
X156185715Y-94230952D01*
X156090477Y-94278571D01*
X155757143Y-94278571D01*
X157280953Y-94802380D02*
X156709524Y-94802380D01*
X156995238Y-94802380D02*
X156995238Y-93802380D01*
X156900000Y-93945238D01*
X156804762Y-94040476D01*
X156709524Y-94088095D01*
X157661905Y-93897619D02*
X157709524Y-93850000D01*
X157804762Y-93802380D01*
X158042858Y-93802380D01*
X158138096Y-93850000D01*
X158185715Y-93897619D01*
X158233334Y-93992857D01*
X158233334Y-94088095D01*
X158185715Y-94230952D01*
X157614286Y-94802380D01*
X158233334Y-94802380D01*
X161419045Y-119452380D02*
X161085712Y-118976190D01*
X160847616Y-119452380D02*
X160847616Y-118452380D01*
X161228569Y-118452380D01*
X161323807Y-118500000D01*
X161371426Y-118547619D01*
X161419045Y-118642857D01*
X161419045Y-118785714D01*
X161371426Y-118880952D01*
X161323807Y-118928571D01*
X161228569Y-118976190D01*
X160847616Y-118976190D01*
X162323807Y-118452380D02*
X161847616Y-118452380D01*
X161799997Y-118928571D01*
X161847616Y-118880952D01*
X161942854Y-118833333D01*
X162180950Y-118833333D01*
X162276188Y-118880952D01*
X162323807Y-118928571D01*
X162371426Y-119023809D01*
X162371426Y-119261904D01*
X162323807Y-119357142D01*
X162276188Y-119404761D01*
X162180950Y-119452380D01*
X161942854Y-119452380D01*
X161847616Y-119404761D01*
X161799997Y-119357142D01*
X155900000Y-91552380D02*
X155566667Y-91076190D01*
X155328572Y-91552380D02*
X155328572Y-90552380D01*
X155709524Y-90552380D01*
X155804762Y-90600000D01*
X155852381Y-90647619D01*
X155900000Y-90742857D01*
X155900000Y-90885714D01*
X155852381Y-90980952D01*
X155804762Y-91028571D01*
X155709524Y-91076190D01*
X155328572Y-91076190D01*
X156280953Y-90647619D02*
X156328572Y-90600000D01*
X156423810Y-90552380D01*
X156661905Y-90552380D01*
X156757143Y-90600000D01*
X156804762Y-90647619D01*
X156852381Y-90742857D01*
X156852381Y-90838095D01*
X156804762Y-90980952D01*
X156233334Y-91552380D01*
X156852381Y-91552380D01*
X157757143Y-90552380D02*
X157280953Y-90552380D01*
X157233334Y-91028571D01*
X157280953Y-90980952D01*
X157376191Y-90933333D01*
X157614286Y-90933333D01*
X157709524Y-90980952D01*
X157757143Y-91028571D01*
X157804762Y-91123809D01*
X157804762Y-91361904D01*
X157757143Y-91457142D01*
X157709524Y-91504761D01*
X157614286Y-91552380D01*
X157376191Y-91552380D01*
X157280953Y-91504761D01*
X157233334Y-91457142D01*
X140066666Y-112428571D02*
X139733333Y-112428571D01*
X139733333Y-112952380D02*
X139733333Y-111952380D01*
X140209523Y-111952380D01*
X140923809Y-112428571D02*
X141066666Y-112476190D01*
X141114285Y-112523809D01*
X141161904Y-112619047D01*
X141161904Y-112761904D01*
X141114285Y-112857142D01*
X141066666Y-112904761D01*
X140971428Y-112952380D01*
X140590476Y-112952380D01*
X140590476Y-111952380D01*
X140923809Y-111952380D01*
X141019047Y-112000000D01*
X141066666Y-112047619D01*
X141114285Y-112142857D01*
X141114285Y-112238095D01*
X141066666Y-112333333D01*
X141019047Y-112380952D01*
X140923809Y-112428571D01*
X140590476Y-112428571D01*
X141733333Y-112380952D02*
X141638095Y-112333333D01*
X141590476Y-112285714D01*
X141542857Y-112190476D01*
X141542857Y-112142857D01*
X141590476Y-112047619D01*
X141638095Y-112000000D01*
X141733333Y-111952380D01*
X141923809Y-111952380D01*
X142019047Y-112000000D01*
X142066666Y-112047619D01*
X142114285Y-112142857D01*
X142114285Y-112190476D01*
X142066666Y-112285714D01*
X142019047Y-112333333D01*
X141923809Y-112380952D01*
X141733333Y-112380952D01*
X141638095Y-112428571D01*
X141590476Y-112476190D01*
X141542857Y-112571428D01*
X141542857Y-112761904D01*
X141590476Y-112857142D01*
X141638095Y-112904761D01*
X141733333Y-112952380D01*
X141923809Y-112952380D01*
X142019047Y-112904761D01*
X142066666Y-112857142D01*
X142114285Y-112761904D01*
X142114285Y-112571428D01*
X142066666Y-112476190D01*
X142019047Y-112428571D01*
X141923809Y-112380952D01*
X150764286Y-84487142D02*
X150716667Y-84534761D01*
X150573810Y-84582380D01*
X150478572Y-84582380D01*
X150335715Y-84534761D01*
X150240477Y-84439523D01*
X150192858Y-84344285D01*
X150145239Y-84153809D01*
X150145239Y-84010952D01*
X150192858Y-83820476D01*
X150240477Y-83725238D01*
X150335715Y-83630000D01*
X150478572Y-83582380D01*
X150573810Y-83582380D01*
X150716667Y-83630000D01*
X150764286Y-83677619D01*
X151716667Y-84582380D02*
X151145239Y-84582380D01*
X151430953Y-84582380D02*
X151430953Y-83582380D01*
X151335715Y-83725238D01*
X151240477Y-83820476D01*
X151145239Y-83868095D01*
X152050001Y-83582380D02*
X152669048Y-83582380D01*
X152335715Y-83963333D01*
X152478572Y-83963333D01*
X152573810Y-84010952D01*
X152621429Y-84058571D01*
X152669048Y-84153809D01*
X152669048Y-84391904D01*
X152621429Y-84487142D01*
X152573810Y-84534761D01*
X152478572Y-84582380D01*
X152192858Y-84582380D01*
X152097620Y-84534761D01*
X152050001Y-84487142D01*
X176442858Y-87962380D02*
X176109525Y-87486190D01*
X175871430Y-87962380D02*
X175871430Y-86962380D01*
X176252382Y-86962380D01*
X176347620Y-87010000D01*
X176395239Y-87057619D01*
X176442858Y-87152857D01*
X176442858Y-87295714D01*
X176395239Y-87390952D01*
X176347620Y-87438571D01*
X176252382Y-87486190D01*
X175871430Y-87486190D01*
X176823811Y-87057619D02*
X176871430Y-87010000D01*
X176966668Y-86962380D01*
X177204763Y-86962380D01*
X177300001Y-87010000D01*
X177347620Y-87057619D01*
X177395239Y-87152857D01*
X177395239Y-87248095D01*
X177347620Y-87390952D01*
X176776192Y-87962380D01*
X177395239Y-87962380D01*
X177871430Y-87962380D02*
X178061906Y-87962380D01*
X178157144Y-87914761D01*
X178204763Y-87867142D01*
X178300001Y-87724285D01*
X178347620Y-87533809D01*
X178347620Y-87152857D01*
X178300001Y-87057619D01*
X178252382Y-87010000D01*
X178157144Y-86962380D01*
X177966668Y-86962380D01*
X177871430Y-87010000D01*
X177823811Y-87057619D01*
X177776192Y-87152857D01*
X177776192Y-87390952D01*
X177823811Y-87486190D01*
X177871430Y-87533809D01*
X177966668Y-87581428D01*
X178157144Y-87581428D01*
X178252382Y-87533809D01*
X178300001Y-87486190D01*
X178347620Y-87390952D01*
X171307142Y-91552380D02*
X170973809Y-91076190D01*
X170735714Y-91552380D02*
X170735714Y-90552380D01*
X171116666Y-90552380D01*
X171211904Y-90600000D01*
X171259523Y-90647619D01*
X171307142Y-90742857D01*
X171307142Y-90885714D01*
X171259523Y-90980952D01*
X171211904Y-91028571D01*
X171116666Y-91076190D01*
X170735714Y-91076190D01*
X171640476Y-90552380D02*
X172259523Y-90552380D01*
X171926190Y-90933333D01*
X172069047Y-90933333D01*
X172164285Y-90980952D01*
X172211904Y-91028571D01*
X172259523Y-91123809D01*
X172259523Y-91361904D01*
X172211904Y-91457142D01*
X172164285Y-91504761D01*
X172069047Y-91552380D01*
X171783333Y-91552380D01*
X171688095Y-91504761D01*
X171640476Y-91457142D01*
X172640476Y-90647619D02*
X172688095Y-90600000D01*
X172783333Y-90552380D01*
X173021428Y-90552380D01*
X173116666Y-90600000D01*
X173164285Y-90647619D01*
X173211904Y-90742857D01*
X173211904Y-90838095D01*
X173164285Y-90980952D01*
X172592857Y-91552380D01*
X173211904Y-91552380D01*
X161369045Y-122707142D02*
X161321426Y-122754761D01*
X161178569Y-122802380D01*
X161083331Y-122802380D01*
X160940473Y-122754761D01*
X160845235Y-122659523D01*
X160797616Y-122564285D01*
X160749997Y-122373809D01*
X160749997Y-122230952D01*
X160797616Y-122040476D01*
X160845235Y-121945238D01*
X160940473Y-121850000D01*
X161083331Y-121802380D01*
X161178569Y-121802380D01*
X161321426Y-121850000D01*
X161369045Y-121897619D01*
X162226188Y-121802380D02*
X162035712Y-121802380D01*
X161940473Y-121850000D01*
X161892854Y-121897619D01*
X161797616Y-122040476D01*
X161749997Y-122230952D01*
X161749997Y-122611904D01*
X161797616Y-122707142D01*
X161845235Y-122754761D01*
X161940473Y-122802380D01*
X162130950Y-122802380D01*
X162226188Y-122754761D01*
X162273807Y-122707142D01*
X162321426Y-122611904D01*
X162321426Y-122373809D01*
X162273807Y-122278571D01*
X162226188Y-122230952D01*
X162130950Y-122183333D01*
X161940473Y-122183333D01*
X161845235Y-122230952D01*
X161797616Y-122278571D01*
X161749997Y-122373809D01*
X122462380Y-103383333D02*
X123176666Y-103383333D01*
X123319523Y-103430952D01*
X123414761Y-103526190D01*
X123462380Y-103669047D01*
X123462380Y-103764285D01*
X122462380Y-103002380D02*
X122462380Y-102383333D01*
X122843333Y-102716666D01*
X122843333Y-102573809D01*
X122890952Y-102478571D01*
X122938571Y-102430952D01*
X123033809Y-102383333D01*
X123271904Y-102383333D01*
X123367142Y-102430952D01*
X123414761Y-102478571D01*
X123462380Y-102573809D01*
X123462380Y-102859523D01*
X123414761Y-102954761D01*
X123367142Y-103002380D01*
X150409522Y-112343571D02*
X150076189Y-112343571D01*
X150076189Y-112867380D02*
X150076189Y-111867380D01*
X150552379Y-111867380D01*
X151266665Y-112343571D02*
X151409522Y-112391190D01*
X151457141Y-112438809D01*
X151504760Y-112534047D01*
X151504760Y-112676904D01*
X151457141Y-112772142D01*
X151409522Y-112819761D01*
X151314284Y-112867380D01*
X150933332Y-112867380D01*
X150933332Y-111867380D01*
X151266665Y-111867380D01*
X151361903Y-111915000D01*
X151409522Y-111962619D01*
X151457141Y-112057857D01*
X151457141Y-112153095D01*
X151409522Y-112248333D01*
X151361903Y-112295952D01*
X151266665Y-112343571D01*
X150933332Y-112343571D01*
X152361903Y-111867380D02*
X152171427Y-111867380D01*
X152076189Y-111915000D01*
X152028570Y-111962619D01*
X151933332Y-112105476D01*
X151885713Y-112295952D01*
X151885713Y-112676904D01*
X151933332Y-112772142D01*
X151980951Y-112819761D01*
X152076189Y-112867380D01*
X152266665Y-112867380D01*
X152361903Y-112819761D01*
X152409522Y-112772142D01*
X152457141Y-112676904D01*
X152457141Y-112438809D01*
X152409522Y-112343571D01*
X152361903Y-112295952D01*
X152266665Y-112248333D01*
X152076189Y-112248333D01*
X151980951Y-112295952D01*
X151933332Y-112343571D01*
X151885713Y-112438809D01*
D12*
X149270000Y-79330000D02*
X172190000Y-79330000D01*
X148000000Y-79330000D02*
X146670000Y-79330000D01*
X149270000Y-79330000D02*
X149270000Y-76670000D01*
X146670000Y-79330000D02*
X146670000Y-78000000D01*
X172190000Y-79330000D02*
X172190000Y-76670000D01*
X149270000Y-76670000D02*
X172190000Y-76670000D01*
X170830000Y-126670000D02*
X172160000Y-126670000D01*
X146640000Y-126670000D02*
X146640000Y-129330000D01*
X169560000Y-126670000D02*
X169560000Y-129330000D01*
X169560000Y-129330000D02*
X146640000Y-129330000D01*
X172160000Y-126670000D02*
X172160000Y-128000000D01*
X169560000Y-126670000D02*
X146640000Y-126670000D01*
X141127064Y-118035000D02*
X140672936Y-118035000D01*
X141127064Y-116565000D02*
X140672936Y-116565000D01*
X146498494Y-90185000D02*
X146044366Y-90185000D01*
X146498494Y-88715000D02*
X146044366Y-88715000D01*
X137320000Y-93410242D02*
X137320000Y-92589758D01*
X138440000Y-93410242D02*
X138440000Y-92589758D01*
X161905636Y-90185000D02*
X161451508Y-90185000D01*
X161905636Y-88715000D02*
X161451508Y-88715000D01*
X156641348Y-116565000D02*
X156187220Y-116565000D01*
X156641348Y-118035000D02*
X156187220Y-118035000D01*
X161995954Y-114560000D02*
X161175470Y-114560000D01*
X161995954Y-113440000D02*
X161175470Y-113440000D01*
X151015792Y-119915000D02*
X151469920Y-119915000D01*
X151015792Y-121385000D02*
X151469920Y-121385000D01*
X176872936Y-119915000D02*
X177327064Y-119915000D01*
X176872936Y-121385000D02*
X177327064Y-121385000D01*
X166984204Y-118035000D02*
X166530076Y-118035000D01*
X166984204Y-116565000D02*
X166530076Y-116565000D01*
X177495958Y-92240000D02*
X176675474Y-92240000D01*
X177495958Y-93360000D02*
X176675474Y-93360000D01*
X146481670Y-114560000D02*
X145661186Y-114560000D01*
X146481670Y-113440000D02*
X145661186Y-113440000D01*
X177312780Y-88715000D02*
X176858652Y-88715000D01*
X177312780Y-90185000D02*
X176858652Y-90185000D01*
X177346968Y-81715000D02*
X176824464Y-81715000D01*
X177346968Y-83185000D02*
X176824464Y-83185000D01*
X145844364Y-119915000D02*
X146298492Y-119915000D01*
X145844364Y-121385000D02*
X146298492Y-121385000D01*
X167075538Y-81765000D02*
X166553034Y-81765000D01*
X167075538Y-83235000D02*
X166553034Y-83235000D01*
X151817386Y-92240000D02*
X150996902Y-92240000D01*
X151817386Y-93360000D02*
X150996902Y-93360000D01*
X156804110Y-83185000D02*
X156281606Y-83185000D01*
X156804110Y-81715000D02*
X156281606Y-81715000D01*
X161812776Y-116565000D02*
X161358648Y-116565000D01*
X161812776Y-118035000D02*
X161358648Y-118035000D01*
X140672936Y-121385000D02*
X141127064Y-121385000D01*
X140672936Y-119915000D02*
X141127064Y-119915000D01*
X180005000Y-97042936D02*
X180005000Y-97497064D01*
X181475000Y-97042936D02*
X181475000Y-97497064D01*
G36*
X114493943Y-72811519D02*
G01*
X116108301Y-72865694D01*
X117876221Y-72951670D01*
X119796529Y-73069530D01*
X120062000Y-73087520D01*
X120714946Y-73133537D01*
X121405556Y-73184459D01*
X122083333Y-73236410D01*
X122697778Y-73285512D01*
X123198393Y-73327887D01*
X123237000Y-73331315D01*
X124507000Y-73444658D01*
X122602000Y-73390424D01*
X121785080Y-73370589D01*
X120899053Y-73355181D01*
X119963882Y-73344091D01*
X118999527Y-73337214D01*
X118025950Y-73334442D01*
X117063113Y-73335668D01*
X116130978Y-73340784D01*
X115249507Y-73349685D01*
X114438660Y-73362261D01*
X113718401Y-73378408D01*
X113108690Y-73398016D01*
X112629489Y-73420980D01*
X112315000Y-73445624D01*
X111340440Y-73565282D01*
X110527746Y-73698061D01*
X109869780Y-73846501D01*
X109359406Y-74013140D01*
X108989487Y-74200518D01*
X108752886Y-74411175D01*
X108642467Y-74647650D01*
X108632000Y-74756046D01*
X108681925Y-74998681D01*
X108802500Y-75242744D01*
X108807099Y-75249287D01*
X108905263Y-75401411D01*
X108915725Y-75469491D01*
X108825276Y-75450860D01*
X108620705Y-75342854D01*
X108293334Y-75145602D01*
X107864626Y-74855795D01*
X107500792Y-74561039D01*
X107228285Y-74285789D01*
X107073559Y-74054500D01*
X107054892Y-74000735D01*
X107068979Y-73741427D01*
X107248382Y-73513097D01*
X107591926Y-73315825D01*
X108098435Y-73149696D01*
X108766734Y-73014791D01*
X109595647Y-72911193D01*
X110584000Y-72838984D01*
X111730618Y-72798247D01*
X113034323Y-72789065D01*
X114493943Y-72811519D01*
G37*
D13*
X114493943Y-72811519D02*
X116108301Y-72865694D01*
X117876221Y-72951670D01*
X119796529Y-73069530D01*
X120062000Y-73087520D01*
X120714946Y-73133537D01*
X121405556Y-73184459D01*
X122083333Y-73236410D01*
X122697778Y-73285512D01*
X123198393Y-73327887D01*
X123237000Y-73331315D01*
X124507000Y-73444658D01*
X122602000Y-73390424D01*
X121785080Y-73370589D01*
X120899053Y-73355181D01*
X119963882Y-73344091D01*
X118999527Y-73337214D01*
X118025950Y-73334442D01*
X117063113Y-73335668D01*
X116130978Y-73340784D01*
X115249507Y-73349685D01*
X114438660Y-73362261D01*
X113718401Y-73378408D01*
X113108690Y-73398016D01*
X112629489Y-73420980D01*
X112315000Y-73445624D01*
X111340440Y-73565282D01*
X110527746Y-73698061D01*
X109869780Y-73846501D01*
X109359406Y-74013140D01*
X108989487Y-74200518D01*
X108752886Y-74411175D01*
X108642467Y-74647650D01*
X108632000Y-74756046D01*
X108681925Y-74998681D01*
X108802500Y-75242744D01*
X108807099Y-75249287D01*
X108905263Y-75401411D01*
X108915725Y-75469491D01*
X108825276Y-75450860D01*
X108620705Y-75342854D01*
X108293334Y-75145602D01*
X107864626Y-74855795D01*
X107500792Y-74561039D01*
X107228285Y-74285789D01*
X107073559Y-74054500D01*
X107054892Y-74000735D01*
X107068979Y-73741427D01*
X107248382Y-73513097D01*
X107591926Y-73315825D01*
X108098435Y-73149696D01*
X108766734Y-73014791D01*
X109595647Y-72911193D01*
X110584000Y-72838984D01*
X111730618Y-72798247D01*
X113034323Y-72789065D01*
X114493943Y-72811519D01*
G36*
X116438417Y-75015170D02*
G01*
X116254990Y-75149484D01*
X115984708Y-75333905D01*
X115656558Y-75549617D01*
X115299526Y-75777805D01*
X114942599Y-75999652D01*
X114614765Y-76196343D01*
X114377621Y-76331346D01*
X113630408Y-76698497D01*
X112900966Y-76976895D01*
X112212950Y-77161001D01*
X111590012Y-77245281D01*
X111055807Y-77224196D01*
X110810343Y-77166326D01*
X110326869Y-76920134D01*
X109925459Y-76528062D01*
X109639551Y-76056286D01*
X109524503Y-75789277D01*
X109441827Y-75553702D01*
X109395925Y-75374830D01*
X109391199Y-75277931D01*
X109432050Y-75288275D01*
X109522879Y-75431131D01*
X109534449Y-75452857D01*
X109867640Y-75916699D01*
X110316388Y-76290787D01*
X110452334Y-76370778D01*
X110625425Y-76452305D01*
X110810015Y-76505275D01*
X111047005Y-76535233D01*
X111377296Y-76547726D01*
X111764667Y-76548744D01*
X112226913Y-76540927D01*
X112582277Y-76516371D01*
X112893059Y-76465518D01*
X113221558Y-76378812D01*
X113542667Y-76275982D01*
X113935692Y-76130641D01*
X114417735Y-75930798D01*
X114928793Y-75702368D01*
X115408863Y-75471265D01*
X115426500Y-75462369D01*
X115810340Y-75270528D01*
X116134034Y-75112885D01*
X116370927Y-75002097D01*
X116494364Y-74950821D01*
X116506000Y-74949780D01*
X116438417Y-75015170D01*
G37*
X116438417Y-75015170D02*
X116254990Y-75149484D01*
X115984708Y-75333905D01*
X115656558Y-75549617D01*
X115299526Y-75777805D01*
X114942599Y-75999652D01*
X114614765Y-76196343D01*
X114377621Y-76331346D01*
X113630408Y-76698497D01*
X112900966Y-76976895D01*
X112212950Y-77161001D01*
X111590012Y-77245281D01*
X111055807Y-77224196D01*
X110810343Y-77166326D01*
X110326869Y-76920134D01*
X109925459Y-76528062D01*
X109639551Y-76056286D01*
X109524503Y-75789277D01*
X109441827Y-75553702D01*
X109395925Y-75374830D01*
X109391199Y-75277931D01*
X109432050Y-75288275D01*
X109522879Y-75431131D01*
X109534449Y-75452857D01*
X109867640Y-75916699D01*
X110316388Y-76290787D01*
X110452334Y-76370778D01*
X110625425Y-76452305D01*
X110810015Y-76505275D01*
X111047005Y-76535233D01*
X111377296Y-76547726D01*
X111764667Y-76548744D01*
X112226913Y-76540927D01*
X112582277Y-76516371D01*
X112893059Y-76465518D01*
X113221558Y-76378812D01*
X113542667Y-76275982D01*
X113935692Y-76130641D01*
X114417735Y-75930798D01*
X114928793Y-75702368D01*
X115408863Y-75471265D01*
X115426500Y-75462369D01*
X115810340Y-75270528D01*
X116134034Y-75112885D01*
X116370927Y-75002097D01*
X116494364Y-74950821D01*
X116506000Y-74949780D01*
X116438417Y-75015170D01*
G36*
X114878000Y-74064028D02*
G01*
X115068544Y-74091081D01*
X115132975Y-74140830D01*
X115130591Y-74161691D01*
X115027889Y-74257704D01*
X114911868Y-74294579D01*
X114768364Y-74366673D01*
X114726844Y-74548579D01*
X114697513Y-74863444D01*
X114621073Y-75077149D01*
X114509432Y-75156520D01*
X114508575Y-75156524D01*
X114448213Y-75131477D01*
X114426959Y-75036275D01*
X114445037Y-74840830D01*
X114502673Y-74515050D01*
X114513775Y-74458024D01*
X114481544Y-74333599D01*
X114388463Y-74309857D01*
X114242358Y-74264672D01*
X114202284Y-74214374D01*
X114151169Y-74234384D01*
X114046145Y-74376133D01*
X113908902Y-74609841D01*
X113893930Y-74637708D01*
X113740318Y-74896663D01*
X113600268Y-75082617D01*
X113503380Y-75156450D01*
X113501376Y-75156524D01*
X113411830Y-75079772D01*
X113311428Y-74875153D01*
X113252341Y-74698993D01*
X113163659Y-74376708D01*
X113128360Y-74183359D01*
X113146067Y-74087306D01*
X113216406Y-74056911D01*
X113244720Y-74055857D01*
X113351642Y-74128800D01*
X113421125Y-74288691D01*
X113487921Y-74558855D01*
X113547097Y-74669893D01*
X113618480Y-74629771D01*
X113721897Y-74446456D01*
X113737167Y-74415691D01*
X113914694Y-74055857D01*
X114540069Y-74055857D01*
X114878000Y-74064028D01*
G37*
X114878000Y-74064028D02*
X115068544Y-74091081D01*
X115132975Y-74140830D01*
X115130591Y-74161691D01*
X115027889Y-74257704D01*
X114911868Y-74294579D01*
X114768364Y-74366673D01*
X114726844Y-74548579D01*
X114697513Y-74863444D01*
X114621073Y-75077149D01*
X114509432Y-75156520D01*
X114508575Y-75156524D01*
X114448213Y-75131477D01*
X114426959Y-75036275D01*
X114445037Y-74840830D01*
X114502673Y-74515050D01*
X114513775Y-74458024D01*
X114481544Y-74333599D01*
X114388463Y-74309857D01*
X114242358Y-74264672D01*
X114202284Y-74214374D01*
X114151169Y-74234384D01*
X114046145Y-74376133D01*
X113908902Y-74609841D01*
X113893930Y-74637708D01*
X113740318Y-74896663D01*
X113600268Y-75082617D01*
X113503380Y-75156450D01*
X113501376Y-75156524D01*
X113411830Y-75079772D01*
X113311428Y-74875153D01*
X113252341Y-74698993D01*
X113163659Y-74376708D01*
X113128360Y-74183359D01*
X113146067Y-74087306D01*
X113216406Y-74056911D01*
X113244720Y-74055857D01*
X113351642Y-74128800D01*
X113421125Y-74288691D01*
X113487921Y-74558855D01*
X113547097Y-74669893D01*
X113618480Y-74629771D01*
X113721897Y-74446456D01*
X113737167Y-74415691D01*
X113914694Y-74055857D01*
X114540069Y-74055857D01*
X114878000Y-74064028D01*
G36*
X119716616Y-73650741D02*
G01*
X120483095Y-73732556D01*
X121154321Y-73876996D01*
X121289667Y-73918846D01*
X121926279Y-74175830D01*
X122421666Y-74473832D01*
X122771375Y-74804221D01*
X122970952Y-75158368D01*
X123015944Y-75527643D01*
X122901897Y-75903417D01*
X122624357Y-76277060D01*
X122546059Y-76353358D01*
X122086706Y-76675657D01*
X121504328Y-76917602D01*
X120828434Y-77072375D01*
X120088531Y-77133162D01*
X119333722Y-77095434D01*
X118941259Y-77031476D01*
X118535114Y-76936007D01*
X118263042Y-76850583D01*
X117894244Y-76686765D01*
X117492742Y-76467442D01*
X117109164Y-76224151D01*
X116794138Y-75988427D01*
X116633000Y-75835215D01*
X116463667Y-75641358D01*
X116717667Y-75770543D01*
X117372755Y-76033269D01*
X118116130Y-76213160D01*
X118905448Y-76308436D01*
X119698366Y-76317316D01*
X120452542Y-76238020D01*
X121125632Y-76068766D01*
X121382139Y-75966727D01*
X121808518Y-75723916D01*
X122070214Y-75464082D01*
X122170009Y-75195282D01*
X122110686Y-74925574D01*
X121895027Y-74663017D01*
X121525815Y-74415667D01*
X121005831Y-74191583D01*
X120739334Y-74105207D01*
X119923203Y-73931086D01*
X119020398Y-73858600D01*
X118078694Y-73886444D01*
X117145866Y-74013310D01*
X116304889Y-74226458D01*
X115972610Y-74329810D01*
X115707131Y-74405770D01*
X115544974Y-74444239D01*
X115512758Y-74445504D01*
X115555005Y-74391307D01*
X115728575Y-74304594D01*
X116001235Y-74196701D01*
X116340752Y-74078968D01*
X116714894Y-73962733D01*
X117091428Y-73859335D01*
X117356657Y-73796891D01*
X118102297Y-73681324D01*
X118905983Y-73633136D01*
X119716616Y-73650741D01*
G37*
X119716616Y-73650741D02*
X120483095Y-73732556D01*
X121154321Y-73876996D01*
X121289667Y-73918846D01*
X121926279Y-74175830D01*
X122421666Y-74473832D01*
X122771375Y-74804221D01*
X122970952Y-75158368D01*
X123015944Y-75527643D01*
X122901897Y-75903417D01*
X122624357Y-76277060D01*
X122546059Y-76353358D01*
X122086706Y-76675657D01*
X121504328Y-76917602D01*
X120828434Y-77072375D01*
X120088531Y-77133162D01*
X119333722Y-77095434D01*
X118941259Y-77031476D01*
X118535114Y-76936007D01*
X118263042Y-76850583D01*
X117894244Y-76686765D01*
X117492742Y-76467442D01*
X117109164Y-76224151D01*
X116794138Y-75988427D01*
X116633000Y-75835215D01*
X116463667Y-75641358D01*
X116717667Y-75770543D01*
X117372755Y-76033269D01*
X118116130Y-76213160D01*
X118905448Y-76308436D01*
X119698366Y-76317316D01*
X120452542Y-76238020D01*
X121125632Y-76068766D01*
X121382139Y-75966727D01*
X121808518Y-75723916D01*
X122070214Y-75464082D01*
X122170009Y-75195282D01*
X122110686Y-74925574D01*
X121895027Y-74663017D01*
X121525815Y-74415667D01*
X121005831Y-74191583D01*
X120739334Y-74105207D01*
X119923203Y-73931086D01*
X119020398Y-73858600D01*
X118078694Y-73886444D01*
X117145866Y-74013310D01*
X116304889Y-74226458D01*
X115972610Y-74329810D01*
X115707131Y-74405770D01*
X115544974Y-74444239D01*
X115512758Y-74445504D01*
X115555005Y-74391307D01*
X115728575Y-74304594D01*
X116001235Y-74196701D01*
X116340752Y-74078968D01*
X116714894Y-73962733D01*
X117091428Y-73859335D01*
X117356657Y-73796891D01*
X118102297Y-73681324D01*
X118905983Y-73633136D01*
X119716616Y-73650741D01*
G36*
X112907135Y-74099553D02*
G01*
X112928412Y-74161691D01*
X112825971Y-74244476D01*
X112696000Y-74267524D01*
X112513919Y-74307839D01*
X112479271Y-74404284D01*
X112597901Y-74520104D01*
X112651474Y-74547453D01*
X112825609Y-74695176D01*
X112850343Y-74884347D01*
X112723769Y-75073229D01*
X112677161Y-75109390D01*
X112466083Y-75223401D01*
X112294919Y-75215127D01*
X112198320Y-75164693D01*
X112117683Y-75063304D01*
X112172926Y-74983267D01*
X112330992Y-74957522D01*
X112397646Y-74966082D01*
X112565718Y-74956488D01*
X112611882Y-74871026D01*
X112532230Y-74755277D01*
X112421328Y-74689767D01*
X112245049Y-74540797D01*
X112202433Y-74340168D01*
X112276042Y-74178790D01*
X112404838Y-74100629D01*
X112591927Y-74060348D01*
X112778847Y-74059478D01*
X112907135Y-74099553D01*
G37*
X112907135Y-74099553D02*
X112928412Y-74161691D01*
X112825971Y-74244476D01*
X112696000Y-74267524D01*
X112513919Y-74307839D01*
X112479271Y-74404284D01*
X112597901Y-74520104D01*
X112651474Y-74547453D01*
X112825609Y-74695176D01*
X112850343Y-74884347D01*
X112723769Y-75073229D01*
X112677161Y-75109390D01*
X112466083Y-75223401D01*
X112294919Y-75215127D01*
X112198320Y-75164693D01*
X112117683Y-75063304D01*
X112172926Y-74983267D01*
X112330992Y-74957522D01*
X112397646Y-74966082D01*
X112565718Y-74956488D01*
X112611882Y-74871026D01*
X112532230Y-74755277D01*
X112421328Y-74689767D01*
X112245049Y-74540797D01*
X112202433Y-74340168D01*
X112276042Y-74178790D01*
X112404838Y-74100629D01*
X112591927Y-74060348D01*
X112778847Y-74059478D01*
X112907135Y-74099553D01*
G36*
X111068617Y-74125172D02*
G01*
X111085314Y-74204024D01*
X111061556Y-74418651D01*
X111006406Y-74678328D01*
X110937108Y-74915980D01*
X110870907Y-75064533D01*
X110861082Y-75076218D01*
X110671009Y-75170858D01*
X110422331Y-75199534D01*
X110219500Y-75151789D01*
X110120859Y-75016442D01*
X110070401Y-74792669D01*
X110065347Y-74532668D01*
X110102919Y-74288639D01*
X110180335Y-74112780D01*
X110277858Y-74055857D01*
X110337526Y-74113966D01*
X110354710Y-74301950D01*
X110342373Y-74528866D01*
X110324174Y-74796646D01*
X110336265Y-74934305D01*
X110392683Y-74980272D01*
X110504740Y-74973366D01*
X110628993Y-74931140D01*
X110707221Y-74819619D01*
X110764798Y-74595470D01*
X110781741Y-74500357D01*
X110851395Y-74214012D01*
X110935765Y-74069547D01*
X110972241Y-74055857D01*
X111068617Y-74125172D01*
G37*
X111068617Y-74125172D02*
X111085314Y-74204024D01*
X111061556Y-74418651D01*
X111006406Y-74678328D01*
X110937108Y-74915980D01*
X110870907Y-75064533D01*
X110861082Y-75076218D01*
X110671009Y-75170858D01*
X110422331Y-75199534D01*
X110219500Y-75151789D01*
X110120859Y-75016442D01*
X110070401Y-74792669D01*
X110065347Y-74532668D01*
X110102919Y-74288639D01*
X110180335Y-74112780D01*
X110277858Y-74055857D01*
X110337526Y-74113966D01*
X110354710Y-74301950D01*
X110342373Y-74528866D01*
X110324174Y-74796646D01*
X110336265Y-74934305D01*
X110392683Y-74980272D01*
X110504740Y-74973366D01*
X110628993Y-74931140D01*
X110707221Y-74819619D01*
X110764798Y-74595470D01*
X110781741Y-74500357D01*
X110851395Y-74214012D01*
X110935765Y-74069547D01*
X110972241Y-74055857D01*
X111068617Y-74125172D01*
G36*
X118765022Y-70672896D02*
G01*
X119072668Y-70755175D01*
X119699242Y-71029339D01*
X120303510Y-71449132D01*
X120852345Y-71991198D01*
X120891770Y-72037832D01*
X121104432Y-72303178D01*
X121274812Y-72535082D01*
X121382543Y-72703710D01*
X121407260Y-72779227D01*
X121398479Y-72780159D01*
X121327298Y-72726844D01*
X121158916Y-72589896D01*
X120925169Y-72395336D01*
X120839559Y-72323299D01*
X120127133Y-71794730D01*
X119409895Y-71414290D01*
X118673426Y-71180695D01*
X117903309Y-71092664D01*
X117085127Y-71148914D01*
X116204463Y-71348165D01*
X115246897Y-71689133D01*
X114980314Y-71802257D01*
X114611517Y-71957230D01*
X114386415Y-72038414D01*
X114298855Y-72050880D01*
X114342683Y-71999699D01*
X114511746Y-71889942D01*
X114799890Y-71726681D01*
X115200962Y-71514987D01*
X115532334Y-71347315D01*
X116311464Y-70990460D01*
X116997658Y-70749046D01*
X117617555Y-70618617D01*
X118197797Y-70594720D01*
X118765022Y-70672896D01*
G37*
X118765022Y-70672896D02*
X119072668Y-70755175D01*
X119699242Y-71029339D01*
X120303510Y-71449132D01*
X120852345Y-71991198D01*
X120891770Y-72037832D01*
X121104432Y-72303178D01*
X121274812Y-72535082D01*
X121382543Y-72703710D01*
X121407260Y-72779227D01*
X121398479Y-72780159D01*
X121327298Y-72726844D01*
X121158916Y-72589896D01*
X120925169Y-72395336D01*
X120839559Y-72323299D01*
X120127133Y-71794730D01*
X119409895Y-71414290D01*
X118673426Y-71180695D01*
X117903309Y-71092664D01*
X117085127Y-71148914D01*
X116204463Y-71348165D01*
X115246897Y-71689133D01*
X114980314Y-71802257D01*
X114611517Y-71957230D01*
X114386415Y-72038414D01*
X114298855Y-72050880D01*
X114342683Y-71999699D01*
X114511746Y-71889942D01*
X114799890Y-71726681D01*
X115200962Y-71514987D01*
X115532334Y-71347315D01*
X116311464Y-70990460D01*
X116997658Y-70749046D01*
X117617555Y-70618617D01*
X118197797Y-70594720D01*
X118765022Y-70672896D01*
G36*
X111946219Y-74069453D02*
G01*
X112076244Y-74116525D01*
X112103334Y-74182857D01*
X112033050Y-74286366D01*
X111936916Y-74309857D01*
X111831195Y-74341032D01*
X111764996Y-74460533D01*
X111717834Y-74707322D01*
X111714342Y-74733191D01*
X111654866Y-75019032D01*
X111571182Y-75147067D01*
X111534148Y-75156524D01*
X111463253Y-75124555D01*
X111442093Y-75004075D01*
X111464936Y-74758223D01*
X111468334Y-74733191D01*
X111494950Y-74479058D01*
X111479181Y-74351364D01*
X111413926Y-74310933D01*
X111391612Y-74309857D01*
X111274343Y-74245501D01*
X111256667Y-74182857D01*
X111301986Y-74102992D01*
X111458894Y-74063984D01*
X111680000Y-74055857D01*
X111946219Y-74069453D01*
G37*
X111946219Y-74069453D02*
X112076244Y-74116525D01*
X112103334Y-74182857D01*
X112033050Y-74286366D01*
X111936916Y-74309857D01*
X111831195Y-74341032D01*
X111764996Y-74460533D01*
X111717834Y-74707322D01*
X111714342Y-74733191D01*
X111654866Y-75019032D01*
X111571182Y-75147067D01*
X111534148Y-75156524D01*
X111463253Y-75124555D01*
X111442093Y-75004075D01*
X111464936Y-74758223D01*
X111468334Y-74733191D01*
X111494950Y-74479058D01*
X111479181Y-74351364D01*
X111413926Y-74310933D01*
X111391612Y-74309857D01*
X111274343Y-74245501D01*
X111256667Y-74182857D01*
X111301986Y-74102992D01*
X111458894Y-74063984D01*
X111680000Y-74055857D01*
X111946219Y-74069453D01*
D12*
X156625536Y-124735000D02*
X156103032Y-124735000D01*
X156625536Y-123265000D02*
X156103032Y-123265000D01*
X177510242Y-113440000D02*
X176689758Y-113440000D01*
X177510242Y-114560000D02*
X176689758Y-114560000D01*
X141396968Y-81715000D02*
X140874464Y-81715000D01*
X141396968Y-83185000D02*
X140874464Y-83185000D01*
X172155632Y-116565000D02*
X171701504Y-116565000D01*
X172155632Y-118035000D02*
X171701504Y-118035000D01*
X172338810Y-114560000D02*
X171518326Y-114560000D01*
X172338810Y-113440000D02*
X171518326Y-113440000D01*
X172360242Y-93360000D02*
X171539758Y-93360000D01*
X172360242Y-92240000D02*
X171539758Y-92240000D01*
X171722936Y-85115000D02*
X172177064Y-85115000D01*
X171722936Y-86585000D02*
X172177064Y-86585000D01*
X171701504Y-121385000D02*
X172155632Y-121385000D01*
X171701504Y-119915000D02*
X172155632Y-119915000D01*
X172211252Y-81715000D02*
X171688748Y-81715000D01*
X172211252Y-83185000D02*
X171688748Y-83185000D01*
X151469920Y-116565000D02*
X151015792Y-116565000D01*
X151469920Y-118035000D02*
X151015792Y-118035000D01*
X151454108Y-123265000D02*
X150931604Y-123265000D01*
X151454108Y-124735000D02*
X150931604Y-124735000D01*
X167167382Y-113440000D02*
X166346898Y-113440000D01*
X167167382Y-114560000D02*
X166346898Y-114560000D01*
X172139820Y-123265000D02*
X171617316Y-123265000D01*
X172139820Y-124735000D02*
X171617316Y-124735000D01*
X146532682Y-83185000D02*
X146010178Y-83185000D01*
X146532682Y-81715000D02*
X146010178Y-81715000D01*
X140908652Y-86585000D02*
X141362780Y-86585000D01*
X140908652Y-85115000D02*
X141362780Y-85115000D01*
X161939824Y-83185000D02*
X161417320Y-83185000D01*
X161939824Y-81715000D02*
X161417320Y-81715000D01*
X177327064Y-118035000D02*
X176872936Y-118035000D01*
X177327064Y-116565000D02*
X176872936Y-116565000D01*
X138430000Y-105410242D02*
X138430000Y-104589758D01*
X137310000Y-105410242D02*
X137310000Y-104589758D01*
X141111252Y-123265000D02*
X140588748Y-123265000D01*
X141111252Y-124735000D02*
X140588748Y-124735000D01*
X141545958Y-93360000D02*
X140725474Y-93360000D01*
X141545958Y-92240000D02*
X140725474Y-92240000D01*
X151180080Y-85115000D02*
X151634208Y-85115000D01*
X151180080Y-86585000D02*
X151634208Y-86585000D01*
X141362780Y-90185000D02*
X140908652Y-90185000D01*
X141362780Y-88715000D02*
X140908652Y-88715000D01*
X156187220Y-121385000D02*
X156641348Y-121385000D01*
X156187220Y-119915000D02*
X156641348Y-119915000D01*
X162088814Y-93360000D02*
X161268330Y-93360000D01*
X162088814Y-92240000D02*
X161268330Y-92240000D01*
X146044366Y-86585000D02*
X146498494Y-86585000D01*
X146044366Y-85115000D02*
X146498494Y-85115000D01*
X151634208Y-88715000D02*
X151180080Y-88715000D01*
X151634208Y-90185000D02*
X151180080Y-90185000D01*
X146681672Y-93360000D02*
X145861188Y-93360000D01*
X146681672Y-92240000D02*
X145861188Y-92240000D01*
X146298492Y-116565000D02*
X145844364Y-116565000D01*
X146298492Y-118035000D02*
X145844364Y-118035000D01*
X156315794Y-85115000D02*
X156769922Y-85115000D01*
X156315794Y-86585000D02*
X156769922Y-86585000D01*
X166530076Y-119915000D02*
X166984204Y-119915000D01*
X166530076Y-121385000D02*
X166984204Y-121385000D01*
X161451508Y-86585000D02*
X161905636Y-86585000D01*
X161451508Y-85115000D02*
X161905636Y-85115000D01*
X167224528Y-92290000D02*
X166404044Y-92290000D01*
X167224528Y-93410000D02*
X166404044Y-93410000D01*
X146282680Y-124735000D02*
X145760176Y-124735000D01*
X146282680Y-123265000D02*
X145760176Y-123265000D01*
X166587222Y-85165000D02*
X167041350Y-85165000D01*
X166587222Y-86635000D02*
X167041350Y-86635000D01*
X156824526Y-114560000D02*
X156004042Y-114560000D01*
X156824526Y-113440000D02*
X156004042Y-113440000D01*
X167041350Y-90235000D02*
X166587222Y-90235000D01*
X167041350Y-88765000D02*
X166587222Y-88765000D01*
X166968392Y-124735000D02*
X166445888Y-124735000D01*
X166968392Y-123265000D02*
X166445888Y-123265000D01*
X180950000Y-105000000D02*
G75*
G03*
X180950000Y-105000000I-950000J0D01*
G01*
X179780000Y-103180000D02*
X181700000Y-103180000D01*
X181700000Y-103180000D02*
X181700000Y-100320000D01*
X179780000Y-100320000D02*
X179780000Y-103180000D01*
X177311252Y-123265000D02*
X176788748Y-123265000D01*
X177311252Y-124735000D02*
X176788748Y-124735000D01*
X156953100Y-92240000D02*
X156132616Y-92240000D01*
X156953100Y-93360000D02*
X156132616Y-93360000D01*
X161358648Y-119915000D02*
X161812776Y-119915000D01*
X161358648Y-121385000D02*
X161812776Y-121385000D01*
X156769922Y-90185000D02*
X156315794Y-90185000D01*
X156769922Y-88715000D02*
X156315794Y-88715000D01*
X141310242Y-114560000D02*
X140489758Y-114560000D01*
X141310242Y-113440000D02*
X140489758Y-113440000D01*
X151668396Y-83185000D02*
X151145892Y-83185000D01*
X151668396Y-81715000D02*
X151145892Y-81715000D01*
X176858652Y-85115000D02*
X177312780Y-85115000D01*
X176858652Y-86585000D02*
X177312780Y-86585000D01*
X172177064Y-90185000D02*
X171722936Y-90185000D01*
X172177064Y-88715000D02*
X171722936Y-88715000D01*
X161796964Y-123265000D02*
X161274460Y-123265000D01*
X161796964Y-124735000D02*
X161274460Y-124735000D01*
X151653098Y-113440000D02*
X150832614Y-113440000D01*
X151653098Y-114560000D02*
X150832614Y-114560000D01*
M02*
