%TF.GenerationSoftware,KiCad,Pcbnew,(6.0.10)*%
%TF.CreationDate,2023-01-21T14:44:39-06:00*%
%TF.ProjectId,BPS-MinionShield,4250532d-4d69-46e6-996f-6e536869656c,rev?*%
%TF.SameCoordinates,Original*%
%TF.FileFunction,Legend,Top*%
%TF.FilePolarity,Positive*%
%FSLAX46Y46*%
G04 Gerber Fmt 4.6, Leading zero omitted, Abs format (unit mm)*
G04 Created by KiCad (PCBNEW (6.0.10)) date 2023-01-21 14:44:39*
%MOMM*%
%LPD*%
G01*
G04 APERTURE LIST*
%ADD10C,0.150000*%
%ADD11C,0.160000*%
%ADD12C,0.120000*%
%ADD13C,0.010000*%
G04 APERTURE END LIST*
D10*
X148071428Y-75664404D02*
X148071428Y-74902500D01*
X148452380Y-75283452D02*
X147690476Y-75283452D01*
X147452380Y-73950119D02*
X147452380Y-74426309D01*
X147928571Y-74473928D01*
X147880952Y-74426309D01*
X147833333Y-74331071D01*
X147833333Y-74092976D01*
X147880952Y-73997738D01*
X147928571Y-73950119D01*
X148023809Y-73902500D01*
X148261904Y-73902500D01*
X148357142Y-73950119D01*
X148404761Y-73997738D01*
X148452380Y-74092976D01*
X148452380Y-74331071D01*
X148404761Y-74426309D01*
X148357142Y-74473928D01*
X147452380Y-73616785D02*
X148452380Y-73283452D01*
X147452380Y-72950119D01*
X156072380Y-75190476D02*
X156072380Y-75761904D01*
X156072380Y-75476190D02*
X155072380Y-75476190D01*
X155215238Y-75571428D01*
X155310476Y-75666666D01*
X155358095Y-75761904D01*
X156072380Y-74238095D02*
X156072380Y-74809523D01*
X156072380Y-74523809D02*
X155072380Y-74523809D01*
X155215238Y-74619047D01*
X155310476Y-74714285D01*
X155358095Y-74809523D01*
X160485714Y-130809523D02*
X161152380Y-130809523D01*
X160104761Y-131047619D02*
X160819047Y-131285714D01*
X160819047Y-130666666D01*
X158612380Y-75190476D02*
X158612380Y-75761904D01*
X158612380Y-75476190D02*
X157612380Y-75476190D01*
X157755238Y-75571428D01*
X157850476Y-75666666D01*
X157898095Y-75761904D01*
X157707619Y-74809523D02*
X157660000Y-74761904D01*
X157612380Y-74666666D01*
X157612380Y-74428571D01*
X157660000Y-74333333D01*
X157707619Y-74285714D01*
X157802857Y-74238095D01*
X157898095Y-74238095D01*
X158040952Y-74285714D01*
X158612380Y-74857142D01*
X158612380Y-74238095D01*
X166232380Y-75190476D02*
X166232380Y-75761904D01*
X166232380Y-75476190D02*
X165232380Y-75476190D01*
X165375238Y-75571428D01*
X165470476Y-75666666D01*
X165518095Y-75761904D01*
X165232380Y-74285714D02*
X165232380Y-74761904D01*
X165708571Y-74809523D01*
X165660952Y-74761904D01*
X165613333Y-74666666D01*
X165613333Y-74428571D01*
X165660952Y-74333333D01*
X165708571Y-74285714D01*
X165803809Y-74238095D01*
X166041904Y-74238095D01*
X166137142Y-74285714D01*
X166184761Y-74333333D01*
X166232380Y-74428571D01*
X166232380Y-74666666D01*
X166184761Y-74761904D01*
X166137142Y-74809523D01*
X168772380Y-75190476D02*
X168772380Y-75761904D01*
X168772380Y-75476190D02*
X167772380Y-75476190D01*
X167915238Y-75571428D01*
X168010476Y-75666666D01*
X168058095Y-75761904D01*
X167772380Y-74333333D02*
X167772380Y-74523809D01*
X167820000Y-74619047D01*
X167867619Y-74666666D01*
X168010476Y-74761904D01*
X168200952Y-74809523D01*
X168581904Y-74809523D01*
X168677142Y-74761904D01*
X168724761Y-74714285D01*
X168772380Y-74619047D01*
X168772380Y-74428571D01*
X168724761Y-74333333D01*
X168677142Y-74285714D01*
X168581904Y-74238095D01*
X168343809Y-74238095D01*
X168248571Y-74285714D01*
X168200952Y-74333333D01*
X168153333Y-74428571D01*
X168153333Y-74619047D01*
X168200952Y-74714285D01*
X168248571Y-74761904D01*
X168343809Y-74809523D01*
X157612380Y-130761904D02*
X157612380Y-131238095D01*
X158088571Y-131285714D01*
X158040952Y-131238095D01*
X157993333Y-131142857D01*
X157993333Y-130904761D01*
X158040952Y-130809523D01*
X158088571Y-130761904D01*
X158183809Y-130714285D01*
X158421904Y-130714285D01*
X158517142Y-130761904D01*
X158564761Y-130809523D01*
X158612380Y-130904761D01*
X158612380Y-131142857D01*
X158564761Y-131238095D01*
X158517142Y-131285714D01*
X162692380Y-131333333D02*
X162692380Y-130714285D01*
X163073333Y-131047619D01*
X163073333Y-130904761D01*
X163120952Y-130809523D01*
X163168571Y-130761904D01*
X163263809Y-130714285D01*
X163501904Y-130714285D01*
X163597142Y-130761904D01*
X163644761Y-130809523D01*
X163692380Y-130904761D01*
X163692380Y-131190476D01*
X163644761Y-131285714D01*
X163597142Y-131333333D01*
X170360000Y-75140595D02*
X170312380Y-75235833D01*
X170312380Y-75378690D01*
X170360000Y-75521547D01*
X170455238Y-75616785D01*
X170550476Y-75664404D01*
X170740952Y-75712023D01*
X170883809Y-75712023D01*
X171074285Y-75664404D01*
X171169523Y-75616785D01*
X171264761Y-75521547D01*
X171312380Y-75378690D01*
X171312380Y-75283452D01*
X171264761Y-75140595D01*
X171217142Y-75092976D01*
X170883809Y-75092976D01*
X170883809Y-75283452D01*
X171312380Y-74664404D02*
X170312380Y-74664404D01*
X171312380Y-74092976D01*
X170312380Y-74092976D01*
X171312380Y-73616785D02*
X170312380Y-73616785D01*
X170312380Y-73378690D01*
X170360000Y-73235833D01*
X170455238Y-73140595D01*
X170550476Y-73092976D01*
X170740952Y-73045357D01*
X170883809Y-73045357D01*
X171074285Y-73092976D01*
X171169523Y-73140595D01*
X171264761Y-73235833D01*
X171312380Y-73378690D01*
X171312380Y-73616785D01*
X109690476Y-129842380D02*
X109690476Y-130651904D01*
X109738095Y-130747142D01*
X109785714Y-130794761D01*
X109880952Y-130842380D01*
X110071428Y-130842380D01*
X110166666Y-130794761D01*
X110214285Y-130747142D01*
X110261904Y-130651904D01*
X110261904Y-129842380D01*
X110595238Y-129842380D02*
X111166666Y-129842380D01*
X110880952Y-130842380D02*
X110880952Y-129842380D01*
X111452380Y-130794761D02*
X111595238Y-130842380D01*
X111833333Y-130842380D01*
X111928571Y-130794761D01*
X111976190Y-130747142D01*
X112023809Y-130651904D01*
X112023809Y-130556666D01*
X111976190Y-130461428D01*
X111928571Y-130413809D01*
X111833333Y-130366190D01*
X111642857Y-130318571D01*
X111547619Y-130270952D01*
X111500000Y-130223333D01*
X111452380Y-130128095D01*
X111452380Y-130032857D01*
X111500000Y-129937619D01*
X111547619Y-129890000D01*
X111642857Y-129842380D01*
X111880952Y-129842380D01*
X112023809Y-129890000D01*
X112309523Y-129842380D02*
X112642857Y-130842380D01*
X112976190Y-129842380D01*
X113166666Y-129842380D02*
X113738095Y-129842380D01*
X113452380Y-130842380D02*
X113452380Y-129842380D01*
X114833333Y-130461428D02*
X115595238Y-130461428D01*
X117166666Y-130318571D02*
X117309523Y-130366190D01*
X117357142Y-130413809D01*
X117404761Y-130509047D01*
X117404761Y-130651904D01*
X117357142Y-130747142D01*
X117309523Y-130794761D01*
X117214285Y-130842380D01*
X116833333Y-130842380D01*
X116833333Y-129842380D01*
X117166666Y-129842380D01*
X117261904Y-129890000D01*
X117309523Y-129937619D01*
X117357142Y-130032857D01*
X117357142Y-130128095D01*
X117309523Y-130223333D01*
X117261904Y-130270952D01*
X117166666Y-130318571D01*
X116833333Y-130318571D01*
X117833333Y-130842380D02*
X117833333Y-129842380D01*
X118214285Y-129842380D01*
X118309523Y-129890000D01*
X118357142Y-129937619D01*
X118404761Y-130032857D01*
X118404761Y-130175714D01*
X118357142Y-130270952D01*
X118309523Y-130318571D01*
X118214285Y-130366190D01*
X117833333Y-130366190D01*
X118785714Y-130794761D02*
X118928571Y-130842380D01*
X119166666Y-130842380D01*
X119261904Y-130794761D01*
X119309523Y-130747142D01*
X119357142Y-130651904D01*
X119357142Y-130556666D01*
X119309523Y-130461428D01*
X119261904Y-130413809D01*
X119166666Y-130366190D01*
X118976190Y-130318571D01*
X118880952Y-130270952D01*
X118833333Y-130223333D01*
X118785714Y-130128095D01*
X118785714Y-130032857D01*
X118833333Y-129937619D01*
X118880952Y-129890000D01*
X118976190Y-129842380D01*
X119214285Y-129842380D01*
X119357142Y-129890000D01*
X106238095Y-132452380D02*
X106238095Y-131452380D01*
X106571428Y-132166666D01*
X106904761Y-131452380D01*
X106904761Y-132452380D01*
X107380952Y-132452380D02*
X107380952Y-131785714D01*
X107380952Y-131452380D02*
X107333333Y-131500000D01*
X107380952Y-131547619D01*
X107428571Y-131500000D01*
X107380952Y-131452380D01*
X107380952Y-131547619D01*
X107857142Y-131785714D02*
X107857142Y-132452380D01*
X107857142Y-131880952D02*
X107904761Y-131833333D01*
X108000000Y-131785714D01*
X108142857Y-131785714D01*
X108238095Y-131833333D01*
X108285714Y-131928571D01*
X108285714Y-132452380D01*
X108761904Y-132452380D02*
X108761904Y-131785714D01*
X108761904Y-131452380D02*
X108714285Y-131500000D01*
X108761904Y-131547619D01*
X108809523Y-131500000D01*
X108761904Y-131452380D01*
X108761904Y-131547619D01*
X109380952Y-132452380D02*
X109285714Y-132404761D01*
X109238095Y-132357142D01*
X109190476Y-132261904D01*
X109190476Y-131976190D01*
X109238095Y-131880952D01*
X109285714Y-131833333D01*
X109380952Y-131785714D01*
X109523809Y-131785714D01*
X109619047Y-131833333D01*
X109666666Y-131880952D01*
X109714285Y-131976190D01*
X109714285Y-132261904D01*
X109666666Y-132357142D01*
X109619047Y-132404761D01*
X109523809Y-132452380D01*
X109380952Y-132452380D01*
X110142857Y-131785714D02*
X110142857Y-132452380D01*
X110142857Y-131880952D02*
X110190476Y-131833333D01*
X110285714Y-131785714D01*
X110428571Y-131785714D01*
X110523809Y-131833333D01*
X110571428Y-131928571D01*
X110571428Y-132452380D01*
X112380952Y-132357142D02*
X112333333Y-132404761D01*
X112190476Y-132452380D01*
X112095238Y-132452380D01*
X111952380Y-132404761D01*
X111857142Y-132309523D01*
X111809523Y-132214285D01*
X111761904Y-132023809D01*
X111761904Y-131880952D01*
X111809523Y-131690476D01*
X111857142Y-131595238D01*
X111952380Y-131500000D01*
X112095238Y-131452380D01*
X112190476Y-131452380D01*
X112333333Y-131500000D01*
X112380952Y-131547619D01*
X112952380Y-132452380D02*
X112857142Y-132404761D01*
X112809523Y-132357142D01*
X112761904Y-132261904D01*
X112761904Y-131976190D01*
X112809523Y-131880952D01*
X112857142Y-131833333D01*
X112952380Y-131785714D01*
X113095238Y-131785714D01*
X113190476Y-131833333D01*
X113238095Y-131880952D01*
X113285714Y-131976190D01*
X113285714Y-132261904D01*
X113238095Y-132357142D01*
X113190476Y-132404761D01*
X113095238Y-132452380D01*
X112952380Y-132452380D01*
X113714285Y-131785714D02*
X113714285Y-132452380D01*
X113714285Y-131880952D02*
X113761904Y-131833333D01*
X113857142Y-131785714D01*
X114000000Y-131785714D01*
X114095238Y-131833333D01*
X114142857Y-131928571D01*
X114142857Y-132452380D01*
X114619047Y-131785714D02*
X114619047Y-132452380D01*
X114619047Y-131880952D02*
X114666666Y-131833333D01*
X114761904Y-131785714D01*
X114904761Y-131785714D01*
X115000000Y-131833333D01*
X115047619Y-131928571D01*
X115047619Y-132452380D01*
X115904761Y-132404761D02*
X115809523Y-132452380D01*
X115619047Y-132452380D01*
X115523809Y-132404761D01*
X115476190Y-132309523D01*
X115476190Y-131928571D01*
X115523809Y-131833333D01*
X115619047Y-131785714D01*
X115809523Y-131785714D01*
X115904761Y-131833333D01*
X115952380Y-131928571D01*
X115952380Y-132023809D01*
X115476190Y-132119047D01*
X116809523Y-132404761D02*
X116714285Y-132452380D01*
X116523809Y-132452380D01*
X116428571Y-132404761D01*
X116380952Y-132357142D01*
X116333333Y-132261904D01*
X116333333Y-131976190D01*
X116380952Y-131880952D01*
X116428571Y-131833333D01*
X116523809Y-131785714D01*
X116714285Y-131785714D01*
X116809523Y-131833333D01*
X117095238Y-131785714D02*
X117476190Y-131785714D01*
X117238095Y-131452380D02*
X117238095Y-132309523D01*
X117285714Y-132404761D01*
X117380952Y-132452380D01*
X117476190Y-132452380D01*
X117952380Y-132452380D02*
X117857142Y-132404761D01*
X117809523Y-132357142D01*
X117761904Y-132261904D01*
X117761904Y-131976190D01*
X117809523Y-131880952D01*
X117857142Y-131833333D01*
X117952380Y-131785714D01*
X118095238Y-131785714D01*
X118190476Y-131833333D01*
X118238095Y-131880952D01*
X118285714Y-131976190D01*
X118285714Y-132261904D01*
X118238095Y-132357142D01*
X118190476Y-132404761D01*
X118095238Y-132452380D01*
X117952380Y-132452380D01*
X118714285Y-132452380D02*
X118714285Y-131785714D01*
X118714285Y-131976190D02*
X118761904Y-131880952D01*
X118809523Y-131833333D01*
X118904761Y-131785714D01*
X119000000Y-131785714D01*
X120000000Y-131785714D02*
X120238095Y-132452380D01*
X120476190Y-131785714D01*
X120809523Y-131547619D02*
X120857142Y-131500000D01*
X120952380Y-131452380D01*
X121190476Y-131452380D01*
X121285714Y-131500000D01*
X121333333Y-131547619D01*
X121380952Y-131642857D01*
X121380952Y-131738095D01*
X121333333Y-131880952D01*
X120761904Y-132452380D01*
X121380952Y-132452380D01*
X121809523Y-132357142D02*
X121857142Y-132404761D01*
X121809523Y-132452380D01*
X121761904Y-132404761D01*
X121809523Y-132357142D01*
X121809523Y-132452380D01*
X122238095Y-131547619D02*
X122285714Y-131500000D01*
X122380952Y-131452380D01*
X122619047Y-131452380D01*
X122714285Y-131500000D01*
X122761904Y-131547619D01*
X122809523Y-131642857D01*
X122809523Y-131738095D01*
X122761904Y-131880952D01*
X122190476Y-132452380D01*
X122809523Y-132452380D01*
X109761904Y-133062380D02*
X109952380Y-133062380D01*
X110047619Y-133110000D01*
X110142857Y-133205238D01*
X110190476Y-133395714D01*
X110190476Y-133729047D01*
X110142857Y-133919523D01*
X110047619Y-134014761D01*
X109952380Y-134062380D01*
X109761904Y-134062380D01*
X109666666Y-134014761D01*
X109571428Y-133919523D01*
X109523809Y-133729047D01*
X109523809Y-133395714D01*
X109571428Y-133205238D01*
X109666666Y-133110000D01*
X109761904Y-133062380D01*
X111047619Y-134014761D02*
X110952380Y-134062380D01*
X110761904Y-134062380D01*
X110666666Y-134014761D01*
X110619047Y-133967142D01*
X110571428Y-133871904D01*
X110571428Y-133586190D01*
X110619047Y-133490952D01*
X110666666Y-133443333D01*
X110761904Y-133395714D01*
X110952380Y-133395714D01*
X111047619Y-133443333D01*
X111333333Y-133395714D02*
X111714285Y-133395714D01*
X111476190Y-133062380D02*
X111476190Y-133919523D01*
X111523809Y-134014761D01*
X111619047Y-134062380D01*
X111714285Y-134062380D01*
X112190476Y-134062380D02*
X112095238Y-134014761D01*
X112047619Y-133967142D01*
X112000000Y-133871904D01*
X112000000Y-133586190D01*
X112047619Y-133490952D01*
X112095238Y-133443333D01*
X112190476Y-133395714D01*
X112333333Y-133395714D01*
X112428571Y-133443333D01*
X112476190Y-133490952D01*
X112523809Y-133586190D01*
X112523809Y-133871904D01*
X112476190Y-133967142D01*
X112428571Y-134014761D01*
X112333333Y-134062380D01*
X112190476Y-134062380D01*
X112952380Y-134062380D02*
X112952380Y-133062380D01*
X112952380Y-133443333D02*
X113047619Y-133395714D01*
X113238095Y-133395714D01*
X113333333Y-133443333D01*
X113380952Y-133490952D01*
X113428571Y-133586190D01*
X113428571Y-133871904D01*
X113380952Y-133967142D01*
X113333333Y-134014761D01*
X113238095Y-134062380D01*
X113047619Y-134062380D01*
X112952380Y-134014761D01*
X114238095Y-134014761D02*
X114142857Y-134062380D01*
X113952380Y-134062380D01*
X113857142Y-134014761D01*
X113809523Y-133919523D01*
X113809523Y-133538571D01*
X113857142Y-133443333D01*
X113952380Y-133395714D01*
X114142857Y-133395714D01*
X114238095Y-133443333D01*
X114285714Y-133538571D01*
X114285714Y-133633809D01*
X113809523Y-133729047D01*
X114714285Y-134062380D02*
X114714285Y-133395714D01*
X114714285Y-133586190D02*
X114761904Y-133490952D01*
X114809523Y-133443333D01*
X114904761Y-133395714D01*
X115000000Y-133395714D01*
X116047619Y-133157619D02*
X116095238Y-133110000D01*
X116190476Y-133062380D01*
X116428571Y-133062380D01*
X116523809Y-133110000D01*
X116571428Y-133157619D01*
X116619047Y-133252857D01*
X116619047Y-133348095D01*
X116571428Y-133490952D01*
X116000000Y-134062380D01*
X116619047Y-134062380D01*
X117238095Y-133062380D02*
X117333333Y-133062380D01*
X117428571Y-133110000D01*
X117476190Y-133157619D01*
X117523809Y-133252857D01*
X117571428Y-133443333D01*
X117571428Y-133681428D01*
X117523809Y-133871904D01*
X117476190Y-133967142D01*
X117428571Y-134014761D01*
X117333333Y-134062380D01*
X117238095Y-134062380D01*
X117142857Y-134014761D01*
X117095238Y-133967142D01*
X117047619Y-133871904D01*
X117000000Y-133681428D01*
X117000000Y-133443333D01*
X117047619Y-133252857D01*
X117095238Y-133157619D01*
X117142857Y-133110000D01*
X117238095Y-133062380D01*
X117952380Y-133157619D02*
X118000000Y-133110000D01*
X118095238Y-133062380D01*
X118333333Y-133062380D01*
X118428571Y-133110000D01*
X118476190Y-133157619D01*
X118523809Y-133252857D01*
X118523809Y-133348095D01*
X118476190Y-133490952D01*
X117904761Y-134062380D01*
X118523809Y-134062380D01*
X118904761Y-133157619D02*
X118952380Y-133110000D01*
X119047619Y-133062380D01*
X119285714Y-133062380D01*
X119380952Y-133110000D01*
X119428571Y-133157619D01*
X119476190Y-133252857D01*
X119476190Y-133348095D01*
X119428571Y-133490952D01*
X118857142Y-134062380D01*
X119476190Y-134062380D01*
X155072380Y-130809523D02*
X155072380Y-131000000D01*
X155120000Y-131095238D01*
X155167619Y-131142857D01*
X155310476Y-131238095D01*
X155500952Y-131285714D01*
X155881904Y-131285714D01*
X155977142Y-131238095D01*
X156024761Y-131190476D01*
X156072380Y-131095238D01*
X156072380Y-130904761D01*
X156024761Y-130809523D01*
X155977142Y-130761904D01*
X155881904Y-130714285D01*
X155643809Y-130714285D01*
X155548571Y-130761904D01*
X155500952Y-130809523D01*
X155453333Y-130904761D01*
X155453333Y-131095238D01*
X155500952Y-131190476D01*
X155548571Y-131238095D01*
X155643809Y-131285714D01*
X153532380Y-75190476D02*
X153532380Y-75761904D01*
X153532380Y-75476190D02*
X152532380Y-75476190D01*
X152675238Y-75571428D01*
X152770476Y-75666666D01*
X152818095Y-75761904D01*
X152532380Y-74571428D02*
X152532380Y-74476190D01*
X152580000Y-74380952D01*
X152627619Y-74333333D01*
X152722857Y-74285714D01*
X152913333Y-74238095D01*
X153151428Y-74238095D01*
X153341904Y-74285714D01*
X153437142Y-74333333D01*
X153484761Y-74380952D01*
X153532380Y-74476190D01*
X153532380Y-74571428D01*
X153484761Y-74666666D01*
X153437142Y-74714285D01*
X153341904Y-74761904D01*
X153151428Y-74809523D01*
X152913333Y-74809523D01*
X152722857Y-74761904D01*
X152627619Y-74714285D01*
X152580000Y-74666666D01*
X152532380Y-74571428D01*
X147500000Y-132383214D02*
X147452380Y-132478452D01*
X147452380Y-132621309D01*
X147500000Y-132764166D01*
X147595238Y-132859404D01*
X147690476Y-132907023D01*
X147880952Y-132954642D01*
X148023809Y-132954642D01*
X148214285Y-132907023D01*
X148309523Y-132859404D01*
X148404761Y-132764166D01*
X148452380Y-132621309D01*
X148452380Y-132526071D01*
X148404761Y-132383214D01*
X148357142Y-132335595D01*
X148023809Y-132335595D01*
X148023809Y-132526071D01*
X148452380Y-131907023D02*
X147452380Y-131907023D01*
X148452380Y-131335595D01*
X147452380Y-131335595D01*
X148452380Y-130859404D02*
X147452380Y-130859404D01*
X147452380Y-130621309D01*
X147500000Y-130478452D01*
X147595238Y-130383214D01*
X147690476Y-130335595D01*
X147880952Y-130287976D01*
X148023809Y-130287976D01*
X148214285Y-130335595D01*
X148309523Y-130383214D01*
X148404761Y-130478452D01*
X148452380Y-130621309D01*
X148452380Y-130859404D01*
X165327619Y-131285714D02*
X165280000Y-131238095D01*
X165232380Y-131142857D01*
X165232380Y-130904761D01*
X165280000Y-130809523D01*
X165327619Y-130761904D01*
X165422857Y-130714285D01*
X165518095Y-130714285D01*
X165660952Y-130761904D01*
X166232380Y-131333333D01*
X166232380Y-130714285D01*
X161152380Y-75190476D02*
X161152380Y-75761904D01*
X161152380Y-75476190D02*
X160152380Y-75476190D01*
X160295238Y-75571428D01*
X160390476Y-75666666D01*
X160438095Y-75761904D01*
X160152380Y-74857142D02*
X160152380Y-74238095D01*
X160533333Y-74571428D01*
X160533333Y-74428571D01*
X160580952Y-74333333D01*
X160628571Y-74285714D01*
X160723809Y-74238095D01*
X160961904Y-74238095D01*
X161057142Y-74285714D01*
X161104761Y-74333333D01*
X161152380Y-74428571D01*
X161152380Y-74714285D01*
X161104761Y-74809523D01*
X161057142Y-74857142D01*
X150420952Y-131095238D02*
X150373333Y-131190476D01*
X150325714Y-131238095D01*
X150230476Y-131285714D01*
X150182857Y-131285714D01*
X150087619Y-131238095D01*
X150040000Y-131190476D01*
X149992380Y-131095238D01*
X149992380Y-130904761D01*
X150040000Y-130809523D01*
X150087619Y-130761904D01*
X150182857Y-130714285D01*
X150230476Y-130714285D01*
X150325714Y-130761904D01*
X150373333Y-130809523D01*
X150420952Y-130904761D01*
X150420952Y-131095238D01*
X150468571Y-131190476D01*
X150516190Y-131238095D01*
X150611428Y-131285714D01*
X150801904Y-131285714D01*
X150897142Y-131238095D01*
X150944761Y-131190476D01*
X150992380Y-131095238D01*
X150992380Y-130904761D01*
X150944761Y-130809523D01*
X150897142Y-130761904D01*
X150801904Y-130714285D01*
X150611428Y-130714285D01*
X150516190Y-130761904D01*
X150468571Y-130809523D01*
X150420952Y-130904761D01*
X152532380Y-131333333D02*
X152532380Y-130666666D01*
X153532380Y-131095238D01*
X168772380Y-130714285D02*
X168772380Y-131285714D01*
X168772380Y-131000000D02*
X167772380Y-131000000D01*
X167915238Y-131095238D01*
X168010476Y-131190476D01*
X168058095Y-131285714D01*
D11*
X126075535Y-115452142D02*
X126218392Y-115452142D01*
X126075535Y-115166428D02*
X126218392Y-115166428D01*
X126075535Y-114916428D02*
X126825535Y-114737857D01*
X126289821Y-114595000D01*
X126825535Y-114452142D01*
X126075535Y-114273571D01*
X126789821Y-113702142D02*
X126825535Y-113773571D01*
X126825535Y-113916428D01*
X126789821Y-113987857D01*
X126718392Y-114023571D01*
X126432678Y-114023571D01*
X126361250Y-113987857D01*
X126325535Y-113916428D01*
X126325535Y-113773571D01*
X126361250Y-113702142D01*
X126432678Y-113666428D01*
X126504107Y-113666428D01*
X126575535Y-114023571D01*
X126789821Y-112809285D02*
X126825535Y-112737857D01*
X126825535Y-112595000D01*
X126789821Y-112523571D01*
X126718392Y-112487857D01*
X126682678Y-112487857D01*
X126611250Y-112523571D01*
X126575535Y-112595000D01*
X126575535Y-112702142D01*
X126539821Y-112773571D01*
X126468392Y-112809285D01*
X126432678Y-112809285D01*
X126361250Y-112773571D01*
X126325535Y-112702142D01*
X126325535Y-112595000D01*
X126361250Y-112523571D01*
X126825535Y-112166428D02*
X126075535Y-112166428D01*
X126825535Y-111845000D02*
X126432678Y-111845000D01*
X126361250Y-111880714D01*
X126325535Y-111952142D01*
X126325535Y-112059285D01*
X126361250Y-112130714D01*
X126396964Y-112166428D01*
X126825535Y-111380714D02*
X126789821Y-111452142D01*
X126754107Y-111487857D01*
X126682678Y-111523571D01*
X126468392Y-111523571D01*
X126396964Y-111487857D01*
X126361250Y-111452142D01*
X126325535Y-111380714D01*
X126325535Y-111273571D01*
X126361250Y-111202142D01*
X126396964Y-111166428D01*
X126468392Y-111130714D01*
X126682678Y-111130714D01*
X126754107Y-111166428D01*
X126789821Y-111202142D01*
X126825535Y-111273571D01*
X126825535Y-111380714D01*
X126325535Y-110487857D02*
X126825535Y-110487857D01*
X126325535Y-110809285D02*
X126718392Y-110809285D01*
X126789821Y-110773571D01*
X126825535Y-110702142D01*
X126825535Y-110595000D01*
X126789821Y-110523571D01*
X126754107Y-110487857D01*
X126825535Y-110023571D02*
X126789821Y-110095000D01*
X126718392Y-110130714D01*
X126075535Y-110130714D01*
X126825535Y-109416428D02*
X126075535Y-109416428D01*
X126789821Y-109416428D02*
X126825535Y-109487857D01*
X126825535Y-109630714D01*
X126789821Y-109702142D01*
X126754107Y-109737857D01*
X126682678Y-109773571D01*
X126468392Y-109773571D01*
X126396964Y-109737857D01*
X126361250Y-109702142D01*
X126325535Y-109630714D01*
X126325535Y-109487857D01*
X126361250Y-109416428D01*
X126325535Y-108166428D02*
X126932678Y-108166428D01*
X127004107Y-108202142D01*
X127039821Y-108237857D01*
X127075535Y-108309285D01*
X127075535Y-108416428D01*
X127039821Y-108487857D01*
X126789821Y-108166428D02*
X126825535Y-108237857D01*
X126825535Y-108380714D01*
X126789821Y-108452142D01*
X126754107Y-108487857D01*
X126682678Y-108523571D01*
X126468392Y-108523571D01*
X126396964Y-108487857D01*
X126361250Y-108452142D01*
X126325535Y-108380714D01*
X126325535Y-108237857D01*
X126361250Y-108166428D01*
X126789821Y-107523571D02*
X126825535Y-107595000D01*
X126825535Y-107737857D01*
X126789821Y-107809285D01*
X126718392Y-107845000D01*
X126432678Y-107845000D01*
X126361250Y-107809285D01*
X126325535Y-107737857D01*
X126325535Y-107595000D01*
X126361250Y-107523571D01*
X126432678Y-107487857D01*
X126504107Y-107487857D01*
X126575535Y-107845000D01*
X126325535Y-107273571D02*
X126325535Y-106987857D01*
X126075535Y-107166428D02*
X126718392Y-107166428D01*
X126789821Y-107130714D01*
X126825535Y-107059285D01*
X126825535Y-106987857D01*
X126325535Y-106237857D02*
X126825535Y-106059285D01*
X126325535Y-105880714D02*
X126825535Y-106059285D01*
X127004107Y-106130714D01*
X127039821Y-106166428D01*
X127075535Y-106237857D01*
X126825535Y-105487857D02*
X126789821Y-105559285D01*
X126754107Y-105595000D01*
X126682678Y-105630714D01*
X126468392Y-105630714D01*
X126396964Y-105595000D01*
X126361250Y-105559285D01*
X126325535Y-105487857D01*
X126325535Y-105380714D01*
X126361250Y-105309285D01*
X126396964Y-105273571D01*
X126468392Y-105237857D01*
X126682678Y-105237857D01*
X126754107Y-105273571D01*
X126789821Y-105309285D01*
X126825535Y-105380714D01*
X126825535Y-105487857D01*
X126325535Y-104595000D02*
X126825535Y-104595000D01*
X126325535Y-104916428D02*
X126718392Y-104916428D01*
X126789821Y-104880714D01*
X126825535Y-104809285D01*
X126825535Y-104702142D01*
X126789821Y-104630714D01*
X126754107Y-104595000D01*
X126825535Y-103345000D02*
X126075535Y-103345000D01*
X126789821Y-103345000D02*
X126825535Y-103416428D01*
X126825535Y-103559285D01*
X126789821Y-103630714D01*
X126754107Y-103666428D01*
X126682678Y-103702142D01*
X126468392Y-103702142D01*
X126396964Y-103666428D01*
X126361250Y-103630714D01*
X126325535Y-103559285D01*
X126325535Y-103416428D01*
X126361250Y-103345000D01*
X126789821Y-102702142D02*
X126825535Y-102773571D01*
X126825535Y-102916428D01*
X126789821Y-102987857D01*
X126718392Y-103023571D01*
X126432678Y-103023571D01*
X126361250Y-102987857D01*
X126325535Y-102916428D01*
X126325535Y-102773571D01*
X126361250Y-102702142D01*
X126432678Y-102666428D01*
X126504107Y-102666428D01*
X126575535Y-103023571D01*
X126325535Y-102345000D02*
X127075535Y-102345000D01*
X126361250Y-102345000D02*
X126325535Y-102273571D01*
X126325535Y-102130714D01*
X126361250Y-102059285D01*
X126396964Y-102023571D01*
X126468392Y-101987857D01*
X126682678Y-101987857D01*
X126754107Y-102023571D01*
X126789821Y-102059285D01*
X126825535Y-102130714D01*
X126825535Y-102273571D01*
X126789821Y-102345000D01*
X126825535Y-101666428D02*
X126325535Y-101666428D01*
X126468392Y-101666428D02*
X126396964Y-101630714D01*
X126361250Y-101595000D01*
X126325535Y-101523571D01*
X126325535Y-101452142D01*
X126789821Y-100916428D02*
X126825535Y-100987857D01*
X126825535Y-101130714D01*
X126789821Y-101202142D01*
X126718392Y-101237857D01*
X126432678Y-101237857D01*
X126361250Y-101202142D01*
X126325535Y-101130714D01*
X126325535Y-100987857D01*
X126361250Y-100916428D01*
X126432678Y-100880714D01*
X126504107Y-100880714D01*
X126575535Y-101237857D01*
X126789821Y-100595000D02*
X126825535Y-100523571D01*
X126825535Y-100380714D01*
X126789821Y-100309285D01*
X126718392Y-100273571D01*
X126682678Y-100273571D01*
X126611250Y-100309285D01*
X126575535Y-100380714D01*
X126575535Y-100487857D01*
X126539821Y-100559285D01*
X126468392Y-100595000D01*
X126432678Y-100595000D01*
X126361250Y-100559285D01*
X126325535Y-100487857D01*
X126325535Y-100380714D01*
X126361250Y-100309285D01*
X126789821Y-99987857D02*
X126825535Y-99916428D01*
X126825535Y-99773571D01*
X126789821Y-99702142D01*
X126718392Y-99666428D01*
X126682678Y-99666428D01*
X126611250Y-99702142D01*
X126575535Y-99773571D01*
X126575535Y-99880714D01*
X126539821Y-99952142D01*
X126468392Y-99987857D01*
X126432678Y-99987857D01*
X126361250Y-99952142D01*
X126325535Y-99880714D01*
X126325535Y-99773571D01*
X126361250Y-99702142D01*
X126789821Y-99059285D02*
X126825535Y-99130714D01*
X126825535Y-99273571D01*
X126789821Y-99345000D01*
X126718392Y-99380714D01*
X126432678Y-99380714D01*
X126361250Y-99345000D01*
X126325535Y-99273571D01*
X126325535Y-99130714D01*
X126361250Y-99059285D01*
X126432678Y-99023571D01*
X126504107Y-99023571D01*
X126575535Y-99380714D01*
X126825535Y-98380714D02*
X126075535Y-98380714D01*
X126789821Y-98380714D02*
X126825535Y-98452142D01*
X126825535Y-98595000D01*
X126789821Y-98666428D01*
X126754107Y-98702142D01*
X126682678Y-98737857D01*
X126468392Y-98737857D01*
X126396964Y-98702142D01*
X126361250Y-98666428D01*
X126325535Y-98595000D01*
X126325535Y-98452142D01*
X126361250Y-98380714D01*
X126825535Y-97452142D02*
X126325535Y-97452142D01*
X126396964Y-97452142D02*
X126361250Y-97416428D01*
X126325535Y-97345000D01*
X126325535Y-97237857D01*
X126361250Y-97166428D01*
X126432678Y-97130714D01*
X126825535Y-97130714D01*
X126432678Y-97130714D02*
X126361250Y-97095000D01*
X126325535Y-97023571D01*
X126325535Y-96916428D01*
X126361250Y-96845000D01*
X126432678Y-96809285D01*
X126825535Y-96809285D01*
X126825535Y-96345000D02*
X126789821Y-96416428D01*
X126754107Y-96452142D01*
X126682678Y-96487857D01*
X126468392Y-96487857D01*
X126396964Y-96452142D01*
X126361250Y-96416428D01*
X126325535Y-96345000D01*
X126325535Y-96237857D01*
X126361250Y-96166428D01*
X126396964Y-96130714D01*
X126468392Y-96095000D01*
X126682678Y-96095000D01*
X126754107Y-96130714D01*
X126789821Y-96166428D01*
X126825535Y-96237857D01*
X126825535Y-96345000D01*
X126825535Y-95773571D02*
X126325535Y-95773571D01*
X126468392Y-95773571D02*
X126396964Y-95737857D01*
X126361250Y-95702142D01*
X126325535Y-95630714D01*
X126325535Y-95559285D01*
X126789821Y-95023571D02*
X126825535Y-95095000D01*
X126825535Y-95237857D01*
X126789821Y-95309285D01*
X126718392Y-95345000D01*
X126432678Y-95345000D01*
X126361250Y-95309285D01*
X126325535Y-95237857D01*
X126325535Y-95095000D01*
X126361250Y-95023571D01*
X126432678Y-94987857D01*
X126504107Y-94987857D01*
X126575535Y-95345000D01*
X126825535Y-93987857D02*
X126789821Y-94059285D01*
X126754107Y-94095000D01*
X126682678Y-94130714D01*
X126468392Y-94130714D01*
X126396964Y-94095000D01*
X126361250Y-94059285D01*
X126325535Y-93987857D01*
X126325535Y-93880714D01*
X126361250Y-93809285D01*
X126396964Y-93773571D01*
X126468392Y-93737857D01*
X126682678Y-93737857D01*
X126754107Y-93773571D01*
X126789821Y-93809285D01*
X126825535Y-93880714D01*
X126825535Y-93987857D01*
X126325535Y-93523571D02*
X126325535Y-93237857D01*
X126825535Y-93416428D02*
X126182678Y-93416428D01*
X126111250Y-93380714D01*
X126075535Y-93309285D01*
X126075535Y-93237857D01*
X126325535Y-93095000D02*
X126325535Y-92809285D01*
X126075535Y-92987857D02*
X126718392Y-92987857D01*
X126789821Y-92952142D01*
X126825535Y-92880714D01*
X126825535Y-92809285D01*
X126789821Y-92273571D02*
X126825535Y-92345000D01*
X126825535Y-92487857D01*
X126789821Y-92559285D01*
X126718392Y-92595000D01*
X126432678Y-92595000D01*
X126361250Y-92559285D01*
X126325535Y-92487857D01*
X126325535Y-92345000D01*
X126361250Y-92273571D01*
X126432678Y-92237857D01*
X126504107Y-92237857D01*
X126575535Y-92595000D01*
X126325535Y-91916428D02*
X126825535Y-91916428D01*
X126396964Y-91916428D02*
X126361250Y-91880714D01*
X126325535Y-91809285D01*
X126325535Y-91702142D01*
X126361250Y-91630714D01*
X126432678Y-91595000D01*
X126825535Y-91595000D01*
X126075535Y-91273571D02*
X126218392Y-91273571D01*
X126075535Y-90987857D02*
X126218392Y-90987857D01*
X127747321Y-105845000D02*
X127747321Y-105273571D01*
X128033035Y-104916428D02*
X127283035Y-104916428D01*
X127818750Y-104666428D01*
X127283035Y-104416428D01*
X128033035Y-104416428D01*
X128033035Y-103737857D02*
X127640178Y-103737857D01*
X127568750Y-103773571D01*
X127533035Y-103845000D01*
X127533035Y-103987857D01*
X127568750Y-104059285D01*
X127997321Y-103737857D02*
X128033035Y-103809285D01*
X128033035Y-103987857D01*
X127997321Y-104059285D01*
X127925892Y-104095000D01*
X127854464Y-104095000D01*
X127783035Y-104059285D01*
X127747321Y-103987857D01*
X127747321Y-103809285D01*
X127711607Y-103737857D01*
X127533035Y-103380714D02*
X128033035Y-103380714D01*
X127604464Y-103380714D02*
X127568750Y-103345000D01*
X127533035Y-103273571D01*
X127533035Y-103166428D01*
X127568750Y-103095000D01*
X127640178Y-103059285D01*
X128033035Y-103059285D01*
X127533035Y-102809285D02*
X127533035Y-102523571D01*
X127283035Y-102702142D02*
X127925892Y-102702142D01*
X127997321Y-102666428D01*
X128033035Y-102595000D01*
X128033035Y-102523571D01*
X128033035Y-102273571D02*
X127283035Y-102273571D01*
X128033035Y-101952142D02*
X127640178Y-101952142D01*
X127568750Y-101987857D01*
X127533035Y-102059285D01*
X127533035Y-102166428D01*
X127568750Y-102237857D01*
X127604464Y-102273571D01*
X128033035Y-101273571D02*
X127640178Y-101273571D01*
X127568750Y-101309285D01*
X127533035Y-101380714D01*
X127533035Y-101523571D01*
X127568750Y-101595000D01*
X127997321Y-101273571D02*
X128033035Y-101345000D01*
X128033035Y-101523571D01*
X127997321Y-101595000D01*
X127925892Y-101630714D01*
X127854464Y-101630714D01*
X127783035Y-101595000D01*
X127747321Y-101523571D01*
X127747321Y-101345000D01*
X127711607Y-101273571D01*
X127533035Y-100916428D02*
X128033035Y-100916428D01*
X127604464Y-100916428D02*
X127568750Y-100880714D01*
X127533035Y-100809285D01*
X127533035Y-100702142D01*
X127568750Y-100630714D01*
X127640178Y-100595000D01*
X128033035Y-100595000D01*
D10*
X163692380Y-75190476D02*
X163692380Y-75761904D01*
X163692380Y-75476190D02*
X162692380Y-75476190D01*
X162835238Y-75571428D01*
X162930476Y-75666666D01*
X162978095Y-75761904D01*
X163025714Y-74333333D02*
X163692380Y-74333333D01*
X162644761Y-74571428D02*
X163359047Y-74809523D01*
X163359047Y-74190476D01*
X124522142Y-124362380D02*
X124188809Y-123886190D01*
X123950714Y-124362380D02*
X123950714Y-123362380D01*
X124331666Y-123362380D01*
X124426904Y-123410000D01*
X124474523Y-123457619D01*
X124522142Y-123552857D01*
X124522142Y-123695714D01*
X124474523Y-123790952D01*
X124426904Y-123838571D01*
X124331666Y-123886190D01*
X123950714Y-123886190D01*
X125474523Y-124362380D02*
X124903095Y-124362380D01*
X125188809Y-124362380D02*
X125188809Y-123362380D01*
X125093571Y-123505238D01*
X124998333Y-123600476D01*
X124903095Y-123648095D01*
X125807857Y-123362380D02*
X126474523Y-123362380D01*
X126045952Y-124362380D01*
X132547142Y-82112380D02*
X132213809Y-81636190D01*
X131975714Y-82112380D02*
X131975714Y-81112380D01*
X132356666Y-81112380D01*
X132451904Y-81160000D01*
X132499523Y-81207619D01*
X132547142Y-81302857D01*
X132547142Y-81445714D01*
X132499523Y-81540952D01*
X132451904Y-81588571D01*
X132356666Y-81636190D01*
X131975714Y-81636190D01*
X132928095Y-81207619D02*
X132975714Y-81160000D01*
X133070952Y-81112380D01*
X133309047Y-81112380D01*
X133404285Y-81160000D01*
X133451904Y-81207619D01*
X133499523Y-81302857D01*
X133499523Y-81398095D01*
X133451904Y-81540952D01*
X132880476Y-82112380D01*
X133499523Y-82112380D01*
X133832857Y-81112380D02*
X134451904Y-81112380D01*
X134118571Y-81493333D01*
X134261428Y-81493333D01*
X134356666Y-81540952D01*
X134404285Y-81588571D01*
X134451904Y-81683809D01*
X134451904Y-81921904D01*
X134404285Y-82017142D01*
X134356666Y-82064761D01*
X134261428Y-82112380D01*
X133975714Y-82112380D01*
X133880476Y-82064761D01*
X133832857Y-82017142D01*
X134800476Y-93338571D02*
X134467142Y-93338571D01*
X134467142Y-93862380D02*
X134467142Y-92862380D01*
X134943333Y-92862380D01*
X135657619Y-93338571D02*
X135800476Y-93386190D01*
X135848095Y-93433809D01*
X135895714Y-93529047D01*
X135895714Y-93671904D01*
X135848095Y-93767142D01*
X135800476Y-93814761D01*
X135705238Y-93862380D01*
X135324285Y-93862380D01*
X135324285Y-92862380D01*
X135657619Y-92862380D01*
X135752857Y-92910000D01*
X135800476Y-92957619D01*
X135848095Y-93052857D01*
X135848095Y-93148095D01*
X135800476Y-93243333D01*
X135752857Y-93290952D01*
X135657619Y-93338571D01*
X135324285Y-93338571D01*
X136848095Y-93862380D02*
X136276666Y-93862380D01*
X136562380Y-93862380D02*
X136562380Y-92862380D01*
X136467142Y-93005238D01*
X136371904Y-93100476D01*
X136276666Y-93148095D01*
X137181428Y-92862380D02*
X137848095Y-92862380D01*
X137419523Y-93862380D01*
X157187142Y-85722380D02*
X156853809Y-85246190D01*
X156615714Y-85722380D02*
X156615714Y-84722380D01*
X156996666Y-84722380D01*
X157091904Y-84770000D01*
X157139523Y-84817619D01*
X157187142Y-84912857D01*
X157187142Y-85055714D01*
X157139523Y-85150952D01*
X157091904Y-85198571D01*
X156996666Y-85246190D01*
X156615714Y-85246190D01*
X157520476Y-84722380D02*
X158139523Y-84722380D01*
X157806190Y-85103333D01*
X157949047Y-85103333D01*
X158044285Y-85150952D01*
X158091904Y-85198571D01*
X158139523Y-85293809D01*
X158139523Y-85531904D01*
X158091904Y-85627142D01*
X158044285Y-85674761D01*
X157949047Y-85722380D01*
X157663333Y-85722380D01*
X157568095Y-85674761D01*
X157520476Y-85627142D01*
X158758571Y-84722380D02*
X158853809Y-84722380D01*
X158949047Y-84770000D01*
X158996666Y-84817619D01*
X159044285Y-84912857D01*
X159091904Y-85103333D01*
X159091904Y-85341428D01*
X159044285Y-85531904D01*
X158996666Y-85627142D01*
X158949047Y-85674761D01*
X158853809Y-85722380D01*
X158758571Y-85722380D01*
X158663333Y-85674761D01*
X158615714Y-85627142D01*
X158568095Y-85531904D01*
X158520476Y-85341428D01*
X158520476Y-85103333D01*
X158568095Y-84912857D01*
X158615714Y-84817619D01*
X158663333Y-84770000D01*
X158758571Y-84722380D01*
X147787142Y-121522380D02*
X147453809Y-121046190D01*
X147215714Y-121522380D02*
X147215714Y-120522380D01*
X147596666Y-120522380D01*
X147691904Y-120570000D01*
X147739523Y-120617619D01*
X147787142Y-120712857D01*
X147787142Y-120855714D01*
X147739523Y-120950952D01*
X147691904Y-120998571D01*
X147596666Y-121046190D01*
X147215714Y-121046190D01*
X148739523Y-121522380D02*
X148168095Y-121522380D01*
X148453809Y-121522380D02*
X148453809Y-120522380D01*
X148358571Y-120665238D01*
X148263333Y-120760476D01*
X148168095Y-120808095D01*
X149596666Y-120855714D02*
X149596666Y-121522380D01*
X149358571Y-120474761D02*
X149120476Y-121189047D01*
X149739523Y-121189047D01*
X156243571Y-116833333D02*
X156243571Y-117166666D01*
X156767380Y-117166666D02*
X155767380Y-117166666D01*
X155767380Y-116690476D01*
X156243571Y-115976190D02*
X156291190Y-115833333D01*
X156338809Y-115785714D01*
X156434047Y-115738095D01*
X156576904Y-115738095D01*
X156672142Y-115785714D01*
X156719761Y-115833333D01*
X156767380Y-115928571D01*
X156767380Y-116309523D01*
X155767380Y-116309523D01*
X155767380Y-115976190D01*
X155815000Y-115880952D01*
X155862619Y-115833333D01*
X155957857Y-115785714D01*
X156053095Y-115785714D01*
X156148333Y-115833333D01*
X156195952Y-115880952D01*
X156243571Y-115976190D01*
X156243571Y-116309523D01*
X156100714Y-114880952D02*
X156767380Y-114880952D01*
X155719761Y-115119047D02*
X156434047Y-115357142D01*
X156434047Y-114738095D01*
X138562380Y-123977857D02*
X138086190Y-124311190D01*
X138562380Y-124549285D02*
X137562380Y-124549285D01*
X137562380Y-124168333D01*
X137610000Y-124073095D01*
X137657619Y-124025476D01*
X137752857Y-123977857D01*
X137895714Y-123977857D01*
X137990952Y-124025476D01*
X138038571Y-124073095D01*
X138086190Y-124168333D01*
X138086190Y-124549285D01*
X138562380Y-123025476D02*
X138562380Y-123596904D01*
X138562380Y-123311190D02*
X137562380Y-123311190D01*
X137705238Y-123406428D01*
X137800476Y-123501666D01*
X137848095Y-123596904D01*
X138562380Y-122073095D02*
X138562380Y-122644523D01*
X138562380Y-122358809D02*
X137562380Y-122358809D01*
X137705238Y-122454047D01*
X137800476Y-122549285D01*
X137848095Y-122644523D01*
X184317380Y-123516666D02*
X183841190Y-123850000D01*
X184317380Y-124088095D02*
X183317380Y-124088095D01*
X183317380Y-123707142D01*
X183365000Y-123611904D01*
X183412619Y-123564285D01*
X183507857Y-123516666D01*
X183650714Y-123516666D01*
X183745952Y-123564285D01*
X183793571Y-123611904D01*
X183841190Y-123707142D01*
X183841190Y-124088095D01*
X183412619Y-123135714D02*
X183365000Y-123088095D01*
X183317380Y-122992857D01*
X183317380Y-122754761D01*
X183365000Y-122659523D01*
X183412619Y-122611904D01*
X183507857Y-122564285D01*
X183603095Y-122564285D01*
X183745952Y-122611904D01*
X184317380Y-123183333D01*
X184317380Y-122564285D01*
X166058333Y-121407380D02*
X165725000Y-120931190D01*
X165486904Y-121407380D02*
X165486904Y-120407380D01*
X165867857Y-120407380D01*
X165963095Y-120455000D01*
X166010714Y-120502619D01*
X166058333Y-120597857D01*
X166058333Y-120740714D01*
X166010714Y-120835952D01*
X165963095Y-120883571D01*
X165867857Y-120931190D01*
X165486904Y-120931190D01*
X166629761Y-120835952D02*
X166534523Y-120788333D01*
X166486904Y-120740714D01*
X166439285Y-120645476D01*
X166439285Y-120597857D01*
X166486904Y-120502619D01*
X166534523Y-120455000D01*
X166629761Y-120407380D01*
X166820238Y-120407380D01*
X166915476Y-120455000D01*
X166963095Y-120502619D01*
X167010714Y-120597857D01*
X167010714Y-120645476D01*
X166963095Y-120740714D01*
X166915476Y-120788333D01*
X166820238Y-120835952D01*
X166629761Y-120835952D01*
X166534523Y-120883571D01*
X166486904Y-120931190D01*
X166439285Y-121026428D01*
X166439285Y-121216904D01*
X166486904Y-121312142D01*
X166534523Y-121359761D01*
X166629761Y-121407380D01*
X166820238Y-121407380D01*
X166915476Y-121359761D01*
X166963095Y-121312142D01*
X167010714Y-121216904D01*
X167010714Y-121026428D01*
X166963095Y-120931190D01*
X166915476Y-120883571D01*
X166820238Y-120835952D01*
X183818571Y-91669523D02*
X183818571Y-92002857D01*
X184342380Y-92002857D02*
X183342380Y-92002857D01*
X183342380Y-91526666D01*
X183818571Y-90812380D02*
X183866190Y-90669523D01*
X183913809Y-90621904D01*
X184009047Y-90574285D01*
X184151904Y-90574285D01*
X184247142Y-90621904D01*
X184294761Y-90669523D01*
X184342380Y-90764761D01*
X184342380Y-91145714D01*
X183342380Y-91145714D01*
X183342380Y-90812380D01*
X183390000Y-90717142D01*
X183437619Y-90669523D01*
X183532857Y-90621904D01*
X183628095Y-90621904D01*
X183723333Y-90669523D01*
X183770952Y-90717142D01*
X183818571Y-90812380D01*
X183818571Y-91145714D01*
X184342380Y-89621904D02*
X184342380Y-90193333D01*
X184342380Y-89907619D02*
X183342380Y-89907619D01*
X183485238Y-90002857D01*
X183580476Y-90098095D01*
X183628095Y-90193333D01*
X183342380Y-88764761D02*
X183342380Y-88955238D01*
X183390000Y-89050476D01*
X183437619Y-89098095D01*
X183580476Y-89193333D01*
X183770952Y-89240952D01*
X184151904Y-89240952D01*
X184247142Y-89193333D01*
X184294761Y-89145714D01*
X184342380Y-89050476D01*
X184342380Y-88860000D01*
X184294761Y-88764761D01*
X184247142Y-88717142D01*
X184151904Y-88669523D01*
X183913809Y-88669523D01*
X183818571Y-88717142D01*
X183770952Y-88764761D01*
X183723333Y-88860000D01*
X183723333Y-89050476D01*
X183770952Y-89145714D01*
X183818571Y-89193333D01*
X183913809Y-89240952D01*
X130663571Y-119753333D02*
X130663571Y-120086666D01*
X131187380Y-120086666D02*
X130187380Y-120086666D01*
X130187380Y-119610476D01*
X130663571Y-118896190D02*
X130711190Y-118753333D01*
X130758809Y-118705714D01*
X130854047Y-118658095D01*
X130996904Y-118658095D01*
X131092142Y-118705714D01*
X131139761Y-118753333D01*
X131187380Y-118848571D01*
X131187380Y-119229523D01*
X130187380Y-119229523D01*
X130187380Y-118896190D01*
X130235000Y-118800952D01*
X130282619Y-118753333D01*
X130377857Y-118705714D01*
X130473095Y-118705714D01*
X130568333Y-118753333D01*
X130615952Y-118800952D01*
X130663571Y-118896190D01*
X130663571Y-119229523D01*
X130187380Y-118324761D02*
X130187380Y-117658095D01*
X131187380Y-118086666D01*
X180872142Y-85852380D02*
X180538809Y-85376190D01*
X180300714Y-85852380D02*
X180300714Y-84852380D01*
X180681666Y-84852380D01*
X180776904Y-84900000D01*
X180824523Y-84947619D01*
X180872142Y-85042857D01*
X180872142Y-85185714D01*
X180824523Y-85280952D01*
X180776904Y-85328571D01*
X180681666Y-85376190D01*
X180300714Y-85376190D01*
X181205476Y-84852380D02*
X181824523Y-84852380D01*
X181491190Y-85233333D01*
X181634047Y-85233333D01*
X181729285Y-85280952D01*
X181776904Y-85328571D01*
X181824523Y-85423809D01*
X181824523Y-85661904D01*
X181776904Y-85757142D01*
X181729285Y-85804761D01*
X181634047Y-85852380D01*
X181348333Y-85852380D01*
X181253095Y-85804761D01*
X181205476Y-85757142D01*
X182157857Y-84852380D02*
X182776904Y-84852380D01*
X182443571Y-85233333D01*
X182586428Y-85233333D01*
X182681666Y-85280952D01*
X182729285Y-85328571D01*
X182776904Y-85423809D01*
X182776904Y-85661904D01*
X182729285Y-85757142D01*
X182681666Y-85804761D01*
X182586428Y-85852380D01*
X182300714Y-85852380D01*
X182205476Y-85804761D01*
X182157857Y-85757142D01*
X178222142Y-81297142D02*
X178174523Y-81344761D01*
X178031666Y-81392380D01*
X177936428Y-81392380D01*
X177793571Y-81344761D01*
X177698333Y-81249523D01*
X177650714Y-81154285D01*
X177603095Y-80963809D01*
X177603095Y-80820952D01*
X177650714Y-80630476D01*
X177698333Y-80535238D01*
X177793571Y-80440000D01*
X177936428Y-80392380D01*
X178031666Y-80392380D01*
X178174523Y-80440000D01*
X178222142Y-80487619D01*
X179174523Y-81392380D02*
X178603095Y-81392380D01*
X178888809Y-81392380D02*
X178888809Y-80392380D01*
X178793571Y-80535238D01*
X178698333Y-80630476D01*
X178603095Y-80678095D01*
X179745952Y-80820952D02*
X179650714Y-80773333D01*
X179603095Y-80725714D01*
X179555476Y-80630476D01*
X179555476Y-80582857D01*
X179603095Y-80487619D01*
X179650714Y-80440000D01*
X179745952Y-80392380D01*
X179936428Y-80392380D01*
X180031666Y-80440000D01*
X180079285Y-80487619D01*
X180126904Y-80582857D01*
X180126904Y-80630476D01*
X180079285Y-80725714D01*
X180031666Y-80773333D01*
X179936428Y-80820952D01*
X179745952Y-80820952D01*
X179650714Y-80868571D01*
X179603095Y-80916190D01*
X179555476Y-81011428D01*
X179555476Y-81201904D01*
X179603095Y-81297142D01*
X179650714Y-81344761D01*
X179745952Y-81392380D01*
X179936428Y-81392380D01*
X180031666Y-81344761D01*
X180079285Y-81297142D01*
X180126904Y-81201904D01*
X180126904Y-81011428D01*
X180079285Y-80916190D01*
X180031666Y-80868571D01*
X179936428Y-80820952D01*
X131307380Y-126952857D02*
X130831190Y-127286190D01*
X131307380Y-127524285D02*
X130307380Y-127524285D01*
X130307380Y-127143333D01*
X130355000Y-127048095D01*
X130402619Y-127000476D01*
X130497857Y-126952857D01*
X130640714Y-126952857D01*
X130735952Y-127000476D01*
X130783571Y-127048095D01*
X130831190Y-127143333D01*
X130831190Y-127524285D01*
X131307380Y-126000476D02*
X131307380Y-126571904D01*
X131307380Y-126286190D02*
X130307380Y-126286190D01*
X130450238Y-126381428D01*
X130545476Y-126476666D01*
X130593095Y-126571904D01*
X130402619Y-125619523D02*
X130355000Y-125571904D01*
X130307380Y-125476666D01*
X130307380Y-125238571D01*
X130355000Y-125143333D01*
X130402619Y-125095714D01*
X130497857Y-125048095D01*
X130593095Y-125048095D01*
X130735952Y-125095714D01*
X131307380Y-125667142D01*
X131307380Y-125048095D01*
X163977142Y-81207142D02*
X163929523Y-81254761D01*
X163786666Y-81302380D01*
X163691428Y-81302380D01*
X163548571Y-81254761D01*
X163453333Y-81159523D01*
X163405714Y-81064285D01*
X163358095Y-80873809D01*
X163358095Y-80730952D01*
X163405714Y-80540476D01*
X163453333Y-80445238D01*
X163548571Y-80350000D01*
X163691428Y-80302380D01*
X163786666Y-80302380D01*
X163929523Y-80350000D01*
X163977142Y-80397619D01*
X164929523Y-81302380D02*
X164358095Y-81302380D01*
X164643809Y-81302380D02*
X164643809Y-80302380D01*
X164548571Y-80445238D01*
X164453333Y-80540476D01*
X164358095Y-80588095D01*
X165786666Y-80302380D02*
X165596190Y-80302380D01*
X165500952Y-80350000D01*
X165453333Y-80397619D01*
X165358095Y-80540476D01*
X165310476Y-80730952D01*
X165310476Y-81111904D01*
X165358095Y-81207142D01*
X165405714Y-81254761D01*
X165500952Y-81302380D01*
X165691428Y-81302380D01*
X165786666Y-81254761D01*
X165834285Y-81207142D01*
X165881904Y-81111904D01*
X165881904Y-80873809D01*
X165834285Y-80778571D01*
X165786666Y-80730952D01*
X165691428Y-80683333D01*
X165500952Y-80683333D01*
X165405714Y-80730952D01*
X165358095Y-80778571D01*
X165310476Y-80873809D01*
X144258571Y-91669523D02*
X144258571Y-92002857D01*
X144782380Y-92002857D02*
X143782380Y-92002857D01*
X143782380Y-91526666D01*
X144258571Y-90812380D02*
X144306190Y-90669523D01*
X144353809Y-90621904D01*
X144449047Y-90574285D01*
X144591904Y-90574285D01*
X144687142Y-90621904D01*
X144734761Y-90669523D01*
X144782380Y-90764761D01*
X144782380Y-91145714D01*
X143782380Y-91145714D01*
X143782380Y-90812380D01*
X143830000Y-90717142D01*
X143877619Y-90669523D01*
X143972857Y-90621904D01*
X144068095Y-90621904D01*
X144163333Y-90669523D01*
X144210952Y-90717142D01*
X144258571Y-90812380D01*
X144258571Y-91145714D01*
X144782380Y-89621904D02*
X144782380Y-90193333D01*
X144782380Y-89907619D02*
X143782380Y-89907619D01*
X143925238Y-90002857D01*
X144020476Y-90098095D01*
X144068095Y-90193333D01*
X144782380Y-88669523D02*
X144782380Y-89240952D01*
X144782380Y-88955238D02*
X143782380Y-88955238D01*
X143925238Y-89050476D01*
X144020476Y-89145714D01*
X144068095Y-89240952D01*
X152617142Y-81057142D02*
X152569523Y-81104761D01*
X152426666Y-81152380D01*
X152331428Y-81152380D01*
X152188571Y-81104761D01*
X152093333Y-81009523D01*
X152045714Y-80914285D01*
X151998095Y-80723809D01*
X151998095Y-80580952D01*
X152045714Y-80390476D01*
X152093333Y-80295238D01*
X152188571Y-80200000D01*
X152331428Y-80152380D01*
X152426666Y-80152380D01*
X152569523Y-80200000D01*
X152617142Y-80247619D01*
X153569523Y-81152380D02*
X152998095Y-81152380D01*
X153283809Y-81152380D02*
X153283809Y-80152380D01*
X153188571Y-80295238D01*
X153093333Y-80390476D01*
X152998095Y-80438095D01*
X154426666Y-80485714D02*
X154426666Y-81152380D01*
X154188571Y-80104761D02*
X153950476Y-80819047D01*
X154569523Y-80819047D01*
X155373333Y-121452380D02*
X155040000Y-120976190D01*
X154801904Y-121452380D02*
X154801904Y-120452380D01*
X155182857Y-120452380D01*
X155278095Y-120500000D01*
X155325714Y-120547619D01*
X155373333Y-120642857D01*
X155373333Y-120785714D01*
X155325714Y-120880952D01*
X155278095Y-120928571D01*
X155182857Y-120976190D01*
X154801904Y-120976190D01*
X155849523Y-121452380D02*
X156040000Y-121452380D01*
X156135238Y-121404761D01*
X156182857Y-121357142D01*
X156278095Y-121214285D01*
X156325714Y-121023809D01*
X156325714Y-120642857D01*
X156278095Y-120547619D01*
X156230476Y-120500000D01*
X156135238Y-120452380D01*
X155944761Y-120452380D01*
X155849523Y-120500000D01*
X155801904Y-120547619D01*
X155754285Y-120642857D01*
X155754285Y-120880952D01*
X155801904Y-120976190D01*
X155849523Y-121023809D01*
X155944761Y-121071428D01*
X156135238Y-121071428D01*
X156230476Y-121023809D01*
X156278095Y-120976190D01*
X156325714Y-120880952D01*
X123362380Y-126937857D02*
X122886190Y-127271190D01*
X123362380Y-127509285D02*
X122362380Y-127509285D01*
X122362380Y-127128333D01*
X122410000Y-127033095D01*
X122457619Y-126985476D01*
X122552857Y-126937857D01*
X122695714Y-126937857D01*
X122790952Y-126985476D01*
X122838571Y-127033095D01*
X122886190Y-127128333D01*
X122886190Y-127509285D01*
X123362380Y-125985476D02*
X123362380Y-126556904D01*
X123362380Y-126271190D02*
X122362380Y-126271190D01*
X122505238Y-126366428D01*
X122600476Y-126461666D01*
X122648095Y-126556904D01*
X122362380Y-125652142D02*
X122362380Y-125033095D01*
X122743333Y-125366428D01*
X122743333Y-125223571D01*
X122790952Y-125128333D01*
X122838571Y-125080714D01*
X122933809Y-125033095D01*
X123171904Y-125033095D01*
X123267142Y-125080714D01*
X123314761Y-125128333D01*
X123362380Y-125223571D01*
X123362380Y-125509285D01*
X123314761Y-125604523D01*
X123267142Y-125652142D01*
X182842380Y-97436666D02*
X182366190Y-97770000D01*
X182842380Y-98008095D02*
X181842380Y-98008095D01*
X181842380Y-97627142D01*
X181890000Y-97531904D01*
X181937619Y-97484285D01*
X182032857Y-97436666D01*
X182175714Y-97436666D01*
X182270952Y-97484285D01*
X182318571Y-97531904D01*
X182366190Y-97627142D01*
X182366190Y-98008095D01*
X182842380Y-96484285D02*
X182842380Y-97055714D01*
X182842380Y-96770000D02*
X181842380Y-96770000D01*
X181985238Y-96865238D01*
X182080476Y-96960476D01*
X182128095Y-97055714D01*
X150703333Y-125977142D02*
X150655714Y-126024761D01*
X150512857Y-126072380D01*
X150417619Y-126072380D01*
X150274761Y-126024761D01*
X150179523Y-125929523D01*
X150131904Y-125834285D01*
X150084285Y-125643809D01*
X150084285Y-125500952D01*
X150131904Y-125310476D01*
X150179523Y-125215238D01*
X150274761Y-125120000D01*
X150417619Y-125072380D01*
X150512857Y-125072380D01*
X150655714Y-125120000D01*
X150703333Y-125167619D01*
X151036666Y-125072380D02*
X151703333Y-125072380D01*
X151274761Y-126072380D01*
X183928571Y-116833333D02*
X183928571Y-117166666D01*
X184452380Y-117166666D02*
X183452380Y-117166666D01*
X183452380Y-116690476D01*
X183928571Y-115976190D02*
X183976190Y-115833333D01*
X184023809Y-115785714D01*
X184119047Y-115738095D01*
X184261904Y-115738095D01*
X184357142Y-115785714D01*
X184404761Y-115833333D01*
X184452380Y-115928571D01*
X184452380Y-116309523D01*
X183452380Y-116309523D01*
X183452380Y-115976190D01*
X183500000Y-115880952D01*
X183547619Y-115833333D01*
X183642857Y-115785714D01*
X183738095Y-115785714D01*
X183833333Y-115833333D01*
X183880952Y-115880952D01*
X183928571Y-115976190D01*
X183928571Y-116309523D01*
X184452380Y-114785714D02*
X184452380Y-115357142D01*
X184452380Y-115071428D02*
X183452380Y-115071428D01*
X183595238Y-115166666D01*
X183690476Y-115261904D01*
X183738095Y-115357142D01*
X127197142Y-77447142D02*
X127149523Y-77494761D01*
X127006666Y-77542380D01*
X126911428Y-77542380D01*
X126768571Y-77494761D01*
X126673333Y-77399523D01*
X126625714Y-77304285D01*
X126578095Y-77113809D01*
X126578095Y-76970952D01*
X126625714Y-76780476D01*
X126673333Y-76685238D01*
X126768571Y-76590000D01*
X126911428Y-76542380D01*
X127006666Y-76542380D01*
X127149523Y-76590000D01*
X127197142Y-76637619D01*
X128149523Y-77542380D02*
X127578095Y-77542380D01*
X127863809Y-77542380D02*
X127863809Y-76542380D01*
X127768571Y-76685238D01*
X127673333Y-76780476D01*
X127578095Y-76828095D01*
X129101904Y-77542380D02*
X128530476Y-77542380D01*
X128816190Y-77542380D02*
X128816190Y-76542380D01*
X128720952Y-76685238D01*
X128625714Y-76780476D01*
X128530476Y-76828095D01*
X173833333Y-121442380D02*
X173500000Y-120966190D01*
X173261904Y-121442380D02*
X173261904Y-120442380D01*
X173642857Y-120442380D01*
X173738095Y-120490000D01*
X173785714Y-120537619D01*
X173833333Y-120632857D01*
X173833333Y-120775714D01*
X173785714Y-120870952D01*
X173738095Y-120918571D01*
X173642857Y-120966190D01*
X173261904Y-120966190D01*
X174166666Y-120442380D02*
X174833333Y-120442380D01*
X174404761Y-121442380D01*
X176328571Y-116833333D02*
X176328571Y-117166666D01*
X176852380Y-117166666D02*
X175852380Y-117166666D01*
X175852380Y-116690476D01*
X176328571Y-115976190D02*
X176376190Y-115833333D01*
X176423809Y-115785714D01*
X176519047Y-115738095D01*
X176661904Y-115738095D01*
X176757142Y-115785714D01*
X176804761Y-115833333D01*
X176852380Y-115928571D01*
X176852380Y-116309523D01*
X175852380Y-116309523D01*
X175852380Y-115976190D01*
X175900000Y-115880952D01*
X175947619Y-115833333D01*
X176042857Y-115785714D01*
X176138095Y-115785714D01*
X176233333Y-115833333D01*
X176280952Y-115880952D01*
X176328571Y-115976190D01*
X176328571Y-116309523D01*
X175947619Y-115357142D02*
X175900000Y-115309523D01*
X175852380Y-115214285D01*
X175852380Y-114976190D01*
X175900000Y-114880952D01*
X175947619Y-114833333D01*
X176042857Y-114785714D01*
X176138095Y-114785714D01*
X176280952Y-114833333D01*
X176852380Y-115404761D01*
X176852380Y-114785714D01*
X176618571Y-91669523D02*
X176618571Y-92002857D01*
X177142380Y-92002857D02*
X176142380Y-92002857D01*
X176142380Y-91526666D01*
X176618571Y-90812380D02*
X176666190Y-90669523D01*
X176713809Y-90621904D01*
X176809047Y-90574285D01*
X176951904Y-90574285D01*
X177047142Y-90621904D01*
X177094761Y-90669523D01*
X177142380Y-90764761D01*
X177142380Y-91145714D01*
X176142380Y-91145714D01*
X176142380Y-90812380D01*
X176190000Y-90717142D01*
X176237619Y-90669523D01*
X176332857Y-90621904D01*
X176428095Y-90621904D01*
X176523333Y-90669523D01*
X176570952Y-90717142D01*
X176618571Y-90812380D01*
X176618571Y-91145714D01*
X177142380Y-89621904D02*
X177142380Y-90193333D01*
X177142380Y-89907619D02*
X176142380Y-89907619D01*
X176285238Y-90002857D01*
X176380476Y-90098095D01*
X176428095Y-90193333D01*
X176142380Y-88717142D02*
X176142380Y-89193333D01*
X176618571Y-89240952D01*
X176570952Y-89193333D01*
X176523333Y-89098095D01*
X176523333Y-88860000D01*
X176570952Y-88764761D01*
X176618571Y-88717142D01*
X176713809Y-88669523D01*
X176951904Y-88669523D01*
X177047142Y-88717142D01*
X177094761Y-88764761D01*
X177142380Y-88860000D01*
X177142380Y-89098095D01*
X177094761Y-89193333D01*
X177047142Y-89240952D01*
X174352380Y-83672857D02*
X173876190Y-84006190D01*
X174352380Y-84244285D02*
X173352380Y-84244285D01*
X173352380Y-83863333D01*
X173400000Y-83768095D01*
X173447619Y-83720476D01*
X173542857Y-83672857D01*
X173685714Y-83672857D01*
X173780952Y-83720476D01*
X173828571Y-83768095D01*
X173876190Y-83863333D01*
X173876190Y-84244285D01*
X173447619Y-83291904D02*
X173400000Y-83244285D01*
X173352380Y-83149047D01*
X173352380Y-82910952D01*
X173400000Y-82815714D01*
X173447619Y-82768095D01*
X173542857Y-82720476D01*
X173638095Y-82720476D01*
X173780952Y-82768095D01*
X174352380Y-83339523D01*
X174352380Y-82720476D01*
X173780952Y-82149047D02*
X173733333Y-82244285D01*
X173685714Y-82291904D01*
X173590476Y-82339523D01*
X173542857Y-82339523D01*
X173447619Y-82291904D01*
X173400000Y-82244285D01*
X173352380Y-82149047D01*
X173352380Y-81958571D01*
X173400000Y-81863333D01*
X173447619Y-81815714D01*
X173542857Y-81768095D01*
X173590476Y-81768095D01*
X173685714Y-81815714D01*
X173733333Y-81863333D01*
X173780952Y-81958571D01*
X173780952Y-82149047D01*
X173828571Y-82244285D01*
X173876190Y-82291904D01*
X173971428Y-82339523D01*
X174161904Y-82339523D01*
X174257142Y-82291904D01*
X174304761Y-82244285D01*
X174352380Y-82149047D01*
X174352380Y-81958571D01*
X174304761Y-81863333D01*
X174257142Y-81815714D01*
X174161904Y-81768095D01*
X173971428Y-81768095D01*
X173876190Y-81815714D01*
X173828571Y-81863333D01*
X173780952Y-81958571D01*
X176742380Y-123436666D02*
X176266190Y-123770000D01*
X176742380Y-124008095D02*
X175742380Y-124008095D01*
X175742380Y-123627142D01*
X175790000Y-123531904D01*
X175837619Y-123484285D01*
X175932857Y-123436666D01*
X176075714Y-123436666D01*
X176170952Y-123484285D01*
X176218571Y-123531904D01*
X176266190Y-123627142D01*
X176266190Y-124008095D01*
X175742380Y-123103333D02*
X175742380Y-122484285D01*
X176123333Y-122817619D01*
X176123333Y-122674761D01*
X176170952Y-122579523D01*
X176218571Y-122531904D01*
X176313809Y-122484285D01*
X176551904Y-122484285D01*
X176647142Y-122531904D01*
X176694761Y-122579523D01*
X176742380Y-122674761D01*
X176742380Y-122960476D01*
X176694761Y-123055714D01*
X176647142Y-123103333D01*
X170957142Y-81177142D02*
X170909523Y-81224761D01*
X170766666Y-81272380D01*
X170671428Y-81272380D01*
X170528571Y-81224761D01*
X170433333Y-81129523D01*
X170385714Y-81034285D01*
X170338095Y-80843809D01*
X170338095Y-80700952D01*
X170385714Y-80510476D01*
X170433333Y-80415238D01*
X170528571Y-80320000D01*
X170671428Y-80272380D01*
X170766666Y-80272380D01*
X170909523Y-80320000D01*
X170957142Y-80367619D01*
X171909523Y-81272380D02*
X171338095Y-81272380D01*
X171623809Y-81272380D02*
X171623809Y-80272380D01*
X171528571Y-80415238D01*
X171433333Y-80510476D01*
X171338095Y-80558095D01*
X172242857Y-80272380D02*
X172909523Y-80272380D01*
X172480952Y-81272380D01*
X139747142Y-121452380D02*
X139413809Y-120976190D01*
X139175714Y-121452380D02*
X139175714Y-120452380D01*
X139556666Y-120452380D01*
X139651904Y-120500000D01*
X139699523Y-120547619D01*
X139747142Y-120642857D01*
X139747142Y-120785714D01*
X139699523Y-120880952D01*
X139651904Y-120928571D01*
X139556666Y-120976190D01*
X139175714Y-120976190D01*
X140699523Y-121452380D02*
X140128095Y-121452380D01*
X140413809Y-121452380D02*
X140413809Y-120452380D01*
X140318571Y-120595238D01*
X140223333Y-120690476D01*
X140128095Y-120738095D01*
X141604285Y-120452380D02*
X141128095Y-120452380D01*
X141080476Y-120928571D01*
X141128095Y-120880952D01*
X141223333Y-120833333D01*
X141461428Y-120833333D01*
X141556666Y-120880952D01*
X141604285Y-120928571D01*
X141651904Y-121023809D01*
X141651904Y-121261904D01*
X141604285Y-121357142D01*
X141556666Y-121404761D01*
X141461428Y-121452380D01*
X141223333Y-121452380D01*
X141128095Y-121404761D01*
X141080476Y-121357142D01*
X142823333Y-125897142D02*
X142775714Y-125944761D01*
X142632857Y-125992380D01*
X142537619Y-125992380D01*
X142394761Y-125944761D01*
X142299523Y-125849523D01*
X142251904Y-125754285D01*
X142204285Y-125563809D01*
X142204285Y-125420952D01*
X142251904Y-125230476D01*
X142299523Y-125135238D01*
X142394761Y-125040000D01*
X142537619Y-124992380D01*
X142632857Y-124992380D01*
X142775714Y-125040000D01*
X142823333Y-125087619D01*
X143394761Y-125420952D02*
X143299523Y-125373333D01*
X143251904Y-125325714D01*
X143204285Y-125230476D01*
X143204285Y-125182857D01*
X143251904Y-125087619D01*
X143299523Y-125040000D01*
X143394761Y-124992380D01*
X143585238Y-124992380D01*
X143680476Y-125040000D01*
X143728095Y-125087619D01*
X143775714Y-125182857D01*
X143775714Y-125230476D01*
X143728095Y-125325714D01*
X143680476Y-125373333D01*
X143585238Y-125420952D01*
X143394761Y-125420952D01*
X143299523Y-125468571D01*
X143251904Y-125516190D01*
X143204285Y-125611428D01*
X143204285Y-125801904D01*
X143251904Y-125897142D01*
X143299523Y-125944761D01*
X143394761Y-125992380D01*
X143585238Y-125992380D01*
X143680476Y-125944761D01*
X143728095Y-125897142D01*
X143775714Y-125801904D01*
X143775714Y-125611428D01*
X143728095Y-125516190D01*
X143680476Y-125468571D01*
X143585238Y-125420952D01*
X168563571Y-116833333D02*
X168563571Y-117166666D01*
X169087380Y-117166666D02*
X168087380Y-117166666D01*
X168087380Y-116690476D01*
X168563571Y-115976190D02*
X168611190Y-115833333D01*
X168658809Y-115785714D01*
X168754047Y-115738095D01*
X168896904Y-115738095D01*
X168992142Y-115785714D01*
X169039761Y-115833333D01*
X169087380Y-115928571D01*
X169087380Y-116309523D01*
X168087380Y-116309523D01*
X168087380Y-115976190D01*
X168135000Y-115880952D01*
X168182619Y-115833333D01*
X168277857Y-115785714D01*
X168373095Y-115785714D01*
X168468333Y-115833333D01*
X168515952Y-115880952D01*
X168563571Y-115976190D01*
X168563571Y-116309523D01*
X168087380Y-115404761D02*
X168087380Y-114785714D01*
X168468333Y-115119047D01*
X168468333Y-114976190D01*
X168515952Y-114880952D01*
X168563571Y-114833333D01*
X168658809Y-114785714D01*
X168896904Y-114785714D01*
X168992142Y-114833333D01*
X169039761Y-114880952D01*
X169087380Y-114976190D01*
X169087380Y-115261904D01*
X169039761Y-115357142D01*
X168992142Y-115404761D01*
X141133333Y-79712142D02*
X141085714Y-79759761D01*
X140942857Y-79807380D01*
X140847619Y-79807380D01*
X140704761Y-79759761D01*
X140609523Y-79664523D01*
X140561904Y-79569285D01*
X140514285Y-79378809D01*
X140514285Y-79235952D01*
X140561904Y-79045476D01*
X140609523Y-78950238D01*
X140704761Y-78855000D01*
X140847619Y-78807380D01*
X140942857Y-78807380D01*
X141085714Y-78855000D01*
X141133333Y-78902619D01*
X141514285Y-78902619D02*
X141561904Y-78855000D01*
X141657142Y-78807380D01*
X141895238Y-78807380D01*
X141990476Y-78855000D01*
X142038095Y-78902619D01*
X142085714Y-78997857D01*
X142085714Y-79093095D01*
X142038095Y-79235952D01*
X141466666Y-79807380D01*
X142085714Y-79807380D01*
X171293333Y-125967142D02*
X171245714Y-126014761D01*
X171102857Y-126062380D01*
X171007619Y-126062380D01*
X170864761Y-126014761D01*
X170769523Y-125919523D01*
X170721904Y-125824285D01*
X170674285Y-125633809D01*
X170674285Y-125490952D01*
X170721904Y-125300476D01*
X170769523Y-125205238D01*
X170864761Y-125110000D01*
X171007619Y-125062380D01*
X171102857Y-125062380D01*
X171245714Y-125110000D01*
X171293333Y-125157619D01*
X172150476Y-125395714D02*
X172150476Y-126062380D01*
X171912380Y-125014761D02*
X171674285Y-125729047D01*
X172293333Y-125729047D01*
X135397142Y-77447142D02*
X135349523Y-77494761D01*
X135206666Y-77542380D01*
X135111428Y-77542380D01*
X134968571Y-77494761D01*
X134873333Y-77399523D01*
X134825714Y-77304285D01*
X134778095Y-77113809D01*
X134778095Y-76970952D01*
X134825714Y-76780476D01*
X134873333Y-76685238D01*
X134968571Y-76590000D01*
X135111428Y-76542380D01*
X135206666Y-76542380D01*
X135349523Y-76590000D01*
X135397142Y-76637619D01*
X136349523Y-77542380D02*
X135778095Y-77542380D01*
X136063809Y-77542380D02*
X136063809Y-76542380D01*
X135968571Y-76685238D01*
X135873333Y-76780476D01*
X135778095Y-76828095D01*
X136730476Y-76637619D02*
X136778095Y-76590000D01*
X136873333Y-76542380D01*
X137111428Y-76542380D01*
X137206666Y-76590000D01*
X137254285Y-76637619D01*
X137301904Y-76732857D01*
X137301904Y-76828095D01*
X137254285Y-76970952D01*
X136682857Y-77542380D01*
X137301904Y-77542380D01*
X123372380Y-79977857D02*
X122896190Y-80311190D01*
X123372380Y-80549285D02*
X122372380Y-80549285D01*
X122372380Y-80168333D01*
X122420000Y-80073095D01*
X122467619Y-80025476D01*
X122562857Y-79977857D01*
X122705714Y-79977857D01*
X122800952Y-80025476D01*
X122848571Y-80073095D01*
X122896190Y-80168333D01*
X122896190Y-80549285D01*
X123372380Y-79025476D02*
X123372380Y-79596904D01*
X123372380Y-79311190D02*
X122372380Y-79311190D01*
X122515238Y-79406428D01*
X122610476Y-79501666D01*
X122658095Y-79596904D01*
X122800952Y-78454047D02*
X122753333Y-78549285D01*
X122705714Y-78596904D01*
X122610476Y-78644523D01*
X122562857Y-78644523D01*
X122467619Y-78596904D01*
X122420000Y-78549285D01*
X122372380Y-78454047D01*
X122372380Y-78263571D01*
X122420000Y-78168333D01*
X122467619Y-78120714D01*
X122562857Y-78073095D01*
X122610476Y-78073095D01*
X122705714Y-78120714D01*
X122753333Y-78168333D01*
X122800952Y-78263571D01*
X122800952Y-78454047D01*
X122848571Y-78549285D01*
X122896190Y-78596904D01*
X122991428Y-78644523D01*
X123181904Y-78644523D01*
X123277142Y-78596904D01*
X123324761Y-78549285D01*
X123372380Y-78454047D01*
X123372380Y-78263571D01*
X123324761Y-78168333D01*
X123277142Y-78120714D01*
X123181904Y-78073095D01*
X122991428Y-78073095D01*
X122896190Y-78120714D01*
X122848571Y-78168333D01*
X122800952Y-78263571D01*
X159657142Y-81157142D02*
X159609523Y-81204761D01*
X159466666Y-81252380D01*
X159371428Y-81252380D01*
X159228571Y-81204761D01*
X159133333Y-81109523D01*
X159085714Y-81014285D01*
X159038095Y-80823809D01*
X159038095Y-80680952D01*
X159085714Y-80490476D01*
X159133333Y-80395238D01*
X159228571Y-80300000D01*
X159371428Y-80252380D01*
X159466666Y-80252380D01*
X159609523Y-80300000D01*
X159657142Y-80347619D01*
X160609523Y-81252380D02*
X160038095Y-81252380D01*
X160323809Y-81252380D02*
X160323809Y-80252380D01*
X160228571Y-80395238D01*
X160133333Y-80490476D01*
X160038095Y-80538095D01*
X161514285Y-80252380D02*
X161038095Y-80252380D01*
X160990476Y-80728571D01*
X161038095Y-80680952D01*
X161133333Y-80633333D01*
X161371428Y-80633333D01*
X161466666Y-80680952D01*
X161514285Y-80728571D01*
X161561904Y-80823809D01*
X161561904Y-81061904D01*
X161514285Y-81157142D01*
X161466666Y-81204761D01*
X161371428Y-81252380D01*
X161133333Y-81252380D01*
X161038095Y-81204761D01*
X160990476Y-81157142D01*
X181448333Y-121494880D02*
X181115000Y-121018690D01*
X180876904Y-121494880D02*
X180876904Y-120494880D01*
X181257857Y-120494880D01*
X181353095Y-120542500D01*
X181400714Y-120590119D01*
X181448333Y-120685357D01*
X181448333Y-120828214D01*
X181400714Y-120923452D01*
X181353095Y-120971071D01*
X181257857Y-121018690D01*
X180876904Y-121018690D01*
X182305476Y-120494880D02*
X182115000Y-120494880D01*
X182019761Y-120542500D01*
X181972142Y-120590119D01*
X181876904Y-120732976D01*
X181829285Y-120923452D01*
X181829285Y-121304404D01*
X181876904Y-121399642D01*
X181924523Y-121447261D01*
X182019761Y-121494880D01*
X182210238Y-121494880D01*
X182305476Y-121447261D01*
X182353095Y-121399642D01*
X182400714Y-121304404D01*
X182400714Y-121066309D01*
X182353095Y-120971071D01*
X182305476Y-120923452D01*
X182210238Y-120875833D01*
X182019761Y-120875833D01*
X181924523Y-120923452D01*
X181876904Y-120971071D01*
X181829285Y-121066309D01*
X134790476Y-105338571D02*
X134457142Y-105338571D01*
X134457142Y-105862380D02*
X134457142Y-104862380D01*
X134933333Y-104862380D01*
X135647619Y-105338571D02*
X135790476Y-105386190D01*
X135838095Y-105433809D01*
X135885714Y-105529047D01*
X135885714Y-105671904D01*
X135838095Y-105767142D01*
X135790476Y-105814761D01*
X135695238Y-105862380D01*
X135314285Y-105862380D01*
X135314285Y-104862380D01*
X135647619Y-104862380D01*
X135742857Y-104910000D01*
X135790476Y-104957619D01*
X135838095Y-105052857D01*
X135838095Y-105148095D01*
X135790476Y-105243333D01*
X135742857Y-105290952D01*
X135647619Y-105338571D01*
X135314285Y-105338571D01*
X136838095Y-105862380D02*
X136266666Y-105862380D01*
X136552380Y-105862380D02*
X136552380Y-104862380D01*
X136457142Y-105005238D01*
X136361904Y-105100476D01*
X136266666Y-105148095D01*
X137409523Y-105290952D02*
X137314285Y-105243333D01*
X137266666Y-105195714D01*
X137219047Y-105100476D01*
X137219047Y-105052857D01*
X137266666Y-104957619D01*
X137314285Y-104910000D01*
X137409523Y-104862380D01*
X137600000Y-104862380D01*
X137695238Y-104910000D01*
X137742857Y-104957619D01*
X137790476Y-105052857D01*
X137790476Y-105100476D01*
X137742857Y-105195714D01*
X137695238Y-105243333D01*
X137600000Y-105290952D01*
X137409523Y-105290952D01*
X137314285Y-105338571D01*
X137266666Y-105386190D01*
X137219047Y-105481428D01*
X137219047Y-105671904D01*
X137266666Y-105767142D01*
X137314285Y-105814761D01*
X137409523Y-105862380D01*
X137600000Y-105862380D01*
X137695238Y-105814761D01*
X137742857Y-105767142D01*
X137790476Y-105671904D01*
X137790476Y-105481428D01*
X137742857Y-105386190D01*
X137695238Y-105338571D01*
X137600000Y-105290952D01*
X127147142Y-128857142D02*
X127099523Y-128904761D01*
X126956666Y-128952380D01*
X126861428Y-128952380D01*
X126718571Y-128904761D01*
X126623333Y-128809523D01*
X126575714Y-128714285D01*
X126528095Y-128523809D01*
X126528095Y-128380952D01*
X126575714Y-128190476D01*
X126623333Y-128095238D01*
X126718571Y-128000000D01*
X126861428Y-127952380D01*
X126956666Y-127952380D01*
X127099523Y-128000000D01*
X127147142Y-128047619D01*
X128099523Y-128952380D02*
X127528095Y-128952380D01*
X127813809Y-128952380D02*
X127813809Y-127952380D01*
X127718571Y-128095238D01*
X127623333Y-128190476D01*
X127528095Y-128238095D01*
X128718571Y-127952380D02*
X128813809Y-127952380D01*
X128909047Y-128000000D01*
X128956666Y-128047619D01*
X129004285Y-128142857D01*
X129051904Y-128333333D01*
X129051904Y-128571428D01*
X129004285Y-128761904D01*
X128956666Y-128857142D01*
X128909047Y-128904761D01*
X128813809Y-128952380D01*
X128718571Y-128952380D01*
X128623333Y-128904761D01*
X128575714Y-128857142D01*
X128528095Y-128761904D01*
X128480476Y-128571428D01*
X128480476Y-128333333D01*
X128528095Y-128142857D01*
X128575714Y-128047619D01*
X128623333Y-128000000D01*
X128718571Y-127952380D01*
X125818571Y-87493333D02*
X125818571Y-87826666D01*
X126342380Y-87826666D02*
X125342380Y-87826666D01*
X125342380Y-87350476D01*
X125818571Y-86636190D02*
X125866190Y-86493333D01*
X125913809Y-86445714D01*
X126009047Y-86398095D01*
X126151904Y-86398095D01*
X126247142Y-86445714D01*
X126294761Y-86493333D01*
X126342380Y-86588571D01*
X126342380Y-86969523D01*
X125342380Y-86969523D01*
X125342380Y-86636190D01*
X125390000Y-86540952D01*
X125437619Y-86493333D01*
X125532857Y-86445714D01*
X125628095Y-86445714D01*
X125723333Y-86493333D01*
X125770952Y-86540952D01*
X125818571Y-86636190D01*
X125818571Y-86969523D01*
X126342380Y-85921904D02*
X126342380Y-85731428D01*
X126294761Y-85636190D01*
X126247142Y-85588571D01*
X126104285Y-85493333D01*
X125913809Y-85445714D01*
X125532857Y-85445714D01*
X125437619Y-85493333D01*
X125390000Y-85540952D01*
X125342380Y-85636190D01*
X125342380Y-85826666D01*
X125390000Y-85921904D01*
X125437619Y-85969523D01*
X125532857Y-86017142D01*
X125770952Y-86017142D01*
X125866190Y-85969523D01*
X125913809Y-85921904D01*
X125961428Y-85826666D01*
X125961428Y-85636190D01*
X125913809Y-85540952D01*
X125866190Y-85493333D01*
X125770952Y-85445714D01*
X141812380Y-83582857D02*
X141336190Y-83916190D01*
X141812380Y-84154285D02*
X140812380Y-84154285D01*
X140812380Y-83773333D01*
X140860000Y-83678095D01*
X140907619Y-83630476D01*
X141002857Y-83582857D01*
X141145714Y-83582857D01*
X141240952Y-83630476D01*
X141288571Y-83678095D01*
X141336190Y-83773333D01*
X141336190Y-84154285D01*
X140907619Y-83201904D02*
X140860000Y-83154285D01*
X140812380Y-83059047D01*
X140812380Y-82820952D01*
X140860000Y-82725714D01*
X140907619Y-82678095D01*
X141002857Y-82630476D01*
X141098095Y-82630476D01*
X141240952Y-82678095D01*
X141812380Y-83249523D01*
X141812380Y-82630476D01*
X140812380Y-82011428D02*
X140812380Y-81916190D01*
X140860000Y-81820952D01*
X140907619Y-81773333D01*
X141002857Y-81725714D01*
X141193333Y-81678095D01*
X141431428Y-81678095D01*
X141621904Y-81725714D01*
X141717142Y-81773333D01*
X141764761Y-81820952D01*
X141812380Y-81916190D01*
X141812380Y-82011428D01*
X141764761Y-82106666D01*
X141717142Y-82154285D01*
X141621904Y-82201904D01*
X141431428Y-82249523D01*
X141193333Y-82249523D01*
X141002857Y-82201904D01*
X140907619Y-82154285D01*
X140860000Y-82106666D01*
X140812380Y-82011428D01*
X123957142Y-82112380D02*
X123623809Y-81636190D01*
X123385714Y-82112380D02*
X123385714Y-81112380D01*
X123766666Y-81112380D01*
X123861904Y-81160000D01*
X123909523Y-81207619D01*
X123957142Y-81302857D01*
X123957142Y-81445714D01*
X123909523Y-81540952D01*
X123861904Y-81588571D01*
X123766666Y-81636190D01*
X123385714Y-81636190D01*
X124338095Y-81207619D02*
X124385714Y-81160000D01*
X124480952Y-81112380D01*
X124719047Y-81112380D01*
X124814285Y-81160000D01*
X124861904Y-81207619D01*
X124909523Y-81302857D01*
X124909523Y-81398095D01*
X124861904Y-81540952D01*
X124290476Y-82112380D01*
X124909523Y-82112380D01*
X125290476Y-81207619D02*
X125338095Y-81160000D01*
X125433333Y-81112380D01*
X125671428Y-81112380D01*
X125766666Y-81160000D01*
X125814285Y-81207619D01*
X125861904Y-81302857D01*
X125861904Y-81398095D01*
X125814285Y-81540952D01*
X125242857Y-82112380D01*
X125861904Y-82112380D01*
X146632380Y-124062857D02*
X146156190Y-124396190D01*
X146632380Y-124634285D02*
X145632380Y-124634285D01*
X145632380Y-124253333D01*
X145680000Y-124158095D01*
X145727619Y-124110476D01*
X145822857Y-124062857D01*
X145965714Y-124062857D01*
X146060952Y-124110476D01*
X146108571Y-124158095D01*
X146156190Y-124253333D01*
X146156190Y-124634285D01*
X146632380Y-123110476D02*
X146632380Y-123681904D01*
X146632380Y-123396190D02*
X145632380Y-123396190D01*
X145775238Y-123491428D01*
X145870476Y-123586666D01*
X145918095Y-123681904D01*
X145632380Y-122491428D02*
X145632380Y-122396190D01*
X145680000Y-122300952D01*
X145727619Y-122253333D01*
X145822857Y-122205714D01*
X146013333Y-122158095D01*
X146251428Y-122158095D01*
X146441904Y-122205714D01*
X146537142Y-122253333D01*
X146584761Y-122300952D01*
X146632380Y-122396190D01*
X146632380Y-122491428D01*
X146584761Y-122586666D01*
X146537142Y-122634285D01*
X146441904Y-122681904D01*
X146251428Y-122729523D01*
X146013333Y-122729523D01*
X145822857Y-122681904D01*
X145727619Y-122634285D01*
X145680000Y-122586666D01*
X145632380Y-122491428D01*
X158488571Y-91669523D02*
X158488571Y-92002857D01*
X159012380Y-92002857D02*
X158012380Y-92002857D01*
X158012380Y-91526666D01*
X158488571Y-90812380D02*
X158536190Y-90669523D01*
X158583809Y-90621904D01*
X158679047Y-90574285D01*
X158821904Y-90574285D01*
X158917142Y-90621904D01*
X158964761Y-90669523D01*
X159012380Y-90764761D01*
X159012380Y-91145714D01*
X158012380Y-91145714D01*
X158012380Y-90812380D01*
X158060000Y-90717142D01*
X158107619Y-90669523D01*
X158202857Y-90621904D01*
X158298095Y-90621904D01*
X158393333Y-90669523D01*
X158440952Y-90717142D01*
X158488571Y-90812380D01*
X158488571Y-91145714D01*
X159012380Y-89621904D02*
X159012380Y-90193333D01*
X159012380Y-89907619D02*
X158012380Y-89907619D01*
X158155238Y-90002857D01*
X158250476Y-90098095D01*
X158298095Y-90193333D01*
X158012380Y-89288571D02*
X158012380Y-88669523D01*
X158393333Y-89002857D01*
X158393333Y-88860000D01*
X158440952Y-88764761D01*
X158488571Y-88717142D01*
X158583809Y-88669523D01*
X158821904Y-88669523D01*
X158917142Y-88717142D01*
X158964761Y-88764761D01*
X159012380Y-88860000D01*
X159012380Y-89145714D01*
X158964761Y-89240952D01*
X158917142Y-89288571D01*
X131392380Y-79977857D02*
X130916190Y-80311190D01*
X131392380Y-80549285D02*
X130392380Y-80549285D01*
X130392380Y-80168333D01*
X130440000Y-80073095D01*
X130487619Y-80025476D01*
X130582857Y-79977857D01*
X130725714Y-79977857D01*
X130820952Y-80025476D01*
X130868571Y-80073095D01*
X130916190Y-80168333D01*
X130916190Y-80549285D01*
X131392380Y-79025476D02*
X131392380Y-79596904D01*
X131392380Y-79311190D02*
X130392380Y-79311190D01*
X130535238Y-79406428D01*
X130630476Y-79501666D01*
X130678095Y-79596904D01*
X131392380Y-78549285D02*
X131392380Y-78358809D01*
X131344761Y-78263571D01*
X131297142Y-78215952D01*
X131154285Y-78120714D01*
X130963809Y-78073095D01*
X130582857Y-78073095D01*
X130487619Y-78120714D01*
X130440000Y-78168333D01*
X130392380Y-78263571D01*
X130392380Y-78454047D01*
X130440000Y-78549285D01*
X130487619Y-78596904D01*
X130582857Y-78644523D01*
X130820952Y-78644523D01*
X130916190Y-78596904D01*
X130963809Y-78549285D01*
X131011428Y-78454047D01*
X131011428Y-78263571D01*
X130963809Y-78168333D01*
X130916190Y-78120714D01*
X130820952Y-78073095D01*
X142962142Y-85722380D02*
X142628809Y-85246190D01*
X142390714Y-85722380D02*
X142390714Y-84722380D01*
X142771666Y-84722380D01*
X142866904Y-84770000D01*
X142914523Y-84817619D01*
X142962142Y-84912857D01*
X142962142Y-85055714D01*
X142914523Y-85150952D01*
X142866904Y-85198571D01*
X142771666Y-85246190D01*
X142390714Y-85246190D01*
X143343095Y-84817619D02*
X143390714Y-84770000D01*
X143485952Y-84722380D01*
X143724047Y-84722380D01*
X143819285Y-84770000D01*
X143866904Y-84817619D01*
X143914523Y-84912857D01*
X143914523Y-85008095D01*
X143866904Y-85150952D01*
X143295476Y-85722380D01*
X143914523Y-85722380D01*
X144771666Y-85055714D02*
X144771666Y-85722380D01*
X144533571Y-84674761D02*
X144295476Y-85389047D01*
X144914523Y-85389047D01*
X133838571Y-87969523D02*
X133838571Y-88302857D01*
X134362380Y-88302857D02*
X133362380Y-88302857D01*
X133362380Y-87826666D01*
X133838571Y-87112380D02*
X133886190Y-86969523D01*
X133933809Y-86921904D01*
X134029047Y-86874285D01*
X134171904Y-86874285D01*
X134267142Y-86921904D01*
X134314761Y-86969523D01*
X134362380Y-87064761D01*
X134362380Y-87445714D01*
X133362380Y-87445714D01*
X133362380Y-87112380D01*
X133410000Y-87017142D01*
X133457619Y-86969523D01*
X133552857Y-86921904D01*
X133648095Y-86921904D01*
X133743333Y-86969523D01*
X133790952Y-87017142D01*
X133838571Y-87112380D01*
X133838571Y-87445714D01*
X134362380Y-85921904D02*
X134362380Y-86493333D01*
X134362380Y-86207619D02*
X133362380Y-86207619D01*
X133505238Y-86302857D01*
X133600476Y-86398095D01*
X133648095Y-86493333D01*
X133362380Y-85302857D02*
X133362380Y-85207619D01*
X133410000Y-85112380D01*
X133457619Y-85064761D01*
X133552857Y-85017142D01*
X133743333Y-84969523D01*
X133981428Y-84969523D01*
X134171904Y-85017142D01*
X134267142Y-85064761D01*
X134314761Y-85112380D01*
X134362380Y-85207619D01*
X134362380Y-85302857D01*
X134314761Y-85398095D01*
X134267142Y-85445714D01*
X134171904Y-85493333D01*
X133981428Y-85540952D01*
X133743333Y-85540952D01*
X133552857Y-85493333D01*
X133457619Y-85445714D01*
X133410000Y-85398095D01*
X133362380Y-85302857D01*
X132462142Y-124382380D02*
X132128809Y-123906190D01*
X131890714Y-124382380D02*
X131890714Y-123382380D01*
X132271666Y-123382380D01*
X132366904Y-123430000D01*
X132414523Y-123477619D01*
X132462142Y-123572857D01*
X132462142Y-123715714D01*
X132414523Y-123810952D01*
X132366904Y-123858571D01*
X132271666Y-123906190D01*
X131890714Y-123906190D01*
X133414523Y-124382380D02*
X132843095Y-124382380D01*
X133128809Y-124382380D02*
X133128809Y-123382380D01*
X133033571Y-123525238D01*
X132938333Y-123620476D01*
X132843095Y-123668095D01*
X134271666Y-123382380D02*
X134081190Y-123382380D01*
X133985952Y-123430000D01*
X133938333Y-123477619D01*
X133843095Y-123620476D01*
X133795476Y-123810952D01*
X133795476Y-124191904D01*
X133843095Y-124287142D01*
X133890714Y-124334761D01*
X133985952Y-124382380D01*
X134176428Y-124382380D01*
X134271666Y-124334761D01*
X134319285Y-124287142D01*
X134366904Y-124191904D01*
X134366904Y-123953809D01*
X134319285Y-123858571D01*
X134271666Y-123810952D01*
X134176428Y-123763333D01*
X133985952Y-123763333D01*
X133890714Y-123810952D01*
X133843095Y-123858571D01*
X133795476Y-123953809D01*
X149252380Y-83572857D02*
X148776190Y-83906190D01*
X149252380Y-84144285D02*
X148252380Y-84144285D01*
X148252380Y-83763333D01*
X148300000Y-83668095D01*
X148347619Y-83620476D01*
X148442857Y-83572857D01*
X148585714Y-83572857D01*
X148680952Y-83620476D01*
X148728571Y-83668095D01*
X148776190Y-83763333D01*
X148776190Y-84144285D01*
X148347619Y-83191904D02*
X148300000Y-83144285D01*
X148252380Y-83049047D01*
X148252380Y-82810952D01*
X148300000Y-82715714D01*
X148347619Y-82668095D01*
X148442857Y-82620476D01*
X148538095Y-82620476D01*
X148680952Y-82668095D01*
X149252380Y-83239523D01*
X149252380Y-82620476D01*
X149252380Y-81668095D02*
X149252380Y-82239523D01*
X149252380Y-81953809D02*
X148252380Y-81953809D01*
X148395238Y-82049047D01*
X148490476Y-82144285D01*
X148538095Y-82239523D01*
X168952380Y-123541666D02*
X168476190Y-123875000D01*
X168952380Y-124113095D02*
X167952380Y-124113095D01*
X167952380Y-123732142D01*
X168000000Y-123636904D01*
X168047619Y-123589285D01*
X168142857Y-123541666D01*
X168285714Y-123541666D01*
X168380952Y-123589285D01*
X168428571Y-123636904D01*
X168476190Y-123732142D01*
X168476190Y-124113095D01*
X168285714Y-122684523D02*
X168952380Y-122684523D01*
X167904761Y-122922619D02*
X168619047Y-123160714D01*
X168619047Y-122541666D01*
X156042380Y-83687857D02*
X155566190Y-84021190D01*
X156042380Y-84259285D02*
X155042380Y-84259285D01*
X155042380Y-83878333D01*
X155090000Y-83783095D01*
X155137619Y-83735476D01*
X155232857Y-83687857D01*
X155375714Y-83687857D01*
X155470952Y-83735476D01*
X155518571Y-83783095D01*
X155566190Y-83878333D01*
X155566190Y-84259285D01*
X155137619Y-83306904D02*
X155090000Y-83259285D01*
X155042380Y-83164047D01*
X155042380Y-82925952D01*
X155090000Y-82830714D01*
X155137619Y-82783095D01*
X155232857Y-82735476D01*
X155328095Y-82735476D01*
X155470952Y-82783095D01*
X156042380Y-83354523D01*
X156042380Y-82735476D01*
X155042380Y-81878333D02*
X155042380Y-82068809D01*
X155090000Y-82164047D01*
X155137619Y-82211666D01*
X155280476Y-82306904D01*
X155470952Y-82354523D01*
X155851904Y-82354523D01*
X155947142Y-82306904D01*
X155994761Y-82259285D01*
X156042380Y-82164047D01*
X156042380Y-81973571D01*
X155994761Y-81878333D01*
X155947142Y-81830714D01*
X155851904Y-81783095D01*
X155613809Y-81783095D01*
X155518571Y-81830714D01*
X155470952Y-81878333D01*
X155423333Y-81973571D01*
X155423333Y-82164047D01*
X155470952Y-82259285D01*
X155518571Y-82306904D01*
X155613809Y-82354523D01*
X169573571Y-91669523D02*
X169573571Y-92002857D01*
X170097380Y-92002857D02*
X169097380Y-92002857D01*
X169097380Y-91526666D01*
X169573571Y-90812380D02*
X169621190Y-90669523D01*
X169668809Y-90621904D01*
X169764047Y-90574285D01*
X169906904Y-90574285D01*
X170002142Y-90621904D01*
X170049761Y-90669523D01*
X170097380Y-90764761D01*
X170097380Y-91145714D01*
X169097380Y-91145714D01*
X169097380Y-90812380D01*
X169145000Y-90717142D01*
X169192619Y-90669523D01*
X169287857Y-90621904D01*
X169383095Y-90621904D01*
X169478333Y-90669523D01*
X169525952Y-90717142D01*
X169573571Y-90812380D01*
X169573571Y-91145714D01*
X170097380Y-89621904D02*
X170097380Y-90193333D01*
X170097380Y-89907619D02*
X169097380Y-89907619D01*
X169240238Y-90002857D01*
X169335476Y-90098095D01*
X169383095Y-90193333D01*
X169430714Y-88764761D02*
X170097380Y-88764761D01*
X169049761Y-89002857D02*
X169764047Y-89240952D01*
X169764047Y-88621904D01*
X134933333Y-128857142D02*
X134885714Y-128904761D01*
X134742857Y-128952380D01*
X134647619Y-128952380D01*
X134504761Y-128904761D01*
X134409523Y-128809523D01*
X134361904Y-128714285D01*
X134314285Y-128523809D01*
X134314285Y-128380952D01*
X134361904Y-128190476D01*
X134409523Y-128095238D01*
X134504761Y-128000000D01*
X134647619Y-127952380D01*
X134742857Y-127952380D01*
X134885714Y-128000000D01*
X134933333Y-128047619D01*
X135409523Y-128952380D02*
X135600000Y-128952380D01*
X135695238Y-128904761D01*
X135742857Y-128857142D01*
X135838095Y-128714285D01*
X135885714Y-128523809D01*
X135885714Y-128142857D01*
X135838095Y-128047619D01*
X135790476Y-128000000D01*
X135695238Y-127952380D01*
X135504761Y-127952380D01*
X135409523Y-128000000D01*
X135361904Y-128047619D01*
X135314285Y-128142857D01*
X135314285Y-128380952D01*
X135361904Y-128476190D01*
X135409523Y-128523809D01*
X135504761Y-128571428D01*
X135695238Y-128571428D01*
X135790476Y-128523809D01*
X135838095Y-128476190D01*
X135885714Y-128380952D01*
X177058333Y-126952142D02*
X177010714Y-126999761D01*
X176867857Y-127047380D01*
X176772619Y-127047380D01*
X176629761Y-126999761D01*
X176534523Y-126904523D01*
X176486904Y-126809285D01*
X176439285Y-126618809D01*
X176439285Y-126475952D01*
X176486904Y-126285476D01*
X176534523Y-126190238D01*
X176629761Y-126095000D01*
X176772619Y-126047380D01*
X176867857Y-126047380D01*
X177010714Y-126095000D01*
X177058333Y-126142619D01*
X178010714Y-127047380D02*
X177439285Y-127047380D01*
X177725000Y-127047380D02*
X177725000Y-126047380D01*
X177629761Y-126190238D01*
X177534523Y-126285476D01*
X177439285Y-126333095D01*
X167252380Y-83697857D02*
X166776190Y-84031190D01*
X167252380Y-84269285D02*
X166252380Y-84269285D01*
X166252380Y-83888333D01*
X166300000Y-83793095D01*
X166347619Y-83745476D01*
X166442857Y-83697857D01*
X166585714Y-83697857D01*
X166680952Y-83745476D01*
X166728571Y-83793095D01*
X166776190Y-83888333D01*
X166776190Y-84269285D01*
X166347619Y-83316904D02*
X166300000Y-83269285D01*
X166252380Y-83174047D01*
X166252380Y-82935952D01*
X166300000Y-82840714D01*
X166347619Y-82793095D01*
X166442857Y-82745476D01*
X166538095Y-82745476D01*
X166680952Y-82793095D01*
X167252380Y-83364523D01*
X167252380Y-82745476D01*
X166252380Y-82412142D02*
X166252380Y-81745476D01*
X167252380Y-82174047D01*
X149123571Y-116833333D02*
X149123571Y-117166666D01*
X149647380Y-117166666D02*
X148647380Y-117166666D01*
X148647380Y-116690476D01*
X149123571Y-115976190D02*
X149171190Y-115833333D01*
X149218809Y-115785714D01*
X149314047Y-115738095D01*
X149456904Y-115738095D01*
X149552142Y-115785714D01*
X149599761Y-115833333D01*
X149647380Y-115928571D01*
X149647380Y-116309523D01*
X148647380Y-116309523D01*
X148647380Y-115976190D01*
X148695000Y-115880952D01*
X148742619Y-115833333D01*
X148837857Y-115785714D01*
X148933095Y-115785714D01*
X149028333Y-115833333D01*
X149075952Y-115880952D01*
X149123571Y-115976190D01*
X149123571Y-116309523D01*
X148647380Y-114833333D02*
X148647380Y-115309523D01*
X149123571Y-115357142D01*
X149075952Y-115309523D01*
X149028333Y-115214285D01*
X149028333Y-114976190D01*
X149075952Y-114880952D01*
X149123571Y-114833333D01*
X149218809Y-114785714D01*
X149456904Y-114785714D01*
X149552142Y-114833333D01*
X149599761Y-114880952D01*
X149647380Y-114976190D01*
X149647380Y-115214285D01*
X149599761Y-115309523D01*
X149552142Y-115357142D01*
X166627142Y-85852380D02*
X166293809Y-85376190D01*
X166055714Y-85852380D02*
X166055714Y-84852380D01*
X166436666Y-84852380D01*
X166531904Y-84900000D01*
X166579523Y-84947619D01*
X166627142Y-85042857D01*
X166627142Y-85185714D01*
X166579523Y-85280952D01*
X166531904Y-85328571D01*
X166436666Y-85376190D01*
X166055714Y-85376190D01*
X166960476Y-84852380D02*
X167579523Y-84852380D01*
X167246190Y-85233333D01*
X167389047Y-85233333D01*
X167484285Y-85280952D01*
X167531904Y-85328571D01*
X167579523Y-85423809D01*
X167579523Y-85661904D01*
X167531904Y-85757142D01*
X167484285Y-85804761D01*
X167389047Y-85852380D01*
X167103333Y-85852380D01*
X167008095Y-85804761D01*
X166960476Y-85757142D01*
X168531904Y-85852380D02*
X167960476Y-85852380D01*
X168246190Y-85852380D02*
X168246190Y-84852380D01*
X168150952Y-84995238D01*
X168055714Y-85090476D01*
X167960476Y-85138095D01*
X163433333Y-126082142D02*
X163385714Y-126129761D01*
X163242857Y-126177380D01*
X163147619Y-126177380D01*
X163004761Y-126129761D01*
X162909523Y-126034523D01*
X162861904Y-125939285D01*
X162814285Y-125748809D01*
X162814285Y-125605952D01*
X162861904Y-125415476D01*
X162909523Y-125320238D01*
X163004761Y-125225000D01*
X163147619Y-125177380D01*
X163242857Y-125177380D01*
X163385714Y-125225000D01*
X163433333Y-125272619D01*
X164338095Y-125177380D02*
X163861904Y-125177380D01*
X163814285Y-125653571D01*
X163861904Y-125605952D01*
X163957142Y-125558333D01*
X164195238Y-125558333D01*
X164290476Y-125605952D01*
X164338095Y-125653571D01*
X164385714Y-125748809D01*
X164385714Y-125986904D01*
X164338095Y-126082142D01*
X164290476Y-126129761D01*
X164195238Y-126177380D01*
X163957142Y-126177380D01*
X163861904Y-126129761D01*
X163814285Y-126082142D01*
X179238095Y-106148000D02*
X179142857Y-106100380D01*
X179000000Y-106100380D01*
X178857142Y-106148000D01*
X178761904Y-106243238D01*
X178714285Y-106338476D01*
X178666666Y-106528952D01*
X178666666Y-106671809D01*
X178714285Y-106862285D01*
X178761904Y-106957523D01*
X178857142Y-107052761D01*
X179000000Y-107100380D01*
X179095238Y-107100380D01*
X179238095Y-107052761D01*
X179285714Y-107005142D01*
X179285714Y-106671809D01*
X179095238Y-106671809D01*
X179714285Y-107100380D02*
X179714285Y-106100380D01*
X180285714Y-107100380D01*
X180285714Y-106100380D01*
X180761904Y-107100380D02*
X180761904Y-106100380D01*
X181000000Y-106100380D01*
X181142857Y-106148000D01*
X181238095Y-106243238D01*
X181285714Y-106338476D01*
X181333333Y-106528952D01*
X181333333Y-106671809D01*
X181285714Y-106862285D01*
X181238095Y-106957523D01*
X181142857Y-107052761D01*
X181000000Y-107100380D01*
X180761904Y-107100380D01*
X179542380Y-102933333D02*
X178542380Y-102933333D01*
X178542380Y-102552380D01*
X178590000Y-102457142D01*
X178637619Y-102409523D01*
X178732857Y-102361904D01*
X178875714Y-102361904D01*
X178970952Y-102409523D01*
X179018571Y-102457142D01*
X179066190Y-102552380D01*
X179066190Y-102933333D01*
X179542380Y-101790476D02*
X179494761Y-101885714D01*
X179447142Y-101933333D01*
X179351904Y-101980952D01*
X179066190Y-101980952D01*
X178970952Y-101933333D01*
X178923333Y-101885714D01*
X178875714Y-101790476D01*
X178875714Y-101647619D01*
X178923333Y-101552380D01*
X178970952Y-101504761D01*
X179066190Y-101457142D01*
X179351904Y-101457142D01*
X179447142Y-101504761D01*
X179494761Y-101552380D01*
X179542380Y-101647619D01*
X179542380Y-101790476D01*
X178875714Y-101123809D02*
X179542380Y-100933333D01*
X179066190Y-100742857D01*
X179542380Y-100552380D01*
X178875714Y-100361904D01*
X179494761Y-99600000D02*
X179542380Y-99695238D01*
X179542380Y-99885714D01*
X179494761Y-99980952D01*
X179399523Y-100028571D01*
X179018571Y-100028571D01*
X178923333Y-99980952D01*
X178875714Y-99885714D01*
X178875714Y-99695238D01*
X178923333Y-99600000D01*
X179018571Y-99552380D01*
X179113809Y-99552380D01*
X179209047Y-100028571D01*
X179542380Y-99123809D02*
X178875714Y-99123809D01*
X179066190Y-99123809D02*
X178970952Y-99076190D01*
X178923333Y-99028571D01*
X178875714Y-98933333D01*
X178875714Y-98838095D01*
X179542380Y-98028571D02*
X179542380Y-98504761D01*
X178542380Y-98504761D01*
X179018571Y-97695238D02*
X179018571Y-97361904D01*
X179542380Y-97219047D02*
X179542380Y-97695238D01*
X178542380Y-97695238D01*
X178542380Y-97219047D01*
X179542380Y-96790476D02*
X178542380Y-96790476D01*
X178542380Y-96552380D01*
X178590000Y-96409523D01*
X178685238Y-96314285D01*
X178780476Y-96266666D01*
X178970952Y-96219047D01*
X179113809Y-96219047D01*
X179304285Y-96266666D01*
X179399523Y-96314285D01*
X179494761Y-96409523D01*
X179542380Y-96552380D01*
X179542380Y-96790476D01*
X178798333Y-126057142D02*
X178750714Y-126104761D01*
X178607857Y-126152380D01*
X178512619Y-126152380D01*
X178369761Y-126104761D01*
X178274523Y-126009523D01*
X178226904Y-125914285D01*
X178179285Y-125723809D01*
X178179285Y-125580952D01*
X178226904Y-125390476D01*
X178274523Y-125295238D01*
X178369761Y-125200000D01*
X178512619Y-125152380D01*
X178607857Y-125152380D01*
X178750714Y-125200000D01*
X178798333Y-125247619D01*
X179131666Y-125152380D02*
X179750714Y-125152380D01*
X179417380Y-125533333D01*
X179560238Y-125533333D01*
X179655476Y-125580952D01*
X179703095Y-125628571D01*
X179750714Y-125723809D01*
X179750714Y-125961904D01*
X179703095Y-126057142D01*
X179655476Y-126104761D01*
X179560238Y-126152380D01*
X179274523Y-126152380D01*
X179179285Y-126104761D01*
X179131666Y-126057142D01*
X151698571Y-91669523D02*
X151698571Y-92002857D01*
X152222380Y-92002857D02*
X151222380Y-92002857D01*
X151222380Y-91526666D01*
X151698571Y-90812380D02*
X151746190Y-90669523D01*
X151793809Y-90621904D01*
X151889047Y-90574285D01*
X152031904Y-90574285D01*
X152127142Y-90621904D01*
X152174761Y-90669523D01*
X152222380Y-90764761D01*
X152222380Y-91145714D01*
X151222380Y-91145714D01*
X151222380Y-90812380D01*
X151270000Y-90717142D01*
X151317619Y-90669523D01*
X151412857Y-90621904D01*
X151508095Y-90621904D01*
X151603333Y-90669523D01*
X151650952Y-90717142D01*
X151698571Y-90812380D01*
X151698571Y-91145714D01*
X152222380Y-89621904D02*
X152222380Y-90193333D01*
X152222380Y-89907619D02*
X151222380Y-89907619D01*
X151365238Y-90002857D01*
X151460476Y-90098095D01*
X151508095Y-90193333D01*
X151317619Y-89240952D02*
X151270000Y-89193333D01*
X151222380Y-89098095D01*
X151222380Y-88860000D01*
X151270000Y-88764761D01*
X151317619Y-88717142D01*
X151412857Y-88669523D01*
X151508095Y-88669523D01*
X151650952Y-88717142D01*
X152222380Y-89288571D01*
X152222380Y-88669523D01*
X153752380Y-123556666D02*
X153276190Y-123890000D01*
X153752380Y-124128095D02*
X152752380Y-124128095D01*
X152752380Y-123747142D01*
X152800000Y-123651904D01*
X152847619Y-123604285D01*
X152942857Y-123556666D01*
X153085714Y-123556666D01*
X153180952Y-123604285D01*
X153228571Y-123651904D01*
X153276190Y-123747142D01*
X153276190Y-124128095D01*
X152752380Y-122651904D02*
X152752380Y-123128095D01*
X153228571Y-123175714D01*
X153180952Y-123128095D01*
X153133333Y-123032857D01*
X153133333Y-122794761D01*
X153180952Y-122699523D01*
X153228571Y-122651904D01*
X153323809Y-122604285D01*
X153561904Y-122604285D01*
X153657142Y-122651904D01*
X153704761Y-122699523D01*
X153752380Y-122794761D01*
X153752380Y-123032857D01*
X153704761Y-123128095D01*
X153657142Y-123175714D01*
X150407142Y-85722380D02*
X150073809Y-85246190D01*
X149835714Y-85722380D02*
X149835714Y-84722380D01*
X150216666Y-84722380D01*
X150311904Y-84770000D01*
X150359523Y-84817619D01*
X150407142Y-84912857D01*
X150407142Y-85055714D01*
X150359523Y-85150952D01*
X150311904Y-85198571D01*
X150216666Y-85246190D01*
X149835714Y-85246190D01*
X150788095Y-84817619D02*
X150835714Y-84770000D01*
X150930952Y-84722380D01*
X151169047Y-84722380D01*
X151264285Y-84770000D01*
X151311904Y-84817619D01*
X151359523Y-84912857D01*
X151359523Y-85008095D01*
X151311904Y-85150952D01*
X150740476Y-85722380D01*
X151359523Y-85722380D01*
X152264285Y-84722380D02*
X151788095Y-84722380D01*
X151740476Y-85198571D01*
X151788095Y-85150952D01*
X151883333Y-85103333D01*
X152121428Y-85103333D01*
X152216666Y-85150952D01*
X152264285Y-85198571D01*
X152311904Y-85293809D01*
X152311904Y-85531904D01*
X152264285Y-85627142D01*
X152216666Y-85674761D01*
X152121428Y-85722380D01*
X151883333Y-85722380D01*
X151788095Y-85674761D01*
X151740476Y-85627142D01*
X122718571Y-119753333D02*
X122718571Y-120086666D01*
X123242380Y-120086666D02*
X122242380Y-120086666D01*
X122242380Y-119610476D01*
X122718571Y-118896190D02*
X122766190Y-118753333D01*
X122813809Y-118705714D01*
X122909047Y-118658095D01*
X123051904Y-118658095D01*
X123147142Y-118705714D01*
X123194761Y-118753333D01*
X123242380Y-118848571D01*
X123242380Y-119229523D01*
X122242380Y-119229523D01*
X122242380Y-118896190D01*
X122290000Y-118800952D01*
X122337619Y-118753333D01*
X122432857Y-118705714D01*
X122528095Y-118705714D01*
X122623333Y-118753333D01*
X122670952Y-118800952D01*
X122718571Y-118896190D01*
X122718571Y-119229523D01*
X122670952Y-118086666D02*
X122623333Y-118181904D01*
X122575714Y-118229523D01*
X122480476Y-118277142D01*
X122432857Y-118277142D01*
X122337619Y-118229523D01*
X122290000Y-118181904D01*
X122242380Y-118086666D01*
X122242380Y-117896190D01*
X122290000Y-117800952D01*
X122337619Y-117753333D01*
X122432857Y-117705714D01*
X122480476Y-117705714D01*
X122575714Y-117753333D01*
X122623333Y-117800952D01*
X122670952Y-117896190D01*
X122670952Y-118086666D01*
X122718571Y-118181904D01*
X122766190Y-118229523D01*
X122861428Y-118277142D01*
X123051904Y-118277142D01*
X123147142Y-118229523D01*
X123194761Y-118181904D01*
X123242380Y-118086666D01*
X123242380Y-117896190D01*
X123194761Y-117800952D01*
X123147142Y-117753333D01*
X123051904Y-117705714D01*
X122861428Y-117705714D01*
X122766190Y-117753333D01*
X122718571Y-117800952D01*
X122670952Y-117896190D01*
X145612142Y-81052142D02*
X145564523Y-81099761D01*
X145421666Y-81147380D01*
X145326428Y-81147380D01*
X145183571Y-81099761D01*
X145088333Y-81004523D01*
X145040714Y-80909285D01*
X144993095Y-80718809D01*
X144993095Y-80575952D01*
X145040714Y-80385476D01*
X145088333Y-80290238D01*
X145183571Y-80195000D01*
X145326428Y-80147380D01*
X145421666Y-80147380D01*
X145564523Y-80195000D01*
X145612142Y-80242619D01*
X146564523Y-81147380D02*
X145993095Y-81147380D01*
X146278809Y-81147380D02*
X146278809Y-80147380D01*
X146183571Y-80290238D01*
X146088333Y-80385476D01*
X145993095Y-80433095D01*
X146897857Y-80147380D02*
X147516904Y-80147380D01*
X147183571Y-80528333D01*
X147326428Y-80528333D01*
X147421666Y-80575952D01*
X147469285Y-80623571D01*
X147516904Y-80718809D01*
X147516904Y-80956904D01*
X147469285Y-81052142D01*
X147421666Y-81099761D01*
X147326428Y-81147380D01*
X147040714Y-81147380D01*
X146945476Y-81099761D01*
X146897857Y-81052142D01*
X181552380Y-83787857D02*
X181076190Y-84121190D01*
X181552380Y-84359285D02*
X180552380Y-84359285D01*
X180552380Y-83978333D01*
X180600000Y-83883095D01*
X180647619Y-83835476D01*
X180742857Y-83787857D01*
X180885714Y-83787857D01*
X180980952Y-83835476D01*
X181028571Y-83883095D01*
X181076190Y-83978333D01*
X181076190Y-84359285D01*
X180647619Y-83406904D02*
X180600000Y-83359285D01*
X180552380Y-83264047D01*
X180552380Y-83025952D01*
X180600000Y-82930714D01*
X180647619Y-82883095D01*
X180742857Y-82835476D01*
X180838095Y-82835476D01*
X180980952Y-82883095D01*
X181552380Y-83454523D01*
X181552380Y-82835476D01*
X181552380Y-82359285D02*
X181552380Y-82168809D01*
X181504761Y-82073571D01*
X181457142Y-82025952D01*
X181314285Y-81930714D01*
X181123809Y-81883095D01*
X180742857Y-81883095D01*
X180647619Y-81930714D01*
X180600000Y-81978333D01*
X180552380Y-82073571D01*
X180552380Y-82264047D01*
X180600000Y-82359285D01*
X180647619Y-82406904D01*
X180742857Y-82454523D01*
X180980952Y-82454523D01*
X181076190Y-82406904D01*
X181123809Y-82359285D01*
X181171428Y-82264047D01*
X181171428Y-82073571D01*
X181123809Y-81978333D01*
X181076190Y-81930714D01*
X180980952Y-81883095D01*
X173672142Y-85852380D02*
X173338809Y-85376190D01*
X173100714Y-85852380D02*
X173100714Y-84852380D01*
X173481666Y-84852380D01*
X173576904Y-84900000D01*
X173624523Y-84947619D01*
X173672142Y-85042857D01*
X173672142Y-85185714D01*
X173624523Y-85280952D01*
X173576904Y-85328571D01*
X173481666Y-85376190D01*
X173100714Y-85376190D01*
X174005476Y-84852380D02*
X174624523Y-84852380D01*
X174291190Y-85233333D01*
X174434047Y-85233333D01*
X174529285Y-85280952D01*
X174576904Y-85328571D01*
X174624523Y-85423809D01*
X174624523Y-85661904D01*
X174576904Y-85757142D01*
X174529285Y-85804761D01*
X174434047Y-85852380D01*
X174148333Y-85852380D01*
X174053095Y-85804761D01*
X174005476Y-85757142D01*
X175005476Y-84947619D02*
X175053095Y-84900000D01*
X175148333Y-84852380D01*
X175386428Y-84852380D01*
X175481666Y-84900000D01*
X175529285Y-84947619D01*
X175576904Y-85042857D01*
X175576904Y-85138095D01*
X175529285Y-85280952D01*
X174957857Y-85852380D01*
X175576904Y-85852380D01*
X157853333Y-125957142D02*
X157805714Y-126004761D01*
X157662857Y-126052380D01*
X157567619Y-126052380D01*
X157424761Y-126004761D01*
X157329523Y-125909523D01*
X157281904Y-125814285D01*
X157234285Y-125623809D01*
X157234285Y-125480952D01*
X157281904Y-125290476D01*
X157329523Y-125195238D01*
X157424761Y-125100000D01*
X157567619Y-125052380D01*
X157662857Y-125052380D01*
X157805714Y-125100000D01*
X157853333Y-125147619D01*
X158710476Y-125052380D02*
X158520000Y-125052380D01*
X158424761Y-125100000D01*
X158377142Y-125147619D01*
X158281904Y-125290476D01*
X158234285Y-125480952D01*
X158234285Y-125861904D01*
X158281904Y-125957142D01*
X158329523Y-126004761D01*
X158424761Y-126052380D01*
X158615238Y-126052380D01*
X158710476Y-126004761D01*
X158758095Y-125957142D01*
X158805714Y-125861904D01*
X158805714Y-125623809D01*
X158758095Y-125528571D01*
X158710476Y-125480952D01*
X158615238Y-125433333D01*
X158424761Y-125433333D01*
X158329523Y-125480952D01*
X158281904Y-125528571D01*
X158234285Y-125623809D01*
X122462380Y-103383333D02*
X123176666Y-103383333D01*
X123319523Y-103430952D01*
X123414761Y-103526190D01*
X123462380Y-103669047D01*
X123462380Y-103764285D01*
X122462380Y-103002380D02*
X122462380Y-102383333D01*
X122843333Y-102716666D01*
X122843333Y-102573809D01*
X122890952Y-102478571D01*
X122938571Y-102430952D01*
X123033809Y-102383333D01*
X123271904Y-102383333D01*
X123367142Y-102430952D01*
X123414761Y-102478571D01*
X123462380Y-102573809D01*
X123462380Y-102859523D01*
X123414761Y-102954761D01*
X123367142Y-103002380D01*
X141078571Y-116833333D02*
X141078571Y-117166666D01*
X141602380Y-117166666D02*
X140602380Y-117166666D01*
X140602380Y-116690476D01*
X141078571Y-115976190D02*
X141126190Y-115833333D01*
X141173809Y-115785714D01*
X141269047Y-115738095D01*
X141411904Y-115738095D01*
X141507142Y-115785714D01*
X141554761Y-115833333D01*
X141602380Y-115928571D01*
X141602380Y-116309523D01*
X140602380Y-116309523D01*
X140602380Y-115976190D01*
X140650000Y-115880952D01*
X140697619Y-115833333D01*
X140792857Y-115785714D01*
X140888095Y-115785714D01*
X140983333Y-115833333D01*
X141030952Y-115880952D01*
X141078571Y-115976190D01*
X141078571Y-116309523D01*
X140602380Y-114880952D02*
X140602380Y-115071428D01*
X140650000Y-115166666D01*
X140697619Y-115214285D01*
X140840476Y-115309523D01*
X141030952Y-115357142D01*
X141411904Y-115357142D01*
X141507142Y-115309523D01*
X141554761Y-115261904D01*
X141602380Y-115166666D01*
X141602380Y-114976190D01*
X141554761Y-114880952D01*
X141507142Y-114833333D01*
X141411904Y-114785714D01*
X141173809Y-114785714D01*
X141078571Y-114833333D01*
X141030952Y-114880952D01*
X140983333Y-114976190D01*
X140983333Y-115166666D01*
X141030952Y-115261904D01*
X141078571Y-115309523D01*
X141173809Y-115357142D01*
D12*
X149270000Y-79330000D02*
X172190000Y-79330000D01*
X148000000Y-79330000D02*
X146670000Y-79330000D01*
X149270000Y-79330000D02*
X149270000Y-76670000D01*
X146670000Y-79330000D02*
X146670000Y-78000000D01*
X172190000Y-79330000D02*
X172190000Y-76670000D01*
X149270000Y-76670000D02*
X172190000Y-76670000D01*
X170830000Y-126670000D02*
X172160000Y-126670000D01*
X146640000Y-126670000D02*
X146640000Y-129330000D01*
X169560000Y-126670000D02*
X169560000Y-129330000D01*
X169560000Y-129330000D02*
X146640000Y-129330000D01*
X172160000Y-126670000D02*
X172160000Y-128000000D01*
X169560000Y-126670000D02*
X146640000Y-126670000D01*
X124910276Y-121947500D02*
X125419724Y-121947500D01*
X124910276Y-122992500D02*
X125419724Y-122992500D01*
X132935276Y-82567500D02*
X133444724Y-82567500D01*
X132935276Y-83612500D02*
X133444724Y-83612500D01*
X136520242Y-91300000D02*
X135699758Y-91300000D01*
X136520242Y-92420000D02*
X135699758Y-92420000D01*
X157575276Y-87222500D02*
X158084724Y-87222500D01*
X157575276Y-86177500D02*
X158084724Y-86177500D01*
X148175276Y-120152500D02*
X148684724Y-120152500D01*
X148175276Y-119107500D02*
X148684724Y-119107500D01*
X154170000Y-116410242D02*
X154170000Y-115589758D01*
X155290000Y-116410242D02*
X155290000Y-115589758D01*
X139017500Y-123589724D02*
X139017500Y-123080276D01*
X140062500Y-123589724D02*
X140062500Y-123080276D01*
X181892500Y-123604724D02*
X181892500Y-123095276D01*
X182937500Y-123604724D02*
X182937500Y-123095276D01*
X166479724Y-119002500D02*
X165970276Y-119002500D01*
X166479724Y-120047500D02*
X165970276Y-120047500D01*
X181780000Y-89949758D02*
X181780000Y-90770242D01*
X182900000Y-89949758D02*
X182900000Y-90770242D01*
X131725000Y-119330242D02*
X131725000Y-118509758D01*
X132845000Y-119330242D02*
X132845000Y-118509758D01*
X181769724Y-86177500D02*
X181260276Y-86177500D01*
X181769724Y-87222500D02*
X181260276Y-87222500D01*
X178718733Y-82880000D02*
X179011267Y-82880000D01*
X178718733Y-81860000D02*
X179011267Y-81860000D01*
X132807500Y-126564724D02*
X132807500Y-126055276D01*
X131762500Y-126564724D02*
X131762500Y-126055276D01*
X164473733Y-81770000D02*
X164766267Y-81770000D01*
X164473733Y-82790000D02*
X164766267Y-82790000D01*
X142220000Y-89949758D02*
X142220000Y-90770242D01*
X143340000Y-89949758D02*
X143340000Y-90770242D01*
X153406267Y-81660000D02*
X153113733Y-81660000D01*
X153406267Y-82680000D02*
X153113733Y-82680000D01*
X155285276Y-120082500D02*
X155794724Y-120082500D01*
X155285276Y-119037500D02*
X155794724Y-119037500D01*
X123817500Y-126549724D02*
X123817500Y-126040276D01*
X124862500Y-126549724D02*
X124862500Y-126040276D01*
X180005000Y-97042936D02*
X180005000Y-97497064D01*
X181475000Y-97042936D02*
X181475000Y-97497064D01*
G36*
X114493943Y-72811519D02*
G01*
X116108301Y-72865694D01*
X117876221Y-72951670D01*
X119796529Y-73069530D01*
X120062000Y-73087520D01*
X120714946Y-73133537D01*
X121405556Y-73184459D01*
X122083333Y-73236410D01*
X122697778Y-73285512D01*
X123198393Y-73327887D01*
X123237000Y-73331315D01*
X124507000Y-73444658D01*
X122602000Y-73390424D01*
X121785080Y-73370589D01*
X120899053Y-73355181D01*
X119963882Y-73344091D01*
X118999527Y-73337214D01*
X118025950Y-73334442D01*
X117063113Y-73335668D01*
X116130978Y-73340784D01*
X115249507Y-73349685D01*
X114438660Y-73362261D01*
X113718401Y-73378408D01*
X113108690Y-73398016D01*
X112629489Y-73420980D01*
X112315000Y-73445624D01*
X111340440Y-73565282D01*
X110527746Y-73698061D01*
X109869780Y-73846501D01*
X109359406Y-74013140D01*
X108989487Y-74200518D01*
X108752886Y-74411175D01*
X108642467Y-74647650D01*
X108632000Y-74756046D01*
X108681925Y-74998681D01*
X108802500Y-75242744D01*
X108807099Y-75249287D01*
X108905263Y-75401411D01*
X108915725Y-75469491D01*
X108825276Y-75450860D01*
X108620705Y-75342854D01*
X108293334Y-75145602D01*
X107864626Y-74855795D01*
X107500792Y-74561039D01*
X107228285Y-74285789D01*
X107073559Y-74054500D01*
X107054892Y-74000735D01*
X107068979Y-73741427D01*
X107248382Y-73513097D01*
X107591926Y-73315825D01*
X108098435Y-73149696D01*
X108766734Y-73014791D01*
X109595647Y-72911193D01*
X110584000Y-72838984D01*
X111730618Y-72798247D01*
X113034323Y-72789065D01*
X114493943Y-72811519D01*
G37*
D13*
X114493943Y-72811519D02*
X116108301Y-72865694D01*
X117876221Y-72951670D01*
X119796529Y-73069530D01*
X120062000Y-73087520D01*
X120714946Y-73133537D01*
X121405556Y-73184459D01*
X122083333Y-73236410D01*
X122697778Y-73285512D01*
X123198393Y-73327887D01*
X123237000Y-73331315D01*
X124507000Y-73444658D01*
X122602000Y-73390424D01*
X121785080Y-73370589D01*
X120899053Y-73355181D01*
X119963882Y-73344091D01*
X118999527Y-73337214D01*
X118025950Y-73334442D01*
X117063113Y-73335668D01*
X116130978Y-73340784D01*
X115249507Y-73349685D01*
X114438660Y-73362261D01*
X113718401Y-73378408D01*
X113108690Y-73398016D01*
X112629489Y-73420980D01*
X112315000Y-73445624D01*
X111340440Y-73565282D01*
X110527746Y-73698061D01*
X109869780Y-73846501D01*
X109359406Y-74013140D01*
X108989487Y-74200518D01*
X108752886Y-74411175D01*
X108642467Y-74647650D01*
X108632000Y-74756046D01*
X108681925Y-74998681D01*
X108802500Y-75242744D01*
X108807099Y-75249287D01*
X108905263Y-75401411D01*
X108915725Y-75469491D01*
X108825276Y-75450860D01*
X108620705Y-75342854D01*
X108293334Y-75145602D01*
X107864626Y-74855795D01*
X107500792Y-74561039D01*
X107228285Y-74285789D01*
X107073559Y-74054500D01*
X107054892Y-74000735D01*
X107068979Y-73741427D01*
X107248382Y-73513097D01*
X107591926Y-73315825D01*
X108098435Y-73149696D01*
X108766734Y-73014791D01*
X109595647Y-72911193D01*
X110584000Y-72838984D01*
X111730618Y-72798247D01*
X113034323Y-72789065D01*
X114493943Y-72811519D01*
G36*
X116438417Y-75015170D02*
G01*
X116254990Y-75149484D01*
X115984708Y-75333905D01*
X115656558Y-75549617D01*
X115299526Y-75777805D01*
X114942599Y-75999652D01*
X114614765Y-76196343D01*
X114377621Y-76331346D01*
X113630408Y-76698497D01*
X112900966Y-76976895D01*
X112212950Y-77161001D01*
X111590012Y-77245281D01*
X111055807Y-77224196D01*
X110810343Y-77166326D01*
X110326869Y-76920134D01*
X109925459Y-76528062D01*
X109639551Y-76056286D01*
X109524503Y-75789277D01*
X109441827Y-75553702D01*
X109395925Y-75374830D01*
X109391199Y-75277931D01*
X109432050Y-75288275D01*
X109522879Y-75431131D01*
X109534449Y-75452857D01*
X109867640Y-75916699D01*
X110316388Y-76290787D01*
X110452334Y-76370778D01*
X110625425Y-76452305D01*
X110810015Y-76505275D01*
X111047005Y-76535233D01*
X111377296Y-76547726D01*
X111764667Y-76548744D01*
X112226913Y-76540927D01*
X112582277Y-76516371D01*
X112893059Y-76465518D01*
X113221558Y-76378812D01*
X113542667Y-76275982D01*
X113935692Y-76130641D01*
X114417735Y-75930798D01*
X114928793Y-75702368D01*
X115408863Y-75471265D01*
X115426500Y-75462369D01*
X115810340Y-75270528D01*
X116134034Y-75112885D01*
X116370927Y-75002097D01*
X116494364Y-74950821D01*
X116506000Y-74949780D01*
X116438417Y-75015170D01*
G37*
X116438417Y-75015170D02*
X116254990Y-75149484D01*
X115984708Y-75333905D01*
X115656558Y-75549617D01*
X115299526Y-75777805D01*
X114942599Y-75999652D01*
X114614765Y-76196343D01*
X114377621Y-76331346D01*
X113630408Y-76698497D01*
X112900966Y-76976895D01*
X112212950Y-77161001D01*
X111590012Y-77245281D01*
X111055807Y-77224196D01*
X110810343Y-77166326D01*
X110326869Y-76920134D01*
X109925459Y-76528062D01*
X109639551Y-76056286D01*
X109524503Y-75789277D01*
X109441827Y-75553702D01*
X109395925Y-75374830D01*
X109391199Y-75277931D01*
X109432050Y-75288275D01*
X109522879Y-75431131D01*
X109534449Y-75452857D01*
X109867640Y-75916699D01*
X110316388Y-76290787D01*
X110452334Y-76370778D01*
X110625425Y-76452305D01*
X110810015Y-76505275D01*
X111047005Y-76535233D01*
X111377296Y-76547726D01*
X111764667Y-76548744D01*
X112226913Y-76540927D01*
X112582277Y-76516371D01*
X112893059Y-76465518D01*
X113221558Y-76378812D01*
X113542667Y-76275982D01*
X113935692Y-76130641D01*
X114417735Y-75930798D01*
X114928793Y-75702368D01*
X115408863Y-75471265D01*
X115426500Y-75462369D01*
X115810340Y-75270528D01*
X116134034Y-75112885D01*
X116370927Y-75002097D01*
X116494364Y-74950821D01*
X116506000Y-74949780D01*
X116438417Y-75015170D01*
G36*
X114878000Y-74064028D02*
G01*
X115068544Y-74091081D01*
X115132975Y-74140830D01*
X115130591Y-74161691D01*
X115027889Y-74257704D01*
X114911868Y-74294579D01*
X114768364Y-74366673D01*
X114726844Y-74548579D01*
X114697513Y-74863444D01*
X114621073Y-75077149D01*
X114509432Y-75156520D01*
X114508575Y-75156524D01*
X114448213Y-75131477D01*
X114426959Y-75036275D01*
X114445037Y-74840830D01*
X114502673Y-74515050D01*
X114513775Y-74458024D01*
X114481544Y-74333599D01*
X114388463Y-74309857D01*
X114242358Y-74264672D01*
X114202284Y-74214374D01*
X114151169Y-74234384D01*
X114046145Y-74376133D01*
X113908902Y-74609841D01*
X113893930Y-74637708D01*
X113740318Y-74896663D01*
X113600268Y-75082617D01*
X113503380Y-75156450D01*
X113501376Y-75156524D01*
X113411830Y-75079772D01*
X113311428Y-74875153D01*
X113252341Y-74698993D01*
X113163659Y-74376708D01*
X113128360Y-74183359D01*
X113146067Y-74087306D01*
X113216406Y-74056911D01*
X113244720Y-74055857D01*
X113351642Y-74128800D01*
X113421125Y-74288691D01*
X113487921Y-74558855D01*
X113547097Y-74669893D01*
X113618480Y-74629771D01*
X113721897Y-74446456D01*
X113737167Y-74415691D01*
X113914694Y-74055857D01*
X114540069Y-74055857D01*
X114878000Y-74064028D01*
G37*
X114878000Y-74064028D02*
X115068544Y-74091081D01*
X115132975Y-74140830D01*
X115130591Y-74161691D01*
X115027889Y-74257704D01*
X114911868Y-74294579D01*
X114768364Y-74366673D01*
X114726844Y-74548579D01*
X114697513Y-74863444D01*
X114621073Y-75077149D01*
X114509432Y-75156520D01*
X114508575Y-75156524D01*
X114448213Y-75131477D01*
X114426959Y-75036275D01*
X114445037Y-74840830D01*
X114502673Y-74515050D01*
X114513775Y-74458024D01*
X114481544Y-74333599D01*
X114388463Y-74309857D01*
X114242358Y-74264672D01*
X114202284Y-74214374D01*
X114151169Y-74234384D01*
X114046145Y-74376133D01*
X113908902Y-74609841D01*
X113893930Y-74637708D01*
X113740318Y-74896663D01*
X113600268Y-75082617D01*
X113503380Y-75156450D01*
X113501376Y-75156524D01*
X113411830Y-75079772D01*
X113311428Y-74875153D01*
X113252341Y-74698993D01*
X113163659Y-74376708D01*
X113128360Y-74183359D01*
X113146067Y-74087306D01*
X113216406Y-74056911D01*
X113244720Y-74055857D01*
X113351642Y-74128800D01*
X113421125Y-74288691D01*
X113487921Y-74558855D01*
X113547097Y-74669893D01*
X113618480Y-74629771D01*
X113721897Y-74446456D01*
X113737167Y-74415691D01*
X113914694Y-74055857D01*
X114540069Y-74055857D01*
X114878000Y-74064028D01*
G36*
X119716616Y-73650741D02*
G01*
X120483095Y-73732556D01*
X121154321Y-73876996D01*
X121289667Y-73918846D01*
X121926279Y-74175830D01*
X122421666Y-74473832D01*
X122771375Y-74804221D01*
X122970952Y-75158368D01*
X123015944Y-75527643D01*
X122901897Y-75903417D01*
X122624357Y-76277060D01*
X122546059Y-76353358D01*
X122086706Y-76675657D01*
X121504328Y-76917602D01*
X120828434Y-77072375D01*
X120088531Y-77133162D01*
X119333722Y-77095434D01*
X118941259Y-77031476D01*
X118535114Y-76936007D01*
X118263042Y-76850583D01*
X117894244Y-76686765D01*
X117492742Y-76467442D01*
X117109164Y-76224151D01*
X116794138Y-75988427D01*
X116633000Y-75835215D01*
X116463667Y-75641358D01*
X116717667Y-75770543D01*
X117372755Y-76033269D01*
X118116130Y-76213160D01*
X118905448Y-76308436D01*
X119698366Y-76317316D01*
X120452542Y-76238020D01*
X121125632Y-76068766D01*
X121382139Y-75966727D01*
X121808518Y-75723916D01*
X122070214Y-75464082D01*
X122170009Y-75195282D01*
X122110686Y-74925574D01*
X121895027Y-74663017D01*
X121525815Y-74415667D01*
X121005831Y-74191583D01*
X120739334Y-74105207D01*
X119923203Y-73931086D01*
X119020398Y-73858600D01*
X118078694Y-73886444D01*
X117145866Y-74013310D01*
X116304889Y-74226458D01*
X115972610Y-74329810D01*
X115707131Y-74405770D01*
X115544974Y-74444239D01*
X115512758Y-74445504D01*
X115555005Y-74391307D01*
X115728575Y-74304594D01*
X116001235Y-74196701D01*
X116340752Y-74078968D01*
X116714894Y-73962733D01*
X117091428Y-73859335D01*
X117356657Y-73796891D01*
X118102297Y-73681324D01*
X118905983Y-73633136D01*
X119716616Y-73650741D01*
G37*
X119716616Y-73650741D02*
X120483095Y-73732556D01*
X121154321Y-73876996D01*
X121289667Y-73918846D01*
X121926279Y-74175830D01*
X122421666Y-74473832D01*
X122771375Y-74804221D01*
X122970952Y-75158368D01*
X123015944Y-75527643D01*
X122901897Y-75903417D01*
X122624357Y-76277060D01*
X122546059Y-76353358D01*
X122086706Y-76675657D01*
X121504328Y-76917602D01*
X120828434Y-77072375D01*
X120088531Y-77133162D01*
X119333722Y-77095434D01*
X118941259Y-77031476D01*
X118535114Y-76936007D01*
X118263042Y-76850583D01*
X117894244Y-76686765D01*
X117492742Y-76467442D01*
X117109164Y-76224151D01*
X116794138Y-75988427D01*
X116633000Y-75835215D01*
X116463667Y-75641358D01*
X116717667Y-75770543D01*
X117372755Y-76033269D01*
X118116130Y-76213160D01*
X118905448Y-76308436D01*
X119698366Y-76317316D01*
X120452542Y-76238020D01*
X121125632Y-76068766D01*
X121382139Y-75966727D01*
X121808518Y-75723916D01*
X122070214Y-75464082D01*
X122170009Y-75195282D01*
X122110686Y-74925574D01*
X121895027Y-74663017D01*
X121525815Y-74415667D01*
X121005831Y-74191583D01*
X120739334Y-74105207D01*
X119923203Y-73931086D01*
X119020398Y-73858600D01*
X118078694Y-73886444D01*
X117145866Y-74013310D01*
X116304889Y-74226458D01*
X115972610Y-74329810D01*
X115707131Y-74405770D01*
X115544974Y-74444239D01*
X115512758Y-74445504D01*
X115555005Y-74391307D01*
X115728575Y-74304594D01*
X116001235Y-74196701D01*
X116340752Y-74078968D01*
X116714894Y-73962733D01*
X117091428Y-73859335D01*
X117356657Y-73796891D01*
X118102297Y-73681324D01*
X118905983Y-73633136D01*
X119716616Y-73650741D01*
G36*
X112907135Y-74099553D02*
G01*
X112928412Y-74161691D01*
X112825971Y-74244476D01*
X112696000Y-74267524D01*
X112513919Y-74307839D01*
X112479271Y-74404284D01*
X112597901Y-74520104D01*
X112651474Y-74547453D01*
X112825609Y-74695176D01*
X112850343Y-74884347D01*
X112723769Y-75073229D01*
X112677161Y-75109390D01*
X112466083Y-75223401D01*
X112294919Y-75215127D01*
X112198320Y-75164693D01*
X112117683Y-75063304D01*
X112172926Y-74983267D01*
X112330992Y-74957522D01*
X112397646Y-74966082D01*
X112565718Y-74956488D01*
X112611882Y-74871026D01*
X112532230Y-74755277D01*
X112421328Y-74689767D01*
X112245049Y-74540797D01*
X112202433Y-74340168D01*
X112276042Y-74178790D01*
X112404838Y-74100629D01*
X112591927Y-74060348D01*
X112778847Y-74059478D01*
X112907135Y-74099553D01*
G37*
X112907135Y-74099553D02*
X112928412Y-74161691D01*
X112825971Y-74244476D01*
X112696000Y-74267524D01*
X112513919Y-74307839D01*
X112479271Y-74404284D01*
X112597901Y-74520104D01*
X112651474Y-74547453D01*
X112825609Y-74695176D01*
X112850343Y-74884347D01*
X112723769Y-75073229D01*
X112677161Y-75109390D01*
X112466083Y-75223401D01*
X112294919Y-75215127D01*
X112198320Y-75164693D01*
X112117683Y-75063304D01*
X112172926Y-74983267D01*
X112330992Y-74957522D01*
X112397646Y-74966082D01*
X112565718Y-74956488D01*
X112611882Y-74871026D01*
X112532230Y-74755277D01*
X112421328Y-74689767D01*
X112245049Y-74540797D01*
X112202433Y-74340168D01*
X112276042Y-74178790D01*
X112404838Y-74100629D01*
X112591927Y-74060348D01*
X112778847Y-74059478D01*
X112907135Y-74099553D01*
G36*
X111068617Y-74125172D02*
G01*
X111085314Y-74204024D01*
X111061556Y-74418651D01*
X111006406Y-74678328D01*
X110937108Y-74915980D01*
X110870907Y-75064533D01*
X110861082Y-75076218D01*
X110671009Y-75170858D01*
X110422331Y-75199534D01*
X110219500Y-75151789D01*
X110120859Y-75016442D01*
X110070401Y-74792669D01*
X110065347Y-74532668D01*
X110102919Y-74288639D01*
X110180335Y-74112780D01*
X110277858Y-74055857D01*
X110337526Y-74113966D01*
X110354710Y-74301950D01*
X110342373Y-74528866D01*
X110324174Y-74796646D01*
X110336265Y-74934305D01*
X110392683Y-74980272D01*
X110504740Y-74973366D01*
X110628993Y-74931140D01*
X110707221Y-74819619D01*
X110764798Y-74595470D01*
X110781741Y-74500357D01*
X110851395Y-74214012D01*
X110935765Y-74069547D01*
X110972241Y-74055857D01*
X111068617Y-74125172D01*
G37*
X111068617Y-74125172D02*
X111085314Y-74204024D01*
X111061556Y-74418651D01*
X111006406Y-74678328D01*
X110937108Y-74915980D01*
X110870907Y-75064533D01*
X110861082Y-75076218D01*
X110671009Y-75170858D01*
X110422331Y-75199534D01*
X110219500Y-75151789D01*
X110120859Y-75016442D01*
X110070401Y-74792669D01*
X110065347Y-74532668D01*
X110102919Y-74288639D01*
X110180335Y-74112780D01*
X110277858Y-74055857D01*
X110337526Y-74113966D01*
X110354710Y-74301950D01*
X110342373Y-74528866D01*
X110324174Y-74796646D01*
X110336265Y-74934305D01*
X110392683Y-74980272D01*
X110504740Y-74973366D01*
X110628993Y-74931140D01*
X110707221Y-74819619D01*
X110764798Y-74595470D01*
X110781741Y-74500357D01*
X110851395Y-74214012D01*
X110935765Y-74069547D01*
X110972241Y-74055857D01*
X111068617Y-74125172D01*
G36*
X118765022Y-70672896D02*
G01*
X119072668Y-70755175D01*
X119699242Y-71029339D01*
X120303510Y-71449132D01*
X120852345Y-71991198D01*
X120891770Y-72037832D01*
X121104432Y-72303178D01*
X121274812Y-72535082D01*
X121382543Y-72703710D01*
X121407260Y-72779227D01*
X121398479Y-72780159D01*
X121327298Y-72726844D01*
X121158916Y-72589896D01*
X120925169Y-72395336D01*
X120839559Y-72323299D01*
X120127133Y-71794730D01*
X119409895Y-71414290D01*
X118673426Y-71180695D01*
X117903309Y-71092664D01*
X117085127Y-71148914D01*
X116204463Y-71348165D01*
X115246897Y-71689133D01*
X114980314Y-71802257D01*
X114611517Y-71957230D01*
X114386415Y-72038414D01*
X114298855Y-72050880D01*
X114342683Y-71999699D01*
X114511746Y-71889942D01*
X114799890Y-71726681D01*
X115200962Y-71514987D01*
X115532334Y-71347315D01*
X116311464Y-70990460D01*
X116997658Y-70749046D01*
X117617555Y-70618617D01*
X118197797Y-70594720D01*
X118765022Y-70672896D01*
G37*
X118765022Y-70672896D02*
X119072668Y-70755175D01*
X119699242Y-71029339D01*
X120303510Y-71449132D01*
X120852345Y-71991198D01*
X120891770Y-72037832D01*
X121104432Y-72303178D01*
X121274812Y-72535082D01*
X121382543Y-72703710D01*
X121407260Y-72779227D01*
X121398479Y-72780159D01*
X121327298Y-72726844D01*
X121158916Y-72589896D01*
X120925169Y-72395336D01*
X120839559Y-72323299D01*
X120127133Y-71794730D01*
X119409895Y-71414290D01*
X118673426Y-71180695D01*
X117903309Y-71092664D01*
X117085127Y-71148914D01*
X116204463Y-71348165D01*
X115246897Y-71689133D01*
X114980314Y-71802257D01*
X114611517Y-71957230D01*
X114386415Y-72038414D01*
X114298855Y-72050880D01*
X114342683Y-71999699D01*
X114511746Y-71889942D01*
X114799890Y-71726681D01*
X115200962Y-71514987D01*
X115532334Y-71347315D01*
X116311464Y-70990460D01*
X116997658Y-70749046D01*
X117617555Y-70618617D01*
X118197797Y-70594720D01*
X118765022Y-70672896D01*
G36*
X111946219Y-74069453D02*
G01*
X112076244Y-74116525D01*
X112103334Y-74182857D01*
X112033050Y-74286366D01*
X111936916Y-74309857D01*
X111831195Y-74341032D01*
X111764996Y-74460533D01*
X111717834Y-74707322D01*
X111714342Y-74733191D01*
X111654866Y-75019032D01*
X111571182Y-75147067D01*
X111534148Y-75156524D01*
X111463253Y-75124555D01*
X111442093Y-75004075D01*
X111464936Y-74758223D01*
X111468334Y-74733191D01*
X111494950Y-74479058D01*
X111479181Y-74351364D01*
X111413926Y-74310933D01*
X111391612Y-74309857D01*
X111274343Y-74245501D01*
X111256667Y-74182857D01*
X111301986Y-74102992D01*
X111458894Y-74063984D01*
X111680000Y-74055857D01*
X111946219Y-74069453D01*
G37*
X111946219Y-74069453D02*
X112076244Y-74116525D01*
X112103334Y-74182857D01*
X112033050Y-74286366D01*
X111936916Y-74309857D01*
X111831195Y-74341032D01*
X111764996Y-74460533D01*
X111717834Y-74707322D01*
X111714342Y-74733191D01*
X111654866Y-75019032D01*
X111571182Y-75147067D01*
X111534148Y-75156524D01*
X111463253Y-75124555D01*
X111442093Y-75004075D01*
X111464936Y-74758223D01*
X111468334Y-74733191D01*
X111494950Y-74479058D01*
X111479181Y-74351364D01*
X111413926Y-74310933D01*
X111391612Y-74309857D01*
X111274343Y-74245501D01*
X111256667Y-74182857D01*
X111301986Y-74102992D01*
X111458894Y-74063984D01*
X111680000Y-74055857D01*
X111946219Y-74069453D01*
D12*
X151016267Y-124700000D02*
X150723733Y-124700000D01*
X151016267Y-123680000D02*
X150723733Y-123680000D01*
X182975000Y-116410242D02*
X182975000Y-115589758D01*
X181855000Y-116410242D02*
X181855000Y-115589758D01*
X127986267Y-78050000D02*
X127693733Y-78050000D01*
X127986267Y-79070000D02*
X127693733Y-79070000D01*
X174254724Y-120082500D02*
X173745276Y-120082500D01*
X174254724Y-119037500D02*
X173745276Y-119037500D01*
X174255000Y-116410242D02*
X174255000Y-115589758D01*
X175375000Y-116410242D02*
X175375000Y-115589758D01*
X174580000Y-89949758D02*
X174580000Y-90770242D01*
X175700000Y-89949758D02*
X175700000Y-90770242D01*
X175662500Y-82775276D02*
X175662500Y-83284724D01*
X174617500Y-82775276D02*
X174617500Y-83284724D01*
X174317500Y-123524724D02*
X174317500Y-123015276D01*
X175362500Y-123524724D02*
X175362500Y-123015276D01*
X171453733Y-81740000D02*
X171746267Y-81740000D01*
X171453733Y-82760000D02*
X171746267Y-82760000D01*
X140135276Y-120082500D02*
X140644724Y-120082500D01*
X140135276Y-119037500D02*
X140644724Y-119037500D01*
X143136267Y-123600000D02*
X142843733Y-123600000D01*
X143136267Y-124620000D02*
X142843733Y-124620000D01*
X167610000Y-116410242D02*
X167610000Y-115589758D01*
X166490000Y-116410242D02*
X166490000Y-115589758D01*
X141446267Y-78435000D02*
X141153733Y-78435000D01*
X141446267Y-77415000D02*
X141153733Y-77415000D01*
X171313733Y-124545000D02*
X171606267Y-124545000D01*
X171313733Y-123525000D02*
X171606267Y-123525000D01*
X136186267Y-79070000D02*
X135893733Y-79070000D01*
X136186267Y-78050000D02*
X135893733Y-78050000D01*
X123817500Y-79080276D02*
X123817500Y-79589724D01*
X124862500Y-79080276D02*
X124862500Y-79589724D01*
X160446267Y-82780000D02*
X160153733Y-82780000D01*
X160446267Y-81760000D02*
X160153733Y-81760000D01*
X181869724Y-120135000D02*
X181360276Y-120135000D01*
X181869724Y-119090000D02*
X181360276Y-119090000D01*
X136510242Y-104420000D02*
X135689758Y-104420000D01*
X136510242Y-103300000D02*
X135689758Y-103300000D01*
X127936267Y-127580000D02*
X127643733Y-127580000D01*
X127936267Y-126560000D02*
X127643733Y-126560000D01*
X124900000Y-86249758D02*
X124900000Y-87070242D01*
X123780000Y-86249758D02*
X123780000Y-87070242D01*
X143302500Y-82685276D02*
X143302500Y-83194724D01*
X142257500Y-82685276D02*
X142257500Y-83194724D01*
X124895276Y-83612500D02*
X125404724Y-83612500D01*
X124895276Y-82567500D02*
X125404724Y-82567500D01*
X147087500Y-123674724D02*
X147087500Y-123165276D01*
X148132500Y-123674724D02*
X148132500Y-123165276D01*
X157570000Y-89949758D02*
X157570000Y-90770242D01*
X156450000Y-89949758D02*
X156450000Y-90770242D01*
X132882500Y-79080276D02*
X132882500Y-79589724D01*
X131837500Y-79080276D02*
X131837500Y-79589724D01*
X143350276Y-86177500D02*
X143859724Y-86177500D01*
X143350276Y-87222500D02*
X143859724Y-87222500D01*
X132920000Y-86249758D02*
X132920000Y-87070242D01*
X131800000Y-86249758D02*
X131800000Y-87070242D01*
X132850276Y-121967500D02*
X133359724Y-121967500D01*
X132850276Y-123012500D02*
X133359724Y-123012500D01*
X150742500Y-82675276D02*
X150742500Y-83184724D01*
X149697500Y-82675276D02*
X149697500Y-83184724D01*
X166527500Y-123629724D02*
X166527500Y-123120276D01*
X167572500Y-123629724D02*
X167572500Y-123120276D01*
X156487500Y-82790276D02*
X156487500Y-83299724D01*
X157532500Y-82790276D02*
X157532500Y-83299724D01*
X168655000Y-89949758D02*
X168655000Y-90770242D01*
X167535000Y-89949758D02*
X167535000Y-90770242D01*
X135886267Y-127580000D02*
X135593733Y-127580000D01*
X135886267Y-126560000D02*
X135593733Y-126560000D01*
X177078733Y-127515000D02*
X177371267Y-127515000D01*
X177078733Y-128535000D02*
X177371267Y-128535000D01*
X167572500Y-82800276D02*
X167572500Y-83309724D01*
X168617500Y-82800276D02*
X168617500Y-83309724D01*
X147050000Y-116410242D02*
X147050000Y-115589758D01*
X148170000Y-116410242D02*
X148170000Y-115589758D01*
X167524724Y-86177500D02*
X167015276Y-86177500D01*
X167524724Y-87222500D02*
X167015276Y-87222500D01*
X163453733Y-123640000D02*
X163746267Y-123640000D01*
X163453733Y-124660000D02*
X163746267Y-124660000D01*
X180950000Y-105000000D02*
G75*
G03*
X180950000Y-105000000I-950000J0D01*
G01*
X179780000Y-103180000D02*
X181700000Y-103180000D01*
X181700000Y-103180000D02*
X181700000Y-100320000D01*
X179780000Y-100320000D02*
X179780000Y-103180000D01*
X178818733Y-123615000D02*
X179111267Y-123615000D01*
X178818733Y-124635000D02*
X179111267Y-124635000D01*
X149660000Y-89949758D02*
X149660000Y-90770242D01*
X150780000Y-89949758D02*
X150780000Y-90770242D01*
X154207500Y-123644724D02*
X154207500Y-123135276D01*
X155252500Y-123644724D02*
X155252500Y-123135276D01*
X150795276Y-86177500D02*
X151304724Y-86177500D01*
X150795276Y-87222500D02*
X151304724Y-87222500D01*
X123780000Y-119330242D02*
X123780000Y-118509758D01*
X124900000Y-119330242D02*
X124900000Y-118509758D01*
X146401267Y-81655000D02*
X146108733Y-81655000D01*
X146401267Y-82675000D02*
X146108733Y-82675000D01*
X181817500Y-82890276D02*
X181817500Y-83399724D01*
X182862500Y-82890276D02*
X182862500Y-83399724D01*
X174569724Y-87222500D02*
X174060276Y-87222500D01*
X174569724Y-86177500D02*
X174060276Y-86177500D01*
X158166267Y-123660000D02*
X157873733Y-123660000D01*
X158166267Y-124680000D02*
X157873733Y-124680000D01*
X140125000Y-116410242D02*
X140125000Y-115589758D01*
X139005000Y-116410242D02*
X139005000Y-115589758D01*
M02*
