%TF.GenerationSoftware,KiCad,Pcbnew,7.0.3*%
%TF.CreationDate,2023-06-05T20:38:05-05:00*%
%TF.ProjectId,BPS-MinionShield,4250532d-4d69-46e6-996f-6e536869656c,rev?*%
%TF.SameCoordinates,Original*%
%TF.FileFunction,Copper,L2,Bot*%
%TF.FilePolarity,Positive*%
%FSLAX46Y46*%
G04 Gerber Fmt 4.6, Leading zero omitted, Abs format (unit mm)*
G04 Created by KiCad (PCBNEW 7.0.3) date 2023-06-05 20:38:05*
%MOMM*%
%LPD*%
G01*
G04 APERTURE LIST*
%TA.AperFunction,ComponentPad*%
%ADD10R,1.700000X1.700000*%
%TD*%
%TA.AperFunction,ComponentPad*%
%ADD11O,1.700000X1.700000*%
%TD*%
%TA.AperFunction,ComponentPad*%
%ADD12C,1.500000*%
%TD*%
%TA.AperFunction,ComponentPad*%
%ADD13C,1.524000*%
%TD*%
%TA.AperFunction,ViaPad*%
%ADD14C,0.800000*%
%TD*%
%TA.AperFunction,Conductor*%
%ADD15C,0.500000*%
%TD*%
%TA.AperFunction,Conductor*%
%ADD16C,0.250000*%
%TD*%
G04 APERTURE END LIST*
D10*
X148000000Y-78000000D03*
D11*
X150540000Y-78000000D03*
X153080000Y-78000000D03*
X155620000Y-78000000D03*
X158160000Y-78000000D03*
X160700000Y-78000000D03*
X163240000Y-78000000D03*
X165780000Y-78000000D03*
X168320000Y-78000000D03*
X170860000Y-78000000D03*
D10*
X170830000Y-128000000D03*
D11*
X168290000Y-128000000D03*
X165750000Y-128000000D03*
X163210000Y-128000000D03*
X160670000Y-128000000D03*
X158130000Y-128000000D03*
X155590000Y-128000000D03*
X153050000Y-128000000D03*
X150510000Y-128000000D03*
X147970000Y-128000000D03*
D12*
X180000000Y-105000000D03*
D13*
X132210000Y-91850000D03*
X130210000Y-91850000D03*
X132210000Y-93850000D03*
X130210000Y-93850000D03*
X132210000Y-95850000D03*
X130210000Y-95850000D03*
X132210000Y-97850000D03*
X130210000Y-97850000D03*
X132210000Y-99850000D03*
X130210000Y-99850000D03*
X132210000Y-101850000D03*
X130210000Y-101850000D03*
X132210000Y-103850000D03*
X130210000Y-103850000D03*
X132210000Y-105850000D03*
X130210000Y-105850000D03*
X132210000Y-107850000D03*
X130210000Y-107850000D03*
X132210000Y-109850000D03*
X130210000Y-109850000D03*
X132210000Y-111850000D03*
X130210000Y-111850000D03*
X132210000Y-113850000D03*
X130210000Y-113850000D03*
D14*
X139950000Y-117300000D03*
X170950000Y-89450000D03*
X160650000Y-89450000D03*
X176085716Y-89450000D03*
X176100000Y-117300000D03*
X145271430Y-89450000D03*
X165800000Y-89450000D03*
X155400000Y-117300000D03*
X165750000Y-117300000D03*
X145050000Y-117300000D03*
X170900000Y-117300000D03*
X155550000Y-89450000D03*
X160600000Y-117300000D03*
X150250000Y-117300000D03*
X140135716Y-89450000D03*
X150400000Y-89450000D03*
X145000000Y-103000000D03*
X125000000Y-83000000D03*
X178130000Y-82430000D03*
X135000000Y-73000000D03*
X147320000Y-82460000D03*
X167760000Y-123980000D03*
X152250000Y-123980000D03*
X146000000Y-133000000D03*
X182000000Y-82000000D03*
X142200000Y-82460000D03*
X125000000Y-113000000D03*
X135000000Y-83000000D03*
X157600000Y-82490000D03*
X173000000Y-82390000D03*
X162580000Y-123990000D03*
X162730000Y-82490000D03*
X152450000Y-82430000D03*
X141880000Y-124000000D03*
X125000000Y-73000000D03*
X157430000Y-123980000D03*
X155000000Y-103000000D03*
X125000000Y-93000000D03*
X125000000Y-123000000D03*
X125000000Y-103000000D03*
X147080000Y-124000000D03*
X172930000Y-124000000D03*
X167870000Y-82500000D03*
X135000000Y-133000000D03*
X115000000Y-133000000D03*
X182000000Y-114000000D03*
X135000000Y-123000000D03*
X178100000Y-123990000D03*
X165000000Y-103000000D03*
X182000000Y-93000000D03*
X125000000Y-133000000D03*
X175000000Y-103000000D03*
X146000000Y-73000000D03*
X182000000Y-124000000D03*
X114000000Y-73000000D03*
X173653068Y-118660048D03*
X170800000Y-114000000D03*
X165600000Y-114000000D03*
X160400000Y-113900000D03*
X135400000Y-100100000D03*
X153500000Y-115799503D03*
X148389264Y-115800003D03*
X144900000Y-114000000D03*
X134528049Y-99143451D03*
X139800000Y-114000000D03*
X150257144Y-92800000D03*
X154800000Y-91050000D03*
X160528572Y-92800000D03*
X136800000Y-109000000D03*
X127900000Y-97000000D03*
X166800000Y-88150000D03*
X170800000Y-92800000D03*
X174650000Y-91500000D03*
D15*
X170830000Y-123580000D02*
X170830000Y-128000000D01*
X155550000Y-89450000D02*
X150400000Y-89450000D01*
X176100000Y-118310000D02*
X170830000Y-123580000D01*
X150250000Y-117300000D02*
X145050000Y-117300000D01*
X145050000Y-117300000D02*
X139950000Y-117300000D01*
X165750000Y-117300000D02*
X160600000Y-117300000D01*
X140135716Y-89450000D02*
X145271430Y-89450000D01*
X160650000Y-89450000D02*
X155550000Y-89450000D01*
X170950000Y-89450000D02*
X165800000Y-89450000D01*
X176085716Y-89450000D02*
X170950000Y-89450000D01*
X160600000Y-117300000D02*
X155400000Y-117300000D01*
X170900000Y-117300000D02*
X165750000Y-117300000D01*
X176100000Y-117300000D02*
X170900000Y-117300000D01*
X176100000Y-117300000D02*
X176100000Y-118310000D01*
X155400000Y-117300000D02*
X150250000Y-117300000D01*
X150400000Y-89450000D02*
X145271430Y-89450000D01*
X165800000Y-89450000D02*
X160650000Y-89450000D01*
D16*
X127200000Y-108860000D02*
X130210000Y-105850000D01*
X127200000Y-116550000D02*
X127200000Y-108860000D01*
X129310048Y-118660048D02*
X173653068Y-118660048D01*
X127200000Y-116550000D02*
X129310048Y-118660048D01*
X133550000Y-113850000D02*
X135324503Y-115624503D01*
X132210000Y-113850000D02*
X133550000Y-113850000D01*
X147824997Y-115075003D02*
X169724997Y-115075003D01*
X135324503Y-115624503D02*
X147275497Y-115624503D01*
X170800000Y-114000000D02*
X169724997Y-115075003D01*
X147275497Y-115624503D02*
X147824997Y-115075003D01*
X132210000Y-107850000D02*
X132210000Y-108110000D01*
X132210000Y-108110000D02*
X139274503Y-115174503D01*
X145300302Y-114625003D02*
X164974997Y-114625003D01*
X139274503Y-115174503D02*
X144750802Y-115174503D01*
X144750802Y-115174503D02*
X145300302Y-114625003D01*
X164974997Y-114625003D02*
X165600000Y-114000000D01*
X160124997Y-114175003D02*
X160400000Y-113900000D01*
X146100308Y-114175003D02*
X160124997Y-114175003D01*
X135400000Y-108900000D02*
X139775000Y-113275000D01*
X135400000Y-100100000D02*
X135400000Y-108900000D01*
X145200305Y-113275000D02*
X146100308Y-114175003D01*
X139775000Y-113275000D02*
X145200305Y-113275000D01*
X129075000Y-117575000D02*
X127650000Y-116150000D01*
X138649695Y-117575000D02*
X129075000Y-117575000D01*
X153500000Y-115799503D02*
X152775000Y-116524503D01*
X152775000Y-116524503D02*
X139700192Y-116524503D01*
X139700192Y-116524503D02*
X138649695Y-117575000D01*
X127650000Y-110410000D02*
X130210000Y-107850000D01*
X127650000Y-116150000D02*
X127650000Y-110410000D01*
X148389264Y-115800003D02*
X148114764Y-116074503D01*
X132434503Y-116074503D02*
X130210000Y-113850000D01*
X148114764Y-116074503D02*
X132434503Y-116074503D01*
X133297000Y-106937000D02*
X132210000Y-105850000D01*
X144175497Y-114724503D02*
X139460899Y-114724503D01*
X133297000Y-108560604D02*
X133297000Y-106937000D01*
X139460899Y-114724503D02*
X133297000Y-108560604D01*
X144900000Y-114000000D02*
X144175497Y-114724503D01*
X134528049Y-108728049D02*
X139800000Y-114000000D01*
X134528049Y-99143451D02*
X134528049Y-108728049D01*
X149407144Y-91950000D02*
X135400000Y-91950000D01*
X150257144Y-92800000D02*
X149407144Y-91950000D01*
X133747000Y-93603000D02*
X133747000Y-100313000D01*
X133747000Y-100313000D02*
X132210000Y-101850000D01*
X135400000Y-91950000D02*
X133747000Y-93603000D01*
X135010000Y-91050000D02*
X132210000Y-93850000D01*
X154800000Y-91050000D02*
X135010000Y-91050000D01*
X159788572Y-93540000D02*
X139460000Y-93540000D01*
X136800000Y-96200000D02*
X136800000Y-109000000D01*
X160528572Y-92800000D02*
X159788572Y-93540000D01*
X139460000Y-93540000D02*
X136800000Y-96200000D01*
X129350000Y-88150000D02*
X127400000Y-90100000D01*
X127400000Y-90100000D02*
X127400000Y-96500000D01*
X166800000Y-88150000D02*
X129350000Y-88150000D01*
X127400000Y-96500000D02*
X127900000Y-97000000D01*
X154499695Y-91775000D02*
X169775000Y-91775000D01*
X133297000Y-93399396D02*
X135196396Y-91500000D01*
X132210000Y-99850000D02*
X133297000Y-98763000D01*
X154224695Y-91500000D02*
X154499695Y-91775000D01*
X133297000Y-98763000D02*
X133297000Y-93399396D01*
X169775000Y-91775000D02*
X170800000Y-92800000D01*
X135196396Y-91500000D02*
X154224695Y-91500000D01*
X129123000Y-91399749D02*
X129123000Y-92763000D01*
X129123000Y-92763000D02*
X130210000Y-93850000D01*
X130347749Y-90175000D02*
X129123000Y-91399749D01*
X172775000Y-90175000D02*
X130347749Y-90175000D01*
X174650000Y-91500000D02*
X174100000Y-91500000D01*
X174100000Y-91500000D02*
X172775000Y-90175000D01*
%TA.AperFunction,Conductor*%
G36*
X182001698Y-70025591D02*
G01*
X182317538Y-70042659D01*
X182324265Y-70043388D01*
X182634756Y-70094118D01*
X182641383Y-70095572D01*
X182723880Y-70118397D01*
X182944577Y-70179460D01*
X182951027Y-70181625D01*
X183019949Y-70208985D01*
X183243418Y-70297697D01*
X183249572Y-70300532D01*
X183527759Y-70447441D01*
X183533592Y-70450936D01*
X183794322Y-70626963D01*
X183799739Y-70631062D01*
X184039982Y-70834160D01*
X184044922Y-70838815D01*
X184210087Y-71012237D01*
X184261877Y-71066615D01*
X184266297Y-71071788D01*
X184457440Y-71321641D01*
X184461276Y-71327260D01*
X184624376Y-71596246D01*
X184627584Y-71602246D01*
X184760753Y-71887250D01*
X184763296Y-71893560D01*
X184864976Y-72191254D01*
X184866825Y-72197802D01*
X184935830Y-72504711D01*
X184936962Y-72511420D01*
X184972496Y-72823992D01*
X184972898Y-72830780D01*
X184973097Y-72868822D01*
X184974500Y-73137310D01*
X184974500Y-73147838D01*
X184974425Y-73150901D01*
X184973576Y-73168339D01*
X184974500Y-73175246D01*
X184974500Y-126517835D01*
X184973775Y-126997465D01*
X184964334Y-133241741D01*
X184963983Y-133248285D01*
X184940860Y-133466606D01*
X184939772Y-133473359D01*
X184872585Y-133782412D01*
X184870771Y-133789007D01*
X184770506Y-134088954D01*
X184767989Y-134095314D01*
X184635817Y-134382642D01*
X184632625Y-134388692D01*
X184470104Y-134660017D01*
X184466276Y-134665685D01*
X184275328Y-134917796D01*
X184270909Y-134923016D01*
X184053771Y-135152962D01*
X184048813Y-135157673D01*
X183808045Y-135362744D01*
X183802605Y-135366890D01*
X183541030Y-135544679D01*
X183535173Y-135548212D01*
X183255885Y-135696616D01*
X183249679Y-135699493D01*
X182955967Y-135816765D01*
X182949487Y-135818953D01*
X182644785Y-135903724D01*
X182638106Y-135905197D01*
X182326015Y-135956462D01*
X182319216Y-135957203D01*
X182227214Y-135962200D01*
X182002516Y-135974407D01*
X181999109Y-135974500D01*
X103001643Y-135974500D01*
X102998372Y-135974414D01*
X102746762Y-135961228D01*
X102692384Y-135958378D01*
X102685822Y-135957688D01*
X102384830Y-135910016D01*
X102378375Y-135908644D01*
X102084018Y-135829772D01*
X102077742Y-135827733D01*
X101793247Y-135718525D01*
X101787219Y-135715841D01*
X101515691Y-135577491D01*
X101509976Y-135574191D01*
X101254400Y-135408218D01*
X101249073Y-135404348D01*
X101012224Y-135212552D01*
X101007334Y-135208147D01*
X100791852Y-134992665D01*
X100787448Y-134987776D01*
X100595649Y-134750923D01*
X100591781Y-134745599D01*
X100585418Y-134735801D01*
X100425808Y-134490023D01*
X100422508Y-134484308D01*
X100284158Y-134212780D01*
X100281474Y-134206752D01*
X100238697Y-134095314D01*
X100172262Y-133922246D01*
X100170227Y-133915981D01*
X100159971Y-133877706D01*
X100091354Y-133621623D01*
X100089983Y-133615169D01*
X100042311Y-133314177D01*
X100041622Y-133307627D01*
X100032375Y-133131182D01*
X101249500Y-133131182D01*
X101267151Y-133248285D01*
X101288604Y-133390619D01*
X101365933Y-133641314D01*
X101365938Y-133641327D01*
X101479773Y-133877706D01*
X101479777Y-133877713D01*
X101621602Y-134085730D01*
X101627567Y-134094479D01*
X101806019Y-134286805D01*
X102011143Y-134450386D01*
X102011146Y-134450388D01*
X102238352Y-134581566D01*
X102238356Y-134581567D01*
X102238357Y-134581568D01*
X102482584Y-134677420D01*
X102738370Y-134735802D01*
X102934506Y-134750500D01*
X102934507Y-134750500D01*
X103065493Y-134750500D01*
X103065494Y-134750500D01*
X103261630Y-134735802D01*
X103517416Y-134677420D01*
X103761643Y-134581568D01*
X103761645Y-134581566D01*
X103761647Y-134581566D01*
X103875249Y-134515977D01*
X103988857Y-134450386D01*
X104193981Y-134286805D01*
X104372433Y-134094479D01*
X104520228Y-133877704D01*
X104634063Y-133641323D01*
X104634287Y-133640596D01*
X104711395Y-133390619D01*
X104723408Y-133310920D01*
X104750500Y-133131182D01*
X180249500Y-133131182D01*
X180267151Y-133248285D01*
X180288604Y-133390619D01*
X180365933Y-133641314D01*
X180365938Y-133641327D01*
X180479773Y-133877706D01*
X180479777Y-133877713D01*
X180621602Y-134085730D01*
X180627567Y-134094479D01*
X180806019Y-134286805D01*
X181011143Y-134450386D01*
X181011146Y-134450388D01*
X181238352Y-134581566D01*
X181238356Y-134581567D01*
X181238357Y-134581568D01*
X181482584Y-134677420D01*
X181738370Y-134735802D01*
X181934506Y-134750500D01*
X181934507Y-134750500D01*
X182065493Y-134750500D01*
X182065494Y-134750500D01*
X182261630Y-134735802D01*
X182517416Y-134677420D01*
X182761643Y-134581568D01*
X182761645Y-134581566D01*
X182761647Y-134581566D01*
X182875249Y-134515977D01*
X182988857Y-134450386D01*
X183193981Y-134286805D01*
X183372433Y-134094479D01*
X183520228Y-133877704D01*
X183634063Y-133641323D01*
X183634287Y-133640596D01*
X183711395Y-133390619D01*
X183723408Y-133310920D01*
X183750500Y-133131182D01*
X183750500Y-132868818D01*
X183711396Y-132609385D01*
X183711395Y-132609383D01*
X183711395Y-132609380D01*
X183634066Y-132358685D01*
X183634061Y-132358672D01*
X183585854Y-132258570D01*
X183520228Y-132122296D01*
X183520226Y-132122293D01*
X183520222Y-132122286D01*
X183372437Y-131905527D01*
X183372433Y-131905521D01*
X183193981Y-131713195D01*
X182988857Y-131549614D01*
X182988852Y-131549611D01*
X182988853Y-131549611D01*
X182761647Y-131418433D01*
X182761639Y-131418430D01*
X182517419Y-131322581D01*
X182517417Y-131322580D01*
X182261633Y-131264198D01*
X182114527Y-131253174D01*
X182065494Y-131249500D01*
X181934506Y-131249500D01*
X181895278Y-131252439D01*
X181738366Y-131264198D01*
X181482582Y-131322580D01*
X181482580Y-131322581D01*
X181238360Y-131418430D01*
X181238352Y-131418433D01*
X181011146Y-131549611D01*
X180806018Y-131713195D01*
X180627566Y-131905522D01*
X180627562Y-131905527D01*
X180479777Y-132122286D01*
X180479773Y-132122293D01*
X180365938Y-132358672D01*
X180365933Y-132358685D01*
X180288604Y-132609380D01*
X180266879Y-132753514D01*
X180249500Y-132868818D01*
X180249500Y-133131182D01*
X104750500Y-133131182D01*
X104750500Y-132868818D01*
X104711396Y-132609385D01*
X104711395Y-132609383D01*
X104711395Y-132609380D01*
X104634066Y-132358685D01*
X104634061Y-132358672D01*
X104585854Y-132258570D01*
X104520228Y-132122296D01*
X104520226Y-132122293D01*
X104520222Y-132122286D01*
X104372437Y-131905527D01*
X104372433Y-131905521D01*
X104193981Y-131713195D01*
X103988857Y-131549614D01*
X103988852Y-131549611D01*
X103988853Y-131549611D01*
X103761647Y-131418433D01*
X103761639Y-131418430D01*
X103517419Y-131322581D01*
X103517417Y-131322580D01*
X103261633Y-131264198D01*
X103114527Y-131253174D01*
X103065494Y-131249500D01*
X102934506Y-131249500D01*
X102895278Y-131252439D01*
X102738366Y-131264198D01*
X102482582Y-131322580D01*
X102482580Y-131322581D01*
X102238360Y-131418430D01*
X102238352Y-131418433D01*
X102011146Y-131549611D01*
X101806018Y-131713195D01*
X101627566Y-131905522D01*
X101627562Y-131905527D01*
X101479777Y-132122286D01*
X101479773Y-132122293D01*
X101365938Y-132358672D01*
X101365933Y-132358685D01*
X101288604Y-132609380D01*
X101266879Y-132753514D01*
X101249500Y-132868818D01*
X101249500Y-133131182D01*
X100032375Y-133131182D01*
X100025585Y-133001628D01*
X100025500Y-132998355D01*
X100025500Y-131001644D01*
X100025585Y-130998370D01*
X100041622Y-130692370D01*
X100042311Y-130685822D01*
X100089983Y-130384830D01*
X100091355Y-130378375D01*
X100170229Y-130084008D01*
X100172260Y-130077758D01*
X100281479Y-129793234D01*
X100284154Y-129787227D01*
X100422512Y-129515683D01*
X100425808Y-129509976D01*
X100524178Y-129358500D01*
X100591791Y-129254385D01*
X100595641Y-129249085D01*
X100787456Y-129012213D01*
X100791842Y-129007344D01*
X101007344Y-128791842D01*
X101012213Y-128787456D01*
X101249085Y-128595641D01*
X101254385Y-128591791D01*
X101509982Y-128425804D01*
X101515683Y-128422512D01*
X101787227Y-128284154D01*
X101793234Y-128281479D01*
X102077758Y-128172260D01*
X102084008Y-128170229D01*
X102378380Y-128091353D01*
X102384826Y-128089983D01*
X102685822Y-128042310D01*
X102692370Y-128041622D01*
X102998371Y-128025585D01*
X103001644Y-128025500D01*
X117158557Y-128025500D01*
X117158560Y-128025500D01*
X117473942Y-127992352D01*
X117784132Y-127926419D01*
X117784133Y-127926418D01*
X117784136Y-127926418D01*
X118085725Y-127828426D01*
X118085725Y-127828425D01*
X118085730Y-127828424D01*
X118375433Y-127699440D01*
X118650067Y-127540880D01*
X118650072Y-127540876D01*
X118650076Y-127540874D01*
X118835134Y-127406421D01*
X118906622Y-127354482D01*
X119142287Y-127142287D01*
X119354482Y-126906622D01*
X119505247Y-126699112D01*
X119540874Y-126650076D01*
X119540876Y-126650072D01*
X119540880Y-126650067D01*
X119699440Y-126375433D01*
X119828424Y-126085730D01*
X119882543Y-125919171D01*
X119926418Y-125784136D01*
X119961639Y-125618433D01*
X119992352Y-125473942D01*
X120025500Y-125158560D01*
X120025500Y-125000000D01*
X120025500Y-124991715D01*
X120025500Y-124991714D01*
X120025500Y-108839943D01*
X126561780Y-108839943D01*
X126566220Y-108886917D01*
X126566500Y-108892850D01*
X126566500Y-116466146D01*
X126564751Y-116481988D01*
X126565044Y-116482016D01*
X126564298Y-116489908D01*
X126566469Y-116558974D01*
X126566500Y-116560953D01*
X126566500Y-116589851D01*
X126566501Y-116589872D01*
X126567378Y-116596820D01*
X126567844Y-116602732D01*
X126569326Y-116649888D01*
X126569327Y-116649893D01*
X126574977Y-116669339D01*
X126578986Y-116688697D01*
X126581525Y-116708793D01*
X126581526Y-116708799D01*
X126598893Y-116752662D01*
X126600816Y-116758279D01*
X126613982Y-116803593D01*
X126624294Y-116821031D01*
X126632988Y-116838779D01*
X126640444Y-116857609D01*
X126640450Y-116857620D01*
X126668177Y-116895783D01*
X126671437Y-116900746D01*
X126695460Y-116941365D01*
X126709779Y-116955684D01*
X126722617Y-116970714D01*
X126732156Y-116983843D01*
X126734528Y-116987107D01*
X126762794Y-117010491D01*
X126770886Y-117017185D01*
X126775267Y-117021171D01*
X127812596Y-118058500D01*
X128802801Y-119048705D01*
X128812768Y-119061145D01*
X128812995Y-119060958D01*
X128818047Y-119067065D01*
X128868436Y-119114383D01*
X128869825Y-119115729D01*
X128880066Y-119125970D01*
X128890274Y-119136179D01*
X128895816Y-119140478D01*
X128900329Y-119144333D01*
X128934727Y-119176634D01*
X128934728Y-119176634D01*
X128934730Y-119176636D01*
X128952477Y-119186392D01*
X128969007Y-119197250D01*
X128985007Y-119209661D01*
X129016184Y-119223152D01*
X129028299Y-119228395D01*
X129033633Y-119231007D01*
X129074988Y-119253743D01*
X129094610Y-119258781D01*
X129113311Y-119265183D01*
X129131903Y-119273229D01*
X129178518Y-119280611D01*
X129184290Y-119281806D01*
X129230018Y-119293548D01*
X129250279Y-119293548D01*
X129269987Y-119295098D01*
X129289991Y-119298267D01*
X129323507Y-119295099D01*
X129336958Y-119293828D01*
X129342890Y-119293548D01*
X172944868Y-119293548D01*
X173012989Y-119313550D01*
X173038505Y-119335238D01*
X173041815Y-119338914D01*
X173196316Y-119451166D01*
X173370780Y-119528842D01*
X173483257Y-119552749D01*
X173504757Y-119557320D01*
X173567231Y-119591049D01*
X173601552Y-119653198D01*
X173596824Y-119724037D01*
X173567655Y-119769662D01*
X170339225Y-122998092D01*
X170325376Y-123010062D01*
X170305943Y-123024530D01*
X170272007Y-123064971D01*
X170268300Y-123069017D01*
X170262421Y-123074897D01*
X170262414Y-123074905D01*
X170242430Y-123100177D01*
X170241276Y-123101594D01*
X170191964Y-123160364D01*
X170187935Y-123166491D01*
X170187880Y-123166455D01*
X170183825Y-123172820D01*
X170183882Y-123172855D01*
X170180030Y-123179099D01*
X170147609Y-123248623D01*
X170146812Y-123250270D01*
X170112393Y-123318806D01*
X170109882Y-123325707D01*
X170109820Y-123325684D01*
X170107343Y-123332810D01*
X170107404Y-123332831D01*
X170105096Y-123339795D01*
X170089574Y-123414960D01*
X170089178Y-123416747D01*
X170071500Y-123491341D01*
X170070648Y-123498634D01*
X170070581Y-123498626D01*
X170069814Y-123506126D01*
X170069881Y-123506132D01*
X170069241Y-123513443D01*
X170071473Y-123590174D01*
X170071500Y-123592006D01*
X170071500Y-126515500D01*
X170051498Y-126583621D01*
X169997842Y-126630114D01*
X169945500Y-126641500D01*
X169931350Y-126641500D01*
X169870803Y-126648009D01*
X169870795Y-126648011D01*
X169733797Y-126699110D01*
X169733792Y-126699112D01*
X169616738Y-126786738D01*
X169529112Y-126903792D01*
X169529111Y-126903795D01*
X169485000Y-127022058D01*
X169442453Y-127078893D01*
X169375932Y-127103703D01*
X169306558Y-127088611D01*
X169274246Y-127063363D01*
X169213240Y-126997094D01*
X169213239Y-126997093D01*
X169213237Y-126997091D01*
X169097003Y-126906622D01*
X169035576Y-126858811D01*
X168837574Y-126751658D01*
X168837572Y-126751657D01*
X168837571Y-126751656D01*
X168624639Y-126678557D01*
X168624630Y-126678555D01*
X168547029Y-126665606D01*
X168402569Y-126641500D01*
X168177431Y-126641500D01*
X168032971Y-126665606D01*
X167955369Y-126678555D01*
X167955360Y-126678557D01*
X167742428Y-126751656D01*
X167742426Y-126751658D01*
X167544426Y-126858810D01*
X167544424Y-126858811D01*
X167366762Y-126997091D01*
X167214279Y-127162729D01*
X167125483Y-127298643D01*
X167071479Y-127344731D01*
X167001131Y-127354306D01*
X166936774Y-127324329D01*
X166914517Y-127298643D01*
X166825720Y-127162729D01*
X166696221Y-127022058D01*
X166673240Y-126997094D01*
X166673239Y-126997093D01*
X166673237Y-126997091D01*
X166557003Y-126906622D01*
X166495576Y-126858811D01*
X166297574Y-126751658D01*
X166297572Y-126751657D01*
X166297571Y-126751656D01*
X166084639Y-126678557D01*
X166084630Y-126678555D01*
X166007029Y-126665606D01*
X165862569Y-126641500D01*
X165637431Y-126641500D01*
X165492971Y-126665606D01*
X165415369Y-126678555D01*
X165415360Y-126678557D01*
X165202428Y-126751656D01*
X165202426Y-126751658D01*
X165004426Y-126858810D01*
X165004424Y-126858811D01*
X164826762Y-126997091D01*
X164674279Y-127162729D01*
X164585483Y-127298643D01*
X164531479Y-127344731D01*
X164461131Y-127354306D01*
X164396774Y-127324329D01*
X164374517Y-127298643D01*
X164285720Y-127162729D01*
X164156221Y-127022058D01*
X164133240Y-126997094D01*
X164133239Y-126997093D01*
X164133237Y-126997091D01*
X164017003Y-126906622D01*
X163955576Y-126858811D01*
X163757574Y-126751658D01*
X163757572Y-126751657D01*
X163757571Y-126751656D01*
X163544639Y-126678557D01*
X163544630Y-126678555D01*
X163467029Y-126665606D01*
X163322569Y-126641500D01*
X163097431Y-126641500D01*
X162952971Y-126665606D01*
X162875369Y-126678555D01*
X162875360Y-126678557D01*
X162662428Y-126751656D01*
X162662426Y-126751658D01*
X162464426Y-126858810D01*
X162464424Y-126858811D01*
X162286762Y-126997091D01*
X162134279Y-127162729D01*
X162134279Y-127162730D01*
X162045482Y-127298643D01*
X161991478Y-127344731D01*
X161921130Y-127354306D01*
X161856773Y-127324328D01*
X161834516Y-127298642D01*
X161745724Y-127162734D01*
X161745720Y-127162729D01*
X161616221Y-127022058D01*
X161593240Y-126997094D01*
X161593239Y-126997093D01*
X161593237Y-126997091D01*
X161477003Y-126906622D01*
X161415576Y-126858811D01*
X161217574Y-126751658D01*
X161217572Y-126751657D01*
X161217571Y-126751656D01*
X161004639Y-126678557D01*
X161004630Y-126678555D01*
X160927029Y-126665606D01*
X160782569Y-126641500D01*
X160557431Y-126641500D01*
X160412971Y-126665606D01*
X160335369Y-126678555D01*
X160335360Y-126678557D01*
X160122428Y-126751656D01*
X160122426Y-126751658D01*
X159924426Y-126858810D01*
X159924424Y-126858811D01*
X159746762Y-126997091D01*
X159594279Y-127162729D01*
X159505483Y-127298643D01*
X159451479Y-127344731D01*
X159381131Y-127354306D01*
X159316774Y-127324329D01*
X159294517Y-127298643D01*
X159205720Y-127162729D01*
X159076221Y-127022058D01*
X159053240Y-126997094D01*
X159053239Y-126997093D01*
X159053237Y-126997091D01*
X158937003Y-126906622D01*
X158875576Y-126858811D01*
X158677574Y-126751658D01*
X158677572Y-126751657D01*
X158677571Y-126751656D01*
X158464639Y-126678557D01*
X158464630Y-126678555D01*
X158387029Y-126665606D01*
X158242569Y-126641500D01*
X158017431Y-126641500D01*
X157872971Y-126665606D01*
X157795369Y-126678555D01*
X157795360Y-126678557D01*
X157582428Y-126751656D01*
X157582426Y-126751658D01*
X157384426Y-126858810D01*
X157384424Y-126858811D01*
X157206762Y-126997091D01*
X157054279Y-127162729D01*
X156965483Y-127298643D01*
X156911479Y-127344731D01*
X156841131Y-127354306D01*
X156776774Y-127324329D01*
X156754517Y-127298643D01*
X156665720Y-127162729D01*
X156536221Y-127022058D01*
X156513240Y-126997094D01*
X156513239Y-126997093D01*
X156513237Y-126997091D01*
X156397003Y-126906622D01*
X156335576Y-126858811D01*
X156137574Y-126751658D01*
X156137572Y-126751657D01*
X156137571Y-126751656D01*
X155924639Y-126678557D01*
X155924630Y-126678555D01*
X155847029Y-126665606D01*
X155702569Y-126641500D01*
X155477431Y-126641500D01*
X155332971Y-126665606D01*
X155255369Y-126678555D01*
X155255360Y-126678557D01*
X155042428Y-126751656D01*
X155042426Y-126751658D01*
X154844426Y-126858810D01*
X154844424Y-126858811D01*
X154666762Y-126997091D01*
X154514279Y-127162729D01*
X154425483Y-127298643D01*
X154371479Y-127344731D01*
X154301131Y-127354306D01*
X154236774Y-127324329D01*
X154214517Y-127298643D01*
X154125720Y-127162729D01*
X153996221Y-127022058D01*
X153973240Y-126997094D01*
X153973239Y-126997093D01*
X153973237Y-126997091D01*
X153857003Y-126906622D01*
X153795576Y-126858811D01*
X153597574Y-126751658D01*
X153597572Y-126751657D01*
X153597571Y-126751656D01*
X153384639Y-126678557D01*
X153384630Y-126678555D01*
X153307029Y-126665606D01*
X153162569Y-126641500D01*
X152937431Y-126641500D01*
X152792971Y-126665606D01*
X152715369Y-126678555D01*
X152715360Y-126678557D01*
X152502428Y-126751656D01*
X152502426Y-126751658D01*
X152304426Y-126858810D01*
X152304424Y-126858811D01*
X152126762Y-126997091D01*
X151974279Y-127162729D01*
X151885483Y-127298643D01*
X151831479Y-127344731D01*
X151761131Y-127354306D01*
X151696774Y-127324329D01*
X151674517Y-127298643D01*
X151585720Y-127162729D01*
X151456221Y-127022058D01*
X151433240Y-126997094D01*
X151433239Y-126997093D01*
X151433237Y-126997091D01*
X151317003Y-126906622D01*
X151255576Y-126858811D01*
X151057574Y-126751658D01*
X151057572Y-126751657D01*
X151057571Y-126751656D01*
X150844639Y-126678557D01*
X150844630Y-126678555D01*
X150767029Y-126665606D01*
X150622569Y-126641500D01*
X150397431Y-126641500D01*
X150252971Y-126665606D01*
X150175369Y-126678555D01*
X150175360Y-126678557D01*
X149962428Y-126751656D01*
X149962426Y-126751658D01*
X149764426Y-126858810D01*
X149764424Y-126858811D01*
X149586762Y-126997091D01*
X149434279Y-127162729D01*
X149345183Y-127299101D01*
X149291179Y-127345189D01*
X149220831Y-127354764D01*
X149156474Y-127324786D01*
X149134217Y-127299100D01*
X149045327Y-127163044D01*
X148892902Y-126997465D01*
X148715301Y-126859232D01*
X148715300Y-126859231D01*
X148517371Y-126752117D01*
X148517369Y-126752116D01*
X148304512Y-126679043D01*
X148304501Y-126679040D01*
X148224000Y-126665606D01*
X148224000Y-127566325D01*
X148112315Y-127515320D01*
X148005763Y-127500000D01*
X147934237Y-127500000D01*
X147827685Y-127515320D01*
X147716000Y-127566325D01*
X147716000Y-126665606D01*
X147715999Y-126665606D01*
X147635498Y-126679040D01*
X147635487Y-126679043D01*
X147422630Y-126752116D01*
X147422628Y-126752117D01*
X147224699Y-126859231D01*
X147224698Y-126859232D01*
X147047097Y-126997465D01*
X146894674Y-127163041D01*
X146771580Y-127351451D01*
X146681179Y-127557543D01*
X146681176Y-127557550D01*
X146633455Y-127745999D01*
X146633456Y-127746000D01*
X147538884Y-127746000D01*
X147510507Y-127790156D01*
X147470000Y-127928111D01*
X147470000Y-128071889D01*
X147510507Y-128209844D01*
X147538884Y-128254000D01*
X146633455Y-128254000D01*
X146681176Y-128442449D01*
X146681179Y-128442456D01*
X146771580Y-128648548D01*
X146894674Y-128836958D01*
X147047097Y-129002534D01*
X147224698Y-129140767D01*
X147224699Y-129140768D01*
X147422628Y-129247882D01*
X147422630Y-129247883D01*
X147635483Y-129320955D01*
X147635492Y-129320957D01*
X147716000Y-129334391D01*
X147716000Y-128433674D01*
X147827685Y-128484680D01*
X147934237Y-128500000D01*
X148005763Y-128500000D01*
X148112315Y-128484680D01*
X148224000Y-128433674D01*
X148224000Y-129334390D01*
X148304507Y-129320957D01*
X148304516Y-129320955D01*
X148517369Y-129247883D01*
X148517371Y-129247882D01*
X148715300Y-129140768D01*
X148715301Y-129140767D01*
X148892902Y-129002534D01*
X149045327Y-128836955D01*
X149134217Y-128700899D01*
X149188220Y-128654810D01*
X149258568Y-128645235D01*
X149322925Y-128675212D01*
X149345183Y-128700898D01*
X149434279Y-128837270D01*
X149586762Y-129002908D01*
X149598748Y-129012237D01*
X149764424Y-129141189D01*
X149962426Y-129248342D01*
X149962427Y-129248342D01*
X149962428Y-129248343D01*
X149972012Y-129251633D01*
X150175365Y-129321444D01*
X150397431Y-129358500D01*
X150397435Y-129358500D01*
X150622565Y-129358500D01*
X150622569Y-129358500D01*
X150844635Y-129321444D01*
X151057574Y-129248342D01*
X151255576Y-129141189D01*
X151433240Y-129002906D01*
X151585722Y-128837268D01*
X151585927Y-128836955D01*
X151618279Y-128787436D01*
X151674518Y-128701354D01*
X151728520Y-128655268D01*
X151798868Y-128645692D01*
X151863225Y-128675669D01*
X151885480Y-128701353D01*
X151918607Y-128752058D01*
X151974275Y-128837265D01*
X151974279Y-128837270D01*
X152126762Y-129002908D01*
X152138748Y-129012237D01*
X152304424Y-129141189D01*
X152502426Y-129248342D01*
X152502427Y-129248342D01*
X152502428Y-129248343D01*
X152512012Y-129251633D01*
X152715365Y-129321444D01*
X152937431Y-129358500D01*
X152937435Y-129358500D01*
X153162565Y-129358500D01*
X153162569Y-129358500D01*
X153384635Y-129321444D01*
X153597574Y-129248342D01*
X153795576Y-129141189D01*
X153973240Y-129002906D01*
X154125722Y-128837268D01*
X154125927Y-128836955D01*
X154158279Y-128787436D01*
X154214518Y-128701354D01*
X154268520Y-128655268D01*
X154338868Y-128645692D01*
X154403225Y-128675669D01*
X154425480Y-128701353D01*
X154458607Y-128752058D01*
X154514275Y-128837265D01*
X154514279Y-128837270D01*
X154666762Y-129002908D01*
X154678748Y-129012237D01*
X154844424Y-129141189D01*
X155042426Y-129248342D01*
X155042427Y-129248342D01*
X155042428Y-129248343D01*
X155052012Y-129251633D01*
X155255365Y-129321444D01*
X155477431Y-129358500D01*
X155477435Y-129358500D01*
X155702565Y-129358500D01*
X155702569Y-129358500D01*
X155924635Y-129321444D01*
X156137574Y-129248342D01*
X156335576Y-129141189D01*
X156513240Y-129002906D01*
X156665722Y-128837268D01*
X156665927Y-128836955D01*
X156698279Y-128787436D01*
X156754518Y-128701354D01*
X156808520Y-128655268D01*
X156878868Y-128645692D01*
X156943225Y-128675669D01*
X156965480Y-128701353D01*
X156998607Y-128752058D01*
X157054275Y-128837265D01*
X157054279Y-128837270D01*
X157206762Y-129002908D01*
X157218748Y-129012237D01*
X157384424Y-129141189D01*
X157582426Y-129248342D01*
X157582427Y-129248342D01*
X157582428Y-129248343D01*
X157592012Y-129251633D01*
X157795365Y-129321444D01*
X158017431Y-129358500D01*
X158017435Y-129358500D01*
X158242565Y-129358500D01*
X158242569Y-129358500D01*
X158464635Y-129321444D01*
X158677574Y-129248342D01*
X158875576Y-129141189D01*
X159053240Y-129002906D01*
X159205722Y-128837268D01*
X159205927Y-128836955D01*
X159238279Y-128787436D01*
X159294518Y-128701354D01*
X159348520Y-128655268D01*
X159418868Y-128645692D01*
X159483225Y-128675669D01*
X159505480Y-128701353D01*
X159538607Y-128752058D01*
X159594275Y-128837265D01*
X159594279Y-128837270D01*
X159746762Y-129002908D01*
X159758748Y-129012237D01*
X159924424Y-129141189D01*
X160122426Y-129248342D01*
X160122427Y-129248342D01*
X160122428Y-129248343D01*
X160132012Y-129251633D01*
X160335365Y-129321444D01*
X160557431Y-129358500D01*
X160557435Y-129358500D01*
X160782565Y-129358500D01*
X160782569Y-129358500D01*
X161004635Y-129321444D01*
X161217574Y-129248342D01*
X161415576Y-129141189D01*
X161593240Y-129002906D01*
X161745722Y-128837268D01*
X161745927Y-128836955D01*
X161778279Y-128787436D01*
X161834518Y-128701354D01*
X161888520Y-128655268D01*
X161958868Y-128645692D01*
X162023225Y-128675669D01*
X162045480Y-128701353D01*
X162078607Y-128752058D01*
X162134275Y-128837265D01*
X162134279Y-128837270D01*
X162286762Y-129002908D01*
X162298748Y-129012237D01*
X162464424Y-129141189D01*
X162662426Y-129248342D01*
X162662427Y-129248342D01*
X162662428Y-129248343D01*
X162672012Y-129251633D01*
X162875365Y-129321444D01*
X163097431Y-129358500D01*
X163097435Y-129358500D01*
X163322565Y-129358500D01*
X163322569Y-129358500D01*
X163544635Y-129321444D01*
X163757574Y-129248342D01*
X163955576Y-129141189D01*
X164133240Y-129002906D01*
X164285722Y-128837268D01*
X164285927Y-128836955D01*
X164318279Y-128787436D01*
X164374518Y-128701354D01*
X164428520Y-128655268D01*
X164498868Y-128645692D01*
X164563225Y-128675669D01*
X164585480Y-128701353D01*
X164618607Y-128752058D01*
X164674275Y-128837265D01*
X164674279Y-128837270D01*
X164826762Y-129002908D01*
X164838748Y-129012237D01*
X165004424Y-129141189D01*
X165202426Y-129248342D01*
X165202427Y-129248342D01*
X165202428Y-129248343D01*
X165212012Y-129251633D01*
X165415365Y-129321444D01*
X165637431Y-129358500D01*
X165637435Y-129358500D01*
X165862565Y-129358500D01*
X165862569Y-129358500D01*
X166084635Y-129321444D01*
X166297574Y-129248342D01*
X166495576Y-129141189D01*
X166673240Y-129002906D01*
X166825722Y-128837268D01*
X166825927Y-128836955D01*
X166858279Y-128787436D01*
X166914518Y-128701354D01*
X166968520Y-128655268D01*
X167038868Y-128645692D01*
X167103225Y-128675669D01*
X167125480Y-128701353D01*
X167158607Y-128752058D01*
X167214275Y-128837265D01*
X167214279Y-128837270D01*
X167366762Y-129002908D01*
X167378748Y-129012237D01*
X167544424Y-129141189D01*
X167742426Y-129248342D01*
X167742427Y-129248342D01*
X167742428Y-129248343D01*
X167752012Y-129251633D01*
X167955365Y-129321444D01*
X168177431Y-129358500D01*
X168177435Y-129358500D01*
X168402565Y-129358500D01*
X168402569Y-129358500D01*
X168624635Y-129321444D01*
X168837574Y-129248342D01*
X169035576Y-129141189D01*
X169213240Y-129002906D01*
X169274245Y-128936637D01*
X169335096Y-128900067D01*
X169406061Y-128902200D01*
X169464606Y-128942362D01*
X169485000Y-128977941D01*
X169529111Y-129096204D01*
X169529112Y-129096207D01*
X169616738Y-129213261D01*
X169733792Y-129300887D01*
X169733794Y-129300888D01*
X169733796Y-129300889D01*
X169787600Y-129320957D01*
X169870795Y-129351988D01*
X169870803Y-129351990D01*
X169931350Y-129358499D01*
X169931355Y-129358499D01*
X169931362Y-129358500D01*
X169931368Y-129358500D01*
X171728632Y-129358500D01*
X171728638Y-129358500D01*
X171728645Y-129358499D01*
X171728649Y-129358499D01*
X171789196Y-129351990D01*
X171789199Y-129351989D01*
X171789201Y-129351989D01*
X171794714Y-129349933D01*
X171808045Y-129344960D01*
X171926204Y-129300889D01*
X171996399Y-129248342D01*
X172043261Y-129213261D01*
X172130887Y-129096207D01*
X172130887Y-129096206D01*
X172130889Y-129096204D01*
X172181989Y-128959201D01*
X172183800Y-128942362D01*
X172188499Y-128898649D01*
X172188500Y-128898632D01*
X172188500Y-127101367D01*
X172188499Y-127101350D01*
X172181990Y-127040803D01*
X172181988Y-127040795D01*
X172131943Y-126906622D01*
X172130889Y-126903796D01*
X172130888Y-126903794D01*
X172130887Y-126903792D01*
X172043261Y-126786738D01*
X171926207Y-126699112D01*
X171926202Y-126699110D01*
X171789204Y-126648011D01*
X171789196Y-126648009D01*
X171728649Y-126641500D01*
X171728638Y-126641500D01*
X171714500Y-126641500D01*
X171646379Y-126621498D01*
X171599886Y-126567842D01*
X171588500Y-126515500D01*
X171588500Y-123946370D01*
X171608502Y-123878249D01*
X171625400Y-123857280D01*
X176590778Y-118891901D01*
X176604617Y-118879941D01*
X176624058Y-118865469D01*
X176658001Y-118825015D01*
X176661700Y-118820979D01*
X176667580Y-118815101D01*
X176687621Y-118789753D01*
X176688674Y-118788461D01*
X176738032Y-118729640D01*
X176738033Y-118729637D01*
X176738037Y-118729633D01*
X176742066Y-118723508D01*
X176742122Y-118723545D01*
X176746171Y-118717190D01*
X176746113Y-118717154D01*
X176749963Y-118710911D01*
X176749962Y-118710911D01*
X176749967Y-118710906D01*
X176782409Y-118641330D01*
X176783192Y-118639715D01*
X176817609Y-118571188D01*
X176817610Y-118571181D01*
X176820120Y-118564289D01*
X176820183Y-118564312D01*
X176822657Y-118557196D01*
X176822593Y-118557175D01*
X176824899Y-118550211D01*
X176824902Y-118550207D01*
X176840431Y-118474991D01*
X176840788Y-118473383D01*
X176858500Y-118398656D01*
X176858500Y-118398653D01*
X176859352Y-118391368D01*
X176859418Y-118391375D01*
X176860184Y-118383877D01*
X176860118Y-118383872D01*
X176860756Y-118376566D01*
X176860758Y-118376558D01*
X176859442Y-118331355D01*
X176858527Y-118299858D01*
X176858500Y-118298026D01*
X176858500Y-117836999D01*
X176875380Y-117774000D01*
X176934527Y-117671556D01*
X176993542Y-117489928D01*
X177013504Y-117300000D01*
X176993542Y-117110072D01*
X176934527Y-116928444D01*
X176839040Y-116763056D01*
X176839038Y-116763054D01*
X176839034Y-116763048D01*
X176711255Y-116621135D01*
X176556752Y-116508882D01*
X176382288Y-116431206D01*
X176195487Y-116391500D01*
X176004513Y-116391500D01*
X175817711Y-116431206D01*
X175643245Y-116508883D01*
X175631476Y-116517435D01*
X175564609Y-116541294D01*
X175557413Y-116541500D01*
X171442587Y-116541500D01*
X171374466Y-116521498D01*
X171368524Y-116517435D01*
X171356754Y-116508883D01*
X171295295Y-116481520D01*
X171182288Y-116431206D01*
X170995487Y-116391500D01*
X170804513Y-116391500D01*
X170617711Y-116431206D01*
X170443245Y-116508883D01*
X170431476Y-116517435D01*
X170364609Y-116541294D01*
X170357413Y-116541500D01*
X166292587Y-116541500D01*
X166224466Y-116521498D01*
X166218524Y-116517435D01*
X166206754Y-116508883D01*
X166145295Y-116481520D01*
X166032288Y-116431206D01*
X165845487Y-116391500D01*
X165654513Y-116391500D01*
X165467711Y-116431206D01*
X165293245Y-116508883D01*
X165281476Y-116517435D01*
X165214609Y-116541294D01*
X165207413Y-116541500D01*
X161142587Y-116541500D01*
X161074466Y-116521498D01*
X161068524Y-116517435D01*
X161056754Y-116508883D01*
X160995295Y-116481520D01*
X160882288Y-116431206D01*
X160695487Y-116391500D01*
X160504513Y-116391500D01*
X160317711Y-116431206D01*
X160143245Y-116508883D01*
X160131476Y-116517435D01*
X160064609Y-116541294D01*
X160057413Y-116541500D01*
X155942587Y-116541500D01*
X155874466Y-116521498D01*
X155868524Y-116517435D01*
X155856754Y-116508883D01*
X155795295Y-116481520D01*
X155682288Y-116431206D01*
X155495487Y-116391500D01*
X155304513Y-116391500D01*
X155117711Y-116431206D01*
X154943245Y-116508883D01*
X154931476Y-116517435D01*
X154864609Y-116541294D01*
X154857413Y-116541500D01*
X154337349Y-116541500D01*
X154269228Y-116521498D01*
X154222735Y-116467842D01*
X154212631Y-116397568D01*
X154235412Y-116341440D01*
X154239041Y-116336445D01*
X154259794Y-116300500D01*
X154334527Y-116171059D01*
X154393542Y-115989431D01*
X154411209Y-115821331D01*
X154438222Y-115755676D01*
X154496443Y-115715046D01*
X154536519Y-115708503D01*
X169641144Y-115708503D01*
X169656985Y-115710252D01*
X169657013Y-115709959D01*
X169664898Y-115710703D01*
X169664906Y-115710705D01*
X169726205Y-115708778D01*
X169733973Y-115708534D01*
X169735952Y-115708503D01*
X169764848Y-115708503D01*
X169764853Y-115708503D01*
X169771815Y-115707622D01*
X169777716Y-115707157D01*
X169824886Y-115705676D01*
X169844344Y-115700022D01*
X169863691Y-115696016D01*
X169883794Y-115693477D01*
X169927676Y-115676102D01*
X169933271Y-115674186D01*
X169961813Y-115665894D01*
X169978588Y-115661022D01*
X169978592Y-115661020D01*
X169996023Y-115650711D01*
X170013777Y-115642012D01*
X170032614Y-115634555D01*
X170070783Y-115606821D01*
X170075741Y-115603565D01*
X170116359Y-115579545D01*
X170130682Y-115565221D01*
X170145721Y-115552377D01*
X170162104Y-115540475D01*
X170192185Y-115504111D01*
X170196175Y-115499728D01*
X170750501Y-114945404D01*
X170812813Y-114911379D01*
X170839596Y-114908500D01*
X170895487Y-114908500D01*
X171082288Y-114868794D01*
X171256752Y-114791118D01*
X171411253Y-114678866D01*
X171416035Y-114673555D01*
X171539034Y-114536951D01*
X171539035Y-114536949D01*
X171539040Y-114536944D01*
X171634527Y-114371556D01*
X171693542Y-114189928D01*
X171713504Y-114000000D01*
X171693542Y-113810072D01*
X171634527Y-113628444D01*
X171539040Y-113463056D01*
X171539038Y-113463054D01*
X171539034Y-113463048D01*
X171411255Y-113321135D01*
X171256752Y-113208882D01*
X171082288Y-113131206D01*
X170895487Y-113091500D01*
X170704513Y-113091500D01*
X170517711Y-113131206D01*
X170343247Y-113208882D01*
X170188744Y-113321135D01*
X170060965Y-113463048D01*
X170060958Y-113463058D01*
X169965476Y-113628438D01*
X169965473Y-113628445D01*
X169906457Y-113810072D01*
X169889093Y-113975290D01*
X169862080Y-114040947D01*
X169852879Y-114051215D01*
X169499497Y-114404598D01*
X169437184Y-114438623D01*
X169410401Y-114441503D01*
X166585224Y-114441503D01*
X166517103Y-114421501D01*
X166470610Y-114367845D01*
X166460506Y-114297571D01*
X166465391Y-114276566D01*
X166493542Y-114189927D01*
X166503939Y-114091003D01*
X166513504Y-114000000D01*
X166493542Y-113810072D01*
X166434527Y-113628444D01*
X166339040Y-113463056D01*
X166339038Y-113463054D01*
X166339034Y-113463048D01*
X166211255Y-113321135D01*
X166056752Y-113208882D01*
X165882288Y-113131206D01*
X165695487Y-113091500D01*
X165504513Y-113091500D01*
X165317711Y-113131206D01*
X165143247Y-113208882D01*
X164988744Y-113321135D01*
X164860965Y-113463048D01*
X164860958Y-113463058D01*
X164765476Y-113628438D01*
X164765473Y-113628445D01*
X164706457Y-113810072D01*
X164699248Y-113878673D01*
X164672235Y-113944330D01*
X164614014Y-113984960D01*
X164573938Y-113991503D01*
X161436572Y-113991503D01*
X161368451Y-113971501D01*
X161321958Y-113917845D01*
X161311262Y-113878673D01*
X161308248Y-113850000D01*
X161293542Y-113710072D01*
X161234527Y-113528444D01*
X161139040Y-113363056D01*
X161139038Y-113363054D01*
X161139034Y-113363048D01*
X161011255Y-113221135D01*
X160856752Y-113108882D01*
X160682288Y-113031206D01*
X160495487Y-112991500D01*
X160304513Y-112991500D01*
X160117711Y-113031206D01*
X159943247Y-113108882D01*
X159788744Y-113221135D01*
X159660965Y-113363048D01*
X159660961Y-113363054D01*
X159660960Y-113363056D01*
X159603225Y-113463056D01*
X159594306Y-113478504D01*
X159542923Y-113527497D01*
X159485187Y-113541503D01*
X146414903Y-113541503D01*
X146346782Y-113521501D01*
X146325808Y-113504598D01*
X145707549Y-112886339D01*
X145697584Y-112873901D01*
X145697357Y-112874090D01*
X145692306Y-112867984D01*
X145692305Y-112867982D01*
X145641931Y-112820678D01*
X145640542Y-112819332D01*
X145627176Y-112805966D01*
X145620081Y-112798870D01*
X145620077Y-112798866D01*
X145614530Y-112794563D01*
X145610022Y-112790712D01*
X145575630Y-112758417D01*
X145575624Y-112758413D01*
X145557868Y-112748651D01*
X145541352Y-112737802D01*
X145525346Y-112725386D01*
X145494594Y-112712078D01*
X145482045Y-112706648D01*
X145476713Y-112704036D01*
X145435366Y-112681305D01*
X145415741Y-112676266D01*
X145397041Y-112669864D01*
X145396828Y-112669772D01*
X145378450Y-112661819D01*
X145378448Y-112661818D01*
X145378447Y-112661818D01*
X145331847Y-112654437D01*
X145326034Y-112653233D01*
X145280335Y-112641500D01*
X145260081Y-112641500D01*
X145240371Y-112639949D01*
X145220362Y-112636780D01*
X145220361Y-112636780D01*
X145173388Y-112641220D01*
X145167455Y-112641500D01*
X140089595Y-112641500D01*
X140021474Y-112621498D01*
X140000500Y-112604595D01*
X137320682Y-109924777D01*
X137286656Y-109862465D01*
X137291721Y-109791650D01*
X137334268Y-109734814D01*
X137335597Y-109733833D01*
X137411253Y-109678866D01*
X137539040Y-109536944D01*
X137634527Y-109371556D01*
X137693542Y-109189928D01*
X137713504Y-109000000D01*
X137693542Y-108810072D01*
X137634527Y-108628444D01*
X137561776Y-108502435D01*
X137539042Y-108463059D01*
X137539041Y-108463058D01*
X137539040Y-108463056D01*
X137465863Y-108381784D01*
X137435146Y-108317776D01*
X137433500Y-108297474D01*
X137433500Y-106051197D01*
X179308012Y-106051197D01*
X179368600Y-106093622D01*
X179568092Y-106186647D01*
X179568096Y-106186649D01*
X179780712Y-106243619D01*
X180000000Y-106262804D01*
X180219287Y-106243619D01*
X180431903Y-106186649D01*
X180431912Y-106186645D01*
X180631405Y-106093619D01*
X180631412Y-106093615D01*
X180691986Y-106051198D01*
X180691986Y-106051197D01*
X180000000Y-105359210D01*
X179999999Y-105359210D01*
X179308012Y-106051196D01*
X179308012Y-106051197D01*
X137433500Y-106051197D01*
X137433500Y-105000000D01*
X178737195Y-105000000D01*
X178756380Y-105219287D01*
X178813350Y-105431903D01*
X178813352Y-105431907D01*
X178906378Y-105631402D01*
X178948800Y-105691986D01*
X178948802Y-105691986D01*
X179611487Y-105029302D01*
X179646372Y-105029302D01*
X179675047Y-105142538D01*
X179738936Y-105240327D01*
X179831115Y-105312072D01*
X179941595Y-105350000D01*
X180029005Y-105350000D01*
X180115216Y-105335614D01*
X180217947Y-105280019D01*
X180297060Y-105194079D01*
X180343982Y-105087108D01*
X180351200Y-104999999D01*
X180359210Y-104999999D01*
X181051197Y-105691986D01*
X181051198Y-105691986D01*
X181093615Y-105631412D01*
X181093619Y-105631405D01*
X181186645Y-105431912D01*
X181186649Y-105431903D01*
X181243619Y-105219287D01*
X181262804Y-104999999D01*
X181243619Y-104780712D01*
X181186649Y-104568096D01*
X181186647Y-104568092D01*
X181093621Y-104368598D01*
X181051198Y-104308012D01*
X181051196Y-104308012D01*
X180359210Y-104999999D01*
X180351200Y-104999999D01*
X180353628Y-104970698D01*
X180324953Y-104857462D01*
X180261064Y-104759673D01*
X180168885Y-104687928D01*
X180058405Y-104650000D01*
X179970995Y-104650000D01*
X179884784Y-104664386D01*
X179782053Y-104719981D01*
X179702940Y-104805921D01*
X179656018Y-104912892D01*
X179646372Y-105029302D01*
X179611487Y-105029302D01*
X179640789Y-105000000D01*
X179640789Y-104999999D01*
X178948801Y-104308012D01*
X178906378Y-104368598D01*
X178813352Y-104568092D01*
X178813350Y-104568096D01*
X178756380Y-104780712D01*
X178737195Y-105000000D01*
X137433500Y-105000000D01*
X137433500Y-103948801D01*
X179308011Y-103948801D01*
X179999999Y-104640789D01*
X180000000Y-104640789D01*
X180691986Y-103948801D01*
X180691986Y-103948800D01*
X180631401Y-103906378D01*
X180631402Y-103906378D01*
X180431907Y-103813352D01*
X180431903Y-103813350D01*
X180219287Y-103756380D01*
X180000000Y-103737195D01*
X179780712Y-103756380D01*
X179568096Y-103813350D01*
X179568092Y-103813352D01*
X179368598Y-103906378D01*
X179308011Y-103948801D01*
X137433500Y-103948801D01*
X137433500Y-96514594D01*
X137453502Y-96446473D01*
X137470405Y-96425499D01*
X139685500Y-94210405D01*
X139747812Y-94176379D01*
X139774595Y-94173500D01*
X159704719Y-94173500D01*
X159720560Y-94175249D01*
X159720588Y-94174956D01*
X159728473Y-94175700D01*
X159728481Y-94175702D01*
X159789780Y-94173775D01*
X159797548Y-94173531D01*
X159799527Y-94173500D01*
X159828423Y-94173500D01*
X159828428Y-94173500D01*
X159835390Y-94172619D01*
X159841291Y-94172154D01*
X159888461Y-94170673D01*
X159907919Y-94165019D01*
X159927266Y-94161013D01*
X159947369Y-94158474D01*
X159991251Y-94141099D01*
X159996846Y-94139183D01*
X160025388Y-94130891D01*
X160042163Y-94126019D01*
X160042167Y-94126017D01*
X160059598Y-94115708D01*
X160077352Y-94107009D01*
X160096189Y-94099552D01*
X160134358Y-94071818D01*
X160139316Y-94068562D01*
X160179934Y-94044542D01*
X160194257Y-94030218D01*
X160209296Y-94017374D01*
X160225679Y-94005472D01*
X160255760Y-93969108D01*
X160259739Y-93964735D01*
X160479071Y-93745404D01*
X160541384Y-93711379D01*
X160568167Y-93708500D01*
X160624059Y-93708500D01*
X160810860Y-93668794D01*
X160985324Y-93591118D01*
X161139825Y-93478866D01*
X161267612Y-93336944D01*
X161363099Y-93171556D01*
X161422114Y-92989928D01*
X161442076Y-92800000D01*
X161422114Y-92610072D01*
X161410209Y-92573435D01*
X161408182Y-92502470D01*
X161444844Y-92441672D01*
X161508555Y-92410346D01*
X161530043Y-92408500D01*
X169460405Y-92408500D01*
X169528526Y-92428502D01*
X169549501Y-92445405D01*
X169852878Y-92748783D01*
X169886903Y-92811095D01*
X169889092Y-92824707D01*
X169906457Y-92989927D01*
X169926555Y-93051779D01*
X169965473Y-93171556D01*
X169981955Y-93200104D01*
X170060958Y-93336941D01*
X170060965Y-93336951D01*
X170188744Y-93478864D01*
X170188747Y-93478866D01*
X170343248Y-93591118D01*
X170517712Y-93668794D01*
X170704513Y-93708500D01*
X170895487Y-93708500D01*
X171082288Y-93668794D01*
X171256752Y-93591118D01*
X171411253Y-93478866D01*
X171539040Y-93336944D01*
X171634527Y-93171556D01*
X171693542Y-92989928D01*
X171713504Y-92800000D01*
X171693542Y-92610072D01*
X171634527Y-92428444D01*
X171539040Y-92263056D01*
X171539038Y-92263054D01*
X171539034Y-92263048D01*
X171411255Y-92121135D01*
X171256752Y-92008882D01*
X171082288Y-91931206D01*
X170895487Y-91891500D01*
X170839594Y-91891500D01*
X170771473Y-91871498D01*
X170750499Y-91854595D01*
X170282247Y-91386343D01*
X170272280Y-91373902D01*
X170272053Y-91374091D01*
X170266999Y-91367981D01*
X170216626Y-91320678D01*
X170215236Y-91319331D01*
X170204990Y-91309085D01*
X170194776Y-91298870D01*
X170194772Y-91298866D01*
X170189225Y-91294563D01*
X170184717Y-91290712D01*
X170150325Y-91258417D01*
X170150319Y-91258413D01*
X170132563Y-91248651D01*
X170116047Y-91237802D01*
X170100041Y-91225386D01*
X170069289Y-91212078D01*
X170056740Y-91206648D01*
X170051408Y-91204036D01*
X170010061Y-91181305D01*
X169990436Y-91176266D01*
X169971736Y-91169864D01*
X169959777Y-91164689D01*
X169953145Y-91161819D01*
X169953143Y-91161818D01*
X169953142Y-91161818D01*
X169906542Y-91154437D01*
X169900729Y-91153233D01*
X169855030Y-91141500D01*
X169834776Y-91141500D01*
X169815066Y-91139949D01*
X169795057Y-91136780D01*
X169795056Y-91136780D01*
X169748083Y-91141220D01*
X169742150Y-91141500D01*
X155836572Y-91141500D01*
X155768451Y-91121498D01*
X155721958Y-91067842D01*
X155711262Y-91028670D01*
X155702749Y-90947670D01*
X155715521Y-90877832D01*
X155764024Y-90825985D01*
X155828059Y-90808500D01*
X172460406Y-90808500D01*
X172528527Y-90828502D01*
X172549500Y-90845404D01*
X173072076Y-91367981D01*
X173592755Y-91888660D01*
X173602720Y-91901097D01*
X173602947Y-91900910D01*
X173607999Y-91907017D01*
X173658372Y-91954320D01*
X173659761Y-91955666D01*
X173670008Y-91965914D01*
X173680224Y-91976130D01*
X173680228Y-91976133D01*
X173680230Y-91976135D01*
X173685782Y-91980442D01*
X173690269Y-91984273D01*
X173712959Y-92005581D01*
X173724677Y-92016585D01*
X173724679Y-92016586D01*
X173742428Y-92026343D01*
X173758953Y-92037198D01*
X173774959Y-92049614D01*
X173816686Y-92067670D01*
X173818262Y-92068352D01*
X173823583Y-92070958D01*
X173864940Y-92093695D01*
X173864948Y-92093697D01*
X173884558Y-92098732D01*
X173903267Y-92105137D01*
X173921855Y-92113181D01*
X173945136Y-92116868D01*
X174009289Y-92147278D01*
X174019063Y-92157005D01*
X174038748Y-92178867D01*
X174108191Y-92229320D01*
X174193248Y-92291118D01*
X174367712Y-92368794D01*
X174554513Y-92408500D01*
X174745487Y-92408500D01*
X174932288Y-92368794D01*
X175106752Y-92291118D01*
X175261253Y-92178866D01*
X175313235Y-92121134D01*
X175389034Y-92036951D01*
X175389035Y-92036949D01*
X175389040Y-92036944D01*
X175484527Y-91871556D01*
X175543542Y-91689928D01*
X175563504Y-91500000D01*
X175543542Y-91310072D01*
X175484527Y-91128444D01*
X175389040Y-90963056D01*
X175389038Y-90963054D01*
X175389034Y-90963048D01*
X175261255Y-90821135D01*
X175106752Y-90708882D01*
X174932288Y-90631206D01*
X174745487Y-90591500D01*
X174554513Y-90591500D01*
X174367709Y-90631206D01*
X174280341Y-90670105D01*
X174209974Y-90679539D01*
X174145677Y-90649432D01*
X174139997Y-90644093D01*
X173919500Y-90423595D01*
X173885475Y-90361283D01*
X173890540Y-90290467D01*
X173933087Y-90233632D01*
X173999608Y-90208821D01*
X174008596Y-90208500D01*
X175543129Y-90208500D01*
X175611250Y-90228502D01*
X175617187Y-90232562D01*
X175628964Y-90241118D01*
X175803428Y-90318794D01*
X175990229Y-90358500D01*
X176181203Y-90358500D01*
X176368004Y-90318794D01*
X176542468Y-90241118D01*
X176696969Y-90128866D01*
X176698724Y-90126917D01*
X176824750Y-89986951D01*
X176824751Y-89986949D01*
X176824756Y-89986944D01*
X176920243Y-89821556D01*
X176979258Y-89639928D01*
X176999220Y-89450000D01*
X176979258Y-89260072D01*
X176920243Y-89078444D01*
X176824756Y-88913056D01*
X176824754Y-88913054D01*
X176824750Y-88913048D01*
X176696971Y-88771135D01*
X176542468Y-88658882D01*
X176368004Y-88581206D01*
X176181203Y-88541500D01*
X175990229Y-88541500D01*
X175803427Y-88581206D01*
X175628961Y-88658883D01*
X175617192Y-88667435D01*
X175550325Y-88691294D01*
X175543129Y-88691500D01*
X171492587Y-88691500D01*
X171424466Y-88671498D01*
X171418524Y-88667435D01*
X171406754Y-88658883D01*
X171232288Y-88581206D01*
X171045487Y-88541500D01*
X170854513Y-88541500D01*
X170667711Y-88581206D01*
X170493245Y-88658883D01*
X170481476Y-88667435D01*
X170414609Y-88691294D01*
X170407413Y-88691500D01*
X167752733Y-88691500D01*
X167684612Y-88671498D01*
X167638119Y-88617842D01*
X167628015Y-88547568D01*
X167632900Y-88526563D01*
X167693542Y-88339927D01*
X167713504Y-88150000D01*
X167693542Y-87960072D01*
X167634527Y-87778444D01*
X167539040Y-87613056D01*
X167539038Y-87613054D01*
X167539034Y-87613048D01*
X167411255Y-87471135D01*
X167256752Y-87358882D01*
X167082288Y-87281206D01*
X166895487Y-87241500D01*
X166704513Y-87241500D01*
X166517711Y-87281206D01*
X166343247Y-87358882D01*
X166188747Y-87471133D01*
X166185437Y-87474810D01*
X166124991Y-87512050D01*
X166091800Y-87516500D01*
X129433849Y-87516500D01*
X129418010Y-87514751D01*
X129417983Y-87515045D01*
X129410091Y-87514299D01*
X129341044Y-87516469D01*
X129339065Y-87516500D01*
X129310144Y-87516500D01*
X129303172Y-87517379D01*
X129297265Y-87517844D01*
X129250110Y-87519326D01*
X129250105Y-87519327D01*
X129230660Y-87524977D01*
X129211302Y-87528986D01*
X129191207Y-87531524D01*
X129191205Y-87531525D01*
X129147324Y-87548897D01*
X129141709Y-87550819D01*
X129096410Y-87563980D01*
X129096404Y-87563982D01*
X129078966Y-87574295D01*
X129061220Y-87582989D01*
X129042381Y-87590448D01*
X129042380Y-87590449D01*
X129004213Y-87618178D01*
X128999252Y-87621437D01*
X128958637Y-87645458D01*
X128944307Y-87659787D01*
X128929281Y-87672620D01*
X128912895Y-87684526D01*
X128912894Y-87684526D01*
X128882818Y-87720880D01*
X128878823Y-87725271D01*
X127011336Y-89592757D01*
X126998901Y-89602721D01*
X126999089Y-89602948D01*
X126992979Y-89608002D01*
X126945694Y-89658355D01*
X126944319Y-89659774D01*
X126923863Y-89680231D01*
X126919560Y-89685777D01*
X126915714Y-89690279D01*
X126883417Y-89724674D01*
X126883411Y-89724683D01*
X126873651Y-89742435D01*
X126862803Y-89758950D01*
X126850386Y-89774958D01*
X126831645Y-89818264D01*
X126829034Y-89823594D01*
X126806305Y-89864939D01*
X126806303Y-89864944D01*
X126801267Y-89884559D01*
X126794864Y-89903262D01*
X126786819Y-89921852D01*
X126779437Y-89968456D01*
X126778233Y-89974268D01*
X126766500Y-90019968D01*
X126766500Y-90040223D01*
X126764949Y-90059933D01*
X126761780Y-90079942D01*
X126761780Y-90079943D01*
X126766220Y-90126917D01*
X126766500Y-90132850D01*
X126766499Y-96416146D01*
X126764751Y-96431988D01*
X126765044Y-96432016D01*
X126764298Y-96439908D01*
X126766469Y-96508974D01*
X126766500Y-96510953D01*
X126766500Y-96539851D01*
X126766501Y-96539872D01*
X126767378Y-96546820D01*
X126767844Y-96552732D01*
X126769326Y-96599888D01*
X126769327Y-96599893D01*
X126774977Y-96619339D01*
X126778986Y-96638697D01*
X126781525Y-96658793D01*
X126781526Y-96658799D01*
X126798893Y-96702662D01*
X126800816Y-96708279D01*
X126813982Y-96753593D01*
X126824294Y-96771031D01*
X126832988Y-96788779D01*
X126840444Y-96807609D01*
X126840450Y-96807620D01*
X126868177Y-96845783D01*
X126871437Y-96850746D01*
X126895460Y-96891365D01*
X126909779Y-96905684D01*
X126922617Y-96920714D01*
X126934526Y-96937104D01*
X126934530Y-96937109D01*
X126944584Y-96945426D01*
X126984323Y-97004260D01*
X126989579Y-97029340D01*
X127006457Y-97189927D01*
X127036526Y-97282470D01*
X127065473Y-97371556D01*
X127065476Y-97371561D01*
X127160958Y-97536941D01*
X127160965Y-97536951D01*
X127288744Y-97678864D01*
X127288747Y-97678866D01*
X127443248Y-97791118D01*
X127617712Y-97868794D01*
X127804513Y-97908500D01*
X127995487Y-97908500D01*
X128182288Y-97868794D01*
X128356752Y-97791118D01*
X128511253Y-97678866D01*
X128556568Y-97628539D01*
X128639034Y-97536951D01*
X128639035Y-97536949D01*
X128639040Y-97536944D01*
X128734527Y-97371556D01*
X128793542Y-97189928D01*
X128813504Y-97000000D01*
X128793542Y-96810072D01*
X128734527Y-96628444D01*
X128639040Y-96463056D01*
X128639038Y-96463054D01*
X128639034Y-96463048D01*
X128511255Y-96321135D01*
X128356752Y-96208882D01*
X128182288Y-96131206D01*
X128133301Y-96120793D01*
X128070828Y-96087064D01*
X128036508Y-96024914D01*
X128033500Y-95997547D01*
X128033500Y-90982117D01*
X128053502Y-90913996D01*
X128107158Y-90867503D01*
X128177432Y-90857399D01*
X128235748Y-90881807D01*
X128368936Y-90983054D01*
X128458733Y-91024598D01*
X128512157Y-91071354D01*
X128531823Y-91139572D01*
X128527869Y-91170279D01*
X128524270Y-91184300D01*
X128517864Y-91203011D01*
X128509819Y-91221601D01*
X128502437Y-91268205D01*
X128501233Y-91274017D01*
X128489500Y-91319717D01*
X128489500Y-91339972D01*
X128487949Y-91359682D01*
X128484780Y-91379691D01*
X128484780Y-91379692D01*
X128489220Y-91426666D01*
X128489500Y-91432599D01*
X128489500Y-92679146D01*
X128487751Y-92694988D01*
X128488044Y-92695016D01*
X128487298Y-92702908D01*
X128489469Y-92771974D01*
X128489500Y-92773953D01*
X128489500Y-92802851D01*
X128489501Y-92802872D01*
X128490378Y-92809820D01*
X128490844Y-92815732D01*
X128492326Y-92862888D01*
X128492327Y-92862893D01*
X128497977Y-92882339D01*
X128501986Y-92901697D01*
X128504525Y-92921793D01*
X128504526Y-92921799D01*
X128521893Y-92965662D01*
X128523816Y-92971279D01*
X128536982Y-93016593D01*
X128547294Y-93034031D01*
X128555988Y-93051779D01*
X128563444Y-93070609D01*
X128563450Y-93070620D01*
X128591177Y-93108783D01*
X128594437Y-93113746D01*
X128618460Y-93154365D01*
X128632779Y-93168684D01*
X128645617Y-93183714D01*
X128655156Y-93196843D01*
X128657528Y-93200107D01*
X128685794Y-93223491D01*
X128693886Y-93230185D01*
X128698267Y-93234171D01*
X128931873Y-93467778D01*
X128931874Y-93467778D01*
X128965900Y-93530090D01*
X128964486Y-93589481D01*
X128954023Y-93628531D01*
X128954022Y-93628536D01*
X128954022Y-93628537D01*
X128934647Y-93850000D01*
X128954022Y-94071463D01*
X128991252Y-94210405D01*
X129011559Y-94286193D01*
X129011561Y-94286199D01*
X129105511Y-94487675D01*
X129105512Y-94487677D01*
X129233016Y-94669772D01*
X129233025Y-94669783D01*
X129324146Y-94760904D01*
X129358172Y-94823216D01*
X129353107Y-94894031D01*
X129324147Y-94939094D01*
X129233020Y-95030222D01*
X129105512Y-95212323D01*
X129105512Y-95212324D01*
X129011560Y-95413804D01*
X128954022Y-95628537D01*
X128934647Y-95850000D01*
X128954022Y-96071463D01*
X128990844Y-96208882D01*
X129011559Y-96286193D01*
X129011561Y-96286199D01*
X129105511Y-96487675D01*
X129105512Y-96487677D01*
X129233016Y-96669772D01*
X129233025Y-96669783D01*
X129324146Y-96760904D01*
X129358172Y-96823216D01*
X129353107Y-96894031D01*
X129324147Y-96939094D01*
X129233020Y-97030222D01*
X129105512Y-97212323D01*
X129031258Y-97371561D01*
X129011560Y-97413804D01*
X128954022Y-97628537D01*
X128934647Y-97850000D01*
X128954022Y-98071463D01*
X128978092Y-98161293D01*
X129011559Y-98286193D01*
X129011561Y-98286199D01*
X129105511Y-98487675D01*
X129105512Y-98487677D01*
X129233016Y-98669772D01*
X129233025Y-98669783D01*
X129324146Y-98760904D01*
X129358172Y-98823216D01*
X129353107Y-98894031D01*
X129324147Y-98939094D01*
X129233020Y-99030222D01*
X129105512Y-99212323D01*
X129011561Y-99413801D01*
X129011559Y-99413806D01*
X128984856Y-99513462D01*
X128954022Y-99628537D01*
X128934647Y-99850000D01*
X128954022Y-100071463D01*
X129000273Y-100244074D01*
X129011559Y-100286193D01*
X129011561Y-100286199D01*
X129105511Y-100487675D01*
X129105512Y-100487677D01*
X129233016Y-100669772D01*
X129233025Y-100669783D01*
X129324146Y-100760904D01*
X129358172Y-100823216D01*
X129353107Y-100894031D01*
X129324147Y-100939094D01*
X129233020Y-101030222D01*
X129105512Y-101212323D01*
X129011561Y-101413801D01*
X129011559Y-101413806D01*
X128984856Y-101513463D01*
X128954022Y-101628537D01*
X128934647Y-101850000D01*
X128954022Y-102071463D01*
X129000273Y-102244074D01*
X129011559Y-102286193D01*
X129011561Y-102286199D01*
X129105511Y-102487675D01*
X129105512Y-102487677D01*
X129233016Y-102669772D01*
X129233025Y-102669783D01*
X129324146Y-102760904D01*
X129358172Y-102823216D01*
X129353107Y-102894031D01*
X129324147Y-102939094D01*
X129233020Y-103030222D01*
X129105512Y-103212323D01*
X129105512Y-103212324D01*
X129011560Y-103413804D01*
X128954022Y-103628537D01*
X128934647Y-103850000D01*
X128954022Y-104071463D01*
X129000273Y-104244074D01*
X129011559Y-104286193D01*
X129011561Y-104286199D01*
X129105511Y-104487675D01*
X129105512Y-104487677D01*
X129233016Y-104669772D01*
X129233025Y-104669783D01*
X129324146Y-104760904D01*
X129358172Y-104823216D01*
X129353107Y-104894031D01*
X129324147Y-104939094D01*
X129233020Y-105030222D01*
X129105512Y-105212323D01*
X129011561Y-105413801D01*
X129011560Y-105413804D01*
X128954022Y-105628537D01*
X128948471Y-105691986D01*
X128934647Y-105849999D01*
X128954022Y-106071463D01*
X128964486Y-106110515D01*
X128962796Y-106181491D01*
X128931874Y-106232220D01*
X126811336Y-108352757D01*
X126798901Y-108362721D01*
X126799089Y-108362948D01*
X126792979Y-108368002D01*
X126745694Y-108418355D01*
X126744319Y-108419774D01*
X126723863Y-108440231D01*
X126719560Y-108445777D01*
X126715714Y-108450279D01*
X126683417Y-108484674D01*
X126683411Y-108484683D01*
X126673651Y-108502435D01*
X126662803Y-108518950D01*
X126650386Y-108534958D01*
X126631645Y-108578264D01*
X126629034Y-108583594D01*
X126606305Y-108624939D01*
X126606303Y-108624944D01*
X126601267Y-108644559D01*
X126594864Y-108663262D01*
X126586819Y-108681852D01*
X126579437Y-108728456D01*
X126578233Y-108734268D01*
X126566500Y-108779968D01*
X126566500Y-108800223D01*
X126564949Y-108819933D01*
X126561780Y-108839942D01*
X126561780Y-108839943D01*
X120025500Y-108839943D01*
X120025500Y-80994928D01*
X120025500Y-80841440D01*
X119992352Y-80526058D01*
X119926419Y-80215868D01*
X119926418Y-80215863D01*
X119828426Y-79914274D01*
X119828425Y-79914273D01*
X119773167Y-79790162D01*
X119699440Y-79624567D01*
X119699439Y-79624565D01*
X119699436Y-79624559D01*
X119545826Y-79358500D01*
X119540880Y-79349933D01*
X119540878Y-79349931D01*
X119540874Y-79349923D01*
X119354482Y-79093378D01*
X119354481Y-79093377D01*
X119233670Y-78959204D01*
X119179146Y-78898649D01*
X146641500Y-78898649D01*
X146648009Y-78959196D01*
X146648011Y-78959204D01*
X146699110Y-79096202D01*
X146699112Y-79096207D01*
X146786738Y-79213261D01*
X146903792Y-79300887D01*
X146903794Y-79300888D01*
X146903796Y-79300889D01*
X146957600Y-79320957D01*
X147040795Y-79351988D01*
X147040803Y-79351990D01*
X147101350Y-79358499D01*
X147101355Y-79358499D01*
X147101362Y-79358500D01*
X147101368Y-79358500D01*
X148898632Y-79358500D01*
X148898638Y-79358500D01*
X148898645Y-79358499D01*
X148898649Y-79358499D01*
X148959196Y-79351990D01*
X148959199Y-79351989D01*
X148959201Y-79351989D01*
X148964714Y-79349933D01*
X148978045Y-79344960D01*
X149096204Y-79300889D01*
X149166399Y-79248342D01*
X149213261Y-79213261D01*
X149300886Y-79096208D01*
X149300885Y-79096208D01*
X149300889Y-79096204D01*
X149344999Y-78977939D01*
X149387545Y-78921107D01*
X149454066Y-78896296D01*
X149523440Y-78911388D01*
X149555753Y-78936635D01*
X149576529Y-78959204D01*
X149616762Y-79002908D01*
X149671331Y-79045381D01*
X149794424Y-79141189D01*
X149992426Y-79248342D01*
X149992427Y-79248342D01*
X149992428Y-79248343D01*
X150002012Y-79251633D01*
X150205365Y-79321444D01*
X150427431Y-79358500D01*
X150427435Y-79358500D01*
X150652565Y-79358500D01*
X150652569Y-79358500D01*
X150874635Y-79321444D01*
X151087574Y-79248342D01*
X151285576Y-79141189D01*
X151463240Y-79002906D01*
X151615722Y-78837268D01*
X151704518Y-78701354D01*
X151758520Y-78655268D01*
X151828868Y-78645692D01*
X151893225Y-78675669D01*
X151915480Y-78701353D01*
X151948607Y-78752058D01*
X152004275Y-78837265D01*
X152004279Y-78837270D01*
X152156762Y-79002908D01*
X152211331Y-79045381D01*
X152334424Y-79141189D01*
X152532426Y-79248342D01*
X152532427Y-79248342D01*
X152532428Y-79248343D01*
X152542012Y-79251633D01*
X152745365Y-79321444D01*
X152967431Y-79358500D01*
X152967435Y-79358500D01*
X153192565Y-79358500D01*
X153192569Y-79358500D01*
X153414635Y-79321444D01*
X153627574Y-79248342D01*
X153825576Y-79141189D01*
X154003240Y-79002906D01*
X154155722Y-78837268D01*
X154244518Y-78701354D01*
X154298520Y-78655268D01*
X154368868Y-78645692D01*
X154433225Y-78675669D01*
X154455480Y-78701353D01*
X154488607Y-78752058D01*
X154544275Y-78837265D01*
X154544279Y-78837270D01*
X154696762Y-79002908D01*
X154751331Y-79045381D01*
X154874424Y-79141189D01*
X155072426Y-79248342D01*
X155072427Y-79248342D01*
X155072428Y-79248343D01*
X155082012Y-79251633D01*
X155285365Y-79321444D01*
X155507431Y-79358500D01*
X155507435Y-79358500D01*
X155732565Y-79358500D01*
X155732569Y-79358500D01*
X155954635Y-79321444D01*
X156167574Y-79248342D01*
X156365576Y-79141189D01*
X156543240Y-79002906D01*
X156695722Y-78837268D01*
X156784518Y-78701354D01*
X156838520Y-78655268D01*
X156908868Y-78645692D01*
X156973225Y-78675669D01*
X156995480Y-78701353D01*
X157028607Y-78752058D01*
X157084275Y-78837265D01*
X157084279Y-78837270D01*
X157236762Y-79002908D01*
X157291331Y-79045381D01*
X157414424Y-79141189D01*
X157612426Y-79248342D01*
X157612427Y-79248342D01*
X157612428Y-79248343D01*
X157622012Y-79251633D01*
X157825365Y-79321444D01*
X158047431Y-79358500D01*
X158047435Y-79358500D01*
X158272565Y-79358500D01*
X158272569Y-79358500D01*
X158494635Y-79321444D01*
X158707574Y-79248342D01*
X158905576Y-79141189D01*
X159083240Y-79002906D01*
X159235722Y-78837268D01*
X159324518Y-78701354D01*
X159378520Y-78655268D01*
X159448868Y-78645692D01*
X159513225Y-78675669D01*
X159535480Y-78701353D01*
X159568607Y-78752058D01*
X159624275Y-78837265D01*
X159624279Y-78837270D01*
X159776762Y-79002908D01*
X159831331Y-79045381D01*
X159954424Y-79141189D01*
X160152426Y-79248342D01*
X160152427Y-79248342D01*
X160152428Y-79248343D01*
X160162012Y-79251633D01*
X160365365Y-79321444D01*
X160587431Y-79358500D01*
X160587435Y-79358500D01*
X160812565Y-79358500D01*
X160812569Y-79358500D01*
X161034635Y-79321444D01*
X161247574Y-79248342D01*
X161445576Y-79141189D01*
X161623240Y-79002906D01*
X161775722Y-78837268D01*
X161864518Y-78701354D01*
X161918520Y-78655268D01*
X161988868Y-78645692D01*
X162053225Y-78675669D01*
X162075480Y-78701353D01*
X162108607Y-78752058D01*
X162164275Y-78837265D01*
X162164279Y-78837270D01*
X162316762Y-79002908D01*
X162371331Y-79045381D01*
X162494424Y-79141189D01*
X162692426Y-79248342D01*
X162692427Y-79248342D01*
X162692428Y-79248343D01*
X162702012Y-79251633D01*
X162905365Y-79321444D01*
X163127431Y-79358500D01*
X163127435Y-79358500D01*
X163352565Y-79358500D01*
X163352569Y-79358500D01*
X163574635Y-79321444D01*
X163787574Y-79248342D01*
X163985576Y-79141189D01*
X164163240Y-79002906D01*
X164315722Y-78837268D01*
X164404518Y-78701354D01*
X164458520Y-78655268D01*
X164528868Y-78645692D01*
X164593225Y-78675669D01*
X164615480Y-78701353D01*
X164648607Y-78752058D01*
X164704275Y-78837265D01*
X164704279Y-78837270D01*
X164856762Y-79002908D01*
X164911331Y-79045381D01*
X165034424Y-79141189D01*
X165232426Y-79248342D01*
X165232427Y-79248342D01*
X165232428Y-79248343D01*
X165242012Y-79251633D01*
X165445365Y-79321444D01*
X165667431Y-79358500D01*
X165667435Y-79358500D01*
X165892565Y-79358500D01*
X165892569Y-79358500D01*
X166114635Y-79321444D01*
X166327574Y-79248342D01*
X166525576Y-79141189D01*
X166703240Y-79002906D01*
X166855722Y-78837268D01*
X166944518Y-78701354D01*
X166998520Y-78655268D01*
X167068868Y-78645692D01*
X167133225Y-78675669D01*
X167155480Y-78701353D01*
X167188607Y-78752058D01*
X167244275Y-78837265D01*
X167244279Y-78837270D01*
X167396762Y-79002908D01*
X167451331Y-79045381D01*
X167574424Y-79141189D01*
X167772426Y-79248342D01*
X167772427Y-79248342D01*
X167772428Y-79248343D01*
X167782012Y-79251633D01*
X167985365Y-79321444D01*
X168207431Y-79358500D01*
X168207435Y-79358500D01*
X168432565Y-79358500D01*
X168432569Y-79358500D01*
X168654635Y-79321444D01*
X168867574Y-79248342D01*
X169065576Y-79141189D01*
X169243240Y-79002906D01*
X169395722Y-78837268D01*
X169484816Y-78700898D01*
X169538819Y-78654810D01*
X169609167Y-78645235D01*
X169673524Y-78675212D01*
X169695782Y-78700898D01*
X169784674Y-78836958D01*
X169937097Y-79002534D01*
X170114698Y-79140767D01*
X170114699Y-79140768D01*
X170312628Y-79247882D01*
X170312630Y-79247883D01*
X170525483Y-79320955D01*
X170525492Y-79320957D01*
X170606000Y-79334391D01*
X170606000Y-78433674D01*
X170717685Y-78484680D01*
X170824237Y-78500000D01*
X170895763Y-78500000D01*
X171002315Y-78484680D01*
X171114000Y-78433674D01*
X171114000Y-79334390D01*
X171194507Y-79320957D01*
X171194516Y-79320955D01*
X171407369Y-79247883D01*
X171407371Y-79247882D01*
X171605300Y-79140768D01*
X171605301Y-79140767D01*
X171782902Y-79002534D01*
X171935325Y-78836958D01*
X172058419Y-78648548D01*
X172148820Y-78442456D01*
X172148823Y-78442449D01*
X172196544Y-78254000D01*
X171291116Y-78254000D01*
X171319493Y-78209844D01*
X171360000Y-78071889D01*
X171360000Y-77928111D01*
X171319493Y-77790156D01*
X171291116Y-77746000D01*
X172196544Y-77746000D01*
X172196544Y-77745999D01*
X172148823Y-77557550D01*
X172148820Y-77557543D01*
X172058419Y-77351451D01*
X171935325Y-77163041D01*
X171782902Y-76997465D01*
X171605301Y-76859232D01*
X171605300Y-76859231D01*
X171407371Y-76752117D01*
X171407369Y-76752116D01*
X171194512Y-76679043D01*
X171194501Y-76679040D01*
X171114000Y-76665606D01*
X171114000Y-77566325D01*
X171002315Y-77515320D01*
X170895763Y-77500000D01*
X170824237Y-77500000D01*
X170717685Y-77515320D01*
X170606000Y-77566325D01*
X170606000Y-76665607D01*
X170605999Y-76665606D01*
X170525498Y-76679040D01*
X170525487Y-76679043D01*
X170312630Y-76752116D01*
X170312628Y-76752117D01*
X170114699Y-76859231D01*
X170114698Y-76859232D01*
X169937097Y-76997465D01*
X169784670Y-77163045D01*
X169695780Y-77299101D01*
X169641776Y-77345189D01*
X169571428Y-77354764D01*
X169507071Y-77324786D01*
X169484816Y-77299101D01*
X169425393Y-77208147D01*
X169395724Y-77162734D01*
X169395720Y-77162729D01*
X169266220Y-77022057D01*
X169243240Y-76997094D01*
X169243239Y-76997093D01*
X169243237Y-76997091D01*
X169123367Y-76903792D01*
X169065576Y-76858811D01*
X168867574Y-76751658D01*
X168867572Y-76751657D01*
X168867571Y-76751656D01*
X168654639Y-76678557D01*
X168654630Y-76678555D01*
X168577029Y-76665606D01*
X168432569Y-76641500D01*
X168207431Y-76641500D01*
X168062971Y-76665606D01*
X167985369Y-76678555D01*
X167985360Y-76678557D01*
X167772428Y-76751656D01*
X167772426Y-76751658D01*
X167574426Y-76858810D01*
X167574424Y-76858811D01*
X167396762Y-76997091D01*
X167244279Y-77162729D01*
X167155483Y-77298643D01*
X167101479Y-77344731D01*
X167031131Y-77354306D01*
X166966774Y-77324329D01*
X166944517Y-77298643D01*
X166855720Y-77162729D01*
X166726220Y-77022057D01*
X166703240Y-76997094D01*
X166703239Y-76997093D01*
X166703237Y-76997091D01*
X166583367Y-76903792D01*
X166525576Y-76858811D01*
X166327574Y-76751658D01*
X166327572Y-76751657D01*
X166327571Y-76751656D01*
X166114639Y-76678557D01*
X166114630Y-76678555D01*
X166037029Y-76665606D01*
X165892569Y-76641500D01*
X165667431Y-76641500D01*
X165522971Y-76665606D01*
X165445369Y-76678555D01*
X165445360Y-76678557D01*
X165232428Y-76751656D01*
X165232426Y-76751658D01*
X165034426Y-76858810D01*
X165034424Y-76858811D01*
X164856762Y-76997091D01*
X164704279Y-77162729D01*
X164615483Y-77298643D01*
X164561479Y-77344731D01*
X164491131Y-77354306D01*
X164426774Y-77324329D01*
X164404517Y-77298643D01*
X164315720Y-77162729D01*
X164186220Y-77022057D01*
X164163240Y-76997094D01*
X164163239Y-76997093D01*
X164163237Y-76997091D01*
X164043367Y-76903792D01*
X163985576Y-76858811D01*
X163787574Y-76751658D01*
X163787572Y-76751657D01*
X163787571Y-76751656D01*
X163574639Y-76678557D01*
X163574630Y-76678555D01*
X163497029Y-76665606D01*
X163352569Y-76641500D01*
X163127431Y-76641500D01*
X162982971Y-76665606D01*
X162905369Y-76678555D01*
X162905360Y-76678557D01*
X162692428Y-76751656D01*
X162692426Y-76751658D01*
X162494426Y-76858810D01*
X162494424Y-76858811D01*
X162316762Y-76997091D01*
X162164279Y-77162729D01*
X162075483Y-77298643D01*
X162021479Y-77344731D01*
X161951131Y-77354306D01*
X161886774Y-77324329D01*
X161864517Y-77298643D01*
X161775720Y-77162729D01*
X161646220Y-77022057D01*
X161623240Y-76997094D01*
X161623239Y-76997093D01*
X161623237Y-76997091D01*
X161503367Y-76903792D01*
X161445576Y-76858811D01*
X161247574Y-76751658D01*
X161247572Y-76751657D01*
X161247571Y-76751656D01*
X161034639Y-76678557D01*
X161034630Y-76678555D01*
X160957029Y-76665606D01*
X160812569Y-76641500D01*
X160587431Y-76641500D01*
X160442971Y-76665606D01*
X160365369Y-76678555D01*
X160365360Y-76678557D01*
X160152428Y-76751656D01*
X160152426Y-76751658D01*
X159954426Y-76858810D01*
X159954424Y-76858811D01*
X159776762Y-76997091D01*
X159624279Y-77162729D01*
X159535483Y-77298643D01*
X159481479Y-77344731D01*
X159411131Y-77354306D01*
X159346774Y-77324329D01*
X159324517Y-77298643D01*
X159235720Y-77162729D01*
X159106220Y-77022057D01*
X159083240Y-76997094D01*
X159083239Y-76997093D01*
X159083237Y-76997091D01*
X158963367Y-76903792D01*
X158905576Y-76858811D01*
X158707574Y-76751658D01*
X158707572Y-76751657D01*
X158707571Y-76751656D01*
X158494639Y-76678557D01*
X158494630Y-76678555D01*
X158417029Y-76665606D01*
X158272569Y-76641500D01*
X158047431Y-76641500D01*
X157902971Y-76665606D01*
X157825369Y-76678555D01*
X157825360Y-76678557D01*
X157612428Y-76751656D01*
X157612426Y-76751658D01*
X157414426Y-76858810D01*
X157414424Y-76858811D01*
X157236762Y-76997091D01*
X157084279Y-77162729D01*
X156995483Y-77298643D01*
X156941479Y-77344731D01*
X156871131Y-77354306D01*
X156806774Y-77324329D01*
X156784517Y-77298643D01*
X156695720Y-77162729D01*
X156566220Y-77022057D01*
X156543240Y-76997094D01*
X156543239Y-76997093D01*
X156543237Y-76997091D01*
X156423367Y-76903792D01*
X156365576Y-76858811D01*
X156167574Y-76751658D01*
X156167572Y-76751657D01*
X156167571Y-76751656D01*
X155954639Y-76678557D01*
X155954630Y-76678555D01*
X155877029Y-76665606D01*
X155732569Y-76641500D01*
X155507431Y-76641500D01*
X155362971Y-76665606D01*
X155285369Y-76678555D01*
X155285360Y-76678557D01*
X155072428Y-76751656D01*
X155072426Y-76751658D01*
X154874426Y-76858810D01*
X154874424Y-76858811D01*
X154696762Y-76997091D01*
X154544279Y-77162729D01*
X154455483Y-77298643D01*
X154401479Y-77344731D01*
X154331131Y-77354306D01*
X154266774Y-77324329D01*
X154244517Y-77298643D01*
X154155720Y-77162729D01*
X154026220Y-77022057D01*
X154003240Y-76997094D01*
X154003239Y-76997093D01*
X154003237Y-76997091D01*
X153883367Y-76903792D01*
X153825576Y-76858811D01*
X153627574Y-76751658D01*
X153627572Y-76751657D01*
X153627571Y-76751656D01*
X153414639Y-76678557D01*
X153414630Y-76678555D01*
X153337029Y-76665606D01*
X153192569Y-76641500D01*
X152967431Y-76641500D01*
X152822971Y-76665606D01*
X152745369Y-76678555D01*
X152745360Y-76678557D01*
X152532428Y-76751656D01*
X152532426Y-76751658D01*
X152334426Y-76858810D01*
X152334424Y-76858811D01*
X152156762Y-76997091D01*
X152004279Y-77162729D01*
X151915483Y-77298643D01*
X151861479Y-77344731D01*
X151791131Y-77354306D01*
X151726774Y-77324329D01*
X151704517Y-77298643D01*
X151615720Y-77162729D01*
X151486220Y-77022057D01*
X151463240Y-76997094D01*
X151463239Y-76997093D01*
X151463237Y-76997091D01*
X151343367Y-76903792D01*
X151285576Y-76858811D01*
X151087574Y-76751658D01*
X151087572Y-76751657D01*
X151087571Y-76751656D01*
X150874639Y-76678557D01*
X150874630Y-76678555D01*
X150797029Y-76665606D01*
X150652569Y-76641500D01*
X150427431Y-76641500D01*
X150282971Y-76665606D01*
X150205369Y-76678555D01*
X150205360Y-76678557D01*
X149992428Y-76751656D01*
X149992426Y-76751658D01*
X149794426Y-76858810D01*
X149794424Y-76858811D01*
X149616762Y-76997091D01*
X149555754Y-77063363D01*
X149494901Y-77099933D01*
X149423936Y-77097798D01*
X149365391Y-77057636D01*
X149344999Y-77022057D01*
X149300889Y-76903797D01*
X149300887Y-76903792D01*
X149213261Y-76786738D01*
X149096207Y-76699112D01*
X149096202Y-76699110D01*
X148959204Y-76648011D01*
X148959196Y-76648009D01*
X148898649Y-76641500D01*
X148898638Y-76641500D01*
X147101362Y-76641500D01*
X147101350Y-76641500D01*
X147040803Y-76648009D01*
X147040795Y-76648011D01*
X146903797Y-76699110D01*
X146903792Y-76699112D01*
X146786738Y-76786738D01*
X146699112Y-76903792D01*
X146699110Y-76903797D01*
X146648011Y-77040795D01*
X146648009Y-77040803D01*
X146641500Y-77101350D01*
X146641500Y-78898649D01*
X119179146Y-78898649D01*
X119142287Y-78857713D01*
X118906622Y-78645518D01*
X118906621Y-78645517D01*
X118650075Y-78459125D01*
X118650076Y-78459125D01*
X118375440Y-78300563D01*
X118375434Y-78300560D01*
X118085726Y-78171574D01*
X118085725Y-78171573D01*
X117784136Y-78073581D01*
X117473944Y-78007648D01*
X117158563Y-77974500D01*
X117158560Y-77974500D01*
X117005072Y-77974500D01*
X103001643Y-77974500D01*
X102998372Y-77974414D01*
X102746762Y-77961228D01*
X102692384Y-77958378D01*
X102685822Y-77957688D01*
X102384830Y-77910016D01*
X102378375Y-77908644D01*
X102084018Y-77829772D01*
X102077742Y-77827733D01*
X101793247Y-77718525D01*
X101787219Y-77715841D01*
X101515691Y-77577491D01*
X101509976Y-77574191D01*
X101254400Y-77408218D01*
X101249073Y-77404348D01*
X101012224Y-77212552D01*
X101007334Y-77208147D01*
X100791852Y-76992665D01*
X100787448Y-76987776D01*
X100595649Y-76750923D01*
X100591781Y-76745599D01*
X100561591Y-76699111D01*
X100425808Y-76490023D01*
X100422508Y-76484308D01*
X100284158Y-76212780D01*
X100281474Y-76206752D01*
X100235018Y-76085730D01*
X100172262Y-75922246D01*
X100170227Y-75915981D01*
X100134898Y-75784132D01*
X100091354Y-75621623D01*
X100089983Y-75615169D01*
X100042311Y-75314177D01*
X100041622Y-75307627D01*
X100025585Y-75001628D01*
X100025500Y-74998355D01*
X100025500Y-73131182D01*
X101249500Y-73131182D01*
X101255101Y-73168339D01*
X101288604Y-73390619D01*
X101365933Y-73641314D01*
X101365938Y-73641327D01*
X101479773Y-73877706D01*
X101479777Y-73877713D01*
X101627562Y-74094472D01*
X101627567Y-74094479D01*
X101806019Y-74286805D01*
X102011143Y-74450386D01*
X102011146Y-74450388D01*
X102238352Y-74581566D01*
X102238356Y-74581567D01*
X102238357Y-74581568D01*
X102482584Y-74677420D01*
X102738370Y-74735802D01*
X102934506Y-74750500D01*
X102934507Y-74750500D01*
X103065493Y-74750500D01*
X103065494Y-74750500D01*
X103261630Y-74735802D01*
X103517416Y-74677420D01*
X103761643Y-74581568D01*
X103761645Y-74581566D01*
X103761647Y-74581566D01*
X103875250Y-74515976D01*
X103988857Y-74450386D01*
X104193981Y-74286805D01*
X104372433Y-74094479D01*
X104520228Y-73877704D01*
X104634063Y-73641323D01*
X104711396Y-73390615D01*
X104750500Y-73131182D01*
X180249500Y-73131182D01*
X180255101Y-73168339D01*
X180288604Y-73390619D01*
X180365933Y-73641314D01*
X180365938Y-73641327D01*
X180479773Y-73877706D01*
X180479777Y-73877713D01*
X180627562Y-74094472D01*
X180627567Y-74094479D01*
X180806019Y-74286805D01*
X181011143Y-74450386D01*
X181011146Y-74450388D01*
X181238352Y-74581566D01*
X181238356Y-74581567D01*
X181238357Y-74581568D01*
X181482584Y-74677420D01*
X181738370Y-74735802D01*
X181934506Y-74750500D01*
X181934507Y-74750500D01*
X182065493Y-74750500D01*
X182065494Y-74750500D01*
X182261630Y-74735802D01*
X182517416Y-74677420D01*
X182761643Y-74581568D01*
X182761645Y-74581566D01*
X182761647Y-74581566D01*
X182875249Y-74515977D01*
X182988857Y-74450386D01*
X183193981Y-74286805D01*
X183372433Y-74094479D01*
X183520228Y-73877704D01*
X183634063Y-73641323D01*
X183711396Y-73390615D01*
X183750500Y-73131182D01*
X183750500Y-72868818D01*
X183711396Y-72609385D01*
X183711395Y-72609383D01*
X183711395Y-72609380D01*
X183634066Y-72358685D01*
X183634061Y-72358672D01*
X183565290Y-72215868D01*
X183520228Y-72122296D01*
X183520226Y-72122293D01*
X183520222Y-72122286D01*
X183372437Y-71905527D01*
X183372433Y-71905521D01*
X183193981Y-71713195D01*
X182988857Y-71549614D01*
X182988852Y-71549611D01*
X182988853Y-71549611D01*
X182761647Y-71418433D01*
X182761639Y-71418430D01*
X182517419Y-71322581D01*
X182517417Y-71322580D01*
X182261633Y-71264198D01*
X182114528Y-71253174D01*
X182065494Y-71249500D01*
X181934506Y-71249500D01*
X181895278Y-71252439D01*
X181738366Y-71264198D01*
X181482582Y-71322580D01*
X181482580Y-71322581D01*
X181238360Y-71418430D01*
X181238352Y-71418433D01*
X181011146Y-71549611D01*
X180806018Y-71713195D01*
X180627566Y-71905522D01*
X180627562Y-71905527D01*
X180479777Y-72122286D01*
X180479773Y-72122293D01*
X180365938Y-72358672D01*
X180365933Y-72358685D01*
X180288604Y-72609380D01*
X180266879Y-72753514D01*
X180249500Y-72868818D01*
X180249500Y-73131182D01*
X104750500Y-73131182D01*
X104750500Y-72868818D01*
X104711396Y-72609385D01*
X104711395Y-72609383D01*
X104711395Y-72609380D01*
X104634066Y-72358685D01*
X104634061Y-72358672D01*
X104565290Y-72215868D01*
X104520228Y-72122296D01*
X104520226Y-72122293D01*
X104520222Y-72122286D01*
X104372437Y-71905527D01*
X104372433Y-71905521D01*
X104193981Y-71713195D01*
X103988857Y-71549614D01*
X103988852Y-71549611D01*
X103988853Y-71549611D01*
X103761647Y-71418433D01*
X103761639Y-71418430D01*
X103517419Y-71322581D01*
X103517417Y-71322580D01*
X103261633Y-71264198D01*
X103114527Y-71253174D01*
X103065494Y-71249500D01*
X102934506Y-71249500D01*
X102895278Y-71252439D01*
X102738366Y-71264198D01*
X102482582Y-71322580D01*
X102482580Y-71322581D01*
X102238360Y-71418430D01*
X102238352Y-71418433D01*
X102011146Y-71549611D01*
X101806018Y-71713195D01*
X101627566Y-71905522D01*
X101627562Y-71905527D01*
X101479777Y-72122286D01*
X101479773Y-72122293D01*
X101365938Y-72358672D01*
X101365933Y-72358685D01*
X101288604Y-72609380D01*
X101266879Y-72753514D01*
X101249500Y-72868818D01*
X101249500Y-73131182D01*
X100025500Y-73131182D01*
X100025500Y-73001644D01*
X100025585Y-72998371D01*
X100041622Y-72692370D01*
X100042311Y-72685822D01*
X100089983Y-72384830D01*
X100091355Y-72378375D01*
X100096633Y-72358677D01*
X100170229Y-72084008D01*
X100172260Y-72077758D01*
X100281479Y-71793234D01*
X100284154Y-71787227D01*
X100422512Y-71515683D01*
X100425808Y-71509976D01*
X100485257Y-71418433D01*
X100591791Y-71254385D01*
X100595641Y-71249085D01*
X100787456Y-71012213D01*
X100791842Y-71007344D01*
X101007344Y-70791842D01*
X101012213Y-70787456D01*
X101249085Y-70595641D01*
X101254385Y-70591791D01*
X101509982Y-70425804D01*
X101515683Y-70422512D01*
X101787227Y-70284154D01*
X101793234Y-70281479D01*
X102077758Y-70172260D01*
X102084008Y-70170229D01*
X102378380Y-70091353D01*
X102384826Y-70089983D01*
X102685822Y-70042310D01*
X102692370Y-70041622D01*
X102998371Y-70025585D01*
X103001644Y-70025500D01*
X103008285Y-70025500D01*
X181991715Y-70025500D01*
X181998307Y-70025500D01*
X182001698Y-70025591D01*
G37*
%TD.AperFunction*%
M02*
