M48
; DRILL file {KiCad 7.0.3} date Sun 04 Jun 2023 04:07:09 PM CDT
; FORMAT={-:-/ absolute / inch / decimal}
; #@! TF.CreationDate,2023-06-04T16:07:09-05:00
; #@! TF.GenerationSoftware,Kicad,Pcbnew,7.0.3
; #@! TF.FileFunction,Plated,1,2,PTH
FMAT,2
INCH
; #@! TA.AperFunction,Plated,PTH,ViaDrill
T1C0.0157
; #@! TA.AperFunction,Plated,PTH,ComponentDrill
T2C0.0276
; #@! TA.AperFunction,Plated,PTH,ComponentDrill
T3C0.0300
; #@! TA.AperFunction,Plated,PTH,ComponentDrill
T4C0.0394
%
G90
G05
T1
X4.4882Y-2.874
X4.5276Y-5.2362
X4.9213Y-2.874
X4.9213Y-3.2677
X4.9213Y-3.6614
X4.9213Y-4.0551
X4.9213Y-4.4488
X4.9213Y-4.8425
X4.9213Y-5.2362
X5.0354Y-3.8189
X5.2964Y-3.9033
X5.315Y-2.874
X5.315Y-3.2677
X5.315Y-4.8425
X5.315Y-5.2362
X5.3307Y-3.9409
X5.3858Y-4.2913
X5.5039Y-4.4882
X5.5098Y-4.6181
X5.5172Y-3.5217
X5.5858Y-4.8819
X5.5984Y-3.2465
X5.7047Y-4.4882
X5.7087Y-4.0157
X5.7106Y-4.6181
X5.7193Y-3.5217
X5.748Y-2.874
X5.748Y-5.2362
X5.7906Y-4.8819
X5.8Y-3.2465
X5.8421Y-4.5591
X5.9154Y-4.6181
X5.9156Y-3.6535
X5.9213Y-3.5217
X5.9941Y-4.8811
X6.002Y-3.2453
X6.0433Y-4.559
X6.0945Y-3.5846
X6.1024Y-4.0157
X6.1181Y-4.6181
X6.124Y-3.5217
X6.198Y-4.8811
X6.2047Y-3.2476
X6.315Y-4.4843
X6.32Y-3.6535
X6.3228Y-4.6181
X6.3248Y-3.5217
X6.4008Y-4.8815
X6.4067Y-3.2476
X6.4961Y-4.0157
X6.5197Y-4.4882
X6.5256Y-4.6181
X6.5276Y-3.5217
X6.5669Y-3.4705
X6.6047Y-4.8811
X6.6091Y-3.248
X6.7244Y-3.6535
X6.7244Y-4.4882
X6.7283Y-4.6181
X6.7303Y-3.5217
X6.8083Y-4.8819
X6.811Y-3.2437
X6.8367Y-4.6717
X6.876Y-3.6024
X6.8898Y-4.0157
X6.9325Y-3.5217
X6.9331Y-4.6181
X7.0118Y-4.8815
X7.013Y-3.2453
X7.1654Y-3.2283
X7.1654Y-3.6614
X7.1654Y-4.4882
X7.1654Y-4.8819
T2
X7.0866Y-4.1339
T3
X5.1264Y-3.6161
X5.1264Y-3.6949
X5.1264Y-3.7736
X5.1264Y-3.8524
X5.1264Y-3.9311
X5.1264Y-4.0098
X5.1264Y-4.0886
X5.1264Y-4.1673
X5.1264Y-4.2461
X5.1264Y-4.3248
X5.1264Y-4.4035
X5.1264Y-4.4823
X5.2051Y-3.6161
X5.2051Y-3.6949
X5.2051Y-3.7736
X5.2051Y-3.8524
X5.2051Y-3.9311
X5.2051Y-4.0098
X5.2051Y-4.0886
X5.2051Y-4.1673
X5.2051Y-4.2461
X5.2051Y-4.3248
X5.2051Y-4.4035
X5.2051Y-4.4823
T4
X5.8256Y-5.0394
X5.8268Y-3.0709
X5.9256Y-5.0394
X5.9268Y-3.0709
X6.0256Y-5.0394
X6.0268Y-3.0709
X6.1256Y-5.0394
X6.1268Y-3.0709
X6.2256Y-5.0394
X6.2268Y-3.0709
X6.3256Y-5.0394
X6.3268Y-3.0709
X6.4256Y-5.0394
X6.4268Y-3.0709
X6.5256Y-5.0394
X6.5268Y-3.0709
X6.6256Y-5.0394
X6.6268Y-3.0709
X6.7256Y-5.0394
X6.7268Y-3.0709
T0
M30
