%TF.GenerationSoftware,KiCad,Pcbnew,(6.0.11)*%
%TF.CreationDate,2023-02-25T16:21:49-06:00*%
%TF.ProjectId,BPS-MinionShield,4250532d-4d69-46e6-996f-6e536869656c,rev?*%
%TF.SameCoordinates,Original*%
%TF.FileFunction,Soldermask,Top*%
%TF.FilePolarity,Negative*%
%FSLAX46Y46*%
G04 Gerber Fmt 4.6, Leading zero omitted, Abs format (unit mm)*
G04 Created by KiCad (PCBNEW (6.0.11)) date 2023-02-25 16:21:49*
%MOMM*%
%LPD*%
G01*
G04 APERTURE LIST*
G04 Aperture macros list*
%AMRoundRect*
0 Rectangle with rounded corners*
0 $1 Rounding radius*
0 $2 $3 $4 $5 $6 $7 $8 $9 X,Y pos of 4 corners*
0 Add a 4 corners polygon primitive as box body*
4,1,4,$2,$3,$4,$5,$6,$7,$8,$9,$2,$3,0*
0 Add four circle primitives for the rounded corners*
1,1,$1+$1,$2,$3*
1,1,$1+$1,$4,$5*
1,1,$1+$1,$6,$7*
1,1,$1+$1,$8,$9*
0 Add four rect primitives between the rounded corners*
20,1,$1+$1,$2,$3,$4,$5,0*
20,1,$1+$1,$4,$5,$6,$7,0*
20,1,$1+$1,$6,$7,$8,$9,0*
20,1,$1+$1,$8,$9,$2,$3,0*%
G04 Aperture macros list end*
%ADD10C,1.602000*%
%ADD11RoundRect,0.051000X0.850000X-0.850000X0.850000X0.850000X-0.850000X0.850000X-0.850000X-0.850000X0*%
%ADD12O,1.802000X1.802000*%
%ADD13C,3.102000*%
%ADD14RoundRect,0.051000X-0.850000X0.850000X-0.850000X-0.850000X0.850000X-0.850000X0.850000X0.850000X0*%
%ADD15RoundRect,0.251000X-0.200000X-0.275000X0.200000X-0.275000X0.200000X0.275000X-0.200000X0.275000X0*%
%ADD16RoundRect,0.269750X0.218750X0.381250X-0.218750X0.381250X-0.218750X-0.381250X0.218750X-0.381250X0*%
%ADD17RoundRect,0.269750X0.381250X-0.218750X0.381250X0.218750X-0.381250X0.218750X-0.381250X-0.218750X0*%
%ADD18RoundRect,0.276000X0.250000X-0.225000X0.250000X0.225000X-0.250000X0.225000X-0.250000X-0.225000X0*%
%ADD19RoundRect,0.251000X0.200000X0.275000X-0.200000X0.275000X-0.200000X-0.275000X0.200000X-0.275000X0*%
%ADD20RoundRect,0.269750X-0.381250X0.218750X-0.381250X-0.218750X0.381250X-0.218750X0.381250X0.218750X0*%
%ADD21RoundRect,0.301000X-0.250000X-0.475000X0.250000X-0.475000X0.250000X0.475000X-0.250000X0.475000X0*%
%ADD22RoundRect,0.301000X0.250000X0.475000X-0.250000X0.475000X-0.250000X-0.475000X0.250000X-0.475000X0*%
%ADD23RoundRect,0.301000X-0.450000X0.262500X-0.450000X-0.262500X0.450000X-0.262500X0.450000X0.262500X0*%
%ADD24RoundRect,0.276000X-0.250000X0.225000X-0.250000X-0.225000X0.250000X-0.225000X0.250000X0.225000X0*%
%ADD25RoundRect,0.294750X0.456250X-0.243750X0.456250X0.243750X-0.456250X0.243750X-0.456250X-0.243750X0*%
%ADD26C,1.626000*%
%ADD27C,1.302000*%
%ADD28C,0.902000*%
G04 APERTURE END LIST*
D10*
X165000000Y-105000000D03*
D11*
X148000000Y-78000000D03*
D12*
X150540000Y-78000000D03*
X153080000Y-78000000D03*
X155620000Y-78000000D03*
X158160000Y-78000000D03*
X160700000Y-78000000D03*
X163240000Y-78000000D03*
X165780000Y-78000000D03*
X168320000Y-78000000D03*
X170860000Y-78000000D03*
D13*
X182000000Y-133000000D03*
X103000000Y-133000000D03*
X103000000Y-73000000D03*
X182000000Y-73000000D03*
D14*
X170830000Y-128000000D03*
D12*
X168290000Y-128000000D03*
X165750000Y-128000000D03*
X163210000Y-128000000D03*
X160670000Y-128000000D03*
X158130000Y-128000000D03*
X155590000Y-128000000D03*
X153050000Y-128000000D03*
X150510000Y-128000000D03*
X147970000Y-128000000D03*
D15*
X124340000Y-122470000D03*
X125990000Y-122470000D03*
X132365000Y-83090000D03*
X134015000Y-83090000D03*
D16*
X139762500Y-91860000D03*
X137637500Y-91860000D03*
D15*
X157005000Y-86700000D03*
X158655000Y-86700000D03*
X147605000Y-119630000D03*
X149255000Y-119630000D03*
D17*
X154730000Y-117062500D03*
X154730000Y-114937500D03*
D18*
X139540000Y-124110000D03*
X139540000Y-122560000D03*
X182415000Y-124125000D03*
X182415000Y-122575000D03*
D19*
X167050000Y-119525000D03*
X165400000Y-119525000D03*
D20*
X182340000Y-89297500D03*
X182340000Y-91422500D03*
D17*
X132285000Y-119982500D03*
X132285000Y-117857500D03*
D19*
X182340000Y-86700000D03*
X180690000Y-86700000D03*
D21*
X177915000Y-82370000D03*
X179815000Y-82370000D03*
D18*
X132285000Y-127085000D03*
X132285000Y-125535000D03*
D21*
X163670000Y-82280000D03*
X165570000Y-82280000D03*
D20*
X142780000Y-89297500D03*
X142780000Y-91422500D03*
D22*
X154210000Y-82170000D03*
X152310000Y-82170000D03*
D15*
X154715000Y-119560000D03*
X156365000Y-119560000D03*
D18*
X124340000Y-127070000D03*
X124340000Y-125520000D03*
D23*
X180740000Y-96357500D03*
X180740000Y-98182500D03*
D22*
X151820000Y-124190000D03*
X149920000Y-124190000D03*
D17*
X182415000Y-117062500D03*
X182415000Y-114937500D03*
D22*
X128790000Y-78560000D03*
X126890000Y-78560000D03*
D19*
X174825000Y-119560000D03*
X173175000Y-119560000D03*
D17*
X174815000Y-117062500D03*
X174815000Y-114937500D03*
D20*
X175140000Y-89297500D03*
X175140000Y-91422500D03*
D24*
X175140000Y-82255000D03*
X175140000Y-83805000D03*
D18*
X174840000Y-124045000D03*
X174840000Y-122495000D03*
D21*
X170650000Y-82250000D03*
X172550000Y-82250000D03*
D15*
X139565000Y-119560000D03*
X141215000Y-119560000D03*
D22*
X143940000Y-124110000D03*
X142040000Y-124110000D03*
D17*
X167050000Y-117062500D03*
X167050000Y-114937500D03*
D21*
X170510000Y-124035000D03*
X172410000Y-124035000D03*
D22*
X136990000Y-78560000D03*
X135090000Y-78560000D03*
D24*
X124340000Y-78560000D03*
X124340000Y-80110000D03*
D22*
X161250000Y-82270000D03*
X159350000Y-82270000D03*
D19*
X182440000Y-119612500D03*
X180790000Y-119612500D03*
D16*
X137627500Y-103860000D03*
X139752500Y-103860000D03*
D22*
X128740000Y-127070000D03*
X126840000Y-127070000D03*
D20*
X124340000Y-85597500D03*
X124340000Y-87722500D03*
D24*
X142780000Y-82165000D03*
X142780000Y-83715000D03*
D15*
X124325000Y-83090000D03*
X125975000Y-83090000D03*
D18*
X147610000Y-124195000D03*
X147610000Y-122645000D03*
D20*
X157010000Y-89297500D03*
X157010000Y-91422500D03*
D24*
X132360000Y-78560000D03*
X132360000Y-80110000D03*
D15*
X142780000Y-86700000D03*
X144430000Y-86700000D03*
D20*
X132360000Y-85597500D03*
X132360000Y-87722500D03*
D15*
X132280000Y-122490000D03*
X133930000Y-122490000D03*
D24*
X150220000Y-82155000D03*
X150220000Y-83705000D03*
D18*
X167050000Y-124150000D03*
X167050000Y-122600000D03*
D24*
X157010000Y-82270000D03*
X157010000Y-83820000D03*
D20*
X168095000Y-89297500D03*
X168095000Y-91422500D03*
D22*
X136690000Y-127070000D03*
X134790000Y-127070000D03*
D24*
X168095000Y-82280000D03*
X168095000Y-83830000D03*
D17*
X147610000Y-117062500D03*
X147610000Y-114937500D03*
D19*
X168095000Y-86700000D03*
X166445000Y-86700000D03*
D21*
X162650000Y-124150000D03*
X164550000Y-124150000D03*
D25*
X180740000Y-102257500D03*
X180740000Y-100382500D03*
D21*
X178015000Y-124125000D03*
X179915000Y-124125000D03*
D20*
X150220000Y-89297500D03*
X150220000Y-91422500D03*
D18*
X154730000Y-124165000D03*
X154730000Y-122615000D03*
D15*
X150225000Y-86700000D03*
X151875000Y-86700000D03*
D17*
X124340000Y-119982500D03*
X124340000Y-117857500D03*
D22*
X147205000Y-82165000D03*
X145305000Y-82165000D03*
D24*
X182340000Y-82370000D03*
X182340000Y-83920000D03*
D19*
X175140000Y-86700000D03*
X173490000Y-86700000D03*
D22*
X158970000Y-124170000D03*
X157070000Y-124170000D03*
D26*
X130210000Y-113850000D03*
X132210000Y-113850000D03*
X130210000Y-111850000D03*
X132210000Y-111850000D03*
X130210000Y-109850000D03*
X132210000Y-109850000D03*
X130210000Y-107850000D03*
X132210000Y-107850000D03*
X130210000Y-105850000D03*
X132210000Y-105850000D03*
X130210000Y-103850000D03*
X132210000Y-103850000D03*
X130210000Y-101850000D03*
X132210000Y-101850000D03*
X130210000Y-99850000D03*
X132210000Y-99850000D03*
X130210000Y-97850000D03*
X132210000Y-97850000D03*
X130210000Y-95850000D03*
X132210000Y-95850000D03*
X130210000Y-93850000D03*
X132210000Y-93850000D03*
X130210000Y-91850000D03*
X132210000Y-91850000D03*
D27*
X129110000Y-115450000D03*
X128810000Y-90250000D03*
D17*
X139565000Y-117062500D03*
X139565000Y-114937500D03*
D28*
X142705000Y-119535000D03*
X151075000Y-119535000D03*
X145890000Y-86700000D03*
X160240000Y-86700000D03*
X179210000Y-86700000D03*
X135090000Y-122490000D03*
X171950000Y-86700000D03*
X163725000Y-119535000D03*
X171745000Y-119535000D03*
X153240000Y-86700000D03*
X127300000Y-122490000D03*
X157665000Y-119535000D03*
X165110000Y-86700000D03*
X181015000Y-117815000D03*
X181652500Y-93757500D03*
X126740000Y-81720000D03*
X135830000Y-83090000D03*
X120000000Y-130000000D03*
X145000000Y-130000000D03*
X155000000Y-130000000D03*
X120000000Y-75000000D03*
X140000000Y-75000000D03*
X130000000Y-120000000D03*
X165000000Y-85000000D03*
X165000000Y-95000000D03*
X140000000Y-130000000D03*
X180000000Y-110000000D03*
X160000000Y-85000000D03*
X160000000Y-110000000D03*
X125000000Y-75000000D03*
X170000000Y-115000000D03*
X145000000Y-75000000D03*
X165000000Y-75000000D03*
X165000000Y-115000000D03*
X165000000Y-130000000D03*
X170000000Y-95000000D03*
X135000000Y-120000000D03*
X175000000Y-100000000D03*
X175000000Y-110000000D03*
X135000000Y-75000000D03*
X162490000Y-82270000D03*
X130000000Y-130000000D03*
X115000000Y-75000000D03*
X180000000Y-130000000D03*
X150000000Y-130000000D03*
X160000000Y-95000000D03*
X180000000Y-80000000D03*
X175000000Y-75000000D03*
X145000000Y-95000000D03*
X140000000Y-110000000D03*
X135000000Y-130000000D03*
X150000000Y-110000000D03*
X140000000Y-85000000D03*
X160000000Y-105000000D03*
X170000000Y-105000000D03*
X140000000Y-90000000D03*
X140000000Y-105000000D03*
X175000000Y-105000000D03*
X145000000Y-110000000D03*
X130000000Y-85000000D03*
X130000000Y-75000000D03*
X155000000Y-90000000D03*
X160000000Y-130000000D03*
X110000000Y-75000000D03*
X170000000Y-75000000D03*
X180000000Y-90000000D03*
X135000000Y-95000000D03*
X170000000Y-110000000D03*
X165000000Y-90000000D03*
X145000000Y-90000000D03*
X180000000Y-115000000D03*
X150000000Y-105000000D03*
X170000000Y-85000000D03*
X160000000Y-75000000D03*
X170000000Y-90000000D03*
X155000000Y-85000000D03*
X150000000Y-95000000D03*
X180000000Y-105000000D03*
X155000000Y-95000000D03*
X125000000Y-130000000D03*
X125000000Y-115000000D03*
X155000000Y-75000000D03*
X180000000Y-85000000D03*
X180000000Y-75000000D03*
X145000000Y-105000000D03*
X175000000Y-130000000D03*
X170000000Y-130000000D03*
X140000000Y-95000000D03*
X135000000Y-85000000D03*
X150000000Y-75000000D03*
X136845000Y-129175000D03*
X127550000Y-125520000D03*
X127490000Y-80110000D03*
X137340000Y-80850000D03*
X179560000Y-117070000D03*
X173727500Y-113850000D03*
X167050000Y-109960000D03*
X152700000Y-97850000D03*
X144850000Y-117344500D03*
X137870000Y-114940000D03*
X140870000Y-101850000D03*
X147782500Y-93860000D03*
X156960000Y-110020000D03*
X159590000Y-115100000D03*
X172690000Y-99850000D03*
X180927500Y-91422500D03*
G36*
X140203220Y-104372090D02*
G01*
X140203208Y-104373883D01*
X140190005Y-104399796D01*
X140189637Y-104400302D01*
X140183351Y-104406588D01*
X140150017Y-104467637D01*
X140154957Y-104536719D01*
X140196565Y-104592300D01*
X140223171Y-104607450D01*
X140225727Y-104608509D01*
X140226180Y-104608770D01*
X140254986Y-104630874D01*
X140255751Y-104632722D01*
X140254533Y-104634309D01*
X140252680Y-104634139D01*
X140188326Y-104592426D01*
X140066364Y-104555952D01*
X139939066Y-104555175D01*
X139816666Y-104590157D01*
X139709009Y-104658083D01*
X139660169Y-104713384D01*
X139658273Y-104714020D01*
X139656774Y-104712696D01*
X139656805Y-104711339D01*
X139681977Y-104646226D01*
X139668061Y-104578380D01*
X139619652Y-104528805D01*
X139558982Y-104512935D01*
X139557559Y-104511529D01*
X139558065Y-104509594D01*
X139559488Y-104509000D01*
X139971051Y-104509000D01*
X140073700Y-104488582D01*
X140160550Y-104430550D01*
X140199763Y-104371864D01*
X140201557Y-104370979D01*
X140203220Y-104372090D01*
G37*
G36*
X163120372Y-81993029D02*
G01*
X163121000Y-81994485D01*
X163121000Y-82545510D01*
X163120000Y-82547242D01*
X163118000Y-82547242D01*
X163117081Y-82546073D01*
X163097405Y-82479061D01*
X163045062Y-82433706D01*
X162976509Y-82423849D01*
X162913458Y-82452644D01*
X162891431Y-82483189D01*
X162891074Y-82483349D01*
X162874307Y-82505201D01*
X162872459Y-82505966D01*
X162870872Y-82504748D01*
X162870920Y-82503111D01*
X162917726Y-82406504D01*
X162938867Y-82280842D01*
X162938998Y-82270131D01*
X162920933Y-82143987D01*
X162874137Y-82041065D01*
X162874331Y-82039074D01*
X162876151Y-82038246D01*
X162877545Y-82039019D01*
X162890304Y-82055647D01*
X162891395Y-82055503D01*
X162892187Y-82056096D01*
X162923899Y-82095449D01*
X162989614Y-82117321D01*
X163056720Y-82100193D01*
X163103954Y-82049461D01*
X163117054Y-81994025D01*
X163118425Y-81992569D01*
X163120372Y-81993029D01*
G37*
M02*
