M48
; DRILL file {KiCad 7.0.2} date Mon Oct 23 14:03:05 2023
; FORMAT={-:-/ absolute / metric / decimal}
; #@! TF.CreationDate,2023-10-23T14:03:05-05:00
; #@! TF.GenerationSoftware,Kicad,Pcbnew,7.0.2
; #@! TF.FileFunction,Plated,1,2,PTH
FMAT,2
METRIC
; #@! TA.AperFunction,Plated,PTH,ViaDrill
T1C0.400
; #@! TA.AperFunction,Plated,PTH,ComponentDrill
T2C0.700
; #@! TA.AperFunction,Plated,PTH,ComponentDrill
T3C0.762
; #@! TA.AperFunction,Plated,PTH,ComponentDrill
T4C1.000
%
G90
G05
T1
X114.0Y-73.0
X115.0Y-133.0
X125.0Y-73.0
X125.0Y-83.0
X125.0Y-93.0
X125.0Y-103.0
X125.0Y-113.0
X125.0Y-123.0
X125.0Y-133.0
X127.9Y-97.0
X134.528Y-99.143
X135.0Y-73.0
X135.0Y-83.0
X135.0Y-123.0
X135.0Y-133.0
X135.4Y-100.1
X136.8Y-109.0
X139.8Y-114.0
X139.95Y-117.3
X140.136Y-89.45
X141.88Y-124.0
X142.2Y-82.46
X144.9Y-114.0
X145.0Y-102.0
X145.05Y-117.3
X145.271Y-89.45
X146.0Y-73.0
X146.0Y-133.0
X147.08Y-124.0
X147.32Y-82.46
X148.389Y-115.8
X150.25Y-117.3
X150.257Y-92.8
X150.4Y-89.45
X152.25Y-123.98
X152.45Y-82.43
X153.5Y-115.8
X154.8Y-91.05
X155.0Y-102.0
X155.4Y-117.3
X155.55Y-89.45
X157.43Y-123.98
X157.6Y-82.49
X160.4Y-113.9
X160.529Y-92.8
X160.6Y-117.3
X160.65Y-89.45
X162.58Y-123.99
X162.73Y-82.49
X165.0Y-102.0
X165.6Y-114.0
X165.75Y-117.3
X165.8Y-89.45
X166.8Y-88.15
X167.76Y-123.98
X167.87Y-82.5
X170.8Y-92.8
X170.8Y-114.0
X170.9Y-117.3
X170.95Y-89.45
X172.93Y-124.0
X173.0Y-82.39
X173.653Y-118.66
X174.65Y-91.5
X175.0Y-102.0
X176.086Y-89.45
X176.1Y-117.3
X178.1Y-123.99
X178.13Y-82.43
X182.0Y-82.0
X182.0Y-93.0
X182.0Y-114.0
X182.0Y-124.0
T2
X180.0Y-105.0
T3
X130.21Y-91.85
X130.21Y-93.85
X130.21Y-95.85
X130.21Y-97.85
X130.21Y-99.85
X130.21Y-101.85
X130.21Y-103.85
X130.21Y-105.85
X130.21Y-107.85
X130.21Y-109.85
X130.21Y-111.85
X130.21Y-113.85
X132.21Y-91.85
X132.21Y-93.85
X132.21Y-95.85
X132.21Y-97.85
X132.21Y-99.85
X132.21Y-101.85
X132.21Y-103.85
X132.21Y-105.85
X132.21Y-107.85
X132.21Y-109.85
X132.21Y-111.85
X132.21Y-113.85
T4
X147.97Y-128.0
X148.0Y-78.0
X150.51Y-128.0
X150.54Y-78.0
X153.05Y-128.0
X153.08Y-78.0
X155.59Y-128.0
X155.62Y-78.0
X158.13Y-128.0
X158.16Y-78.0
X160.67Y-128.0
X160.7Y-78.0
X163.21Y-128.0
X163.24Y-78.0
X165.75Y-128.0
X165.78Y-78.0
X168.29Y-128.0
X168.32Y-78.0
X170.83Y-128.0
X170.86Y-78.0
T0
M30
