%TF.GenerationSoftware,KiCad,Pcbnew,7.0.2*%
%TF.CreationDate,2023-10-23T14:01:15-05:00*%
%TF.ProjectId,BPS-MinionShield,4250532d-4d69-46e6-996f-6e536869656c,rev?*%
%TF.SameCoordinates,Original*%
%TF.FileFunction,Copper,L2,Bot*%
%TF.FilePolarity,Positive*%
%FSLAX46Y46*%
G04 Gerber Fmt 4.6, Leading zero omitted, Abs format (unit mm)*
G04 Created by KiCad (PCBNEW 7.0.2) date 2023-10-23 14:01:15*
%MOMM*%
%LPD*%
G01*
G04 APERTURE LIST*
%TA.AperFunction,ComponentPad*%
%ADD10R,1.700000X1.700000*%
%TD*%
%TA.AperFunction,ComponentPad*%
%ADD11O,1.700000X1.700000*%
%TD*%
%TA.AperFunction,ComponentPad*%
%ADD12C,1.500000*%
%TD*%
%TA.AperFunction,ComponentPad*%
%ADD13C,1.524000*%
%TD*%
%TA.AperFunction,ViaPad*%
%ADD14C,0.800000*%
%TD*%
%TA.AperFunction,Conductor*%
%ADD15C,0.500000*%
%TD*%
%TA.AperFunction,Conductor*%
%ADD16C,0.250000*%
%TD*%
G04 APERTURE END LIST*
D10*
X148000000Y-78000000D03*
D11*
X150540000Y-78000000D03*
X153080000Y-78000000D03*
X155620000Y-78000000D03*
X158160000Y-78000000D03*
X160700000Y-78000000D03*
X163240000Y-78000000D03*
X165780000Y-78000000D03*
X168320000Y-78000000D03*
X170860000Y-78000000D03*
D10*
X170830000Y-128000000D03*
D11*
X168290000Y-128000000D03*
X165750000Y-128000000D03*
X163210000Y-128000000D03*
X160670000Y-128000000D03*
X158130000Y-128000000D03*
X155590000Y-128000000D03*
X153050000Y-128000000D03*
X150510000Y-128000000D03*
X147970000Y-128000000D03*
D12*
X180000000Y-105000000D03*
D13*
X132210000Y-91850000D03*
X130210000Y-91850000D03*
X132210000Y-93850000D03*
X130210000Y-93850000D03*
X132210000Y-95850000D03*
X130210000Y-95850000D03*
X132210000Y-97850000D03*
X130210000Y-97850000D03*
X132210000Y-99850000D03*
X130210000Y-99850000D03*
X132210000Y-101850000D03*
X130210000Y-101850000D03*
X132210000Y-103850000D03*
X130210000Y-103850000D03*
X132210000Y-105850000D03*
X130210000Y-105850000D03*
X132210000Y-107850000D03*
X130210000Y-107850000D03*
X132210000Y-109850000D03*
X130210000Y-109850000D03*
X132210000Y-111850000D03*
X130210000Y-111850000D03*
X132210000Y-113850000D03*
X130210000Y-113850000D03*
D14*
X139950000Y-117300000D03*
X170950000Y-89450000D03*
X160650000Y-89450000D03*
X176085716Y-89450000D03*
X176100000Y-117300000D03*
X145271430Y-89450000D03*
X165800000Y-89450000D03*
X155400000Y-117300000D03*
X165750000Y-117300000D03*
X145050000Y-117300000D03*
X170900000Y-117300000D03*
X155550000Y-89450000D03*
X160600000Y-117300000D03*
X150250000Y-117300000D03*
X140135716Y-89450000D03*
X150400000Y-89450000D03*
X145000000Y-102000000D03*
X125000000Y-83000000D03*
X178130000Y-82430000D03*
X135000000Y-73000000D03*
X147320000Y-82460000D03*
X167760000Y-123980000D03*
X152250000Y-123980000D03*
X146000000Y-133000000D03*
X182000000Y-82000000D03*
X142200000Y-82460000D03*
X125000000Y-113000000D03*
X135000000Y-83000000D03*
X157600000Y-82490000D03*
X173000000Y-82390000D03*
X162580000Y-123990000D03*
X162730000Y-82490000D03*
X152450000Y-82430000D03*
X141880000Y-124000000D03*
X125000000Y-73000000D03*
X157430000Y-123980000D03*
X155000000Y-102000000D03*
X125000000Y-93000000D03*
X125000000Y-123000000D03*
X125000000Y-103000000D03*
X147080000Y-124000000D03*
X172930000Y-124000000D03*
X167870000Y-82500000D03*
X135000000Y-133000000D03*
X115000000Y-133000000D03*
X182000000Y-114000000D03*
X135000000Y-123000000D03*
X178100000Y-123990000D03*
X165000000Y-102000000D03*
X182000000Y-93000000D03*
X125000000Y-133000000D03*
X175000000Y-102000000D03*
X146000000Y-73000000D03*
X182000000Y-124000000D03*
X114000000Y-73000000D03*
X173653068Y-118660048D03*
X170800000Y-114000000D03*
X165600000Y-114000000D03*
X160400000Y-113900000D03*
X135400000Y-100100000D03*
X153500000Y-115799503D03*
X148389264Y-115800003D03*
X144900000Y-114000000D03*
X134528049Y-99143451D03*
X139800000Y-114000000D03*
X150257144Y-92800000D03*
X154800000Y-91050000D03*
X160528572Y-92800000D03*
X136800000Y-109000000D03*
X127900000Y-97000000D03*
X166800000Y-88150000D03*
X170800000Y-92800000D03*
X174650000Y-91500000D03*
D15*
X170830000Y-123580000D02*
X170830000Y-128000000D01*
X155550000Y-89450000D02*
X150400000Y-89450000D01*
X176100000Y-118310000D02*
X170830000Y-123580000D01*
X150250000Y-117300000D02*
X145050000Y-117300000D01*
X145050000Y-117300000D02*
X139950000Y-117300000D01*
X165750000Y-117300000D02*
X160600000Y-117300000D01*
X140135716Y-89450000D02*
X145271430Y-89450000D01*
X160650000Y-89450000D02*
X155550000Y-89450000D01*
X170950000Y-89450000D02*
X165800000Y-89450000D01*
X176085716Y-89450000D02*
X170950000Y-89450000D01*
X160600000Y-117300000D02*
X155400000Y-117300000D01*
X170900000Y-117300000D02*
X165750000Y-117300000D01*
X176100000Y-117300000D02*
X170900000Y-117300000D01*
X176100000Y-117300000D02*
X176100000Y-118310000D01*
X155400000Y-117300000D02*
X150250000Y-117300000D01*
X150400000Y-89450000D02*
X145271430Y-89450000D01*
X165800000Y-89450000D02*
X160650000Y-89450000D01*
D16*
X127200000Y-108860000D02*
X130210000Y-105850000D01*
X127200000Y-116550000D02*
X127200000Y-108860000D01*
X129310048Y-118660048D02*
X173653068Y-118660048D01*
X127200000Y-116550000D02*
X129310048Y-118660048D01*
X133550000Y-113850000D02*
X135324503Y-115624503D01*
X132210000Y-113850000D02*
X133550000Y-113850000D01*
X147824997Y-115075003D02*
X169724997Y-115075003D01*
X135324503Y-115624503D02*
X147275497Y-115624503D01*
X170800000Y-114000000D02*
X169724997Y-115075003D01*
X147275497Y-115624503D02*
X147824997Y-115075003D01*
X132210000Y-107850000D02*
X132210000Y-108110000D01*
X132210000Y-108110000D02*
X139274503Y-115174503D01*
X145300302Y-114625003D02*
X164974997Y-114625003D01*
X139274503Y-115174503D02*
X144750802Y-115174503D01*
X144750802Y-115174503D02*
X145300302Y-114625003D01*
X164974997Y-114625003D02*
X165600000Y-114000000D01*
X160124997Y-114175003D02*
X160400000Y-113900000D01*
X146100308Y-114175003D02*
X160124997Y-114175003D01*
X135400000Y-108900000D02*
X139775000Y-113275000D01*
X135400000Y-100100000D02*
X135400000Y-108900000D01*
X145200305Y-113275000D02*
X146100308Y-114175003D01*
X139775000Y-113275000D02*
X145200305Y-113275000D01*
X129075000Y-117575000D02*
X127650000Y-116150000D01*
X138649695Y-117575000D02*
X129075000Y-117575000D01*
X153500000Y-115799503D02*
X152775000Y-116524503D01*
X152775000Y-116524503D02*
X139700192Y-116524503D01*
X139700192Y-116524503D02*
X138649695Y-117575000D01*
X127650000Y-110410000D02*
X130210000Y-107850000D01*
X127650000Y-116150000D02*
X127650000Y-110410000D01*
X148389264Y-115800003D02*
X148114764Y-116074503D01*
X132434503Y-116074503D02*
X130210000Y-113850000D01*
X148114764Y-116074503D02*
X132434503Y-116074503D01*
X133297000Y-106937000D02*
X132210000Y-105850000D01*
X144175497Y-114724503D02*
X139460899Y-114724503D01*
X133297000Y-108560604D02*
X133297000Y-106937000D01*
X139460899Y-114724503D02*
X133297000Y-108560604D01*
X144900000Y-114000000D02*
X144175497Y-114724503D01*
X134528049Y-108728049D02*
X139800000Y-114000000D01*
X134528049Y-99143451D02*
X134528049Y-108728049D01*
X149407144Y-91950000D02*
X135400000Y-91950000D01*
X150257144Y-92800000D02*
X149407144Y-91950000D01*
X133747000Y-93603000D02*
X133747000Y-100313000D01*
X133747000Y-100313000D02*
X132210000Y-101850000D01*
X135400000Y-91950000D02*
X133747000Y-93603000D01*
X135010000Y-91050000D02*
X132210000Y-93850000D01*
X154800000Y-91050000D02*
X135010000Y-91050000D01*
X159788572Y-93540000D02*
X139460000Y-93540000D01*
X136800000Y-96200000D02*
X136800000Y-109000000D01*
X160528572Y-92800000D02*
X159788572Y-93540000D01*
X139460000Y-93540000D02*
X136800000Y-96200000D01*
X129350000Y-88150000D02*
X127400000Y-90100000D01*
X127400000Y-90100000D02*
X127400000Y-96500000D01*
X166800000Y-88150000D02*
X129350000Y-88150000D01*
X127400000Y-96500000D02*
X127900000Y-97000000D01*
X154499695Y-91775000D02*
X169775000Y-91775000D01*
X133297000Y-93399396D02*
X135196396Y-91500000D01*
X132210000Y-99850000D02*
X133297000Y-98763000D01*
X154224695Y-91500000D02*
X154499695Y-91775000D01*
X133297000Y-98763000D02*
X133297000Y-93399396D01*
X169775000Y-91775000D02*
X170800000Y-92800000D01*
X135196396Y-91500000D02*
X154224695Y-91500000D01*
X129123000Y-91399749D02*
X129123000Y-92763000D01*
X129123000Y-92763000D02*
X130210000Y-93850000D01*
X130347749Y-90175000D02*
X129123000Y-91399749D01*
X172775000Y-90175000D02*
X130347749Y-90175000D01*
X174650000Y-91500000D02*
X174100000Y-91500000D01*
X174100000Y-91500000D02*
X172775000Y-90175000D01*
%TA.AperFunction,Conductor*%
G36*
X182003405Y-70025684D02*
G01*
X182314130Y-70042474D01*
X182327631Y-70043938D01*
X182631386Y-70093567D01*
X182644661Y-70096479D01*
X182941300Y-70178552D01*
X182954188Y-70182880D01*
X183097218Y-70239658D01*
X183240253Y-70296440D01*
X183252587Y-70302125D01*
X183524758Y-70445856D01*
X183536402Y-70452833D01*
X183739550Y-70589984D01*
X183791503Y-70625059D01*
X183802342Y-70633263D01*
X184037381Y-70831961D01*
X184047265Y-70841276D01*
X184259531Y-71064152D01*
X184268364Y-71074490D01*
X184455373Y-71318939D01*
X184463040Y-71330169D01*
X184622612Y-71593337D01*
X184629025Y-71605328D01*
X184759313Y-71884168D01*
X184764396Y-71896780D01*
X184863877Y-72188035D01*
X184867571Y-72201121D01*
X184935084Y-72501392D01*
X184937347Y-72514800D01*
X184972112Y-72820612D01*
X184972916Y-72834186D01*
X184974498Y-73136981D01*
X184974500Y-73146306D01*
X184974351Y-73152432D01*
X184973576Y-73168340D01*
X184974500Y-73175246D01*
X184974500Y-126518108D01*
X184964339Y-133238458D01*
X184963638Y-133251538D01*
X184941220Y-133463205D01*
X184939045Y-133476701D01*
X184873311Y-133779071D01*
X184869687Y-133792250D01*
X184771590Y-134085710D01*
X184766560Y-134098420D01*
X184637246Y-134379535D01*
X184630868Y-134391625D01*
X184471861Y-134657083D01*
X184464216Y-134668404D01*
X184399765Y-134753501D01*
X184277393Y-134915070D01*
X184268561Y-134925503D01*
X184056119Y-135150476D01*
X184046210Y-135159890D01*
X183810649Y-135360527D01*
X183799777Y-135368813D01*
X183543859Y-135542757D01*
X183532154Y-135549816D01*
X183258905Y-135695011D01*
X183246503Y-135700761D01*
X182959143Y-135815497D01*
X182946193Y-135819870D01*
X182648080Y-135902808D01*
X182634731Y-135905752D01*
X182329389Y-135955908D01*
X182315801Y-135957388D01*
X182004234Y-135974314D01*
X181997399Y-135974500D01*
X103003293Y-135974500D01*
X102996700Y-135974327D01*
X102978512Y-135973373D01*
X102695679Y-135958550D01*
X102682563Y-135957172D01*
X102388088Y-135910532D01*
X102375188Y-135907790D01*
X102087205Y-135830626D01*
X102074661Y-135826550D01*
X101796327Y-135719707D01*
X101784280Y-135714343D01*
X101518631Y-135578989D01*
X101507208Y-135572394D01*
X101458681Y-135540880D01*
X101257164Y-135410013D01*
X101246498Y-135402263D01*
X101194958Y-135360527D01*
X101014802Y-135214639D01*
X101005001Y-135205814D01*
X100794185Y-134994998D01*
X100785360Y-134985197D01*
X100737021Y-134925503D01*
X100597732Y-134753495D01*
X100589988Y-134742838D01*
X100427601Y-134492785D01*
X100421010Y-134481368D01*
X100285656Y-134215719D01*
X100280292Y-134203672D01*
X100235018Y-134085730D01*
X100173447Y-133925332D01*
X100169373Y-133912794D01*
X100134898Y-133784132D01*
X100092209Y-133624811D01*
X100089467Y-133611911D01*
X100042827Y-133317436D01*
X100041449Y-133304319D01*
X100032375Y-133131182D01*
X101249500Y-133131182D01*
X101288604Y-133390615D01*
X101288605Y-133390618D01*
X101365936Y-133641323D01*
X101479772Y-133877704D01*
X101627563Y-134094474D01*
X101627565Y-134094476D01*
X101627567Y-134094479D01*
X101806019Y-134286805D01*
X102011143Y-134450386D01*
X102238357Y-134581568D01*
X102482584Y-134677420D01*
X102738370Y-134735802D01*
X102934506Y-134750500D01*
X102936859Y-134750500D01*
X103063141Y-134750500D01*
X103065494Y-134750500D01*
X103261630Y-134735802D01*
X103517416Y-134677420D01*
X103761643Y-134581568D01*
X103988857Y-134450386D01*
X104193981Y-134286805D01*
X104372433Y-134094479D01*
X104520228Y-133877704D01*
X104634063Y-133641323D01*
X104711396Y-133390615D01*
X104750500Y-133131182D01*
X180249500Y-133131182D01*
X180288604Y-133390615D01*
X180288605Y-133390618D01*
X180365936Y-133641323D01*
X180479772Y-133877704D01*
X180627563Y-134094474D01*
X180627565Y-134094476D01*
X180627567Y-134094479D01*
X180806019Y-134286805D01*
X181011143Y-134450386D01*
X181238357Y-134581568D01*
X181482584Y-134677420D01*
X181738370Y-134735802D01*
X181934506Y-134750500D01*
X181936859Y-134750500D01*
X182063141Y-134750500D01*
X182065494Y-134750500D01*
X182261630Y-134735802D01*
X182517416Y-134677420D01*
X182761643Y-134581568D01*
X182988857Y-134450386D01*
X183193981Y-134286805D01*
X183372433Y-134094479D01*
X183520228Y-133877704D01*
X183634063Y-133641323D01*
X183711396Y-133390615D01*
X183750500Y-133131182D01*
X183750500Y-132868818D01*
X183711396Y-132609385D01*
X183634063Y-132358677D01*
X183520228Y-132122296D01*
X183372433Y-131905521D01*
X183193981Y-131713195D01*
X182988857Y-131549614D01*
X182761643Y-131418432D01*
X182761642Y-131418432D01*
X182517417Y-131322580D01*
X182261630Y-131264198D01*
X182067836Y-131249675D01*
X182067822Y-131249674D01*
X182065494Y-131249500D01*
X181934506Y-131249500D01*
X181932178Y-131249674D01*
X181932163Y-131249675D01*
X181738369Y-131264198D01*
X181482582Y-131322580D01*
X181238356Y-131418432D01*
X181011146Y-131549612D01*
X181011143Y-131549614D01*
X180806019Y-131713195D01*
X180667525Y-131862455D01*
X180627563Y-131905525D01*
X180479772Y-132122295D01*
X180365936Y-132358676D01*
X180288605Y-132609381D01*
X180288604Y-132609385D01*
X180249500Y-132868818D01*
X180249500Y-133131182D01*
X104750500Y-133131182D01*
X104750500Y-132868818D01*
X104711396Y-132609385D01*
X104634063Y-132358677D01*
X104520228Y-132122296D01*
X104372433Y-131905521D01*
X104193981Y-131713195D01*
X103988857Y-131549614D01*
X103761643Y-131418432D01*
X103761642Y-131418432D01*
X103517417Y-131322580D01*
X103261630Y-131264198D01*
X103067836Y-131249675D01*
X103067822Y-131249674D01*
X103065494Y-131249500D01*
X102934506Y-131249500D01*
X102932178Y-131249674D01*
X102932163Y-131249675D01*
X102738369Y-131264198D01*
X102482582Y-131322580D01*
X102238356Y-131418432D01*
X102011146Y-131549612D01*
X102011143Y-131549614D01*
X101806019Y-131713195D01*
X101667525Y-131862455D01*
X101627563Y-131905525D01*
X101479772Y-132122295D01*
X101365936Y-132358676D01*
X101288605Y-132609381D01*
X101288604Y-132609385D01*
X101249500Y-132868818D01*
X101249500Y-133131182D01*
X100032375Y-133131182D01*
X100025673Y-133003300D01*
X100025500Y-132996706D01*
X100025500Y-131003293D01*
X100025673Y-130996699D01*
X100041449Y-130695680D01*
X100042827Y-130682563D01*
X100089467Y-130388088D01*
X100092209Y-130375188D01*
X100169376Y-130087195D01*
X100173445Y-130074672D01*
X100280295Y-129796319D01*
X100285656Y-129784280D01*
X100421014Y-129518623D01*
X100427596Y-129507222D01*
X100589994Y-129257151D01*
X100597725Y-129246512D01*
X100785369Y-129014790D01*
X100794175Y-129005011D01*
X101005011Y-128794175D01*
X101014790Y-128785369D01*
X101246512Y-128597725D01*
X101257151Y-128589994D01*
X101507222Y-128427596D01*
X101518623Y-128421014D01*
X101784280Y-128285655D01*
X101796319Y-128280295D01*
X102074672Y-128173445D01*
X102087195Y-128169376D01*
X102375192Y-128092208D01*
X102388084Y-128089467D01*
X102682566Y-128042826D01*
X102695678Y-128041449D01*
X102996699Y-128025672D01*
X103003293Y-128025500D01*
X117155270Y-128025500D01*
X117158560Y-128025500D01*
X117473942Y-127992352D01*
X117784132Y-127926419D01*
X118085730Y-127828424D01*
X118375433Y-127699440D01*
X118650067Y-127540880D01*
X118906622Y-127354482D01*
X119142287Y-127142287D01*
X119354482Y-126906622D01*
X119540880Y-126650067D01*
X119699440Y-126375433D01*
X119828424Y-126085730D01*
X119926419Y-125784132D01*
X119992352Y-125473942D01*
X120025500Y-125158560D01*
X120025500Y-125000000D01*
X120025500Y-124991715D01*
X120025500Y-124991714D01*
X120025500Y-108839942D01*
X126561779Y-108839942D01*
X126565941Y-108883961D01*
X126566500Y-108895819D01*
X126566500Y-116466147D01*
X126564204Y-116486935D01*
X126566438Y-116557984D01*
X126566500Y-116561943D01*
X126566500Y-116589856D01*
X126566995Y-116593774D01*
X126566997Y-116593806D01*
X126567008Y-116593888D01*
X126567937Y-116605697D01*
X126569326Y-116649892D01*
X126574977Y-116669341D01*
X126578986Y-116688696D01*
X126581525Y-116708794D01*
X126581525Y-116708796D01*
X126581526Y-116708797D01*
X126583080Y-116712723D01*
X126597801Y-116749903D01*
X126601644Y-116761130D01*
X126613980Y-116803590D01*
X126624294Y-116821030D01*
X126632987Y-116838774D01*
X126638509Y-116852720D01*
X126640449Y-116857619D01*
X126666431Y-116893380D01*
X126672948Y-116903301D01*
X126695458Y-116941363D01*
X126709778Y-116955683D01*
X126722618Y-116970716D01*
X126734526Y-116987105D01*
X126768598Y-117015292D01*
X126777378Y-117023282D01*
X128802799Y-119048703D01*
X128815883Y-119065033D01*
X128867714Y-119113705D01*
X128870557Y-119116461D01*
X128890278Y-119136182D01*
X128893399Y-119138603D01*
X128893407Y-119138610D01*
X128893473Y-119138661D01*
X128902493Y-119146365D01*
X128934727Y-119176634D01*
X128952483Y-119186395D01*
X128968999Y-119197244D01*
X128985007Y-119209661D01*
X129025573Y-119227215D01*
X129036236Y-119232439D01*
X129074986Y-119253742D01*
X129074988Y-119253743D01*
X129094610Y-119258781D01*
X129113315Y-119265185D01*
X129131903Y-119273229D01*
X129175570Y-119280144D01*
X129187177Y-119282548D01*
X129230018Y-119293548D01*
X129250279Y-119293548D01*
X129269987Y-119295098D01*
X129289991Y-119298267D01*
X129289991Y-119298266D01*
X129289992Y-119298267D01*
X129334002Y-119294107D01*
X129345859Y-119293548D01*
X172944868Y-119293548D01*
X173012989Y-119313550D01*
X173038503Y-119335236D01*
X173041814Y-119338914D01*
X173129961Y-119402956D01*
X173196316Y-119451166D01*
X173370780Y-119528842D01*
X173504761Y-119557320D01*
X173567231Y-119591047D01*
X173601553Y-119653197D01*
X173596825Y-119724036D01*
X173567656Y-119769661D01*
X170339225Y-122998092D01*
X170325377Y-123010061D01*
X170305944Y-123024529D01*
X170273773Y-123062868D01*
X170266360Y-123070958D01*
X170265017Y-123072301D01*
X170265011Y-123072307D01*
X170262420Y-123074899D01*
X170260149Y-123077770D01*
X170260140Y-123077781D01*
X170242997Y-123099460D01*
X170240688Y-123102294D01*
X170191119Y-123161369D01*
X170180589Y-123177899D01*
X170147995Y-123247794D01*
X170146401Y-123251087D01*
X170111795Y-123319997D01*
X170105363Y-123338500D01*
X170089759Y-123414064D01*
X170088967Y-123417637D01*
X170071192Y-123492640D01*
X170069202Y-123512115D01*
X170071447Y-123589258D01*
X170071500Y-123592922D01*
X170071500Y-126515500D01*
X170051498Y-126583621D01*
X169997842Y-126630114D01*
X169945500Y-126641500D01*
X169931362Y-126641500D01*
X169928013Y-126641859D01*
X169928013Y-126641860D01*
X169870799Y-126648011D01*
X169733794Y-126699111D01*
X169616738Y-126786738D01*
X169529109Y-126903796D01*
X169485000Y-127022057D01*
X169442453Y-127078893D01*
X169375933Y-127103703D01*
X169306559Y-127088611D01*
X169274246Y-127063363D01*
X169213240Y-126997094D01*
X169213239Y-126997093D01*
X169213237Y-126997091D01*
X169035578Y-126858812D01*
X168837573Y-126751657D01*
X168684510Y-126699111D01*
X168624635Y-126678556D01*
X168402569Y-126641500D01*
X168177431Y-126641500D01*
X167955365Y-126678556D01*
X167955362Y-126678556D01*
X167955362Y-126678557D01*
X167742426Y-126751657D01*
X167544421Y-126858812D01*
X167366762Y-126997091D01*
X167214278Y-127162731D01*
X167125483Y-127298643D01*
X167071479Y-127344731D01*
X167001131Y-127354306D01*
X166936774Y-127324328D01*
X166914517Y-127298643D01*
X166825721Y-127162731D01*
X166748542Y-127078893D01*
X166673240Y-126997094D01*
X166673239Y-126997093D01*
X166673237Y-126997091D01*
X166495578Y-126858812D01*
X166297573Y-126751657D01*
X166144510Y-126699111D01*
X166084635Y-126678556D01*
X165862569Y-126641500D01*
X165637431Y-126641500D01*
X165415365Y-126678556D01*
X165415362Y-126678556D01*
X165415362Y-126678557D01*
X165202426Y-126751657D01*
X165004421Y-126858812D01*
X164826762Y-126997091D01*
X164674278Y-127162731D01*
X164585483Y-127298643D01*
X164531479Y-127344731D01*
X164461131Y-127354306D01*
X164396774Y-127324328D01*
X164374517Y-127298643D01*
X164285721Y-127162731D01*
X164208542Y-127078893D01*
X164133240Y-126997094D01*
X164133239Y-126997093D01*
X164133237Y-126997091D01*
X163955578Y-126858812D01*
X163757573Y-126751657D01*
X163604510Y-126699111D01*
X163544635Y-126678556D01*
X163322569Y-126641500D01*
X163097431Y-126641500D01*
X162875365Y-126678556D01*
X162875362Y-126678556D01*
X162875362Y-126678557D01*
X162662426Y-126751657D01*
X162464421Y-126858812D01*
X162286762Y-126997091D01*
X162134278Y-127162731D01*
X162045483Y-127298643D01*
X161991479Y-127344731D01*
X161921131Y-127354306D01*
X161856774Y-127324328D01*
X161834517Y-127298643D01*
X161745721Y-127162731D01*
X161668542Y-127078893D01*
X161593240Y-126997094D01*
X161593239Y-126997093D01*
X161593237Y-126997091D01*
X161415578Y-126858812D01*
X161217573Y-126751657D01*
X161064510Y-126699111D01*
X161004635Y-126678556D01*
X160782569Y-126641500D01*
X160557431Y-126641500D01*
X160335365Y-126678556D01*
X160335362Y-126678556D01*
X160335362Y-126678557D01*
X160122426Y-126751657D01*
X159924421Y-126858812D01*
X159746762Y-126997091D01*
X159594278Y-127162731D01*
X159505483Y-127298643D01*
X159451479Y-127344731D01*
X159381131Y-127354306D01*
X159316774Y-127324328D01*
X159294517Y-127298643D01*
X159205721Y-127162731D01*
X159128542Y-127078893D01*
X159053240Y-126997094D01*
X159053239Y-126997093D01*
X159053237Y-126997091D01*
X158875578Y-126858812D01*
X158677573Y-126751657D01*
X158524510Y-126699111D01*
X158464635Y-126678556D01*
X158242569Y-126641500D01*
X158017431Y-126641500D01*
X157795365Y-126678556D01*
X157795362Y-126678556D01*
X157795362Y-126678557D01*
X157582426Y-126751657D01*
X157384421Y-126858812D01*
X157206762Y-126997091D01*
X157054278Y-127162731D01*
X156965483Y-127298643D01*
X156911479Y-127344731D01*
X156841131Y-127354306D01*
X156776774Y-127324328D01*
X156754517Y-127298643D01*
X156665721Y-127162731D01*
X156588542Y-127078893D01*
X156513240Y-126997094D01*
X156513239Y-126997093D01*
X156513237Y-126997091D01*
X156335578Y-126858812D01*
X156137573Y-126751657D01*
X155984510Y-126699111D01*
X155924635Y-126678556D01*
X155702569Y-126641500D01*
X155477431Y-126641500D01*
X155255365Y-126678556D01*
X155255362Y-126678556D01*
X155255362Y-126678557D01*
X155042426Y-126751657D01*
X154844421Y-126858812D01*
X154666762Y-126997091D01*
X154514278Y-127162731D01*
X154425483Y-127298643D01*
X154371479Y-127344731D01*
X154301131Y-127354306D01*
X154236774Y-127324328D01*
X154214517Y-127298643D01*
X154125721Y-127162731D01*
X154048542Y-127078893D01*
X153973240Y-126997094D01*
X153973239Y-126997093D01*
X153973237Y-126997091D01*
X153795578Y-126858812D01*
X153597573Y-126751657D01*
X153444510Y-126699111D01*
X153384635Y-126678556D01*
X153162569Y-126641500D01*
X152937431Y-126641500D01*
X152715365Y-126678556D01*
X152715362Y-126678556D01*
X152715362Y-126678557D01*
X152502426Y-126751657D01*
X152304421Y-126858812D01*
X152126762Y-126997091D01*
X151974278Y-127162731D01*
X151885483Y-127298643D01*
X151831479Y-127344731D01*
X151761131Y-127354306D01*
X151696774Y-127324328D01*
X151674517Y-127298643D01*
X151585721Y-127162731D01*
X151508542Y-127078893D01*
X151433240Y-126997094D01*
X151433239Y-126997093D01*
X151433237Y-126997091D01*
X151255578Y-126858812D01*
X151057573Y-126751657D01*
X150904510Y-126699111D01*
X150844635Y-126678556D01*
X150622569Y-126641500D01*
X150397431Y-126641500D01*
X150175365Y-126678556D01*
X150175362Y-126678556D01*
X150175362Y-126678557D01*
X149962426Y-126751657D01*
X149764421Y-126858812D01*
X149586762Y-126997091D01*
X149434275Y-127162735D01*
X149345182Y-127299101D01*
X149291179Y-127345189D01*
X149220831Y-127354764D01*
X149156473Y-127324786D01*
X149134217Y-127299101D01*
X149045321Y-127163037D01*
X148892903Y-126997466D01*
X148715302Y-126859233D01*
X148517368Y-126752116D01*
X148304510Y-126679042D01*
X148224000Y-126665606D01*
X148224000Y-127566325D01*
X148112315Y-127515320D01*
X148005763Y-127500000D01*
X147934237Y-127500000D01*
X147827685Y-127515320D01*
X147716000Y-127566325D01*
X147716000Y-126665606D01*
X147715999Y-126665606D01*
X147635489Y-126679042D01*
X147422631Y-126752116D01*
X147224697Y-126859233D01*
X147047096Y-126997466D01*
X146894678Y-127163037D01*
X146771580Y-127351451D01*
X146681177Y-127557548D01*
X146633455Y-127745999D01*
X146633456Y-127746000D01*
X147538884Y-127746000D01*
X147510507Y-127790156D01*
X147470000Y-127928111D01*
X147470000Y-128071889D01*
X147510507Y-128209844D01*
X147538884Y-128254000D01*
X146633455Y-128254000D01*
X146681177Y-128442451D01*
X146771580Y-128648548D01*
X146894678Y-128836962D01*
X147047096Y-129002533D01*
X147224697Y-129140766D01*
X147422631Y-129247883D01*
X147635485Y-129320955D01*
X147716000Y-129334391D01*
X147716000Y-128433674D01*
X147827685Y-128484680D01*
X147934237Y-128500000D01*
X148005763Y-128500000D01*
X148112315Y-128484680D01*
X148224000Y-128433674D01*
X148224000Y-129334390D01*
X148304514Y-129320955D01*
X148517368Y-129247883D01*
X148715302Y-129140766D01*
X148892903Y-129002533D01*
X149045323Y-128836960D01*
X149134217Y-128700899D01*
X149188220Y-128654810D01*
X149258568Y-128645235D01*
X149322926Y-128675212D01*
X149345183Y-128700898D01*
X149434077Y-128836960D01*
X149434278Y-128837268D01*
X149546525Y-128959200D01*
X149586762Y-129002908D01*
X149764421Y-129141187D01*
X149764424Y-129141189D01*
X149962426Y-129248342D01*
X150175365Y-129321444D01*
X150397431Y-129358500D01*
X150397434Y-129358500D01*
X150622566Y-129358500D01*
X150622569Y-129358500D01*
X150844635Y-129321444D01*
X151057574Y-129248342D01*
X151255576Y-129141189D01*
X151433240Y-129002906D01*
X151585722Y-128837268D01*
X151674518Y-128701354D01*
X151728521Y-128655268D01*
X151798869Y-128645693D01*
X151863226Y-128675670D01*
X151885480Y-128701353D01*
X151974278Y-128837268D01*
X152086525Y-128959200D01*
X152126762Y-129002908D01*
X152304421Y-129141187D01*
X152304424Y-129141189D01*
X152502426Y-129248342D01*
X152715365Y-129321444D01*
X152937431Y-129358500D01*
X152937434Y-129358500D01*
X153162566Y-129358500D01*
X153162569Y-129358500D01*
X153384635Y-129321444D01*
X153597574Y-129248342D01*
X153795576Y-129141189D01*
X153973240Y-129002906D01*
X154125722Y-128837268D01*
X154214518Y-128701354D01*
X154268521Y-128655268D01*
X154338869Y-128645693D01*
X154403226Y-128675670D01*
X154425480Y-128701353D01*
X154514278Y-128837268D01*
X154626525Y-128959200D01*
X154666762Y-129002908D01*
X154844421Y-129141187D01*
X154844424Y-129141189D01*
X155042426Y-129248342D01*
X155255365Y-129321444D01*
X155477431Y-129358500D01*
X155477434Y-129358500D01*
X155702566Y-129358500D01*
X155702569Y-129358500D01*
X155924635Y-129321444D01*
X156137574Y-129248342D01*
X156335576Y-129141189D01*
X156513240Y-129002906D01*
X156665722Y-128837268D01*
X156754518Y-128701354D01*
X156808521Y-128655268D01*
X156878869Y-128645693D01*
X156943226Y-128675670D01*
X156965480Y-128701353D01*
X157054278Y-128837268D01*
X157166525Y-128959200D01*
X157206762Y-129002908D01*
X157384421Y-129141187D01*
X157384424Y-129141189D01*
X157582426Y-129248342D01*
X157795365Y-129321444D01*
X158017431Y-129358500D01*
X158017434Y-129358500D01*
X158242566Y-129358500D01*
X158242569Y-129358500D01*
X158464635Y-129321444D01*
X158677574Y-129248342D01*
X158875576Y-129141189D01*
X159053240Y-129002906D01*
X159205722Y-128837268D01*
X159294518Y-128701354D01*
X159348521Y-128655268D01*
X159418869Y-128645693D01*
X159483226Y-128675670D01*
X159505480Y-128701353D01*
X159594278Y-128837268D01*
X159706525Y-128959200D01*
X159746762Y-129002908D01*
X159924421Y-129141187D01*
X159924424Y-129141189D01*
X160122426Y-129248342D01*
X160335365Y-129321444D01*
X160557431Y-129358500D01*
X160557434Y-129358500D01*
X160782566Y-129358500D01*
X160782569Y-129358500D01*
X161004635Y-129321444D01*
X161217574Y-129248342D01*
X161415576Y-129141189D01*
X161593240Y-129002906D01*
X161745722Y-128837268D01*
X161834518Y-128701354D01*
X161888521Y-128655268D01*
X161958869Y-128645693D01*
X162023226Y-128675670D01*
X162045480Y-128701353D01*
X162134278Y-128837268D01*
X162246525Y-128959200D01*
X162286762Y-129002908D01*
X162464421Y-129141187D01*
X162464424Y-129141189D01*
X162662426Y-129248342D01*
X162875365Y-129321444D01*
X163097431Y-129358500D01*
X163097434Y-129358500D01*
X163322566Y-129358500D01*
X163322569Y-129358500D01*
X163544635Y-129321444D01*
X163757574Y-129248342D01*
X163955576Y-129141189D01*
X164133240Y-129002906D01*
X164285722Y-128837268D01*
X164374518Y-128701354D01*
X164428521Y-128655268D01*
X164498869Y-128645693D01*
X164563226Y-128675670D01*
X164585480Y-128701353D01*
X164674278Y-128837268D01*
X164786525Y-128959200D01*
X164826762Y-129002908D01*
X165004421Y-129141187D01*
X165004424Y-129141189D01*
X165202426Y-129248342D01*
X165415365Y-129321444D01*
X165637431Y-129358500D01*
X165637434Y-129358500D01*
X165862566Y-129358500D01*
X165862569Y-129358500D01*
X166084635Y-129321444D01*
X166297574Y-129248342D01*
X166495576Y-129141189D01*
X166673240Y-129002906D01*
X166825722Y-128837268D01*
X166914518Y-128701354D01*
X166968521Y-128655268D01*
X167038869Y-128645693D01*
X167103226Y-128675670D01*
X167125480Y-128701353D01*
X167214278Y-128837268D01*
X167326525Y-128959200D01*
X167366762Y-129002908D01*
X167544421Y-129141187D01*
X167544424Y-129141189D01*
X167742426Y-129248342D01*
X167955365Y-129321444D01*
X168177431Y-129358500D01*
X168177434Y-129358500D01*
X168402566Y-129358500D01*
X168402569Y-129358500D01*
X168624635Y-129321444D01*
X168837574Y-129248342D01*
X169035576Y-129141189D01*
X169213240Y-129002906D01*
X169274246Y-128936636D01*
X169335098Y-128900066D01*
X169406062Y-128902201D01*
X169464608Y-128942362D01*
X169485000Y-128977940D01*
X169510767Y-129047022D01*
X169529111Y-129096205D01*
X169616738Y-129213261D01*
X169733794Y-129300888D01*
X169733795Y-129300888D01*
X169733796Y-129300889D01*
X169870799Y-129351989D01*
X169931362Y-129358500D01*
X169934731Y-129358500D01*
X171725269Y-129358500D01*
X171728638Y-129358500D01*
X171789201Y-129351989D01*
X171926204Y-129300889D01*
X172043261Y-129213261D01*
X172130889Y-129096204D01*
X172181989Y-128959201D01*
X172188500Y-128898638D01*
X172188500Y-127101362D01*
X172181989Y-127040799D01*
X172130889Y-126903796D01*
X172130888Y-126903794D01*
X172043261Y-126786738D01*
X171926205Y-126699111D01*
X171857702Y-126673561D01*
X171789201Y-126648011D01*
X171728638Y-126641500D01*
X171725269Y-126641500D01*
X171714500Y-126641500D01*
X171646379Y-126621498D01*
X171599886Y-126567842D01*
X171588500Y-126515500D01*
X171588500Y-123946370D01*
X171608502Y-123878249D01*
X171625400Y-123857280D01*
X176590777Y-118891902D01*
X176604624Y-118879936D01*
X176624058Y-118865469D01*
X176656221Y-118827138D01*
X176663660Y-118819020D01*
X176667580Y-118815101D01*
X176687070Y-118790450D01*
X176689234Y-118787794D01*
X176738032Y-118729640D01*
X176738035Y-118729633D01*
X176738895Y-118728609D01*
X176749403Y-118712114D01*
X176749965Y-118710908D01*
X176749967Y-118710906D01*
X176782022Y-118642159D01*
X176783572Y-118638958D01*
X176817609Y-118571188D01*
X176817610Y-118571183D01*
X176818207Y-118569995D01*
X176824631Y-118551517D01*
X176824901Y-118550209D01*
X176824902Y-118550207D01*
X176840251Y-118475866D01*
X176841001Y-118472484D01*
X176858500Y-118398656D01*
X176858500Y-118398651D01*
X176858807Y-118397356D01*
X176860796Y-118377888D01*
X176860757Y-118376560D01*
X176860758Y-118376558D01*
X176858553Y-118300774D01*
X176858500Y-118297110D01*
X176858500Y-117836999D01*
X176875380Y-117774000D01*
X176934527Y-117671556D01*
X176993542Y-117489928D01*
X177013504Y-117300000D01*
X176993542Y-117110072D01*
X176938725Y-116941363D01*
X176934527Y-116928443D01*
X176839041Y-116763057D01*
X176711252Y-116621133D01*
X176617564Y-116553065D01*
X176556752Y-116508882D01*
X176382288Y-116431206D01*
X176195487Y-116391500D01*
X176004513Y-116391500D01*
X175879979Y-116417970D01*
X175817711Y-116431206D01*
X175745946Y-116463158D01*
X175643248Y-116508882D01*
X175631472Y-116517437D01*
X175564608Y-116541294D01*
X175557414Y-116541500D01*
X171442586Y-116541500D01*
X171374465Y-116521498D01*
X171368551Y-116517454D01*
X171356752Y-116508882D01*
X171182288Y-116431206D01*
X170995487Y-116391500D01*
X170804513Y-116391500D01*
X170679979Y-116417970D01*
X170617711Y-116431206D01*
X170545946Y-116463158D01*
X170443248Y-116508882D01*
X170431472Y-116517437D01*
X170364608Y-116541294D01*
X170357414Y-116541500D01*
X166292586Y-116541500D01*
X166224465Y-116521498D01*
X166218551Y-116517454D01*
X166206752Y-116508882D01*
X166032288Y-116431206D01*
X165845487Y-116391500D01*
X165654513Y-116391500D01*
X165529979Y-116417970D01*
X165467711Y-116431206D01*
X165395946Y-116463158D01*
X165293248Y-116508882D01*
X165281472Y-116517437D01*
X165214608Y-116541294D01*
X165207414Y-116541500D01*
X161142586Y-116541500D01*
X161074465Y-116521498D01*
X161068551Y-116517454D01*
X161056752Y-116508882D01*
X160882288Y-116431206D01*
X160695487Y-116391500D01*
X160504513Y-116391500D01*
X160379978Y-116417970D01*
X160317711Y-116431206D01*
X160245946Y-116463158D01*
X160143248Y-116508882D01*
X160131472Y-116517437D01*
X160064608Y-116541294D01*
X160057414Y-116541500D01*
X155942586Y-116541500D01*
X155874465Y-116521498D01*
X155868551Y-116517454D01*
X155856752Y-116508882D01*
X155682288Y-116431206D01*
X155495487Y-116391500D01*
X155304513Y-116391500D01*
X155179979Y-116417970D01*
X155117711Y-116431206D01*
X155045946Y-116463158D01*
X154943248Y-116508882D01*
X154931472Y-116517437D01*
X154864608Y-116541294D01*
X154857414Y-116541500D01*
X154337411Y-116541500D01*
X154269290Y-116521498D01*
X154222797Y-116467842D01*
X154212693Y-116397568D01*
X154234753Y-116349263D01*
X154232419Y-116347916D01*
X154334527Y-116171059D01*
X154388857Y-116003849D01*
X154393542Y-115989431D01*
X154411209Y-115821331D01*
X154438222Y-115755676D01*
X154496444Y-115715046D01*
X154536519Y-115708503D01*
X169641144Y-115708503D01*
X169661932Y-115710798D01*
X169664904Y-115710704D01*
X169664906Y-115710705D01*
X169732982Y-115708565D01*
X169736942Y-115708503D01*
X169760891Y-115708503D01*
X169764853Y-115708503D01*
X169768853Y-115707997D01*
X169780696Y-115707064D01*
X169824886Y-115705676D01*
X169844335Y-115700024D01*
X169863695Y-115696015D01*
X169883794Y-115693477D01*
X169924912Y-115677196D01*
X169936114Y-115673360D01*
X169978590Y-115661021D01*
X169996036Y-115650702D01*
X170013777Y-115642012D01*
X170032614Y-115634555D01*
X170068389Y-115608561D01*
X170078300Y-115602051D01*
X170116359Y-115579545D01*
X170130688Y-115565215D01*
X170145716Y-115552380D01*
X170162104Y-115540475D01*
X170190295Y-115506396D01*
X170198265Y-115497637D01*
X170750500Y-114945404D01*
X170812813Y-114911379D01*
X170839596Y-114908500D01*
X170895485Y-114908500D01*
X170895487Y-114908500D01*
X171082288Y-114868794D01*
X171256752Y-114791118D01*
X171411253Y-114678866D01*
X171539040Y-114536944D01*
X171634527Y-114371556D01*
X171693542Y-114189928D01*
X171713504Y-114000000D01*
X171693542Y-113810072D01*
X171661049Y-113710070D01*
X171634527Y-113628443D01*
X171539041Y-113463057D01*
X171411252Y-113321133D01*
X171315091Y-113251268D01*
X171256752Y-113208882D01*
X171082288Y-113131206D01*
X170895487Y-113091500D01*
X170704513Y-113091500D01*
X170579979Y-113117970D01*
X170517711Y-113131206D01*
X170343246Y-113208883D01*
X170188747Y-113321133D01*
X170060958Y-113463057D01*
X169965472Y-113628443D01*
X169906458Y-113810070D01*
X169889093Y-113975290D01*
X169862079Y-114040947D01*
X169852879Y-114051214D01*
X169499497Y-114404598D01*
X169437185Y-114438623D01*
X169410401Y-114441503D01*
X166585224Y-114441503D01*
X166517103Y-114421501D01*
X166470610Y-114367845D01*
X166460506Y-114297571D01*
X166465391Y-114276567D01*
X166493542Y-114189928D01*
X166513504Y-114000000D01*
X166493542Y-113810072D01*
X166461049Y-113710070D01*
X166434527Y-113628443D01*
X166339041Y-113463057D01*
X166211252Y-113321133D01*
X166115091Y-113251268D01*
X166056752Y-113208882D01*
X165882288Y-113131206D01*
X165695487Y-113091500D01*
X165504513Y-113091500D01*
X165379979Y-113117970D01*
X165317711Y-113131206D01*
X165143246Y-113208883D01*
X164988747Y-113321133D01*
X164860958Y-113463057D01*
X164765472Y-113628443D01*
X164706458Y-113810070D01*
X164706457Y-113810072D01*
X164706458Y-113810072D01*
X164702262Y-113850000D01*
X164699248Y-113878674D01*
X164672234Y-113944331D01*
X164614013Y-113984960D01*
X164573938Y-113991503D01*
X161436572Y-113991503D01*
X161368451Y-113971501D01*
X161321958Y-113917845D01*
X161311262Y-113878677D01*
X161293542Y-113710072D01*
X161234527Y-113528444D01*
X161234527Y-113528443D01*
X161139041Y-113363057D01*
X161011252Y-113221133D01*
X160856753Y-113108883D01*
X160856752Y-113108882D01*
X160682288Y-113031206D01*
X160495487Y-112991500D01*
X160304513Y-112991500D01*
X160179978Y-113017970D01*
X160117711Y-113031206D01*
X159943246Y-113108883D01*
X159788747Y-113221133D01*
X159660958Y-113363057D01*
X159594306Y-113478503D01*
X159542924Y-113527496D01*
X159485187Y-113541503D01*
X146414903Y-113541503D01*
X146346782Y-113521501D01*
X146325808Y-113504598D01*
X145707549Y-112886339D01*
X145694476Y-112870021D01*
X145642653Y-112821356D01*
X145639811Y-112818601D01*
X145622879Y-112801669D01*
X145620075Y-112798865D01*
X145616880Y-112796386D01*
X145607859Y-112788682D01*
X145575625Y-112758413D01*
X145557872Y-112748653D01*
X145541346Y-112737797D01*
X145525346Y-112725386D01*
X145484771Y-112707828D01*
X145474109Y-112702604D01*
X145435368Y-112681305D01*
X145421618Y-112677775D01*
X145415742Y-112676266D01*
X145397036Y-112669862D01*
X145378450Y-112661819D01*
X145334780Y-112654902D01*
X145323158Y-112652495D01*
X145280335Y-112641500D01*
X145280334Y-112641500D01*
X145260081Y-112641500D01*
X145240371Y-112639949D01*
X145220362Y-112636779D01*
X145176344Y-112640941D01*
X145164486Y-112641500D01*
X140089595Y-112641500D01*
X140021474Y-112621498D01*
X140000500Y-112604595D01*
X137320682Y-109924777D01*
X137286656Y-109862465D01*
X137291721Y-109791650D01*
X137334268Y-109734814D01*
X137335597Y-109733833D01*
X137411253Y-109678866D01*
X137539040Y-109536944D01*
X137634527Y-109371556D01*
X137693542Y-109189928D01*
X137713504Y-109000000D01*
X137693542Y-108810072D01*
X137662931Y-108715862D01*
X137634527Y-108628443D01*
X137539041Y-108463057D01*
X137465863Y-108381783D01*
X137435146Y-108317775D01*
X137433500Y-108297473D01*
X137433500Y-106051198D01*
X179308012Y-106051198D01*
X179368595Y-106093620D01*
X179568094Y-106186649D01*
X179780715Y-106243619D01*
X180000000Y-106262804D01*
X180219284Y-106243619D01*
X180431904Y-106186649D01*
X180631405Y-106093619D01*
X180691986Y-106051198D01*
X180691986Y-106051197D01*
X180000000Y-105359210D01*
X179999999Y-105359210D01*
X179308012Y-106051196D01*
X179308012Y-106051198D01*
X137433500Y-106051198D01*
X137433500Y-105000000D01*
X178737195Y-105000000D01*
X178756380Y-105219284D01*
X178813350Y-105431905D01*
X178906379Y-105631403D01*
X178948800Y-105691986D01*
X178948802Y-105691986D01*
X179611487Y-105029302D01*
X179646372Y-105029302D01*
X179675047Y-105142538D01*
X179738936Y-105240327D01*
X179831115Y-105312072D01*
X179941595Y-105350000D01*
X180029005Y-105350000D01*
X180115216Y-105335614D01*
X180217947Y-105280019D01*
X180297060Y-105194079D01*
X180343982Y-105087108D01*
X180351200Y-104999999D01*
X180359210Y-104999999D01*
X181051197Y-105691986D01*
X181051198Y-105691986D01*
X181093619Y-105631405D01*
X181186649Y-105431904D01*
X181243619Y-105219284D01*
X181262804Y-104999999D01*
X181243619Y-104780715D01*
X181186649Y-104568095D01*
X181093620Y-104368597D01*
X181051198Y-104308012D01*
X181051196Y-104308012D01*
X180359210Y-104999999D01*
X180351200Y-104999999D01*
X180353628Y-104970698D01*
X180324953Y-104857462D01*
X180261064Y-104759673D01*
X180168885Y-104687928D01*
X180058405Y-104650000D01*
X179970995Y-104650000D01*
X179884784Y-104664386D01*
X179782053Y-104719981D01*
X179702940Y-104805921D01*
X179656018Y-104912892D01*
X179646372Y-105029302D01*
X179611487Y-105029302D01*
X179640789Y-105000000D01*
X179640789Y-104999999D01*
X178948800Y-104308011D01*
X178906378Y-104368598D01*
X178813351Y-104568092D01*
X178756380Y-104780715D01*
X178737195Y-105000000D01*
X137433500Y-105000000D01*
X137433500Y-103948801D01*
X179308011Y-103948801D01*
X179999999Y-104640789D01*
X180000000Y-104640789D01*
X180691986Y-103948801D01*
X180691986Y-103948800D01*
X180631403Y-103906379D01*
X180431905Y-103813350D01*
X180219284Y-103756380D01*
X180000000Y-103737195D01*
X179780715Y-103756380D01*
X179568092Y-103813351D01*
X179368598Y-103906378D01*
X179308011Y-103948801D01*
X137433500Y-103948801D01*
X137433500Y-96514594D01*
X137453502Y-96446473D01*
X137470405Y-96425499D01*
X139685500Y-94210405D01*
X139747812Y-94176379D01*
X139774595Y-94173500D01*
X159704719Y-94173500D01*
X159725507Y-94175795D01*
X159728479Y-94175701D01*
X159728481Y-94175702D01*
X159796557Y-94173562D01*
X159800517Y-94173500D01*
X159824466Y-94173500D01*
X159828428Y-94173500D01*
X159832428Y-94172994D01*
X159844271Y-94172061D01*
X159888461Y-94170673D01*
X159907910Y-94165021D01*
X159927270Y-94161012D01*
X159947369Y-94158474D01*
X159988487Y-94142193D01*
X159999689Y-94138357D01*
X160042165Y-94126018D01*
X160059611Y-94115699D01*
X160077352Y-94107009D01*
X160096189Y-94099552D01*
X160131964Y-94073558D01*
X160141875Y-94067048D01*
X160179934Y-94044542D01*
X160194263Y-94030212D01*
X160209291Y-94017377D01*
X160225679Y-94005472D01*
X160253870Y-93971393D01*
X160261840Y-93962634D01*
X160479071Y-93745404D01*
X160541384Y-93711379D01*
X160568167Y-93708500D01*
X160624057Y-93708500D01*
X160624059Y-93708500D01*
X160810860Y-93668794D01*
X160985324Y-93591118D01*
X161139825Y-93478866D01*
X161267612Y-93336944D01*
X161363099Y-93171556D01*
X161422114Y-92989928D01*
X161442076Y-92800000D01*
X161422114Y-92610072D01*
X161410209Y-92573435D01*
X161408183Y-92502468D01*
X161444845Y-92441670D01*
X161508557Y-92410345D01*
X161530043Y-92408500D01*
X169460405Y-92408500D01*
X169528526Y-92428502D01*
X169549500Y-92445405D01*
X169852878Y-92748783D01*
X169886904Y-92811095D01*
X169889092Y-92824703D01*
X169897987Y-92909327D01*
X169906458Y-92989929D01*
X169965472Y-93171556D01*
X170060958Y-93336942D01*
X170060960Y-93336944D01*
X170188747Y-93478866D01*
X170343248Y-93591118D01*
X170517712Y-93668794D01*
X170704513Y-93708500D01*
X170704515Y-93708500D01*
X170895485Y-93708500D01*
X170895487Y-93708500D01*
X171082288Y-93668794D01*
X171256752Y-93591118D01*
X171411253Y-93478866D01*
X171539040Y-93336944D01*
X171634527Y-93171556D01*
X171693542Y-92989928D01*
X171713504Y-92800000D01*
X171693542Y-92610072D01*
X171640038Y-92445405D01*
X171634527Y-92428443D01*
X171539041Y-92263057D01*
X171422387Y-92133500D01*
X171411253Y-92121134D01*
X171411104Y-92121026D01*
X171334002Y-92065007D01*
X171256752Y-92008882D01*
X171082288Y-91931206D01*
X170895487Y-91891500D01*
X170895485Y-91891500D01*
X170839594Y-91891500D01*
X170771473Y-91871498D01*
X170750499Y-91854595D01*
X170282248Y-91386344D01*
X170269171Y-91370021D01*
X170217347Y-91321355D01*
X170214505Y-91318600D01*
X170197574Y-91301669D01*
X170194770Y-91298865D01*
X170191575Y-91296386D01*
X170182554Y-91288682D01*
X170150320Y-91258413D01*
X170132567Y-91248653D01*
X170116041Y-91237797D01*
X170100041Y-91225386D01*
X170059466Y-91207828D01*
X170048804Y-91202604D01*
X170010063Y-91181305D01*
X169996313Y-91177775D01*
X169990437Y-91176266D01*
X169971731Y-91169862D01*
X169953145Y-91161819D01*
X169909475Y-91154902D01*
X169897853Y-91152495D01*
X169855030Y-91141500D01*
X169855029Y-91141500D01*
X169834776Y-91141500D01*
X169815066Y-91139949D01*
X169795057Y-91136779D01*
X169751039Y-91140941D01*
X169739181Y-91141500D01*
X155836572Y-91141500D01*
X155768451Y-91121498D01*
X155721958Y-91067842D01*
X155711262Y-91028671D01*
X155710729Y-91023596D01*
X155702748Y-90947667D01*
X155715520Y-90877833D01*
X155764021Y-90825986D01*
X155828058Y-90808500D01*
X172460406Y-90808500D01*
X172528527Y-90828502D01*
X172549500Y-90845404D01*
X173072077Y-91367982D01*
X173592754Y-91888659D01*
X173605833Y-91904983D01*
X173657651Y-91953643D01*
X173660493Y-91956398D01*
X173680230Y-91976135D01*
X173683360Y-91978563D01*
X173683432Y-91978619D01*
X173692442Y-91986314D01*
X173724679Y-92016586D01*
X173742426Y-92026342D01*
X173758950Y-92037196D01*
X173774959Y-92049614D01*
X173815542Y-92067175D01*
X173826193Y-92072393D01*
X173864940Y-92093695D01*
X173884560Y-92098732D01*
X173903267Y-92105137D01*
X173909880Y-92107998D01*
X173921854Y-92113181D01*
X173933689Y-92115055D01*
X173945136Y-92116868D01*
X174009290Y-92147279D01*
X174019064Y-92157006D01*
X174038747Y-92178866D01*
X174193248Y-92291118D01*
X174367712Y-92368794D01*
X174554513Y-92408500D01*
X174554515Y-92408500D01*
X174745485Y-92408500D01*
X174745487Y-92408500D01*
X174932288Y-92368794D01*
X175106752Y-92291118D01*
X175261253Y-92178866D01*
X175389040Y-92036944D01*
X175484527Y-91871556D01*
X175543542Y-91689928D01*
X175563504Y-91500000D01*
X175543542Y-91310072D01*
X175512931Y-91215862D01*
X175484527Y-91128443D01*
X175389041Y-90963057D01*
X175261252Y-90821133D01*
X175106753Y-90708883D01*
X175106752Y-90708882D01*
X174932288Y-90631206D01*
X174745487Y-90591500D01*
X174554513Y-90591500D01*
X174391747Y-90626097D01*
X174367707Y-90631207D01*
X174280340Y-90670105D01*
X174209973Y-90679539D01*
X174145677Y-90649432D01*
X174139997Y-90644093D01*
X173919500Y-90423595D01*
X173885475Y-90361283D01*
X173890540Y-90290467D01*
X173933087Y-90233632D01*
X173999608Y-90208821D01*
X174008596Y-90208500D01*
X175543130Y-90208500D01*
X175611251Y-90228502D01*
X175617164Y-90232545D01*
X175628964Y-90241118D01*
X175803428Y-90318794D01*
X175990229Y-90358500D01*
X175990231Y-90358500D01*
X176181201Y-90358500D01*
X176181203Y-90358500D01*
X176368004Y-90318794D01*
X176542468Y-90241118D01*
X176696969Y-90128866D01*
X176824756Y-89986944D01*
X176920243Y-89821556D01*
X176979258Y-89639928D01*
X176999220Y-89450000D01*
X176979258Y-89260072D01*
X176920243Y-89078444D01*
X176920243Y-89078443D01*
X176824757Y-88913057D01*
X176696968Y-88771133D01*
X176619718Y-88715008D01*
X176542468Y-88658882D01*
X176368004Y-88581206D01*
X176181203Y-88541500D01*
X175990229Y-88541500D01*
X175865695Y-88567970D01*
X175803427Y-88581206D01*
X175721142Y-88617842D01*
X175628964Y-88658882D01*
X175617188Y-88667437D01*
X175550324Y-88691294D01*
X175543130Y-88691500D01*
X171492586Y-88691500D01*
X171424465Y-88671498D01*
X171418551Y-88667454D01*
X171406752Y-88658882D01*
X171232288Y-88581206D01*
X171045487Y-88541500D01*
X170854513Y-88541500D01*
X170729978Y-88567970D01*
X170667711Y-88581206D01*
X170585426Y-88617842D01*
X170493248Y-88658882D01*
X170481472Y-88667437D01*
X170414608Y-88691294D01*
X170407414Y-88691500D01*
X167752733Y-88691500D01*
X167684612Y-88671498D01*
X167638119Y-88617842D01*
X167628015Y-88547568D01*
X167632900Y-88526564D01*
X167647351Y-88482085D01*
X167693542Y-88339928D01*
X167713504Y-88150000D01*
X167693542Y-87960072D01*
X167634527Y-87778444D01*
X167634527Y-87778443D01*
X167539041Y-87613057D01*
X167411252Y-87471133D01*
X167256753Y-87358883D01*
X167256752Y-87358882D01*
X167082288Y-87281206D01*
X166895487Y-87241500D01*
X166704513Y-87241500D01*
X166579978Y-87267970D01*
X166517711Y-87281206D01*
X166343246Y-87358883D01*
X166188746Y-87471133D01*
X166185435Y-87474812D01*
X166124988Y-87512051D01*
X166091800Y-87516500D01*
X129433849Y-87516500D01*
X129413064Y-87514205D01*
X129342033Y-87516438D01*
X129338075Y-87516500D01*
X129310144Y-87516500D01*
X129306232Y-87516993D01*
X129306199Y-87516996D01*
X129306101Y-87517009D01*
X129294300Y-87517937D01*
X129250110Y-87519326D01*
X129230657Y-87524978D01*
X129211303Y-87528986D01*
X129191201Y-87531526D01*
X129150084Y-87547804D01*
X129138859Y-87551647D01*
X129096408Y-87563980D01*
X129078967Y-87574295D01*
X129061219Y-87582989D01*
X129042383Y-87590447D01*
X129006614Y-87616434D01*
X128996697Y-87622948D01*
X128958637Y-87645457D01*
X128944305Y-87659788D01*
X128929281Y-87672619D01*
X128912896Y-87684524D01*
X128884711Y-87718593D01*
X128876723Y-87727370D01*
X127011336Y-89592757D01*
X126995016Y-89605833D01*
X126946370Y-89657635D01*
X126943621Y-89660472D01*
X126926667Y-89677427D01*
X126926660Y-89677434D01*
X126923865Y-89680230D01*
X126921442Y-89683352D01*
X126921426Y-89683371D01*
X126921365Y-89683451D01*
X126913689Y-89692436D01*
X126883414Y-89724677D01*
X126873652Y-89742434D01*
X126862801Y-89758952D01*
X126850385Y-89774959D01*
X126832824Y-89815539D01*
X126827604Y-89826195D01*
X126806304Y-89864940D01*
X126801267Y-89884559D01*
X126794864Y-89903261D01*
X126786818Y-89921855D01*
X126779901Y-89965524D01*
X126777495Y-89977144D01*
X126766500Y-90019969D01*
X126766500Y-90040223D01*
X126764949Y-90059933D01*
X126761779Y-90079944D01*
X126765940Y-90123963D01*
X126766499Y-90135819D01*
X126766500Y-96416147D01*
X126764204Y-96436935D01*
X126766438Y-96507984D01*
X126766500Y-96511943D01*
X126766500Y-96539856D01*
X126766995Y-96543774D01*
X126766997Y-96543806D01*
X126767008Y-96543888D01*
X126767937Y-96555697D01*
X126769326Y-96599892D01*
X126774977Y-96619341D01*
X126778986Y-96638696D01*
X126781525Y-96658794D01*
X126797801Y-96699903D01*
X126801644Y-96711130D01*
X126813980Y-96753590D01*
X126824294Y-96771030D01*
X126832987Y-96788774D01*
X126840448Y-96807617D01*
X126840449Y-96807619D01*
X126866431Y-96843380D01*
X126872948Y-96853301D01*
X126895458Y-96891363D01*
X126909778Y-96905683D01*
X126922618Y-96920716D01*
X126934525Y-96937105D01*
X126944586Y-96945428D01*
X126984323Y-97004262D01*
X126989579Y-97029340D01*
X127006458Y-97189929D01*
X127065472Y-97371556D01*
X127160958Y-97536942D01*
X127160960Y-97536944D01*
X127288747Y-97678866D01*
X127443248Y-97791118D01*
X127617712Y-97868794D01*
X127804513Y-97908500D01*
X127804515Y-97908500D01*
X127995485Y-97908500D01*
X127995487Y-97908500D01*
X128182288Y-97868794D01*
X128356752Y-97791118D01*
X128511253Y-97678866D01*
X128639040Y-97536944D01*
X128734527Y-97371556D01*
X128793542Y-97189928D01*
X128813504Y-97000000D01*
X128793542Y-96810072D01*
X128761394Y-96711130D01*
X128734527Y-96628443D01*
X128639041Y-96463057D01*
X128511252Y-96321133D01*
X128356753Y-96208883D01*
X128356752Y-96208882D01*
X128182288Y-96131206D01*
X128182284Y-96131205D01*
X128133302Y-96120793D01*
X128070829Y-96087065D01*
X128036508Y-96024915D01*
X128033500Y-95997547D01*
X128033500Y-90982118D01*
X128053502Y-90913997D01*
X128107158Y-90867504D01*
X128177432Y-90857400D01*
X128235752Y-90881810D01*
X128368938Y-90983056D01*
X128458731Y-91024599D01*
X128512157Y-91071355D01*
X128531823Y-91139574D01*
X128527867Y-91170284D01*
X128524268Y-91184303D01*
X128517864Y-91203010D01*
X128509818Y-91221604D01*
X128502901Y-91265273D01*
X128500495Y-91276893D01*
X128489500Y-91319718D01*
X128489500Y-91339972D01*
X128487949Y-91359682D01*
X128484779Y-91379691D01*
X128488941Y-91423710D01*
X128489500Y-91435568D01*
X128489500Y-92679147D01*
X128487204Y-92699935D01*
X128489438Y-92770984D01*
X128489500Y-92774943D01*
X128489500Y-92802856D01*
X128489995Y-92806774D01*
X128489997Y-92806806D01*
X128490008Y-92806888D01*
X128490937Y-92818697D01*
X128492326Y-92862892D01*
X128497977Y-92882341D01*
X128501986Y-92901696D01*
X128504525Y-92921794D01*
X128504525Y-92921796D01*
X128504526Y-92921797D01*
X128512383Y-92941643D01*
X128520801Y-92962903D01*
X128524644Y-92974130D01*
X128536980Y-93016590D01*
X128547294Y-93034030D01*
X128555987Y-93051774D01*
X128563448Y-93070617D01*
X128563449Y-93070619D01*
X128589431Y-93106380D01*
X128595948Y-93116301D01*
X128618458Y-93154363D01*
X128632778Y-93168683D01*
X128645618Y-93183716D01*
X128657526Y-93200105D01*
X128691598Y-93228292D01*
X128700378Y-93236282D01*
X128931874Y-93467778D01*
X128965900Y-93530090D01*
X128964486Y-93589483D01*
X128954022Y-93628534D01*
X128934647Y-93850000D01*
X128954022Y-94071467D01*
X129007946Y-94272709D01*
X129011560Y-94286196D01*
X129072609Y-94417117D01*
X129105512Y-94487678D01*
X129209999Y-94636900D01*
X129233023Y-94669781D01*
X129324147Y-94760905D01*
X129358171Y-94823215D01*
X129353107Y-94894031D01*
X129324147Y-94939094D01*
X129233023Y-95030218D01*
X129105512Y-95212322D01*
X129011559Y-95413807D01*
X128954022Y-95628532D01*
X128934647Y-95850000D01*
X128954022Y-96071467D01*
X128998061Y-96235819D01*
X129011560Y-96286196D01*
X129027852Y-96321134D01*
X129105512Y-96487678D01*
X129233025Y-96669784D01*
X129324146Y-96760905D01*
X129358172Y-96823217D01*
X129353107Y-96894032D01*
X129324146Y-96939095D01*
X129233025Y-97030215D01*
X129105512Y-97212322D01*
X129011559Y-97413807D01*
X128954022Y-97628532D01*
X128934647Y-97850000D01*
X128954022Y-98071467D01*
X128992469Y-98214949D01*
X129011560Y-98286196D01*
X129042401Y-98352334D01*
X129105512Y-98487678D01*
X129233025Y-98669784D01*
X129324146Y-98760905D01*
X129358172Y-98823217D01*
X129353107Y-98894032D01*
X129324146Y-98939095D01*
X129233025Y-99030215D01*
X129105512Y-99212322D01*
X129011559Y-99413807D01*
X128954022Y-99628532D01*
X128934647Y-99850000D01*
X128954022Y-100071467D01*
X129007946Y-100272709D01*
X129011560Y-100286196D01*
X129072609Y-100417117D01*
X129105512Y-100487678D01*
X129233025Y-100669784D01*
X129324146Y-100760905D01*
X129358172Y-100823217D01*
X129353107Y-100894032D01*
X129324146Y-100939095D01*
X129233025Y-101030215D01*
X129105512Y-101212322D01*
X129011559Y-101413807D01*
X128954022Y-101628532D01*
X128934647Y-101850000D01*
X128954022Y-102071467D01*
X129007946Y-102272709D01*
X129011560Y-102286196D01*
X129072609Y-102417117D01*
X129105512Y-102487678D01*
X129233025Y-102669784D01*
X129324146Y-102760905D01*
X129358172Y-102823217D01*
X129353107Y-102894032D01*
X129324146Y-102939095D01*
X129233025Y-103030215D01*
X129105512Y-103212322D01*
X129011559Y-103413807D01*
X128954022Y-103628532D01*
X128934647Y-103850000D01*
X128954022Y-104071467D01*
X129007946Y-104272709D01*
X129011560Y-104286196D01*
X129049984Y-104368597D01*
X129105512Y-104487678D01*
X129233025Y-104669784D01*
X129324146Y-104760905D01*
X129358172Y-104823217D01*
X129353107Y-104894032D01*
X129324146Y-104939095D01*
X129233025Y-105030215D01*
X129105512Y-105212322D01*
X129011559Y-105413807D01*
X128954022Y-105628532D01*
X128954022Y-105628537D01*
X128934647Y-105850000D01*
X128954022Y-106071463D01*
X128964486Y-106110513D01*
X128962796Y-106181490D01*
X128931874Y-106232220D01*
X126811336Y-108352757D01*
X126795016Y-108365833D01*
X126746370Y-108417635D01*
X126743621Y-108420472D01*
X126726667Y-108437427D01*
X126726660Y-108437434D01*
X126723865Y-108440230D01*
X126721442Y-108443352D01*
X126721426Y-108443371D01*
X126721365Y-108443451D01*
X126713689Y-108452436D01*
X126683414Y-108484677D01*
X126673652Y-108502434D01*
X126662801Y-108518952D01*
X126650385Y-108534959D01*
X126632824Y-108575539D01*
X126627604Y-108586195D01*
X126606304Y-108624940D01*
X126601267Y-108644559D01*
X126594864Y-108663261D01*
X126586818Y-108681855D01*
X126579901Y-108725524D01*
X126577495Y-108737144D01*
X126566500Y-108779969D01*
X126566500Y-108800223D01*
X126564949Y-108819933D01*
X126561779Y-108839942D01*
X120025500Y-108839942D01*
X120025500Y-80994928D01*
X120025500Y-80841440D01*
X119992352Y-80526058D01*
X119926419Y-80215868D01*
X119828424Y-79914270D01*
X119699440Y-79624567D01*
X119540880Y-79349933D01*
X119354482Y-79093378D01*
X119179136Y-78898638D01*
X146641500Y-78898638D01*
X146648011Y-78959201D01*
X146664173Y-79002533D01*
X146699111Y-79096205D01*
X146786738Y-79213261D01*
X146903794Y-79300888D01*
X146903795Y-79300888D01*
X146903796Y-79300889D01*
X147040799Y-79351989D01*
X147101362Y-79358500D01*
X147104731Y-79358500D01*
X148895269Y-79358500D01*
X148898638Y-79358500D01*
X148959201Y-79351989D01*
X149096204Y-79300889D01*
X149213261Y-79213261D01*
X149300889Y-79096204D01*
X149344999Y-78977941D01*
X149387545Y-78921107D01*
X149454065Y-78896296D01*
X149523439Y-78911387D01*
X149555753Y-78936635D01*
X149593780Y-78977943D01*
X149616762Y-79002908D01*
X149794421Y-79141187D01*
X149794424Y-79141189D01*
X149992426Y-79248342D01*
X150205365Y-79321444D01*
X150427431Y-79358500D01*
X150427434Y-79358500D01*
X150652566Y-79358500D01*
X150652569Y-79358500D01*
X150874635Y-79321444D01*
X151087574Y-79248342D01*
X151285576Y-79141189D01*
X151463240Y-79002906D01*
X151615722Y-78837268D01*
X151704518Y-78701354D01*
X151758521Y-78655268D01*
X151828869Y-78645693D01*
X151893226Y-78675670D01*
X151915480Y-78701353D01*
X152004278Y-78837268D01*
X152116525Y-78959200D01*
X152156762Y-79002908D01*
X152334421Y-79141187D01*
X152334424Y-79141189D01*
X152532426Y-79248342D01*
X152745365Y-79321444D01*
X152967431Y-79358500D01*
X152967434Y-79358500D01*
X153192566Y-79358500D01*
X153192569Y-79358500D01*
X153414635Y-79321444D01*
X153627574Y-79248342D01*
X153825576Y-79141189D01*
X154003240Y-79002906D01*
X154155722Y-78837268D01*
X154244518Y-78701354D01*
X154298521Y-78655268D01*
X154368869Y-78645693D01*
X154433226Y-78675670D01*
X154455480Y-78701353D01*
X154544278Y-78837268D01*
X154656525Y-78959200D01*
X154696762Y-79002908D01*
X154874421Y-79141187D01*
X154874424Y-79141189D01*
X155072426Y-79248342D01*
X155285365Y-79321444D01*
X155507431Y-79358500D01*
X155507434Y-79358500D01*
X155732566Y-79358500D01*
X155732569Y-79358500D01*
X155954635Y-79321444D01*
X156167574Y-79248342D01*
X156365576Y-79141189D01*
X156543240Y-79002906D01*
X156695722Y-78837268D01*
X156784518Y-78701354D01*
X156838521Y-78655268D01*
X156908869Y-78645693D01*
X156973226Y-78675670D01*
X156995480Y-78701353D01*
X157084278Y-78837268D01*
X157196525Y-78959200D01*
X157236762Y-79002908D01*
X157414421Y-79141187D01*
X157414424Y-79141189D01*
X157612426Y-79248342D01*
X157825365Y-79321444D01*
X158047431Y-79358500D01*
X158047434Y-79358500D01*
X158272566Y-79358500D01*
X158272569Y-79358500D01*
X158494635Y-79321444D01*
X158707574Y-79248342D01*
X158905576Y-79141189D01*
X159083240Y-79002906D01*
X159235722Y-78837268D01*
X159324518Y-78701354D01*
X159378521Y-78655268D01*
X159448869Y-78645693D01*
X159513226Y-78675670D01*
X159535480Y-78701353D01*
X159624278Y-78837268D01*
X159736525Y-78959200D01*
X159776762Y-79002908D01*
X159954421Y-79141187D01*
X159954424Y-79141189D01*
X160152426Y-79248342D01*
X160365365Y-79321444D01*
X160587431Y-79358500D01*
X160587434Y-79358500D01*
X160812566Y-79358500D01*
X160812569Y-79358500D01*
X161034635Y-79321444D01*
X161247574Y-79248342D01*
X161445576Y-79141189D01*
X161623240Y-79002906D01*
X161775722Y-78837268D01*
X161864518Y-78701354D01*
X161918521Y-78655268D01*
X161988869Y-78645693D01*
X162053226Y-78675670D01*
X162075480Y-78701353D01*
X162164278Y-78837268D01*
X162276525Y-78959200D01*
X162316762Y-79002908D01*
X162494421Y-79141187D01*
X162494424Y-79141189D01*
X162692426Y-79248342D01*
X162905365Y-79321444D01*
X163127431Y-79358500D01*
X163127434Y-79358500D01*
X163352566Y-79358500D01*
X163352569Y-79358500D01*
X163574635Y-79321444D01*
X163787574Y-79248342D01*
X163985576Y-79141189D01*
X164163240Y-79002906D01*
X164315722Y-78837268D01*
X164404518Y-78701354D01*
X164458521Y-78655268D01*
X164528869Y-78645693D01*
X164593226Y-78675670D01*
X164615480Y-78701353D01*
X164704278Y-78837268D01*
X164816525Y-78959200D01*
X164856762Y-79002908D01*
X165034421Y-79141187D01*
X165034424Y-79141189D01*
X165232426Y-79248342D01*
X165445365Y-79321444D01*
X165667431Y-79358500D01*
X165667434Y-79358500D01*
X165892566Y-79358500D01*
X165892569Y-79358500D01*
X166114635Y-79321444D01*
X166327574Y-79248342D01*
X166525576Y-79141189D01*
X166703240Y-79002906D01*
X166855722Y-78837268D01*
X166944518Y-78701354D01*
X166998521Y-78655268D01*
X167068869Y-78645693D01*
X167133226Y-78675670D01*
X167155480Y-78701353D01*
X167244278Y-78837268D01*
X167356525Y-78959200D01*
X167396762Y-79002908D01*
X167574421Y-79141187D01*
X167574424Y-79141189D01*
X167772426Y-79248342D01*
X167985365Y-79321444D01*
X168207431Y-79358500D01*
X168207434Y-79358500D01*
X168432566Y-79358500D01*
X168432569Y-79358500D01*
X168654635Y-79321444D01*
X168867574Y-79248342D01*
X169065576Y-79141189D01*
X169243240Y-79002906D01*
X169395722Y-78837268D01*
X169484817Y-78700896D01*
X169538819Y-78654809D01*
X169609167Y-78645234D01*
X169673524Y-78675211D01*
X169695782Y-78700897D01*
X169784678Y-78836962D01*
X169937096Y-79002533D01*
X170114697Y-79140766D01*
X170312631Y-79247883D01*
X170525485Y-79320955D01*
X170606000Y-79334391D01*
X170606000Y-78433674D01*
X170717685Y-78484680D01*
X170824237Y-78500000D01*
X170895763Y-78500000D01*
X171002315Y-78484680D01*
X171114000Y-78433674D01*
X171114000Y-79334390D01*
X171194514Y-79320955D01*
X171407368Y-79247883D01*
X171605302Y-79140766D01*
X171782903Y-79002533D01*
X171935321Y-78836962D01*
X172058419Y-78648548D01*
X172148822Y-78442451D01*
X172196544Y-78254000D01*
X171291116Y-78254000D01*
X171319493Y-78209844D01*
X171360000Y-78071889D01*
X171360000Y-77928111D01*
X171319493Y-77790156D01*
X171291116Y-77746000D01*
X172196544Y-77746000D01*
X172196544Y-77745999D01*
X172148822Y-77557548D01*
X172058419Y-77351451D01*
X171935321Y-77163037D01*
X171782903Y-76997466D01*
X171605302Y-76859233D01*
X171407368Y-76752116D01*
X171194510Y-76679042D01*
X171114000Y-76665606D01*
X171114000Y-77566325D01*
X171002315Y-77515320D01*
X170895763Y-77500000D01*
X170824237Y-77500000D01*
X170717685Y-77515320D01*
X170606000Y-77566325D01*
X170606000Y-76665607D01*
X170605999Y-76665606D01*
X170525489Y-76679042D01*
X170312631Y-76752116D01*
X170114697Y-76859233D01*
X169937096Y-76997466D01*
X169784678Y-77163037D01*
X169695782Y-77299102D01*
X169641778Y-77345190D01*
X169571430Y-77354765D01*
X169507073Y-77324787D01*
X169484816Y-77299101D01*
X169395723Y-77162734D01*
X169395722Y-77162732D01*
X169243240Y-76997094D01*
X169243239Y-76997093D01*
X169243237Y-76997091D01*
X169065578Y-76858812D01*
X168867573Y-76751657D01*
X168714510Y-76699111D01*
X168654635Y-76678556D01*
X168432569Y-76641500D01*
X168207431Y-76641500D01*
X167985365Y-76678556D01*
X167985362Y-76678556D01*
X167985362Y-76678557D01*
X167772426Y-76751657D01*
X167574421Y-76858812D01*
X167396762Y-76997091D01*
X167244278Y-77162731D01*
X167155483Y-77298643D01*
X167101479Y-77344731D01*
X167031131Y-77354306D01*
X166966774Y-77324328D01*
X166944517Y-77298643D01*
X166855721Y-77162731D01*
X166795945Y-77097798D01*
X166703240Y-76997094D01*
X166703239Y-76997093D01*
X166703237Y-76997091D01*
X166525578Y-76858812D01*
X166327573Y-76751657D01*
X166174510Y-76699111D01*
X166114635Y-76678556D01*
X165892569Y-76641500D01*
X165667431Y-76641500D01*
X165445365Y-76678556D01*
X165445362Y-76678556D01*
X165445362Y-76678557D01*
X165232426Y-76751657D01*
X165034421Y-76858812D01*
X164856762Y-76997091D01*
X164704278Y-77162731D01*
X164615483Y-77298643D01*
X164561479Y-77344731D01*
X164491131Y-77354306D01*
X164426774Y-77324328D01*
X164404517Y-77298643D01*
X164315721Y-77162731D01*
X164255945Y-77097798D01*
X164163240Y-76997094D01*
X164163239Y-76997093D01*
X164163237Y-76997091D01*
X163985578Y-76858812D01*
X163787573Y-76751657D01*
X163634510Y-76699111D01*
X163574635Y-76678556D01*
X163352569Y-76641500D01*
X163127431Y-76641500D01*
X162905365Y-76678556D01*
X162905362Y-76678556D01*
X162905362Y-76678557D01*
X162692426Y-76751657D01*
X162494421Y-76858812D01*
X162316762Y-76997091D01*
X162164278Y-77162731D01*
X162075483Y-77298643D01*
X162021479Y-77344731D01*
X161951131Y-77354306D01*
X161886774Y-77324328D01*
X161864517Y-77298643D01*
X161775721Y-77162731D01*
X161715945Y-77097798D01*
X161623240Y-76997094D01*
X161623239Y-76997093D01*
X161623237Y-76997091D01*
X161445578Y-76858812D01*
X161247573Y-76751657D01*
X161094510Y-76699111D01*
X161034635Y-76678556D01*
X160812569Y-76641500D01*
X160587431Y-76641500D01*
X160365365Y-76678556D01*
X160365362Y-76678556D01*
X160365362Y-76678557D01*
X160152426Y-76751657D01*
X159954421Y-76858812D01*
X159776762Y-76997091D01*
X159624278Y-77162731D01*
X159535483Y-77298643D01*
X159481479Y-77344731D01*
X159411131Y-77354306D01*
X159346774Y-77324328D01*
X159324517Y-77298643D01*
X159235721Y-77162731D01*
X159175945Y-77097798D01*
X159083240Y-76997094D01*
X159083239Y-76997093D01*
X159083237Y-76997091D01*
X158905578Y-76858812D01*
X158707573Y-76751657D01*
X158554510Y-76699111D01*
X158494635Y-76678556D01*
X158272569Y-76641500D01*
X158047431Y-76641500D01*
X157825365Y-76678556D01*
X157825362Y-76678556D01*
X157825362Y-76678557D01*
X157612426Y-76751657D01*
X157414421Y-76858812D01*
X157236762Y-76997091D01*
X157084278Y-77162731D01*
X156995483Y-77298643D01*
X156941479Y-77344731D01*
X156871131Y-77354306D01*
X156806774Y-77324328D01*
X156784517Y-77298643D01*
X156695721Y-77162731D01*
X156635945Y-77097798D01*
X156543240Y-76997094D01*
X156543239Y-76997093D01*
X156543237Y-76997091D01*
X156365578Y-76858812D01*
X156167573Y-76751657D01*
X156014510Y-76699111D01*
X155954635Y-76678556D01*
X155732569Y-76641500D01*
X155507431Y-76641500D01*
X155285365Y-76678556D01*
X155285362Y-76678556D01*
X155285362Y-76678557D01*
X155072426Y-76751657D01*
X154874421Y-76858812D01*
X154696762Y-76997091D01*
X154544278Y-77162731D01*
X154455483Y-77298643D01*
X154401479Y-77344731D01*
X154331131Y-77354306D01*
X154266774Y-77324328D01*
X154244517Y-77298643D01*
X154155721Y-77162731D01*
X154095945Y-77097798D01*
X154003240Y-76997094D01*
X154003239Y-76997093D01*
X154003237Y-76997091D01*
X153825578Y-76858812D01*
X153627573Y-76751657D01*
X153474510Y-76699111D01*
X153414635Y-76678556D01*
X153192569Y-76641500D01*
X152967431Y-76641500D01*
X152745365Y-76678556D01*
X152745362Y-76678556D01*
X152745362Y-76678557D01*
X152532426Y-76751657D01*
X152334421Y-76858812D01*
X152156762Y-76997091D01*
X152004278Y-77162731D01*
X151915483Y-77298643D01*
X151861479Y-77344731D01*
X151791131Y-77354306D01*
X151726774Y-77324328D01*
X151704517Y-77298643D01*
X151615721Y-77162731D01*
X151555945Y-77097798D01*
X151463240Y-76997094D01*
X151463239Y-76997093D01*
X151463237Y-76997091D01*
X151285578Y-76858812D01*
X151087573Y-76751657D01*
X150934510Y-76699111D01*
X150874635Y-76678556D01*
X150652569Y-76641500D01*
X150427431Y-76641500D01*
X150205365Y-76678556D01*
X150205362Y-76678556D01*
X150205362Y-76678557D01*
X149992426Y-76751657D01*
X149794421Y-76858812D01*
X149616758Y-76997094D01*
X149555754Y-77063362D01*
X149494901Y-77099933D01*
X149423937Y-77097798D01*
X149365392Y-77057636D01*
X149344998Y-77022056D01*
X149335688Y-76997094D01*
X149300889Y-76903796D01*
X149300888Y-76903794D01*
X149213261Y-76786738D01*
X149096205Y-76699111D01*
X149006377Y-76665607D01*
X148959201Y-76648011D01*
X148898638Y-76641500D01*
X147101362Y-76641500D01*
X147098013Y-76641859D01*
X147098013Y-76641860D01*
X147040799Y-76648011D01*
X146903794Y-76699111D01*
X146786738Y-76786738D01*
X146699111Y-76903794D01*
X146655002Y-77022056D01*
X146648011Y-77040799D01*
X146641500Y-77101362D01*
X146641500Y-78898638D01*
X119179136Y-78898638D01*
X119142287Y-78857713D01*
X118906622Y-78645518D01*
X118650067Y-78459120D01*
X118621481Y-78442616D01*
X118378295Y-78302212D01*
X118378289Y-78302209D01*
X118375433Y-78300560D01*
X118335227Y-78282659D01*
X118088743Y-78172917D01*
X118088735Y-78172914D01*
X118085730Y-78171576D01*
X117784132Y-78073581D01*
X117780917Y-78072897D01*
X117780911Y-78072896D01*
X117557929Y-78025500D01*
X117473942Y-78007648D01*
X117470672Y-78007304D01*
X117470664Y-78007303D01*
X117161829Y-77974843D01*
X117161817Y-77974842D01*
X117158560Y-77974500D01*
X117155270Y-77974500D01*
X103003293Y-77974500D01*
X102996700Y-77974327D01*
X102978512Y-77973373D01*
X102695679Y-77958550D01*
X102682563Y-77957172D01*
X102388088Y-77910532D01*
X102375188Y-77907790D01*
X102087205Y-77830626D01*
X102074661Y-77826550D01*
X101796327Y-77719707D01*
X101784280Y-77714343D01*
X101518631Y-77578989D01*
X101507208Y-77572394D01*
X101257167Y-77410015D01*
X101246498Y-77402263D01*
X101187493Y-77354482D01*
X101014802Y-77214639D01*
X101005001Y-77205814D01*
X100794185Y-76994998D01*
X100785360Y-76985197D01*
X100719441Y-76903794D01*
X100597732Y-76753495D01*
X100589988Y-76742838D01*
X100427601Y-76492785D01*
X100421010Y-76481368D01*
X100285656Y-76215719D01*
X100280292Y-76203672D01*
X100173449Y-75925338D01*
X100169373Y-75912794D01*
X100134898Y-75784132D01*
X100092209Y-75624811D01*
X100089467Y-75611911D01*
X100042827Y-75317436D01*
X100041449Y-75304319D01*
X100025673Y-75003300D01*
X100025500Y-74996706D01*
X100025500Y-73131182D01*
X101249500Y-73131182D01*
X101288604Y-73390615D01*
X101288605Y-73390618D01*
X101365936Y-73641323D01*
X101479772Y-73877704D01*
X101627563Y-74094474D01*
X101627565Y-74094476D01*
X101627567Y-74094479D01*
X101806019Y-74286805D01*
X102011143Y-74450386D01*
X102238357Y-74581568D01*
X102482584Y-74677420D01*
X102738370Y-74735802D01*
X102934506Y-74750500D01*
X102936859Y-74750500D01*
X103063141Y-74750500D01*
X103065494Y-74750500D01*
X103261630Y-74735802D01*
X103517416Y-74677420D01*
X103761643Y-74581568D01*
X103988857Y-74450386D01*
X104193981Y-74286805D01*
X104372433Y-74094479D01*
X104520228Y-73877704D01*
X104634063Y-73641323D01*
X104711396Y-73390615D01*
X104750500Y-73131182D01*
X180249500Y-73131182D01*
X180288604Y-73390615D01*
X180288605Y-73390618D01*
X180365936Y-73641323D01*
X180479772Y-73877704D01*
X180627563Y-74094474D01*
X180627565Y-74094476D01*
X180627567Y-74094479D01*
X180806019Y-74286805D01*
X181011143Y-74450386D01*
X181238357Y-74581568D01*
X181482584Y-74677420D01*
X181738370Y-74735802D01*
X181934506Y-74750500D01*
X181936859Y-74750500D01*
X182063141Y-74750500D01*
X182065494Y-74750500D01*
X182261630Y-74735802D01*
X182517416Y-74677420D01*
X182761643Y-74581568D01*
X182988857Y-74450386D01*
X183193981Y-74286805D01*
X183372433Y-74094479D01*
X183520228Y-73877704D01*
X183634063Y-73641323D01*
X183711396Y-73390615D01*
X183750500Y-73131182D01*
X183750500Y-72868818D01*
X183711396Y-72609385D01*
X183634063Y-72358677D01*
X183624173Y-72338141D01*
X183551886Y-72188035D01*
X183520228Y-72122296D01*
X183372433Y-71905521D01*
X183193981Y-71713195D01*
X182988857Y-71549614D01*
X182761643Y-71418432D01*
X182517417Y-71322580D01*
X182261630Y-71264198D01*
X182067836Y-71249675D01*
X182067822Y-71249674D01*
X182065494Y-71249500D01*
X181934506Y-71249500D01*
X181932178Y-71249674D01*
X181932163Y-71249675D01*
X181738369Y-71264198D01*
X181482582Y-71322580D01*
X181238356Y-71418432D01*
X181084592Y-71507208D01*
X181011143Y-71549614D01*
X180806019Y-71713195D01*
X180728884Y-71796327D01*
X180627563Y-71905525D01*
X180479772Y-72122295D01*
X180365936Y-72358676D01*
X180288605Y-72609381D01*
X180288604Y-72609385D01*
X180249500Y-72868818D01*
X180249500Y-73131182D01*
X104750500Y-73131182D01*
X104750500Y-72868818D01*
X104711396Y-72609385D01*
X104634063Y-72358677D01*
X104624173Y-72338141D01*
X104551886Y-72188035D01*
X104520228Y-72122296D01*
X104372433Y-71905521D01*
X104193981Y-71713195D01*
X103988857Y-71549614D01*
X103761643Y-71418432D01*
X103761642Y-71418432D01*
X103517417Y-71322580D01*
X103261630Y-71264198D01*
X103067836Y-71249675D01*
X103067822Y-71249674D01*
X103065494Y-71249500D01*
X102934506Y-71249500D01*
X102932178Y-71249674D01*
X102932163Y-71249675D01*
X102738369Y-71264198D01*
X102482582Y-71322580D01*
X102238356Y-71418432D01*
X102084592Y-71507208D01*
X102011143Y-71549614D01*
X101806019Y-71713195D01*
X101728884Y-71796327D01*
X101627563Y-71905525D01*
X101479772Y-72122295D01*
X101365936Y-72358676D01*
X101288605Y-72609381D01*
X101288604Y-72609385D01*
X101249500Y-72868818D01*
X101249500Y-73131182D01*
X100025500Y-73131182D01*
X100025500Y-73003293D01*
X100025673Y-72996699D01*
X100034547Y-72827372D01*
X100041449Y-72695678D01*
X100042827Y-72682563D01*
X100089467Y-72388088D01*
X100092209Y-72375188D01*
X100096633Y-72358677D01*
X100169376Y-72087195D01*
X100173445Y-72074672D01*
X100280295Y-71796319D01*
X100285656Y-71784280D01*
X100421014Y-71518623D01*
X100427596Y-71507222D01*
X100589994Y-71257151D01*
X100597725Y-71246512D01*
X100785369Y-71014790D01*
X100794175Y-71005011D01*
X101005011Y-70794175D01*
X101014790Y-70785369D01*
X101246512Y-70597725D01*
X101257151Y-70589994D01*
X101507222Y-70427596D01*
X101518623Y-70421014D01*
X101784280Y-70285655D01*
X101796319Y-70280295D01*
X102074672Y-70173445D01*
X102087195Y-70169376D01*
X102375192Y-70092208D01*
X102388084Y-70089467D01*
X102682566Y-70042826D01*
X102695678Y-70041449D01*
X102996699Y-70025672D01*
X103003293Y-70025500D01*
X103008285Y-70025500D01*
X181991715Y-70025500D01*
X181996606Y-70025500D01*
X182003405Y-70025684D01*
G37*
%TD.AperFunction*%
M02*
